# Suhail Medical Dictionary v20.18 educational procedural bone mesh
v -0.073795 1.268616 0.100000
v -0.067143 1.270103 0.093844
v -0.062165 1.277388 0.091294
v -0.061776 1.286203 0.093844
v -0.066205 1.291384 0.100000
v -0.072857 1.289897 0.106156
v -0.077835 1.282612 0.108706
v -0.078224 1.273797 0.106156
v -0.043795 1.258616 0.130000
v -0.037143 1.260103 0.123844
v -0.032165 1.267388 0.121294
v -0.031776 1.276203 0.123844
v -0.036205 1.281384 0.130000
v -0.042857 1.279897 0.136156
v -0.047835 1.272612 0.138706
v -0.048224 1.263797 0.136156
v -0.070000 1.292000 0.100000
v -0.070000 1.292000 0.100000
v -0.070000 1.292000 0.100000
v -0.070000 1.292000 0.100000
v -0.070000 1.292000 0.100000
v -0.070000 1.292000 0.100000
v -0.070000 1.292000 0.100000
v -0.070000 1.292000 0.100000
v -0.062947 1.289708 0.100000
v -0.065012 1.289708 0.104988
v -0.070000 1.289708 0.107053
v -0.074988 1.289708 0.104988
v -0.077053 1.289708 0.100000
v -0.074988 1.289708 0.095012
v -0.070000 1.289708 0.092947
v -0.065012 1.289708 0.095012
v -0.058587 1.283708 0.100000
v -0.061930 1.283708 0.108070
v -0.070000 1.283708 0.111413
v -0.078070 1.283708 0.108070
v -0.081413 1.283708 0.100000
v -0.078070 1.283708 0.091930
v -0.070000 1.283708 0.088587
v -0.061930 1.283708 0.091930
v -0.058587 1.276292 0.100000
v -0.061930 1.276292 0.108070
v -0.070000 1.276292 0.111413
v -0.078070 1.276292 0.108070
v -0.081413 1.276292 0.100000
v -0.078070 1.276292 0.091930
v -0.070000 1.276292 0.088587
v -0.061930 1.276292 0.091930
v -0.062947 1.270292 0.100000
v -0.065012 1.270292 0.104988
v -0.070000 1.270292 0.107053
v -0.074988 1.270292 0.104988
v -0.077053 1.270292 0.100000
v -0.074988 1.270292 0.095012
v -0.070000 1.270292 0.092947
v -0.065012 1.270292 0.095012
v -0.070000 1.268000 0.100000
v -0.070000 1.268000 0.100000
v -0.070000 1.268000 0.100000
v -0.070000 1.268000 0.100000
v -0.070000 1.268000 0.100000
v -0.070000 1.268000 0.100000
v -0.070000 1.268000 0.100000
v -0.070000 1.268000 0.100000
v -0.040000 1.282000 0.130000
v -0.040000 1.282000 0.130000
v -0.040000 1.282000 0.130000
v -0.040000 1.282000 0.130000
v -0.040000 1.282000 0.130000
v -0.040000 1.282000 0.130000
v -0.040000 1.282000 0.130000
v -0.040000 1.282000 0.130000
v -0.032947 1.279708 0.130000
v -0.035012 1.279708 0.134988
v -0.040000 1.279708 0.137053
v -0.044988 1.279708 0.134988
v -0.047053 1.279708 0.130000
v -0.044988 1.279708 0.125012
v -0.040000 1.279708 0.122947
v -0.035012 1.279708 0.125012
v -0.028587 1.273708 0.130000
v -0.031930 1.273708 0.138070
v -0.040000 1.273708 0.141413
v -0.048070 1.273708 0.138070
v -0.051413 1.273708 0.130000
v -0.048070 1.273708 0.121930
v -0.040000 1.273708 0.118587
v -0.031930 1.273708 0.121930
v -0.028587 1.266292 0.130000
v -0.031930 1.266292 0.138070
v -0.040000 1.266292 0.141413
v -0.048070 1.266292 0.138070
v -0.051413 1.266292 0.130000
v -0.048070 1.266292 0.121930
v -0.040000 1.266292 0.118587
v -0.031930 1.266292 0.121930
v -0.032947 1.260292 0.130000
v -0.035012 1.260292 0.134988
v -0.040000 1.260292 0.137053
v -0.044988 1.260292 0.134988
v -0.047053 1.260292 0.130000
v -0.044988 1.260292 0.125012
v -0.040000 1.260292 0.122947
v -0.035012 1.260292 0.125012
v -0.040000 1.258000 0.130000
v -0.040000 1.258000 0.130000
v -0.040000 1.258000 0.130000
v -0.040000 1.258000 0.130000
v -0.040000 1.258000 0.130000
v -0.040000 1.258000 0.130000
v -0.040000 1.258000 0.130000
v -0.040000 1.258000 0.130000
v -0.041488 1.258093 0.130000
v -0.038116 1.261213 0.122047
v -0.035847 1.269481 0.118753
v -0.036011 1.278053 0.122047
v -0.038512 1.281907 0.130000
v -0.041884 1.278787 0.137953
v -0.044153 1.270519 0.141247
v -0.043989 1.261947 0.137953
v -0.001488 1.253093 0.145000
v 0.001884 1.256213 0.137047
v 0.004153 1.264481 0.133753
v 0.003989 1.273053 0.137047
v 0.001488 1.276907 0.145000
v -0.001884 1.273787 0.152953
v -0.004153 1.265519 0.156247
v -0.003989 1.256947 0.152953
v -0.040000 1.282000 0.130000
v -0.040000 1.282000 0.130000
v -0.040000 1.282000 0.130000
v -0.040000 1.282000 0.130000
v -0.040000 1.282000 0.130000
v -0.040000 1.282000 0.130000
v -0.040000 1.282000 0.130000
v -0.040000 1.282000 0.130000
v -0.032947 1.279708 0.130000
v -0.035012 1.279708 0.134988
v -0.040000 1.279708 0.137053
v -0.044988 1.279708 0.134988
v -0.047053 1.279708 0.130000
v -0.044988 1.279708 0.125012
v -0.040000 1.279708 0.122947
v -0.035012 1.279708 0.125012
v -0.028587 1.273708 0.130000
v -0.031930 1.273708 0.138070
v -0.040000 1.273708 0.141413
v -0.048070 1.273708 0.138070
v -0.051413 1.273708 0.130000
v -0.048070 1.273708 0.121930
v -0.040000 1.273708 0.118587
v -0.031930 1.273708 0.121930
v -0.028587 1.266292 0.130000
v -0.031930 1.266292 0.138070
v -0.040000 1.266292 0.141413
v -0.048070 1.266292 0.138070
v -0.051413 1.266292 0.130000
v -0.048070 1.266292 0.121930
v -0.040000 1.266292 0.118587
v -0.031930 1.266292 0.121930
v -0.032947 1.260292 0.130000
v -0.035012 1.260292 0.134988
v -0.040000 1.260292 0.137053
v -0.044988 1.260292 0.134988
v -0.047053 1.260292 0.130000
v -0.044988 1.260292 0.125012
v -0.040000 1.260292 0.122947
v -0.035012 1.260292 0.125012
v -0.040000 1.258000 0.130000
v -0.040000 1.258000 0.130000
v -0.040000 1.258000 0.130000
v -0.040000 1.258000 0.130000
v -0.040000 1.258000 0.130000
v -0.040000 1.258000 0.130000
v -0.040000 1.258000 0.130000
v -0.040000 1.258000 0.130000
v 0.000000 1.277000 0.145000
v 0.000000 1.277000 0.145000
v 0.000000 1.277000 0.145000
v 0.000000 1.277000 0.145000
v 0.000000 1.277000 0.145000
v 0.000000 1.277000 0.145000
v 0.000000 1.277000 0.145000
v 0.000000 1.277000 0.145000
v 0.007053 1.274708 0.145000
v 0.004988 1.274708 0.149988
v 0.000000 1.274708 0.152053
v -0.004988 1.274708 0.149988
v -0.007053 1.274708 0.145000
v -0.004988 1.274708 0.140012
v -0.000000 1.274708 0.137947
v 0.004988 1.274708 0.140012
v 0.011413 1.268708 0.145000
v 0.008070 1.268708 0.153070
v 0.000000 1.268708 0.156413
v -0.008070 1.268708 0.153070
v -0.011413 1.268708 0.145000
v -0.008070 1.268708 0.136930
v -0.000000 1.268708 0.133587
v 0.008070 1.268708 0.136930
v 0.011413 1.261292 0.145000
v 0.008070 1.261292 0.153070
v 0.000000 1.261292 0.156413
v -0.008070 1.261292 0.153070
v -0.011413 1.261292 0.145000
v -0.008070 1.261292 0.136930
v -0.000000 1.261292 0.133587
v 0.008070 1.261292 0.136930
v 0.007053 1.255292 0.145000
v 0.004988 1.255292 0.149988
v 0.000000 1.255292 0.152053
v -0.004988 1.255292 0.149988
v -0.007053 1.255292 0.145000
v -0.004988 1.255292 0.140012
v -0.000000 1.255292 0.137947
v 0.004988 1.255292 0.140012
v 0.000000 1.253000 0.145000
v 0.000000 1.253000 0.145000
v 0.000000 1.253000 0.145000
v -0.000000 1.253000 0.145000
v -0.000000 1.253000 0.145000
v -0.000000 1.253000 0.145000
v -0.000000 1.253000 0.145000
v 0.000000 1.253000 0.145000
v 0.001488 1.253093 0.145000
v -0.001884 1.256213 0.137047
v -0.004153 1.264481 0.133753
v -0.003989 1.273053 0.137047
v -0.001488 1.276907 0.145000
v 0.001884 1.273787 0.152953
v 0.004153 1.265519 0.156247
v 0.003989 1.256947 0.152953
v 0.041488 1.258093 0.130000
v 0.038116 1.261213 0.122047
v 0.035847 1.269481 0.118753
v 0.036011 1.278053 0.122047
v 0.038512 1.281907 0.130000
v 0.041884 1.278787 0.137953
v 0.044153 1.270519 0.141247
v 0.043989 1.261947 0.137953
v 0.000000 1.277000 0.145000
v 0.000000 1.277000 0.145000
v 0.000000 1.277000 0.145000
v 0.000000 1.277000 0.145000
v 0.000000 1.277000 0.145000
v 0.000000 1.277000 0.145000
v 0.000000 1.277000 0.145000
v 0.000000 1.277000 0.145000
v 0.007053 1.274708 0.145000
v 0.004988 1.274708 0.149988
v 0.000000 1.274708 0.152053
v -0.004988 1.274708 0.149988
v -0.007053 1.274708 0.145000
v -0.004988 1.274708 0.140012
v -0.000000 1.274708 0.137947
v 0.004988 1.274708 0.140012
v 0.011413 1.268708 0.145000
v 0.008070 1.268708 0.153070
v 0.000000 1.268708 0.156413
v -0.008070 1.268708 0.153070
v -0.011413 1.268708 0.145000
v -0.008070 1.268708 0.136930
v -0.000000 1.268708 0.133587
v 0.008070 1.268708 0.136930
v 0.011413 1.261292 0.145000
v 0.008070 1.261292 0.153070
v 0.000000 1.261292 0.156413
v -0.008070 1.261292 0.153070
v -0.011413 1.261292 0.145000
v -0.008070 1.261292 0.136930
v -0.000000 1.261292 0.133587
v 0.008070 1.261292 0.136930
v 0.007053 1.255292 0.145000
v 0.004988 1.255292 0.149988
v 0.000000 1.255292 0.152053
v -0.004988 1.255292 0.149988
v -0.007053 1.255292 0.145000
v -0.004988 1.255292 0.140012
v -0.000000 1.255292 0.137947
v 0.004988 1.255292 0.140012
v 0.000000 1.253000 0.145000
v 0.000000 1.253000 0.145000
v 0.000000 1.253000 0.145000
v -0.000000 1.253000 0.145000
v -0.000000 1.253000 0.145000
v -0.000000 1.253000 0.145000
v -0.000000 1.253000 0.145000
v 0.000000 1.253000 0.145000
v 0.040000 1.282000 0.130000
v 0.040000 1.282000 0.130000
v 0.040000 1.282000 0.130000
v 0.040000 1.282000 0.130000
v 0.040000 1.282000 0.130000
v 0.040000 1.282000 0.130000
v 0.040000 1.282000 0.130000
v 0.040000 1.282000 0.130000
v 0.047053 1.279708 0.130000
v 0.044988 1.279708 0.134988
v 0.040000 1.279708 0.137053
v 0.035012 1.279708 0.134988
v 0.032947 1.279708 0.130000
v 0.035012 1.279708 0.125012
v 0.040000 1.279708 0.122947
v 0.044988 1.279708 0.125012
v 0.051413 1.273708 0.130000
v 0.048070 1.273708 0.138070
v 0.040000 1.273708 0.141413
v 0.031930 1.273708 0.138070
v 0.028587 1.273708 0.130000
v 0.031930 1.273708 0.121930
v 0.040000 1.273708 0.118587
v 0.048070 1.273708 0.121930
v 0.051413 1.266292 0.130000
v 0.048070 1.266292 0.138070
v 0.040000 1.266292 0.141413
v 0.031930 1.266292 0.138070
v 0.028587 1.266292 0.130000
v 0.031930 1.266292 0.121930
v 0.040000 1.266292 0.118587
v 0.048070 1.266292 0.121930
v 0.047053 1.260292 0.130000
v 0.044988 1.260292 0.134988
v 0.040000 1.260292 0.137053
v 0.035012 1.260292 0.134988
v 0.032947 1.260292 0.130000
v 0.035012 1.260292 0.125012
v 0.040000 1.260292 0.122947
v 0.044988 1.260292 0.125012
v 0.040000 1.258000 0.130000
v 0.040000 1.258000 0.130000
v 0.040000 1.258000 0.130000
v 0.040000 1.258000 0.130000
v 0.040000 1.258000 0.130000
v 0.040000 1.258000 0.130000
v 0.040000 1.258000 0.130000
v 0.040000 1.258000 0.130000
v 0.043795 1.258616 0.130000
v 0.037143 1.260103 0.123844
v 0.032165 1.267388 0.121294
v 0.031776 1.276203 0.123844
v 0.036205 1.281384 0.130000
v 0.042857 1.279897 0.136156
v 0.047835 1.272612 0.138706
v 0.048224 1.263797 0.136156
v 0.073795 1.268616 0.100000
v 0.067143 1.270103 0.093844
v 0.062165 1.277388 0.091294
v 0.061776 1.286203 0.093844
v 0.066205 1.291384 0.100000
v 0.072857 1.289897 0.106156
v 0.077835 1.282612 0.108706
v 0.078224 1.273797 0.106156
v 0.040000 1.282000 0.130000
v 0.040000 1.282000 0.130000
v 0.040000 1.282000 0.130000
v 0.040000 1.282000 0.130000
v 0.040000 1.282000 0.130000
v 0.040000 1.282000 0.130000
v 0.040000 1.282000 0.130000
v 0.040000 1.282000 0.130000
v 0.047053 1.279708 0.130000
v 0.044988 1.279708 0.134988
v 0.040000 1.279708 0.137053
v 0.035012 1.279708 0.134988
v 0.032947 1.279708 0.130000
v 0.035012 1.279708 0.125012
v 0.040000 1.279708 0.122947
v 0.044988 1.279708 0.125012
v 0.051413 1.273708 0.130000
v 0.048070 1.273708 0.138070
v 0.040000 1.273708 0.141413
v 0.031930 1.273708 0.138070
v 0.028587 1.273708 0.130000
v 0.031930 1.273708 0.121930
v 0.040000 1.273708 0.118587
v 0.048070 1.273708 0.121930
v 0.051413 1.266292 0.130000
v 0.048070 1.266292 0.138070
v 0.040000 1.266292 0.141413
v 0.031930 1.266292 0.138070
v 0.028587 1.266292 0.130000
v 0.031930 1.266292 0.121930
v 0.040000 1.266292 0.118587
v 0.048070 1.266292 0.121930
v 0.047053 1.260292 0.130000
v 0.044988 1.260292 0.134988
v 0.040000 1.260292 0.137053
v 0.035012 1.260292 0.134988
v 0.032947 1.260292 0.130000
v 0.035012 1.260292 0.125012
v 0.040000 1.260292 0.122947
v 0.044988 1.260292 0.125012
v 0.040000 1.258000 0.130000
v 0.040000 1.258000 0.130000
v 0.040000 1.258000 0.130000
v 0.040000 1.258000 0.130000
v 0.040000 1.258000 0.130000
v 0.040000 1.258000 0.130000
v 0.040000 1.258000 0.130000
v 0.040000 1.258000 0.130000
v 0.070000 1.292000 0.100000
v 0.070000 1.292000 0.100000
v 0.070000 1.292000 0.100000
v 0.070000 1.292000 0.100000
v 0.070000 1.292000 0.100000
v 0.070000 1.292000 0.100000
v 0.070000 1.292000 0.100000
v 0.070000 1.292000 0.100000
v 0.077053 1.289708 0.100000
v 0.074988 1.289708 0.104988
v 0.070000 1.289708 0.107053
v 0.065012 1.289708 0.104988
v 0.062947 1.289708 0.100000
v 0.065012 1.289708 0.095012
v 0.070000 1.289708 0.092947
v 0.074988 1.289708 0.095012
v 0.081413 1.283708 0.100000
v 0.078070 1.283708 0.108070
v 0.070000 1.283708 0.111413
v 0.061930 1.283708 0.108070
v 0.058587 1.283708 0.100000
v 0.061930 1.283708 0.091930
v 0.070000 1.283708 0.088587
v 0.078070 1.283708 0.091930
v 0.081413 1.276292 0.100000
v 0.078070 1.276292 0.108070
v 0.070000 1.276292 0.111413
v 0.061930 1.276292 0.108070
v 0.058587 1.276292 0.100000
v 0.061930 1.276292 0.091930
v 0.070000 1.276292 0.088587
v 0.078070 1.276292 0.091930
v 0.077053 1.270292 0.100000
v 0.074988 1.270292 0.104988
v 0.070000 1.270292 0.107053
v 0.065012 1.270292 0.104988
v 0.062947 1.270292 0.100000
v 0.065012 1.270292 0.095012
v 0.070000 1.270292 0.092947
v 0.074988 1.270292 0.095012
v 0.070000 1.268000 0.100000
v 0.070000 1.268000 0.100000
v 0.070000 1.268000 0.100000
v 0.070000 1.268000 0.100000
v 0.070000 1.268000 0.100000
v 0.070000 1.268000 0.100000
v 0.070000 1.268000 0.100000
v 0.070000 1.268000 0.100000
f 1 2 9
f 2 10 9
f 2 3 10
f 3 11 10
f 3 4 11
f 4 12 11
f 4 5 12
f 5 13 12
f 5 6 13
f 6 14 13
f 6 7 14
f 7 15 14
f 7 8 15
f 8 16 15
f 8 1 16
f 1 9 16
f 18 26 25
f 19 27 26
f 20 28 27
f 21 29 28
f 22 30 29
f 23 31 30
f 24 32 31
f 17 25 32
f 25 26 33
f 26 34 33
f 26 27 34
f 27 35 34
f 27 28 35
f 28 36 35
f 28 29 36
f 29 37 36
f 29 30 37
f 30 38 37
f 30 31 38
f 31 39 38
f 31 32 39
f 32 40 39
f 32 25 40
f 25 33 40
f 33 34 41
f 34 42 41
f 34 35 42
f 35 43 42
f 35 36 43
f 36 44 43
f 36 37 44
f 37 45 44
f 37 38 45
f 38 46 45
f 38 39 46
f 39 47 46
f 39 40 47
f 40 48 47
f 40 33 48
f 33 41 48
f 41 42 49
f 42 50 49
f 42 43 50
f 43 51 50
f 43 44 51
f 44 52 51
f 44 45 52
f 45 53 52
f 45 46 53
f 46 54 53
f 46 47 54
f 47 55 54
f 47 48 55
f 48 56 55
f 48 41 56
f 41 49 56
f 49 50 57
f 50 51 58
f 51 52 59
f 52 53 60
f 53 54 61
f 54 55 62
f 55 56 63
f 56 49 64
f 66 74 73
f 67 75 74
f 68 76 75
f 69 77 76
f 70 78 77
f 71 79 78
f 72 80 79
f 65 73 80
f 73 74 81
f 74 82 81
f 74 75 82
f 75 83 82
f 75 76 83
f 76 84 83
f 76 77 84
f 77 85 84
f 77 78 85
f 78 86 85
f 78 79 86
f 79 87 86
f 79 80 87
f 80 88 87
f 80 73 88
f 73 81 88
f 81 82 89
f 82 90 89
f 82 83 90
f 83 91 90
f 83 84 91
f 84 92 91
f 84 85 92
f 85 93 92
f 85 86 93
f 86 94 93
f 86 87 94
f 87 95 94
f 87 88 95
f 88 96 95
f 88 81 96
f 81 89 96
f 89 90 97
f 90 98 97
f 90 91 98
f 91 99 98
f 91 92 99
f 92 100 99
f 92 93 100
f 93 101 100
f 93 94 101
f 94 102 101
f 94 95 102
f 95 103 102
f 95 96 103
f 96 104 103
f 96 89 104
f 89 97 104
f 97 98 105
f 98 99 106
f 99 100 107
f 100 101 108
f 101 102 109
f 102 103 110
f 103 104 111
f 104 97 112
f 113 114 121
f 114 122 121
f 114 115 122
f 115 123 122
f 115 116 123
f 116 124 123
f 116 117 124
f 117 125 124
f 117 118 125
f 118 126 125
f 118 119 126
f 119 127 126
f 119 120 127
f 120 128 127
f 120 113 128
f 113 121 128
f 130 138 137
f 131 139 138
f 132 140 139
f 133 141 140
f 134 142 141
f 135 143 142
f 136 144 143
f 129 137 144
f 137 138 145
f 138 146 145
f 138 139 146
f 139 147 146
f 139 140 147
f 140 148 147
f 140 141 148
f 141 149 148
f 141 142 149
f 142 150 149
f 142 143 150
f 143 151 150
f 143 144 151
f 144 152 151
f 144 137 152
f 137 145 152
f 145 146 153
f 146 154 153
f 146 147 154
f 147 155 154
f 147 148 155
f 148 156 155
f 148 149 156
f 149 157 156
f 149 150 157
f 150 158 157
f 150 151 158
f 151 159 158
f 151 152 159
f 152 160 159
f 152 145 160
f 145 153 160
f 153 154 161
f 154 162 161
f 154 155 162
f 155 163 162
f 155 156 163
f 156 164 163
f 156 157 164
f 157 165 164
f 157 158 165
f 158 166 165
f 158 159 166
f 159 167 166
f 159 160 167
f 160 168 167
f 160 153 168
f 153 161 168
f 161 162 169
f 162 163 170
f 163 164 171
f 164 165 172
f 165 166 173
f 166 167 174
f 167 168 175
f 168 161 176
f 178 186 185
f 179 187 186
f 180 188 187
f 181 189 188
f 182 190 189
f 183 191 190
f 184 192 191
f 177 185 192
f 185 186 193
f 186 194 193
f 186 187 194
f 187 195 194
f 187 188 195
f 188 196 195
f 188 189 196
f 189 197 196
f 189 190 197
f 190 198 197
f 190 191 198
f 191 199 198
f 191 192 199
f 192 200 199
f 192 185 200
f 185 193 200
f 193 194 201
f 194 202 201
f 194 195 202
f 195 203 202
f 195 196 203
f 196 204 203
f 196 197 204
f 197 205 204
f 197 198 205
f 198 206 205
f 198 199 206
f 199 207 206
f 199 200 207
f 200 208 207
f 200 193 208
f 193 201 208
f 201 202 209
f 202 210 209
f 202 203 210
f 203 211 210
f 203 204 211
f 204 212 211
f 204 205 212
f 205 213 212
f 205 206 213
f 206 214 213
f 206 207 214
f 207 215 214
f 207 208 215
f 208 216 215
f 208 201 216
f 201 209 216
f 209 210 217
f 210 211 218
f 211 212 219
f 212 213 220
f 213 214 221
f 214 215 222
f 215 216 223
f 216 209 224
f 225 226 233
f 226 234 233
f 226 227 234
f 227 235 234
f 227 228 235
f 228 236 235
f 228 229 236
f 229 237 236
f 229 230 237
f 230 238 237
f 230 231 238
f 231 239 238
f 231 232 239
f 232 240 239
f 232 225 240
f 225 233 240
f 242 250 249
f 243 251 250
f 244 252 251
f 245 253 252
f 246 254 253
f 247 255 254
f 248 256 255
f 241 249 256
f 249 250 257
f 250 258 257
f 250 251 258
f 251 259 258
f 251 252 259
f 252 260 259
f 252 253 260
f 253 261 260
f 253 254 261
f 254 262 261
f 254 255 262
f 255 263 262
f 255 256 263
f 256 264 263
f 256 249 264
f 249 257 264
f 257 258 265
f 258 266 265
f 258 259 266
f 259 267 266
f 259 260 267
f 260 268 267
f 260 261 268
f 261 269 268
f 261 262 269
f 262 270 269
f 262 263 270
f 263 271 270
f 263 264 271
f 264 272 271
f 264 257 272
f 257 265 272
f 265 266 273
f 266 274 273
f 266 267 274
f 267 275 274
f 267 268 275
f 268 276 275
f 268 269 276
f 269 277 276
f 269 270 277
f 270 278 277
f 270 271 278
f 271 279 278
f 271 272 279
f 272 280 279
f 272 265 280
f 265 273 280
f 273 274 281
f 274 275 282
f 275 276 283
f 276 277 284
f 277 278 285
f 278 279 286
f 279 280 287
f 280 273 288
f 290 298 297
f 291 299 298
f 292 300 299
f 293 301 300
f 294 302 301
f 295 303 302
f 296 304 303
f 289 297 304
f 297 298 305
f 298 306 305
f 298 299 306
f 299 307 306
f 299 300 307
f 300 308 307
f 300 301 308
f 301 309 308
f 301 302 309
f 302 310 309
f 302 303 310
f 303 311 310
f 303 304 311
f 304 312 311
f 304 297 312
f 297 305 312
f 305 306 313
f 306 314 313
f 306 307 314
f 307 315 314
f 307 308 315
f 308 316 315
f 308 309 316
f 309 317 316
f 309 310 317
f 310 318 317
f 310 311 318
f 311 319 318
f 311 312 319
f 312 320 319
f 312 305 320
f 305 313 320
f 313 314 321
f 314 322 321
f 314 315 322
f 315 323 322
f 315 316 323
f 316 324 323
f 316 317 324
f 317 325 324
f 317 318 325
f 318 326 325
f 318 319 326
f 319 327 326
f 319 320 327
f 320 328 327
f 320 313 328
f 313 321 328
f 321 322 329
f 322 323 330
f 323 324 331
f 324 325 332
f 325 326 333
f 326 327 334
f 327 328 335
f 328 321 336
f 337 338 345
f 338 346 345
f 338 339 346
f 339 347 346
f 339 340 347
f 340 348 347
f 340 341 348
f 341 349 348
f 341 342 349
f 342 350 349
f 342 343 350
f 343 351 350
f 343 344 351
f 344 352 351
f 344 337 352
f 337 345 352
f 354 362 361
f 355 363 362
f 356 364 363
f 357 365 364
f 358 366 365
f 359 367 366
f 360 368 367
f 353 361 368
f 361 362 369
f 362 370 369
f 362 363 370
f 363 371 370
f 363 364 371
f 364 372 371
f 364 365 372
f 365 373 372
f 365 366 373
f 366 374 373
f 366 367 374
f 367 375 374
f 367 368 375
f 368 376 375
f 368 361 376
f 361 369 376
f 369 370 377
f 370 378 377
f 370 371 378
f 371 379 378
f 371 372 379
f 372 380 379
f 372 373 380
f 373 381 380
f 373 374 381
f 374 382 381
f 374 375 382
f 375 383 382
f 375 376 383
f 376 384 383
f 376 369 384
f 369 377 384
f 377 378 385
f 378 386 385
f 378 379 386
f 379 387 386
f 379 380 387
f 380 388 387
f 380 381 388
f 381 389 388
f 381 382 389
f 382 390 389
f 382 383 390
f 383 391 390
f 383 384 391
f 384 392 391
f 384 377 392
f 377 385 392
f 385 386 393
f 386 387 394
f 387 388 395
f 388 389 396
f 389 390 397
f 390 391 398
f 391 392 399
f 392 385 400
f 402 410 409
f 403 411 410
f 404 412 411
f 405 413 412
f 406 414 413
f 407 415 414
f 408 416 415
f 401 409 416
f 409 410 417
f 410 418 417
f 410 411 418
f 411 419 418
f 411 412 419
f 412 420 419
f 412 413 420
f 413 421 420
f 413 414 421
f 414 422 421
f 414 415 422
f 415 423 422
f 415 416 423
f 416 424 423
f 416 409 424
f 409 417 424
f 417 418 425
f 418 426 425
f 418 419 426
f 419 427 426
f 419 420 427
f 420 428 427
f 420 421 428
f 421 429 428
f 421 422 429
f 422 430 429
f 422 423 430
f 423 431 430
f 423 424 431
f 424 432 431
f 424 417 432
f 417 425 432
f 425 426 433
f 426 434 433
f 426 427 434
f 427 435 434
f 427 428 435
f 428 436 435
f 428 429 436
f 429 437 436
f 429 430 437
f 430 438 437
f 430 431 438
f 431 439 438
f 431 432 439
f 432 440 439
f 432 425 440
f 425 433 440
f 433 434 441
f 434 435 442
f 435 436 443
f 436 437 444
f 437 438 445
f 438 439 446
f 439 440 447
f 440 433 448
