# Suhail Medical Dictionary v20.18 educational procedural bone mesh
v -0.075000 0.490000 -0.140000
v 0.075000 0.490000 -0.140000
v 0.075000 0.550000 -0.140000
v -0.075000 0.550000 -0.140000
v -0.075000 0.490000 -0.020000
v 0.075000 0.490000 -0.020000
v 0.075000 0.550000 -0.020000
v -0.075000 0.550000 -0.020000
v 0.013500 0.520000 -0.140000
v 0.009546 0.510454 -0.140000
v 0.000000 0.506500 -0.140000
v -0.009546 0.510454 -0.140000
v -0.013500 0.520000 -0.140000
v -0.009546 0.529546 -0.140000
v -0.000000 0.533500 -0.140000
v 0.009546 0.529546 -0.140000
v 0.013500 0.520000 -0.188000
v 0.009546 0.510454 -0.188000
v 0.000000 0.506500 -0.188000
v -0.009546 0.510454 -0.188000
v -0.013500 0.520000 -0.188000
v -0.009546 0.529546 -0.188000
v -0.000000 0.533500 -0.188000
v 0.009546 0.529546 -0.188000
v 0.000000 0.533500 -0.140000
v 0.000000 0.533500 -0.140000
v 0.000000 0.533500 -0.140000
v 0.000000 0.533500 -0.140000
v 0.000000 0.533500 -0.140000
v 0.000000 0.533500 -0.140000
v 0.000000 0.533500 -0.140000
v 0.000000 0.533500 -0.140000
v 0.007935 0.530922 -0.140000
v 0.005611 0.530922 -0.134389
v 0.000000 0.530922 -0.132065
v -0.005611 0.530922 -0.134389
v -0.007935 0.530922 -0.140000
v -0.005611 0.530922 -0.145611
v -0.000000 0.530922 -0.147935
v 0.005611 0.530922 -0.145611
v 0.012839 0.524172 -0.140000
v 0.009079 0.524172 -0.130921
v 0.000000 0.524172 -0.127161
v -0.009079 0.524172 -0.130921
v -0.012839 0.524172 -0.140000
v -0.009079 0.524172 -0.149079
v -0.000000 0.524172 -0.152839
v 0.009079 0.524172 -0.149079
v 0.012839 0.515828 -0.140000
v 0.009079 0.515828 -0.130921
v 0.000000 0.515828 -0.127161
v -0.009079 0.515828 -0.130921
v -0.012839 0.515828 -0.140000
v -0.009079 0.515828 -0.149079
v -0.000000 0.515828 -0.152839
v 0.009079 0.515828 -0.149079
v 0.007935 0.509078 -0.140000
v 0.005611 0.509078 -0.134389
v 0.000000 0.509078 -0.132065
v -0.005611 0.509078 -0.134389
v -0.007935 0.509078 -0.140000
v -0.005611 0.509078 -0.145611
v -0.000000 0.509078 -0.147935
v 0.005611 0.509078 -0.145611
v 0.000000 0.506500 -0.140000
v 0.000000 0.506500 -0.140000
v 0.000000 0.506500 -0.140000
v -0.000000 0.506500 -0.140000
v -0.000000 0.506500 -0.140000
v -0.000000 0.506500 -0.140000
v -0.000000 0.506500 -0.140000
v 0.000000 0.506500 -0.140000
v 0.000000 0.533500 -0.188000
v 0.000000 0.533500 -0.188000
v 0.000000 0.533500 -0.188000
v 0.000000 0.533500 -0.188000
v 0.000000 0.533500 -0.188000
v 0.000000 0.533500 -0.188000
v 0.000000 0.533500 -0.188000
v 0.000000 0.533500 -0.188000
v 0.007935 0.530922 -0.188000
v 0.005611 0.530922 -0.182389
v 0.000000 0.530922 -0.180065
v -0.005611 0.530922 -0.182389
v -0.007935 0.530922 -0.188000
v -0.005611 0.530922 -0.193611
v -0.000000 0.530922 -0.195935
v 0.005611 0.530922 -0.193611
v 0.012839 0.524172 -0.188000
v 0.009079 0.524172 -0.178921
v 0.000000 0.524172 -0.175161
v -0.009079 0.524172 -0.178921
v -0.012839 0.524172 -0.188000
v -0.009079 0.524172 -0.197079
v -0.000000 0.524172 -0.200839
v 0.009079 0.524172 -0.197079
v 0.012839 0.515828 -0.188000
v 0.009079 0.515828 -0.178921
v 0.000000 0.515828 -0.175161
v -0.009079 0.515828 -0.178921
v -0.012839 0.515828 -0.188000
v -0.009079 0.515828 -0.197079
v -0.000000 0.515828 -0.200839
v 0.009079 0.515828 -0.197079
v 0.007935 0.509078 -0.188000
v 0.005611 0.509078 -0.182389
v 0.000000 0.509078 -0.180065
v -0.005611 0.509078 -0.182389
v -0.007935 0.509078 -0.188000
v -0.005611 0.509078 -0.193611
v -0.000000 0.509078 -0.195935
v 0.005611 0.509078 -0.193611
v 0.000000 0.506500 -0.188000
v 0.000000 0.506500 -0.188000
v 0.000000 0.506500 -0.188000
v -0.000000 0.506500 -0.188000
v -0.000000 0.506500 -0.188000
v -0.000000 0.506500 -0.188000
v -0.000000 0.506500 -0.188000
v 0.000000 0.506500 -0.188000
f 1 2 3
f 1 3 4
f 5 8 7
f 5 7 6
f 1 5 6
f 1 6 2
f 2 6 7
f 2 7 3
f 3 7 8
f 3 8 4
f 5 1 4
f 5 4 8
f 9 10 17
f 10 18 17
f 10 11 18
f 11 19 18
f 11 12 19
f 12 20 19
f 12 13 20
f 13 21 20
f 13 14 21
f 14 22 21
f 14 15 22
f 15 23 22
f 15 16 23
f 16 24 23
f 16 9 24
f 9 17 24
f 26 34 33
f 27 35 34
f 28 36 35
f 29 37 36
f 30 38 37
f 31 39 38
f 32 40 39
f 25 33 40
f 33 34 41
f 34 42 41
f 34 35 42
f 35 43 42
f 35 36 43
f 36 44 43
f 36 37 44
f 37 45 44
f 37 38 45
f 38 46 45
f 38 39 46
f 39 47 46
f 39 40 47
f 40 48 47
f 40 33 48
f 33 41 48
f 41 42 49
f 42 50 49
f 42 43 50
f 43 51 50
f 43 44 51
f 44 52 51
f 44 45 52
f 45 53 52
f 45 46 53
f 46 54 53
f 46 47 54
f 47 55 54
f 47 48 55
f 48 56 55
f 48 41 56
f 41 49 56
f 49 50 57
f 50 58 57
f 50 51 58
f 51 59 58
f 51 52 59
f 52 60 59
f 52 53 60
f 53 61 60
f 53 54 61
f 54 62 61
f 54 55 62
f 55 63 62
f 55 56 63
f 56 64 63
f 56 49 64
f 49 57 64
f 57 58 65
f 58 59 66
f 59 60 67
f 60 61 68
f 61 62 69
f 62 63 70
f 63 64 71
f 64 57 72
f 74 82 81
f 75 83 82
f 76 84 83
f 77 85 84
f 78 86 85
f 79 87 86
f 80 88 87
f 73 81 88
f 81 82 89
f 82 90 89
f 82 83 90
f 83 91 90
f 83 84 91
f 84 92 91
f 84 85 92
f 85 93 92
f 85 86 93
f 86 94 93
f 86 87 94
f 87 95 94
f 87 88 95
f 88 96 95
f 88 81 96
f 81 89 96
f 89 90 97
f 90 98 97
f 90 91 98
f 91 99 98
f 91 92 99
f 92 100 99
f 92 93 100
f 93 101 100
f 93 94 101
f 94 102 101
f 94 95 102
f 95 103 102
f 95 96 103
f 96 104 103
f 96 89 104
f 89 97 104
f 97 98 105
f 98 106 105
f 98 99 106
f 99 107 106
f 99 100 107
f 100 108 107
f 100 101 108
f 101 109 108
f 101 102 109
f 102 110 109
f 102 103 110
f 103 111 110
f 103 104 111
f 104 112 111
f 104 97 112
f 97 105 112
f 105 106 113
f 106 107 114
f 107 108 115
f 108 109 116
f 109 110 117
f 110 111 118
f 111 112 119
f 112 105 120
