# Suhail Medical Dictionary v20.18 educational procedural bone mesh
v 0.040000 1.024000 -0.080000
v 0.041673 1.030024 -0.092397
v 0.042086 1.043560 -0.095459
v 0.040928 1.054416 -0.086880
v 0.039072 1.054416 -0.073120
v 0.037914 1.043560 -0.064541
v 0.038327 1.030024 -0.067603
v 0.146710 1.024000 -0.065599
v 0.148383 1.030024 -0.077996
v 0.148797 1.043560 -0.081058
v 0.147639 1.054416 -0.072479
v 0.145782 1.054416 -0.058719
v 0.144624 1.043560 -0.050140
v 0.145037 1.030024 -0.053202
v 0.040000 1.056000 -0.080000
v 0.040000 1.056000 -0.080000
v 0.040000 1.056000 -0.080000
v 0.040000 1.056000 -0.080000
v 0.040000 1.056000 -0.080000
v 0.040000 1.056000 -0.080000
v 0.040000 1.056000 -0.080000
v 0.040000 1.056000 -0.080000
v 0.049405 1.052944 -0.080000
v 0.046650 1.052944 -0.073350
v 0.040000 1.052944 -0.070595
v 0.033350 1.052944 -0.073350
v 0.030595 1.052944 -0.080000
v 0.033350 1.052944 -0.086650
v 0.040000 1.052944 -0.089405
v 0.046650 1.052944 -0.086650
v 0.055217 1.044944 -0.080000
v 0.050760 1.044944 -0.069240
v 0.040000 1.044944 -0.064783
v 0.029240 1.044944 -0.069240
v 0.024783 1.044944 -0.080000
v 0.029240 1.044944 -0.090760
v 0.040000 1.044944 -0.095217
v 0.050760 1.044944 -0.090760
v 0.055217 1.035056 -0.080000
v 0.050760 1.035056 -0.069240
v 0.040000 1.035056 -0.064783
v 0.029240 1.035056 -0.069240
v 0.024783 1.035056 -0.080000
v 0.029240 1.035056 -0.090760
v 0.040000 1.035056 -0.095217
v 0.050760 1.035056 -0.090760
v 0.049405 1.027056 -0.080000
v 0.046650 1.027056 -0.073350
v 0.040000 1.027056 -0.070595
v 0.033350 1.027056 -0.073350
v 0.030595 1.027056 -0.080000
v 0.033350 1.027056 -0.086650
v 0.040000 1.027056 -0.089405
v 0.046650 1.027056 -0.086650
v 0.040000 1.024000 -0.080000
v 0.040000 1.024000 -0.080000
v 0.040000 1.024000 -0.080000
v 0.040000 1.024000 -0.080000
v 0.040000 1.024000 -0.080000
v 0.040000 1.024000 -0.080000
v 0.040000 1.024000 -0.080000
v 0.040000 1.024000 -0.080000
v 0.146710 1.056000 -0.065599
v 0.146710 1.056000 -0.065599
v 0.146710 1.056000 -0.065599
v 0.146710 1.056000 -0.065599
v 0.146710 1.056000 -0.065599
v 0.146710 1.056000 -0.065599
v 0.146710 1.056000 -0.065599
v 0.146710 1.056000 -0.065599
v 0.156115 1.052944 -0.065599
v 0.153360 1.052944 -0.058949
v 0.146710 1.052944 -0.056194
v 0.140060 1.052944 -0.058949
v 0.137306 1.052944 -0.065599
v 0.140060 1.052944 -0.072249
v 0.146710 1.052944 -0.075003
v 0.153360 1.052944 -0.072249
v 0.161927 1.044944 -0.065599
v 0.157470 1.044944 -0.054839
v 0.146710 1.044944 -0.050382
v 0.135950 1.044944 -0.054839
v 0.131493 1.044944 -0.065599
v 0.135950 1.044944 -0.076359
v 0.146710 1.044944 -0.080816
v 0.157470 1.044944 -0.076359
v 0.161927 1.035056 -0.065599
v 0.157470 1.035056 -0.054839
v 0.146710 1.035056 -0.050382
v 0.135950 1.035056 -0.054839
v 0.131493 1.035056 -0.065599
v 0.135950 1.035056 -0.076359
v 0.146710 1.035056 -0.080816
v 0.157470 1.035056 -0.076359
v 0.156115 1.027056 -0.065599
v 0.153360 1.027056 -0.058949
v 0.146710 1.027056 -0.056194
v 0.140060 1.027056 -0.058949
v 0.137306 1.027056 -0.065599
v 0.140060 1.027056 -0.072249
v 0.146710 1.027056 -0.075003
v 0.153360 1.027056 -0.072249
v 0.146710 1.024000 -0.065599
v 0.146710 1.024000 -0.065599
v 0.146710 1.024000 -0.065599
v 0.146710 1.024000 -0.065599
v 0.146710 1.024000 -0.065599
v 0.146710 1.024000 -0.065599
v 0.146710 1.024000 -0.065599
v 0.146710 1.024000 -0.065599
v 0.146710 1.024000 -0.065599
v 0.149604 1.030024 -0.077769
v 0.150319 1.043560 -0.080775
v 0.148316 1.054416 -0.072353
v 0.145104 1.054416 -0.058845
v 0.143102 1.043560 -0.050423
v 0.143816 1.030024 -0.053429
v 0.240550 1.024000 -0.043286
v 0.243444 1.030024 -0.055455
v 0.244158 1.043560 -0.058461
v 0.242156 1.054416 -0.050039
v 0.238944 1.054416 -0.036532
v 0.236941 1.043560 -0.028110
v 0.237656 1.030024 -0.031116
v 0.146710 1.056000 -0.065599
v 0.146710 1.056000 -0.065599
v 0.146710 1.056000 -0.065599
v 0.146710 1.056000 -0.065599
v 0.146710 1.056000 -0.065599
v 0.146710 1.056000 -0.065599
v 0.146710 1.056000 -0.065599
v 0.146710 1.056000 -0.065599
v 0.156115 1.052944 -0.065599
v 0.153360 1.052944 -0.058949
v 0.146710 1.052944 -0.056194
v 0.140060 1.052944 -0.058949
v 0.137306 1.052944 -0.065599
v 0.140060 1.052944 -0.072249
v 0.146710 1.052944 -0.075003
v 0.153360 1.052944 -0.072249
v 0.161927 1.044944 -0.065599
v 0.157470 1.044944 -0.054839
v 0.146710 1.044944 -0.050382
v 0.135950 1.044944 -0.054839
v 0.131493 1.044944 -0.065599
v 0.135950 1.044944 -0.076359
v 0.146710 1.044944 -0.080816
v 0.157470 1.044944 -0.076359
v 0.161927 1.035056 -0.065599
v 0.157470 1.035056 -0.054839
v 0.146710 1.035056 -0.050382
v 0.135950 1.035056 -0.054839
v 0.131493 1.035056 -0.065599
v 0.135950 1.035056 -0.076359
v 0.146710 1.035056 -0.080816
v 0.157470 1.035056 -0.076359
v 0.156115 1.027056 -0.065599
v 0.153360 1.027056 -0.058949
v 0.146710 1.027056 -0.056194
v 0.140060 1.027056 -0.058949
v 0.137306 1.027056 -0.065599
v 0.140060 1.027056 -0.072249
v 0.146710 1.027056 -0.075003
v 0.153360 1.027056 -0.072249
v 0.146710 1.024000 -0.065599
v 0.146710 1.024000 -0.065599
v 0.146710 1.024000 -0.065599
v 0.146710 1.024000 -0.065599
v 0.146710 1.024000 -0.065599
v 0.146710 1.024000 -0.065599
v 0.146710 1.024000 -0.065599
v 0.146710 1.024000 -0.065599
v 0.240550 1.056000 -0.043286
v 0.240550 1.056000 -0.043286
v 0.240550 1.056000 -0.043286
v 0.240550 1.056000 -0.043286
v 0.240550 1.056000 -0.043286
v 0.240550 1.056000 -0.043286
v 0.240550 1.056000 -0.043286
v 0.240550 1.056000 -0.043286
v 0.249954 1.052944 -0.043286
v 0.247200 1.052944 -0.036635
v 0.240550 1.052944 -0.033881
v 0.233900 1.052944 -0.036635
v 0.231145 1.052944 -0.043286
v 0.233900 1.052944 -0.049936
v 0.240550 1.052944 -0.052690
v 0.247200 1.052944 -0.049936
v 0.255767 1.044944 -0.043286
v 0.251310 1.044944 -0.032526
v 0.240550 1.044944 -0.028069
v 0.229790 1.044944 -0.032526
v 0.225333 1.044944 -0.043286
v 0.229790 1.044944 -0.054045
v 0.240550 1.044944 -0.058502
v 0.251310 1.044944 -0.054045
v 0.255767 1.035056 -0.043286
v 0.251310 1.035056 -0.032526
v 0.240550 1.035056 -0.028069
v 0.229790 1.035056 -0.032526
v 0.225333 1.035056 -0.043286
v 0.229790 1.035056 -0.054045
v 0.240550 1.035056 -0.058502
v 0.251310 1.035056 -0.054045
v 0.249954 1.027056 -0.043286
v 0.247200 1.027056 -0.036635
v 0.240550 1.027056 -0.033881
v 0.233900 1.027056 -0.036635
v 0.231145 1.027056 -0.043286
v 0.233900 1.027056 -0.049936
v 0.240550 1.027056 -0.052690
v 0.247200 1.027056 -0.049936
v 0.240550 1.024000 -0.043286
v 0.240550 1.024000 -0.043286
v 0.240550 1.024000 -0.043286
v 0.240550 1.024000 -0.043286
v 0.240550 1.024000 -0.043286
v 0.240550 1.024000 -0.043286
v 0.240550 1.024000 -0.043286
v 0.240550 1.024000 -0.043286
v 0.240550 1.024000 -0.043286
v 0.245149 1.030024 -0.054919
v 0.246284 1.043560 -0.057792
v 0.243102 1.054416 -0.049741
v 0.237998 1.054416 -0.036830
v 0.234815 1.043560 -0.028779
v 0.235951 1.030024 -0.031652
v 0.310200 1.024000 -0.015751
v 0.314799 1.030024 -0.027385
v 0.315935 1.043560 -0.030258
v 0.312752 1.054416 -0.022207
v 0.307648 1.054416 -0.009295
v 0.304465 1.043560 -0.001245
v 0.305601 1.030024 -0.004118
v 0.240550 1.056000 -0.043286
v 0.240550 1.056000 -0.043286
v 0.240550 1.056000 -0.043286
v 0.240550 1.056000 -0.043286
v 0.240550 1.056000 -0.043286
v 0.240550 1.056000 -0.043286
v 0.240550 1.056000 -0.043286
v 0.240550 1.056000 -0.043286
v 0.249954 1.052944 -0.043286
v 0.247200 1.052944 -0.036635
v 0.240550 1.052944 -0.033881
v 0.233900 1.052944 -0.036635
v 0.231145 1.052944 -0.043286
v 0.233900 1.052944 -0.049936
v 0.240550 1.052944 -0.052690
v 0.247200 1.052944 -0.049936
v 0.255767 1.044944 -0.043286
v 0.251310 1.044944 -0.032526
v 0.240550 1.044944 -0.028069
v 0.229790 1.044944 -0.032526
v 0.225333 1.044944 -0.043286
v 0.229790 1.044944 -0.054045
v 0.240550 1.044944 -0.058502
v 0.251310 1.044944 -0.054045
v 0.255767 1.035056 -0.043286
v 0.251310 1.035056 -0.032526
v 0.240550 1.035056 -0.028069
v 0.229790 1.035056 -0.032526
v 0.225333 1.035056 -0.043286
v 0.229790 1.035056 -0.054045
v 0.240550 1.035056 -0.058502
v 0.251310 1.035056 -0.054045
v 0.249954 1.027056 -0.043286
v 0.247200 1.027056 -0.036635
v 0.240550 1.027056 -0.033881
v 0.233900 1.027056 -0.036635
v 0.231145 1.027056 -0.043286
v 0.233900 1.027056 -0.049936
v 0.240550 1.027056 -0.052690
v 0.247200 1.027056 -0.049936
v 0.240550 1.024000 -0.043286
v 0.240550 1.024000 -0.043286
v 0.240550 1.024000 -0.043286
v 0.240550 1.024000 -0.043286
v 0.240550 1.024000 -0.043286
v 0.240550 1.024000 -0.043286
v 0.240550 1.024000 -0.043286
v 0.240550 1.024000 -0.043286
v 0.310200 1.056000 -0.015751
v 0.310200 1.056000 -0.015751
v 0.310200 1.056000 -0.015751
v 0.310200 1.056000 -0.015751
v 0.310200 1.056000 -0.015751
v 0.310200 1.056000 -0.015751
v 0.310200 1.056000 -0.015751
v 0.310200 1.056000 -0.015751
v 0.319604 1.052944 -0.015751
v 0.316850 1.052944 -0.009101
v 0.310200 1.052944 -0.006347
v 0.303550 1.052944 -0.009101
v 0.300795 1.052944 -0.015751
v 0.303550 1.052944 -0.022401
v 0.310200 1.052944 -0.025156
v 0.316850 1.052944 -0.022401
v 0.325417 1.044944 -0.015751
v 0.320960 1.044944 -0.004991
v 0.310200 1.044944 -0.000534
v 0.299440 1.044944 -0.004991
v 0.294983 1.044944 -0.015751
v 0.299440 1.044944 -0.026511
v 0.310200 1.044944 -0.030968
v 0.320960 1.044944 -0.026511
v 0.325417 1.035056 -0.015751
v 0.320960 1.035056 -0.004991
v 0.310200 1.035056 -0.000534
v 0.299440 1.035056 -0.004991
v 0.294983 1.035056 -0.015751
v 0.299440 1.035056 -0.026511
v 0.310200 1.035056 -0.030968
v 0.320960 1.035056 -0.026511
v 0.319604 1.027056 -0.015751
v 0.316850 1.027056 -0.009101
v 0.310200 1.027056 -0.006347
v 0.303550 1.027056 -0.009101
v 0.300795 1.027056 -0.015751
v 0.303550 1.027056 -0.022401
v 0.310200 1.027056 -0.025156
v 0.316850 1.027056 -0.022401
v 0.310200 1.024000 -0.015751
v 0.310200 1.024000 -0.015751
v 0.310200 1.024000 -0.015751
v 0.310200 1.024000 -0.015751
v 0.310200 1.024000 -0.015751
v 0.310200 1.024000 -0.015751
v 0.310200 1.024000 -0.015751
v 0.310200 1.024000 -0.015751
v 0.310200 1.024000 -0.015751
v 0.317980 1.030024 -0.025547
v 0.319901 1.043560 -0.027966
v 0.314517 1.054416 -0.021187
v 0.305882 1.054416 -0.010315
v 0.300498 1.043560 -0.003536
v 0.302420 1.030024 -0.005956
v 0.347260 1.024000 0.013683
v 0.355040 1.030024 0.003887
v 0.356961 1.043560 0.001468
v 0.351578 1.054416 0.008247
v 0.342942 1.054416 0.019119
v 0.337559 1.043560 0.025898
v 0.339480 1.030024 0.023478
v 0.310200 1.056000 -0.015751
v 0.310200 1.056000 -0.015751
v 0.310200 1.056000 -0.015751
v 0.310200 1.056000 -0.015751
v 0.310200 1.056000 -0.015751
v 0.310200 1.056000 -0.015751
v 0.310200 1.056000 -0.015751
v 0.310200 1.056000 -0.015751
v 0.319604 1.052944 -0.015751
v 0.316850 1.052944 -0.009101
v 0.310200 1.052944 -0.006347
v 0.303550 1.052944 -0.009101
v 0.300795 1.052944 -0.015751
v 0.303550 1.052944 -0.022401
v 0.310200 1.052944 -0.025156
v 0.316850 1.052944 -0.022401
v 0.325417 1.044944 -0.015751
v 0.320960 1.044944 -0.004991
v 0.310200 1.044944 -0.000534
v 0.299440 1.044944 -0.004991
v 0.294983 1.044944 -0.015751
v 0.299440 1.044944 -0.026511
v 0.310200 1.044944 -0.030968
v 0.320960 1.044944 -0.026511
v 0.325417 1.035056 -0.015751
v 0.320960 1.035056 -0.004991
v 0.310200 1.035056 -0.000534
v 0.299440 1.035056 -0.004991
v 0.294983 1.035056 -0.015751
v 0.299440 1.035056 -0.026511
v 0.310200 1.035056 -0.030968
v 0.320960 1.035056 -0.026511
v 0.319604 1.027056 -0.015751
v 0.316850 1.027056 -0.009101
v 0.310200 1.027056 -0.006347
v 0.303550 1.027056 -0.009101
v 0.300795 1.027056 -0.015751
v 0.303550 1.027056 -0.022401
v 0.310200 1.027056 -0.025156
v 0.316850 1.027056 -0.022401
v 0.310200 1.024000 -0.015751
v 0.310200 1.024000 -0.015751
v 0.310200 1.024000 -0.015751
v 0.310200 1.024000 -0.015751
v 0.310200 1.024000 -0.015751
v 0.310200 1.024000 -0.015751
v 0.310200 1.024000 -0.015751
v 0.310200 1.024000 -0.015751
v 0.347260 1.056000 0.013683
v 0.347260 1.056000 0.013683
v 0.347260 1.056000 0.013683
v 0.347260 1.056000 0.013683
v 0.347260 1.056000 0.013683
v 0.347260 1.056000 0.013683
v 0.347260 1.056000 0.013683
v 0.347260 1.056000 0.013683
v 0.356665 1.052944 0.013683
v 0.353910 1.052944 0.020333
v 0.347260 1.052944 0.023087
v 0.340610 1.052944 0.020333
v 0.337855 1.052944 0.013683
v 0.340610 1.052944 0.007033
v 0.347260 1.052944 0.004278
v 0.353910 1.052944 0.007033
v 0.362477 1.044944 0.013683
v 0.358020 1.044944 0.024443
v 0.347260 1.044944 0.028900
v 0.336500 1.044944 0.024443
v 0.332043 1.044944 0.013683
v 0.336500 1.044944 0.002923
v 0.347260 1.044944 -0.001534
v 0.358020 1.044944 0.002923
v 0.362477 1.035056 0.013683
v 0.358020 1.035056 0.024443
v 0.347260 1.035056 0.028900
v 0.336500 1.035056 0.024443
v 0.332043 1.035056 0.013683
v 0.336500 1.035056 0.002923
v 0.347260 1.035056 -0.001534
v 0.358020 1.035056 0.002923
v 0.356665 1.027056 0.013683
v 0.353910 1.027056 0.020333
v 0.347260 1.027056 0.023087
v 0.340610 1.027056 0.020333
v 0.337855 1.027056 0.013683
v 0.340610 1.027056 0.007033
v 0.347260 1.027056 0.004278
v 0.353910 1.027056 0.007033
v 0.347260 1.024000 0.013683
v 0.347260 1.024000 0.013683
v 0.347260 1.024000 0.013683
v 0.347260 1.024000 0.013683
v 0.347260 1.024000 0.013683
v 0.347260 1.024000 0.013683
v 0.347260 1.024000 0.013683
v 0.347260 1.024000 0.013683
v 0.331260 1.040000 0.013683
v 0.337284 1.027491 0.013683
v 0.350820 1.024401 0.013683
v 0.361676 1.033058 0.013683
v 0.361676 1.046942 0.013683
v 0.350820 1.055599 0.013683
v 0.337284 1.052509 0.013683
v 0.331260 1.040000 0.041466
v 0.337284 1.027491 0.041466
v 0.350820 1.024401 0.041466
v 0.361676 1.033058 0.041466
v 0.361676 1.046942 0.041466
v 0.350820 1.055599 0.041466
v 0.337284 1.052509 0.041466
v 0.347260 1.056000 0.013683
v 0.347260 1.056000 0.013683
v 0.347260 1.056000 0.013683
v 0.347260 1.056000 0.013683
v 0.347260 1.056000 0.013683
v 0.347260 1.056000 0.013683
v 0.347260 1.056000 0.013683
v 0.347260 1.056000 0.013683
v 0.356665 1.052944 0.013683
v 0.353910 1.052944 0.020333
v 0.347260 1.052944 0.023087
v 0.340610 1.052944 0.020333
v 0.337855 1.052944 0.013683
v 0.340610 1.052944 0.007033
v 0.347260 1.052944 0.004278
v 0.353910 1.052944 0.007033
v 0.362477 1.044944 0.013683
v 0.358020 1.044944 0.024443
v 0.347260 1.044944 0.028900
v 0.336500 1.044944 0.024443
v 0.332043 1.044944 0.013683
v 0.336500 1.044944 0.002923
v 0.347260 1.044944 -0.001534
v 0.358020 1.044944 0.002923
v 0.362477 1.035056 0.013683
v 0.358020 1.035056 0.024443
v 0.347260 1.035056 0.028900
v 0.336500 1.035056 0.024443
v 0.332043 1.035056 0.013683
v 0.336500 1.035056 0.002923
v 0.347260 1.035056 -0.001534
v 0.358020 1.035056 0.002923
v 0.356665 1.027056 0.013683
v 0.353910 1.027056 0.020333
v 0.347260 1.027056 0.023087
v 0.340610 1.027056 0.020333
v 0.337855 1.027056 0.013683
v 0.340610 1.027056 0.007033
v 0.347260 1.027056 0.004278
v 0.353910 1.027056 0.007033
v 0.347260 1.024000 0.013683
v 0.347260 1.024000 0.013683
v 0.347260 1.024000 0.013683
v 0.347260 1.024000 0.013683
v 0.347260 1.024000 0.013683
v 0.347260 1.024000 0.013683
v 0.347260 1.024000 0.013683
v 0.347260 1.024000 0.013683
v 0.347260 1.056000 0.041466
v 0.347260 1.056000 0.041466
v 0.347260 1.056000 0.041466
v 0.347260 1.056000 0.041466
v 0.347260 1.056000 0.041466
v 0.347260 1.056000 0.041466
v 0.347260 1.056000 0.041466
v 0.347260 1.056000 0.041466
v 0.356665 1.052944 0.041466
v 0.353910 1.052944 0.048117
v 0.347260 1.052944 0.050871
v 0.340610 1.052944 0.048117
v 0.337855 1.052944 0.041466
v 0.340610 1.052944 0.034816
v 0.347260 1.052944 0.032062
v 0.353910 1.052944 0.034816
v 0.362477 1.044944 0.041466
v 0.358020 1.044944 0.052226
v 0.347260 1.044944 0.056683
v 0.336500 1.044944 0.052226
v 0.332043 1.044944 0.041466
v 0.336500 1.044944 0.030706
v 0.347260 1.044944 0.026250
v 0.358020 1.044944 0.030706
v 0.362477 1.035056 0.041466
v 0.358020 1.035056 0.052226
v 0.347260 1.035056 0.056683
v 0.336500 1.035056 0.052226
v 0.332043 1.035056 0.041466
v 0.336500 1.035056 0.030706
v 0.347260 1.035056 0.026250
v 0.358020 1.035056 0.030706
v 0.356665 1.027056 0.041466
v 0.353910 1.027056 0.048117
v 0.347260 1.027056 0.050871
v 0.340610 1.027056 0.048117
v 0.337855 1.027056 0.041466
v 0.340610 1.027056 0.034816
v 0.347260 1.027056 0.032062
v 0.353910 1.027056 0.034816
v 0.347260 1.024000 0.041466
v 0.347260 1.024000 0.041466
v 0.347260 1.024000 0.041466
v 0.347260 1.024000 0.041466
v 0.347260 1.024000 0.041466
v 0.347260 1.024000 0.041466
v 0.347260 1.024000 0.041466
v 0.347260 1.024000 0.041466
v 0.347260 1.056000 0.041466
v 0.340709 1.049976 0.030810
v 0.339091 1.036440 0.028178
v 0.343624 1.025584 0.035552
v 0.350896 1.025584 0.047381
v 0.355429 1.036440 0.054755
v 0.353811 1.049976 0.052123
v 0.310200 1.056000 0.064249
v 0.303649 1.049976 0.053592
v 0.302031 1.036440 0.050960
v 0.306564 1.025584 0.058335
v 0.313836 1.025584 0.070163
v 0.318369 1.036440 0.077537
v 0.316751 1.049976 0.074905
v 0.347260 1.056000 0.041466
v 0.347260 1.056000 0.041466
v 0.347260 1.056000 0.041466
v 0.347260 1.056000 0.041466
v 0.347260 1.056000 0.041466
v 0.347260 1.056000 0.041466
v 0.347260 1.056000 0.041466
v 0.347260 1.056000 0.041466
v 0.356665 1.052944 0.041466
v 0.353910 1.052944 0.048117
v 0.347260 1.052944 0.050871
v 0.340610 1.052944 0.048117
v 0.337855 1.052944 0.041466
v 0.340610 1.052944 0.034816
v 0.347260 1.052944 0.032062
v 0.353910 1.052944 0.034816
v 0.362477 1.044944 0.041466
v 0.358020 1.044944 0.052226
v 0.347260 1.044944 0.056683
v 0.336500 1.044944 0.052226
v 0.332043 1.044944 0.041466
v 0.336500 1.044944 0.030706
v 0.347260 1.044944 0.026250
v 0.358020 1.044944 0.030706
v 0.362477 1.035056 0.041466
v 0.358020 1.035056 0.052226
v 0.347260 1.035056 0.056683
v 0.336500 1.035056 0.052226
v 0.332043 1.035056 0.041466
v 0.336500 1.035056 0.030706
v 0.347260 1.035056 0.026250
v 0.358020 1.035056 0.030706
v 0.356665 1.027056 0.041466
v 0.353910 1.027056 0.048117
v 0.347260 1.027056 0.050871
v 0.340610 1.027056 0.048117
v 0.337855 1.027056 0.041466
v 0.340610 1.027056 0.034816
v 0.347260 1.027056 0.032062
v 0.353910 1.027056 0.034816
v 0.347260 1.024000 0.041466
v 0.347260 1.024000 0.041466
v 0.347260 1.024000 0.041466
v 0.347260 1.024000 0.041466
v 0.347260 1.024000 0.041466
v 0.347260 1.024000 0.041466
v 0.347260 1.024000 0.041466
v 0.347260 1.024000 0.041466
v 0.310200 1.056000 0.064249
v 0.310200 1.056000 0.064249
v 0.310200 1.056000 0.064249
v 0.310200 1.056000 0.064249
v 0.310200 1.056000 0.064249
v 0.310200 1.056000 0.064249
v 0.310200 1.056000 0.064249
v 0.310200 1.056000 0.064249
v 0.319604 1.052944 0.064249
v 0.316850 1.052944 0.070899
v 0.310200 1.052944 0.073653
v 0.303550 1.052944 0.070899
v 0.300795 1.052944 0.064249
v 0.303550 1.052944 0.057599
v 0.310200 1.052944 0.054844
v 0.316850 1.052944 0.057599
v 0.325417 1.044944 0.064249
v 0.320960 1.044944 0.075009
v 0.310200 1.044944 0.079466
v 0.299440 1.044944 0.075009
v 0.294983 1.044944 0.064249
v 0.299440 1.044944 0.053489
v 0.310200 1.044944 0.049032
v 0.320960 1.044944 0.053489
v 0.325417 1.035056 0.064249
v 0.320960 1.035056 0.075009
v 0.310200 1.035056 0.079466
v 0.299440 1.035056 0.075009
v 0.294983 1.035056 0.064249
v 0.299440 1.035056 0.053489
v 0.310200 1.035056 0.049032
v 0.320960 1.035056 0.053489
v 0.319604 1.027056 0.064249
v 0.316850 1.027056 0.070899
v 0.310200 1.027056 0.073653
v 0.303550 1.027056 0.070899
v 0.300795 1.027056 0.064249
v 0.303550 1.027056 0.057599
v 0.310200 1.027056 0.054844
v 0.316850 1.027056 0.057599
v 0.310200 1.024000 0.064249
v 0.310200 1.024000 0.064249
v 0.310200 1.024000 0.064249
v 0.310200 1.024000 0.064249
v 0.310200 1.024000 0.064249
v 0.310200 1.024000 0.064249
v 0.310200 1.024000 0.064249
v 0.310200 1.024000 0.064249
v 0.310200 1.056000 0.064249
v 0.307561 1.049976 0.052021
v 0.306909 1.036440 0.049001
v 0.308735 1.025584 0.057463
v 0.311665 1.025584 0.071035
v 0.313491 1.036440 0.079496
v 0.312839 1.049976 0.076476
v 0.240550 1.056000 0.079282
v 0.237911 1.049976 0.067054
v 0.237259 1.036440 0.064034
v 0.239085 1.025584 0.072496
v 0.242014 1.025584 0.086067
v 0.243841 1.036440 0.094529
v 0.243189 1.049976 0.091509
v 0.310200 1.056000 0.064249
v 0.310200 1.056000 0.064249
v 0.310200 1.056000 0.064249
v 0.310200 1.056000 0.064249
v 0.310200 1.056000 0.064249
v 0.310200 1.056000 0.064249
v 0.310200 1.056000 0.064249
v 0.310200 1.056000 0.064249
v 0.319604 1.052944 0.064249
v 0.316850 1.052944 0.070899
v 0.310200 1.052944 0.073653
v 0.303550 1.052944 0.070899
v 0.300795 1.052944 0.064249
v 0.303550 1.052944 0.057599
v 0.310200 1.052944 0.054844
v 0.316850 1.052944 0.057599
v 0.325417 1.044944 0.064249
v 0.320960 1.044944 0.075009
v 0.310200 1.044944 0.079466
v 0.299440 1.044944 0.075009
v 0.294983 1.044944 0.064249
v 0.299440 1.044944 0.053489
v 0.310200 1.044944 0.049032
v 0.320960 1.044944 0.053489
v 0.325417 1.035056 0.064249
v 0.320960 1.035056 0.075009
v 0.310200 1.035056 0.079466
v 0.299440 1.035056 0.075009
v 0.294983 1.035056 0.064249
v 0.299440 1.035056 0.053489
v 0.310200 1.035056 0.049032
v 0.320960 1.035056 0.053489
v 0.319604 1.027056 0.064249
v 0.316850 1.027056 0.070899
v 0.310200 1.027056 0.073653
v 0.303550 1.027056 0.070899
v 0.300795 1.027056 0.064249
v 0.303550 1.027056 0.057599
v 0.310200 1.027056 0.054844
v 0.316850 1.027056 0.057599
v 0.310200 1.024000 0.064249
v 0.310200 1.024000 0.064249
v 0.310200 1.024000 0.064249
v 0.310200 1.024000 0.064249
v 0.310200 1.024000 0.064249
v 0.310200 1.024000 0.064249
v 0.310200 1.024000 0.064249
v 0.310200 1.024000 0.064249
v 0.240550 1.056000 0.079282
v 0.240550 1.056000 0.079282
v 0.240550 1.056000 0.079282
v 0.240550 1.056000 0.079282
v 0.240550 1.056000 0.079282
v 0.240550 1.056000 0.079282
v 0.240550 1.056000 0.079282
v 0.240550 1.056000 0.079282
v 0.249954 1.052944 0.079282
v 0.247200 1.052944 0.085932
v 0.240550 1.052944 0.088686
v 0.233900 1.052944 0.085932
v 0.231145 1.052944 0.079282
v 0.233900 1.052944 0.072632
v 0.240550 1.052944 0.069877
v 0.247200 1.052944 0.072632
v 0.255767 1.044944 0.079282
v 0.251310 1.044944 0.090042
v 0.240550 1.044944 0.094499
v 0.229790 1.044944 0.090042
v 0.225333 1.044944 0.079282
v 0.229790 1.044944 0.068522
v 0.240550 1.044944 0.064065
v 0.251310 1.044944 0.068522
v 0.255767 1.035056 0.079282
v 0.251310 1.035056 0.090042
v 0.240550 1.035056 0.094499
v 0.229790 1.035056 0.090042
v 0.225333 1.035056 0.079282
v 0.229790 1.035056 0.068522
v 0.240550 1.035056 0.064065
v 0.251310 1.035056 0.068522
v 0.249954 1.027056 0.079282
v 0.247200 1.027056 0.085932
v 0.240550 1.027056 0.088686
v 0.233900 1.027056 0.085932
v 0.231145 1.027056 0.079282
v 0.233900 1.027056 0.072632
v 0.240550 1.027056 0.069877
v 0.247200 1.027056 0.072632
v 0.240550 1.024000 0.079282
v 0.240550 1.024000 0.079282
v 0.240550 1.024000 0.079282
v 0.240550 1.024000 0.079282
v 0.240550 1.024000 0.079282
v 0.240550 1.024000 0.079282
v 0.240550 1.024000 0.079282
v 0.240550 1.024000 0.079282
v 0.240550 1.056000 0.079282
v 0.239822 1.049976 0.066794
v 0.239642 1.036440 0.063709
v 0.240146 1.025584 0.072351
v 0.240954 1.025584 0.086212
v 0.241458 1.036440 0.094854
v 0.241278 1.049976 0.091770
v 0.146710 1.056000 0.084752
v 0.145982 1.049976 0.072264
v 0.145802 1.036440 0.069180
v 0.146306 1.025584 0.077822
v 0.147114 1.025584 0.091682
v 0.147618 1.036440 0.100324
v 0.147438 1.049976 0.097240
v 0.240550 1.056000 0.079282
v 0.240550 1.056000 0.079282
v 0.240550 1.056000 0.079282
v 0.240550 1.056000 0.079282
v 0.240550 1.056000 0.079282
v 0.240550 1.056000 0.079282
v 0.240550 1.056000 0.079282
v 0.240550 1.056000 0.079282
v 0.249954 1.052944 0.079282
v 0.247200 1.052944 0.085932
v 0.240550 1.052944 0.088686
v 0.233900 1.052944 0.085932
v 0.231145 1.052944 0.079282
v 0.233900 1.052944 0.072632
v 0.240550 1.052944 0.069877
v 0.247200 1.052944 0.072632
v 0.255767 1.044944 0.079282
v 0.251310 1.044944 0.090042
v 0.240550 1.044944 0.094499
v 0.229790 1.044944 0.090042
v 0.225333 1.044944 0.079282
v 0.229790 1.044944 0.068522
v 0.240550 1.044944 0.064065
v 0.251310 1.044944 0.068522
v 0.255767 1.035056 0.079282
v 0.251310 1.035056 0.090042
v 0.240550 1.035056 0.094499
v 0.229790 1.035056 0.090042
v 0.225333 1.035056 0.079282
v 0.229790 1.035056 0.068522
v 0.240550 1.035056 0.064065
v 0.251310 1.035056 0.068522
v 0.249954 1.027056 0.079282
v 0.247200 1.027056 0.085932
v 0.240550 1.027056 0.088686
v 0.233900 1.027056 0.085932
v 0.231145 1.027056 0.079282
v 0.233900 1.027056 0.072632
v 0.240550 1.027056 0.069877
v 0.247200 1.027056 0.072632
v 0.240550 1.024000 0.079282
v 0.240550 1.024000 0.079282
v 0.240550 1.024000 0.079282
v 0.240550 1.024000 0.079282
v 0.240550 1.024000 0.079282
v 0.240550 1.024000 0.079282
v 0.240550 1.024000 0.079282
v 0.240550 1.024000 0.079282
v 0.146710 1.056000 0.084752
v 0.146710 1.056000 0.084752
v 0.146710 1.056000 0.084752
v 0.146710 1.056000 0.084752
v 0.146710 1.056000 0.084752
v 0.146710 1.056000 0.084752
v 0.146710 1.056000 0.084752
v 0.146710 1.056000 0.084752
v 0.156115 1.052944 0.084752
v 0.153360 1.052944 0.091402
v 0.146710 1.052944 0.094157
v 0.140060 1.052944 0.091402
v 0.137306 1.052944 0.084752
v 0.140060 1.052944 0.078102
v 0.146710 1.052944 0.075347
v 0.153360 1.052944 0.078102
v 0.161927 1.044944 0.084752
v 0.157470 1.044944 0.095512
v 0.146710 1.044944 0.099969
v 0.135950 1.044944 0.095512
v 0.131493 1.044944 0.084752
v 0.135950 1.044944 0.073992
v 0.146710 1.044944 0.069535
v 0.157470 1.044944 0.073992
v 0.161927 1.035056 0.084752
v 0.157470 1.035056 0.095512
v 0.146710 1.035056 0.099969
v 0.135950 1.035056 0.095512
v 0.131493 1.035056 0.084752
v 0.135950 1.035056 0.073992
v 0.146710 1.035056 0.069535
v 0.157470 1.035056 0.073992
v 0.156115 1.027056 0.084752
v 0.153360 1.027056 0.091402
v 0.146710 1.027056 0.094157
v 0.140060 1.027056 0.091402
v 0.137306 1.027056 0.084752
v 0.140060 1.027056 0.078102
v 0.146710 1.027056 0.075347
v 0.153360 1.027056 0.078102
v 0.146710 1.024000 0.084752
v 0.146710 1.024000 0.084752
v 0.146710 1.024000 0.084752
v 0.146710 1.024000 0.084752
v 0.146710 1.024000 0.084752
v 0.146710 1.024000 0.084752
v 0.146710 1.024000 0.084752
v 0.146710 1.024000 0.084752
v 0.146710 1.056000 0.084752
v 0.147267 1.049976 0.072255
v 0.147404 1.036440 0.069169
v 0.147019 1.025584 0.077817
v 0.146401 1.025584 0.091687
v 0.146016 1.036440 0.100335
v 0.146154 1.049976 0.097249
v 0.040000 1.056000 0.080000
v 0.040557 1.049976 0.067503
v 0.040694 1.036440 0.064417
v 0.040309 1.025584 0.073065
v 0.039691 1.025584 0.086935
v 0.039306 1.036440 0.095583
v 0.039443 1.049976 0.092497
v 0.146710 1.056000 0.084752
v 0.146710 1.056000 0.084752
v 0.146710 1.056000 0.084752
v 0.146710 1.056000 0.084752
v 0.146710 1.056000 0.084752
v 0.146710 1.056000 0.084752
v 0.146710 1.056000 0.084752
v 0.146710 1.056000 0.084752
v 0.156115 1.052944 0.084752
v 0.153360 1.052944 0.091402
v 0.146710 1.052944 0.094157
v 0.140060 1.052944 0.091402
v 0.137306 1.052944 0.084752
v 0.140060 1.052944 0.078102
v 0.146710 1.052944 0.075347
v 0.153360 1.052944 0.078102
v 0.161927 1.044944 0.084752
v 0.157470 1.044944 0.095512
v 0.146710 1.044944 0.099969
v 0.135950 1.044944 0.095512
v 0.131493 1.044944 0.084752
v 0.135950 1.044944 0.073992
v 0.146710 1.044944 0.069535
v 0.157470 1.044944 0.073992
v 0.161927 1.035056 0.084752
v 0.157470 1.035056 0.095512
v 0.146710 1.035056 0.099969
v 0.135950 1.035056 0.095512
v 0.131493 1.035056 0.084752
v 0.135950 1.035056 0.073992
v 0.146710 1.035056 0.069535
v 0.157470 1.035056 0.073992
v 0.156115 1.027056 0.084752
v 0.153360 1.027056 0.091402
v 0.146710 1.027056 0.094157
v 0.140060 1.027056 0.091402
v 0.137306 1.027056 0.084752
v 0.140060 1.027056 0.078102
v 0.146710 1.027056 0.075347
v 0.153360 1.027056 0.078102
v 0.146710 1.024000 0.084752
v 0.146710 1.024000 0.084752
v 0.146710 1.024000 0.084752
v 0.146710 1.024000 0.084752
v 0.146710 1.024000 0.084752
v 0.146710 1.024000 0.084752
v 0.146710 1.024000 0.084752
v 0.146710 1.024000 0.084752
v 0.040000 1.056000 0.080000
v 0.040000 1.056000 0.080000
v 0.040000 1.056000 0.080000
v 0.040000 1.056000 0.080000
v 0.040000 1.056000 0.080000
v 0.040000 1.056000 0.080000
v 0.040000 1.056000 0.080000
v 0.040000 1.056000 0.080000
v 0.049405 1.052944 0.080000
v 0.046650 1.052944 0.086650
v 0.040000 1.052944 0.089405
v 0.033350 1.052944 0.086650
v 0.030595 1.052944 0.080000
v 0.033350 1.052944 0.073350
v 0.040000 1.052944 0.070595
v 0.046650 1.052944 0.073350
v 0.055217 1.044944 0.080000
v 0.050760 1.044944 0.090760
v 0.040000 1.044944 0.095217
v 0.029240 1.044944 0.090760
v 0.024783 1.044944 0.080000
v 0.029240 1.044944 0.069240
v 0.040000 1.044944 0.064783
v 0.050760 1.044944 0.069240
v 0.055217 1.035056 0.080000
v 0.050760 1.035056 0.090760
v 0.040000 1.035056 0.095217
v 0.029240 1.035056 0.090760
v 0.024783 1.035056 0.080000
v 0.029240 1.035056 0.069240
v 0.040000 1.035056 0.064783
v 0.050760 1.035056 0.069240
v 0.049405 1.027056 0.080000
v 0.046650 1.027056 0.086650
v 0.040000 1.027056 0.089405
v 0.033350 1.027056 0.086650
v 0.030595 1.027056 0.080000
v 0.033350 1.027056 0.073350
v 0.040000 1.027056 0.070595
v 0.046650 1.027056 0.073350
v 0.040000 1.024000 0.080000
v 0.040000 1.024000 0.080000
v 0.040000 1.024000 0.080000
v 0.040000 1.024000 0.080000
v 0.040000 1.024000 0.080000
v 0.040000 1.024000 0.080000
v 0.040000 1.024000 0.080000
v 0.040000 1.024000 0.080000
f 1 2 8
f 2 9 8
f 2 3 9
f 3 10 9
f 3 4 10
f 4 11 10
f 4 5 11
f 5 12 11
f 5 6 12
f 6 13 12
f 6 7 13
f 7 14 13
f 7 1 14
f 1 8 14
f 16 24 23
f 17 25 24
f 18 26 25
f 19 27 26
f 20 28 27
f 21 29 28
f 22 30 29
f 15 23 30
f 23 24 31
f 24 32 31
f 24 25 32
f 25 33 32
f 25 26 33
f 26 34 33
f 26 27 34
f 27 35 34
f 27 28 35
f 28 36 35
f 28 29 36
f 29 37 36
f 29 30 37
f 30 38 37
f 30 23 38
f 23 31 38
f 31 32 39
f 32 40 39
f 32 33 40
f 33 41 40
f 33 34 41
f 34 42 41
f 34 35 42
f 35 43 42
f 35 36 43
f 36 44 43
f 36 37 44
f 37 45 44
f 37 38 45
f 38 46 45
f 38 31 46
f 31 39 46
f 39 40 47
f 40 48 47
f 40 41 48
f 41 49 48
f 41 42 49
f 42 50 49
f 42 43 50
f 43 51 50
f 43 44 51
f 44 52 51
f 44 45 52
f 45 53 52
f 45 46 53
f 46 54 53
f 46 39 54
f 39 47 54
f 47 48 55
f 48 49 56
f 49 50 57
f 50 51 58
f 51 52 59
f 52 53 60
f 53 54 61
f 54 47 62
f 64 72 71
f 65 73 72
f 66 74 73
f 67 75 74
f 68 76 75
f 69 77 76
f 70 78 77
f 63 71 78
f 71 72 79
f 72 80 79
f 72 73 80
f 73 81 80
f 73 74 81
f 74 82 81
f 74 75 82
f 75 83 82
f 75 76 83
f 76 84 83
f 76 77 84
f 77 85 84
f 77 78 85
f 78 86 85
f 78 71 86
f 71 79 86
f 79 80 87
f 80 88 87
f 80 81 88
f 81 89 88
f 81 82 89
f 82 90 89
f 82 83 90
f 83 91 90
f 83 84 91
f 84 92 91
f 84 85 92
f 85 93 92
f 85 86 93
f 86 94 93
f 86 79 94
f 79 87 94
f 87 88 95
f 88 96 95
f 88 89 96
f 89 97 96
f 89 90 97
f 90 98 97
f 90 91 98
f 91 99 98
f 91 92 99
f 92 100 99
f 92 93 100
f 93 101 100
f 93 94 101
f 94 102 101
f 94 87 102
f 87 95 102
f 95 96 103
f 96 97 104
f 97 98 105
f 98 99 106
f 99 100 107
f 100 101 108
f 101 102 109
f 102 95 110
f 111 112 118
f 112 119 118
f 112 113 119
f 113 120 119
f 113 114 120
f 114 121 120
f 114 115 121
f 115 122 121
f 115 116 122
f 116 123 122
f 116 117 123
f 117 124 123
f 117 111 124
f 111 118 124
f 126 134 133
f 127 135 134
f 128 136 135
f 129 137 136
f 130 138 137
f 131 139 138
f 132 140 139
f 125 133 140
f 133 134 141
f 134 142 141
f 134 135 142
f 135 143 142
f 135 136 143
f 136 144 143
f 136 137 144
f 137 145 144
f 137 138 145
f 138 146 145
f 138 139 146
f 139 147 146
f 139 140 147
f 140 148 147
f 140 133 148
f 133 141 148
f 141 142 149
f 142 150 149
f 142 143 150
f 143 151 150
f 143 144 151
f 144 152 151
f 144 145 152
f 145 153 152
f 145 146 153
f 146 154 153
f 146 147 154
f 147 155 154
f 147 148 155
f 148 156 155
f 148 141 156
f 141 149 156
f 149 150 157
f 150 158 157
f 150 151 158
f 151 159 158
f 151 152 159
f 152 160 159
f 152 153 160
f 153 161 160
f 153 154 161
f 154 162 161
f 154 155 162
f 155 163 162
f 155 156 163
f 156 164 163
f 156 149 164
f 149 157 164
f 157 158 165
f 158 159 166
f 159 160 167
f 160 161 168
f 161 162 169
f 162 163 170
f 163 164 171
f 164 157 172
f 174 182 181
f 175 183 182
f 176 184 183
f 177 185 184
f 178 186 185
f 179 187 186
f 180 188 187
f 173 181 188
f 181 182 189
f 182 190 189
f 182 183 190
f 183 191 190
f 183 184 191
f 184 192 191
f 184 185 192
f 185 193 192
f 185 186 193
f 186 194 193
f 186 187 194
f 187 195 194
f 187 188 195
f 188 196 195
f 188 181 196
f 181 189 196
f 189 190 197
f 190 198 197
f 190 191 198
f 191 199 198
f 191 192 199
f 192 200 199
f 192 193 200
f 193 201 200
f 193 194 201
f 194 202 201
f 194 195 202
f 195 203 202
f 195 196 203
f 196 204 203
f 196 189 204
f 189 197 204
f 197 198 205
f 198 206 205
f 198 199 206
f 199 207 206
f 199 200 207
f 200 208 207
f 200 201 208
f 201 209 208
f 201 202 209
f 202 210 209
f 202 203 210
f 203 211 210
f 203 204 211
f 204 212 211
f 204 197 212
f 197 205 212
f 205 206 213
f 206 207 214
f 207 208 215
f 208 209 216
f 209 210 217
f 210 211 218
f 211 212 219
f 212 205 220
f 221 222 228
f 222 229 228
f 222 223 229
f 223 230 229
f 223 224 230
f 224 231 230
f 224 225 231
f 225 232 231
f 225 226 232
f 226 233 232
f 226 227 233
f 227 234 233
f 227 221 234
f 221 228 234
f 236 244 243
f 237 245 244
f 238 246 245
f 239 247 246
f 240 248 247
f 241 249 248
f 242 250 249
f 235 243 250
f 243 244 251
f 244 252 251
f 244 245 252
f 245 253 252
f 245 246 253
f 246 254 253
f 246 247 254
f 247 255 254
f 247 248 255
f 248 256 255
f 248 249 256
f 249 257 256
f 249 250 257
f 250 258 257
f 250 243 258
f 243 251 258
f 251 252 259
f 252 260 259
f 252 253 260
f 253 261 260
f 253 254 261
f 254 262 261
f 254 255 262
f 255 263 262
f 255 256 263
f 256 264 263
f 256 257 264
f 257 265 264
f 257 258 265
f 258 266 265
f 258 251 266
f 251 259 266
f 259 260 267
f 260 268 267
f 260 261 268
f 261 269 268
f 261 262 269
f 262 270 269
f 262 263 270
f 263 271 270
f 263 264 271
f 264 272 271
f 264 265 272
f 265 273 272
f 265 266 273
f 266 274 273
f 266 259 274
f 259 267 274
f 267 268 275
f 268 269 276
f 269 270 277
f 270 271 278
f 271 272 279
f 272 273 280
f 273 274 281
f 274 267 282
f 284 292 291
f 285 293 292
f 286 294 293
f 287 295 294
f 288 296 295
f 289 297 296
f 290 298 297
f 283 291 298
f 291 292 299
f 292 300 299
f 292 293 300
f 293 301 300
f 293 294 301
f 294 302 301
f 294 295 302
f 295 303 302
f 295 296 303
f 296 304 303
f 296 297 304
f 297 305 304
f 297 298 305
f 298 306 305
f 298 291 306
f 291 299 306
f 299 300 307
f 300 308 307
f 300 301 308
f 301 309 308
f 301 302 309
f 302 310 309
f 302 303 310
f 303 311 310
f 303 304 311
f 304 312 311
f 304 305 312
f 305 313 312
f 305 306 313
f 306 314 313
f 306 299 314
f 299 307 314
f 307 308 315
f 308 316 315
f 308 309 316
f 309 317 316
f 309 310 317
f 310 318 317
f 310 311 318
f 311 319 318
f 311 312 319
f 312 320 319
f 312 313 320
f 313 321 320
f 313 314 321
f 314 322 321
f 314 307 322
f 307 315 322
f 315 316 323
f 316 317 324
f 317 318 325
f 318 319 326
f 319 320 327
f 320 321 328
f 321 322 329
f 322 315 330
f 331 332 338
f 332 339 338
f 332 333 339
f 333 340 339
f 333 334 340
f 334 341 340
f 334 335 341
f 335 342 341
f 335 336 342
f 336 343 342
f 336 337 343
f 337 344 343
f 337 331 344
f 331 338 344
f 346 354 353
f 347 355 354
f 348 356 355
f 349 357 356
f 350 358 357
f 351 359 358
f 352 360 359
f 345 353 360
f 353 354 361
f 354 362 361
f 354 355 362
f 355 363 362
f 355 356 363
f 356 364 363
f 356 357 364
f 357 365 364
f 357 358 365
f 358 366 365
f 358 359 366
f 359 367 366
f 359 360 367
f 360 368 367
f 360 353 368
f 353 361 368
f 361 362 369
f 362 370 369
f 362 363 370
f 363 371 370
f 363 364 371
f 364 372 371
f 364 365 372
f 365 373 372
f 365 366 373
f 366 374 373
f 366 367 374
f 367 375 374
f 367 368 375
f 368 376 375
f 368 361 376
f 361 369 376
f 369 370 377
f 370 378 377
f 370 371 378
f 371 379 378
f 371 372 379
f 372 380 379
f 372 373 380
f 373 381 380
f 373 374 381
f 374 382 381
f 374 375 382
f 375 383 382
f 375 376 383
f 376 384 383
f 376 369 384
f 369 377 384
f 377 378 385
f 378 379 386
f 379 380 387
f 380 381 388
f 381 382 389
f 382 383 390
f 383 384 391
f 384 377 392
f 394 402 401
f 395 403 402
f 396 404 403
f 397 405 404
f 398 406 405
f 399 407 406
f 400 408 407
f 393 401 408
f 401 402 409
f 402 410 409
f 402 403 410
f 403 411 410
f 403 404 411
f 404 412 411
f 404 405 412
f 405 413 412
f 405 406 413
f 406 414 413
f 406 407 414
f 407 415 414
f 407 408 415
f 408 416 415
f 408 401 416
f 401 409 416
f 409 410 417
f 410 418 417
f 410 411 418
f 411 419 418
f 411 412 419
f 412 420 419
f 412 413 420
f 413 421 420
f 413 414 421
f 414 422 421
f 414 415 422
f 415 423 422
f 415 416 423
f 416 424 423
f 416 409 424
f 409 417 424
f 417 418 425
f 418 426 425
f 418 419 426
f 419 427 426
f 419 420 427
f 420 428 427
f 420 421 428
f 421 429 428
f 421 422 429
f 422 430 429
f 422 423 430
f 423 431 430
f 423 424 431
f 424 432 431
f 424 417 432
f 417 425 432
f 425 426 433
f 426 427 434
f 427 428 435
f 428 429 436
f 429 430 437
f 430 431 438
f 431 432 439
f 432 425 440
f 441 442 448
f 442 449 448
f 442 443 449
f 443 450 449
f 443 444 450
f 444 451 450
f 444 445 451
f 445 452 451
f 445 446 452
f 446 453 452
f 446 447 453
f 447 454 453
f 447 441 454
f 441 448 454
f 456 464 463
f 457 465 464
f 458 466 465
f 459 467 466
f 460 468 467
f 461 469 468
f 462 470 469
f 455 463 470
f 463 464 471
f 464 472 471
f 464 465 472
f 465 473 472
f 465 466 473
f 466 474 473
f 466 467 474
f 467 475 474
f 467 468 475
f 468 476 475
f 468 469 476
f 469 477 476
f 469 470 477
f 470 478 477
f 470 463 478
f 463 471 478
f 471 472 479
f 472 480 479
f 472 473 480
f 473 481 480
f 473 474 481
f 474 482 481
f 474 475 482
f 475 483 482
f 475 476 483
f 476 484 483
f 476 477 484
f 477 485 484
f 477 478 485
f 478 486 485
f 478 471 486
f 471 479 486
f 479 480 487
f 480 488 487
f 480 481 488
f 481 489 488
f 481 482 489
f 482 490 489
f 482 483 490
f 483 491 490
f 483 484 491
f 484 492 491
f 484 485 492
f 485 493 492
f 485 486 493
f 486 494 493
f 486 479 494
f 479 487 494
f 487 488 495
f 488 489 496
f 489 490 497
f 490 491 498
f 491 492 499
f 492 493 500
f 493 494 501
f 494 487 502
f 504 512 511
f 505 513 512
f 506 514 513
f 507 515 514
f 508 516 515
f 509 517 516
f 510 518 517
f 503 511 518
f 511 512 519
f 512 520 519
f 512 513 520
f 513 521 520
f 513 514 521
f 514 522 521
f 514 515 522
f 515 523 522
f 515 516 523
f 516 524 523
f 516 517 524
f 517 525 524
f 517 518 525
f 518 526 525
f 518 511 526
f 511 519 526
f 519 520 527
f 520 528 527
f 520 521 528
f 521 529 528
f 521 522 529
f 522 530 529
f 522 523 530
f 523 531 530
f 523 524 531
f 524 532 531
f 524 525 532
f 525 533 532
f 525 526 533
f 526 534 533
f 526 519 534
f 519 527 534
f 527 528 535
f 528 536 535
f 528 529 536
f 529 537 536
f 529 530 537
f 530 538 537
f 530 531 538
f 531 539 538
f 531 532 539
f 532 540 539
f 532 533 540
f 533 541 540
f 533 534 541
f 534 542 541
f 534 527 542
f 527 535 542
f 535 536 543
f 536 537 544
f 537 538 545
f 538 539 546
f 539 540 547
f 540 541 548
f 541 542 549
f 542 535 550
f 551 552 558
f 552 559 558
f 552 553 559
f 553 560 559
f 553 554 560
f 554 561 560
f 554 555 561
f 555 562 561
f 555 556 562
f 556 563 562
f 556 557 563
f 557 564 563
f 557 551 564
f 551 558 564
f 566 574 573
f 567 575 574
f 568 576 575
f 569 577 576
f 570 578 577
f 571 579 578
f 572 580 579
f 565 573 580
f 573 574 581
f 574 582 581
f 574 575 582
f 575 583 582
f 575 576 583
f 576 584 583
f 576 577 584
f 577 585 584
f 577 578 585
f 578 586 585
f 578 579 586
f 579 587 586
f 579 580 587
f 580 588 587
f 580 573 588
f 573 581 588
f 581 582 589
f 582 590 589
f 582 583 590
f 583 591 590
f 583 584 591
f 584 592 591
f 584 585 592
f 585 593 592
f 585 586 593
f 586 594 593
f 586 587 594
f 587 595 594
f 587 588 595
f 588 596 595
f 588 581 596
f 581 589 596
f 589 590 597
f 590 598 597
f 590 591 598
f 591 599 598
f 591 592 599
f 592 600 599
f 592 593 600
f 593 601 600
f 593 594 601
f 594 602 601
f 594 595 602
f 595 603 602
f 595 596 603
f 596 604 603
f 596 589 604
f 589 597 604
f 597 598 605
f 598 599 606
f 599 600 607
f 600 601 608
f 601 602 609
f 602 603 610
f 603 604 611
f 604 597 612
f 614 622 621
f 615 623 622
f 616 624 623
f 617 625 624
f 618 626 625
f 619 627 626
f 620 628 627
f 613 621 628
f 621 622 629
f 622 630 629
f 622 623 630
f 623 631 630
f 623 624 631
f 624 632 631
f 624 625 632
f 625 633 632
f 625 626 633
f 626 634 633
f 626 627 634
f 627 635 634
f 627 628 635
f 628 636 635
f 628 621 636
f 621 629 636
f 629 630 637
f 630 638 637
f 630 631 638
f 631 639 638
f 631 632 639
f 632 640 639
f 632 633 640
f 633 641 640
f 633 634 641
f 634 642 641
f 634 635 642
f 635 643 642
f 635 636 643
f 636 644 643
f 636 629 644
f 629 637 644
f 637 638 645
f 638 646 645
f 638 639 646
f 639 647 646
f 639 640 647
f 640 648 647
f 640 641 648
f 641 649 648
f 641 642 649
f 642 650 649
f 642 643 650
f 643 651 650
f 643 644 651
f 644 652 651
f 644 637 652
f 637 645 652
f 645 646 653
f 646 647 654
f 647 648 655
f 648 649 656
f 649 650 657
f 650 651 658
f 651 652 659
f 652 645 660
f 661 662 668
f 662 669 668
f 662 663 669
f 663 670 669
f 663 664 670
f 664 671 670
f 664 665 671
f 665 672 671
f 665 666 672
f 666 673 672
f 666 667 673
f 667 674 673
f 667 661 674
f 661 668 674
f 676 684 683
f 677 685 684
f 678 686 685
f 679 687 686
f 680 688 687
f 681 689 688
f 682 690 689
f 675 683 690
f 683 684 691
f 684 692 691
f 684 685 692
f 685 693 692
f 685 686 693
f 686 694 693
f 686 687 694
f 687 695 694
f 687 688 695
f 688 696 695
f 688 689 696
f 689 697 696
f 689 690 697
f 690 698 697
f 690 683 698
f 683 691 698
f 691 692 699
f 692 700 699
f 692 693 700
f 693 701 700
f 693 694 701
f 694 702 701
f 694 695 702
f 695 703 702
f 695 696 703
f 696 704 703
f 696 697 704
f 697 705 704
f 697 698 705
f 698 706 705
f 698 691 706
f 691 699 706
f 699 700 707
f 700 708 707
f 700 701 708
f 701 709 708
f 701 702 709
f 702 710 709
f 702 703 710
f 703 711 710
f 703 704 711
f 704 712 711
f 704 705 712
f 705 713 712
f 705 706 713
f 706 714 713
f 706 699 714
f 699 707 714
f 707 708 715
f 708 709 716
f 709 710 717
f 710 711 718
f 711 712 719
f 712 713 720
f 713 714 721
f 714 707 722
f 724 732 731
f 725 733 732
f 726 734 733
f 727 735 734
f 728 736 735
f 729 737 736
f 730 738 737
f 723 731 738
f 731 732 739
f 732 740 739
f 732 733 740
f 733 741 740
f 733 734 741
f 734 742 741
f 734 735 742
f 735 743 742
f 735 736 743
f 736 744 743
f 736 737 744
f 737 745 744
f 737 738 745
f 738 746 745
f 738 731 746
f 731 739 746
f 739 740 747
f 740 748 747
f 740 741 748
f 741 749 748
f 741 742 749
f 742 750 749
f 742 743 750
f 743 751 750
f 743 744 751
f 744 752 751
f 744 745 752
f 745 753 752
f 745 746 753
f 746 754 753
f 746 739 754
f 739 747 754
f 747 748 755
f 748 756 755
f 748 749 756
f 749 757 756
f 749 750 757
f 750 758 757
f 750 751 758
f 751 759 758
f 751 752 759
f 752 760 759
f 752 753 760
f 753 761 760
f 753 754 761
f 754 762 761
f 754 747 762
f 747 755 762
f 755 756 763
f 756 757 764
f 757 758 765
f 758 759 766
f 759 760 767
f 760 761 768
f 761 762 769
f 762 755 770
f 771 772 778
f 772 779 778
f 772 773 779
f 773 780 779
f 773 774 780
f 774 781 780
f 774 775 781
f 775 782 781
f 775 776 782
f 776 783 782
f 776 777 783
f 777 784 783
f 777 771 784
f 771 778 784
f 786 794 793
f 787 795 794
f 788 796 795
f 789 797 796
f 790 798 797
f 791 799 798
f 792 800 799
f 785 793 800
f 793 794 801
f 794 802 801
f 794 795 802
f 795 803 802
f 795 796 803
f 796 804 803
f 796 797 804
f 797 805 804
f 797 798 805
f 798 806 805
f 798 799 806
f 799 807 806
f 799 800 807
f 800 808 807
f 800 793 808
f 793 801 808
f 801 802 809
f 802 810 809
f 802 803 810
f 803 811 810
f 803 804 811
f 804 812 811
f 804 805 812
f 805 813 812
f 805 806 813
f 806 814 813
f 806 807 814
f 807 815 814
f 807 808 815
f 808 816 815
f 808 801 816
f 801 809 816
f 809 810 817
f 810 818 817
f 810 811 818
f 811 819 818
f 811 812 819
f 812 820 819
f 812 813 820
f 813 821 820
f 813 814 821
f 814 822 821
f 814 815 822
f 815 823 822
f 815 816 823
f 816 824 823
f 816 809 824
f 809 817 824
f 817 818 825
f 818 819 826
f 819 820 827
f 820 821 828
f 821 822 829
f 822 823 830
f 823 824 831
f 824 817 832
f 834 842 841
f 835 843 842
f 836 844 843
f 837 845 844
f 838 846 845
f 839 847 846
f 840 848 847
f 833 841 848
f 841 842 849
f 842 850 849
f 842 843 850
f 843 851 850
f 843 844 851
f 844 852 851
f 844 845 852
f 845 853 852
f 845 846 853
f 846 854 853
f 846 847 854
f 847 855 854
f 847 848 855
f 848 856 855
f 848 841 856
f 841 849 856
f 849 850 857
f 850 858 857
f 850 851 858
f 851 859 858
f 851 852 859
f 852 860 859
f 852 853 860
f 853 861 860
f 853 854 861
f 854 862 861
f 854 855 862
f 855 863 862
f 855 856 863
f 856 864 863
f 856 849 864
f 849 857 864
f 857 858 865
f 858 866 865
f 858 859 866
f 859 867 866
f 859 860 867
f 860 868 867
f 860 861 868
f 861 869 868
f 861 862 869
f 862 870 869
f 862 863 870
f 863 871 870
f 863 864 871
f 864 872 871
f 864 857 872
f 857 865 872
f 865 866 873
f 866 867 874
f 867 868 875
f 868 869 876
f 869 870 877
f 870 871 878
f 871 872 879
f 872 865 880
f 881 882 888
f 882 889 888
f 882 883 889
f 883 890 889
f 883 884 890
f 884 891 890
f 884 885 891
f 885 892 891
f 885 886 892
f 886 893 892
f 886 887 893
f 887 894 893
f 887 881 894
f 881 888 894
f 896 904 903
f 897 905 904
f 898 906 905
f 899 907 906
f 900 908 907
f 901 909 908
f 902 910 909
f 895 903 910
f 903 904 911
f 904 912 911
f 904 905 912
f 905 913 912
f 905 906 913
f 906 914 913
f 906 907 914
f 907 915 914
f 907 908 915
f 908 916 915
f 908 909 916
f 909 917 916
f 909 910 917
f 910 918 917
f 910 903 918
f 903 911 918
f 911 912 919
f 912 920 919
f 912 913 920
f 913 921 920
f 913 914 921
f 914 922 921
f 914 915 922
f 915 923 922
f 915 916 923
f 916 924 923
f 916 917 924
f 917 925 924
f 917 918 925
f 918 926 925
f 918 911 926
f 911 919 926
f 919 920 927
f 920 928 927
f 920 921 928
f 921 929 928
f 921 922 929
f 922 930 929
f 922 923 930
f 923 931 930
f 923 924 931
f 924 932 931
f 924 925 932
f 925 933 932
f 925 926 933
f 926 934 933
f 926 919 934
f 919 927 934
f 927 928 935
f 928 929 936
f 929 930 937
f 930 931 938
f 931 932 939
f 932 933 940
f 933 934 941
f 934 927 942
f 944 952 951
f 945 953 952
f 946 954 953
f 947 955 954
f 948 956 955
f 949 957 956
f 950 958 957
f 943 951 958
f 951 952 959
f 952 960 959
f 952 953 960
f 953 961 960
f 953 954 961
f 954 962 961
f 954 955 962
f 955 963 962
f 955 956 963
f 956 964 963
f 956 957 964
f 957 965 964
f 957 958 965
f 958 966 965
f 958 951 966
f 951 959 966
f 959 960 967
f 960 968 967
f 960 961 968
f 961 969 968
f 961 962 969
f 962 970 969
f 962 963 970
f 963 971 970
f 963 964 971
f 964 972 971
f 964 965 972
f 965 973 972
f 965 966 973
f 966 974 973
f 966 959 974
f 959 967 974
f 967 968 975
f 968 976 975
f 968 969 976
f 969 977 976
f 969 970 977
f 970 978 977
f 970 971 978
f 971 979 978
f 971 972 979
f 972 980 979
f 972 973 980
f 973 981 980
f 973 974 981
f 974 982 981
f 974 967 982
f 967 975 982
f 975 976 983
f 976 977 984
f 977 978 985
f 978 979 986
f 979 980 987
f 980 981 988
f 981 982 989
f 982 975 990
