# Suhail Medical Dictionary v20.18 educational procedural bone mesh
v 0.505321 0.994638 0.000000
v 0.513854 0.995662 -0.026450
v 0.536193 0.998343 -0.042798
v 0.563807 1.001657 -0.042798
v 0.586146 1.004338 -0.026450
v 0.594679 1.005362 -0.000000
v 0.586146 1.004338 0.026450
v 0.563807 1.001657 0.042798
v 0.536193 0.998343 0.042798
v 0.513854 0.995662 0.026450
v 0.595321 0.244638 0.000000
v 0.603854 0.245662 -0.026450
v 0.626193 0.248343 -0.042798
v 0.653807 0.251657 -0.042798
v 0.676146 0.254338 -0.026450
v 0.684679 0.255362 -0.000000
v 0.676146 0.254338 0.026450
v 0.653807 0.251657 0.042798
v 0.626193 0.248343 0.042798
v 0.603854 0.245662 0.026450
v 0.550000 1.065250 0.000000
v 0.550000 1.065250 0.000000
v 0.550000 1.065250 0.000000
v 0.550000 1.065250 0.000000
v 0.550000 1.065250 0.000000
v 0.550000 1.065250 0.000000
v 0.550000 1.065250 0.000000
v 0.550000 1.065250 0.000000
v 0.588353 1.052788 0.000000
v 0.577120 1.052788 0.027120
v 0.550000 1.052788 0.038353
v 0.522880 1.052788 0.027120
v 0.511647 1.052788 0.000000
v 0.522880 1.052788 -0.027120
v 0.550000 1.052788 -0.038353
v 0.577120 1.052788 -0.027120
v 0.612056 1.020163 0.000000
v 0.593881 1.020163 0.043881
v 0.550000 1.020163 0.062056
v 0.506119 1.020163 0.043881
v 0.487944 1.020163 0.000000
v 0.506119 1.020163 -0.043881
v 0.550000 1.020163 -0.062056
v 0.593881 1.020163 -0.043881
v 0.612056 0.979837 0.000000
v 0.593881 0.979837 0.043881
v 0.550000 0.979837 0.062056
v 0.506119 0.979837 0.043881
v 0.487944 0.979837 0.000000
v 0.506119 0.979837 -0.043881
v 0.550000 0.979837 -0.062056
v 0.593881 0.979837 -0.043881
v 0.588353 0.947212 0.000000
v 0.577120 0.947212 0.027120
v 0.550000 0.947212 0.038353
v 0.522880 0.947212 0.027120
v 0.511647 0.947212 0.000000
v 0.522880 0.947212 -0.027120
v 0.550000 0.947212 -0.038353
v 0.577120 0.947212 -0.027120
v 0.550000 0.934750 0.000000
v 0.550000 0.934750 0.000000
v 0.550000 0.934750 0.000000
v 0.550000 0.934750 0.000000
v 0.550000 0.934750 0.000000
v 0.550000 0.934750 -0.000000
v 0.550000 0.934750 -0.000000
v 0.550000 0.934750 -0.000000
v 0.640000 0.315250 0.000000
v 0.640000 0.315250 0.000000
v 0.640000 0.315250 0.000000
v 0.640000 0.315250 0.000000
v 0.640000 0.315250 0.000000
v 0.640000 0.315250 0.000000
v 0.640000 0.315250 0.000000
v 0.640000 0.315250 0.000000
v 0.678353 0.302788 0.000000
v 0.667120 0.302788 0.027120
v 0.640000 0.302788 0.038353
v 0.612880 0.302788 0.027120
v 0.601647 0.302788 0.000000
v 0.612880 0.302788 -0.027120
v 0.640000 0.302788 -0.038353
v 0.667120 0.302788 -0.027120
v 0.702056 0.270163 0.000000
v 0.683881 0.270163 0.043881
v 0.640000 0.270163 0.062056
v 0.596119 0.270163 0.043881
v 0.577944 0.270163 0.000000
v 0.596119 0.270163 -0.043881
v 0.640000 0.270163 -0.062056
v 0.683881 0.270163 -0.043881
v 0.702056 0.229837 0.000000
v 0.683881 0.229837 0.043881
v 0.640000 0.229837 0.062056
v 0.596119 0.229837 0.043881
v 0.577944 0.229837 0.000000
v 0.596119 0.229837 -0.043881
v 0.640000 0.229837 -0.062056
v 0.683881 0.229837 -0.043881
v 0.678353 0.197212 0.000000
v 0.667120 0.197212 0.027120
v 0.640000 0.197212 0.038353
v 0.612880 0.197212 0.027120
v 0.601647 0.197212 0.000000
v 0.612880 0.197212 -0.027120
v 0.640000 0.197212 -0.038353
v 0.667120 0.197212 -0.027120
v 0.640000 0.184750 0.000000
v 0.640000 0.184750 0.000000
v 0.640000 0.184750 0.000000
v 0.640000 0.184750 0.000000
v 0.640000 0.184750 0.000000
v 0.640000 0.184750 -0.000000
v 0.640000 0.184750 -0.000000
v 0.640000 0.184750 -0.000000
f 1 2 11
f 2 12 11
f 2 3 12
f 3 13 12
f 3 4 13
f 4 14 13
f 4 5 14
f 5 15 14
f 5 6 15
f 6 16 15
f 6 7 16
f 7 17 16
f 7 8 17
f 8 18 17
f 8 9 18
f 9 19 18
f 9 10 19
f 10 20 19
f 10 1 20
f 1 11 20
f 22 30 29
f 23 31 30
f 24 32 31
f 25 33 32
f 26 34 33
f 27 35 34
f 28 36 35
f 21 29 36
f 29 30 37
f 30 38 37
f 30 31 38
f 31 39 38
f 31 32 39
f 32 40 39
f 32 33 40
f 33 41 40
f 33 34 41
f 34 42 41
f 34 35 42
f 35 43 42
f 35 36 43
f 36 44 43
f 36 29 44
f 29 37 44
f 37 38 45
f 38 46 45
f 38 39 46
f 39 47 46
f 39 40 47
f 40 48 47
f 40 41 48
f 41 49 48
f 41 42 49
f 42 50 49
f 42 43 50
f 43 51 50
f 43 44 51
f 44 52 51
f 44 37 52
f 37 45 52
f 45 46 53
f 46 54 53
f 46 47 54
f 47 55 54
f 47 48 55
f 48 56 55
f 48 49 56
f 49 57 56
f 49 50 57
f 50 58 57
f 50 51 58
f 51 59 58
f 51 52 59
f 52 60 59
f 52 45 60
f 45 53 60
f 53 54 61
f 54 55 62
f 55 56 63
f 56 57 64
f 57 58 65
f 58 59 66
f 59 60 67
f 60 53 68
f 70 78 77
f 71 79 78
f 72 80 79
f 73 81 80
f 74 82 81
f 75 83 82
f 76 84 83
f 69 77 84
f 77 78 85
f 78 86 85
f 78 79 86
f 79 87 86
f 79 80 87
f 80 88 87
f 80 81 88
f 81 89 88
f 81 82 89
f 82 90 89
f 82 83 90
f 83 91 90
f 83 84 91
f 84 92 91
f 84 77 92
f 77 85 92
f 85 86 93
f 86 94 93
f 86 87 94
f 87 95 94
f 87 88 95
f 88 96 95
f 88 89 96
f 89 97 96
f 89 90 97
f 90 98 97
f 90 91 98
f 91 99 98
f 91 92 99
f 92 100 99
f 92 85 100
f 85 93 100
f 93 94 101
f 94 102 101
f 94 95 102
f 95 103 102
f 95 96 103
f 96 104 103
f 96 97 104
f 97 105 104
f 97 98 105
f 98 106 105
f 98 99 106
f 99 107 106
f 99 100 107
f 100 108 107
f 100 93 108
f 93 101 108
f 101 102 109
f 102 103 110
f 103 104 111
f 104 105 112
f 105 106 113
f 106 107 114
f 107 108 115
f 108 101 116
