# Suhail Medical Dictionary v20.18 educational procedural bone mesh
v 0.245000 -1.815000 0.200000
v 0.245000 -1.815000 0.200000
v 0.245000 -1.815000 0.200000
v 0.245000 -1.815000 0.200000
v 0.245000 -1.815000 0.200000
v 0.245000 -1.815000 0.200000
v 0.245000 -1.815000 0.200000
v 0.245000 -1.815000 0.200000
v 0.245000 -1.815000 0.200000
v 0.245000 -1.815000 0.200000
v 0.260186 -1.817476 0.200000
v 0.257286 -1.817476 0.212752
v 0.249693 -1.817476 0.220632
v 0.240307 -1.817476 0.220632
v 0.232714 -1.817476 0.212752
v 0.229814 -1.817476 0.200000
v 0.232714 -1.817476 0.187248
v 0.240307 -1.817476 0.179368
v 0.249693 -1.817476 0.179368
v 0.257286 -1.817476 0.187248
v 0.272364 -1.824413 0.200000
v 0.267138 -1.824413 0.222977
v 0.253456 -1.824413 0.237178
v 0.236544 -1.824413 0.237178
v 0.222862 -1.824413 0.222977
v 0.217636 -1.824413 0.200000
v 0.222862 -1.824413 0.177023
v 0.236544 -1.824413 0.162822
v 0.253456 -1.824413 0.162822
v 0.267138 -1.824413 0.177023
v 0.279122 -1.834437 0.200000
v 0.272606 -1.834437 0.228652
v 0.255544 -1.834437 0.246361
v 0.234456 -1.834437 0.246361
v 0.217394 -1.834437 0.228652
v 0.210878 -1.834437 0.200000
v 0.217394 -1.834437 0.171348
v 0.234456 -1.834437 0.153639
v 0.255544 -1.834437 0.153639
v 0.272606 -1.834437 0.171348
v 0.279122 -1.845563 0.200000
v 0.272606 -1.845563 0.228652
v 0.255544 -1.845563 0.246361
v 0.234456 -1.845563 0.246361
v 0.217394 -1.845563 0.228652
v 0.210878 -1.845563 0.200000
v 0.217394 -1.845563 0.171348
v 0.234456 -1.845563 0.153639
v 0.255544 -1.845563 0.153639
v 0.272606 -1.845563 0.171348
v 0.272364 -1.855587 0.200000
v 0.267138 -1.855587 0.222977
v 0.253456 -1.855587 0.237178
v 0.236544 -1.855587 0.237178
v 0.222862 -1.855587 0.222977
v 0.217636 -1.855587 0.200000
v 0.222862 -1.855587 0.177023
v 0.236544 -1.855587 0.162822
v 0.253456 -1.855587 0.162822
v 0.267138 -1.855587 0.177023
v 0.260186 -1.862524 0.200000
v 0.257286 -1.862524 0.212752
v 0.249693 -1.862524 0.220632
v 0.240307 -1.862524 0.220632
v 0.232714 -1.862524 0.212752
v 0.229814 -1.862524 0.200000
v 0.232714 -1.862524 0.187248
v 0.240307 -1.862524 0.179368
v 0.249693 -1.862524 0.179368
v 0.257286 -1.862524 0.187248
v 0.245000 -1.865000 0.200000
v 0.245000 -1.865000 0.200000
v 0.245000 -1.865000 0.200000
v 0.245000 -1.865000 0.200000
v 0.245000 -1.865000 0.200000
v 0.245000 -1.865000 0.200000
v 0.245000 -1.865000 0.200000
v 0.245000 -1.865000 0.200000
v 0.245000 -1.865000 0.200000
v 0.245000 -1.865000 0.200000
f 2 12 11
f 3 13 12
f 4 14 13
f 5 15 14
f 6 16 15
f 7 17 16
f 8 18 17
f 9 19 18
f 10 20 19
f 1 11 20
f 11 12 21
f 12 22 21
f 12 13 22
f 13 23 22
f 13 14 23
f 14 24 23
f 14 15 24
f 15 25 24
f 15 16 25
f 16 26 25
f 16 17 26
f 17 27 26
f 17 18 27
f 18 28 27
f 18 19 28
f 19 29 28
f 19 20 29
f 20 30 29
f 20 11 30
f 11 21 30
f 21 22 31
f 22 32 31
f 22 23 32
f 23 33 32
f 23 24 33
f 24 34 33
f 24 25 34
f 25 35 34
f 25 26 35
f 26 36 35
f 26 27 36
f 27 37 36
f 27 28 37
f 28 38 37
f 28 29 38
f 29 39 38
f 29 30 39
f 30 40 39
f 30 21 40
f 21 31 40
f 31 32 41
f 32 42 41
f 32 33 42
f 33 43 42
f 33 34 43
f 34 44 43
f 34 35 44
f 35 45 44
f 35 36 45
f 36 46 45
f 36 37 46
f 37 47 46
f 37 38 47
f 38 48 47
f 38 39 48
f 39 49 48
f 39 40 49
f 40 50 49
f 40 31 50
f 31 41 50
f 41 42 51
f 42 52 51
f 42 43 52
f 43 53 52
f 43 44 53
f 44 54 53
f 44 45 54
f 45 55 54
f 45 46 55
f 46 56 55
f 46 47 56
f 47 57 56
f 47 48 57
f 48 58 57
f 48 49 58
f 49 59 58
f 49 50 59
f 50 60 59
f 50 41 60
f 41 51 60
f 51 52 61
f 52 62 61
f 52 53 62
f 53 63 62
f 53 54 63
f 54 64 63
f 54 55 64
f 55 65 64
f 55 56 65
f 56 66 65
f 56 57 66
f 57 67 66
f 57 58 67
f 58 68 67
f 58 59 68
f 59 69 68
f 59 60 69
f 60 70 69
f 60 51 70
f 51 61 70
f 61 62 71
f 62 63 72
f 63 64 73
f 64 65 74
f 65 66 75
f 66 67 76
f 67 68 77
f 68 69 78
f 69 70 79
f 70 61 80
