# https://github.com/mikedh/trimesh
v -0.1430000 1.6200000 0.0200000
v -0.1446077 1.6140000 0.0200000
v -0.1490000 1.6096077 0.0200000
v -0.1550000 1.6080000 0.0200000
v -0.1610000 1.6096077 0.0200000
v -0.1653923 1.6140000 0.0200000
v -0.1670000 1.6200000 0.0200000
v -0.1653923 1.6260000 0.0200000
v -0.1610000 1.6303923 0.0200000
v -0.1550000 1.6320000 0.0200000
v -0.1490000 1.6303923 0.0200000
v -0.1446077 1.6260000 0.0200000
v -0.1442874 1.6200000 0.0330711
v -0.1458642 1.6140000 0.0327574
v -0.1501721 1.6096077 0.0319005
v -0.1560568 1.6080000 0.0307300
v -0.1619415 1.6096077 0.0295594
v -0.1662494 1.6140000 0.0287025
v -0.1678262 1.6200000 0.0283889
v -0.1662494 1.6260000 0.0287025
v -0.1619415 1.6303923 0.0295594
v -0.1560568 1.6320000 0.0307300
v -0.1501721 1.6303923 0.0319005
v -0.1458642 1.6260000 0.0327574
v -0.1481001 1.6200000 0.0456398
v -0.1495854 1.6140000 0.0450246
v -0.1536433 1.6096077 0.0433437
v -0.1591866 1.6080000 0.0410476
v -0.1647299 1.6096077 0.0387515
v -0.1687879 1.6140000 0.0370706
v -0.1702732 1.6200000 0.0364554
v -0.1687879 1.6260000 0.0370706
v -0.1647299 1.6303923 0.0387515
v -0.1591866 1.6320000 0.0410476
v -0.1536433 1.6303923 0.0433437
v -0.1495854 1.6260000 0.0450246
v -0.1542915 1.6200000 0.0572232
v -0.1556283 1.6140000 0.0563300
v -0.1592804 1.6096077 0.0538898
v -0.1642692 1.6080000 0.0505564
v -0.1692580 1.6096077 0.0472229
v -0.1729101 1.6140000 0.0447827
v -0.1742468 1.6200000 0.0438895
v -0.1729101 1.6260000 0.0447827
v -0.1692580 1.6303923 0.0472229
v -0.1642692 1.6320000 0.0505564
v -0.1592804 1.6303923 0.0538898
v -0.1556283 1.6260000 0.0563300
v -0.1626238 1.6200000 0.0673762
v -0.1637607 1.6140000 0.0662393
v -0.1668665 1.6096077 0.0631335
v -0.1711091 1.6080000 0.0588909
v -0.1753518 1.6096077 0.0546482
v -0.1784576 1.6140000 0.0515424
v -0.1795944 1.6200000 0.0504056
v -0.1784576 1.6260000 0.0515424
v -0.1753518 1.6303923 0.0546482
v -0.1711091 1.6320000 0.0588909
v -0.1668665 1.6303923 0.0631335
v -0.1637607 1.6260000 0.0662393
v -0.1727768 1.6200000 0.0757085
v -0.1736700 1.6140000 0.0743717
v -0.1761102 1.6096077 0.0707196
v -0.1794436 1.6080000 0.0657308
v -0.1827771 1.6096077 0.0607420
v -0.1852173 1.6140000 0.0570899
v -0.1861105 1.6200000 0.0557532
v -0.1852173 1.6260000 0.0570899
v -0.1827771 1.6303923 0.0607420
v -0.1794436 1.6320000 0.0657308
v -0.1761102 1.6303923 0.0707196
v -0.1736700 1.6260000 0.0743717
v -0.1843602 1.6200000 0.0818999
v -0.1849754 1.6140000 0.0804146
v -0.1866563 1.6096077 0.0763567
v -0.1889524 1.6080000 0.0708134
v -0.1912485 1.6096077 0.0652701
v -0.1929294 1.6140000 0.0612121
v -0.1935446 1.6200000 0.0597268
v -0.1929294 1.6260000 0.0612121
v -0.1912485 1.6303923 0.0652701
v -0.1889524 1.6320000 0.0708134
v -0.1866563 1.6303923 0.0763567
v -0.1849754 1.6260000 0.0804146
v -0.1969289 1.6200000 0.0857126
v -0.1972426 1.6140000 0.0841358
v -0.1980995 1.6096077 0.0798279
v -0.1992700 1.6080000 0.0739432
v -0.2004406 1.6096077 0.0680585
v -0.2012975 1.6140000 0.0637506
v -0.2016111 1.6200000 0.0621738
v -0.2012975 1.6260000 0.0637506
v -0.2004406 1.6303923 0.0680585
v -0.1992700 1.6320000 0.0739432
v -0.1980995 1.6303923 0.0798279
v -0.1972426 1.6260000 0.0841358
v -0.2100000 1.6200000 0.0870000
v -0.2100000 1.6140000 0.0853923
v -0.2100000 1.6096077 0.0810000
v -0.2100000 1.6080000 0.0750000
v -0.2100000 1.6096077 0.0690000
v -0.2100000 1.6140000 0.0646077
v -0.2100000 1.6200000 0.0630000
v -0.2100000 1.6260000 0.0646077
v -0.2100000 1.6303923 0.0690000
v -0.2100000 1.6320000 0.0750000
v -0.2100000 1.6303923 0.0810000
v -0.2100000 1.6260000 0.0853923
v -0.2230711 1.6200000 0.0857126
v -0.2227574 1.6140000 0.0841358
v -0.2219005 1.6096077 0.0798279
v -0.2207300 1.6080000 0.0739432
v -0.2195594 1.6096077 0.0680585
v -0.2187025 1.6140000 0.0637506
v -0.2183889 1.6200000 0.0621738
v -0.2187025 1.6260000 0.0637506
v -0.2195594 1.6303923 0.0680585
v -0.2207300 1.6320000 0.0739432
v -0.2219005 1.6303923 0.0798279
v -0.2227574 1.6260000 0.0841358
v -0.2356398 1.6200000 0.0818999
v -0.2350246 1.6140000 0.0804146
v -0.2333437 1.6096077 0.0763567
v -0.2310476 1.6080000 0.0708134
v -0.2287515 1.6096077 0.0652701
v -0.2270706 1.6140000 0.0612121
v -0.2264554 1.6200000 0.0597268
v -0.2270706 1.6260000 0.0612121
v -0.2287515 1.6303923 0.0652701
v -0.2310476 1.6320000 0.0708134
v -0.2333437 1.6303923 0.0763567
v -0.2350246 1.6260000 0.0804146
v -0.2472232 1.6200000 0.0757085
v -0.2463300 1.6140000 0.0743717
v -0.2438898 1.6096077 0.0707196
v -0.2405564 1.6080000 0.0657308
v -0.2372229 1.6096077 0.0607420
v -0.2347827 1.6140000 0.0570899
v -0.2338895 1.6200000 0.0557532
v -0.2347827 1.6260000 0.0570899
v -0.2372229 1.6303923 0.0607420
v -0.2405564 1.6320000 0.0657308
v -0.2438898 1.6303923 0.0707196
v -0.2463300 1.6260000 0.0743717
v -0.2573762 1.6200000 0.0673762
v -0.2562393 1.6140000 0.0662393
v -0.2531335 1.6096077 0.0631335
v -0.2488909 1.6080000 0.0588909
v -0.2446482 1.6096077 0.0546482
v -0.2415424 1.6140000 0.0515424
v -0.2404056 1.6200000 0.0504056
v -0.2415424 1.6260000 0.0515424
v -0.2446482 1.6303923 0.0546482
v -0.2488909 1.6320000 0.0588909
v -0.2531335 1.6303923 0.0631335
v -0.2562393 1.6260000 0.0662393
v -0.2657085 1.6200000 0.0572232
v -0.2643717 1.6140000 0.0563300
v -0.2607196 1.6096077 0.0538898
v -0.2557308 1.6080000 0.0505564
v -0.2507420 1.6096077 0.0472229
v -0.2470899 1.6140000 0.0447827
v -0.2457532 1.6200000 0.0438895
v -0.2470899 1.6260000 0.0447827
v -0.2507420 1.6303923 0.0472229
v -0.2557308 1.6320000 0.0505564
v -0.2607196 1.6303923 0.0538898
v -0.2643717 1.6260000 0.0563300
v -0.2718999 1.6200000 0.0456398
v -0.2704146 1.6140000 0.0450246
v -0.2663567 1.6096077 0.0433437
v -0.2608134 1.6080000 0.0410476
v -0.2552701 1.6096077 0.0387515
v -0.2512121 1.6140000 0.0370706
v -0.2497268 1.6200000 0.0364554
v -0.2512121 1.6260000 0.0370706
v -0.2552701 1.6303923 0.0387515
v -0.2608134 1.6320000 0.0410476
v -0.2663567 1.6303923 0.0433437
v -0.2704146 1.6260000 0.0450246
v -0.2757126 1.6200000 0.0330711
v -0.2741358 1.6140000 0.0327574
v -0.2698279 1.6096077 0.0319005
v -0.2639432 1.6080000 0.0307300
v -0.2580585 1.6096077 0.0295594
v -0.2537506 1.6140000 0.0287025
v -0.2521738 1.6200000 0.0283889
v -0.2537506 1.6260000 0.0287025
v -0.2580585 1.6303923 0.0295594
v -0.2639432 1.6320000 0.0307300
v -0.2698279 1.6303923 0.0319005
v -0.2741358 1.6260000 0.0327574
v -0.2770000 1.6200000 0.0200000
v -0.2753923 1.6140000 0.0200000
v -0.2710000 1.6096077 0.0200000
v -0.2650000 1.6080000 0.0200000
v -0.2590000 1.6096077 0.0200000
v -0.2546077 1.6140000 0.0200000
v -0.2530000 1.6200000 0.0200000
v -0.2546077 1.6260000 0.0200000
v -0.2590000 1.6303923 0.0200000
v -0.2650000 1.6320000 0.0200000
v -0.2710000 1.6303923 0.0200000
v -0.2753923 1.6260000 0.0200000
v -0.2757126 1.6200000 0.0069289
v -0.2741358 1.6140000 0.0072426
v -0.2698279 1.6096077 0.0080995
v -0.2639432 1.6080000 0.0092700
v -0.2580585 1.6096077 0.0104406
v -0.2537506 1.6140000 0.0112975
v -0.2521738 1.6200000 0.0116111
v -0.2537506 1.6260000 0.0112975
v -0.2580585 1.6303923 0.0104406
v -0.2639432 1.6320000 0.0092700
v -0.2698279 1.6303923 0.0080995
v -0.2741358 1.6260000 0.0072426
v -0.2718999 1.6200000 -0.0056398
v -0.2704146 1.6140000 -0.0050246
v -0.2663567 1.6096077 -0.0033437
v -0.2608134 1.6080000 -0.0010476
v -0.2552701 1.6096077 0.0012485
v -0.2512121 1.6140000 0.0029294
v -0.2497268 1.6200000 0.0035446
v -0.2512121 1.6260000 0.0029294
v -0.2552701 1.6303923 0.0012485
v -0.2608134 1.6320000 -0.0010476
v -0.2663567 1.6303923 -0.0033437
v -0.2704146 1.6260000 -0.0050246
v -0.2657085 1.6200000 -0.0172232
v -0.2643717 1.6140000 -0.0163300
v -0.2607196 1.6096077 -0.0138898
v -0.2557308 1.6080000 -0.0105564
v -0.2507420 1.6096077 -0.0072229
v -0.2470899 1.6140000 -0.0047827
v -0.2457532 1.6200000 -0.0038895
v -0.2470899 1.6260000 -0.0047827
v -0.2507420 1.6303923 -0.0072229
v -0.2557308 1.6320000 -0.0105564
v -0.2607196 1.6303923 -0.0138898
v -0.2643717 1.6260000 -0.0163300
v -0.2573762 1.6200000 -0.0273762
v -0.2562393 1.6140000 -0.0262393
v -0.2531335 1.6096077 -0.0231335
v -0.2488909 1.6080000 -0.0188909
v -0.2446482 1.6096077 -0.0146482
v -0.2415424 1.6140000 -0.0115424
v -0.2404056 1.6200000 -0.0104056
v -0.2415424 1.6260000 -0.0115424
v -0.2446482 1.6303923 -0.0146482
v -0.2488909 1.6320000 -0.0188909
v -0.2531335 1.6303923 -0.0231335
v -0.2562393 1.6260000 -0.0262393
v -0.2472232 1.6200000 -0.0357085
v -0.2463300 1.6140000 -0.0343717
v -0.2438898 1.6096077 -0.0307196
v -0.2405564 1.6080000 -0.0257308
v -0.2372229 1.6096077 -0.0207420
v -0.2347827 1.6140000 -0.0170899
v -0.2338895 1.6200000 -0.0157532
v -0.2347827 1.6260000 -0.0170899
v -0.2372229 1.6303923 -0.0207420
v -0.2405564 1.6320000 -0.0257308
v -0.2438898 1.6303923 -0.0307196
v -0.2463300 1.6260000 -0.0343717
v -0.2356398 1.6200000 -0.0418999
v -0.2350246 1.6140000 -0.0404146
v -0.2333437 1.6096077 -0.0363567
v -0.2310476 1.6080000 -0.0308134
v -0.2287515 1.6096077 -0.0252701
v -0.2270706 1.6140000 -0.0212121
v -0.2264554 1.6200000 -0.0197268
v -0.2270706 1.6260000 -0.0212121
v -0.2287515 1.6303923 -0.0252701
v -0.2310476 1.6320000 -0.0308134
v -0.2333437 1.6303923 -0.0363567
v -0.2350246 1.6260000 -0.0404146
v -0.2230711 1.6200000 -0.0457126
v -0.2227574 1.6140000 -0.0441358
v -0.2219005 1.6096077 -0.0398279
v -0.2207300 1.6080000 -0.0339432
v -0.2195594 1.6096077 -0.0280585
v -0.2187025 1.6140000 -0.0237506
v -0.2183889 1.6200000 -0.0221738
v -0.2187025 1.6260000 -0.0237506
v -0.2195594 1.6303923 -0.0280585
v -0.2207300 1.6320000 -0.0339432
v -0.2219005 1.6303923 -0.0398279
v -0.2227574 1.6260000 -0.0441358
v -0.2100000 1.6200000 -0.0470000
v -0.2100000 1.6140000 -0.0453923
v -0.2100000 1.6096077 -0.0410000
v -0.2100000 1.6080000 -0.0350000
v -0.2100000 1.6096077 -0.0290000
v -0.2100000 1.6140000 -0.0246077
v -0.2100000 1.6200000 -0.0230000
v -0.2100000 1.6260000 -0.0246077
v -0.2100000 1.6303923 -0.0290000
v -0.2100000 1.6320000 -0.0350000
v -0.2100000 1.6303923 -0.0410000
v -0.2100000 1.6260000 -0.0453923
v -0.1969289 1.6200000 -0.0457126
v -0.1972426 1.6140000 -0.0441358
v -0.1980995 1.6096077 -0.0398279
v -0.1992700 1.6080000 -0.0339432
v -0.2004406 1.6096077 -0.0280585
v -0.2012975 1.6140000 -0.0237506
v -0.2016111 1.6200000 -0.0221738
v -0.2012975 1.6260000 -0.0237506
v -0.2004406 1.6303923 -0.0280585
v -0.1992700 1.6320000 -0.0339432
v -0.1980995 1.6303923 -0.0398279
v -0.1972426 1.6260000 -0.0441358
v -0.1843602 1.6200000 -0.0418999
v -0.1849754 1.6140000 -0.0404146
v -0.1866563 1.6096077 -0.0363567
v -0.1889524 1.6080000 -0.0308134
v -0.1912485 1.6096077 -0.0252701
v -0.1929294 1.6140000 -0.0212121
v -0.1935446 1.6200000 -0.0197268
v -0.1929294 1.6260000 -0.0212121
v -0.1912485 1.6303923 -0.0252701
v -0.1889524 1.6320000 -0.0308134
v -0.1866563 1.6303923 -0.0363567
v -0.1849754 1.6260000 -0.0404146
v -0.1727768 1.6200000 -0.0357085
v -0.1736700 1.6140000 -0.0343717
v -0.1761102 1.6096077 -0.0307196
v -0.1794436 1.6080000 -0.0257308
v -0.1827771 1.6096077 -0.0207420
v -0.1852173 1.6140000 -0.0170899
v -0.1861105 1.6200000 -0.0157532
v -0.1852173 1.6260000 -0.0170899
v -0.1827771 1.6303923 -0.0207420
v -0.1794436 1.6320000 -0.0257308
v -0.1761102 1.6303923 -0.0307196
v -0.1736700 1.6260000 -0.0343717
v -0.1626238 1.6200000 -0.0273762
v -0.1637607 1.6140000 -0.0262393
v -0.1668665 1.6096077 -0.0231335
v -0.1711091 1.6080000 -0.0188909
v -0.1753518 1.6096077 -0.0146482
v -0.1784576 1.6140000 -0.0115424
v -0.1795944 1.6200000 -0.0104056
v -0.1784576 1.6260000 -0.0115424
v -0.1753518 1.6303923 -0.0146482
v -0.1711091 1.6320000 -0.0188909
v -0.1668665 1.6303923 -0.0231335
v -0.1637607 1.6260000 -0.0262393
v -0.1542915 1.6200000 -0.0172232
v -0.1556283 1.6140000 -0.0163300
v -0.1592804 1.6096077 -0.0138898
v -0.1642692 1.6080000 -0.0105564
v -0.1692580 1.6096077 -0.0072229
v -0.1729101 1.6140000 -0.0047827
v -0.1742468 1.6200000 -0.0038895
v -0.1729101 1.6260000 -0.0047827
v -0.1692580 1.6303923 -0.0072229
v -0.1642692 1.6320000 -0.0105564
v -0.1592804 1.6303923 -0.0138898
v -0.1556283 1.6260000 -0.0163300
v -0.1481001 1.6200000 -0.0056398
v -0.1495854 1.6140000 -0.0050246
v -0.1536433 1.6096077 -0.0033437
v -0.1591866 1.6080000 -0.0010476
v -0.1647299 1.6096077 0.0012485
v -0.1687879 1.6140000 0.0029294
v -0.1702732 1.6200000 0.0035446
v -0.1687879 1.6260000 0.0029294
v -0.1647299 1.6303923 0.0012485
v -0.1591866 1.6320000 -0.0010476
v -0.1536433 1.6303923 -0.0033437
v -0.1495854 1.6260000 -0.0050246
v -0.1442874 1.6200000 0.0069289
v -0.1458642 1.6140000 0.0072426
v -0.1501721 1.6096077 0.0080995
v -0.1560568 1.6080000 0.0092700
v -0.1619415 1.6096077 0.0104406
v -0.1662494 1.6140000 0.0112975
v -0.1678262 1.6200000 0.0116111
v -0.1662494 1.6260000 0.0112975
v -0.1619415 1.6303923 0.0104406
v -0.1560568 1.6320000 0.0092700
v -0.1501721 1.6303923 0.0080995
v -0.1458642 1.6260000 0.0072426
vn 1.0000000 -0.0000000 0.0000000
vn 0.8699560 -0.4931294 -0.0000000
vn 0.5119350 -0.8590242 0.0000000
vn 0.0161723 -0.9998692 0.0000000
vn -0.4876789 -0.8730231 -0.0000000
vn -0.8618723 -0.5071255 -0.0000000
vn -1.0000000 -0.0000000 -0.0000000
vn -0.8618723 0.5071255 -0.0000000
vn -0.4876789 0.8730231 -0.0000000
vn 0.0161723 0.9998692 -0.0000000
vn 0.5119350 0.8590242 -0.0000000
vn 0.8699560 0.4931294 0.0000000
vn 0.9807853 0.0000000 0.1950903
vn 0.8532400 -0.4931294 0.1697200
vn 0.5020983 -0.8590242 0.0998736
vn 0.0158616 -0.9998692 0.0031551
vn -0.4783083 -0.8730231 -0.0951414
vn -0.8453116 -0.5071255 -0.1681429
vn -0.9807853 -0.0000000 -0.1950903
vn -0.8453116 0.5071255 -0.1681429
vn -0.4783083 0.8730231 -0.0951414
vn 0.0158616 0.9998692 0.0031551
vn 0.5020983 0.8590242 0.0998736
vn 0.8532400 0.4931294 0.1697200
vn 0.9238795 -0.0000000 0.3826834
vn 0.8037345 -0.4931294 0.3329177
vn 0.4729662 -0.8590242 0.1959090
vn 0.0149413 -0.9998692 0.0061889
vn -0.4505566 -0.8730231 -0.1866266
vn -0.7962661 -0.5071255 -0.3298242
vn -0.9238795 0.0000000 -0.3826834
vn -0.7962661 0.5071255 -0.3298242
vn -0.4505566 0.8730231 -0.1866266
vn 0.0149413 0.9998692 0.0061889
vn 0.4729662 0.8590242 0.1959090
vn 0.8037345 0.4931294 0.3329177
vn 0.8314696 -0.0000000 0.5555702
vn 0.7233420 -0.4931294 0.4833216
vn 0.4256584 -0.8590242 0.2844158
vn 0.0134468 -0.9998692 0.0089849
vn -0.4054902 -0.8730231 -0.2709399
vn -0.7166206 -0.5071255 -0.4788306
vn -0.8314696 0.0000000 -0.5555702
vn -0.7166206 0.5071255 -0.4788306
vn -0.4054902 0.8730231 -0.2709399
vn 0.0134468 0.9998692 0.0089849
vn 0.4256584 0.8590242 0.2844158
vn 0.7233420 0.4931294 0.4833216
vn 0.7071068 -0.0000000 0.7071068
vn 0.6151518 -0.4931294 0.6151518
vn 0.3619927 -0.8590242 0.3619927
vn 0.0114356 -0.9998692 0.0114356
vn -0.3448411 -0.8730231 -0.3448411
vn -0.6094357 -0.5071255 -0.6094357
vn -0.7071068 -0.0000000 -0.7071068
vn -0.6094357 0.5071255 -0.6094357
vn -0.3448411 0.8730231 -0.3448411
vn 0.0114356 0.9998692 0.0114356
vn 0.3619927 0.8590242 0.3619927
vn 0.6151518 0.4931294 0.6151518
vn 0.5555702 0.0000000 0.8314696
vn 0.4833216 -0.4931294 0.7233420
vn 0.2844158 -0.8590242 0.4256584
vn 0.0089849 -0.9998692 0.0134468
vn -0.2709399 -0.8730231 -0.4054902
vn -0.4788306 -0.5071255 -0.7166206
vn -0.5555702 0.0000000 -0.8314696
vn -0.4788306 0.5071255 -0.7166206
vn -0.2709399 0.8730231 -0.4054902
vn 0.0089849 0.9998692 0.0134468
vn 0.2844158 0.8590242 0.4256584
vn 0.4833216 0.4931294 0.7233420
vn 0.3826834 -0.0000000 0.9238795
vn 0.3329177 -0.4931294 0.8037345
vn 0.1959090 -0.8590242 0.4729662
vn 0.0061889 -0.9998692 0.0149413
vn -0.1866266 -0.8730231 -0.4505566
vn -0.3298242 -0.5071255 -0.7962661
vn -0.3826834 -0.0000000 -0.9238795
vn -0.3298242 0.5071255 -0.7962661
vn -0.1866266 0.8730231 -0.4505566
vn 0.0061889 0.9998692 0.0149413
vn 0.1959090 0.8590242 0.4729662
vn 0.3329177 0.4931294 0.8037345
vn 0.1950903 -0.0000000 0.9807853
vn 0.1697200 -0.4931294 0.8532400
vn 0.0998736 -0.8590242 0.5020983
vn 0.0031551 -0.9998692 0.0158616
vn -0.0951414 -0.8730231 -0.4783083
vn -0.1681429 -0.5071255 -0.8453116
vn -0.1950903 -0.0000000 -0.9807853
vn -0.1681429 0.5071255 -0.8453116
vn -0.0951414 0.8730231 -0.4783083
vn 0.0031551 0.9998692 0.0158616
vn 0.0998736 0.8590242 0.5020983
vn 0.1697200 0.4931294 0.8532400
vn -0.0000000 -0.0000000 1.0000000
vn -0.0000000 -0.4931294 0.8699560
vn -0.0000000 -0.8590242 0.5119350
vn -0.0000000 -0.9998692 0.0161723
vn 0.0000000 -0.8730231 -0.4876789
vn -0.0000000 -0.5071255 -0.8618723
vn -0.0000000 0.0000000 -1.0000000
vn 0.0000000 0.5071255 -0.8618723
vn 0.0000000 0.8730231 -0.4876789
vn -0.0000000 0.9998692 0.0161723
vn -0.0000000 0.8590242 0.5119350
vn 0.0000000 0.4931294 0.8699560
vn -0.1950903 -0.0000000 0.9807853
vn -0.1697200 -0.4931294 0.8532400
vn -0.0998736 -0.8590242 0.5020983
vn -0.0031551 -0.9998692 0.0158616
vn 0.0951414 -0.8730231 -0.4783083
vn 0.1681429 -0.5071255 -0.8453116
vn 0.1950903 0.0000000 -0.9807853
vn 0.1681429 0.5071255 -0.8453116
vn 0.0951414 0.8730231 -0.4783083
vn -0.0031551 0.9998692 0.0158616
vn -0.0998736 0.8590242 0.5020983
vn -0.1697200 0.4931294 0.8532400
vn -0.3826834 0.0000000 0.9238795
vn -0.3329177 -0.4931294 0.8037345
vn -0.1959090 -0.8590242 0.4729662
vn -0.0061889 -0.9998692 0.0149413
vn 0.1866266 -0.8730231 -0.4505566
vn 0.3298242 -0.5071255 -0.7962661
vn 0.3826834 0.0000000 -0.9238795
vn 0.3298242 0.5071255 -0.7962661
vn 0.1866266 0.8730231 -0.4505566
vn -0.0061889 0.9998692 0.0149413
vn -0.1959090 0.8590242 0.4729662
vn -0.3329177 0.4931294 0.8037345
vn -0.5555702 -0.0000000 0.8314696
vn -0.4833216 -0.4931294 0.7233420
vn -0.2844158 -0.8590242 0.4256584
vn -0.0089849 -0.9998692 0.0134468
vn 0.2709399 -0.8730231 -0.4054902
vn 0.4788306 -0.5071255 -0.7166206
vn 0.5555702 -0.0000000 -0.8314696
vn 0.4788306 0.5071255 -0.7166206
vn 0.2709399 0.8730231 -0.4054902
vn -0.0089849 0.9998692 0.0134468
vn -0.2844158 0.8590242 0.4256584
vn -0.4833216 0.4931294 0.7233420
vn -0.7071068 -0.0000000 0.7071068
vn -0.6151518 -0.4931294 0.6151518
vn -0.3619927 -0.8590242 0.3619927
vn -0.0114356 -0.9998692 0.0114356
vn 0.3448411 -0.8730231 -0.3448411
vn 0.6094357 -0.5071255 -0.6094357
vn 0.7071068 0.0000000 -0.7071068
vn 0.6094357 0.5071255 -0.6094357
vn 0.3448411 0.8730231 -0.3448411
vn -0.0114356 0.9998692 0.0114356
vn -0.3619927 0.8590242 0.3619927
vn -0.6151518 0.4931294 0.6151518
vn -0.8314696 0.0000000 0.5555702
vn -0.7233420 -0.4931294 0.4833216
vn -0.4256584 -0.8590242 0.2844158
vn -0.0134468 -0.9998692 0.0089849
vn 0.4054902 -0.8730231 -0.2709399
vn 0.7166206 -0.5071255 -0.4788306
vn 0.8314696 -0.0000000 -0.5555702
vn 0.7166206 0.5071255 -0.4788306
vn 0.4054902 0.8730231 -0.2709399
vn -0.0134468 0.9998692 0.0089849
vn -0.4256584 0.8590242 0.2844158
vn -0.7233420 0.4931294 0.4833216
vn -0.9238795 0.0000000 0.3826834
vn -0.8037345 -0.4931294 0.3329177
vn -0.4729662 -0.8590242 0.1959090
vn -0.0149413 -0.9998692 0.0061889
vn 0.4505566 -0.8730231 -0.1866266
vn 0.7962661 -0.5071255 -0.3298242
vn 0.9238795 0.0000000 -0.3826834
vn 0.7962661 0.5071255 -0.3298242
vn 0.4505566 0.8730231 -0.1866266
vn -0.0149413 0.9998692 0.0061889
vn -0.4729662 0.8590242 0.1959090
vn -0.8037345 0.4931294 0.3329177
vn -0.9807853 0.0000000 0.1950903
vn -0.8532400 -0.4931294 0.1697200
vn -0.5020983 -0.8590242 0.0998736
vn -0.0158616 -0.9998692 0.0031551
vn 0.4783083 -0.8730231 -0.0951414
vn 0.8453116 -0.5071255 -0.1681429
vn 0.9807853 0.0000000 -0.1950903
vn 0.8453116 0.5071255 -0.1681429
vn 0.4783083 0.8730231 -0.0951414
vn -0.0158616 0.9998692 0.0031551
vn -0.5020983 0.8590242 0.0998736
vn -0.8532400 0.4931294 0.1697200
vn -1.0000000 0.0000000 -0.0000000
vn -0.8699560 -0.4931294 0.0000000
vn -0.5119350 -0.8590242 -0.0000000
vn -0.0161723 -0.9998692 0.0000000
vn 0.4876789 -0.8730231 0.0000000
vn 0.8618723 -0.5071255 -0.0000000
vn 1.0000000 0.0000000 -0.0000000
vn 0.8618723 0.5071255 0.0000000
vn 0.4876789 0.8730231 -0.0000000
vn -0.0161723 0.9998692 -0.0000000
vn -0.5119350 0.8590242 0.0000000
vn -0.8699560 0.4931294 0.0000000
vn -0.9807853 -0.0000000 -0.1950903
vn -0.8532400 -0.4931294 -0.1697200
vn -0.5020983 -0.8590242 -0.0998736
vn -0.0158616 -0.9998692 -0.0031551
vn 0.4783083 -0.8730231 0.0951414
vn 0.8453116 -0.5071255 0.1681429
vn 0.9807853 -0.0000000 0.1950903
vn 0.8453116 0.5071255 0.1681429
vn 0.4783083 0.8730231 0.0951414
vn -0.0158616 0.9998692 -0.0031551
vn -0.5020983 0.8590242 -0.0998736
vn -0.8532400 0.4931294 -0.1697200
vn -0.9238795 0.0000000 -0.3826834
vn -0.8037345 -0.4931294 -0.3329177
vn -0.4729662 -0.8590242 -0.1959090
vn -0.0149413 -0.9998692 -0.0061889
vn 0.4505566 -0.8730231 0.1866266
vn 0.7962661 -0.5071255 0.3298242
vn 0.9238795 -0.0000000 0.3826834
vn 0.7962661 0.5071255 0.3298242
vn 0.4505566 0.8730231 0.1866266
vn -0.0149413 0.9998692 -0.0061889
vn -0.4729662 0.8590242 -0.1959090
vn -0.8037345 0.4931294 -0.3329177
vn -0.8314696 -0.0000000 -0.5555702
vn -0.7233420 -0.4931294 -0.4833216
vn -0.4256584 -0.8590242 -0.2844158
vn -0.0134468 -0.9998692 -0.0089849
vn 0.4054902 -0.8730231 0.2709399
vn 0.7166206 -0.5071255 0.4788306
vn 0.8314696 0.0000000 0.5555702
vn 0.7166206 0.5071255 0.4788306
vn 0.4054902 0.8730231 0.2709399
vn -0.0134468 0.9998692 -0.0089849
vn -0.4256584 0.8590242 -0.2844158
vn -0.7233420 0.4931294 -0.4833216
vn -0.7071068 -0.0000000 -0.7071068
vn -0.6151518 -0.4931294 -0.6151518
vn -0.3619927 -0.8590242 -0.3619927
vn -0.0114356 -0.9998692 -0.0114356
vn 0.3448411 -0.8730231 0.3448411
vn 0.6094357 -0.5071255 0.6094357
vn 0.7071068 0.0000000 0.7071068
vn 0.6094357 0.5071255 0.6094357
vn 0.3448411 0.8730231 0.3448411
vn -0.0114356 0.9998692 -0.0114356
vn -0.3619927 0.8590242 -0.3619927
vn -0.6151518 0.4931294 -0.6151518
vn -0.5555702 0.0000000 -0.8314696
vn -0.4833216 -0.4931294 -0.7233420
vn -0.2844158 -0.8590242 -0.4256584
vn -0.0089849 -0.9998692 -0.0134468
vn 0.2709399 -0.8730231 0.4054902
vn 0.4788306 -0.5071255 0.7166206
vn 0.5555702 -0.0000000 0.8314696
vn 0.4788306 0.5071255 0.7166206
vn 0.2709399 0.8730231 0.4054902
vn -0.0089849 0.9998692 -0.0134468
vn -0.2844158 0.8590242 -0.4256584
vn -0.4833216 0.4931294 -0.7233420
vn -0.3826834 0.0000000 -0.9238795
vn -0.3329177 -0.4931294 -0.8037345
vn -0.1959090 -0.8590242 -0.4729662
vn -0.0061889 -0.9998692 -0.0149413
vn 0.1866266 -0.8730231 0.4505566
vn 0.3298242 -0.5071255 0.7962661
vn 0.3826834 -0.0000000 0.9238795
vn 0.3298242 0.5071255 0.7962661
vn 0.1866266 0.8730231 0.4505566
vn -0.0061889 0.9998692 -0.0149413
vn -0.1959090 0.8590242 -0.4729662
vn -0.3329177 0.4931294 -0.8037345
vn -0.1950903 -0.0000000 -0.9807853
vn -0.1697200 -0.4931294 -0.8532400
vn -0.0998736 -0.8590242 -0.5020983
vn -0.0031551 -0.9998692 -0.0158616
vn 0.0951414 -0.8730231 0.4783083
vn 0.1681429 -0.5071255 0.8453116
vn 0.1950903 0.0000000 0.9807853
vn 0.1681429 0.5071255 0.8453116
vn 0.0951414 0.8730231 0.4783083
vn -0.0031551 0.9998692 -0.0158616
vn -0.0998736 0.8590242 -0.5020983
vn -0.1697200 0.4931294 -0.8532400
vn -0.0000000 -0.0000000 -1.0000000
vn -0.0000000 -0.4931294 -0.8699560
vn -0.0000000 -0.8590242 -0.5119350
vn -0.0000000 -0.9998692 -0.0161723
vn 0.0000000 -0.8730231 0.4876789
vn 0.0000000 -0.5071255 0.8618723
vn 0.0000000 0.0000000 1.0000000
vn 0.0000000 0.5071255 0.8618723
vn 0.0000000 0.8730231 0.4876789
vn -0.0000000 0.9998692 -0.0161723
vn -0.0000000 0.8590242 -0.5119350
vn -0.0000000 0.4931294 -0.8699560
vn 0.1950903 -0.0000000 -0.9807853
vn 0.1697200 -0.4931294 -0.8532400
vn 0.0998736 -0.8590242 -0.5020983
vn 0.0031551 -0.9998692 -0.0158616
vn -0.0951414 -0.8730231 0.4783083
vn -0.1681429 -0.5071255 0.8453116
vn -0.1950903 0.0000000 0.9807853
vn -0.1681429 0.5071255 0.8453116
vn -0.0951414 0.8730231 0.4783083
vn 0.0031551 0.9998692 -0.0158616
vn 0.0998736 0.8590242 -0.5020983
vn 0.1697200 0.4931294 -0.8532400
vn 0.3826834 0.0000000 -0.9238795
vn 0.3329177 -0.4931294 -0.8037345
vn 0.1959090 -0.8590242 -0.4729662
vn 0.0061889 -0.9998692 -0.0149413
vn -0.1866266 -0.8730231 0.4505566
vn -0.3298242 -0.5071255 0.7962661
vn -0.3826834 0.0000000 0.9238795
vn -0.3298242 0.5071255 0.7962661
vn -0.1866266 0.8730231 0.4505566
vn 0.0061889 0.9998692 -0.0149413
vn 0.1959090 0.8590242 -0.4729662
vn 0.3329177 0.4931294 -0.8037345
vn 0.5555702 0.0000000 -0.8314696
vn 0.4833216 -0.4931294 -0.7233420
vn 0.2844158 -0.8590242 -0.4256584
vn 0.0089849 -0.9998692 -0.0134468
vn -0.2709399 -0.8730231 0.4054902
vn -0.4788306 -0.5071255 0.7166206
vn -0.5555702 0.0000000 0.8314696
vn -0.4788306 0.5071255 0.7166206
vn -0.2709399 0.8730231 0.4054902
vn 0.0089849 0.9998692 -0.0134468
vn 0.2844158 0.8590242 -0.4256584
vn 0.4833216 0.4931294 -0.7233420
vn 0.7071068 0.0000000 -0.7071068
vn 0.6151518 -0.4931294 -0.6151518
vn 0.3619927 -0.8590242 -0.3619927
vn 0.0114356 -0.9998692 -0.0114356
vn -0.3448411 -0.8730231 0.3448411
vn -0.6094357 -0.5071255 0.6094357
vn -0.7071068 -0.0000000 0.7071068
vn -0.6094357 0.5071255 0.6094357
vn -0.3448411 0.8730231 0.3448411
vn 0.0114356 0.9998692 -0.0114356
vn 0.3619927 0.8590242 -0.3619927
vn 0.6151518 0.4931294 -0.6151518
vn 0.8314696 -0.0000000 -0.5555702
vn 0.7233420 -0.4931294 -0.4833216
vn 0.4256584 -0.8590242 -0.2844158
vn 0.0134468 -0.9998692 -0.0089849
vn -0.4054902 -0.8730231 0.2709399
vn -0.7166206 -0.5071255 0.4788306
vn -0.8314696 -0.0000000 0.5555702
vn -0.7166206 0.5071255 0.4788306
vn -0.4054902 0.8730231 0.2709399
vn 0.0134468 0.9998692 -0.0089849
vn 0.4256584 0.8590242 -0.2844158
vn 0.7233420 0.4931294 -0.4833216
vn 0.9238795 0.0000000 -0.3826834
vn 0.8037345 -0.4931294 -0.3329177
vn 0.4729662 -0.8590242 -0.1959090
vn 0.0149413 -0.9998692 -0.0061889
vn -0.4505566 -0.8730231 0.1866266
vn -0.7962661 -0.5071255 0.3298242
vn -0.9238795 -0.0000000 0.3826834
vn -0.7962661 0.5071255 0.3298242
vn -0.4505566 0.8730231 0.1866266
vn 0.0149413 0.9998692 -0.0061889
vn 0.4729662 0.8590242 -0.1959090
vn 0.8037345 0.4931294 -0.3329177
vn 0.9807853 0.0000000 -0.1950903
vn 0.8532400 -0.4931294 -0.1697200
vn 0.5020983 -0.8590242 -0.0998736
vn 0.0158616 -0.9998692 -0.0031551
vn -0.4783083 -0.8730231 0.0951414
vn -0.8453116 -0.5071255 0.1681429
vn -0.9807853 0.0000000 0.1950903
vn -0.8453116 0.5071255 0.1681429
vn -0.4783083 0.8730231 0.0951414
vn 0.0158616 0.9998692 -0.0031551
vn 0.5020983 0.8590242 -0.0998736
vn 0.8532400 0.4931294 -0.1697200
f 1//1 13//13 2//2
f 2//2 13//13 14//14
f 2//2 14//14 3//3
f 3//3 14//14 15//15
f 3//3 15//15 4//4
f 4//4 15//15 16//16
f 4//4 16//16 5//5
f 5//5 16//16 17//17
f 5//5 17//17 6//6
f 6//6 17//17 18//18
f 6//6 18//18 7//7
f 7//7 18//18 19//19
f 7//7 19//19 8//8
f 8//8 19//19 20//20
f 8//8 20//20 9//9
f 9//9 20//20 21//21
f 9//9 21//21 10//10
f 10//10 21//21 22//22
f 10//10 22//22 11//11
f 11//11 22//22 23//23
f 11//11 23//23 12//12
f 12//12 23//23 24//24
f 12//12 24//24 1//1
f 1//1 24//24 13//13
f 13//13 25//25 14//14
f 14//14 25//25 26//26
f 14//14 26//26 15//15
f 15//15 26//26 27//27
f 15//15 27//27 16//16
f 16//16 27//27 28//28
f 16//16 28//28 17//17
f 17//17 28//28 29//29
f 17//17 29//29 18//18
f 18//18 29//29 30//30
f 18//18 30//30 19//19
f 19//19 30//30 31//31
f 19//19 31//31 20//20
f 20//20 31//31 32//32
f 20//20 32//32 21//21
f 21//21 32//32 33//33
f 21//21 33//33 22//22
f 22//22 33//33 34//34
f 22//22 34//34 23//23
f 23//23 34//34 35//35
f 23//23 35//35 24//24
f 24//24 35//35 36//36
f 24//24 36//36 13//13
f 13//13 36//36 25//25
f 25//25 37//37 26//26
f 26//26 37//37 38//38
f 26//26 38//38 27//27
f 27//27 38//38 39//39
f 27//27 39//39 28//28
f 28//28 39//39 40//40
f 28//28 40//40 29//29
f 29//29 40//40 41//41
f 29//29 41//41 30//30
f 30//30 41//41 42//42
f 30//30 42//42 31//31
f 31//31 42//42 43//43
f 31//31 43//43 32//32
f 32//32 43//43 44//44
f 32//32 44//44 33//33
f 33//33 44//44 45//45
f 33//33 45//45 34//34
f 34//34 45//45 46//46
f 34//34 46//46 35//35
f 35//35 46//46 47//47
f 35//35 47//47 36//36
f 36//36 47//47 48//48
f 36//36 48//48 25//25
f 25//25 48//48 37//37
f 37//37 49//49 38//38
f 38//38 49//49 50//50
f 38//38 50//50 39//39
f 39//39 50//50 51//51
f 39//39 51//51 40//40
f 40//40 51//51 52//52
f 40//40 52//52 41//41
f 41//41 52//52 53//53
f 41//41 53//53 42//42
f 42//42 53//53 54//54
f 42//42 54//54 43//43
f 43//43 54//54 55//55
f 43//43 55//55 44//44
f 44//44 55//55 56//56
f 44//44 56//56 45//45
f 45//45 56//56 57//57
f 45//45 57//57 46//46
f 46//46 57//57 58//58
f 46//46 58//58 47//47
f 47//47 58//58 59//59
f 47//47 59//59 48//48
f 48//48 59//59 60//60
f 48//48 60//60 37//37
f 37//37 60//60 49//49
f 49//49 61//61 50//50
f 50//50 61//61 62//62
f 50//50 62//62 51//51
f 51//51 62//62 63//63
f 51//51 63//63 52//52
f 52//52 63//63 64//64
f 52//52 64//64 53//53
f 53//53 64//64 65//65
f 53//53 65//65 54//54
f 54//54 65//65 66//66
f 54//54 66//66 55//55
f 55//55 66//66 67//67
f 55//55 67//67 56//56
f 56//56 67//67 68//68
f 56//56 68//68 57//57
f 57//57 68//68 69//69
f 57//57 69//69 58//58
f 58//58 69//69 70//70
f 58//58 70//70 59//59
f 59//59 70//70 71//71
f 59//59 71//71 60//60
f 60//60 71//71 72//72
f 60//60 72//72 49//49
f 49//49 72//72 61//61
f 61//61 73//73 62//62
f 62//62 73//73 74//74
f 62//62 74//74 63//63
f 63//63 74//74 75//75
f 63//63 75//75 64//64
f 64//64 75//75 76//76
f 64//64 76//76 65//65
f 65//65 76//76 77//77
f 65//65 77//77 66//66
f 66//66 77//77 78//78
f 66//66 78//78 67//67
f 67//67 78//78 79//79
f 67//67 79//79 68//68
f 68//68 79//79 80//80
f 68//68 80//80 69//69
f 69//69 80//80 81//81
f 69//69 81//81 70//70
f 70//70 81//81 82//82
f 70//70 82//82 71//71
f 71//71 82//82 83//83
f 71//71 83//83 72//72
f 72//72 83//83 84//84
f 72//72 84//84 61//61
f 61//61 84//84 73//73
f 73//73 85//85 74//74
f 74//74 85//85 86//86
f 74//74 86//86 75//75
f 75//75 86//86 87//87
f 75//75 87//87 76//76
f 76//76 87//87 88//88
f 76//76 88//88 77//77
f 77//77 88//88 89//89
f 77//77 89//89 78//78
f 78//78 89//89 90//90
f 78//78 90//90 79//79
f 79//79 90//90 91//91
f 79//79 91//91 80//80
f 80//80 91//91 92//92
f 80//80 92//92 81//81
f 81//81 92//92 93//93
f 81//81 93//93 82//82
f 82//82 93//93 94//94
f 82//82 94//94 83//83
f 83//83 94//94 95//95
f 83//83 95//95 84//84
f 84//84 95//95 96//96
f 84//84 96//96 73//73
f 73//73 96//96 85//85
f 85//85 97//97 86//86
f 86//86 97//97 98//98
f 86//86 98//98 87//87
f 87//87 98//98 99//99
f 87//87 99//99 88//88
f 88//88 99//99 100//100
f 88//88 100//100 89//89
f 89//89 100//100 101//101
f 89//89 101//101 90//90
f 90//90 101//101 102//102
f 90//90 102//102 91//91
f 91//91 102//102 103//103
f 91//91 103//103 92//92
f 92//92 103//103 104//104
f 92//92 104//104 93//93
f 93//93 104//104 105//105
f 93//93 105//105 94//94
f 94//94 105//105 106//106
f 94//94 106//106 95//95
f 95//95 106//106 107//107
f 95//95 107//107 96//96
f 96//96 107//107 108//108
f 96//96 108//108 85//85
f 85//85 108//108 97//97
f 97//97 109//109 98//98
f 98//98 109//109 110//110
f 98//98 110//110 99//99
f 99//99 110//110 111//111
f 99//99 111//111 100//100
f 100//100 111//111 112//112
f 100//100 112//112 101//101
f 101//101 112//112 113//113
f 101//101 113//113 102//102
f 102//102 113//113 114//114
f 102//102 114//114 103//103
f 103//103 114//114 115//115
f 103//103 115//115 104//104
f 104//104 115//115 116//116
f 104//104 116//116 105//105
f 105//105 116//116 117//117
f 105//105 117//117 106//106
f 106//106 117//117 118//118
f 106//106 118//118 107//107
f 107//107 118//118 119//119
f 107//107 119//119 108//108
f 108//108 119//119 120//120
f 108//108 120//120 97//97
f 97//97 120//120 109//109
f 109//109 121//121 110//110
f 110//110 121//121 122//122
f 110//110 122//122 111//111
f 111//111 122//122 123//123
f 111//111 123//123 112//112
f 112//112 123//123 124//124
f 112//112 124//124 113//113
f 113//113 124//124 125//125
f 113//113 125//125 114//114
f 114//114 125//125 126//126
f 114//114 126//126 115//115
f 115//115 126//126 127//127
f 115//115 127//127 116//116
f 116//116 127//127 128//128
f 116//116 128//128 117//117
f 117//117 128//128 129//129
f 117//117 129//129 118//118
f 118//118 129//129 130//130
f 118//118 130//130 119//119
f 119//119 130//130 131//131
f 119//119 131//131 120//120
f 120//120 131//131 132//132
f 120//120 132//132 109//109
f 109//109 132//132 121//121
f 121//121 133//133 122//122
f 122//122 133//133 134//134
f 122//122 134//134 123//123
f 123//123 134//134 135//135
f 123//123 135//135 124//124
f 124//124 135//135 136//136
f 124//124 136//136 125//125
f 125//125 136//136 137//137
f 125//125 137//137 126//126
f 126//126 137//137 138//138
f 126//126 138//138 127//127
f 127//127 138//138 139//139
f 127//127 139//139 128//128
f 128//128 139//139 140//140
f 128//128 140//140 129//129
f 129//129 140//140 141//141
f 129//129 141//141 130//130
f 130//130 141//141 142//142
f 130//130 142//142 131//131
f 131//131 142//142 143//143
f 131//131 143//143 132//132
f 132//132 143//143 144//144
f 132//132 144//144 121//121
f 121//121 144//144 133//133
f 133//133 145//145 134//134
f 134//134 145//145 146//146
f 134//134 146//146 135//135
f 135//135 146//146 147//147
f 135//135 147//147 136//136
f 136//136 147//147 148//148
f 136//136 148//148 137//137
f 137//137 148//148 149//149
f 137//137 149//149 138//138
f 138//138 149//149 150//150
f 138//138 150//150 139//139
f 139//139 150//150 151//151
f 139//139 151//151 140//140
f 140//140 151//151 152//152
f 140//140 152//152 141//141
f 141//141 152//152 153//153
f 141//141 153//153 142//142
f 142//142 153//153 154//154
f 142//142 154//154 143//143
f 143//143 154//154 155//155
f 143//143 155//155 144//144
f 144//144 155//155 156//156
f 144//144 156//156 133//133
f 133//133 156//156 145//145
f 145//145 157//157 146//146
f 146//146 157//157 158//158
f 146//146 158//158 147//147
f 147//147 158//158 159//159
f 147//147 159//159 148//148
f 148//148 159//159 160//160
f 148//148 160//160 149//149
f 149//149 160//160 161//161
f 149//149 161//161 150//150
f 150//150 161//161 162//162
f 150//150 162//162 151//151
f 151//151 162//162 163//163
f 151//151 163//163 152//152
f 152//152 163//163 164//164
f 152//152 164//164 153//153
f 153//153 164//164 165//165
f 153//153 165//165 154//154
f 154//154 165//165 166//166
f 154//154 166//166 155//155
f 155//155 166//166 167//167
f 155//155 167//167 156//156
f 156//156 167//167 168//168
f 156//156 168//168 145//145
f 145//145 168//168 157//157
f 157//157 169//169 158//158
f 158//158 169//169 170//170
f 158//158 170//170 159//159
f 159//159 170//170 171//171
f 159//159 171//171 160//160
f 160//160 171//171 172//172
f 160//160 172//172 161//161
f 161//161 172//172 173//173
f 161//161 173//173 162//162
f 162//162 173//173 174//174
f 162//162 174//174 163//163
f 163//163 174//174 175//175
f 163//163 175//175 164//164
f 164//164 175//175 176//176
f 164//164 176//176 165//165
f 165//165 176//176 177//177
f 165//165 177//177 166//166
f 166//166 177//177 178//178
f 166//166 178//178 167//167
f 167//167 178//178 179//179
f 167//167 179//179 168//168
f 168//168 179//179 180//180
f 168//168 180//180 157//157
f 157//157 180//180 169//169
f 169//169 181//181 170//170
f 170//170 181//181 182//182
f 170//170 182//182 171//171
f 171//171 182//182 183//183
f 171//171 183//183 172//172
f 172//172 183//183 184//184
f 172//172 184//184 173//173
f 173//173 184//184 185//185
f 173//173 185//185 174//174
f 174//174 185//185 186//186
f 174//174 186//186 175//175
f 175//175 186//186 187//187
f 175//175 187//187 176//176
f 176//176 187//187 188//188
f 176//176 188//188 177//177
f 177//177 188//188 189//189
f 177//177 189//189 178//178
f 178//178 189//189 190//190
f 178//178 190//190 179//179
f 179//179 190//190 191//191
f 179//179 191//191 180//180
f 180//180 191//191 192//192
f 180//180 192//192 169//169
f 169//169 192//192 181//181
f 181//181 193//193 182//182
f 182//182 193//193 194//194
f 182//182 194//194 183//183
f 183//183 194//194 195//195
f 183//183 195//195 184//184
f 184//184 195//195 196//196
f 184//184 196//196 185//185
f 185//185 196//196 197//197
f 185//185 197//197 186//186
f 186//186 197//197 198//198
f 186//186 198//198 187//187
f 187//187 198//198 199//199
f 187//187 199//199 188//188
f 188//188 199//199 200//200
f 188//188 200//200 189//189
f 189//189 200//200 201//201
f 189//189 201//201 190//190
f 190//190 201//201 202//202
f 190//190 202//202 191//191
f 191//191 202//202 203//203
f 191//191 203//203 192//192
f 192//192 203//203 204//204
f 192//192 204//204 181//181
f 181//181 204//204 193//193
f 193//193 205//205 194//194
f 194//194 205//205 206//206
f 194//194 206//206 195//195
f 195//195 206//206 207//207
f 195//195 207//207 196//196
f 196//196 207//207 208//208
f 196//196 208//208 197//197
f 197//197 208//208 209//209
f 197//197 209//209 198//198
f 198//198 209//209 210//210
f 198//198 210//210 199//199
f 199//199 210//210 211//211
f 199//199 211//211 200//200
f 200//200 211//211 212//212
f 200//200 212//212 201//201
f 201//201 212//212 213//213
f 201//201 213//213 202//202
f 202//202 213//213 214//214
f 202//202 214//214 203//203
f 203//203 214//214 215//215
f 203//203 215//215 204//204
f 204//204 215//215 216//216
f 204//204 216//216 193//193
f 193//193 216//216 205//205
f 205//205 217//217 206//206
f 206//206 217//217 218//218
f 206//206 218//218 207//207
f 207//207 218//218 219//219
f 207//207 219//219 208//208
f 208//208 219//219 220//220
f 208//208 220//220 209//209
f 209//209 220//220 221//221
f 209//209 221//221 210//210
f 210//210 221//221 222//222
f 210//210 222//222 211//211
f 211//211 222//222 223//223
f 211//211 223//223 212//212
f 212//212 223//223 224//224
f 212//212 224//224 213//213
f 213//213 224//224 225//225
f 213//213 225//225 214//214
f 214//214 225//225 226//226
f 214//214 226//226 215//215
f 215//215 226//226 227//227
f 215//215 227//227 216//216
f 216//216 227//227 228//228
f 216//216 228//228 205//205
f 205//205 228//228 217//217
f 217//217 229//229 218//218
f 218//218 229//229 230//230
f 218//218 230//230 219//219
f 219//219 230//230 231//231
f 219//219 231//231 220//220
f 220//220 231//231 232//232
f 220//220 232//232 221//221
f 221//221 232//232 233//233
f 221//221 233//233 222//222
f 222//222 233//233 234//234
f 222//222 234//234 223//223
f 223//223 234//234 235//235
f 223//223 235//235 224//224
f 224//224 235//235 236//236
f 224//224 236//236 225//225
f 225//225 236//236 237//237
f 225//225 237//237 226//226
f 226//226 237//237 238//238
f 226//226 238//238 227//227
f 227//227 238//238 239//239
f 227//227 239//239 228//228
f 228//228 239//239 240//240
f 228//228 240//240 217//217
f 217//217 240//240 229//229
f 229//229 241//241 230//230
f 230//230 241//241 242//242
f 230//230 242//242 231//231
f 231//231 242//242 243//243
f 231//231 243//243 232//232
f 232//232 243//243 244//244
f 232//232 244//244 233//233
f 233//233 244//244 245//245
f 233//233 245//245 234//234
f 234//234 245//245 246//246
f 234//234 246//246 235//235
f 235//235 246//246 247//247
f 235//235 247//247 236//236
f 236//236 247//247 248//248
f 236//236 248//248 237//237
f 237//237 248//248 249//249
f 237//237 249//249 238//238
f 238//238 249//249 250//250
f 238//238 250//250 239//239
f 239//239 250//250 251//251
f 239//239 251//251 240//240
f 240//240 251//251 252//252
f 240//240 252//252 229//229
f 229//229 252//252 241//241
f 241//241 253//253 242//242
f 242//242 253//253 254//254
f 242//242 254//254 243//243
f 243//243 254//254 255//255
f 243//243 255//255 244//244
f 244//244 255//255 256//256
f 244//244 256//256 245//245
f 245//245 256//256 257//257
f 245//245 257//257 246//246
f 246//246 257//257 258//258
f 246//246 258//258 247//247
f 247//247 258//258 259//259
f 247//247 259//259 248//248
f 248//248 259//259 260//260
f 248//248 260//260 249//249
f 249//249 260//260 261//261
f 249//249 261//261 250//250
f 250//250 261//261 262//262
f 250//250 262//262 251//251
f 251//251 262//262 263//263
f 251//251 263//263 252//252
f 252//252 263//263 264//264
f 252//252 264//264 241//241
f 241//241 264//264 253//253
f 253//253 265//265 254//254
f 254//254 265//265 266//266
f 254//254 266//266 255//255
f 255//255 266//266 267//267
f 255//255 267//267 256//256
f 256//256 267//267 268//268
f 256//256 268//268 257//257
f 257//257 268//268 269//269
f 257//257 269//269 258//258
f 258//258 269//269 270//270
f 258//258 270//270 259//259
f 259//259 270//270 271//271
f 259//259 271//271 260//260
f 260//260 271//271 272//272
f 260//260 272//272 261//261
f 261//261 272//272 273//273
f 261//261 273//273 262//262
f 262//262 273//273 274//274
f 262//262 274//274 263//263
f 263//263 274//274 275//275
f 263//263 275//275 264//264
f 264//264 275//275 276//276
f 264//264 276//276 253//253
f 253//253 276//276 265//265
f 265//265 277//277 266//266
f 266//266 277//277 278//278
f 266//266 278//278 267//267
f 267//267 278//278 279//279
f 267//267 279//279 268//268
f 268//268 279//279 280//280
f 268//268 280//280 269//269
f 269//269 280//280 281//281
f 269//269 281//281 270//270
f 270//270 281//281 282//282
f 270//270 282//282 271//271
f 271//271 282//282 283//283
f 271//271 283//283 272//272
f 272//272 283//283 284//284
f 272//272 284//284 273//273
f 273//273 284//284 285//285
f 273//273 285//285 274//274
f 274//274 285//285 286//286
f 274//274 286//286 275//275
f 275//275 286//286 287//287
f 275//275 287//287 276//276
f 276//276 287//287 288//288
f 276//276 288//288 265//265
f 265//265 288//288 277//277
f 277//277 289//289 278//278
f 278//278 289//289 290//290
f 278//278 290//290 279//279
f 279//279 290//290 291//291
f 279//279 291//291 280//280
f 280//280 291//291 292//292
f 280//280 292//292 281//281
f 281//281 292//292 293//293
f 281//281 293//293 282//282
f 282//282 293//293 294//294
f 282//282 294//294 283//283
f 283//283 294//294 295//295
f 283//283 295//295 284//284
f 284//284 295//295 296//296
f 284//284 296//296 285//285
f 285//285 296//296 297//297
f 285//285 297//297 286//286
f 286//286 297//297 298//298
f 286//286 298//298 287//287
f 287//287 298//298 299//299
f 287//287 299//299 288//288
f 288//288 299//299 300//300
f 288//288 300//300 277//277
f 277//277 300//300 289//289
f 289//289 301//301 290//290
f 290//290 301//301 302//302
f 290//290 302//302 291//291
f 291//291 302//302 303//303
f 291//291 303//303 292//292
f 292//292 303//303 304//304
f 292//292 304//304 293//293
f 293//293 304//304 305//305
f 293//293 305//305 294//294
f 294//294 305//305 306//306
f 294//294 306//306 295//295
f 295//295 306//306 307//307
f 295//295 307//307 296//296
f 296//296 307//307 308//308
f 296//296 308//308 297//297
f 297//297 308//308 309//309
f 297//297 309//309 298//298
f 298//298 309//309 310//310
f 298//298 310//310 299//299
f 299//299 310//310 311//311
f 299//299 311//311 300//300
f 300//300 311//311 312//312
f 300//300 312//312 289//289
f 289//289 312//312 301//301
f 301//301 313//313 302//302
f 302//302 313//313 314//314
f 302//302 314//314 303//303
f 303//303 314//314 315//315
f 303//303 315//315 304//304
f 304//304 315//315 316//316
f 304//304 316//316 305//305
f 305//305 316//316 317//317
f 305//305 317//317 306//306
f 306//306 317//317 318//318
f 306//306 318//318 307//307
f 307//307 318//318 319//319
f 307//307 319//319 308//308
f 308//308 319//319 320//320
f 308//308 320//320 309//309
f 309//309 320//320 321//321
f 309//309 321//321 310//310
f 310//310 321//321 322//322
f 310//310 322//322 311//311
f 311//311 322//322 323//323
f 311//311 323//323 312//312
f 312//312 323//323 324//324
f 312//312 324//324 301//301
f 301//301 324//324 313//313
f 313//313 325//325 314//314
f 314//314 325//325 326//326
f 314//314 326//326 315//315
f 315//315 326//326 327//327
f 315//315 327//327 316//316
f 316//316 327//327 328//328
f 316//316 328//328 317//317
f 317//317 328//328 329//329
f 317//317 329//329 318//318
f 318//318 329//329 330//330
f 318//318 330//330 319//319
f 319//319 330//330 331//331
f 319//319 331//331 320//320
f 320//320 331//331 332//332
f 320//320 332//332 321//321
f 321//321 332//332 333//333
f 321//321 333//333 322//322
f 322//322 333//333 334//334
f 322//322 334//334 323//323
f 323//323 334//334 335//335
f 323//323 335//335 324//324
f 324//324 335//335 336//336
f 324//324 336//336 313//313
f 313//313 336//336 325//325
f 325//325 337//337 326//326
f 326//326 337//337 338//338
f 326//326 338//338 327//327
f 327//327 338//338 339//339
f 327//327 339//339 328//328
f 328//328 339//339 340//340
f 328//328 340//340 329//329
f 329//329 340//340 341//341
f 329//329 341//341 330//330
f 330//330 341//341 342//342
f 330//330 342//342 331//331
f 331//331 342//342 343//343
f 331//331 343//343 332//332
f 332//332 343//343 344//344
f 332//332 344//344 333//333
f 333//333 344//344 345//345
f 333//333 345//345 334//334
f 334//334 345//345 346//346
f 334//334 346//346 335//335
f 335//335 346//346 347//347
f 335//335 347//347 336//336
f 336//336 347//347 348//348
f 336//336 348//348 325//325
f 325//325 348//348 337//337
f 337//337 349//349 338//338
f 338//338 349//349 350//350
f 338//338 350//350 339//339
f 339//339 350//350 351//351
f 339//339 351//351 340//340
f 340//340 351//351 352//352
f 340//340 352//352 341//341
f 341//341 352//352 353//353
f 341//341 353//353 342//342
f 342//342 353//353 354//354
f 342//342 354//354 343//343
f 343//343 354//354 355//355
f 343//343 355//355 344//344
f 344//344 355//355 356//356
f 344//344 356//356 345//345
f 345//345 356//356 357//357
f 345//345 357//357 346//346
f 346//346 357//357 358//358
f 346//346 358//358 347//347
f 347//347 358//358 359//359
f 347//347 359//359 348//348
f 348//348 359//359 360//360
f 348//348 360//360 337//337
f 337//337 360//360 349//349
f 349//349 361//361 350//350
f 350//350 361//361 362//362
f 350//350 362//362 351//351
f 351//351 362//362 363//363
f 351//351 363//363 352//352
f 352//352 363//363 364//364
f 352//352 364//364 353//353
f 353//353 364//364 365//365
f 353//353 365//365 354//354
f 354//354 365//365 366//366
f 354//354 366//366 355//355
f 355//355 366//366 367//367
f 355//355 367//367 356//356
f 356//356 367//367 368//368
f 356//356 368//368 357//357
f 357//357 368//368 369//369
f 357//357 369//369 358//358
f 358//358 369//369 370//370
f 358//358 370//370 359//359
f 359//359 370//370 371//371
f 359//359 371//371 360//360
f 360//360 371//371 372//372
f 360//360 372//372 349//349
f 349//349 372//372 361//361
f 361//361 373//373 362//362
f 362//362 373//373 374//374
f 362//362 374//374 363//363
f 363//363 374//374 375//375
f 363//363 375//375 364//364
f 364//364 375//375 376//376
f 364//364 376//376 365//365
f 365//365 376//376 377//377
f 365//365 377//377 366//366
f 366//366 377//377 378//378
f 366//366 378//378 367//367
f 367//367 378//378 379//379
f 367//367 379//379 368//368
f 368//368 379//379 380//380
f 368//368 380//380 369//369
f 369//369 380//380 381//381
f 369//369 381//381 370//370
f 370//370 381//381 382//382
f 370//370 382//382 371//371
f 371//371 382//382 383//383
f 371//371 383//383 372//372
f 372//372 383//383 384//384
f 372//372 384//384 361//361
f 361//361 384//384 373//373
f 373//373 1//1 374//374
f 374//374 1//1 2//2
f 374//374 2//2 375//375
f 375//375 2//2 3//3
f 375//375 3//3 376//376
f 376//376 3//3 4//4
f 376//376 4//4 377//377
f 377//377 4//4 5//5
f 377//377 5//5 378//378
f 378//378 5//5 6//6
f 378//378 6//6 379//379
f 379//379 6//6 7//7
f 379//379 7//7 380//380
f 380//380 7//7 8//8
f 380//380 8//8 381//381
f 381//381 8//8 9//9
f 381//381 9//9 382//382
f 382//382 9//9 10//10
f 382//382 10//10 383//383
f 383//383 10//10 11//11
f 383//383 11//11 384//384
f 384//384 11//11 12//12
f 384//384 12//12 373//373
f 373//373 12//12 1//1

