# https://github.com/mikedh/trimesh
v -0.1294632 1.6512663 0.0100000
v -0.1105368 1.6512663 0.0100000
v -0.1294632 1.6087337 0.0100000
v -0.1105368 1.6087337 0.0100000
v -0.1200000 1.6168567 0.0253117
v -0.1200000 1.6431433 0.0253117
v -0.1200000 1.6168567 -0.0053117
v -0.1200000 1.6431433 -0.0053117
v -0.1046883 1.6300000 0.0005368
v -0.1046883 1.6300000 0.0194632
v -0.1353117 1.6300000 0.0005368
v -0.1353117 1.6300000 0.0194632
v -0.1200000 1.6550000 0.0100000
v -0.1200000 1.6050000 0.0100000
v -0.1255623 1.6097746 0.0190000
v -0.1144377 1.6097746 0.0190000
v -0.1255623 1.6502254 0.0190000
v -0.1144377 1.6502254 0.0190000
v -0.1200000 1.6300000 0.0280000
v -0.1255623 1.6097746 0.0010000
v -0.1144377 1.6097746 0.0010000
v -0.1255623 1.6502254 0.0010000
v -0.1144377 1.6502254 0.0010000
v -0.1200000 1.6300000 -0.0080000
v -0.1054377 1.6425000 0.0044377
v -0.1054377 1.6175000 0.0044377
v -0.1110000 1.6222746 -0.0045623
v -0.1110000 1.6377254 -0.0045623
v -0.1054377 1.6425000 0.0155623
v -0.1054377 1.6175000 0.0155623
v -0.1110000 1.6222746 0.0245623
v -0.1110000 1.6377254 0.0245623
v -0.1020000 1.6300000 0.0100000
v -0.1345623 1.6425000 0.0044377
v -0.1345623 1.6175000 0.0044377
v -0.1290000 1.6222746 -0.0045623
v -0.1290000 1.6377254 -0.0045623
v -0.1345623 1.6425000 0.0155623
v -0.1345623 1.6175000 0.0155623
v -0.1290000 1.6222746 0.0245623
v -0.1290000 1.6377254 0.0245623
v -0.1380000 1.6300000 0.0100000
v -0.1249188 1.6540485 0.0100000
v -0.1150812 1.6540485 0.0100000
v -0.1249188 1.6059515 0.0100000
v -0.1150812 1.6059515 0.0100000
v -0.1278100 1.6084333 0.0146781
v -0.1228912 1.6126555 0.0226368
v -0.1229243 1.6062236 0.0147316
v -0.1121900 1.6084333 0.0146781
v -0.1171088 1.6126555 0.0226368
v -0.1170757 1.6062236 0.0147316
v -0.1200000 1.6087337 0.0194632
v -0.1278100 1.6515667 0.0146781
v -0.1228912 1.6473445 0.0226368
v -0.1229243 1.6537764 0.0147316
v -0.1121900 1.6515667 0.0146781
v -0.1171088 1.6473445 0.0226368
v -0.1170757 1.6537764 0.0147316
v -0.1200000 1.6512663 0.0194632
v -0.1200000 1.6231683 0.0273149
v -0.1200000 1.6368317 0.0273149
v -0.1278100 1.6084333 0.0053219
v -0.1228912 1.6126555 -0.0026368
v -0.1229243 1.6062236 0.0052684
v -0.1121900 1.6084333 0.0053219
v -0.1171088 1.6126555 -0.0026368
v -0.1170757 1.6062236 0.0052684
v -0.1200000 1.6087337 0.0005368
v -0.1278100 1.6515667 0.0053219
v -0.1228912 1.6473445 -0.0026368
v -0.1229243 1.6537764 0.0052684
v -0.1121900 1.6515667 0.0053219
v -0.1171088 1.6473445 -0.0026368
v -0.1170757 1.6537764 0.0052684
v -0.1200000 1.6512663 0.0005368
v -0.1200000 1.6231683 -0.0073149
v -0.1200000 1.6368317 -0.0073149
v -0.1075120 1.6475512 0.0071088
v -0.1044720 1.6364973 0.0021900
v -0.1094199 1.6472048 0.0023441
v -0.1075120 1.6124488 0.0071088
v -0.1044720 1.6235027 0.0021900
v -0.1094199 1.6127952 0.0023441
v -0.1153219 1.6191528 -0.0055280
v -0.1073632 1.6259844 -0.0024880
v -0.1123441 1.6153054 -0.0023874
v -0.1152684 1.6259385 -0.0071190
v -0.1076126 1.6193669 -0.0005801
v -0.1153219 1.6408472 -0.0055280
v -0.1073632 1.6340156 -0.0024880
v -0.1123441 1.6446946 -0.0023874
v -0.1152684 1.6340615 -0.0071190
v -0.1076126 1.6406331 -0.0005801
v -0.1105368 1.6300000 -0.0053117
v -0.1075120 1.6475512 0.0128912
v -0.1044720 1.6364973 0.0178100
v -0.1094199 1.6472048 0.0176559
v -0.1046883 1.6431433 0.0100000
v -0.1075120 1.6124488 0.0128912
v -0.1044720 1.6235027 0.0178100
v -0.1094199 1.6127952 0.0176559
v -0.1046883 1.6168567 0.0100000
v -0.1153219 1.6191528 0.0255280
v -0.1073632 1.6259844 0.0224880
v -0.1123441 1.6153054 0.0223874
v -0.1152684 1.6259385 0.0271190
v -0.1076126 1.6193669 0.0205801
v -0.1153219 1.6408472 0.0255280
v -0.1073632 1.6340156 0.0224880
v -0.1123441 1.6446946 0.0223874
v -0.1152684 1.6340615 0.0271190
v -0.1076126 1.6406331 0.0205801
v -0.1105368 1.6300000 0.0253117
v -0.1026851 1.6300000 0.0050812
v -0.1026851 1.6300000 0.0149188
v -0.1028810 1.6365716 0.0070757
v -0.1028810 1.6234284 0.0070757
v -0.1028810 1.6365716 0.0129243
v -0.1028810 1.6234284 0.0129243
v -0.1324880 1.6475512 0.0071088
v -0.1355280 1.6364973 0.0021900
v -0.1305801 1.6472048 0.0023441
v -0.1324880 1.6124488 0.0071088
v -0.1355280 1.6235027 0.0021900
v -0.1305801 1.6127952 0.0023441
v -0.1246781 1.6191528 -0.0055280
v -0.1326368 1.6259844 -0.0024880
v -0.1276559 1.6153054 -0.0023874
v -0.1247316 1.6259385 -0.0071190
v -0.1323874 1.6193669 -0.0005801
v -0.1246781 1.6408472 -0.0055280
v -0.1326368 1.6340156 -0.0024880
v -0.1276559 1.6446946 -0.0023874
v -0.1247316 1.6340615 -0.0071190
v -0.1323874 1.6406331 -0.0005801
v -0.1294632 1.6300000 -0.0053117
v -0.1324880 1.6475512 0.0128912
v -0.1355280 1.6364973 0.0178100
v -0.1305801 1.6472048 0.0176559
v -0.1353117 1.6431433 0.0100000
v -0.1324880 1.6124488 0.0128912
v -0.1355280 1.6235027 0.0178100
v -0.1305801 1.6127952 0.0176559
v -0.1353117 1.6168567 0.0100000
v -0.1246781 1.6191528 0.0255280
v -0.1326368 1.6259844 0.0224880
v -0.1276559 1.6153054 0.0223874
v -0.1247316 1.6259385 0.0271190
v -0.1323874 1.6193669 0.0205801
v -0.1246781 1.6408472 0.0255280
v -0.1326368 1.6340156 0.0224880
v -0.1276559 1.6446946 0.0223874
v -0.1247316 1.6340615 0.0271190
v -0.1323874 1.6406331 0.0205801
v -0.1294632 1.6300000 0.0253117
v -0.1373149 1.6300000 0.0050812
v -0.1373149 1.6300000 0.0149188
v -0.1371190 1.6365716 0.0070757
v -0.1371190 1.6234284 0.0070757
v -0.1371190 1.6365716 0.0129243
v -0.1371190 1.6234284 0.0129243
v -0.0984117 1.6387143 0.0100000
v -0.0815883 1.6387143 0.0100000
v -0.0984117 1.6012857 0.0100000
v -0.0815883 1.6012857 0.0100000
v -0.0900000 1.6084339 0.0236104
v -0.0900000 1.6315661 0.0236104
v -0.0900000 1.6084339 -0.0036104
v -0.0900000 1.6315661 -0.0036104
v -0.0763896 1.6200000 0.0015883
v -0.0763896 1.6200000 0.0184117
v -0.1036104 1.6200000 0.0015883
v -0.1036104 1.6200000 0.0184117
v -0.0900000 1.6420000 0.0100000
v -0.0900000 1.5980000 0.0100000
v -0.0949443 1.6022016 0.0180000
v -0.0850557 1.6022016 0.0180000
v -0.0949443 1.6377984 0.0180000
v -0.0850557 1.6377984 0.0180000
v -0.0900000 1.6200000 0.0260000
v -0.0949443 1.6022016 0.0020000
v -0.0850557 1.6022016 0.0020000
v -0.0949443 1.6377984 0.0020000
v -0.0850557 1.6377984 0.0020000
v -0.0900000 1.6200000 -0.0060000
v -0.0770557 1.6310000 0.0050557
v -0.0770557 1.6090000 0.0050557
v -0.0820000 1.6132016 -0.0029443
v -0.0820000 1.6267984 -0.0029443
v -0.0770557 1.6310000 0.0149443
v -0.0770557 1.6090000 0.0149443
v -0.0820000 1.6132016 0.0229443
v -0.0820000 1.6267984 0.0229443
v -0.0740000 1.6200000 0.0100000
v -0.1029443 1.6310000 0.0050557
v -0.1029443 1.6090000 0.0050557
v -0.0980000 1.6132016 -0.0029443
v -0.0980000 1.6267984 -0.0029443
v -0.1029443 1.6310000 0.0149443
v -0.1029443 1.6090000 0.0149443
v -0.0980000 1.6132016 0.0229443
v -0.0980000 1.6267984 0.0229443
v -0.1060000 1.6200000 0.0100000
v -0.0943723 1.6411626 0.0100000
v -0.0856277 1.6411626 0.0100000
v -0.0943723 1.5988374 0.0100000
v -0.0856277 1.5988374 0.0100000
v -0.0969422 1.6010213 0.0141583
v -0.0925700 1.6047368 0.0212327
v -0.0925994 1.5990768 0.0142058
v -0.0830578 1.6010213 0.0141583
v -0.0874300 1.6047368 0.0212327
v -0.0874006 1.5990768 0.0142058
v -0.0900000 1.6012857 0.0184117
v -0.0969422 1.6389787 0.0141583
v -0.0925700 1.6352632 0.0212327
v -0.0925994 1.6409232 0.0142058
v -0.0830578 1.6389787 0.0141583
v -0.0874300 1.6352632 0.0212327
v -0.0874006 1.6409232 0.0142058
v -0.0900000 1.6387143 0.0184117
v -0.0900000 1.6139881 0.0253910
v -0.0900000 1.6260119 0.0253910
v -0.0969422 1.6010213 0.0058417
v -0.0925700 1.6047368 -0.0012327
v -0.0925994 1.5990768 0.0057942
v -0.0830578 1.6010213 0.0058417
v -0.0874300 1.6047368 -0.0012327
v -0.0874006 1.5990768 0.0057942
v -0.0900000 1.6012857 0.0015883
v -0.0969422 1.6389787 0.0058417
v -0.0925700 1.6352632 -0.0012327
v -0.0925994 1.6409232 0.0057942
v -0.0830578 1.6389787 0.0058417
v -0.0874300 1.6352632 -0.0012327
v -0.0874006 1.6409232 0.0057942
v -0.0900000 1.6387143 0.0015883
v -0.0900000 1.6139881 -0.0053910
v -0.0900000 1.6260119 -0.0053910
v -0.0788995 1.6354450 0.0074300
v -0.0761973 1.6257176 0.0030578
v -0.0805954 1.6351402 0.0031948
v -0.0788995 1.6045550 0.0074300
v -0.0761973 1.6142824 0.0030578
v -0.0805954 1.6048598 0.0031948
v -0.0858417 1.6104545 -0.0038027
v -0.0787673 1.6164663 -0.0011005
v -0.0831948 1.6070687 -0.0010111
v -0.0857942 1.6164259 -0.0052169
v -0.0789889 1.6106428 0.0005954
v -0.0858417 1.6295455 -0.0038027
v -0.0787673 1.6235337 -0.0011005
v -0.0831948 1.6329313 -0.0010111
v -0.0857942 1.6235741 -0.0052169
v -0.0789889 1.6293572 0.0005954
v -0.0815883 1.6200000 -0.0036104
v -0.0788995 1.6354450 0.0125700
v -0.0761973 1.6257176 0.0169422
v -0.0805954 1.6351402 0.0168052
v -0.0763896 1.6315661 0.0100000
v -0.0788995 1.6045550 0.0125700
v -0.0761973 1.6142824 0.0169422
v -0.0805954 1.6048598 0.0168052
v -0.0763896 1.6084339 0.0100000
v -0.0858417 1.6104545 0.0238027
v -0.0787673 1.6164663 0.0211005
v -0.0831948 1.6070687 0.0210111
v -0.0857942 1.6164259 0.0252169
v -0.0789889 1.6106428 0.0194046
v -0.0858417 1.6295455 0.0238027
v -0.0787673 1.6235337 0.0211005
v -0.0831948 1.6329313 0.0210111
v -0.0857942 1.6235741 0.0252169
v -0.0789889 1.6293572 0.0194046
v -0.0815883 1.6200000 0.0236104
v -0.0746090 1.6200000 0.0056277
v -0.0746090 1.6200000 0.0143723
v -0.0747831 1.6257830 0.0074006
v -0.0747831 1.6142170 0.0074006
v -0.0747831 1.6257830 0.0125994
v -0.0747831 1.6142170 0.0125994
v -0.1011005 1.6354450 0.0074300
v -0.1038027 1.6257176 0.0030578
v -0.0994046 1.6351402 0.0031948
v -0.1011005 1.6045550 0.0074300
v -0.1038027 1.6142824 0.0030578
v -0.0994046 1.6048598 0.0031948
v -0.0941583 1.6104545 -0.0038027
v -0.1012327 1.6164663 -0.0011005
v -0.0968052 1.6070687 -0.0010111
v -0.0942058 1.6164259 -0.0052169
v -0.1010111 1.6106428 0.0005954
v -0.0941583 1.6295455 -0.0038027
v -0.1012327 1.6235337 -0.0011005
v -0.0968052 1.6329313 -0.0010111
v -0.0942058 1.6235741 -0.0052169
v -0.1010111 1.6293572 0.0005954
v -0.0984117 1.6200000 -0.0036104
v -0.1011005 1.6354450 0.0125700
v -0.1038027 1.6257176 0.0169422
v -0.0994046 1.6351402 0.0168052
v -0.1036104 1.6315661 0.0100000
v -0.1011005 1.6045550 0.0125700
v -0.1038027 1.6142824 0.0169422
v -0.0994046 1.6048598 0.0168052
v -0.1036104 1.6084339 0.0100000
v -0.0941583 1.6104545 0.0238027
v -0.1012327 1.6164663 0.0211005
v -0.0968052 1.6070687 0.0210111
v -0.0942058 1.6164259 0.0252169
v -0.1010111 1.6106428 0.0194046
v -0.0941583 1.6295455 0.0238027
v -0.1012327 1.6235337 0.0211005
v -0.0968052 1.6329313 0.0210111
v -0.0942058 1.6235741 0.0252169
v -0.1010111 1.6293572 0.0194046
v -0.0984117 1.6200000 0.0236104
v -0.1053910 1.6200000 0.0056277
v -0.1053910 1.6200000 0.0143723
v -0.1052169 1.6257830 0.0074006
v -0.1052169 1.6142170 0.0074006
v -0.1052169 1.6257830 0.0125994
v -0.1052169 1.6142170 0.0125994
v -0.0723602 1.6270130 0.0100000
v -0.0576398 1.6270130 0.0100000
v -0.0723602 1.5929870 0.0100000
v -0.0576398 1.5929870 0.0100000
v -0.0650000 1.5994854 0.0219091
v -0.0650000 1.6205146 0.0219091
v -0.0650000 1.5994854 -0.0019091
v -0.0650000 1.6205146 -0.0019091
v -0.0530909 1.6100000 0.0026398
v -0.0530909 1.6100000 0.0173602
v -0.0769091 1.6100000 0.0026398
v -0.0769091 1.6100000 0.0173602
v -0.0650000 1.6300000 0.0100000
v -0.0650000 1.5900000 0.0100000
v -0.0693262 1.5938197 0.0170000
v -0.0606738 1.5938197 0.0170000
v -0.0693262 1.6261803 0.0170000
v -0.0606738 1.6261803 0.0170000
v -0.0650000 1.6100000 0.0240000
v -0.0693262 1.5938197 0.0030000
v -0.0606738 1.5938197 0.0030000
v -0.0693262 1.6261803 0.0030000
v -0.0606738 1.6261803 0.0030000
v -0.0650000 1.6100000 -0.0040000
v -0.0536738 1.6200000 0.0056738
v -0.0536738 1.6000000 0.0056738
v -0.0580000 1.6038197 -0.0013262
v -0.0580000 1.6161803 -0.0013262
v -0.0536738 1.6200000 0.0143262
v -0.0536738 1.6000000 0.0143262
v -0.0580000 1.6038197 0.0213262
v -0.0580000 1.6161803 0.0213262
v -0.0510000 1.6100000 0.0100000
v -0.0763262 1.6200000 0.0056738
v -0.0763262 1.6000000 0.0056738
v -0.0720000 1.6038197 -0.0013262
v -0.0720000 1.6161803 -0.0013262
v -0.0763262 1.6200000 0.0143262
v -0.0763262 1.6000000 0.0143262
v -0.0720000 1.6038197 0.0213262
v -0.0720000 1.6161803 0.0213262
v -0.0790000 1.6100000 0.0100000
v -0.0688257 1.6292388 0.0100000
v -0.0611743 1.6292388 0.0100000
v -0.0688257 1.5907612 0.0100000
v -0.0611743 1.5907612 0.0100000
v -0.0710744 1.5927466 0.0136385
v -0.0672487 1.5961244 0.0198287
v -0.0672744 1.5909789 0.0136801
v -0.0589256 1.5927466 0.0136385
v -0.0627513 1.5961244 0.0198287
v -0.0627256 1.5909789 0.0136801
v -0.0650000 1.5929870 0.0173602
v -0.0710744 1.6272534 0.0136385
v -0.0672487 1.6238756 0.0198287
v -0.0672744 1.6290211 0.0136801
v -0.0589256 1.6272534 0.0136385
v -0.0627513 1.6238756 0.0198287
v -0.0627256 1.6290211 0.0136801
v -0.0650000 1.6270130 0.0173602
v -0.0650000 1.6045347 0.0234671
v -0.0650000 1.6154653 0.0234671
v -0.0710744 1.5927466 0.0063615
v -0.0672487 1.5961244 0.0001713
v -0.0672744 1.5909789 0.0063199
v -0.0589256 1.5927466 0.0063615
v -0.0627513 1.5961244 0.0001713
v -0.0627256 1.5909789 0.0063199
v -0.0650000 1.5929870 0.0026398
v -0.0710744 1.6272534 0.0063615
v -0.0672487 1.6238756 0.0001713
v -0.0672744 1.6290211 0.0063199
v -0.0589256 1.6272534 0.0063615
v -0.0627513 1.6238756 0.0001713
v -0.0627256 1.6290211 0.0063199
v -0.0650000 1.6270130 0.0026398
v -0.0650000 1.6045347 -0.0034671
v -0.0650000 1.6154653 -0.0034671
v -0.0552871 1.6240409 0.0077513
v -0.0529226 1.6151978 0.0039256
v -0.0567710 1.6237638 0.0040454
v -0.0552871 1.5959591 0.0077513
v -0.0529226 1.6048022 0.0039256
v -0.0567710 1.5962362 0.0040454
v -0.0613615 1.6013222 -0.0020774
v -0.0551713 1.6067876 0.0002871
v -0.0590454 1.5982443 0.0003653
v -0.0613199 1.6067508 -0.0033148
v -0.0553653 1.6014935 0.0017710
v -0.0613615 1.6186778 -0.0020774
v -0.0551713 1.6132124 0.0002871
v -0.0590454 1.6217557 0.0003653
v -0.0613199 1.6132492 -0.0033148
v -0.0553653 1.6185065 0.0017710
v -0.0576398 1.6100000 -0.0019091
v -0.0552871 1.6240409 0.0122487
v -0.0529226 1.6151978 0.0160744
v -0.0567710 1.6237638 0.0159546
v -0.0530909 1.6205146 0.0100000
v -0.0552871 1.5959591 0.0122487
v -0.0529226 1.6048022 0.0160744
v -0.0567710 1.5962362 0.0159546
v -0.0530909 1.5994854 0.0100000
v -0.0613615 1.6013222 0.0220774
v -0.0551713 1.6067876 0.0197129
v -0.0590454 1.5982443 0.0196347
v -0.0613199 1.6067508 0.0233148
v -0.0553653 1.6014935 0.0182290
v -0.0613615 1.6186778 0.0220774
v -0.0551713 1.6132124 0.0197129
v -0.0590454 1.6217557 0.0196347
v -0.0613199 1.6132492 0.0233148
v -0.0553653 1.6185065 0.0182290
v -0.0576398 1.6100000 0.0219091
v -0.0515329 1.6100000 0.0061743
v -0.0515329 1.6100000 0.0138257
v -0.0516852 1.6152573 0.0077256
v -0.0516852 1.6047427 0.0077256
v -0.0516852 1.6152573 0.0122744
v -0.0516852 1.6047427 0.0122744
v -0.0747129 1.6240409 0.0077513
v -0.0770774 1.6151978 0.0039256
v -0.0732290 1.6237638 0.0040454
v -0.0747129 1.5959591 0.0077513
v -0.0770774 1.6048022 0.0039256
v -0.0732290 1.5962362 0.0040454
v -0.0686385 1.6013222 -0.0020774
v -0.0748287 1.6067876 0.0002871
v -0.0709546 1.5982443 0.0003653
v -0.0686801 1.6067508 -0.0033148
v -0.0746347 1.6014935 0.0017710
v -0.0686385 1.6186778 -0.0020774
v -0.0748287 1.6132124 0.0002871
v -0.0709546 1.6217557 0.0003653
v -0.0686801 1.6132492 -0.0033148
v -0.0746347 1.6185065 0.0017710
v -0.0723602 1.6100000 -0.0019091
v -0.0747129 1.6240409 0.0122487
v -0.0770774 1.6151978 0.0160744
v -0.0732290 1.6237638 0.0159546
v -0.0769091 1.6205146 0.0100000
v -0.0747129 1.5959591 0.0122487
v -0.0770774 1.6048022 0.0160744
v -0.0732290 1.5962362 0.0159546
v -0.0769091 1.5994854 0.0100000
v -0.0686385 1.6013222 0.0220774
v -0.0748287 1.6067876 0.0197129
v -0.0709546 1.5982443 0.0196347
v -0.0686801 1.6067508 0.0233148
v -0.0746347 1.6014935 0.0182290
v -0.0686385 1.6186778 0.0220774
v -0.0748287 1.6132124 0.0197129
v -0.0709546 1.6217557 0.0196347
v -0.0686801 1.6132492 0.0233148
v -0.0746347 1.6185065 0.0182290
v -0.0723602 1.6100000 0.0219091
v -0.0784671 1.6100000 0.0061743
v -0.0784671 1.6100000 0.0138257
v -0.0783148 1.6152573 0.0077256
v -0.0783148 1.6047427 0.0077256
v -0.0783148 1.6152573 0.0122744
v -0.0783148 1.6047427 0.0122744
vn -0.6443813 0.7647044 0.0000000
vn 0.6443813 0.7647044 0.0000000
vn -0.6443813 -0.7647044 0.0000000
vn 0.6443813 -0.7647044 0.0000000
vn -0.0000000 -0.4118510 0.9112512
vn 0.0000000 0.4118510 0.9112512
vn -0.0000000 -0.4118510 -0.9112512
vn -0.0000000 0.4118510 -0.9112512
vn 0.8501788 0.0000000 -0.5264940
vn 0.8501788 0.0000000 0.5264940
vn -0.8501788 0.0000000 -0.5264940
vn -0.8501788 0.0000000 0.5264940
vn 0.0000000 1.0000000 -0.0000000
vn -0.0000000 -1.0000000 -0.0000000
vn -0.3685354 -0.7111234 0.5987364
vn 0.3685354 -0.7111234 0.5987364
vn -0.3685354 0.7111234 0.5987364
vn 0.3685354 0.7111234 0.5987364
vn 0.0000000 0.0000000 1.0000000
vn -0.3685354 -0.7111234 -0.5987364
vn 0.3685354 -0.7111234 -0.5987364
vn -0.3685354 0.7111234 -0.5987364
vn 0.3685354 0.7111234 -0.5987364
vn 0.0000000 0.0000000 -1.0000000
vn 0.8605999 0.3883710 -0.3294477
vn 0.8605999 -0.3883710 -0.3294477
vn 0.5119248 -0.2309616 -0.8273994
vn 0.5119248 0.2309616 -0.8273994
vn 0.8605999 0.3883710 0.3294477
vn 0.8605999 -0.3883710 0.3294477
vn 0.5119248 -0.2309616 0.8273994
vn 0.5119248 0.2309616 0.8273994
vn 1.0000000 -0.0000000 0.0000000
vn -0.8605999 0.3883710 -0.3294477
vn -0.8605999 -0.3883710 -0.3294477
vn -0.5119248 -0.2309616 -0.8273994
vn -0.5119248 0.2309616 -0.8273994
vn -0.8605999 0.3883710 0.3294477
vn -0.8605999 -0.3883710 0.3294477
vn -0.5119248 -0.2309616 0.8273994
vn -0.5119248 0.2309616 0.8273994
vn -1.0000000 -0.0000000 0.0000000
vn -0.3627919 0.9318702 0.0000000
vn 0.3627919 0.9318702 -0.0000000
vn -0.3627919 -0.9318702 -0.0000000
vn 0.3627919 -0.9318702 0.0000000
vn -0.5357758 -0.7818772 0.3187668
vn -0.1798857 -0.5755219 0.7977567
vn -0.2005570 -0.9150234 0.3500129
vn 0.5357758 -0.7818772 0.3187668
vn 0.1798857 -0.5755219 0.7977567
vn 0.2005570 -0.9150234 0.3500129
vn 0.0000000 -0.7732486 0.6341030
vn -0.5357758 0.7818772 0.3187668
vn -0.1798857 0.5755219 0.7977567
vn -0.2005570 0.9150234 0.3500129
vn 0.5357758 0.7818772 0.3187668
vn 0.1798857 0.5755219 0.7977567
vn 0.2005570 0.9150234 0.3500129
vn 0.0000000 0.7732486 0.6341030
vn 0.0000000 -0.2057139 0.9786122
vn -0.0000000 0.2057139 0.9786122
vn -0.5357758 -0.7818772 -0.3187668
vn -0.1798857 -0.5755219 -0.7977567
vn -0.2005570 -0.9150234 -0.3500129
vn 0.5357758 -0.7818772 -0.3187668
vn 0.1798857 -0.5755219 -0.7977567
vn 0.2005570 -0.9150234 -0.3500129
vn 0.0000000 -0.7732486 -0.6341030
vn -0.5357758 0.7818772 -0.3187668
vn -0.1798857 0.5755219 -0.7977567
vn -0.2005570 0.9150234 -0.3500129
vn 0.5357758 0.7818772 -0.3187668
vn 0.1798857 0.5755219 -0.7977567
vn 0.2005570 0.9150234 -0.3500129
vn 0.0000000 0.7732486 -0.6341030
vn -0.0000000 -0.2057139 -0.9786122
vn 0.0000000 0.2057139 -0.9786122
vn 0.7894396 0.5865365 -0.1809972
vn 0.8760589 0.1906121 -0.4429310
vn 0.6631899 0.5654143 -0.4903935
vn 0.7894396 -0.5865365 -0.1809972
vn 0.8760589 -0.1906121 -0.4429310
vn 0.6631899 -0.5654143 -0.4903935
vn 0.2709950 -0.3316334 -0.9036487
vn 0.7076157 -0.1179846 -0.6966776
vn 0.4731827 -0.4693526 -0.7455241
vn 0.2706989 -0.1127572 -0.9560376
vn 0.7141884 -0.3326901 -0.6158346
vn 0.2709950 0.3316334 -0.9036487
vn 0.7076157 0.1179846 -0.6966776
vn 0.4731827 0.4693526 -0.7455241
vn 0.2706989 0.1127572 -0.9560376
vn 0.7141884 0.3326901 -0.6158346
vn 0.5177131 -0.0000000 -0.8555543
vn 0.7894396 0.5865365 0.1809972
vn 0.8760589 0.1906121 0.4429310
vn 0.6631899 0.5654143 0.4903935
vn 0.9149821 0.4034945 0.0000000
vn 0.7894396 -0.5865365 0.1809972
vn 0.8760589 -0.1906121 0.4429310
vn 0.6631899 -0.5654143 0.4903935
vn 0.9149821 -0.4034945 0.0000000
vn 0.2709950 -0.3316334 0.9036487
vn 0.7076157 -0.1179846 0.6966776
vn 0.4731827 -0.4693526 0.7455241
vn 0.2706989 -0.1127572 0.9560376
vn 0.7141884 -0.3326901 0.6158346
vn 0.2709950 0.3316334 0.9036487
vn 0.7076157 0.1179846 0.6966776
vn 0.4731827 0.4693526 0.7455241
vn 0.2706989 0.1127572 0.9560376
vn 0.7141884 0.3326901 0.6158346
vn 0.5177131 -0.0000000 0.8555543
vn 0.9616664 0.0000000 -0.2742219
vn 0.9616664 -0.0000000 0.2742219
vn 0.9675745 0.1986435 -0.1560142
vn 0.9675745 -0.1986435 -0.1560142
vn 0.9675745 0.1986435 0.1560142
vn 0.9675745 -0.1986435 0.1560142
vn -0.7894396 0.5865365 -0.1809972
vn -0.8760589 0.1906121 -0.4429310
vn -0.6631899 0.5654143 -0.4903935
vn -0.7894396 -0.5865365 -0.1809972
vn -0.8760589 -0.1906121 -0.4429310
vn -0.6631899 -0.5654143 -0.4903935
vn -0.2709950 -0.3316334 -0.9036487
vn -0.7076157 -0.1179846 -0.6966776
vn -0.4731827 -0.4693526 -0.7455241
vn -0.2706989 -0.1127572 -0.9560376
vn -0.7141884 -0.3326901 -0.6158346
vn -0.2709950 0.3316334 -0.9036487
vn -0.7076157 0.1179846 -0.6966776
vn -0.4731827 0.4693526 -0.7455241
vn -0.2706989 0.1127572 -0.9560376
vn -0.7141884 0.3326901 -0.6158346
vn -0.5177131 0.0000000 -0.8555543
vn -0.7894396 0.5865365 0.1809972
vn -0.8760589 0.1906121 0.4429310
vn -0.6631899 0.5654143 0.4903935
vn -0.9149821 0.4034945 0.0000000
vn -0.7894396 -0.5865365 0.1809972
vn -0.8760589 -0.1906121 0.4429310
vn -0.6631899 -0.5654143 0.4903935
vn -0.9149821 -0.4034945 0.0000000
vn -0.2709950 -0.3316334 0.9036487
vn -0.7076157 -0.1179846 0.6966776
vn -0.4731827 -0.4693526 0.7455241
vn -0.2706989 -0.1127572 0.9560376
vn -0.7141884 -0.3326901 0.6158346
vn -0.2709950 0.3316334 0.9036487
vn -0.7076157 0.1179846 0.6966776
vn -0.4731827 0.4693526 0.7455241
vn -0.2706989 0.1127572 0.9560376
vn -0.7141884 0.3326901 0.6158346
vn -0.5177131 0.0000000 0.8555543
vn -0.9616664 0.0000000 -0.2742219
vn -0.9616664 0.0000000 0.2742219
vn -0.9675745 0.1986435 -0.1560142
vn -0.9675745 -0.1986435 -0.1560142
vn -0.9675745 0.1986435 0.1560142
vn -0.9675745 -0.1986435 0.1560142
vn -0.6408185 0.7676924 0.0000000
vn 0.6408185 0.7676924 0.0000000
vn -0.6408185 -0.7676924 0.0000000
vn 0.6408185 -0.7676924 0.0000000
vn -0.0000000 -0.4151424 0.9097564
vn 0.0000000 0.4151424 0.9097564
vn 0.0000000 -0.4151424 -0.9097564
vn -0.0000000 0.4151424 -0.9097564
vn 0.8502054 0.0000000 -0.5264512
vn 0.8502054 -0.0000000 0.5264512
vn -0.8502054 0.0000000 -0.5264512
vn -0.8502054 0.0000000 0.5264512
vn 0.0000000 1.0000000 -0.0000000
vn -0.0000000 -1.0000000 -0.0000000
vn -0.3668123 -0.7144217 0.5958611
vn 0.3668123 -0.7144217 0.5958611
vn -0.3668123 0.7144217 0.5958611
vn 0.3668123 0.7144217 0.5958611
vn 0.0000000 0.0000000 1.0000000
vn -0.3668123 -0.7144217 -0.5958611
vn 0.3668123 -0.7144217 -0.5958611
vn -0.3668123 0.7144217 -0.5958611
vn 0.3668123 0.7144217 -0.5958611
vn 0.0000000 0.0000000 -1.0000000
vn 0.8593387 0.3915786 -0.3289426
vn 0.8593387 -0.3915786 -0.3289426
vn 0.5116481 -0.2330975 -0.8269715
vn 0.5116481 0.2330975 -0.8269715
vn 0.8593387 0.3915786 0.3289426
vn 0.8593387 -0.3915786 0.3289426
vn 0.5116481 -0.2330975 0.8269715
vn 0.5116481 0.2330975 0.8269715
vn 1.0000000 -0.0000000 0.0000000
vn -0.8593387 0.3915786 -0.3289426
vn -0.8593387 -0.3915786 -0.3289426
vn -0.5116481 -0.2330975 -0.8269715
vn -0.5116481 0.2330975 -0.8269715
vn -0.8593387 0.3915786 0.3289426
vn -0.8593387 -0.3915786 0.3289426
vn -0.5116481 -0.2330975 0.8269715
vn -0.5116481 0.2330975 0.8269715
vn -1.0000000 0.0000000 0.0000000
vn -0.3598905 0.9329946 -0.0000000
vn 0.3598905 0.9329946 -0.0000000
vn -0.3598905 -0.9329946 -0.0000000
vn 0.3598905 -0.9329946 -0.0000000
vn -0.5327199 -0.7847102 0.3169217
vn -0.1793366 -0.5791981 0.7952157
vn -0.1990200 -0.9163762 0.3473409
vn 0.5327199 -0.7847102 0.3169217
vn 0.1793366 -0.5791981 0.7952157
vn 0.1990200 -0.9163762 0.3473409
vn 0.0000000 -0.7761313 0.6305713
vn -0.5327199 0.7847102 0.3169217
vn -0.1793366 0.5791981 0.7952157
vn -0.1990200 0.9163762 0.3473409
vn 0.5327199 0.7847102 0.3169217
vn 0.1793366 0.5791981 0.7952157
vn 0.1990200 0.9163762 0.3473409
vn -0.0000000 0.7761313 0.6305713
vn 0.0000000 -0.2075909 0.9782157
vn 0.0000000 0.2075909 0.9782157
vn -0.5327199 -0.7847102 -0.3169217
vn -0.1793366 -0.5791981 -0.7952157
vn -0.1990200 -0.9163762 -0.3473409
vn 0.5327199 -0.7847102 -0.3169217
vn 0.1793366 -0.5791981 -0.7952157
vn 0.1990200 -0.9163762 -0.3473409
vn -0.0000000 -0.7761313 -0.6305713
vn -0.5327199 0.7847102 -0.3169217
vn -0.1793366 0.5791981 -0.7952157
vn -0.1990200 0.9163762 -0.3473409
vn 0.5327199 0.7847102 -0.3169217
vn 0.1793366 0.5791981 -0.7952157
vn 0.1990200 0.9163762 -0.3473409
vn 0.0000000 0.7761313 -0.6305713
vn -0.0000000 -0.2075909 -0.9782157
vn 0.0000000 0.2075909 -0.9782157
vn 0.7868187 0.5902226 -0.1804264
vn 0.8757644 0.1924280 -0.4427281
vn 0.6611747 0.5690723 -0.4888811
vn 0.7868187 -0.5902226 -0.1804264
vn 0.8757644 -0.1924280 -0.4427281
vn 0.6611747 -0.5690723 -0.4888811
vn 0.2706740 -0.3345347 -0.9026750
vn 0.7075230 -0.1190983 -0.6965822
vn 0.4721912 -0.4728885 -0.7439166
vn 0.2706395 -0.1138505 -0.9559248
vn 0.7134331 -0.3355533 -0.6151562
vn 0.2706740 0.3345347 -0.9026750
vn 0.7075230 0.1190983 -0.6965822
vn 0.4721912 0.4728885 -0.7439166
vn 0.2706395 0.1138505 -0.9559248
vn 0.7134331 0.3355533 -0.6151562
vn 0.5176889 -0.0000000 -0.8555689
vn 0.7868187 0.5902226 0.1804264
vn 0.8757644 0.1924280 0.4427281
vn 0.6611747 0.5690723 0.4888811
vn 0.9135268 0.4067785 -0.0000000
vn 0.7868187 -0.5902226 0.1804264
vn 0.8757644 -0.1924280 0.4427281
vn 0.6611747 -0.5690723 0.4888811
vn 0.9135268 -0.4067785 0.0000000
vn 0.2706740 -0.3345347 0.9026750
vn 0.7075230 -0.1190983 0.6965822
vn 0.4721912 -0.4728885 0.7439166
vn 0.2706395 -0.1138505 0.9559248
vn 0.7134331 -0.3355533 0.6151562
vn 0.2706740 0.3345347 0.9026750
vn 0.7075230 0.1190983 0.6965822
vn 0.4721912 0.4728885 0.7439166
vn 0.2706395 0.1138505 0.9559248
vn 0.7134331 0.3355533 0.6151562
vn 0.5176889 0.0000000 0.8555689
vn 0.9616603 -0.0000000 -0.2742434
vn 0.9616603 0.0000000 0.2742434
vn 0.9671942 0.2005278 -0.1559617
vn 0.9671942 -0.2005278 -0.1559617
vn 0.9671942 0.2005278 0.1559617
vn 0.9671942 -0.2005278 0.1559617
vn -0.7868187 0.5902226 -0.1804264
vn -0.8757644 0.1924280 -0.4427281
vn -0.6611747 0.5690723 -0.4888811
vn -0.7868187 -0.5902226 -0.1804264
vn -0.8757644 -0.1924280 -0.4427281
vn -0.6611747 -0.5690723 -0.4888811
vn -0.2706740 -0.3345347 -0.9026750
vn -0.7075230 -0.1190983 -0.6965822
vn -0.4721912 -0.4728885 -0.7439166
vn -0.2706395 -0.1138505 -0.9559248
vn -0.7134331 -0.3355533 -0.6151562
vn -0.2706740 0.3345347 -0.9026750
vn -0.7075230 0.1190983 -0.6965822
vn -0.4721912 0.4728885 -0.7439166
vn -0.2706395 0.1138505 -0.9559248
vn -0.7134331 0.3355533 -0.6151562
vn -0.5176889 0.0000000 -0.8555689
vn -0.7868187 0.5902226 0.1804264
vn -0.8757644 0.1924280 0.4427281
vn -0.6611747 0.5690723 0.4888811
vn -0.9135268 0.4067785 0.0000000
vn -0.7868187 -0.5902226 0.1804264
vn -0.8757644 -0.1924280 0.4427281
vn -0.6611747 -0.5690723 0.4888811
vn -0.9135268 -0.4067785 -0.0000000
vn -0.2706740 -0.3345347 0.9026750
vn -0.7075230 -0.1190983 0.6965822
vn -0.4721912 -0.4728885 0.7439166
vn -0.2706395 -0.1138505 0.9559248
vn -0.7134331 -0.3355533 0.6151562
vn -0.2706740 0.3345347 0.9026750
vn -0.7075230 0.1190983 0.6965822
vn -0.4721912 0.4728885 0.7439166
vn -0.2706395 0.1138505 0.9559248
vn -0.7134331 0.3355533 0.6151562
vn -0.5176889 0.0000000 0.8555689
vn -0.9616603 0.0000000 -0.2742434
vn -0.9616603 -0.0000000 0.2742434
vn -0.9671942 0.2005278 -0.1559617
vn -0.9671942 -0.2005278 -0.1559617
vn -0.9671942 0.2005278 0.1559617
vn -0.9671942 -0.2005278 0.1559617
vn -0.6543192 0.7562184 -0.0000000
vn 0.6543192 0.7562184 -0.0000000
vn -0.6543192 -0.7562184 -0.0000000
vn 0.6543192 -0.7562184 -0.0000000
vn 0.0000000 -0.4027060 0.9153294
vn 0.0000000 0.4027060 0.9153294
vn 0.0000000 -0.4027060 -0.9153294
vn 0.0000000 0.4027060 -0.9153294
vn 0.8501011 -0.0000000 -0.5266194
vn 0.8501011 -0.0000000 0.5266194
vn -0.8501011 0.0000000 -0.5266194
vn -0.8501011 0.0000000 0.5266194
vn 0.0000000 1.0000000 0.0000000
vn 0.0000000 -1.0000000 0.0000000
vn -0.3733211 -0.7017929 0.6067273
vn 0.3733211 -0.7017929 0.6067273
vn -0.3733211 0.7017929 0.6067273
vn 0.3733211 0.7017929 0.6067273
vn -0.0000000 -0.0000000 1.0000000
vn -0.3733211 -0.7017929 -0.6067273
vn 0.3733211 -0.7017929 -0.6067273
vn -0.3733211 0.7017929 -0.6067273
vn 0.3733211 0.7017929 -0.6067273
vn -0.0000000 -0.0000000 -1.0000000
vn 0.8640373 0.3794640 -0.3308270
vn 0.8640373 -0.3794640 -0.3308270
vn 0.5126754 -0.2250591 -0.8285604
vn 0.5126754 0.2250591 -0.8285604
vn 0.8640373 0.3794640 0.3308270
vn 0.8640373 -0.3794640 0.3308270
vn 0.5126754 -0.2250591 0.8285604
vn 0.5126754 0.2250591 0.8285604
vn 1.0000000 0.0000000 0.0000000
vn -0.8640373 0.3794640 -0.3308270
vn -0.8640373 -0.3794640 -0.3308270
vn -0.5126754 -0.2250591 -0.8285604
vn -0.5126754 0.2250591 -0.8285604
vn -0.8640373 0.3794640 0.3308270
vn -0.8640373 -0.3794640 0.3308270
vn -0.5126754 -0.2250591 0.8285604
vn -0.5126754 0.2250591 0.8285604
vn -1.0000000 0.0000000 0.0000000
vn -0.3709904 0.9286367 -0.0000000
vn 0.3709904 0.9286367 0.0000000
vn -0.3709904 -0.9286367 -0.0000000
vn 0.3709904 -0.9286367 0.0000000
vn -0.5443072 -0.7738246 0.3239216
vn -0.1813985 -0.5652140 0.8047532
vn -0.2048933 -0.9111403 0.3575501
vn 0.5443072 -0.7738246 0.3239216
vn 0.1813985 -0.5652140 0.8047532
vn 0.2048933 -0.9111403 0.3575501
vn 0.0000000 -0.7650599 0.6439591
vn -0.5443072 0.7738246 0.3239216
vn -0.1813985 0.5652140 0.8047532
vn -0.2048933 0.9111403 0.3575501
vn 0.5443072 0.7738246 0.3239216
vn 0.1813985 0.5652140 0.8047532
vn 0.2048933 0.9111403 0.3575501
vn -0.0000000 0.7650599 0.6439591
vn -0.0000000 -0.2005335 0.9796868
vn 0.0000000 0.2005335 0.9796868
vn -0.5443072 -0.7738246 -0.3239216
vn -0.1813985 -0.5652140 -0.8047532
vn -0.2048933 -0.9111403 -0.3575501
vn 0.5443072 -0.7738246 -0.3239216
vn 0.1813985 -0.5652140 -0.8047532
vn 0.2048933 -0.9111403 -0.3575501
vn 0.0000000 -0.7650599 -0.6439591
vn -0.5443072 0.7738246 -0.3239216
vn -0.1813985 0.5652140 -0.8047532
vn -0.2048933 0.9111403 -0.3575501
vn 0.5443072 0.7738246 -0.3239216
vn 0.1813985 0.5652140 -0.8047532
vn 0.2048933 0.9111403 -0.3575501
vn -0.0000000 0.7650599 -0.6439591
vn -0.0000000 -0.2005335 -0.9796868
vn -0.0000000 0.2005335 -0.9796868
vn 0.7966620 0.5761941 -0.1825652
vn 0.8768533 0.1856022 -0.4434864
vn 0.6687336 0.5551636 -0.4945591
vn 0.7966620 -0.5761941 -0.1825652
vn 0.8768533 -0.1856022 -0.4434864
vn 0.6687336 -0.5551636 -0.4945591
vn 0.2718717 -0.3235936 -0.9062963
vn 0.7078650 -0.1149117 -0.6969379
vn 0.4758959 -0.4594922 -0.7499267
vn 0.2708612 -0.1097420 -0.9563425
vn 0.7162430 -0.3247531 -0.6176823
vn 0.2718717 0.3235936 -0.9062963
vn 0.7078650 0.1149117 -0.6969379
vn 0.4758959 0.4594922 -0.7499267
vn 0.2708612 0.1097420 -0.9563425
vn 0.7162430 0.3247531 -0.6176823
vn 0.5177800 -0.0000000 -0.8555138
vn 0.7966620 0.5761941 0.1825652
vn 0.8768533 0.1856022 0.4434864
vn 0.6687336 0.5551636 0.4945591
vn 0.9189525 0.3943683 0.0000000
vn 0.7966620 -0.5761941 0.1825652
vn 0.8768533 -0.1856022 0.4434864
vn 0.6687336 -0.5551636 0.4945591
vn 0.9189525 -0.3943683 0.0000000
vn 0.2718717 -0.3235936 0.9062963
vn 0.7078650 -0.1149117 0.6969379
vn 0.4758959 -0.4594922 0.7499267
vn 0.2708612 -0.1097420 0.9563425
vn 0.7162430 -0.3247531 0.6176823
vn 0.2718717 0.3235936 0.9062963
vn 0.7078650 0.1149117 0.6969379
vn 0.4758959 0.4594922 0.7499267
vn 0.2708612 0.1097420 0.9563425
vn 0.7162430 0.3247531 0.6176823
vn 0.5177800 0.0000000 0.8555138
vn 0.9616830 -0.0000000 -0.2741640
vn 0.9616830 0.0000000 0.2741640
vn 0.9686048 0.1934429 -0.1561555
vn 0.9686048 -0.1934429 -0.1561555
vn 0.9686048 0.1934429 0.1561555
vn 0.9686048 -0.1934429 0.1561555
vn -0.7966620 0.5761941 -0.1825652
vn -0.8768533 0.1856022 -0.4434864
vn -0.6687336 0.5551636 -0.4945591
vn -0.7966620 -0.5761941 -0.1825652
vn -0.8768533 -0.1856022 -0.4434864
vn -0.6687336 -0.5551636 -0.4945591
vn -0.2718717 -0.3235936 -0.9062963
vn -0.7078650 -0.1149117 -0.6969379
vn -0.4758959 -0.4594922 -0.7499267
vn -0.2708612 -0.1097420 -0.9563425
vn -0.7162430 -0.3247531 -0.6176823
vn -0.2718717 0.3235936 -0.9062963
vn -0.7078650 0.1149117 -0.6969379
vn -0.4758959 0.4594922 -0.7499267
vn -0.2708612 0.1097420 -0.9563425
vn -0.7162430 0.3247531 -0.6176823
vn -0.5177800 -0.0000000 -0.8555138
vn -0.7966620 0.5761941 0.1825652
vn -0.8768533 0.1856022 0.4434864
vn -0.6687336 0.5551636 0.4945591
vn -0.9189525 0.3943683 0.0000000
vn -0.7966620 -0.5761941 0.1825652
vn -0.8768533 -0.1856022 0.4434864
vn -0.6687336 -0.5551636 0.4945591
vn -0.9189525 -0.3943683 -0.0000000
vn -0.2718717 -0.3235936 0.9062963
vn -0.7078650 -0.1149117 0.6969379
vn -0.4758959 -0.4594922 0.7499267
vn -0.2708612 -0.1097420 0.9563425
vn -0.7162430 -0.3247531 0.6176823
vn -0.2718717 0.3235936 0.9062963
vn -0.7078650 0.1149117 0.6969379
vn -0.4758959 0.4594922 0.7499267
vn -0.2708612 0.1097420 0.9563425
vn -0.7162430 0.3247531 0.6176823
vn -0.5177800 -0.0000000 0.8555138
vn -0.9616830 0.0000000 -0.2741640
vn -0.9616830 0.0000000 0.2741640
vn -0.9686048 0.1934429 -0.1561555
vn -0.9686048 -0.1934429 -0.1561555
vn -0.9686048 0.1934429 0.1561555
vn -0.9686048 -0.1934429 0.1561555
f 1//1 138//138 54//54
f 138//138 38//38 140//140
f 54//54 140//140 17//17
f 138//138 140//140 54//54
f 38//38 139//139 155//155
f 139//139 12//12 152//152
f 155//155 152//152 41//41
f 139//139 152//152 155//155
f 17//17 153//153 55//55
f 153//153 41//41 151//151
f 55//55 151//151 6//6
f 153//153 151//151 55//55
f 38//38 155//155 140//140
f 155//155 41//41 153//153
f 140//140 153//153 17//17
f 155//155 153//153 140//140
f 1//1 54//54 43//43
f 54//54 17//17 56//56
f 43//43 56//56 13//13
f 54//54 56//56 43//43
f 17//17 55//55 60//60
f 55//55 6//6 58//58
f 60//60 58//58 18//18
f 55//55 58//58 60//60
f 13//13 59//59 44//44
f 59//59 18//18 57//57
f 44//44 57//57 2//2
f 59//59 57//57 44//44
f 17//17 60//60 56//56
f 60//60 18//18 59//59
f 56//56 59//59 13//13
f 60//60 59//59 56//56
f 1//1 43//43 70//70
f 43//43 13//13 72//72
f 70//70 72//72 22//22
f 43//43 72//72 70//70
f 13//13 44//44 75//75
f 44//44 2//2 73//73
f 75//75 73//73 23//23
f 44//44 73//73 75//75
f 22//22 76//76 71//71
f 76//76 23//23 74//74
f 71//71 74//74 8//8
f 76//76 74//74 71//71
f 13//13 75//75 72//72
f 75//75 23//23 76//76
f 72//72 76//76 22//22
f 75//75 76//76 72//72
f 1//1 70//70 121//121
f 70//70 22//22 123//123
f 121//121 123//123 34//34
f 70//70 123//123 121//121
f 22//22 71//71 134//134
f 71//71 8//8 132//132
f 134//134 132//132 37//37
f 71//71 132//132 134//134
f 34//34 136//136 122//122
f 136//136 37//37 133//133
f 122//122 133//133 11//11
f 136//136 133//133 122//122
f 22//22 134//134 123//123
f 134//134 37//37 136//136
f 123//123 136//136 34//34
f 134//134 136//136 123//123
f 1//1 121//121 138//138
f 121//121 34//34 141//141
f 138//138 141//141 38//38
f 121//121 141//141 138//138
f 34//34 122//122 159//159
f 122//122 11//11 157//157
f 159//159 157//157 42//42
f 122//122 157//157 159//159
f 38//38 161//161 139//139
f 161//161 42//42 158//158
f 139//139 158//158 12//12
f 161//161 158//158 139//139
f 34//34 159//159 141//141
f 159//159 42//42 161//161
f 141//141 161//161 38//38
f 159//159 161//161 141//141
f 2//2 57//57 96//96
f 57//57 18//18 98//98
f 96//96 98//98 29//29
f 57//57 98//98 96//96
f 18//18 58//58 111//111
f 58//58 6//6 109//109
f 111//111 109//109 32//32
f 58//58 109//109 111//111
f 29//29 113//113 97//97
f 113//113 32//32 110//110
f 97//97 110//110 10//10
f 113//113 110//110 97//97
f 18//18 111//111 98//98
f 111//111 32//32 113//113
f 98//98 113//113 29//29
f 111//111 113//113 98//98
f 6//6 151//151 62//62
f 151//151 41//41 154//154
f 62//62 154//154 19//19
f 151//151 154//154 62//62
f 41//41 152//152 156//156
f 152//152 12//12 147//147
f 156//156 147//147 40//40
f 152//152 147//147 156//156
f 19//19 149//149 61//61
f 149//149 40//40 146//146
f 61//61 146//146 5//5
f 149//149 146//146 61//61
f 41//41 156//156 154//154
f 156//156 40//40 149//149
f 154//154 149//149 19//19
f 156//156 149//149 154//154
f 12//12 158//158 143//143
f 158//158 42//42 162//162
f 143//143 162//162 39//39
f 158//158 162//162 143//143
f 42//42 157//157 160//160
f 157//157 11//11 125//125
f 160//160 125//125 35//35
f 157//157 125//125 160//160
f 39//39 145//145 142//142
f 145//145 35//35 124//124
f 142//142 124//124 3//3
f 145//145 124//124 142//142
f 42//42 160//160 162//162
f 160//160 35//35 145//145
f 162//162 145//145 39//39
f 160//160 145//145 162//162
f 11//11 133//133 128//128
f 133//133 37//37 137//137
f 128//128 137//137 36//36
f 133//133 137//137 128//128
f 37//37 132//132 135//135
f 132//132 8//8 78//78
f 135//135 78//78 24//24
f 132//132 78//78 135//135
f 36//36 130//130 127//127
f 130//130 24//24 77//77
f 127//127 77//77 7//7
f 130//130 77//77 127//127
f 37//37 135//135 137//137
f 135//135 24//24 130//130
f 137//137 130//130 36//36
f 135//135 130//130 137//137
f 8//8 74//74 90//90
f 74//74 23//23 92//92
f 90//90 92//92 28//28
f 74//74 92//92 90//90
f 23//23 73//73 81//81
f 73//73 2//2 79//79
f 81//81 79//79 25//25
f 73//73 79//79 81//81
f 28//28 94//94 91//91
f 94//94 25//25 80//80
f 91//91 80//80 9//9
f 94//94 80//80 91//91
f 23//23 81//81 92//92
f 81//81 25//25 94//94
f 92//92 94//94 28//28
f 81//81 94//94 92//92
f 4//4 100//100 50//50
f 100//100 30//30 102//102
f 50//50 102//102 16//16
f 100//100 102//102 50//50
f 30//30 101//101 108//108
f 101//101 10//10 105//105
f 108//108 105//105 31//31
f 101//101 105//105 108//108
f 16//16 106//106 51//51
f 106//106 31//31 104//104
f 51//51 104//104 5//5
f 106//106 104//104 51//51
f 30//30 108//108 102//102
f 108//108 31//31 106//106
f 102//102 106//106 16//16
f 108//108 106//106 102//102
f 4//4 50//50 46//46
f 50//50 16//16 52//52
f 46//46 52//52 14//14
f 50//50 52//52 46//46
f 16//16 51//51 53//53
f 51//51 5//5 48//48
f 53//53 48//48 15//15
f 51//51 48//48 53//53
f 14//14 49//49 45//45
f 49//49 15//15 47//47
f 45//45 47//47 3//3
f 49//49 47//47 45//45
f 16//16 53//53 52//52
f 53//53 15//15 49//49
f 52//52 49//49 14//14
f 53//53 49//49 52//52
f 4//4 46//46 66//66
f 46//46 14//14 68//68
f 66//66 68//68 21//21
f 46//46 68//68 66//66
f 14//14 45//45 65//65
f 45//45 3//3 63//63
f 65//65 63//63 20//20
f 45//45 63//63 65//65
f 21//21 69//69 67//67
f 69//69 20//20 64//64
f 67//67 64//64 7//7
f 69//69 64//64 67//67
f 14//14 65//65 68//68
f 65//65 20//20 69//69
f 68//68 69//69 21//21
f 65//65 69//69 68//68
f 4//4 66//66 82//82
f 66//66 21//21 84//84
f 82//82 84//84 26//26
f 66//66 84//84 82//82
f 21//21 67//67 87//87
f 67//67 7//7 85//85
f 87//87 85//85 27//27
f 67//67 85//85 87//87
f 26//26 89//89 83//83
f 89//89 27//27 86//86
f 83//83 86//86 9//9
f 89//89 86//86 83//83
f 21//21 87//87 84//84
f 87//87 27//27 89//89
f 84//84 89//89 26//26
f 87//87 89//89 84//84
f 4//4 82//82 100//100
f 82//82 26//26 103//103
f 100//100 103//103 30//30
f 82//82 103//103 100//100
f 26//26 83//83 118//118
f 83//83 9//9 115//115
f 118//118 115//115 33//33
f 83//83 115//115 118//118
f 30//30 120//120 101//101
f 120//120 33//33 116//116
f 101//101 116//116 10//10
f 120//120 116//116 101//101
f 26//26 118//118 103//103
f 118//118 33//33 120//120
f 103//103 120//120 30//30
f 118//118 120//120 103//103
f 5//5 104//104 61//61
f 104//104 31//31 107//107
f 61//61 107//107 19//19
f 104//104 107//107 61//61
f 31//31 105//105 114//114
f 105//105 10//10 110//110
f 114//114 110//110 32//32
f 105//105 110//110 114//114
f 19//19 112//112 62//62
f 112//112 32//32 109//109
f 62//62 109//109 6//6
f 112//112 109//109 62//62
f 31//31 114//114 107//107
f 114//114 32//32 112//112
f 107//107 112//112 19//19
f 114//114 112//112 107//107
f 3//3 47//47 142//142
f 47//47 15//15 144//144
f 142//142 144//144 39//39
f 47//47 144//144 142//142
f 15//15 48//48 148//148
f 48//48 5//5 146//146
f 148//148 146//146 40//40
f 48//48 146//146 148//148
f 39//39 150//150 143//143
f 150//150 40//40 147//147
f 143//143 147//147 12//12
f 150//150 147//147 143//143
f 15//15 148//148 144//144
f 148//148 40//40 150//150
f 144//144 150//150 39//39
f 148//148 150//150 144//144
f 7//7 64//64 127//127
f 64//64 20//20 129//129
f 127//127 129//129 36//36
f 64//64 129//129 127//127
f 20//20 63//63 126//126
f 63//63 3//3 124//124
f 126//126 124//124 35//35
f 63//63 124//124 126//126
f 36//36 131//131 128//128
f 131//131 35//35 125//125
f 128//128 125//125 11//11
f 131//131 125//125 128//128
f 20//20 126//126 129//129
f 126//126 35//35 131//131
f 129//129 131//131 36//36
f 126//126 131//131 129//129
f 9//9 86//86 91//91
f 86//86 27//27 95//95
f 91//91 95//95 28//28
f 86//86 95//95 91//91
f 27//27 85//85 88//88
f 85//85 7//7 77//77
f 88//88 77//77 24//24
f 85//85 77//77 88//88
f 28//28 93//93 90//90
f 93//93 24//24 78//78
f 90//90 78//78 8//8
f 93//93 78//78 90//90
f 27//27 88//88 95//95
f 88//88 24//24 93//93
f 95//95 93//93 28//28
f 88//88 93//93 95//95
f 10//10 116//116 97//97
f 116//116 33//33 119//119
f 97//97 119//119 29//29
f 116//116 119//119 97//97
f 33//33 115//115 117//117
f 115//115 9//9 80//80
f 117//117 80//80 25//25
f 115//115 80//80 117//117
f 29//29 99//99 96//96
f 99//99 25//25 79//79
f 96//96 79//79 2//2
f 99//99 79//79 96//96
f 33//33 117//117 119//119
f 117//117 25//25 99//99
f 119//119 99//99 29//29
f 117//117 99//99 119//119
f 163//163 300//300 216//216
f 300//300 200//200 302//302
f 216//216 302//302 179//179
f 300//300 302//302 216//216
f 200//200 301//301 317//317
f 301//301 174//174 314//314
f 317//317 314//314 203//203
f 301//301 314//314 317//317
f 179//179 315//315 217//217
f 315//315 203//203 313//313
f 217//217 313//313 168//168
f 315//315 313//313 217//217
f 200//200 317//317 302//302
f 317//317 203//203 315//315
f 302//302 315//315 179//179
f 317//317 315//315 302//302
f 163//163 216//216 205//205
f 216//216 179//179 218//218
f 205//205 218//218 175//175
f 216//216 218//218 205//205
f 179//179 217//217 222//222
f 217//217 168//168 220//220
f 222//222 220//220 180//180
f 217//217 220//220 222//222
f 175//175 221//221 206//206
f 221//221 180//180 219//219
f 206//206 219//219 164//164
f 221//221 219//219 206//206
f 179//179 222//222 218//218
f 222//222 180//180 221//221
f 218//218 221//221 175//175
f 222//222 221//221 218//218
f 163//163 205//205 232//232
f 205//205 175//175 234//234
f 232//232 234//234 184//184
f 205//205 234//234 232//232
f 175//175 206//206 237//237
f 206//206 164//164 235//235
f 237//237 235//235 185//185
f 206//206 235//235 237//237
f 184//184 238//238 233//233
f 238//238 185//185 236//236
f 233//233 236//236 170//170
f 238//238 236//236 233//233
f 175//175 237//237 234//234
f 237//237 185//185 238//238
f 234//234 238//238 184//184
f 237//237 238//238 234//234
f 163//163 232//232 283//283
f 232//232 184//184 285//285
f 283//283 285//285 196//196
f 232//232 285//285 283//283
f 184//184 233//233 296//296
f 233//233 170//170 294//294
f 296//296 294//294 199//199
f 233//233 294//294 296//296
f 196//196 298//298 284//284
f 298//298 199//199 295//295
f 284//284 295//295 173//173
f 298//298 295//295 284//284
f 184//184 296//296 285//285
f 296//296 199//199 298//298
f 285//285 298//298 196//196
f 296//296 298//298 285//285
f 163//163 283//283 300//300
f 283//283 196//196 303//303
f 300//300 303//303 200//200
f 283//283 303//303 300//300
f 196//196 284//284 321//321
f 284//284 173//173 319//319
f 321//321 319//319 204//204
f 284//284 319//319 321//321
f 200//200 323//323 301//301
f 323//323 204//204 320//320
f 301//301 320//320 174//174
f 323//323 320//320 301//301
f 196//196 321//321 303//303
f 321//321 204//204 323//323
f 303//303 323//323 200//200
f 321//321 323//323 303//303
f 164//164 219//219 258//258
f 219//219 180//180 260//260
f 258//258 260//260 191//191
f 219//219 260//260 258//258
f 180//180 220//220 273//273
f 220//220 168//168 271//271
f 273//273 271//271 194//194
f 220//220 271//271 273//273
f 191//191 275//275 259//259
f 275//275 194//194 272//272
f 259//259 272//272 172//172
f 275//275 272//272 259//259
f 180//180 273//273 260//260
f 273//273 194//194 275//275
f 260//260 275//275 191//191
f 273//273 275//275 260//260
f 168//168 313//313 224//224
f 313//313 203//203 316//316
f 224//224 316//316 181//181
f 313//313 316//316 224//224
f 203//203 314//314 318//318
f 314//314 174//174 309//309
f 318//318 309//309 202//202
f 314//314 309//309 318//318
f 181//181 311//311 223//223
f 311//311 202//202 308//308
f 223//223 308//308 167//167
f 311//311 308//308 223//223
f 203//203 318//318 316//316
f 318//318 202//202 311//311
f 316//316 311//311 181//181
f 318//318 311//311 316//316
f 174//174 320//320 305//305
f 320//320 204//204 324//324
f 305//305 324//324 201//201
f 320//320 324//324 305//305
f 204//204 319//319 322//322
f 319//319 173//173 287//287
f 322//322 287//287 197//197
f 319//319 287//287 322//322
f 201//201 307//307 304//304
f 307//307 197//197 286//286
f 304//304 286//286 165//165
f 307//307 286//286 304//304
f 204//204 322//322 324//324
f 322//322 197//197 307//307
f 324//324 307//307 201//201
f 322//322 307//307 324//324
f 173//173 295//295 290//290
f 295//295 199//199 299//299
f 290//290 299//299 198//198
f 295//295 299//299 290//290
f 199//199 294//294 297//297
f 294//294 170//170 240//240
f 297//297 240//240 186//186
f 294//294 240//240 297//297
f 198//198 292//292 289//289
f 292//292 186//186 239//239
f 289//289 239//239 169//169
f 292//292 239//239 289//289
f 199//199 297//297 299//299
f 297//297 186//186 292//292
f 299//299 292//292 198//198
f 297//297 292//292 299//299
f 170//170 236//236 252//252
f 236//236 185//185 254//254
f 252//252 254//254 190//190
f 236//236 254//254 252//252
f 185//185 235//235 243//243
f 235//235 164//164 241//241
f 243//243 241//241 187//187
f 235//235 241//241 243//243
f 190//190 256//256 253//253
f 256//256 187//187 242//242
f 253//253 242//242 171//171
f 256//256 242//242 253//253
f 185//185 243//243 254//254
f 243//243 187//187 256//256
f 254//254 256//256 190//190
f 243//243 256//256 254//254
f 166//166 262//262 212//212
f 262//262 192//192 264//264
f 212//212 264//264 178//178
f 262//262 264//264 212//212
f 192//192 263//263 270//270
f 263//263 172//172 267//267
f 270//270 267//267 193//193
f 263//263 267//267 270//270
f 178//178 268//268 213//213
f 268//268 193//193 266//266
f 213//213 266//266 167//167
f 268//268 266//266 213//213
f 192//192 270//270 264//264
f 270//270 193//193 268//268
f 264//264 268//268 178//178
f 270//270 268//268 264//264
f 166//166 212//212 208//208
f 212//212 178//178 214//214
f 208//208 214//214 176//176
f 212//212 214//214 208//208
f 178//178 213//213 215//215
f 213//213 167//167 210//210
f 215//215 210//210 177//177
f 213//213 210//210 215//215
f 176//176 211//211 207//207
f 211//211 177//177 209//209
f 207//207 209//209 165//165
f 211//211 209//209 207//207
f 178//178 215//215 214//214
f 215//215 177//177 211//211
f 214//214 211//211 176//176
f 215//215 211//211 214//214
f 166//166 208//208 228//228
f 208//208 176//176 230//230
f 228//228 230//230 183//183
f 208//208 230//230 228//228
f 176//176 207//207 227//227
f 207//207 165//165 225//225
f 227//227 225//225 182//182
f 207//207 225//225 227//227
f 183//183 231//231 229//229
f 231//231 182//182 226//226
f 229//229 226//226 169//169
f 231//231 226//226 229//229
f 176//176 227//227 230//230
f 227//227 182//182 231//231
f 230//230 231//231 183//183
f 227//227 231//231 230//230
f 166//166 228//228 244//244
f 228//228 183//183 246//246
f 244//244 246//246 188//188
f 228//228 246//246 244//244
f 183//183 229//229 249//249
f 229//229 169//169 247//247
f 249//249 247//247 189//189
f 229//229 247//247 249//249
f 188//188 251//251 245//245
f 251//251 189//189 248//248
f 245//245 248//248 171//171
f 251//251 248//248 245//245
f 183//183 249//249 246//246
f 249//249 189//189 251//251
f 246//246 251//251 188//188
f 249//249 251//251 246//246
f 166//166 244//244 262//262
f 244//244 188//188 265//265
f 262//262 265//265 192//192
f 244//244 265//265 262//262
f 188//188 245//245 280//280
f 245//245 171//171 277//277
f 280//280 277//277 195//195
f 245//245 277//277 280//280
f 192//192 282//282 263//263
f 282//282 195//195 278//278
f 263//263 278//278 172//172
f 282//282 278//278 263//263
f 188//188 280//280 265//265
f 280//280 195//195 282//282
f 265//265 282//282 192//192
f 280//280 282//282 265//265
f 167//167 266//266 223//223
f 266//266 193//193 269//269
f 223//223 269//269 181//181
f 266//266 269//269 223//223
f 193//193 267//267 276//276
f 267//267 172//172 272//272
f 276//276 272//272 194//194
f 267//267 272//272 276//276
f 181//181 274//274 224//224
f 274//274 194//194 271//271
f 224//224 271//271 168//168
f 274//274 271//271 224//224
f 193//193 276//276 269//269
f 276//276 194//194 274//274
f 269//269 274//274 181//181
f 276//276 274//274 269//269
f 165//165 209//209 304//304
f 209//209 177//177 306//306
f 304//304 306//306 201//201
f 209//209 306//306 304//304
f 177//177 210//210 310//310
f 210//210 167//167 308//308
f 310//310 308//308 202//202
f 210//210 308//308 310//310
f 201//201 312//312 305//305
f 312//312 202//202 309//309
f 305//305 309//309 174//174
f 312//312 309//309 305//305
f 177//177 310//310 306//306
f 310//310 202//202 312//312
f 306//306 312//312 201//201
f 310//310 312//312 306//306
f 169//169 226//226 289//289
f 226//226 182//182 291//291
f 289//289 291//291 198//198
f 226//226 291//291 289//289
f 182//182 225//225 288//288
f 225//225 165//165 286//286
f 288//288 286//286 197//197
f 225//225 286//286 288//288
f 198//198 293//293 290//290
f 293//293 197//197 287//287
f 290//290 287//287 173//173
f 293//293 287//287 290//290
f 182//182 288//288 291//291
f 288//288 197//197 293//293
f 291//291 293//293 198//198
f 288//288 293//293 291//291
f 171//171 248//248 253//253
f 248//248 189//189 257//257
f 253//253 257//257 190//190
f 248//248 257//257 253//253
f 189//189 247//247 250//250
f 247//247 169//169 239//239
f 250//250 239//239 186//186
f 247//247 239//239 250//250
f 190//190 255//255 252//252
f 255//255 186//186 240//240
f 252//252 240//240 170//170
f 255//255 240//240 252//252
f 189//189 250//250 257//257
f 250//250 186//186 255//255
f 257//257 255//255 190//190
f 250//250 255//255 257//257
f 172//172 278//278 259//259
f 278//278 195//195 281//281
f 259//259 281//281 191//191
f 278//278 281//281 259//259
f 195//195 277//277 279//279
f 277//277 171//171 242//242
f 279//279 242//242 187//187
f 277//277 242//242 279//279
f 191//191 261//261 258//258
f 261//261 187//187 241//241
f 258//258 241//241 164//164
f 261//261 241//241 258//258
f 195//195 279//279 281//281
f 279//279 187//187 261//261
f 281//281 261//261 191//191
f 279//279 261//261 281//281
f 325//325 462//462 378//378
f 462//462 362//362 464//464
f 378//378 464//464 341//341
f 462//462 464//464 378//378
f 362//362 463//463 479//479
f 463//463 336//336 476//476
f 479//479 476//476 365//365
f 463//463 476//476 479//479
f 341//341 477//477 379//379
f 477//477 365//365 475//475
f 379//379 475//475 330//330
f 477//477 475//475 379//379
f 362//362 479//479 464//464
f 479//479 365//365 477//477
f 464//464 477//477 341//341
f 479//479 477//477 464//464
f 325//325 378//378 367//367
f 378//378 341//341 380//380
f 367//367 380//380 337//337
f 378//378 380//380 367//367
f 341//341 379//379 384//384
f 379//379 330//330 382//382
f 384//384 382//382 342//342
f 379//379 382//382 384//384
f 337//337 383//383 368//368
f 383//383 342//342 381//381
f 368//368 381//381 326//326
f 383//383 381//381 368//368
f 341//341 384//384 380//380
f 384//384 342//342 383//383
f 380//380 383//383 337//337
f 384//384 383//383 380//380
f 325//325 367//367 394//394
f 367//367 337//337 396//396
f 394//394 396//396 346//346
f 367//367 396//396 394//394
f 337//337 368//368 399//399
f 368//368 326//326 397//397
f 399//399 397//397 347//347
f 368//368 397//397 399//399
f 346//346 400//400 395//395
f 400//400 347//347 398//398
f 395//395 398//398 332//332
f 400//400 398//398 395//395
f 337//337 399//399 396//396
f 399//399 347//347 400//400
f 396//396 400//400 346//346
f 399//399 400//400 396//396
f 325//325 394//394 445//445
f 394//394 346//346 447//447
f 445//445 447//447 358//358
f 394//394 447//447 445//445
f 346//346 395//395 458//458
f 395//395 332//332 456//456
f 458//458 456//456 361//361
f 395//395 456//456 458//458
f 358//358 460//460 446//446
f 460//460 361//361 457//457
f 446//446 457//457 335//335
f 460//460 457//457 446//446
f 346//346 458//458 447//447
f 458//458 361//361 460//460
f 447//447 460//460 358//358
f 458//458 460//460 447//447
f 325//325 445//445 462//462
f 445//445 358//358 465//465
f 462//462 465//465 362//362
f 445//445 465//465 462//462
f 358//358 446//446 483//483
f 446//446 335//335 481//481
f 483//483 481//481 366//366
f 446//446 481//481 483//483
f 362//362 485//485 463//463
f 485//485 366//366 482//482
f 463//463 482//482 336//336
f 485//485 482//482 463//463
f 358//358 483//483 465//465
f 483//483 366//366 485//485
f 465//465 485//485 362//362
f 483//483 485//485 465//465
f 326//326 381//381 420//420
f 381//381 342//342 422//422
f 420//420 422//422 353//353
f 381//381 422//422 420//420
f 342//342 382//382 435//435
f 382//382 330//330 433//433
f 435//435 433//433 356//356
f 382//382 433//433 435//435
f 353//353 437//437 421//421
f 437//437 356//356 434//434
f 421//421 434//434 334//334
f 437//437 434//434 421//421
f 342//342 435//435 422//422
f 435//435 356//356 437//437
f 422//422 437//437 353//353
f 435//435 437//437 422//422
f 330//330 475//475 386//386
f 475//475 365//365 478//478
f 386//386 478//478 343//343
f 475//475 478//478 386//386
f 365//365 476//476 480//480
f 476//476 336//336 471//471
f 480//480 471//471 364//364
f 476//476 471//471 480//480
f 343//343 473//473 385//385
f 473//473 364//364 470//470
f 385//385 470//470 329//329
f 473//473 470//470 385//385
f 365//365 480//480 478//478
f 480//480 364//364 473//473
f 478//478 473//473 343//343
f 480//480 473//473 478//478
f 336//336 482//482 467//467
f 482//482 366//366 486//486
f 467//467 486//486 363//363
f 482//482 486//486 467//467
f 366//366 481//481 484//484
f 481//481 335//335 449//449
f 484//484 449//449 359//359
f 481//481 449//449 484//484
f 363//363 469//469 466//466
f 469//469 359//359 448//448
f 466//466 448//448 327//327
f 469//469 448//448 466//466
f 366//366 484//484 486//486
f 484//484 359//359 469//469
f 486//486 469//469 363//363
f 484//484 469//469 486//486
f 335//335 457//457 452//452
f 457//457 361//361 461//461
f 452//452 461//461 360//360
f 457//457 461//461 452//452
f 361//361 456//456 459//459
f 456//456 332//332 402//402
f 459//459 402//402 348//348
f 456//456 402//402 459//459
f 360//360 454//454 451//451
f 454//454 348//348 401//401
f 451//451 401//401 331//331
f 454//454 401//401 451//451
f 361//361 459//459 461//461
f 459//459 348//348 454//454
f 461//461 454//454 360//360
f 459//459 454//454 461//461
f 332//332 398//398 414//414
f 398//398 347//347 416//416
f 414//414 416//416 352//352
f 398//398 416//416 414//414
f 347//347 397//397 405//405
f 397//397 326//326 403//403
f 405//405 403//403 349//349
f 397//397 403//403 405//405
f 352//352 418//418 415//415
f 418//418 349//349 404//404
f 415//415 404//404 333//333
f 418//418 404//404 415//415
f 347//347 405//405 416//416
f 405//405 349//349 418//418
f 416//416 418//418 352//352
f 405//405 418//418 416//416
f 328//328 424//424 374//374
f 424//424 354//354 426//426
f 374//374 426//426 340//340
f 424//424 426//426 374//374
f 354//354 425//425 432//432
f 425//425 334//334 429//429
f 432//432 429//429 355//355
f 425//425 429//429 432//432
f 340//340 430//430 375//375
f 430//430 355//355 428//428
f 375//375 428//428 329//329
f 430//430 428//428 375//375
f 354//354 432//432 426//426
f 432//432 355//355 430//430
f 426//426 430//430 340//340
f 432//432 430//430 426//426
f 328//328 374//374 370//370
f 374//374 340//340 376//376
f 370//370 376//376 338//338
f 374//374 376//376 370//370
f 340//340 375//375 377//377
f 375//375 329//329 372//372
f 377//377 372//372 339//339
f 375//375 372//372 377//377
f 338//338 373//373 369//369
f 373//373 339//339 371//371
f 369//369 371//371 327//327
f 373//373 371//371 369//369
f 340//340 377//377 376//376
f 377//377 339//339 373//373
f 376//376 373//373 338//338
f 377//377 373//373 376//376
f 328//328 370//370 390//390
f 370//370 338//338 392//392
f 390//390 392//392 345//345
f 370//370 392//392 390//390
f 338//338 369//369 389//389
f 369//369 327//327 387//387
f 389//389 387//387 344//344
f 369//369 387//387 389//389
f 345//345 393//393 391//391
f 393//393 344//344 388//388
f 391//391 388//388 331//331
f 393//393 388//388 391//391
f 338//338 389//389 392//392
f 389//389 344//344 393//393
f 392//392 393//393 345//345
f 389//389 393//393 392//392
f 328//328 390//390 406//406
f 390//390 345//345 408//408
f 406//406 408//408 350//350
f 390//390 408//408 406//406
f 345//345 391//391 411//411
f 391//391 331//331 409//409
f 411//411 409//409 351//351
f 391//391 409//409 411//411
f 350//350 413//413 407//407
f 413//413 351//351 410//410
f 407//407 410//410 333//333
f 413//413 410//410 407//407
f 345//345 411//411 408//408
f 411//411 351//351 413//413
f 408//408 413//413 350//350
f 411//411 413//413 408//408
f 328//328 406//406 424//424
f 406//406 350//350 427//427
f 424//424 427//427 354//354
f 406//406 427//427 424//424
f 350//350 407//407 442//442
f 407//407 333//333 439//439
f 442//442 439//439 357//357
f 407//407 439//439 442//442
f 354//354 444//444 425//425
f 444//444 357//357 440//440
f 425//425 440//440 334//334
f 444//444 440//440 425//425
f 350//350 442//442 427//427
f 442//442 357//357 444//444
f 427//427 444//444 354//354
f 442//442 444//444 427//427
f 329//329 428//428 385//385
f 428//428 355//355 431//431
f 385//385 431//431 343//343
f 428//428 431//431 385//385
f 355//355 429//429 438//438
f 429//429 334//334 434//434
f 438//438 434//434 356//356
f 429//429 434//434 438//438
f 343//343 436//436 386//386
f 436//436 356//356 433//433
f 386//386 433//433 330//330
f 436//436 433//433 386//386
f 355//355 438//438 431//431
f 438//438 356//356 436//436
f 431//431 436//436 343//343
f 438//438 436//436 431//431
f 327//327 371//371 466//466
f 371//371 339//339 468//468
f 466//466 468//468 363//363
f 371//371 468//468 466//466
f 339//339 372//372 472//472
f 372//372 329//329 470//470
f 472//472 470//470 364//364
f 372//372 470//470 472//472
f 363//363 474//474 467//467
f 474//474 364//364 471//471
f 467//467 471//471 336//336
f 474//474 471//471 467//467
f 339//339 472//472 468//468
f 472//472 364//364 474//474
f 468//468 474//474 363//363
f 472//472 474//474 468//468
f 331//331 388//388 451//451
f 388//388 344//344 453//453
f 451//451 453//453 360//360
f 388//388 453//453 451//451
f 344//344 387//387 450//450
f 387//387 327//327 448//448
f 450//450 448//448 359//359
f 387//387 448//448 450//450
f 360//360 455//455 452//452
f 455//455 359//359 449//449
f 452//452 449//449 335//335
f 455//455 449//449 452//452
f 344//344 450//450 453//453
f 450//450 359//359 455//455
f 453//453 455//455 360//360
f 450//450 455//455 453//453
f 333//333 410//410 415//415
f 410//410 351//351 419//419
f 415//415 419//419 352//352
f 410//410 419//419 415//415
f 351//351 409//409 412//412
f 409//409 331//331 401//401
f 412//412 401//401 348//348
f 409//409 401//401 412//412
f 352//352 417//417 414//414
f 417//417 348//348 402//402
f 414//414 402//402 332//332
f 417//417 402//402 414//414
f 351//351 412//412 419//419
f 412//412 348//348 417//417
f 419//419 417//417 352//352
f 412//412 417//417 419//419
f 334//334 440//440 421//421
f 440//440 357//357 443//443
f 421//421 443//443 353//353
f 440//440 443//443 421//421
f 357//357 439//439 441//441
f 439//439 333//333 404//404
f 441//441 404//404 349//349
f 439//439 404//404 441//441
f 353//353 423//423 420//420
f 423//423 349//349 403//403
f 420//420 403//403 326//326
f 423//423 403//403 420//420
f 357//357 441//441 443//443
f 441//441 349//349 423//423
f 443//443 423//423 353//353
f 441//441 423//423 443//443

