# https://github.com/mikedh/trimesh
v 0.0130000 1.6800000 0.0000000
v 0.0119282 1.6800000 0.0040000
v 0.0090000 1.6800000 0.0069282
v 0.0050000 1.6800000 0.0080000
v 0.0010000 1.6800000 0.0069282
v -0.0019282 1.6800000 0.0040000
v -0.0030000 1.6800000 0.0000000
v -0.0019282 1.6800000 -0.0040000
v 0.0010000 1.6800000 -0.0069282
v 0.0050000 1.6800000 -0.0080000
v 0.0090000 1.6800000 -0.0069282
v 0.0119282 1.6800000 -0.0040000
v 0.0121738 1.6883889 0.0000000
v 0.0111226 1.6881798 0.0040000
v 0.0082506 1.6876085 0.0069282
v 0.0043275 1.6868282 0.0080000
v 0.0004043 1.6860478 0.0069282
v -0.0024676 1.6854765 0.0040000
v -0.0035188 1.6852674 0.0000000
v -0.0024676 1.6854765 -0.0040000
v 0.0004043 1.6860478 -0.0069282
v 0.0043275 1.6868282 -0.0080000
v 0.0082506 1.6876085 -0.0069282
v 0.0111226 1.6881798 -0.0040000
v 0.0097268 1.6964554 0.0000000
v 0.0087366 1.6960452 0.0040000
v 0.0060313 1.6949247 0.0069282
v 0.0023358 1.6933939 0.0080000
v -0.0013597 1.6918632 0.0069282
v -0.0040650 1.6907426 0.0040000
v -0.0050553 1.6903325 0.0000000
v -0.0040650 1.6907426 -0.0040000
v -0.0013597 1.6918632 -0.0069282
v 0.0023358 1.6933939 -0.0080000
v 0.0060313 1.6949247 -0.0069282
v 0.0087366 1.6960452 -0.0040000
v 0.0057532 1.7038895 0.0000000
v 0.0048620 1.7032941 0.0040000
v 0.0024273 1.7016672 0.0069282
v -0.0008986 1.6994450 0.0080000
v -0.0042244 1.6972227 0.0069282
v -0.0066592 1.6955959 0.0040000
v -0.0075503 1.6950004 0.0000000
v -0.0066592 1.6955959 -0.0040000
v -0.0042244 1.6972227 -0.0069282
v -0.0008986 1.6994450 -0.0080000
v 0.0024273 1.7016672 -0.0069282
v 0.0048620 1.7032941 -0.0040000
v 0.0004056 1.7104056 0.0000000
v -0.0003523 1.7096477 0.0040000
v -0.0024228 1.7075772 0.0069282
v -0.0052513 1.7047487 0.0080000
v -0.0080797 1.7019203 0.0069282
v -0.0101502 1.6998498 0.0040000
v -0.0109081 1.6990919 0.0000000
v -0.0101502 1.6998498 -0.0040000
v -0.0080797 1.7019203 -0.0069282
v -0.0052513 1.7047487 -0.0080000
v -0.0024228 1.7075772 -0.0069282
v -0.0003523 1.7096477 -0.0040000
v -0.0061105 1.7157532 0.0000000
v -0.0067059 1.7148620 0.0040000
v -0.0083328 1.7124273 0.0069282
v -0.0105550 1.7091014 0.0080000
v -0.0127773 1.7057756 0.0069282
v -0.0144041 1.7033408 0.0040000
v -0.0149996 1.7024497 0.0000000
v -0.0144041 1.7033408 -0.0040000
v -0.0127773 1.7057756 -0.0069282
v -0.0105550 1.7091014 -0.0080000
v -0.0083328 1.7124273 -0.0069282
v -0.0067059 1.7148620 -0.0040000
v -0.0135446 1.7197268 0.0000000
v -0.0139548 1.7187366 0.0040000
v -0.0150753 1.7160313 0.0069282
v -0.0166061 1.7123358 0.0080000
v -0.0181368 1.7086403 0.0069282
v -0.0192574 1.7059350 0.0040000
v -0.0196675 1.7049447 0.0000000
v -0.0192574 1.7059350 -0.0040000
v -0.0181368 1.7086403 -0.0069282
v -0.0166061 1.7123358 -0.0080000
v -0.0150753 1.7160313 -0.0069282
v -0.0139548 1.7187366 -0.0040000
v -0.0216111 1.7221738 0.0000000
v -0.0218202 1.7211226 0.0040000
v -0.0223915 1.7182506 0.0069282
v -0.0231718 1.7143275 0.0080000
v -0.0239522 1.7104043 0.0069282
v -0.0245235 1.7075324 0.0040000
v -0.0247326 1.7064812 0.0000000
v -0.0245235 1.7075324 -0.0040000
v -0.0239522 1.7104043 -0.0069282
v -0.0231718 1.7143275 -0.0080000
v -0.0223915 1.7182506 -0.0069282
v -0.0218202 1.7211226 -0.0040000
v -0.0300000 1.7230000 0.0000000
v -0.0300000 1.7219282 0.0040000
v -0.0300000 1.7190000 0.0069282
v -0.0300000 1.7150000 0.0080000
v -0.0300000 1.7110000 0.0069282
v -0.0300000 1.7080718 0.0040000
v -0.0300000 1.7070000 0.0000000
v -0.0300000 1.7080718 -0.0040000
v -0.0300000 1.7110000 -0.0069282
v -0.0300000 1.7150000 -0.0080000
v -0.0300000 1.7190000 -0.0069282
v -0.0300000 1.7219282 -0.0040000
v -0.0383889 1.7221738 0.0000000
v -0.0381798 1.7211226 0.0040000
v -0.0376085 1.7182506 0.0069282
v -0.0368282 1.7143275 0.0080000
v -0.0360478 1.7104043 0.0069282
v -0.0354765 1.7075324 0.0040000
v -0.0352674 1.7064812 0.0000000
v -0.0354765 1.7075324 -0.0040000
v -0.0360478 1.7104043 -0.0069282
v -0.0368282 1.7143275 -0.0080000
v -0.0376085 1.7182506 -0.0069282
v -0.0381798 1.7211226 -0.0040000
v -0.0464554 1.7197268 0.0000000
v -0.0460452 1.7187366 0.0040000
v -0.0449247 1.7160313 0.0069282
v -0.0433939 1.7123358 0.0080000
v -0.0418632 1.7086403 0.0069282
v -0.0407426 1.7059350 0.0040000
v -0.0403325 1.7049447 0.0000000
v -0.0407426 1.7059350 -0.0040000
v -0.0418632 1.7086403 -0.0069282
v -0.0433939 1.7123358 -0.0080000
v -0.0449247 1.7160313 -0.0069282
v -0.0460452 1.7187366 -0.0040000
v -0.0538895 1.7157532 0.0000000
v -0.0532941 1.7148620 0.0040000
v -0.0516672 1.7124273 0.0069282
v -0.0494450 1.7091014 0.0080000
v -0.0472227 1.7057756 0.0069282
v -0.0455959 1.7033408 0.0040000
v -0.0450004 1.7024497 0.0000000
v -0.0455959 1.7033408 -0.0040000
v -0.0472227 1.7057756 -0.0069282
v -0.0494450 1.7091014 -0.0080000
v -0.0516672 1.7124273 -0.0069282
v -0.0532941 1.7148620 -0.0040000
v -0.0604056 1.7104056 0.0000000
v -0.0596477 1.7096477 0.0040000
v -0.0575772 1.7075772 0.0069282
v -0.0547487 1.7047487 0.0080000
v -0.0519203 1.7019203 0.0069282
v -0.0498498 1.6998498 0.0040000
v -0.0490919 1.6990919 0.0000000
v -0.0498498 1.6998498 -0.0040000
v -0.0519203 1.7019203 -0.0069282
v -0.0547487 1.7047487 -0.0080000
v -0.0575772 1.7075772 -0.0069282
v -0.0596477 1.7096477 -0.0040000
v -0.0657532 1.7038895 0.0000000
v -0.0648620 1.7032941 0.0040000
v -0.0624273 1.7016672 0.0069282
v -0.0591014 1.6994450 0.0080000
v -0.0557756 1.6972227 0.0069282
v -0.0533408 1.6955959 0.0040000
v -0.0524497 1.6950004 0.0000000
v -0.0533408 1.6955959 -0.0040000
v -0.0557756 1.6972227 -0.0069282
v -0.0591014 1.6994450 -0.0080000
v -0.0624273 1.7016672 -0.0069282
v -0.0648620 1.7032941 -0.0040000
v -0.0697268 1.6964554 0.0000000
v -0.0687366 1.6960452 0.0040000
v -0.0660313 1.6949247 0.0069282
v -0.0623358 1.6933939 0.0080000
v -0.0586403 1.6918632 0.0069282
v -0.0559350 1.6907426 0.0040000
v -0.0549447 1.6903325 0.0000000
v -0.0559350 1.6907426 -0.0040000
v -0.0586403 1.6918632 -0.0069282
v -0.0623358 1.6933939 -0.0080000
v -0.0660313 1.6949247 -0.0069282
v -0.0687366 1.6960452 -0.0040000
v -0.0721738 1.6883889 0.0000000
v -0.0711226 1.6881798 0.0040000
v -0.0682506 1.6876085 0.0069282
v -0.0643275 1.6868282 0.0080000
v -0.0604043 1.6860478 0.0069282
v -0.0575324 1.6854765 0.0040000
v -0.0564812 1.6852674 0.0000000
v -0.0575324 1.6854765 -0.0040000
v -0.0604043 1.6860478 -0.0069282
v -0.0643275 1.6868282 -0.0080000
v -0.0682506 1.6876085 -0.0069282
v -0.0711226 1.6881798 -0.0040000
v -0.0730000 1.6800000 0.0000000
v -0.0719282 1.6800000 0.0040000
v -0.0690000 1.6800000 0.0069282
v -0.0650000 1.6800000 0.0080000
v -0.0610000 1.6800000 0.0069282
v -0.0580718 1.6800000 0.0040000
v -0.0570000 1.6800000 0.0000000
v -0.0580718 1.6800000 -0.0040000
v -0.0610000 1.6800000 -0.0069282
v -0.0650000 1.6800000 -0.0080000
v -0.0690000 1.6800000 -0.0069282
v -0.0719282 1.6800000 -0.0040000
v -0.0721738 1.6716111 0.0000000
v -0.0711226 1.6718202 0.0040000
v -0.0682506 1.6723915 0.0069282
v -0.0643275 1.6731718 0.0080000
v -0.0604043 1.6739522 0.0069282
v -0.0575324 1.6745235 0.0040000
v -0.0564812 1.6747326 0.0000000
v -0.0575324 1.6745235 -0.0040000
v -0.0604043 1.6739522 -0.0069282
v -0.0643275 1.6731718 -0.0080000
v -0.0682506 1.6723915 -0.0069282
v -0.0711226 1.6718202 -0.0040000
v -0.0697268 1.6635446 0.0000000
v -0.0687366 1.6639548 0.0040000
v -0.0660313 1.6650753 0.0069282
v -0.0623358 1.6666061 0.0080000
v -0.0586403 1.6681368 0.0069282
v -0.0559350 1.6692574 0.0040000
v -0.0549447 1.6696675 0.0000000
v -0.0559350 1.6692574 -0.0040000
v -0.0586403 1.6681368 -0.0069282
v -0.0623358 1.6666061 -0.0080000
v -0.0660313 1.6650753 -0.0069282
v -0.0687366 1.6639548 -0.0040000
v -0.0657532 1.6561105 0.0000000
v -0.0648620 1.6567059 0.0040000
v -0.0624273 1.6583328 0.0069282
v -0.0591014 1.6605550 0.0080000
v -0.0557756 1.6627773 0.0069282
v -0.0533408 1.6644041 0.0040000
v -0.0524497 1.6649996 0.0000000
v -0.0533408 1.6644041 -0.0040000
v -0.0557756 1.6627773 -0.0069282
v -0.0591014 1.6605550 -0.0080000
v -0.0624273 1.6583328 -0.0069282
v -0.0648620 1.6567059 -0.0040000
v -0.0604056 1.6495944 0.0000000
v -0.0596477 1.6503523 0.0040000
v -0.0575772 1.6524228 0.0069282
v -0.0547487 1.6552513 0.0080000
v -0.0519203 1.6580797 0.0069282
v -0.0498498 1.6601502 0.0040000
v -0.0490919 1.6609081 0.0000000
v -0.0498498 1.6601502 -0.0040000
v -0.0519203 1.6580797 -0.0069282
v -0.0547487 1.6552513 -0.0080000
v -0.0575772 1.6524228 -0.0069282
v -0.0596477 1.6503523 -0.0040000
v -0.0538895 1.6442468 0.0000000
v -0.0532941 1.6451380 0.0040000
v -0.0516672 1.6475727 0.0069282
v -0.0494450 1.6508986 0.0080000
v -0.0472227 1.6542244 0.0069282
v -0.0455959 1.6566592 0.0040000
v -0.0450004 1.6575503 0.0000000
v -0.0455959 1.6566592 -0.0040000
v -0.0472227 1.6542244 -0.0069282
v -0.0494450 1.6508986 -0.0080000
v -0.0516672 1.6475727 -0.0069282
v -0.0532941 1.6451380 -0.0040000
v -0.0464554 1.6402732 0.0000000
v -0.0460452 1.6412634 0.0040000
v -0.0449247 1.6439687 0.0069282
v -0.0433939 1.6476642 0.0080000
v -0.0418632 1.6513597 0.0069282
v -0.0407426 1.6540650 0.0040000
v -0.0403325 1.6550553 0.0000000
v -0.0407426 1.6540650 -0.0040000
v -0.0418632 1.6513597 -0.0069282
v -0.0433939 1.6476642 -0.0080000
v -0.0449247 1.6439687 -0.0069282
v -0.0460452 1.6412634 -0.0040000
v -0.0383889 1.6378262 0.0000000
v -0.0381798 1.6388774 0.0040000
v -0.0376085 1.6417494 0.0069282
v -0.0368282 1.6456725 0.0080000
v -0.0360478 1.6495957 0.0069282
v -0.0354765 1.6524676 0.0040000
v -0.0352674 1.6535188 0.0000000
v -0.0354765 1.6524676 -0.0040000
v -0.0360478 1.6495957 -0.0069282
v -0.0368282 1.6456725 -0.0080000
v -0.0376085 1.6417494 -0.0069282
v -0.0381798 1.6388774 -0.0040000
v -0.0300000 1.6370000 0.0000000
v -0.0300000 1.6380718 0.0040000
v -0.0300000 1.6410000 0.0069282
v -0.0300000 1.6450000 0.0080000
v -0.0300000 1.6490000 0.0069282
v -0.0300000 1.6519282 0.0040000
v -0.0300000 1.6530000 0.0000000
v -0.0300000 1.6519282 -0.0040000
v -0.0300000 1.6490000 -0.0069282
v -0.0300000 1.6450000 -0.0080000
v -0.0300000 1.6410000 -0.0069282
v -0.0300000 1.6380718 -0.0040000
v -0.0216111 1.6378262 0.0000000
v -0.0218202 1.6388774 0.0040000
v -0.0223915 1.6417494 0.0069282
v -0.0231718 1.6456725 0.0080000
v -0.0239522 1.6495957 0.0069282
v -0.0245235 1.6524676 0.0040000
v -0.0247326 1.6535188 0.0000000
v -0.0245235 1.6524676 -0.0040000
v -0.0239522 1.6495957 -0.0069282
v -0.0231718 1.6456725 -0.0080000
v -0.0223915 1.6417494 -0.0069282
v -0.0218202 1.6388774 -0.0040000
v -0.0135446 1.6402732 0.0000000
v -0.0139548 1.6412634 0.0040000
v -0.0150753 1.6439687 0.0069282
v -0.0166061 1.6476642 0.0080000
v -0.0181368 1.6513597 0.0069282
v -0.0192574 1.6540650 0.0040000
v -0.0196675 1.6550553 0.0000000
v -0.0192574 1.6540650 -0.0040000
v -0.0181368 1.6513597 -0.0069282
v -0.0166061 1.6476642 -0.0080000
v -0.0150753 1.6439687 -0.0069282
v -0.0139548 1.6412634 -0.0040000
v -0.0061105 1.6442468 0.0000000
v -0.0067059 1.6451380 0.0040000
v -0.0083328 1.6475727 0.0069282
v -0.0105550 1.6508986 0.0080000
v -0.0127773 1.6542244 0.0069282
v -0.0144041 1.6566592 0.0040000
v -0.0149996 1.6575503 0.0000000
v -0.0144041 1.6566592 -0.0040000
v -0.0127773 1.6542244 -0.0069282
v -0.0105550 1.6508986 -0.0080000
v -0.0083328 1.6475727 -0.0069282
v -0.0067059 1.6451380 -0.0040000
v 0.0004056 1.6495944 0.0000000
v -0.0003523 1.6503523 0.0040000
v -0.0024228 1.6524228 0.0069282
v -0.0052513 1.6552513 0.0080000
v -0.0080797 1.6580797 0.0069282
v -0.0101502 1.6601502 0.0040000
v -0.0109081 1.6609081 0.0000000
v -0.0101502 1.6601502 -0.0040000
v -0.0080797 1.6580797 -0.0069282
v -0.0052513 1.6552513 -0.0080000
v -0.0024228 1.6524228 -0.0069282
v -0.0003523 1.6503523 -0.0040000
v 0.0057532 1.6561105 0.0000000
v 0.0048620 1.6567059 0.0040000
v 0.0024273 1.6583328 0.0069282
v -0.0008986 1.6605550 0.0080000
v -0.0042244 1.6627773 0.0069282
v -0.0066592 1.6644041 0.0040000
v -0.0075503 1.6649996 0.0000000
v -0.0066592 1.6644041 -0.0040000
v -0.0042244 1.6627773 -0.0069282
v -0.0008986 1.6605550 -0.0080000
v 0.0024273 1.6583328 -0.0069282
v 0.0048620 1.6567059 -0.0040000
v 0.0097268 1.6635446 0.0000000
v 0.0087366 1.6639548 0.0040000
v 0.0060313 1.6650753 0.0069282
v 0.0023358 1.6666061 0.0080000
v -0.0013597 1.6681368 0.0069282
v -0.0040650 1.6692574 0.0040000
v -0.0050553 1.6696675 0.0000000
v -0.0040650 1.6692574 -0.0040000
v -0.0013597 1.6681368 -0.0069282
v 0.0023358 1.6666061 -0.0080000
v 0.0060313 1.6650753 -0.0069282
v 0.0087366 1.6639548 -0.0040000
v 0.0121738 1.6716111 0.0000000
v 0.0111226 1.6718202 0.0040000
v 0.0082506 1.6723915 0.0069282
v 0.0043275 1.6731718 0.0080000
v 0.0004043 1.6739522 0.0069282
v -0.0024676 1.6745235 0.0040000
v -0.0035188 1.6747326 0.0000000
v -0.0024676 1.6745235 -0.0040000
v 0.0004043 1.6739522 -0.0069282
v 0.0043275 1.6731718 -0.0080000
v 0.0082506 1.6723915 -0.0069282
v 0.0111226 1.6718202 -0.0040000
v 0.0100000 1.6800000 0.0000000
v 0.0089282 1.6760000 0.0000000
v 0.0060000 1.6730718 0.0000000
v 0.0020000 1.6720000 0.0000000
v -0.0020000 1.6730718 0.0000000
v -0.0049282 1.6760000 0.0000000
v -0.0060000 1.6800000 0.0000000
v -0.0049282 1.6840000 -0.0000000
v -0.0020000 1.6869282 -0.0000000
v 0.0020000 1.6880000 -0.0000000
v 0.0060000 1.6869282 -0.0000000
v 0.0089282 1.6840000 -0.0000000
v 0.0092314 1.6800000 0.0078036
v 0.0081802 1.6760000 0.0075945
v 0.0053083 1.6730718 0.0070233
v 0.0013851 1.6720000 0.0062429
v -0.0025380 1.6730718 0.0054625
v -0.0054100 1.6760000 0.0048913
v -0.0064612 1.6800000 0.0046822
v -0.0054100 1.6840000 0.0048913
v -0.0025380 1.6869282 0.0054625
v 0.0013851 1.6880000 0.0062429
v 0.0053083 1.6869282 0.0070233
v 0.0081802 1.6840000 0.0075945
v 0.0069552 1.6800000 0.0153073
v 0.0059650 1.6760000 0.0148972
v 0.0032597 1.6730718 0.0137766
v -0.0004359 1.6720000 0.0122459
v -0.0041314 1.6730718 0.0107151
v -0.0068367 1.6760000 0.0095946
v -0.0078269 1.6800000 0.0091844
v -0.0068367 1.6840000 0.0095946
v -0.0041314 1.6869282 0.0107151
v -0.0004359 1.6880000 0.0122459
v 0.0032597 1.6869282 0.0137766
v 0.0059650 1.6840000 0.0148972
v 0.0032588 1.6800000 0.0222228
v 0.0023676 1.6760000 0.0216274
v -0.0000671 1.6730718 0.0200005
v -0.0033930 1.6720000 0.0177782
v -0.0067189 1.6730718 0.0155560
v -0.0091536 1.6760000 0.0139291
v -0.0100447 1.6800000 0.0133337
v -0.0091536 1.6840000 0.0139291
v -0.0067189 1.6869282 0.0155560
v -0.0033930 1.6880000 0.0177782
v -0.0000671 1.6869282 0.0200005
v 0.0023676 1.6840000 0.0216274
v -0.0017157 1.6800000 0.0282843
v -0.0024736 1.6760000 0.0275264
v -0.0045442 1.6730718 0.0254558
v -0.0073726 1.6720000 0.0226274
v -0.0102010 1.6730718 0.0197990
v -0.0122716 1.6760000 0.0177284
v -0.0130294 1.6800000 0.0169706
v -0.0122716 1.6840000 0.0177284
v -0.0102010 1.6869282 0.0197990
v -0.0073726 1.6880000 0.0226274
v -0.0045442 1.6869282 0.0254558
v -0.0024736 1.6840000 0.0275264
v -0.0077772 1.6800000 0.0332588
v -0.0083726 1.6760000 0.0323676
v -0.0099995 1.6730718 0.0299329
v -0.0122218 1.6720000 0.0266070
v -0.0144440 1.6730718 0.0232811
v -0.0160709 1.6760000 0.0208464
v -0.0166663 1.6800000 0.0199553
v -0.0160709 1.6840000 0.0208464
v -0.0144440 1.6869282 0.0232811
v -0.0122218 1.6880000 0.0266070
v -0.0099995 1.6869282 0.0299329
v -0.0083726 1.6840000 0.0323676
v -0.0146927 1.6800000 0.0369552
v -0.0151028 1.6760000 0.0359650
v -0.0162234 1.6730718 0.0332597
v -0.0177541 1.6720000 0.0295641
v -0.0192849 1.6730718 0.0258686
v -0.0204054 1.6760000 0.0231633
v -0.0208156 1.6800000 0.0221731
v -0.0204054 1.6840000 0.0231633
v -0.0192849 1.6869282 0.0258686
v -0.0177541 1.6880000 0.0295641
v -0.0162234 1.6869282 0.0332597
v -0.0151028 1.6840000 0.0359650
v -0.0221964 1.6800000 0.0392314
v -0.0224055 1.6760000 0.0381802
v -0.0229767 1.6730718 0.0353083
v -0.0237571 1.6720000 0.0313851
v -0.0245375 1.6730718 0.0274620
v -0.0251087 1.6760000 0.0245900
v -0.0253178 1.6800000 0.0235388
v -0.0251087 1.6840000 0.0245900
v -0.0245375 1.6869282 0.0274620
v -0.0237571 1.6880000 0.0313851
v -0.0229767 1.6869282 0.0353083
v -0.0224055 1.6840000 0.0381802
v -0.0300000 1.6800000 0.0400000
v -0.0300000 1.6760000 0.0389282
v -0.0300000 1.6730718 0.0360000
v -0.0300000 1.6720000 0.0320000
v -0.0300000 1.6730718 0.0280000
v -0.0300000 1.6760000 0.0250718
v -0.0300000 1.6800000 0.0240000
v -0.0300000 1.6840000 0.0250718
v -0.0300000 1.6869282 0.0280000
v -0.0300000 1.6880000 0.0320000
v -0.0300000 1.6869282 0.0360000
v -0.0300000 1.6840000 0.0389282
v -0.0378036 1.6800000 0.0392314
v -0.0375945 1.6760000 0.0381802
v -0.0370233 1.6730718 0.0353083
v -0.0362429 1.6720000 0.0313851
v -0.0354625 1.6730718 0.0274620
v -0.0348913 1.6760000 0.0245900
v -0.0346822 1.6800000 0.0235388
v -0.0348913 1.6840000 0.0245900
v -0.0354625 1.6869282 0.0274620
v -0.0362429 1.6880000 0.0313851
v -0.0370233 1.6869282 0.0353083
v -0.0375945 1.6840000 0.0381802
v -0.0453073 1.6800000 0.0369552
v -0.0448972 1.6760000 0.0359650
v -0.0437766 1.6730718 0.0332597
v -0.0422459 1.6720000 0.0295641
v -0.0407151 1.6730718 0.0258686
v -0.0395946 1.6760000 0.0231633
v -0.0391844 1.6800000 0.0221731
v -0.0395946 1.6840000 0.0231633
v -0.0407151 1.6869282 0.0258686
v -0.0422459 1.6880000 0.0295641
v -0.0437766 1.6869282 0.0332597
v -0.0448972 1.6840000 0.0359650
v -0.0522228 1.6800000 0.0332588
v -0.0516274 1.6760000 0.0323676
v -0.0500005 1.6730718 0.0299329
v -0.0477782 1.6720000 0.0266070
v -0.0455560 1.6730718 0.0232811
v -0.0439291 1.6760000 0.0208464
v -0.0433337 1.6800000 0.0199553
v -0.0439291 1.6840000 0.0208464
v -0.0455560 1.6869282 0.0232811
v -0.0477782 1.6880000 0.0266070
v -0.0500005 1.6869282 0.0299329
v -0.0516274 1.6840000 0.0323676
v -0.0582843 1.6800000 0.0282843
v -0.0575264 1.6760000 0.0275264
v -0.0554558 1.6730718 0.0254558
v -0.0526274 1.6720000 0.0226274
v -0.0497990 1.6730718 0.0197990
v -0.0477284 1.6760000 0.0177284
v -0.0469706 1.6800000 0.0169706
v -0.0477284 1.6840000 0.0177284
v -0.0497990 1.6869282 0.0197990
v -0.0526274 1.6880000 0.0226274
v -0.0554558 1.6869282 0.0254558
v -0.0575264 1.6840000 0.0275264
v -0.0632588 1.6800000 0.0222228
v -0.0623676 1.6760000 0.0216274
v -0.0599329 1.6730718 0.0200005
v -0.0566070 1.6720000 0.0177782
v -0.0532811 1.6730718 0.0155560
v -0.0508464 1.6760000 0.0139291
v -0.0499553 1.6800000 0.0133337
v -0.0508464 1.6840000 0.0139291
v -0.0532811 1.6869282 0.0155560
v -0.0566070 1.6880000 0.0177782
v -0.0599329 1.6869282 0.0200005
v -0.0623676 1.6840000 0.0216274
v -0.0669552 1.6800000 0.0153073
v -0.0659650 1.6760000 0.0148972
v -0.0632597 1.6730718 0.0137766
v -0.0595641 1.6720000 0.0122459
v -0.0558686 1.6730718 0.0107151
v -0.0531633 1.6760000 0.0095946
v -0.0521731 1.6800000 0.0091844
v -0.0531633 1.6840000 0.0095946
v -0.0558686 1.6869282 0.0107151
v -0.0595641 1.6880000 0.0122459
v -0.0632597 1.6869282 0.0137766
v -0.0659650 1.6840000 0.0148972
v -0.0692314 1.6800000 0.0078036
v -0.0681802 1.6760000 0.0075945
v -0.0653083 1.6730718 0.0070233
v -0.0613851 1.6720000 0.0062429
v -0.0574620 1.6730718 0.0054625
v -0.0545900 1.6760000 0.0048913
v -0.0535388 1.6800000 0.0046822
v -0.0545900 1.6840000 0.0048913
v -0.0574620 1.6869282 0.0054625
v -0.0613851 1.6880000 0.0062429
v -0.0653083 1.6869282 0.0070233
v -0.0681802 1.6840000 0.0075945
v -0.0700000 1.6800000 0.0000000
v -0.0689282 1.6760000 0.0000000
v -0.0660000 1.6730718 0.0000000
v -0.0620000 1.6720000 0.0000000
v -0.0580000 1.6730718 0.0000000
v -0.0550718 1.6760000 0.0000000
v -0.0540000 1.6800000 0.0000000
v -0.0550718 1.6840000 0.0000000
v -0.0580000 1.6869282 0.0000000
v -0.0620000 1.6880000 0.0000000
v -0.0660000 1.6869282 0.0000000
v -0.0689282 1.6840000 0.0000000
v -0.0692314 1.6800000 -0.0078036
v -0.0681802 1.6760000 -0.0075945
v -0.0653083 1.6730718 -0.0070233
v -0.0613851 1.6720000 -0.0062429
v -0.0574620 1.6730718 -0.0054625
v -0.0545900 1.6760000 -0.0048913
v -0.0535388 1.6800000 -0.0046822
v -0.0545900 1.6840000 -0.0048913
v -0.0574620 1.6869282 -0.0054625
v -0.0613851 1.6880000 -0.0062429
v -0.0653083 1.6869282 -0.0070233
v -0.0681802 1.6840000 -0.0075945
v -0.0669552 1.6800000 -0.0153073
v -0.0659650 1.6760000 -0.0148972
v -0.0632597 1.6730718 -0.0137766
v -0.0595641 1.6720000 -0.0122459
v -0.0558686 1.6730718 -0.0107151
v -0.0531633 1.6760000 -0.0095946
v -0.0521731 1.6800000 -0.0091844
v -0.0531633 1.6840000 -0.0095946
v -0.0558686 1.6869282 -0.0107151
v -0.0595641 1.6880000 -0.0122459
v -0.0632597 1.6869282 -0.0137766
v -0.0659650 1.6840000 -0.0148972
v -0.0632588 1.6800000 -0.0222228
v -0.0623676 1.6760000 -0.0216274
v -0.0599329 1.6730718 -0.0200005
v -0.0566070 1.6720000 -0.0177782
v -0.0532811 1.6730718 -0.0155560
v -0.0508464 1.6760000 -0.0139291
v -0.0499553 1.6800000 -0.0133337
v -0.0508464 1.6840000 -0.0139291
v -0.0532811 1.6869282 -0.0155560
v -0.0566070 1.6880000 -0.0177782
v -0.0599329 1.6869282 -0.0200005
v -0.0623676 1.6840000 -0.0216274
v -0.0582843 1.6800000 -0.0282843
v -0.0575264 1.6760000 -0.0275264
v -0.0554558 1.6730718 -0.0254558
v -0.0526274 1.6720000 -0.0226274
v -0.0497990 1.6730718 -0.0197990
v -0.0477284 1.6760000 -0.0177284
v -0.0469706 1.6800000 -0.0169706
v -0.0477284 1.6840000 -0.0177284
v -0.0497990 1.6869282 -0.0197990
v -0.0526274 1.6880000 -0.0226274
v -0.0554558 1.6869282 -0.0254558
v -0.0575264 1.6840000 -0.0275264
v -0.0522228 1.6800000 -0.0332588
v -0.0516274 1.6760000 -0.0323676
v -0.0500005 1.6730718 -0.0299329
v -0.0477782 1.6720000 -0.0266070
v -0.0455560 1.6730718 -0.0232811
v -0.0439291 1.6760000 -0.0208464
v -0.0433337 1.6800000 -0.0199553
v -0.0439291 1.6840000 -0.0208464
v -0.0455560 1.6869282 -0.0232811
v -0.0477782 1.6880000 -0.0266070
v -0.0500005 1.6869282 -0.0299329
v -0.0516274 1.6840000 -0.0323676
v -0.0453073 1.6800000 -0.0369552
v -0.0448972 1.6760000 -0.0359650
v -0.0437766 1.6730718 -0.0332597
v -0.0422459 1.6720000 -0.0295641
v -0.0407151 1.6730718 -0.0258686
v -0.0395946 1.6760000 -0.0231633
v -0.0391844 1.6800000 -0.0221731
v -0.0395946 1.6840000 -0.0231633
v -0.0407151 1.6869282 -0.0258686
v -0.0422459 1.6880000 -0.0295641
v -0.0437766 1.6869282 -0.0332597
v -0.0448972 1.6840000 -0.0359650
v -0.0378036 1.6800000 -0.0392314
v -0.0375945 1.6760000 -0.0381802
v -0.0370233 1.6730718 -0.0353083
v -0.0362429 1.6720000 -0.0313851
v -0.0354625 1.6730718 -0.0274620
v -0.0348913 1.6760000 -0.0245900
v -0.0346822 1.6800000 -0.0235388
v -0.0348913 1.6840000 -0.0245900
v -0.0354625 1.6869282 -0.0274620
v -0.0362429 1.6880000 -0.0313851
v -0.0370233 1.6869282 -0.0353083
v -0.0375945 1.6840000 -0.0381802
v -0.0300000 1.6800000 -0.0400000
v -0.0300000 1.6760000 -0.0389282
v -0.0300000 1.6730718 -0.0360000
v -0.0300000 1.6720000 -0.0320000
v -0.0300000 1.6730718 -0.0280000
v -0.0300000 1.6760000 -0.0250718
v -0.0300000 1.6800000 -0.0240000
v -0.0300000 1.6840000 -0.0250718
v -0.0300000 1.6869282 -0.0280000
v -0.0300000 1.6880000 -0.0320000
v -0.0300000 1.6869282 -0.0360000
v -0.0300000 1.6840000 -0.0389282
v -0.0221964 1.6800000 -0.0392314
v -0.0224055 1.6760000 -0.0381802
v -0.0229767 1.6730718 -0.0353083
v -0.0237571 1.6720000 -0.0313851
v -0.0245375 1.6730718 -0.0274620
v -0.0251087 1.6760000 -0.0245900
v -0.0253178 1.6800000 -0.0235388
v -0.0251087 1.6840000 -0.0245900
v -0.0245375 1.6869282 -0.0274620
v -0.0237571 1.6880000 -0.0313851
v -0.0229767 1.6869282 -0.0353083
v -0.0224055 1.6840000 -0.0381802
v -0.0146927 1.6800000 -0.0369552
v -0.0151028 1.6760000 -0.0359650
v -0.0162234 1.6730718 -0.0332597
v -0.0177541 1.6720000 -0.0295641
v -0.0192849 1.6730718 -0.0258686
v -0.0204054 1.6760000 -0.0231633
v -0.0208156 1.6800000 -0.0221731
v -0.0204054 1.6840000 -0.0231633
v -0.0192849 1.6869282 -0.0258686
v -0.0177541 1.6880000 -0.0295641
v -0.0162234 1.6869282 -0.0332597
v -0.0151028 1.6840000 -0.0359650
v -0.0077772 1.6800000 -0.0332588
v -0.0083726 1.6760000 -0.0323676
v -0.0099995 1.6730718 -0.0299329
v -0.0122218 1.6720000 -0.0266070
v -0.0144440 1.6730718 -0.0232811
v -0.0160709 1.6760000 -0.0208464
v -0.0166663 1.6800000 -0.0199553
v -0.0160709 1.6840000 -0.0208464
v -0.0144440 1.6869282 -0.0232811
v -0.0122218 1.6880000 -0.0266070
v -0.0099995 1.6869282 -0.0299329
v -0.0083726 1.6840000 -0.0323676
v -0.0017157 1.6800000 -0.0282843
v -0.0024736 1.6760000 -0.0275264
v -0.0045442 1.6730718 -0.0254558
v -0.0073726 1.6720000 -0.0226274
v -0.0102010 1.6730718 -0.0197990
v -0.0122716 1.6760000 -0.0177284
v -0.0130294 1.6800000 -0.0169706
v -0.0122716 1.6840000 -0.0177284
v -0.0102010 1.6869282 -0.0197990
v -0.0073726 1.6880000 -0.0226274
v -0.0045442 1.6869282 -0.0254558
v -0.0024736 1.6840000 -0.0275264
v 0.0032588 1.6800000 -0.0222228
v 0.0023676 1.6760000 -0.0216274
v -0.0000671 1.6730718 -0.0200005
v -0.0033930 1.6720000 -0.0177782
v -0.0067189 1.6730718 -0.0155560
v -0.0091536 1.6760000 -0.0139291
v -0.0100447 1.6800000 -0.0133337
v -0.0091536 1.6840000 -0.0139291
v -0.0067189 1.6869282 -0.0155560
v -0.0033930 1.6880000 -0.0177782
v -0.0000671 1.6869282 -0.0200005
v 0.0023676 1.6840000 -0.0216274
v 0.0069552 1.6800000 -0.0153073
v 0.0059650 1.6760000 -0.0148972
v 0.0032597 1.6730718 -0.0137766
v -0.0004359 1.6720000 -0.0122459
v -0.0041314 1.6730718 -0.0107151
v -0.0068367 1.6760000 -0.0095946
v -0.0078269 1.6800000 -0.0091844
v -0.0068367 1.6840000 -0.0095946
v -0.0041314 1.6869282 -0.0107151
v -0.0004359 1.6880000 -0.0122459
v 0.0032597 1.6869282 -0.0137766
v 0.0059650 1.6840000 -0.0148972
v 0.0092314 1.6800000 -0.0078036
v 0.0081802 1.6760000 -0.0075945
v 0.0053083 1.6730718 -0.0070233
v 0.0013851 1.6720000 -0.0062429
v -0.0025380 1.6730718 -0.0054625
v -0.0054100 1.6760000 -0.0048913
v -0.0064612 1.6800000 -0.0046822
v -0.0054100 1.6840000 -0.0048913
v -0.0025380 1.6869282 -0.0054625
v 0.0013851 1.6880000 -0.0062429
v 0.0053083 1.6869282 -0.0070233
v 0.0081802 1.6840000 -0.0075945
vn 1.0000000 -0.0000000 -0.0000000
vn 0.8699560 0.0000000 0.4931294
vn 0.5119350 -0.0000000 0.8590242
vn 0.0161723 -0.0000000 0.9998692
vn -0.4876789 0.0000000 0.8730231
vn -0.8618723 -0.0000000 0.5071255
vn -1.0000000 -0.0000000 0.0000000
vn -0.8618723 0.0000000 -0.5071255
vn -0.4876789 0.0000000 -0.8730231
vn 0.0161723 -0.0000000 -0.9998692
vn 0.5119350 -0.0000000 -0.8590242
vn 0.8699560 -0.0000000 -0.4931294
vn 0.9807853 0.1950903 0.0000000
vn 0.8532400 0.1697200 0.4931294
vn 0.5020983 0.0998736 0.8590242
vn 0.0158616 0.0031551 0.9998692
vn -0.4783083 -0.0951414 0.8730231
vn -0.8453116 -0.1681429 0.5071255
vn -0.9807853 -0.1950903 -0.0000000
vn -0.8453116 -0.1681429 -0.5071255
vn -0.4783083 -0.0951414 -0.8730231
vn 0.0158616 0.0031551 -0.9998692
vn 0.5020983 0.0998736 -0.8590242
vn 0.8532400 0.1697200 -0.4931294
vn 0.9238795 0.3826834 -0.0000000
vn 0.8037345 0.3329177 0.4931294
vn 0.4729662 0.1959090 0.8590242
vn 0.0149413 0.0061889 0.9998692
vn -0.4505566 -0.1866266 0.8730231
vn -0.7962661 -0.3298242 0.5071255
vn -0.9238795 -0.3826834 -0.0000000
vn -0.7962661 -0.3298242 -0.5071255
vn -0.4505566 -0.1866266 -0.8730231
vn 0.0149413 0.0061889 -0.9998692
vn 0.4729662 0.1959090 -0.8590242
vn 0.8037345 0.3329177 -0.4931294
vn 0.8314696 0.5555702 -0.0000000
vn 0.7233420 0.4833216 0.4931294
vn 0.4256584 0.2844158 0.8590242
vn 0.0134468 0.0089849 0.9998692
vn -0.4054902 -0.2709399 0.8730231
vn -0.7166206 -0.4788306 0.5071255
vn -0.8314696 -0.5555702 0.0000000
vn -0.7166206 -0.4788306 -0.5071255
vn -0.4054902 -0.2709399 -0.8730231
vn 0.0134468 0.0089849 -0.9998692
vn 0.4256584 0.2844158 -0.8590242
vn 0.7233420 0.4833216 -0.4931294
vn 0.7071068 0.7071068 0.0000000
vn 0.6151518 0.6151518 0.4931294
vn 0.3619927 0.3619927 0.8590242
vn 0.0114356 0.0114356 0.9998692
vn -0.3448411 -0.3448411 0.8730231
vn -0.6094357 -0.6094357 0.5071255
vn -0.7071068 -0.7071068 -0.0000000
vn -0.6094357 -0.6094357 -0.5071255
vn -0.3448411 -0.3448411 -0.8730231
vn 0.0114356 0.0114356 -0.9998692
vn 0.3619927 0.3619927 -0.8590242
vn 0.6151518 0.6151518 -0.4931294
vn 0.5555702 0.8314696 -0.0000000
vn 0.4833216 0.7233420 0.4931294
vn 0.2844158 0.4256584 0.8590242
vn 0.0089849 0.0134468 0.9998692
vn -0.2709399 -0.4054902 0.8730231
vn -0.4788306 -0.7166206 0.5071255
vn -0.5555702 -0.8314696 -0.0000000
vn -0.4788306 -0.7166206 -0.5071255
vn -0.2709399 -0.4054902 -0.8730231
vn 0.0089849 0.0134468 -0.9998692
vn 0.2844158 0.4256584 -0.8590242
vn 0.4833216 0.7233420 -0.4931294
vn 0.3826834 0.9238795 -0.0000000
vn 0.3329177 0.8037345 0.4931294
vn 0.1959090 0.4729662 0.8590242
vn 0.0061889 0.0149413 0.9998692
vn -0.1866266 -0.4505566 0.8730231
vn -0.3298242 -0.7962661 0.5071255
vn -0.3826834 -0.9238795 0.0000000
vn -0.3298242 -0.7962661 -0.5071255
vn -0.1866266 -0.4505566 -0.8730231
vn 0.0061889 0.0149413 -0.9998692
vn 0.1959090 0.4729662 -0.8590242
vn 0.3329177 0.8037345 -0.4931294
vn 0.1950903 0.9807853 0.0000000
vn 0.1697200 0.8532400 0.4931294
vn 0.0998736 0.5020983 0.8590242
vn 0.0031551 0.0158616 0.9998692
vn -0.0951414 -0.4783083 0.8730231
vn -0.1681429 -0.8453116 0.5071255
vn -0.1950903 -0.9807853 0.0000000
vn -0.1681429 -0.8453116 -0.5071255
vn -0.0951414 -0.4783083 -0.8730231
vn 0.0031551 0.0158616 -0.9998692
vn 0.0998736 0.5020983 -0.8590242
vn 0.1697200 0.8532400 -0.4931294
vn 0.0000000 1.0000000 0.0000000
vn 0.0000000 0.8699560 0.4931294
vn -0.0000000 0.5119350 0.8590242
vn 0.0000000 0.0161723 0.9998692
vn -0.0000000 -0.4876789 0.8730231
vn -0.0000000 -0.8618723 0.5071255
vn 0.0000000 -1.0000000 -0.0000000
vn 0.0000000 -0.8618723 -0.5071255
vn 0.0000000 -0.4876789 -0.8730231
vn -0.0000000 0.0161723 -0.9998692
vn 0.0000000 0.5119350 -0.8590242
vn -0.0000000 0.8699560 -0.4931294
vn -0.1950903 0.9807853 -0.0000000
vn -0.1697200 0.8532400 0.4931294
vn -0.0998736 0.5020983 0.8590242
vn -0.0031551 0.0158616 0.9998692
vn 0.0951414 -0.4783083 0.8730231
vn 0.1681429 -0.8453116 0.5071255
vn 0.1950903 -0.9807853 -0.0000000
vn 0.1681429 -0.8453116 -0.5071255
vn 0.0951414 -0.4783083 -0.8730231
vn -0.0031551 0.0158616 -0.9998692
vn -0.0998736 0.5020983 -0.8590242
vn -0.1697200 0.8532400 -0.4931294
vn -0.3826834 0.9238795 0.0000000
vn -0.3329177 0.8037345 0.4931294
vn -0.1959090 0.4729662 0.8590242
vn -0.0061889 0.0149413 0.9998692
vn 0.1866266 -0.4505566 0.8730231
vn 0.3298242 -0.7962661 0.5071255
vn 0.3826834 -0.9238795 0.0000000
vn 0.3298242 -0.7962661 -0.5071255
vn 0.1866266 -0.4505566 -0.8730231
vn -0.0061889 0.0149413 -0.9998692
vn -0.1959090 0.4729662 -0.8590242
vn -0.3329177 0.8037345 -0.4931294
vn -0.5555702 0.8314696 0.0000000
vn -0.4833216 0.7233420 0.4931294
vn -0.2844158 0.4256584 0.8590242
vn -0.0089849 0.0134468 0.9998692
vn 0.2709399 -0.4054902 0.8730231
vn 0.4788306 -0.7166206 0.5071255
vn 0.5555702 -0.8314696 0.0000000
vn 0.4788306 -0.7166206 -0.5071255
vn 0.2709399 -0.4054902 -0.8730231
vn -0.0089849 0.0134468 -0.9998692
vn -0.2844158 0.4256584 -0.8590242
vn -0.4833216 0.7233420 -0.4931294
vn -0.7071068 0.7071068 -0.0000000
vn -0.6151518 0.6151518 0.4931294
vn -0.3619927 0.3619927 0.8590242
vn -0.0114356 0.0114356 0.9998692
vn 0.3448411 -0.3448411 0.8730231
vn 0.6094357 -0.6094357 0.5071255
vn 0.7071068 -0.7071068 -0.0000000
vn 0.6094357 -0.6094357 -0.5071255
vn 0.3448411 -0.3448411 -0.8730231
vn -0.0114356 0.0114356 -0.9998692
vn -0.3619927 0.3619927 -0.8590242
vn -0.6151518 0.6151518 -0.4931294
vn -0.8314696 0.5555702 0.0000000
vn -0.7233420 0.4833216 0.4931294
vn -0.4256584 0.2844158 0.8590242
vn -0.0134468 0.0089849 0.9998692
vn 0.4054902 -0.2709399 0.8730231
vn 0.7166206 -0.4788306 0.5071255
vn 0.8314696 -0.5555702 -0.0000000
vn 0.7166206 -0.4788306 -0.5071255
vn 0.4054902 -0.2709399 -0.8730231
vn -0.0134468 0.0089849 -0.9998692
vn -0.4256584 0.2844158 -0.8590242
vn -0.7233420 0.4833216 -0.4931294
vn -0.9238795 0.3826834 0.0000000
vn -0.8037345 0.3329177 0.4931294
vn -0.4729662 0.1959090 0.8590242
vn -0.0149413 0.0061889 0.9998692
vn 0.4505566 -0.1866266 0.8730231
vn 0.7962661 -0.3298242 0.5071255
vn 0.9238795 -0.3826834 -0.0000000
vn 0.7962661 -0.3298242 -0.5071255
vn 0.4505566 -0.1866266 -0.8730231
vn -0.0149413 0.0061889 -0.9998692
vn -0.4729662 0.1959090 -0.8590242
vn -0.8037345 0.3329177 -0.4931294
vn -0.9807853 0.1950903 -0.0000000
vn -0.8532400 0.1697200 0.4931294
vn -0.5020983 0.0998736 0.8590242
vn -0.0158616 0.0031551 0.9998692
vn 0.4783083 -0.0951414 0.8730231
vn 0.8453116 -0.1681429 0.5071255
vn 0.9807853 -0.1950903 0.0000000
vn 0.8453116 -0.1681429 -0.5071255
vn 0.4783083 -0.0951414 -0.8730231
vn -0.0158616 0.0031551 -0.9998692
vn -0.5020983 0.0998736 -0.8590242
vn -0.8532400 0.1697200 -0.4931294
vn -1.0000000 -0.0000000 0.0000000
vn -0.8699560 -0.0000000 0.4931294
vn -0.5119350 -0.0000000 0.8590242
vn -0.0161723 -0.0000000 0.9998692
vn 0.4876789 -0.0000000 0.8730231
vn 0.8618723 0.0000000 0.5071255
vn 1.0000000 0.0000000 0.0000000
vn 0.8618723 0.0000000 -0.5071255
vn 0.4876789 -0.0000000 -0.8730231
vn -0.0161723 0.0000000 -0.9998692
vn -0.5119350 0.0000000 -0.8590242
vn -0.8699560 0.0000000 -0.4931294
vn -0.9807853 -0.1950903 0.0000000
vn -0.8532400 -0.1697200 0.4931294
vn -0.5020983 -0.0998736 0.8590242
vn -0.0158616 -0.0031551 0.9998692
vn 0.4783083 0.0951414 0.8730231
vn 0.8453116 0.1681429 0.5071255
vn 0.9807853 0.1950903 -0.0000000
vn 0.8453116 0.1681429 -0.5071255
vn 0.4783083 0.0951414 -0.8730231
vn -0.0158616 -0.0031551 -0.9998692
vn -0.5020983 -0.0998736 -0.8590242
vn -0.8532400 -0.1697200 -0.4931294
vn -0.9238795 -0.3826834 0.0000000
vn -0.8037345 -0.3329177 0.4931294
vn -0.4729662 -0.1959090 0.8590242
vn -0.0149413 -0.0061889 0.9998692
vn 0.4505566 0.1866266 0.8730231
vn 0.7962661 0.3298242 0.5071255
vn 0.9238795 0.3826834 -0.0000000
vn 0.7962661 0.3298242 -0.5071255
vn 0.4505566 0.1866266 -0.8730231
vn -0.0149413 -0.0061889 -0.9998692
vn -0.4729662 -0.1959090 -0.8590242
vn -0.8037345 -0.3329177 -0.4931294
vn -0.8314696 -0.5555702 -0.0000000
vn -0.7233420 -0.4833216 0.4931294
vn -0.4256584 -0.2844158 0.8590242
vn -0.0134468 -0.0089849 0.9998692
vn 0.4054902 0.2709399 0.8730231
vn 0.7166206 0.4788306 0.5071255
vn 0.8314696 0.5555702 0.0000000
vn 0.7166206 0.4788306 -0.5071255
vn 0.4054902 0.2709399 -0.8730231
vn -0.0134468 -0.0089849 -0.9998692
vn -0.4256584 -0.2844158 -0.8590242
vn -0.7233420 -0.4833216 -0.4931294
vn -0.7071068 -0.7071068 0.0000000
vn -0.6151518 -0.6151518 0.4931294
vn -0.3619927 -0.3619927 0.8590242
vn -0.0114356 -0.0114356 0.9998692
vn 0.3448411 0.3448411 0.8730231
vn 0.6094357 0.6094357 0.5071255
vn 0.7071068 0.7071068 -0.0000000
vn 0.6094357 0.6094357 -0.5071255
vn 0.3448411 0.3448411 -0.8730231
vn -0.0114356 -0.0114356 -0.9998692
vn -0.3619927 -0.3619927 -0.8590242
vn -0.6151518 -0.6151518 -0.4931294
vn -0.5555702 -0.8314696 0.0000000
vn -0.4833216 -0.7233420 0.4931294
vn -0.2844158 -0.4256584 0.8590242
vn -0.0089849 -0.0134468 0.9998692
vn 0.2709399 0.4054902 0.8730231
vn 0.4788306 0.7166206 0.5071255
vn 0.5555702 0.8314696 -0.0000000
vn 0.4788306 0.7166206 -0.5071255
vn 0.2709399 0.4054902 -0.8730231
vn -0.0089849 -0.0134468 -0.9998692
vn -0.2844158 -0.4256584 -0.8590242
vn -0.4833216 -0.7233420 -0.4931294
vn -0.3826834 -0.9238795 -0.0000000
vn -0.3329177 -0.8037345 0.4931294
vn -0.1959090 -0.4729662 0.8590242
vn -0.0061889 -0.0149413 0.9998692
vn 0.1866266 0.4505566 0.8730231
vn 0.3298242 0.7962661 0.5071255
vn 0.3826834 0.9238795 0.0000000
vn 0.3298242 0.7962661 -0.5071255
vn 0.1866266 0.4505566 -0.8730231
vn -0.0061889 -0.0149413 -0.9998692
vn -0.1959090 -0.4729662 -0.8590242
vn -0.3329177 -0.8037345 -0.4931294
vn -0.1950903 -0.9807853 -0.0000000
vn -0.1697200 -0.8532400 0.4931294
vn -0.0998736 -0.5020983 0.8590242
vn -0.0031551 -0.0158616 0.9998692
vn 0.0951414 0.4783083 0.8730231
vn 0.1681429 0.8453116 0.5071255
vn 0.1950903 0.9807853 0.0000000
vn 0.1681429 0.8453116 -0.5071255
vn 0.0951414 0.4783083 -0.8730231
vn -0.0031551 -0.0158616 -0.9998692
vn -0.0998736 -0.5020983 -0.8590242
vn -0.1697200 -0.8532400 -0.4931294
vn 0.0000000 -1.0000000 0.0000000
vn -0.0000000 -0.8699560 0.4931294
vn 0.0000000 -0.5119350 0.8590242
vn -0.0000000 -0.0161723 0.9998692
vn 0.0000000 0.4876789 0.8730231
vn 0.0000000 0.8618723 0.5071255
vn -0.0000000 1.0000000 -0.0000000
vn -0.0000000 0.8618723 -0.5071255
vn -0.0000000 0.4876789 -0.8730231
vn 0.0000000 -0.0161723 -0.9998692
vn -0.0000000 -0.5119350 -0.8590242
vn 0.0000000 -0.8699560 -0.4931294
vn 0.1950903 -0.9807853 -0.0000000
vn 0.1697200 -0.8532400 0.4931294
vn 0.0998736 -0.5020983 0.8590242
vn 0.0031551 -0.0158616 0.9998692
vn -0.0951414 0.4783083 0.8730231
vn -0.1681429 0.8453116 0.5071255
vn -0.1950903 0.9807853 -0.0000000
vn -0.1681429 0.8453116 -0.5071255
vn -0.0951414 0.4783083 -0.8730231
vn 0.0031551 -0.0158616 -0.9998692
vn 0.0998736 -0.5020983 -0.8590242
vn 0.1697200 -0.8532400 -0.4931294
vn 0.3826834 -0.9238795 0.0000000
vn 0.3329177 -0.8037345 0.4931294
vn 0.1959090 -0.4729662 0.8590242
vn 0.0061889 -0.0149413 0.9998692
vn -0.1866266 0.4505566 0.8730231
vn -0.3298242 0.7962661 0.5071255
vn -0.3826834 0.9238795 0.0000000
vn -0.3298242 0.7962661 -0.5071255
vn -0.1866266 0.4505566 -0.8730231
vn 0.0061889 -0.0149413 -0.9998692
vn 0.1959090 -0.4729662 -0.8590242
vn 0.3329177 -0.8037345 -0.4931294
vn 0.5555702 -0.8314696 0.0000000
vn 0.4833216 -0.7233420 0.4931294
vn 0.2844158 -0.4256584 0.8590242
vn 0.0089849 -0.0134468 0.9998692
vn -0.2709399 0.4054902 0.8730231
vn -0.4788306 0.7166206 0.5071255
vn -0.5555702 0.8314696 0.0000000
vn -0.4788306 0.7166206 -0.5071255
vn -0.2709399 0.4054902 -0.8730231
vn 0.0089849 -0.0134468 -0.9998692
vn 0.2844158 -0.4256584 -0.8590242
vn 0.4833216 -0.7233420 -0.4931294
vn 0.7071068 -0.7071068 -0.0000000
vn 0.6151518 -0.6151518 0.4931294
vn 0.3619927 -0.3619927 0.8590242
vn 0.0114356 -0.0114356 0.9998692
vn -0.3448411 0.3448411 0.8730231
vn -0.6094357 0.6094357 0.5071255
vn -0.7071068 0.7071068 -0.0000000
vn -0.6094357 0.6094357 -0.5071255
vn -0.3448411 0.3448411 -0.8730231
vn 0.0114356 -0.0114356 -0.9998692
vn 0.3619927 -0.3619927 -0.8590242
vn 0.6151518 -0.6151518 -0.4931294
vn 0.8314696 -0.5555702 0.0000000
vn 0.7233420 -0.4833216 0.4931294
vn 0.4256584 -0.2844158 0.8590242
vn 0.0134468 -0.0089849 0.9998692
vn -0.4054902 0.2709399 0.8730231
vn -0.7166206 0.4788306 0.5071255
vn -0.8314696 0.5555702 -0.0000000
vn -0.7166206 0.4788306 -0.5071255
vn -0.4054902 0.2709399 -0.8730231
vn 0.0134468 -0.0089849 -0.9998692
vn 0.4256584 -0.2844158 -0.8590242
vn 0.7233420 -0.4833216 -0.4931294
vn 0.9238795 -0.3826834 0.0000000
vn 0.8037345 -0.3329177 0.4931294
vn 0.4729662 -0.1959090 0.8590242
vn 0.0149413 -0.0061889 0.9998692
vn -0.4505566 0.1866266 0.8730231
vn -0.7962661 0.3298242 0.5071255
vn -0.9238795 0.3826834 -0.0000000
vn -0.7962661 0.3298242 -0.5071255
vn -0.4505566 0.1866266 -0.8730231
vn 0.0149413 -0.0061889 -0.9998692
vn 0.4729662 -0.1959090 -0.8590242
vn 0.8037345 -0.3329177 -0.4931294
vn 0.9807853 -0.1950903 -0.0000000
vn 0.8532400 -0.1697200 0.4931294
vn 0.5020983 -0.0998736 0.8590242
vn 0.0158616 -0.0031551 0.9998692
vn -0.4783083 0.0951414 0.8730231
vn -0.8453116 0.1681429 0.5071255
vn -0.9807853 0.1950903 0.0000000
vn -0.8453116 0.1681429 -0.5071255
vn -0.4783083 0.0951414 -0.8730231
vn 0.0158616 -0.0031551 -0.9998692
vn 0.5020983 -0.0998736 -0.8590242
vn 0.8532400 -0.1697200 -0.4931294
vn 1.0000000 -0.0000000 -0.0000000
vn 0.8699560 -0.4931294 -0.0000000
vn 0.5119350 -0.8590242 -0.0000000
vn 0.0161723 -0.9998692 0.0000000
vn -0.4876789 -0.8730231 0.0000000
vn -0.8618723 -0.5071255 0.0000000
vn -1.0000000 -0.0000000 0.0000000
vn -0.8618723 0.5071255 0.0000000
vn -0.4876789 0.8730231 0.0000000
vn 0.0161723 0.9998692 -0.0000000
vn 0.5119350 0.8590242 -0.0000000
vn 0.8699560 0.4931294 -0.0000000
vn 0.9807853 -0.0000000 0.1950903
vn 0.8532400 -0.4931294 0.1697200
vn 0.5020983 -0.8590242 0.0998736
vn 0.0158616 -0.9998692 0.0031551
vn -0.4783083 -0.8730231 -0.0951414
vn -0.8453116 -0.5071255 -0.1681429
vn -0.9807853 -0.0000000 -0.1950903
vn -0.8453116 0.5071255 -0.1681429
vn -0.4783083 0.8730231 -0.0951414
vn 0.0158616 0.9998692 0.0031551
vn 0.5020983 0.8590242 0.0998736
vn 0.8532400 0.4931294 0.1697200
vn 0.9238795 -0.0000000 0.3826834
vn 0.8037345 -0.4931294 0.3329177
vn 0.4729662 -0.8590242 0.1959090
vn 0.0149413 -0.9998692 0.0061889
vn -0.4505566 -0.8730231 -0.1866266
vn -0.7962661 -0.5071255 -0.3298242
vn -0.9238795 -0.0000000 -0.3826834
vn -0.7962661 0.5071255 -0.3298242
vn -0.4505566 0.8730231 -0.1866266
vn 0.0149413 0.9998692 0.0061889
vn 0.4729662 0.8590242 0.1959090
vn 0.8037345 0.4931294 0.3329177
vn 0.8314696 -0.0000000 0.5555702
vn 0.7233420 -0.4931294 0.4833216
vn 0.4256584 -0.8590242 0.2844158
vn 0.0134468 -0.9998692 0.0089849
vn -0.4054902 -0.8730231 -0.2709399
vn -0.7166206 -0.5071255 -0.4788306
vn -0.8314696 -0.0000000 -0.5555702
vn -0.7166206 0.5071255 -0.4788306
vn -0.4054902 0.8730231 -0.2709399
vn 0.0134468 0.9998692 0.0089849
vn 0.4256584 0.8590242 0.2844158
vn 0.7233420 0.4931294 0.4833216
vn 0.7071068 -0.0000000 0.7071068
vn 0.6151518 -0.4931294 0.6151518
vn 0.3619927 -0.8590242 0.3619927
vn 0.0114356 -0.9998692 0.0114356
vn -0.3448411 -0.8730231 -0.3448411
vn -0.6094357 -0.5071255 -0.6094357
vn -0.7071068 -0.0000000 -0.7071068
vn -0.6094357 0.5071255 -0.6094357
vn -0.3448411 0.8730231 -0.3448411
vn 0.0114356 0.9998692 0.0114356
vn 0.3619927 0.8590242 0.3619927
vn 0.6151518 0.4931294 0.6151518
vn 0.5555702 0.0000000 0.8314696
vn 0.4833216 -0.4931294 0.7233420
vn 0.2844158 -0.8590242 0.4256584
vn 0.0089849 -0.9998692 0.0134468
vn -0.2709399 -0.8730231 -0.4054902
vn -0.4788306 -0.5071255 -0.7166206
vn -0.5555702 -0.0000000 -0.8314696
vn -0.4788306 0.5071255 -0.7166206
vn -0.2709399 0.8730231 -0.4054902
vn 0.0089849 0.9998692 0.0134468
vn 0.2844158 0.8590242 0.4256584
vn 0.4833216 0.4931294 0.7233420
vn 0.3826834 -0.0000000 0.9238795
vn 0.3329177 -0.4931294 0.8037345
vn 0.1959090 -0.8590242 0.4729662
vn 0.0061889 -0.9998692 0.0149413
vn -0.1866266 -0.8730231 -0.4505566
vn -0.3298242 -0.5071255 -0.7962661
vn -0.3826834 -0.0000000 -0.9238795
vn -0.3298242 0.5071255 -0.7962661
vn -0.1866266 0.8730231 -0.4505566
vn 0.0061889 0.9998692 0.0149413
vn 0.1959090 0.8590242 0.4729662
vn 0.3329177 0.4931294 0.8037345
vn 0.1950903 0.0000000 0.9807853
vn 0.1697200 -0.4931294 0.8532400
vn 0.0998736 -0.8590242 0.5020983
vn 0.0031551 -0.9998692 0.0158616
vn -0.0951414 -0.8730231 -0.4783083
vn -0.1681429 -0.5071255 -0.8453116
vn -0.1950903 -0.0000000 -0.9807853
vn -0.1681429 0.5071255 -0.8453116
vn -0.0951414 0.8730231 -0.4783083
vn 0.0031551 0.9998692 0.0158616
vn 0.0998736 0.8590242 0.5020983
vn 0.1697200 0.4931294 0.8532400
vn -0.0000000 -0.0000000 1.0000000
vn 0.0000000 -0.4931294 0.8699560
vn -0.0000000 -0.8590242 0.5119350
vn 0.0000000 -0.9998692 0.0161723
vn 0.0000000 -0.8730231 -0.4876789
vn 0.0000000 -0.5071255 -0.8618723
vn 0.0000000 -0.0000000 -1.0000000
vn -0.0000000 0.5071255 -0.8618723
vn 0.0000000 0.8730231 -0.4876789
vn -0.0000000 0.9998692 0.0161723
vn 0.0000000 0.8590242 0.5119350
vn -0.0000000 0.4931294 0.8699560
vn -0.1950903 0.0000000 0.9807853
vn -0.1697200 -0.4931294 0.8532400
vn -0.0998736 -0.8590242 0.5020983
vn -0.0031551 -0.9998692 0.0158616
vn 0.0951414 -0.8730231 -0.4783083
vn 0.1681429 -0.5071255 -0.8453116
vn 0.1950903 -0.0000000 -0.9807853
vn 0.1681429 0.5071255 -0.8453116
vn 0.0951414 0.8730231 -0.4783083
vn -0.0031551 0.9998692 0.0158616
vn -0.0998736 0.8590242 0.5020983
vn -0.1697200 0.4931294 0.8532400
vn -0.3826834 -0.0000000 0.9238795
vn -0.3329177 -0.4931294 0.8037345
vn -0.1959090 -0.8590242 0.4729662
vn -0.0061889 -0.9998692 0.0149413
vn 0.1866266 -0.8730231 -0.4505566
vn 0.3298242 -0.5071255 -0.7962661
vn 0.3826834 -0.0000000 -0.9238795
vn 0.3298242 0.5071255 -0.7962661
vn 0.1866266 0.8730231 -0.4505566
vn -0.0061889 0.9998692 0.0149413
vn -0.1959090 0.8590242 0.4729662
vn -0.3329177 0.4931294 0.8037345
vn -0.5555702 -0.0000000 0.8314696
vn -0.4833216 -0.4931294 0.7233420
vn -0.2844158 -0.8590242 0.4256584
vn -0.0089849 -0.9998692 0.0134468
vn 0.2709399 -0.8730231 -0.4054902
vn 0.4788306 -0.5071255 -0.7166206
vn 0.5555702 -0.0000000 -0.8314696
vn 0.4788306 0.5071255 -0.7166206
vn 0.2709399 0.8730231 -0.4054902
vn -0.0089849 0.9998692 0.0134468
vn -0.2844158 0.8590242 0.4256584
vn -0.4833216 0.4931294 0.7233420
vn -0.7071068 0.0000000 0.7071068
vn -0.6151518 -0.4931294 0.6151518
vn -0.3619927 -0.8590242 0.3619927
vn -0.0114356 -0.9998692 0.0114356
vn 0.3448411 -0.8730231 -0.3448411
vn 0.6094357 -0.5071255 -0.6094357
vn 0.7071068 -0.0000000 -0.7071068
vn 0.6094357 0.5071255 -0.6094357
vn 0.3448411 0.8730231 -0.3448411
vn -0.0114356 0.9998692 0.0114356
vn -0.3619927 0.8590242 0.3619927
vn -0.6151518 0.4931294 0.6151518
vn -0.8314696 0.0000000 0.5555702
vn -0.7233420 -0.4931294 0.4833216
vn -0.4256584 -0.8590242 0.2844158
vn -0.0134468 -0.9998692 0.0089849
vn 0.4054902 -0.8730231 -0.2709399
vn 0.7166206 -0.5071255 -0.4788306
vn 0.8314696 0.0000000 -0.5555702
vn 0.7166206 0.5071255 -0.4788306
vn 0.4054902 0.8730231 -0.2709399
vn -0.0134468 0.9998692 0.0089849
vn -0.4256584 0.8590242 0.2844158
vn -0.7233420 0.4931294 0.4833216
vn -0.9238795 -0.0000000 0.3826834
vn -0.8037345 -0.4931294 0.3329177
vn -0.4729662 -0.8590242 0.1959090
vn -0.0149413 -0.9998692 0.0061889
vn 0.4505566 -0.8730231 -0.1866266
vn 0.7962661 -0.5071255 -0.3298242
vn 0.9238795 -0.0000000 -0.3826834
vn 0.7962661 0.5071255 -0.3298242
vn 0.4505566 0.8730231 -0.1866266
vn -0.0149413 0.9998692 0.0061889
vn -0.4729662 0.8590242 0.1959090
vn -0.8037345 0.4931294 0.3329177
vn -0.9807853 -0.0000000 0.1950903
vn -0.8532400 -0.4931294 0.1697200
vn -0.5020983 -0.8590242 0.0998736
vn -0.0158616 -0.9998692 0.0031551
vn 0.4783083 -0.8730231 -0.0951414
vn 0.8453116 -0.5071255 -0.1681429
vn 0.9807853 -0.0000000 -0.1950903
vn 0.8453116 0.5071255 -0.1681429
vn 0.4783083 0.8730231 -0.0951414
vn -0.0158616 0.9998692 0.0031551
vn -0.5020983 0.8590242 0.0998736
vn -0.8532400 0.4931294 0.1697200
vn -1.0000000 -0.0000000 0.0000000
vn -0.8699560 -0.4931294 -0.0000000
vn -0.5119350 -0.8590242 -0.0000000
vn -0.0161723 -0.9998692 0.0000000
vn 0.4876789 -0.8730231 0.0000000
vn 0.8618723 -0.5071255 -0.0000000
vn 1.0000000 -0.0000000 0.0000000
vn 0.8618723 0.5071255 0.0000000
vn 0.4876789 0.8730231 -0.0000000
vn -0.0161723 0.9998692 0.0000000
vn -0.5119350 0.8590242 -0.0000000
vn -0.8699560 0.4931294 -0.0000000
vn -0.9807853 0.0000000 -0.1950903
vn -0.8532400 -0.4931294 -0.1697200
vn -0.5020983 -0.8590242 -0.0998736
vn -0.0158616 -0.9998692 -0.0031551
vn 0.4783083 -0.8730231 0.0951414
vn 0.8453116 -0.5071255 0.1681429
vn 0.9807853 0.0000000 0.1950903
vn 0.8453116 0.5071255 0.1681429
vn 0.4783083 0.8730231 0.0951414
vn -0.0158616 0.9998692 -0.0031551
vn -0.5020983 0.8590242 -0.0998736
vn -0.8532400 0.4931294 -0.1697200
vn -0.9238795 -0.0000000 -0.3826834
vn -0.8037345 -0.4931294 -0.3329177
vn -0.4729662 -0.8590242 -0.1959090
vn -0.0149413 -0.9998692 -0.0061889
vn 0.4505566 -0.8730231 0.1866266
vn 0.7962661 -0.5071255 0.3298242
vn 0.9238795 0.0000000 0.3826834
vn 0.7962661 0.5071255 0.3298242
vn 0.4505566 0.8730231 0.1866266
vn -0.0149413 0.9998692 -0.0061889
vn -0.4729662 0.8590242 -0.1959090
vn -0.8037345 0.4931294 -0.3329177
vn -0.8314696 -0.0000000 -0.5555702
vn -0.7233420 -0.4931294 -0.4833216
vn -0.4256584 -0.8590242 -0.2844158
vn -0.0134468 -0.9998692 -0.0089849
vn 0.4054902 -0.8730231 0.2709399
vn 0.7166206 -0.5071255 0.4788306
vn 0.8314696 -0.0000000 0.5555702
vn 0.7166206 0.5071255 0.4788306
vn 0.4054902 0.8730231 0.2709399
vn -0.0134468 0.9998692 -0.0089849
vn -0.4256584 0.8590242 -0.2844158
vn -0.7233420 0.4931294 -0.4833216
vn -0.7071068 0.0000000 -0.7071068
vn -0.6151518 -0.4931294 -0.6151518
vn -0.3619927 -0.8590242 -0.3619927
vn -0.0114356 -0.9998692 -0.0114356
vn 0.3448411 -0.8730231 0.3448411
vn 0.6094357 -0.5071255 0.6094357
vn 0.7071068 -0.0000000 0.7071068
vn 0.6094357 0.5071255 0.6094357
vn 0.3448411 0.8730231 0.3448411
vn -0.0114356 0.9998692 -0.0114356
vn -0.3619927 0.8590242 -0.3619927
vn -0.6151518 0.4931294 -0.6151518
vn -0.5555702 -0.0000000 -0.8314696
vn -0.4833216 -0.4931294 -0.7233420
vn -0.2844158 -0.8590242 -0.4256584
vn -0.0089849 -0.9998692 -0.0134468
vn 0.2709399 -0.8730231 0.4054902
vn 0.4788306 -0.5071255 0.7166206
vn 0.5555702 -0.0000000 0.8314696
vn 0.4788306 0.5071255 0.7166206
vn 0.2709399 0.8730231 0.4054902
vn -0.0089849 0.9998692 -0.0134468
vn -0.2844158 0.8590242 -0.4256584
vn -0.4833216 0.4931294 -0.7233420
vn -0.3826834 -0.0000000 -0.9238795
vn -0.3329177 -0.4931294 -0.8037345
vn -0.1959090 -0.8590242 -0.4729662
vn -0.0061889 -0.9998692 -0.0149413
vn 0.1866266 -0.8730231 0.4505566
vn 0.3298242 -0.5071255 0.7962661
vn 0.3826834 -0.0000000 0.9238795
vn 0.3298242 0.5071255 0.7962661
vn 0.1866266 0.8730231 0.4505566
vn -0.0061889 0.9998692 -0.0149413
vn -0.1959090 0.8590242 -0.4729662
vn -0.3329177 0.4931294 -0.8037345
vn -0.1950903 0.0000000 -0.9807853
vn -0.1697200 -0.4931294 -0.8532400
vn -0.0998736 -0.8590242 -0.5020983
vn -0.0031551 -0.9998692 -0.0158616
vn 0.0951414 -0.8730231 0.4783083
vn 0.1681429 -0.5071255 0.8453116
vn 0.1950903 -0.0000000 0.9807853
vn 0.1681429 0.5071255 0.8453116
vn 0.0951414 0.8730231 0.4783083
vn -0.0031551 0.9998692 -0.0158616
vn -0.0998736 0.8590242 -0.5020983
vn -0.1697200 0.4931294 -0.8532400
vn -0.0000000 -0.0000000 -1.0000000
vn -0.0000000 -0.4931294 -0.8699560
vn -0.0000000 -0.8590242 -0.5119350
vn 0.0000000 -0.9998692 -0.0161723
vn 0.0000000 -0.8730231 0.4876789
vn 0.0000000 -0.5071255 0.8618723
vn 0.0000000 -0.0000000 1.0000000
vn 0.0000000 0.5071255 0.8618723
vn 0.0000000 0.8730231 0.4876789
vn -0.0000000 0.9998692 -0.0161723
vn -0.0000000 0.8590242 -0.5119350
vn -0.0000000 0.4931294 -0.8699560
vn 0.1950903 0.0000000 -0.9807853
vn 0.1697200 -0.4931294 -0.8532400
vn 0.0998736 -0.8590242 -0.5020983
vn 0.0031551 -0.9998692 -0.0158616
vn -0.0951414 -0.8730231 0.4783083
vn -0.1681429 -0.5071255 0.8453116
vn -0.1950903 -0.0000000 0.9807853
vn -0.1681429 0.5071255 0.8453116
vn -0.0951414 0.8730231 0.4783083
vn 0.0031551 0.9998692 -0.0158616
vn 0.0998736 0.8590242 -0.5020983
vn 0.1697200 0.4931294 -0.8532400
vn 0.3826834 -0.0000000 -0.9238795
vn 0.3329177 -0.4931294 -0.8037345
vn 0.1959090 -0.8590242 -0.4729662
vn 0.0061889 -0.9998692 -0.0149413
vn -0.1866266 -0.8730231 0.4505566
vn -0.3298242 -0.5071255 0.7962661
vn -0.3826834 -0.0000000 0.9238795
vn -0.3298242 0.5071255 0.7962661
vn -0.1866266 0.8730231 0.4505566
vn 0.0061889 0.9998692 -0.0149413
vn 0.1959090 0.8590242 -0.4729662
vn 0.3329177 0.4931294 -0.8037345
vn 0.5555702 -0.0000000 -0.8314696
vn 0.4833216 -0.4931294 -0.7233420
vn 0.2844158 -0.8590242 -0.4256584
vn 0.0089849 -0.9998692 -0.0134468
vn -0.2709399 -0.8730231 0.4054902
vn -0.4788306 -0.5071255 0.7166206
vn -0.5555702 -0.0000000 0.8314696
vn -0.4788306 0.5071255 0.7166206
vn -0.2709399 0.8730231 0.4054902
vn 0.0089849 0.9998692 -0.0134468
vn 0.2844158 0.8590242 -0.4256584
vn 0.4833216 0.4931294 -0.7233420
vn 0.7071068 0.0000000 -0.7071068
vn 0.6151518 -0.4931294 -0.6151518
vn 0.3619927 -0.8590242 -0.3619927
vn 0.0114356 -0.9998692 -0.0114356
vn -0.3448411 -0.8730231 0.3448411
vn -0.6094357 -0.5071255 0.6094357
vn -0.7071068 -0.0000000 0.7071068
vn -0.6094357 0.5071255 0.6094357
vn -0.3448411 0.8730231 0.3448411
vn 0.0114356 0.9998692 -0.0114356
vn 0.3619927 0.8590242 -0.3619927
vn 0.6151518 0.4931294 -0.6151518
vn 0.8314696 -0.0000000 -0.5555702
vn 0.7233420 -0.4931294 -0.4833216
vn 0.4256584 -0.8590242 -0.2844158
vn 0.0134468 -0.9998692 -0.0089849
vn -0.4054902 -0.8730231 0.2709399
vn -0.7166206 -0.5071255 0.4788306
vn -0.8314696 -0.0000000 0.5555702
vn -0.7166206 0.5071255 0.4788306
vn -0.4054902 0.8730231 0.2709399
vn 0.0134468 0.9998692 -0.0089849
vn 0.4256584 0.8590242 -0.2844158
vn 0.7233420 0.4931294 -0.4833216
vn 0.9238795 0.0000000 -0.3826834
vn 0.8037345 -0.4931294 -0.3329177
vn 0.4729662 -0.8590242 -0.1959090
vn 0.0149413 -0.9998692 -0.0061889
vn -0.4505566 -0.8730231 0.1866266
vn -0.7962661 -0.5071255 0.3298242
vn -0.9238795 -0.0000000 0.3826834
vn -0.7962661 0.5071255 0.3298242
vn -0.4505566 0.8730231 0.1866266
vn 0.0149413 0.9998692 -0.0061889
vn 0.4729662 0.8590242 -0.1959090
vn 0.8037345 0.4931294 -0.3329177
vn 0.9807853 -0.0000000 -0.1950903
vn 0.8532400 -0.4931294 -0.1697200
vn 0.5020983 -0.8590242 -0.0998736
vn 0.0158616 -0.9998692 -0.0031551
vn -0.4783083 -0.8730231 0.0951414
vn -0.8453116 -0.5071255 0.1681429
vn -0.9807853 -0.0000000 0.1950903
vn -0.8453116 0.5071255 0.1681429
vn -0.4783083 0.8730231 0.0951414
vn 0.0158616 0.9998692 -0.0031551
vn 0.5020983 0.8590242 -0.0998736
vn 0.8532400 0.4931294 -0.1697200
f 1//1 13//13 2//2
f 2//2 13//13 14//14
f 2//2 14//14 3//3
f 3//3 14//14 15//15
f 3//3 15//15 4//4
f 4//4 15//15 16//16
f 4//4 16//16 5//5
f 5//5 16//16 17//17
f 5//5 17//17 6//6
f 6//6 17//17 18//18
f 6//6 18//18 7//7
f 7//7 18//18 19//19
f 7//7 19//19 8//8
f 8//8 19//19 20//20
f 8//8 20//20 9//9
f 9//9 20//20 21//21
f 9//9 21//21 10//10
f 10//10 21//21 22//22
f 10//10 22//22 11//11
f 11//11 22//22 23//23
f 11//11 23//23 12//12
f 12//12 23//23 24//24
f 12//12 24//24 1//1
f 1//1 24//24 13//13
f 13//13 25//25 14//14
f 14//14 25//25 26//26
f 14//14 26//26 15//15
f 15//15 26//26 27//27
f 15//15 27//27 16//16
f 16//16 27//27 28//28
f 16//16 28//28 17//17
f 17//17 28//28 29//29
f 17//17 29//29 18//18
f 18//18 29//29 30//30
f 18//18 30//30 19//19
f 19//19 30//30 31//31
f 19//19 31//31 20//20
f 20//20 31//31 32//32
f 20//20 32//32 21//21
f 21//21 32//32 33//33
f 21//21 33//33 22//22
f 22//22 33//33 34//34
f 22//22 34//34 23//23
f 23//23 34//34 35//35
f 23//23 35//35 24//24
f 24//24 35//35 36//36
f 24//24 36//36 13//13
f 13//13 36//36 25//25
f 25//25 37//37 26//26
f 26//26 37//37 38//38
f 26//26 38//38 27//27
f 27//27 38//38 39//39
f 27//27 39//39 28//28
f 28//28 39//39 40//40
f 28//28 40//40 29//29
f 29//29 40//40 41//41
f 29//29 41//41 30//30
f 30//30 41//41 42//42
f 30//30 42//42 31//31
f 31//31 42//42 43//43
f 31//31 43//43 32//32
f 32//32 43//43 44//44
f 32//32 44//44 33//33
f 33//33 44//44 45//45
f 33//33 45//45 34//34
f 34//34 45//45 46//46
f 34//34 46//46 35//35
f 35//35 46//46 47//47
f 35//35 47//47 36//36
f 36//36 47//47 48//48
f 36//36 48//48 25//25
f 25//25 48//48 37//37
f 37//37 49//49 38//38
f 38//38 49//49 50//50
f 38//38 50//50 39//39
f 39//39 50//50 51//51
f 39//39 51//51 40//40
f 40//40 51//51 52//52
f 40//40 52//52 41//41
f 41//41 52//52 53//53
f 41//41 53//53 42//42
f 42//42 53//53 54//54
f 42//42 54//54 43//43
f 43//43 54//54 55//55
f 43//43 55//55 44//44
f 44//44 55//55 56//56
f 44//44 56//56 45//45
f 45//45 56//56 57//57
f 45//45 57//57 46//46
f 46//46 57//57 58//58
f 46//46 58//58 47//47
f 47//47 58//58 59//59
f 47//47 59//59 48//48
f 48//48 59//59 60//60
f 48//48 60//60 37//37
f 37//37 60//60 49//49
f 49//49 61//61 50//50
f 50//50 61//61 62//62
f 50//50 62//62 51//51
f 51//51 62//62 63//63
f 51//51 63//63 52//52
f 52//52 63//63 64//64
f 52//52 64//64 53//53
f 53//53 64//64 65//65
f 53//53 65//65 54//54
f 54//54 65//65 66//66
f 54//54 66//66 55//55
f 55//55 66//66 67//67
f 55//55 67//67 56//56
f 56//56 67//67 68//68
f 56//56 68//68 57//57
f 57//57 68//68 69//69
f 57//57 69//69 58//58
f 58//58 69//69 70//70
f 58//58 70//70 59//59
f 59//59 70//70 71//71
f 59//59 71//71 60//60
f 60//60 71//71 72//72
f 60//60 72//72 49//49
f 49//49 72//72 61//61
f 61//61 73//73 62//62
f 62//62 73//73 74//74
f 62//62 74//74 63//63
f 63//63 74//74 75//75
f 63//63 75//75 64//64
f 64//64 75//75 76//76
f 64//64 76//76 65//65
f 65//65 76//76 77//77
f 65//65 77//77 66//66
f 66//66 77//77 78//78
f 66//66 78//78 67//67
f 67//67 78//78 79//79
f 67//67 79//79 68//68
f 68//68 79//79 80//80
f 68//68 80//80 69//69
f 69//69 80//80 81//81
f 69//69 81//81 70//70
f 70//70 81//81 82//82
f 70//70 82//82 71//71
f 71//71 82//82 83//83
f 71//71 83//83 72//72
f 72//72 83//83 84//84
f 72//72 84//84 61//61
f 61//61 84//84 73//73
f 73//73 85//85 74//74
f 74//74 85//85 86//86
f 74//74 86//86 75//75
f 75//75 86//86 87//87
f 75//75 87//87 76//76
f 76//76 87//87 88//88
f 76//76 88//88 77//77
f 77//77 88//88 89//89
f 77//77 89//89 78//78
f 78//78 89//89 90//90
f 78//78 90//90 79//79
f 79//79 90//90 91//91
f 79//79 91//91 80//80
f 80//80 91//91 92//92
f 80//80 92//92 81//81
f 81//81 92//92 93//93
f 81//81 93//93 82//82
f 82//82 93//93 94//94
f 82//82 94//94 83//83
f 83//83 94//94 95//95
f 83//83 95//95 84//84
f 84//84 95//95 96//96
f 84//84 96//96 73//73
f 73//73 96//96 85//85
f 85//85 97//97 86//86
f 86//86 97//97 98//98
f 86//86 98//98 87//87
f 87//87 98//98 99//99
f 87//87 99//99 88//88
f 88//88 99//99 100//100
f 88//88 100//100 89//89
f 89//89 100//100 101//101
f 89//89 101//101 90//90
f 90//90 101//101 102//102
f 90//90 102//102 91//91
f 91//91 102//102 103//103
f 91//91 103//103 92//92
f 92//92 103//103 104//104
f 92//92 104//104 93//93
f 93//93 104//104 105//105
f 93//93 105//105 94//94
f 94//94 105//105 106//106
f 94//94 106//106 95//95
f 95//95 106//106 107//107
f 95//95 107//107 96//96
f 96//96 107//107 108//108
f 96//96 108//108 85//85
f 85//85 108//108 97//97
f 97//97 109//109 98//98
f 98//98 109//109 110//110
f 98//98 110//110 99//99
f 99//99 110//110 111//111
f 99//99 111//111 100//100
f 100//100 111//111 112//112
f 100//100 112//112 101//101
f 101//101 112//112 113//113
f 101//101 113//113 102//102
f 102//102 113//113 114//114
f 102//102 114//114 103//103
f 103//103 114//114 115//115
f 103//103 115//115 104//104
f 104//104 115//115 116//116
f 104//104 116//116 105//105
f 105//105 116//116 117//117
f 105//105 117//117 106//106
f 106//106 117//117 118//118
f 106//106 118//118 107//107
f 107//107 118//118 119//119
f 107//107 119//119 108//108
f 108//108 119//119 120//120
f 108//108 120//120 97//97
f 97//97 120//120 109//109
f 109//109 121//121 110//110
f 110//110 121//121 122//122
f 110//110 122//122 111//111
f 111//111 122//122 123//123
f 111//111 123//123 112//112
f 112//112 123//123 124//124
f 112//112 124//124 113//113
f 113//113 124//124 125//125
f 113//113 125//125 114//114
f 114//114 125//125 126//126
f 114//114 126//126 115//115
f 115//115 126//126 127//127
f 115//115 127//127 116//116
f 116//116 127//127 128//128
f 116//116 128//128 117//117
f 117//117 128//128 129//129
f 117//117 129//129 118//118
f 118//118 129//129 130//130
f 118//118 130//130 119//119
f 119//119 130//130 131//131
f 119//119 131//131 120//120
f 120//120 131//131 132//132
f 120//120 132//132 109//109
f 109//109 132//132 121//121
f 121//121 133//133 122//122
f 122//122 133//133 134//134
f 122//122 134//134 123//123
f 123//123 134//134 135//135
f 123//123 135//135 124//124
f 124//124 135//135 136//136
f 124//124 136//136 125//125
f 125//125 136//136 137//137
f 125//125 137//137 126//126
f 126//126 137//137 138//138
f 126//126 138//138 127//127
f 127//127 138//138 139//139
f 127//127 139//139 128//128
f 128//128 139//139 140//140
f 128//128 140//140 129//129
f 129//129 140//140 141//141
f 129//129 141//141 130//130
f 130//130 141//141 142//142
f 130//130 142//142 131//131
f 131//131 142//142 143//143
f 131//131 143//143 132//132
f 132//132 143//143 144//144
f 132//132 144//144 121//121
f 121//121 144//144 133//133
f 133//133 145//145 134//134
f 134//134 145//145 146//146
f 134//134 146//146 135//135
f 135//135 146//146 147//147
f 135//135 147//147 136//136
f 136//136 147//147 148//148
f 136//136 148//148 137//137
f 137//137 148//148 149//149
f 137//137 149//149 138//138
f 138//138 149//149 150//150
f 138//138 150//150 139//139
f 139//139 150//150 151//151
f 139//139 151//151 140//140
f 140//140 151//151 152//152
f 140//140 152//152 141//141
f 141//141 152//152 153//153
f 141//141 153//153 142//142
f 142//142 153//153 154//154
f 142//142 154//154 143//143
f 143//143 154//154 155//155
f 143//143 155//155 144//144
f 144//144 155//155 156//156
f 144//144 156//156 133//133
f 133//133 156//156 145//145
f 145//145 157//157 146//146
f 146//146 157//157 158//158
f 146//146 158//158 147//147
f 147//147 158//158 159//159
f 147//147 159//159 148//148
f 148//148 159//159 160//160
f 148//148 160//160 149//149
f 149//149 160//160 161//161
f 149//149 161//161 150//150
f 150//150 161//161 162//162
f 150//150 162//162 151//151
f 151//151 162//162 163//163
f 151//151 163//163 152//152
f 152//152 163//163 164//164
f 152//152 164//164 153//153
f 153//153 164//164 165//165
f 153//153 165//165 154//154
f 154//154 165//165 166//166
f 154//154 166//166 155//155
f 155//155 166//166 167//167
f 155//155 167//167 156//156
f 156//156 167//167 168//168
f 156//156 168//168 145//145
f 145//145 168//168 157//157
f 157//157 169//169 158//158
f 158//158 169//169 170//170
f 158//158 170//170 159//159
f 159//159 170//170 171//171
f 159//159 171//171 160//160
f 160//160 171//171 172//172
f 160//160 172//172 161//161
f 161//161 172//172 173//173
f 161//161 173//173 162//162
f 162//162 173//173 174//174
f 162//162 174//174 163//163
f 163//163 174//174 175//175
f 163//163 175//175 164//164
f 164//164 175//175 176//176
f 164//164 176//176 165//165
f 165//165 176//176 177//177
f 165//165 177//177 166//166
f 166//166 177//177 178//178
f 166//166 178//178 167//167
f 167//167 178//178 179//179
f 167//167 179//179 168//168
f 168//168 179//179 180//180
f 168//168 180//180 157//157
f 157//157 180//180 169//169
f 169//169 181//181 170//170
f 170//170 181//181 182//182
f 170//170 182//182 171//171
f 171//171 182//182 183//183
f 171//171 183//183 172//172
f 172//172 183//183 184//184
f 172//172 184//184 173//173
f 173//173 184//184 185//185
f 173//173 185//185 174//174
f 174//174 185//185 186//186
f 174//174 186//186 175//175
f 175//175 186//186 187//187
f 175//175 187//187 176//176
f 176//176 187//187 188//188
f 176//176 188//188 177//177
f 177//177 188//188 189//189
f 177//177 189//189 178//178
f 178//178 189//189 190//190
f 178//178 190//190 179//179
f 179//179 190//190 191//191
f 179//179 191//191 180//180
f 180//180 191//191 192//192
f 180//180 192//192 169//169
f 169//169 192//192 181//181
f 181//181 193//193 182//182
f 182//182 193//193 194//194
f 182//182 194//194 183//183
f 183//183 194//194 195//195
f 183//183 195//195 184//184
f 184//184 195//195 196//196
f 184//184 196//196 185//185
f 185//185 196//196 197//197
f 185//185 197//197 186//186
f 186//186 197//197 198//198
f 186//186 198//198 187//187
f 187//187 198//198 199//199
f 187//187 199//199 188//188
f 188//188 199//199 200//200
f 188//188 200//200 189//189
f 189//189 200//200 201//201
f 189//189 201//201 190//190
f 190//190 201//201 202//202
f 190//190 202//202 191//191
f 191//191 202//202 203//203
f 191//191 203//203 192//192
f 192//192 203//203 204//204
f 192//192 204//204 181//181
f 181//181 204//204 193//193
f 193//193 205//205 194//194
f 194//194 205//205 206//206
f 194//194 206//206 195//195
f 195//195 206//206 207//207
f 195//195 207//207 196//196
f 196//196 207//207 208//208
f 196//196 208//208 197//197
f 197//197 208//208 209//209
f 197//197 209//209 198//198
f 198//198 209//209 210//210
f 198//198 210//210 199//199
f 199//199 210//210 211//211
f 199//199 211//211 200//200
f 200//200 211//211 212//212
f 200//200 212//212 201//201
f 201//201 212//212 213//213
f 201//201 213//213 202//202
f 202//202 213//213 214//214
f 202//202 214//214 203//203
f 203//203 214//214 215//215
f 203//203 215//215 204//204
f 204//204 215//215 216//216
f 204//204 216//216 193//193
f 193//193 216//216 205//205
f 205//205 217//217 206//206
f 206//206 217//217 218//218
f 206//206 218//218 207//207
f 207//207 218//218 219//219
f 207//207 219//219 208//208
f 208//208 219//219 220//220
f 208//208 220//220 209//209
f 209//209 220//220 221//221
f 209//209 221//221 210//210
f 210//210 221//221 222//222
f 210//210 222//222 211//211
f 211//211 222//222 223//223
f 211//211 223//223 212//212
f 212//212 223//223 224//224
f 212//212 224//224 213//213
f 213//213 224//224 225//225
f 213//213 225//225 214//214
f 214//214 225//225 226//226
f 214//214 226//226 215//215
f 215//215 226//226 227//227
f 215//215 227//227 216//216
f 216//216 227//227 228//228
f 216//216 228//228 205//205
f 205//205 228//228 217//217
f 217//217 229//229 218//218
f 218//218 229//229 230//230
f 218//218 230//230 219//219
f 219//219 230//230 231//231
f 219//219 231//231 220//220
f 220//220 231//231 232//232
f 220//220 232//232 221//221
f 221//221 232//232 233//233
f 221//221 233//233 222//222
f 222//222 233//233 234//234
f 222//222 234//234 223//223
f 223//223 234//234 235//235
f 223//223 235//235 224//224
f 224//224 235//235 236//236
f 224//224 236//236 225//225
f 225//225 236//236 237//237
f 225//225 237//237 226//226
f 226//226 237//237 238//238
f 226//226 238//238 227//227
f 227//227 238//238 239//239
f 227//227 239//239 228//228
f 228//228 239//239 240//240
f 228//228 240//240 217//217
f 217//217 240//240 229//229
f 229//229 241//241 230//230
f 230//230 241//241 242//242
f 230//230 242//242 231//231
f 231//231 242//242 243//243
f 231//231 243//243 232//232
f 232//232 243//243 244//244
f 232//232 244//244 233//233
f 233//233 244//244 245//245
f 233//233 245//245 234//234
f 234//234 245//245 246//246
f 234//234 246//246 235//235
f 235//235 246//246 247//247
f 235//235 247//247 236//236
f 236//236 247//247 248//248
f 236//236 248//248 237//237
f 237//237 248//248 249//249
f 237//237 249//249 238//238
f 238//238 249//249 250//250
f 238//238 250//250 239//239
f 239//239 250//250 251//251
f 239//239 251//251 240//240
f 240//240 251//251 252//252
f 240//240 252//252 229//229
f 229//229 252//252 241//241
f 241//241 253//253 242//242
f 242//242 253//253 254//254
f 242//242 254//254 243//243
f 243//243 254//254 255//255
f 243//243 255//255 244//244
f 244//244 255//255 256//256
f 244//244 256//256 245//245
f 245//245 256//256 257//257
f 245//245 257//257 246//246
f 246//246 257//257 258//258
f 246//246 258//258 247//247
f 247//247 258//258 259//259
f 247//247 259//259 248//248
f 248//248 259//259 260//260
f 248//248 260//260 249//249
f 249//249 260//260 261//261
f 249//249 261//261 250//250
f 250//250 261//261 262//262
f 250//250 262//262 251//251
f 251//251 262//262 263//263
f 251//251 263//263 252//252
f 252//252 263//263 264//264
f 252//252 264//264 241//241
f 241//241 264//264 253//253
f 253//253 265//265 254//254
f 254//254 265//265 266//266
f 254//254 266//266 255//255
f 255//255 266//266 267//267
f 255//255 267//267 256//256
f 256//256 267//267 268//268
f 256//256 268//268 257//257
f 257//257 268//268 269//269
f 257//257 269//269 258//258
f 258//258 269//269 270//270
f 258//258 270//270 259//259
f 259//259 270//270 271//271
f 259//259 271//271 260//260
f 260//260 271//271 272//272
f 260//260 272//272 261//261
f 261//261 272//272 273//273
f 261//261 273//273 262//262
f 262//262 273//273 274//274
f 262//262 274//274 263//263
f 263//263 274//274 275//275
f 263//263 275//275 264//264
f 264//264 275//275 276//276
f 264//264 276//276 253//253
f 253//253 276//276 265//265
f 265//265 277//277 266//266
f 266//266 277//277 278//278
f 266//266 278//278 267//267
f 267//267 278//278 279//279
f 267//267 279//279 268//268
f 268//268 279//279 280//280
f 268//268 280//280 269//269
f 269//269 280//280 281//281
f 269//269 281//281 270//270
f 270//270 281//281 282//282
f 270//270 282//282 271//271
f 271//271 282//282 283//283
f 271//271 283//283 272//272
f 272//272 283//283 284//284
f 272//272 284//284 273//273
f 273//273 284//284 285//285
f 273//273 285//285 274//274
f 274//274 285//285 286//286
f 274//274 286//286 275//275
f 275//275 286//286 287//287
f 275//275 287//287 276//276
f 276//276 287//287 288//288
f 276//276 288//288 265//265
f 265//265 288//288 277//277
f 277//277 289//289 278//278
f 278//278 289//289 290//290
f 278//278 290//290 279//279
f 279//279 290//290 291//291
f 279//279 291//291 280//280
f 280//280 291//291 292//292
f 280//280 292//292 281//281
f 281//281 292//292 293//293
f 281//281 293//293 282//282
f 282//282 293//293 294//294
f 282//282 294//294 283//283
f 283//283 294//294 295//295
f 283//283 295//295 284//284
f 284//284 295//295 296//296
f 284//284 296//296 285//285
f 285//285 296//296 297//297
f 285//285 297//297 286//286
f 286//286 297//297 298//298
f 286//286 298//298 287//287
f 287//287 298//298 299//299
f 287//287 299//299 288//288
f 288//288 299//299 300//300
f 288//288 300//300 277//277
f 277//277 300//300 289//289
f 289//289 301//301 290//290
f 290//290 301//301 302//302
f 290//290 302//302 291//291
f 291//291 302//302 303//303
f 291//291 303//303 292//292
f 292//292 303//303 304//304
f 292//292 304//304 293//293
f 293//293 304//304 305//305
f 293//293 305//305 294//294
f 294//294 305//305 306//306
f 294//294 306//306 295//295
f 295//295 306//306 307//307
f 295//295 307//307 296//296
f 296//296 307//307 308//308
f 296//296 308//308 297//297
f 297//297 308//308 309//309
f 297//297 309//309 298//298
f 298//298 309//309 310//310
f 298//298 310//310 299//299
f 299//299 310//310 311//311
f 299//299 311//311 300//300
f 300//300 311//311 312//312
f 300//300 312//312 289//289
f 289//289 312//312 301//301
f 301//301 313//313 302//302
f 302//302 313//313 314//314
f 302//302 314//314 303//303
f 303//303 314//314 315//315
f 303//303 315//315 304//304
f 304//304 315//315 316//316
f 304//304 316//316 305//305
f 305//305 316//316 317//317
f 305//305 317//317 306//306
f 306//306 317//317 318//318
f 306//306 318//318 307//307
f 307//307 318//318 319//319
f 307//307 319//319 308//308
f 308//308 319//319 320//320
f 308//308 320//320 309//309
f 309//309 320//320 321//321
f 309//309 321//321 310//310
f 310//310 321//321 322//322
f 310//310 322//322 311//311
f 311//311 322//322 323//323
f 311//311 323//323 312//312
f 312//312 323//323 324//324
f 312//312 324//324 301//301
f 301//301 324//324 313//313
f 313//313 325//325 314//314
f 314//314 325//325 326//326
f 314//314 326//326 315//315
f 315//315 326//326 327//327
f 315//315 327//327 316//316
f 316//316 327//327 328//328
f 316//316 328//328 317//317
f 317//317 328//328 329//329
f 317//317 329//329 318//318
f 318//318 329//329 330//330
f 318//318 330//330 319//319
f 319//319 330//330 331//331
f 319//319 331//331 320//320
f 320//320 331//331 332//332
f 320//320 332//332 321//321
f 321//321 332//332 333//333
f 321//321 333//333 322//322
f 322//322 333//333 334//334
f 322//322 334//334 323//323
f 323//323 334//334 335//335
f 323//323 335//335 324//324
f 324//324 335//335 336//336
f 324//324 336//336 313//313
f 313//313 336//336 325//325
f 325//325 337//337 326//326
f 326//326 337//337 338//338
f 326//326 338//338 327//327
f 327//327 338//338 339//339
f 327//327 339//339 328//328
f 328//328 339//339 340//340
f 328//328 340//340 329//329
f 329//329 340//340 341//341
f 329//329 341//341 330//330
f 330//330 341//341 342//342
f 330//330 342//342 331//331
f 331//331 342//342 343//343
f 331//331 343//343 332//332
f 332//332 343//343 344//344
f 332//332 344//344 333//333
f 333//333 344//344 345//345
f 333//333 345//345 334//334
f 334//334 345//345 346//346
f 334//334 346//346 335//335
f 335//335 346//346 347//347
f 335//335 347//347 336//336
f 336//336 347//347 348//348
f 336//336 348//348 325//325
f 325//325 348//348 337//337
f 337//337 349//349 338//338
f 338//338 349//349 350//350
f 338//338 350//350 339//339
f 339//339 350//350 351//351
f 339//339 351//351 340//340
f 340//340 351//351 352//352
f 340//340 352//352 341//341
f 341//341 352//352 353//353
f 341//341 353//353 342//342
f 342//342 353//353 354//354
f 342//342 354//354 343//343
f 343//343 354//354 355//355
f 343//343 355//355 344//344
f 344//344 355//355 356//356
f 344//344 356//356 345//345
f 345//345 356//356 357//357
f 345//345 357//357 346//346
f 346//346 357//357 358//358
f 346//346 358//358 347//347
f 347//347 358//358 359//359
f 347//347 359//359 348//348
f 348//348 359//359 360//360
f 348//348 360//360 337//337
f 337//337 360//360 349//349
f 349//349 361//361 350//350
f 350//350 361//361 362//362
f 350//350 362//362 351//351
f 351//351 362//362 363//363
f 351//351 363//363 352//352
f 352//352 363//363 364//364
f 352//352 364//364 353//353
f 353//353 364//364 365//365
f 353//353 365//365 354//354
f 354//354 365//365 366//366
f 354//354 366//366 355//355
f 355//355 366//366 367//367
f 355//355 367//367 356//356
f 356//356 367//367 368//368
f 356//356 368//368 357//357
f 357//357 368//368 369//369
f 357//357 369//369 358//358
f 358//358 369//369 370//370
f 358//358 370//370 359//359
f 359//359 370//370 371//371
f 359//359 371//371 360//360
f 360//360 371//371 372//372
f 360//360 372//372 349//349
f 349//349 372//372 361//361
f 361//361 373//373 362//362
f 362//362 373//373 374//374
f 362//362 374//374 363//363
f 363//363 374//374 375//375
f 363//363 375//375 364//364
f 364//364 375//375 376//376
f 364//364 376//376 365//365
f 365//365 376//376 377//377
f 365//365 377//377 366//366
f 366//366 377//377 378//378
f 366//366 378//378 367//367
f 367//367 378//378 379//379
f 367//367 379//379 368//368
f 368//368 379//379 380//380
f 368//368 380//380 369//369
f 369//369 380//380 381//381
f 369//369 381//381 370//370
f 370//370 381//381 382//382
f 370//370 382//382 371//371
f 371//371 382//382 383//383
f 371//371 383//383 372//372
f 372//372 383//383 384//384
f 372//372 384//384 361//361
f 361//361 384//384 373//373
f 373//373 1//1 374//374
f 374//374 1//1 2//2
f 374//374 2//2 375//375
f 375//375 2//2 3//3
f 375//375 3//3 376//376
f 376//376 3//3 4//4
f 376//376 4//4 377//377
f 377//377 4//4 5//5
f 377//377 5//5 378//378
f 378//378 5//5 6//6
f 378//378 6//6 379//379
f 379//379 6//6 7//7
f 379//379 7//7 380//380
f 380//380 7//7 8//8
f 380//380 8//8 381//381
f 381//381 8//8 9//9
f 381//381 9//9 382//382
f 382//382 9//9 10//10
f 382//382 10//10 383//383
f 383//383 10//10 11//11
f 383//383 11//11 384//384
f 384//384 11//11 12//12
f 384//384 12//12 373//373
f 373//373 12//12 1//1
f 385//385 397//397 386//386
f 386//386 397//397 398//398
f 386//386 398//398 387//387
f 387//387 398//398 399//399
f 387//387 399//399 388//388
f 388//388 399//399 400//400
f 388//388 400//400 389//389
f 389//389 400//400 401//401
f 389//389 401//401 390//390
f 390//390 401//401 402//402
f 390//390 402//402 391//391
f 391//391 402//402 403//403
f 391//391 403//403 392//392
f 392//392 403//403 404//404
f 392//392 404//404 393//393
f 393//393 404//404 405//405
f 393//393 405//405 394//394
f 394//394 405//405 406//406
f 394//394 406//406 395//395
f 395//395 406//406 407//407
f 395//395 407//407 396//396
f 396//396 407//407 408//408
f 396//396 408//408 385//385
f 385//385 408//408 397//397
f 397//397 409//409 398//398
f 398//398 409//409 410//410
f 398//398 410//410 399//399
f 399//399 410//410 411//411
f 399//399 411//411 400//400
f 400//400 411//411 412//412
f 400//400 412//412 401//401
f 401//401 412//412 413//413
f 401//401 413//413 402//402
f 402//402 413//413 414//414
f 402//402 414//414 403//403
f 403//403 414//414 415//415
f 403//403 415//415 404//404
f 404//404 415//415 416//416
f 404//404 416//416 405//405
f 405//405 416//416 417//417
f 405//405 417//417 406//406
f 406//406 417//417 418//418
f 406//406 418//418 407//407
f 407//407 418//418 419//419
f 407//407 419//419 408//408
f 408//408 419//419 420//420
f 408//408 420//420 397//397
f 397//397 420//420 409//409
f 409//409 421//421 410//410
f 410//410 421//421 422//422
f 410//410 422//422 411//411
f 411//411 422//422 423//423
f 411//411 423//423 412//412
f 412//412 423//423 424//424
f 412//412 424//424 413//413
f 413//413 424//424 425//425
f 413//413 425//425 414//414
f 414//414 425//425 426//426
f 414//414 426//426 415//415
f 415//415 426//426 427//427
f 415//415 427//427 416//416
f 416//416 427//427 428//428
f 416//416 428//428 417//417
f 417//417 428//428 429//429
f 417//417 429//429 418//418
f 418//418 429//429 430//430
f 418//418 430//430 419//419
f 419//419 430//430 431//431
f 419//419 431//431 420//420
f 420//420 431//431 432//432
f 420//420 432//432 409//409
f 409//409 432//432 421//421
f 421//421 433//433 422//422
f 422//422 433//433 434//434
f 422//422 434//434 423//423
f 423//423 434//434 435//435
f 423//423 435//435 424//424
f 424//424 435//435 436//436
f 424//424 436//436 425//425
f 425//425 436//436 437//437
f 425//425 437//437 426//426
f 426//426 437//437 438//438
f 426//426 438//438 427//427
f 427//427 438//438 439//439
f 427//427 439//439 428//428
f 428//428 439//439 440//440
f 428//428 440//440 429//429
f 429//429 440//440 441//441
f 429//429 441//441 430//430
f 430//430 441//441 442//442
f 430//430 442//442 431//431
f 431//431 442//442 443//443
f 431//431 443//443 432//432
f 432//432 443//443 444//444
f 432//432 444//444 421//421
f 421//421 444//444 433//433
f 433//433 445//445 434//434
f 434//434 445//445 446//446
f 434//434 446//446 435//435
f 435//435 446//446 447//447
f 435//435 447//447 436//436
f 436//436 447//447 448//448
f 436//436 448//448 437//437
f 437//437 448//448 449//449
f 437//437 449//449 438//438
f 438//438 449//449 450//450
f 438//438 450//450 439//439
f 439//439 450//450 451//451
f 439//439 451//451 440//440
f 440//440 451//451 452//452
f 440//440 452//452 441//441
f 441//441 452//452 453//453
f 441//441 453//453 442//442
f 442//442 453//453 454//454
f 442//442 454//454 443//443
f 443//443 454//454 455//455
f 443//443 455//455 444//444
f 444//444 455//455 456//456
f 444//444 456//456 433//433
f 433//433 456//456 445//445
f 445//445 457//457 446//446
f 446//446 457//457 458//458
f 446//446 458//458 447//447
f 447//447 458//458 459//459
f 447//447 459//459 448//448
f 448//448 459//459 460//460
f 448//448 460//460 449//449
f 449//449 460//460 461//461
f 449//449 461//461 450//450
f 450//450 461//461 462//462
f 450//450 462//462 451//451
f 451//451 462//462 463//463
f 451//451 463//463 452//452
f 452//452 463//463 464//464
f 452//452 464//464 453//453
f 453//453 464//464 465//465
f 453//453 465//465 454//454
f 454//454 465//465 466//466
f 454//454 466//466 455//455
f 455//455 466//466 467//467
f 455//455 467//467 456//456
f 456//456 467//467 468//468
f 456//456 468//468 445//445
f 445//445 468//468 457//457
f 457//457 469//469 458//458
f 458//458 469//469 470//470
f 458//458 470//470 459//459
f 459//459 470//470 471//471
f 459//459 471//471 460//460
f 460//460 471//471 472//472
f 460//460 472//472 461//461
f 461//461 472//472 473//473
f 461//461 473//473 462//462
f 462//462 473//473 474//474
f 462//462 474//474 463//463
f 463//463 474//474 475//475
f 463//463 475//475 464//464
f 464//464 475//475 476//476
f 464//464 476//476 465//465
f 465//465 476//476 477//477
f 465//465 477//477 466//466
f 466//466 477//477 478//478
f 466//466 478//478 467//467
f 467//467 478//478 479//479
f 467//467 479//479 468//468
f 468//468 479//479 480//480
f 468//468 480//480 457//457
f 457//457 480//480 469//469
f 469//469 481//481 470//470
f 470//470 481//481 482//482
f 470//470 482//482 471//471
f 471//471 482//482 483//483
f 471//471 483//483 472//472
f 472//472 483//483 484//484
f 472//472 484//484 473//473
f 473//473 484//484 485//485
f 473//473 485//485 474//474
f 474//474 485//485 486//486
f 474//474 486//486 475//475
f 475//475 486//486 487//487
f 475//475 487//487 476//476
f 476//476 487//487 488//488
f 476//476 488//488 477//477
f 477//477 488//488 489//489
f 477//477 489//489 478//478
f 478//478 489//489 490//490
f 478//478 490//490 479//479
f 479//479 490//490 491//491
f 479//479 491//491 480//480
f 480//480 491//491 492//492
f 480//480 492//492 469//469
f 469//469 492//492 481//481
f 481//481 493//493 482//482
f 482//482 493//493 494//494
f 482//482 494//494 483//483
f 483//483 494//494 495//495
f 483//483 495//495 484//484
f 484//484 495//495 496//496
f 484//484 496//496 485//485
f 485//485 496//496 497//497
f 485//485 497//497 486//486
f 486//486 497//497 498//498
f 486//486 498//498 487//487
f 487//487 498//498 499//499
f 487//487 499//499 488//488
f 488//488 499//499 500//500
f 488//488 500//500 489//489
f 489//489 500//500 501//501
f 489//489 501//501 490//490
f 490//490 501//501 502//502
f 490//490 502//502 491//491
f 491//491 502//502 503//503
f 491//491 503//503 492//492
f 492//492 503//503 504//504
f 492//492 504//504 481//481
f 481//481 504//504 493//493
f 493//493 505//505 494//494
f 494//494 505//505 506//506
f 494//494 506//506 495//495
f 495//495 506//506 507//507
f 495//495 507//507 496//496
f 496//496 507//507 508//508
f 496//496 508//508 497//497
f 497//497 508//508 509//509
f 497//497 509//509 498//498
f 498//498 509//509 510//510
f 498//498 510//510 499//499
f 499//499 510//510 511//511
f 499//499 511//511 500//500
f 500//500 511//511 512//512
f 500//500 512//512 501//501
f 501//501 512//512 513//513
f 501//501 513//513 502//502
f 502//502 513//513 514//514
f 502//502 514//514 503//503
f 503//503 514//514 515//515
f 503//503 515//515 504//504
f 504//504 515//515 516//516
f 504//504 516//516 493//493
f 493//493 516//516 505//505
f 505//505 517//517 506//506
f 506//506 517//517 518//518
f 506//506 518//518 507//507
f 507//507 518//518 519//519
f 507//507 519//519 508//508
f 508//508 519//519 520//520
f 508//508 520//520 509//509
f 509//509 520//520 521//521
f 509//509 521//521 510//510
f 510//510 521//521 522//522
f 510//510 522//522 511//511
f 511//511 522//522 523//523
f 511//511 523//523 512//512
f 512//512 523//523 524//524
f 512//512 524//524 513//513
f 513//513 524//524 525//525
f 513//513 525//525 514//514
f 514//514 525//525 526//526
f 514//514 526//526 515//515
f 515//515 526//526 527//527
f 515//515 527//527 516//516
f 516//516 527//527 528//528
f 516//516 528//528 505//505
f 505//505 528//528 517//517
f 517//517 529//529 518//518
f 518//518 529//529 530//530
f 518//518 530//530 519//519
f 519//519 530//530 531//531
f 519//519 531//531 520//520
f 520//520 531//531 532//532
f 520//520 532//532 521//521
f 521//521 532//532 533//533
f 521//521 533//533 522//522
f 522//522 533//533 534//534
f 522//522 534//534 523//523
f 523//523 534//534 535//535
f 523//523 535//535 524//524
f 524//524 535//535 536//536
f 524//524 536//536 525//525
f 525//525 536//536 537//537
f 525//525 537//537 526//526
f 526//526 537//537 538//538
f 526//526 538//538 527//527
f 527//527 538//538 539//539
f 527//527 539//539 528//528
f 528//528 539//539 540//540
f 528//528 540//540 517//517
f 517//517 540//540 529//529
f 529//529 541//541 530//530
f 530//530 541//541 542//542
f 530//530 542//542 531//531
f 531//531 542//542 543//543
f 531//531 543//543 532//532
f 532//532 543//543 544//544
f 532//532 544//544 533//533
f 533//533 544//544 545//545
f 533//533 545//545 534//534
f 534//534 545//545 546//546
f 534//534 546//546 535//535
f 535//535 546//546 547//547
f 535//535 547//547 536//536
f 536//536 547//547 548//548
f 536//536 548//548 537//537
f 537//537 548//548 549//549
f 537//537 549//549 538//538
f 538//538 549//549 550//550
f 538//538 550//550 539//539
f 539//539 550//550 551//551
f 539//539 551//551 540//540
f 540//540 551//551 552//552
f 540//540 552//552 529//529
f 529//529 552//552 541//541
f 541//541 553//553 542//542
f 542//542 553//553 554//554
f 542//542 554//554 543//543
f 543//543 554//554 555//555
f 543//543 555//555 544//544
f 544//544 555//555 556//556
f 544//544 556//556 545//545
f 545//545 556//556 557//557
f 545//545 557//557 546//546
f 546//546 557//557 558//558
f 546//546 558//558 547//547
f 547//547 558//558 559//559
f 547//547 559//559 548//548
f 548//548 559//559 560//560
f 548//548 560//560 549//549
f 549//549 560//560 561//561
f 549//549 561//561 550//550
f 550//550 561//561 562//562
f 550//550 562//562 551//551
f 551//551 562//562 563//563
f 551//551 563//563 552//552
f 552//552 563//563 564//564
f 552//552 564//564 541//541
f 541//541 564//564 553//553
f 553//553 565//565 554//554
f 554//554 565//565 566//566
f 554//554 566//566 555//555
f 555//555 566//566 567//567
f 555//555 567//567 556//556
f 556//556 567//567 568//568
f 556//556 568//568 557//557
f 557//557 568//568 569//569
f 557//557 569//569 558//558
f 558//558 569//569 570//570
f 558//558 570//570 559//559
f 559//559 570//570 571//571
f 559//559 571//571 560//560
f 560//560 571//571 572//572
f 560//560 572//572 561//561
f 561//561 572//572 573//573
f 561//561 573//573 562//562
f 562//562 573//573 574//574
f 562//562 574//574 563//563
f 563//563 574//574 575//575
f 563//563 575//575 564//564
f 564//564 575//575 576//576
f 564//564 576//576 553//553
f 553//553 576//576 565//565
f 565//565 577//577 566//566
f 566//566 577//577 578//578
f 566//566 578//578 567//567
f 567//567 578//578 579//579
f 567//567 579//579 568//568
f 568//568 579//579 580//580
f 568//568 580//580 569//569
f 569//569 580//580 581//581
f 569//569 581//581 570//570
f 570//570 581//581 582//582
f 570//570 582//582 571//571
f 571//571 582//582 583//583
f 571//571 583//583 572//572
f 572//572 583//583 584//584
f 572//572 584//584 573//573
f 573//573 584//584 585//585
f 573//573 585//585 574//574
f 574//574 585//585 586//586
f 574//574 586//586 575//575
f 575//575 586//586 587//587
f 575//575 587//587 576//576
f 576//576 587//587 588//588
f 576//576 588//588 565//565
f 565//565 588//588 577//577
f 577//577 589//589 578//578
f 578//578 589//589 590//590
f 578//578 590//590 579//579
f 579//579 590//590 591//591
f 579//579 591//591 580//580
f 580//580 591//591 592//592
f 580//580 592//592 581//581
f 581//581 592//592 593//593
f 581//581 593//593 582//582
f 582//582 593//593 594//594
f 582//582 594//594 583//583
f 583//583 594//594 595//595
f 583//583 595//595 584//584
f 584//584 595//595 596//596
f 584//584 596//596 585//585
f 585//585 596//596 597//597
f 585//585 597//597 586//586
f 586//586 597//597 598//598
f 586//586 598//598 587//587
f 587//587 598//598 599//599
f 587//587 599//599 588//588
f 588//588 599//599 600//600
f 588//588 600//600 577//577
f 577//577 600//600 589//589
f 589//589 601//601 590//590
f 590//590 601//601 602//602
f 590//590 602//602 591//591
f 591//591 602//602 603//603
f 591//591 603//603 592//592
f 592//592 603//603 604//604
f 592//592 604//604 593//593
f 593//593 604//604 605//605
f 593//593 605//605 594//594
f 594//594 605//605 606//606
f 594//594 606//606 595//595
f 595//595 606//606 607//607
f 595//595 607//607 596//596
f 596//596 607//607 608//608
f 596//596 608//608 597//597
f 597//597 608//608 609//609
f 597//597 609//609 598//598
f 598//598 609//609 610//610
f 598//598 610//610 599//599
f 599//599 610//610 611//611
f 599//599 611//611 600//600
f 600//600 611//611 612//612
f 600//600 612//612 589//589
f 589//589 612//612 601//601
f 601//601 613//613 602//602
f 602//602 613//613 614//614
f 602//602 614//614 603//603
f 603//603 614//614 615//615
f 603//603 615//615 604//604
f 604//604 615//615 616//616
f 604//604 616//616 605//605
f 605//605 616//616 617//617
f 605//605 617//617 606//606
f 606//606 617//617 618//618
f 606//606 618//618 607//607
f 607//607 618//618 619//619
f 607//607 619//619 608//608
f 608//608 619//619 620//620
f 608//608 620//620 609//609
f 609//609 620//620 621//621
f 609//609 621//621 610//610
f 610//610 621//621 622//622
f 610//610 622//622 611//611
f 611//611 622//622 623//623
f 611//611 623//623 612//612
f 612//612 623//623 624//624
f 612//612 624//624 601//601
f 601//601 624//624 613//613
f 613//613 625//625 614//614
f 614//614 625//625 626//626
f 614//614 626//626 615//615
f 615//615 626//626 627//627
f 615//615 627//627 616//616
f 616//616 627//627 628//628
f 616//616 628//628 617//617
f 617//617 628//628 629//629
f 617//617 629//629 618//618
f 618//618 629//629 630//630
f 618//618 630//630 619//619
f 619//619 630//630 631//631
f 619//619 631//631 620//620
f 620//620 631//631 632//632
f 620//620 632//632 621//621
f 621//621 632//632 633//633
f 621//621 633//633 622//622
f 622//622 633//633 634//634
f 622//622 634//634 623//623
f 623//623 634//634 635//635
f 623//623 635//635 624//624
f 624//624 635//635 636//636
f 624//624 636//636 613//613
f 613//613 636//636 625//625
f 625//625 637//637 626//626
f 626//626 637//637 638//638
f 626//626 638//638 627//627
f 627//627 638//638 639//639
f 627//627 639//639 628//628
f 628//628 639//639 640//640
f 628//628 640//640 629//629
f 629//629 640//640 641//641
f 629//629 641//641 630//630
f 630//630 641//641 642//642
f 630//630 642//642 631//631
f 631//631 642//642 643//643
f 631//631 643//643 632//632
f 632//632 643//643 644//644
f 632//632 644//644 633//633
f 633//633 644//644 645//645
f 633//633 645//645 634//634
f 634//634 645//645 646//646
f 634//634 646//646 635//635
f 635//635 646//646 647//647
f 635//635 647//647 636//636
f 636//636 647//647 648//648
f 636//636 648//648 625//625
f 625//625 648//648 637//637
f 637//637 649//649 638//638
f 638//638 649//649 650//650
f 638//638 650//650 639//639
f 639//639 650//650 651//651
f 639//639 651//651 640//640
f 640//640 651//651 652//652
f 640//640 652//652 641//641
f 641//641 652//652 653//653
f 641//641 653//653 642//642
f 642//642 653//653 654//654
f 642//642 654//654 643//643
f 643//643 654//654 655//655
f 643//643 655//655 644//644
f 644//644 655//655 656//656
f 644//644 656//656 645//645
f 645//645 656//656 657//657
f 645//645 657//657 646//646
f 646//646 657//657 658//658
f 646//646 658//658 647//647
f 647//647 658//658 659//659
f 647//647 659//659 648//648
f 648//648 659//659 660//660
f 648//648 660//660 637//637
f 637//637 660//660 649//649
f 649//649 661//661 650//650
f 650//650 661//661 662//662
f 650//650 662//662 651//651
f 651//651 662//662 663//663
f 651//651 663//663 652//652
f 652//652 663//663 664//664
f 652//652 664//664 653//653
f 653//653 664//664 665//665
f 653//653 665//665 654//654
f 654//654 665//665 666//666
f 654//654 666//666 655//655
f 655//655 666//666 667//667
f 655//655 667//667 656//656
f 656//656 667//667 668//668
f 656//656 668//668 657//657
f 657//657 668//668 669//669
f 657//657 669//669 658//658
f 658//658 669//669 670//670
f 658//658 670//670 659//659
f 659//659 670//670 671//671
f 659//659 671//671 660//660
f 660//660 671//671 672//672
f 660//660 672//672 649//649
f 649//649 672//672 661//661
f 661//661 673//673 662//662
f 662//662 673//673 674//674
f 662//662 674//674 663//663
f 663//663 674//674 675//675
f 663//663 675//675 664//664
f 664//664 675//675 676//676
f 664//664 676//676 665//665
f 665//665 676//676 677//677
f 665//665 677//677 666//666
f 666//666 677//677 678//678
f 666//666 678//678 667//667
f 667//667 678//678 679//679
f 667//667 679//679 668//668
f 668//668 679//679 680//680
f 668//668 680//680 669//669
f 669//669 680//680 681//681
f 669//669 681//681 670//670
f 670//670 681//681 682//682
f 670//670 682//682 671//671
f 671//671 682//682 683//683
f 671//671 683//683 672//672
f 672//672 683//683 684//684
f 672//672 684//684 661//661
f 661//661 684//684 673//673
f 673//673 685//685 674//674
f 674//674 685//685 686//686
f 674//674 686//686 675//675
f 675//675 686//686 687//687
f 675//675 687//687 676//676
f 676//676 687//687 688//688
f 676//676 688//688 677//677
f 677//677 688//688 689//689
f 677//677 689//689 678//678
f 678//678 689//689 690//690
f 678//678 690//690 679//679
f 679//679 690//690 691//691
f 679//679 691//691 680//680
f 680//680 691//691 692//692
f 680//680 692//692 681//681
f 681//681 692//692 693//693
f 681//681 693//693 682//682
f 682//682 693//693 694//694
f 682//682 694//694 683//683
f 683//683 694//694 695//695
f 683//683 695//695 684//684
f 684//684 695//695 696//696
f 684//684 696//696 673//673
f 673//673 696//696 685//685
f 685//685 697//697 686//686
f 686//686 697//697 698//698
f 686//686 698//698 687//687
f 687//687 698//698 699//699
f 687//687 699//699 688//688
f 688//688 699//699 700//700
f 688//688 700//700 689//689
f 689//689 700//700 701//701
f 689//689 701//701 690//690
f 690//690 701//701 702//702
f 690//690 702//702 691//691
f 691//691 702//702 703//703
f 691//691 703//703 692//692
f 692//692 703//703 704//704
f 692//692 704//704 693//693
f 693//693 704//704 705//705
f 693//693 705//705 694//694
f 694//694 705//705 706//706
f 694//694 706//706 695//695
f 695//695 706//706 707//707
f 695//695 707//707 696//696
f 696//696 707//707 708//708
f 696//696 708//708 685//685
f 685//685 708//708 697//697
f 697//697 709//709 698//698
f 698//698 709//709 710//710
f 698//698 710//710 699//699
f 699//699 710//710 711//711
f 699//699 711//711 700//700
f 700//700 711//711 712//712
f 700//700 712//712 701//701
f 701//701 712//712 713//713
f 701//701 713//713 702//702
f 702//702 713//713 714//714
f 702//702 714//714 703//703
f 703//703 714//714 715//715
f 703//703 715//715 704//704
f 704//704 715//715 716//716
f 704//704 716//716 705//705
f 705//705 716//716 717//717
f 705//705 717//717 706//706
f 706//706 717//717 718//718
f 706//706 718//718 707//707
f 707//707 718//718 719//719
f 707//707 719//719 708//708
f 708//708 719//719 720//720
f 708//708 720//720 697//697
f 697//697 720//720 709//709
f 709//709 721//721 710//710
f 710//710 721//721 722//722
f 710//710 722//722 711//711
f 711//711 722//722 723//723
f 711//711 723//723 712//712
f 712//712 723//723 724//724
f 712//712 724//724 713//713
f 713//713 724//724 725//725
f 713//713 725//725 714//714
f 714//714 725//725 726//726
f 714//714 726//726 715//715
f 715//715 726//726 727//727
f 715//715 727//727 716//716
f 716//716 727//727 728//728
f 716//716 728//728 717//717
f 717//717 728//728 729//729
f 717//717 729//729 718//718
f 718//718 729//729 730//730
f 718//718 730//730 719//719
f 719//719 730//730 731//731
f 719//719 731//731 720//720
f 720//720 731//731 732//732
f 720//720 732//732 709//709
f 709//709 732//732 721//721
f 721//721 733//733 722//722
f 722//722 733//733 734//734
f 722//722 734//734 723//723
f 723//723 734//734 735//735
f 723//723 735//735 724//724
f 724//724 735//735 736//736
f 724//724 736//736 725//725
f 725//725 736//736 737//737
f 725//725 737//737 726//726
f 726//726 737//737 738//738
f 726//726 738//738 727//727
f 727//727 738//738 739//739
f 727//727 739//739 728//728
f 728//728 739//739 740//740
f 728//728 740//740 729//729
f 729//729 740//740 741//741
f 729//729 741//741 730//730
f 730//730 741//741 742//742
f 730//730 742//742 731//731
f 731//731 742//742 743//743
f 731//731 743//743 732//732
f 732//732 743//743 744//744
f 732//732 744//744 721//721
f 721//721 744//744 733//733
f 733//733 745//745 734//734
f 734//734 745//745 746//746
f 734//734 746//746 735//735
f 735//735 746//746 747//747
f 735//735 747//747 736//736
f 736//736 747//747 748//748
f 736//736 748//748 737//737
f 737//737 748//748 749//749
f 737//737 749//749 738//738
f 738//738 749//749 750//750
f 738//738 750//750 739//739
f 739//739 750//750 751//751
f 739//739 751//751 740//740
f 740//740 751//751 752//752
f 740//740 752//752 741//741
f 741//741 752//752 753//753
f 741//741 753//753 742//742
f 742//742 753//753 754//754
f 742//742 754//754 743//743
f 743//743 754//754 755//755
f 743//743 755//755 744//744
f 744//744 755//755 756//756
f 744//744 756//756 733//733
f 733//733 756//756 745//745
f 745//745 757//757 746//746
f 746//746 757//757 758//758
f 746//746 758//758 747//747
f 747//747 758//758 759//759
f 747//747 759//759 748//748
f 748//748 759//759 760//760
f 748//748 760//760 749//749
f 749//749 760//760 761//761
f 749//749 761//761 750//750
f 750//750 761//761 762//762
f 750//750 762//762 751//751
f 751//751 762//762 763//763
f 751//751 763//763 752//752
f 752//752 763//763 764//764
f 752//752 764//764 753//753
f 753//753 764//764 765//765
f 753//753 765//765 754//754
f 754//754 765//765 766//766
f 754//754 766//766 755//755
f 755//755 766//766 767//767
f 755//755 767//767 756//756
f 756//756 767//767 768//768
f 756//756 768//768 745//745
f 745//745 768//768 757//757
f 757//757 385//385 758//758
f 758//758 385//385 386//386
f 758//758 386//386 759//759
f 759//759 386//386 387//387
f 759//759 387//387 760//760
f 760//760 387//387 388//388
f 760//760 388//388 761//761
f 761//761 388//388 389//389
f 761//761 389//389 762//762
f 762//762 389//389 390//390
f 762//762 390//390 763//763
f 763//763 390//390 391//391
f 763//763 391//391 764//764
f 764//764 391//391 392//392
f 764//764 392//392 765//765
f 765//765 392//392 393//393
f 765//765 393//393 766//766
f 766//766 393//393 394//394
f 766//766 394//394 767//767
f 767//767 394//394 395//395
f 767//767 395//395 768//768
f 768//768 395//395 396//396
f 768//768 396//396 757//757
f 757//757 396//396 385//385

