# https://github.com/mikedh/trimesh
v -0.0780000 1.6159317 0.1469232
v -0.0764609 1.6161770 0.1468072
v -0.0751075 1.6168835 0.1464733
v -0.0741029 1.6179658 0.1459616
v -0.0735684 1.6192935 0.1453340
v -0.0735684 1.6757065 0.1186660
v -0.0741029 1.6770342 0.1180384
v -0.0751075 1.6781165 0.1175267
v -0.0764609 1.6788230 0.1171928
v -0.0780000 1.6790683 0.1170768
v -0.0767548 1.6157904 0.1459894
v -0.0756599 1.6161569 0.1449362
v -0.0748472 1.6169869 0.1438907
v -0.0744147 1.6181803 0.1429790
v -0.0744147 1.6745932 0.1163111
v -0.0748472 1.6760552 0.1159675
v -0.0756599 1.6773899 0.1159896
v -0.0767548 1.6784363 0.1163749
v -0.0775244 1.6155514 0.1454839
v -0.0771062 1.6157078 0.1439862
v -0.0767957 1.6163818 0.1426108
v -0.0766305 1.6174923 0.1415235
v -0.0766305 1.6739052 0.1148556
v -0.0767957 1.6754501 0.1146876
v -0.0771062 1.6769408 0.1150397
v -0.0775244 1.6781974 0.1158694
v -0.0784756 1.6155514 0.1454839
v -0.0788938 1.6157078 0.1439862
v -0.0792043 1.6163818 0.1426108
v -0.0793695 1.6174923 0.1415235
v -0.0793695 1.6739052 0.1148556
v -0.0792043 1.6754501 0.1146876
v -0.0788938 1.6769408 0.1150397
v -0.0784756 1.6781974 0.1158694
v -0.0792452 1.6157904 0.1459894
v -0.0803401 1.6161569 0.1449362
v -0.0811528 1.6169869 0.1438907
v -0.0815853 1.6181803 0.1429790
v -0.0815853 1.6745932 0.1163111
v -0.0811528 1.6760552 0.1159675
v -0.0803401 1.6773899 0.1159896
v -0.0792452 1.6784363 0.1163749
v -0.0795391 1.6161770 0.1468072
v -0.0808925 1.6168835 0.1464733
v -0.0818971 1.6179658 0.1459616
v -0.0824316 1.6192935 0.1453340
v -0.0824316 1.6757065 0.1186660
v -0.0818971 1.6770342 0.1180384
v -0.0808925 1.6781165 0.1175267
v -0.0795391 1.6788230 0.1171928
v -0.0792452 1.6165637 0.1476251
v -0.0803401 1.6176101 0.1480104
v -0.0811528 1.6189448 0.1480325
v -0.0815853 1.6204068 0.1476889
v -0.0815853 1.6768197 0.1210210
v -0.0811528 1.6780131 0.1201093
v -0.0803401 1.6788431 0.1190638
v -0.0792452 1.6792096 0.1180106
v -0.0784756 1.6168026 0.1481306
v -0.0788938 1.6180592 0.1489603
v -0.0792043 1.6195499 0.1493124
v -0.0793695 1.6210948 0.1491444
v -0.0793695 1.6775077 0.1224765
v -0.0792043 1.6786182 0.1213892
v -0.0788938 1.6792922 0.1200138
v -0.0784756 1.6794486 0.1185161
v -0.0775244 1.6168026 0.1481306
v -0.0771062 1.6180592 0.1489603
v -0.0767957 1.6195499 0.1493124
v -0.0766305 1.6210948 0.1491444
v -0.0766305 1.6775077 0.1224765
v -0.0767957 1.6786182 0.1213892
v -0.0771062 1.6792922 0.1200138
v -0.0775244 1.6794486 0.1185161
v -0.0767548 1.6165637 0.1476251
v -0.0756599 1.6176101 0.1480104
v -0.0748472 1.6189448 0.1480325
v -0.0744147 1.6204068 0.1476889
v -0.0744147 1.6768197 0.1210210
v -0.0748472 1.6780131 0.1201093
v -0.0756599 1.6788431 0.1190638
v -0.0767548 1.6792096 0.1180106
vn 0.0000000 -0.9040723 0.4273796
vn 0.3718902 -0.8392292 0.3967265
vn 0.6621602 -0.6774777 0.3202622
vn 0.8741219 -0.4391139 0.2075811
vn 0.9857741 -0.1519525 0.0718321
vn 0.9857741 0.1519525 -0.0718321
vn 0.8741219 0.4391139 -0.2075811
vn 0.6621602 0.6774777 -0.3202622
vn 0.3718902 0.8392292 -0.3967265
vn 0.0000000 0.9040723 -0.4273796
vn 0.3008655 -0.9326508 0.1991040
vn 0.5356989 -0.8438172 -0.0316100
vn 0.7071795 -0.6586998 -0.2569276
vn 0.7975080 -0.3995863 -0.4520086
vn 0.7975080 -0.0956813 -0.5956728
vn 0.7071795 0.2195279 -0.6720898
vn 0.5356989 0.5111381 -0.6721343
vn 0.3008655 0.7458077 -0.5943491
vn 0.1149204 -0.9903885 0.0769665
vn 0.2046188 -0.9466207 -0.2490790
vn 0.2701185 -0.7944113 -0.5440097
vn 0.3046210 -0.5526324 -0.7757600
vn 0.3046210 -0.2487274 -0.9194241
vn 0.2701185 0.0838164 -0.9591719
vn 0.2046188 0.4083346 -0.8896033
vn 0.1149204 0.6880699 -0.7164866
vn -0.1149204 -0.9903885 0.0769665
vn -0.2046188 -0.9466207 -0.2490790
vn -0.2701185 -0.7944113 -0.5440097
vn -0.3046210 -0.5526324 -0.7757600
vn -0.3046210 -0.2487274 -0.9194241
vn -0.2701185 0.0838164 -0.9591719
vn -0.2046188 0.4083346 -0.8896033
vn -0.1149204 0.6880699 -0.7164866
vn -0.3008655 -0.9326508 0.1991040
vn -0.5356989 -0.8438172 -0.0316100
vn -0.7071795 -0.6586998 -0.2569276
vn -0.7975080 -0.3995863 -0.4520086
vn -0.7975080 -0.0956813 -0.5956728
vn -0.7071795 0.2195279 -0.6720898
vn -0.5356989 0.5111381 -0.6721343
vn -0.3008655 0.7458077 -0.5943491
vn -0.3718902 -0.8392292 0.3967265
vn -0.6621602 -0.6774777 0.3202622
vn -0.8741219 -0.4391139 0.2075811
vn -0.9857741 -0.1519525 0.0718321
vn -0.9857741 0.1519525 -0.0718321
vn -0.8741219 0.4391139 -0.2075811
vn -0.6621602 0.6774777 -0.3202622
vn -0.3718902 0.8392292 -0.3967265
vn -0.3008655 -0.7458077 0.5943491
vn -0.5356989 -0.5111381 0.6721343
vn -0.7071795 -0.2195279 0.6720898
vn -0.7975080 0.0956813 0.5956728
vn -0.7975080 0.3995863 0.4520086
vn -0.7071795 0.6586998 0.2569276
vn -0.5356989 0.8438172 0.0316100
vn -0.3008655 0.9326508 -0.1991040
vn -0.1149204 -0.6880699 0.7164866
vn -0.2046188 -0.4083346 0.8896033
vn -0.2701185 -0.0838164 0.9591719
vn -0.3046210 0.2487274 0.9194241
vn -0.3046210 0.5526324 0.7757600
vn -0.2701185 0.7944113 0.5440097
vn -0.2046188 0.9466207 0.2490790
vn -0.1149204 0.9903885 -0.0769665
vn 0.1149204 -0.6880699 0.7164866
vn 0.2046188 -0.4083346 0.8896033
vn 0.2701185 -0.0838164 0.9591719
vn 0.3046210 0.2487274 0.9194241
vn 0.3046210 0.5526324 0.7757600
vn 0.2701185 0.7944113 0.5440097
vn 0.2046188 0.9466207 0.2490790
vn 0.1149204 0.9903885 -0.0769665
vn 0.3008655 -0.7458077 0.5943491
vn 0.5356989 -0.5111381 0.6721343
vn 0.7071795 -0.2195279 0.6720898
vn 0.7975080 0.0956813 0.5956728
vn 0.7975080 0.3995863 0.4520086
vn 0.7071795 0.6586998 0.2569276
vn 0.5356989 0.8438172 0.0316100
vn 0.3008655 0.9326508 -0.1991040
f 2//2 1//1 11//11
f 2//2 11//11 3//3
f 3//3 11//11 12//12
f 3//3 12//12 4//4
f 4//4 12//12 13//13
f 4//4 13//13 5//5
f 5//5 13//13 14//14
f 5//5 14//14 6//6
f 6//6 14//14 15//15
f 6//6 15//15 7//7
f 7//7 15//15 16//16
f 7//7 16//16 8//8
f 8//8 16//16 17//17
f 8//8 17//17 9//9
f 9//9 17//17 18//18
f 9//9 18//18 10//10
f 11//11 1//1 19//19
f 11//11 19//19 12//12
f 12//12 19//19 20//20
f 12//12 20//20 13//13
f 13//13 20//20 21//21
f 13//13 21//21 14//14
f 14//14 21//21 22//22
f 14//14 22//22 15//15
f 15//15 22//22 23//23
f 15//15 23//23 16//16
f 16//16 23//23 24//24
f 16//16 24//24 17//17
f 17//17 24//24 25//25
f 17//17 25//25 18//18
f 18//18 25//25 26//26
f 18//18 26//26 10//10
f 19//19 1//1 27//27
f 19//19 27//27 20//20
f 20//20 27//27 28//28
f 20//20 28//28 21//21
f 21//21 28//28 29//29
f 21//21 29//29 22//22
f 22//22 29//29 30//30
f 22//22 30//30 23//23
f 23//23 30//30 31//31
f 23//23 31//31 24//24
f 24//24 31//31 32//32
f 24//24 32//32 25//25
f 25//25 32//32 33//33
f 25//25 33//33 26//26
f 26//26 33//33 34//34
f 26//26 34//34 10//10
f 27//27 1//1 35//35
f 27//27 35//35 28//28
f 28//28 35//35 36//36
f 28//28 36//36 29//29
f 29//29 36//36 37//37
f 29//29 37//37 30//30
f 30//30 37//37 38//38
f 30//30 38//38 31//31
f 31//31 38//38 39//39
f 31//31 39//39 32//32
f 32//32 39//39 40//40
f 32//32 40//40 33//33
f 33//33 40//40 41//41
f 33//33 41//41 34//34
f 34//34 41//41 42//42
f 34//34 42//42 10//10
f 35//35 1//1 43//43
f 35//35 43//43 36//36
f 36//36 43//43 44//44
f 36//36 44//44 37//37
f 37//37 44//44 45//45
f 37//37 45//45 38//38
f 38//38 45//45 46//46
f 38//38 46//46 39//39
f 39//39 46//46 47//47
f 39//39 47//47 40//40
f 40//40 47//47 48//48
f 40//40 48//48 41//41
f 41//41 48//48 49//49
f 41//41 49//49 42//42
f 42//42 49//49 50//50
f 42//42 50//50 10//10
f 43//43 1//1 51//51
f 43//43 51//51 44//44
f 44//44 51//51 52//52
f 44//44 52//52 45//45
f 45//45 52//52 53//53
f 45//45 53//53 46//46
f 46//46 53//53 54//54
f 46//46 54//54 47//47
f 47//47 54//54 55//55
f 47//47 55//55 48//48
f 48//48 55//55 56//56
f 48//48 56//56 49//49
f 49//49 56//56 57//57
f 49//49 57//57 50//50
f 50//50 57//57 58//58
f 50//50 58//58 10//10
f 51//51 1//1 59//59
f 51//51 59//59 52//52
f 52//52 59//59 60//60
f 52//52 60//60 53//53
f 53//53 60//60 61//61
f 53//53 61//61 54//54
f 54//54 61//61 62//62
f 54//54 62//62 55//55
f 55//55 62//62 63//63
f 55//55 63//63 56//56
f 56//56 63//63 64//64
f 56//56 64//64 57//57
f 57//57 64//64 65//65
f 57//57 65//65 58//58
f 58//58 65//65 66//66
f 58//58 66//66 10//10
f 59//59 1//1 67//67
f 59//59 67//67 60//60
f 60//60 67//67 68//68
f 60//60 68//68 61//61
f 61//61 68//68 69//69
f 61//61 69//69 62//62
f 62//62 69//69 70//70
f 62//62 70//70 63//63
f 63//63 70//70 71//71
f 63//63 71//71 64//64
f 64//64 71//71 72//72
f 64//64 72//72 65//65
f 65//65 72//72 73//73
f 65//65 73//73 66//66
f 66//66 73//73 74//74
f 66//66 74//74 10//10
f 67//67 1//1 75//75
f 67//67 75//75 68//68
f 68//68 75//75 76//76
f 68//68 76//76 69//69
f 69//69 76//76 77//77
f 69//69 77//77 70//70
f 70//70 77//77 78//78
f 70//70 78//78 71//71
f 71//71 78//78 79//79
f 71//71 79//79 72//72
f 72//72 79//79 80//80
f 72//72 80//80 73//73
f 73//73 80//80 81//81
f 73//73 81//81 74//74
f 74//74 81//81 82//82
f 74//74 82//82 10//10
f 75//75 1//1 2//2
f 75//75 2//2 76//76
f 76//76 2//2 3//3
f 76//76 3//3 77//77
f 77//77 3//3 4//4
f 77//77 4//4 78//78
f 78//78 4//4 5//5
f 78//78 5//5 79//79
f 79//79 5//5 6//6
f 79//79 6//6 80//80
f 80//80 6//6 7//7
f 80//80 7//7 81//81
f 81//81 7//7 8//8
f 81//81 8//8 82//82
f 82//82 8//8 9//9
f 82//82 9//9 10//10

