# https://github.com/mikedh/trimesh
v -0.0801029 1.6165520 0.1420000
v -0.0758971 1.6165520 0.1420000
v -0.0801029 1.6114480 0.1420000
v -0.0758971 1.6114480 0.1420000
v -0.0780000 1.6124228 0.1454026
v -0.0780000 1.6155772 0.1454026
v -0.0780000 1.6124228 0.1385974
v -0.0780000 1.6155772 0.1385974
v -0.0745974 1.6140000 0.1398971
v -0.0745974 1.6140000 0.1441029
v -0.0814026 1.6140000 0.1398971
v -0.0814026 1.6140000 0.1441029
v -0.0780000 1.6170000 0.1420000
v -0.0780000 1.6110000 0.1420000
v -0.0792361 1.6115729 0.1440000
v -0.0767639 1.6115729 0.1440000
v -0.0792361 1.6164271 0.1440000
v -0.0767639 1.6164271 0.1440000
v -0.0780000 1.6140000 0.1460000
v -0.0792361 1.6115729 0.1400000
v -0.0767639 1.6115729 0.1400000
v -0.0792361 1.6164271 0.1400000
v -0.0767639 1.6164271 0.1400000
v -0.0780000 1.6140000 0.1380000
v -0.0747639 1.6155000 0.1407639
v -0.0747639 1.6125000 0.1407639
v -0.0760000 1.6130729 0.1387639
v -0.0760000 1.6149271 0.1387639
v -0.0747639 1.6155000 0.1432361
v -0.0747639 1.6125000 0.1432361
v -0.0760000 1.6130729 0.1452361
v -0.0760000 1.6149271 0.1452361
v -0.0740000 1.6140000 0.1420000
v -0.0812361 1.6155000 0.1407639
v -0.0812361 1.6125000 0.1407639
v -0.0800000 1.6130729 0.1387639
v -0.0800000 1.6149271 0.1387639
v -0.0812361 1.6155000 0.1432361
v -0.0812361 1.6125000 0.1432361
v -0.0800000 1.6130729 0.1452361
v -0.0800000 1.6149271 0.1452361
v -0.0820000 1.6140000 0.1420000
vn -0.4378913 0.8990279 0.0000000
vn 0.4378913 0.8990279 0.0000000
vn -0.4378913 -0.8990279 0.0000000
vn 0.4378913 -0.8990279 0.0000000
vn 0.0000000 -0.6129103 0.7901525
vn 0.0000000 0.6129103 0.7901525
vn 0.0000000 -0.6129103 -0.7901525
vn -0.0000000 0.6129103 -0.7901525
vn 0.8499835 0.0000000 -0.5268093
vn 0.8499835 -0.0000000 0.5268093
vn -0.8499835 0.0000000 -0.5268093
vn -0.8499835 0.0000000 0.5268093
vn 0.0000000 1.0000000 -0.0000000
vn -0.0000000 -1.0000000 -0.0000000
vn -0.2651437 -0.8658775 0.4242110
vn 0.2651437 -0.8658775 0.4242110
vn -0.2651437 0.8658775 0.4242110
vn 0.2651437 0.8658775 0.4242110
vn 0.0000000 0.0000000 1.0000000
vn -0.2651437 -0.8658775 -0.4242110
vn 0.2651437 -0.8658775 -0.4242110
vn -0.2651437 0.8658775 -0.4242110
vn 0.2651437 0.8658775 -0.4242110
vn 0.0000000 0.0000000 -1.0000000
vn 0.7577420 0.5861192 -0.2868648
vn 0.7577420 -0.5861192 -0.2868648
vn 0.4860728 -0.3718796 -0.7908469
vn 0.4860728 0.3718796 -0.7908469
vn 0.7577420 0.5861192 0.2868648
vn 0.7577420 -0.5861192 0.2868648
vn 0.4860728 -0.3718796 0.7908469
vn 0.4860728 0.3718796 0.7908469
vn 1.0000000 0.0000000 0.0000000
vn -0.7577420 0.5861192 -0.2868648
vn -0.7577420 -0.5861192 -0.2868648
vn -0.4860728 -0.3718796 -0.7908469
vn -0.4860728 0.3718796 -0.7908469
vn -0.7577420 0.5861192 0.2868648
vn -0.7577420 -0.5861192 0.2868648
vn -0.4860728 -0.3718796 0.7908469
vn -0.4860728 0.3718796 0.7908469
vn -1.0000000 -0.0000000 0.0000000
f 1//1 38//38 17//17
f 38//38 12//12 41//41
f 17//17 41//41 6//6
f 38//38 41//41 17//17
f 1//1 17//17 13//13
f 17//17 6//6 18//18
f 13//13 18//18 2//2
f 17//17 18//18 13//13
f 1//1 13//13 22//22
f 13//13 2//2 23//23
f 22//22 23//23 8//8
f 13//13 23//23 22//22
f 1//1 22//22 34//34
f 22//22 8//8 37//37
f 34//34 37//37 11//11
f 22//22 37//37 34//34
f 1//1 34//34 38//38
f 34//34 11//11 42//42
f 38//38 42//42 12//12
f 34//34 42//42 38//38
f 2//2 18//18 29//29
f 18//18 6//6 32//32
f 29//29 32//32 10//10
f 18//18 32//32 29//29
f 6//6 41//41 19//19
f 41//41 12//12 40//40
f 19//19 40//40 5//5
f 41//41 40//40 19//19
f 12//12 42//42 39//39
f 42//42 11//11 35//35
f 39//39 35//35 3//3
f 42//42 35//35 39//39
f 11//11 37//37 36//36
f 37//37 8//8 24//24
f 36//36 24//24 7//7
f 37//37 24//24 36//36
f 8//8 23//23 28//28
f 23//23 2//2 25//25
f 28//28 25//25 9//9
f 23//23 25//25 28//28
f 4//4 30//30 16//16
f 30//30 10//10 31//31
f 16//16 31//31 5//5
f 30//30 31//31 16//16
f 4//4 16//16 14//14
f 16//16 5//5 15//15
f 14//14 15//15 3//3
f 16//16 15//15 14//14
f 4//4 14//14 21//21
f 14//14 3//3 20//20
f 21//21 20//20 7//7
f 14//14 20//20 21//21
f 4//4 21//21 26//26
f 21//21 7//7 27//27
f 26//26 27//27 9//9
f 21//21 27//27 26//26
f 4//4 26//26 30//30
f 26//26 9//9 33//33
f 30//30 33//33 10//10
f 26//26 33//33 30//30
f 5//5 31//31 19//19
f 31//31 10//10 32//32
f 19//19 32//32 6//6
f 31//31 32//32 19//19
f 3//3 15//15 39//39
f 15//15 5//5 40//40
f 39//39 40//40 12//12
f 15//15 40//40 39//39
f 7//7 20//20 36//36
f 20//20 3//3 35//35
f 36//36 35//35 11//11
f 20//20 35//35 36//36
f 9//9 27//27 28//28
f 27//27 7//7 24//24
f 28//28 24//24 8//8
f 27//27 24//24 28//28
f 10//10 33//33 29//29
f 33//33 9//9 25//25
f 29//29 25//25 2//2
f 33//33 25//25 29//29

