# https://github.com/mikedh/trimesh
v -0.0953491 1.6790715 0.1350000
v -0.0606509 1.6790715 0.1350000
v -0.0953491 1.6229285 0.1350000
v -0.0606509 1.6229285 0.1350000
v -0.0780000 1.6336509 0.1401039
v -0.0780000 1.6683491 0.1401039
v -0.0780000 1.6336509 0.1298961
v -0.0780000 1.6683491 0.1298961
v -0.0499285 1.6510000 0.1318456
v -0.0499285 1.6510000 0.1381544
v -0.1060715 1.6510000 0.1318456
v -0.1060715 1.6510000 0.1381544
v -0.0780000 1.6840000 0.1350000
v -0.0780000 1.6180000 0.1350000
v -0.0881976 1.6243024 0.1380000
v -0.0678024 1.6243024 0.1380000
v -0.0881976 1.6776976 0.1380000
v -0.0678024 1.6776976 0.1380000
v -0.0780000 1.6510000 0.1410000
v -0.0881976 1.6243024 0.1320000
v -0.0678024 1.6243024 0.1320000
v -0.0881976 1.6776976 0.1320000
v -0.0678024 1.6776976 0.1320000
v -0.0780000 1.6510000 0.1290000
v -0.0513024 1.6675000 0.1331459
v -0.0513024 1.6345000 0.1331459
v -0.0615000 1.6408024 0.1301459
v -0.0615000 1.6611976 0.1301459
v -0.0513024 1.6675000 0.1368541
v -0.0513024 1.6345000 0.1368541
v -0.0615000 1.6408024 0.1398541
v -0.0615000 1.6611976 0.1398541
v -0.0450000 1.6510000 0.1350000
v -0.1046976 1.6675000 0.1331459
v -0.1046976 1.6345000 0.1331459
v -0.0945000 1.6408024 0.1301459
v -0.0945000 1.6611976 0.1301459
v -0.1046976 1.6675000 0.1368541
v -0.1046976 1.6345000 0.1368541
v -0.0945000 1.6408024 0.1398541
v -0.0945000 1.6611976 0.1398541
v -0.1110000 1.6510000 0.1350000
vn -0.5446319 0.8386752 -0.0000000
vn 0.5446319 0.8386752 -0.0000000
vn -0.5446319 -0.8386752 -0.0000000
vn 0.5446319 -0.8386752 -0.0000000
vn 0.0000000 -0.1282770 0.9917384
vn 0.0000000 0.1282770 0.9917384
vn -0.0000000 -0.1282770 -0.9917384
vn 0.0000000 0.1282770 -0.9917384
vn 0.3755161 0.0000000 -0.9268159
vn 0.3755161 0.0000000 0.9268159
vn -0.3755161 -0.0000000 -0.9268159
vn -0.3755161 -0.0000000 0.9268159
vn 0.0000000 1.0000000 0.0000000
vn 0.0000000 -1.0000000 0.0000000
vn -0.1411126 -0.4052018 0.9032711
vn 0.1411126 -0.4052018 0.9032711
vn -0.1411126 0.4052018 0.9032711
vn 0.1411126 0.4052018 0.9032711
vn -0.0000000 0.0000000 1.0000000
vn -0.1411126 -0.4052018 -0.9032711
vn 0.1411126 -0.4052018 -0.9032711
vn -0.1411126 0.4052018 -0.9032711
vn 0.1411126 0.4052018 -0.9032711
vn 0.0000000 0.0000000 -1.0000000
vn 0.6940102 0.4111444 -0.5910246
vn 0.6940102 -0.4111444 -0.5910246
vn 0.1310016 -0.0837616 -0.9878373
vn 0.1310016 0.0837616 -0.9878373
vn 0.6940102 0.4111444 0.5910246
vn 0.6940102 -0.4111444 0.5910246
vn 0.1310016 -0.0837616 0.9878373
vn 0.1310016 0.0837616 0.9878373
vn 1.0000000 0.0000000 0.0000000
vn -0.6940102 0.4111444 -0.5910246
vn -0.6940102 -0.4111444 -0.5910246
vn -0.1310016 -0.0837616 -0.9878373
vn -0.1310016 0.0837616 -0.9878373
vn -0.6940102 0.4111444 0.5910246
vn -0.6940102 -0.4111444 0.5910246
vn -0.1310016 -0.0837616 0.9878373
vn -0.1310016 0.0837616 0.9878373
vn -1.0000000 -0.0000000 0.0000000
f 1//1 38//38 17//17
f 38//38 12//12 41//41
f 17//17 41//41 6//6
f 38//38 41//41 17//17
f 1//1 17//17 13//13
f 17//17 6//6 18//18
f 13//13 18//18 2//2
f 17//17 18//18 13//13
f 1//1 13//13 22//22
f 13//13 2//2 23//23
f 22//22 23//23 8//8
f 13//13 23//23 22//22
f 1//1 22//22 34//34
f 22//22 8//8 37//37
f 34//34 37//37 11//11
f 22//22 37//37 34//34
f 1//1 34//34 38//38
f 34//34 11//11 42//42
f 38//38 42//42 12//12
f 34//34 42//42 38//38
f 2//2 18//18 29//29
f 18//18 6//6 32//32
f 29//29 32//32 10//10
f 18//18 32//32 29//29
f 6//6 41//41 19//19
f 41//41 12//12 40//40
f 19//19 40//40 5//5
f 41//41 40//40 19//19
f 12//12 42//42 39//39
f 42//42 11//11 35//35
f 39//39 35//35 3//3
f 42//42 35//35 39//39
f 11//11 37//37 36//36
f 37//37 8//8 24//24
f 36//36 24//24 7//7
f 37//37 24//24 36//36
f 8//8 23//23 28//28
f 23//23 2//2 25//25
f 28//28 25//25 9//9
f 23//23 25//25 28//28
f 4//4 30//30 16//16
f 30//30 10//10 31//31
f 16//16 31//31 5//5
f 30//30 31//31 16//16
f 4//4 16//16 14//14
f 16//16 5//5 15//15
f 14//14 15//15 3//3
f 16//16 15//15 14//14
f 4//4 14//14 21//21
f 14//14 3//3 20//20
f 21//21 20//20 7//7
f 14//14 20//20 21//21
f 4//4 21//21 26//26
f 21//21 7//7 27//27
f 26//26 27//27 9//9
f 21//21 27//27 26//26
f 4//4 26//26 30//30
f 26//26 9//9 33//33
f 30//30 33//33 10//10
f 26//26 33//33 30//30
f 5//5 31//31 19//19
f 31//31 10//10 32//32
f 19//19 32//32 6//6
f 31//31 32//32 19//19
f 3//3 15//15 39//39
f 15//15 5//5 40//40
f 39//39 40//40 12//12
f 15//15 40//40 39//39
f 7//7 20//20 36//36
f 20//20 3//3 35//35
f 36//36 35//35 11//11
f 20//20 35//35 36//36
f 9//9 27//27 28//28
f 27//27 7//7 24//24
f 28//28 24//24 8//8
f 27//27 24//24 28//28
f 10//10 33//33 29//29
f 33//33 9//9 25//25
f 29//29 25//25 2//2
f 33//33 25//25 29//29

