# https://github.com/mikedh/trimesh
v 0.0799232 1.6159317 0.1450000
v 0.0810652 1.6167717 0.1456578
v 0.0818375 1.6180011 0.1462362
v 0.0821469 1.6194716 0.1466655
v 0.0819561 1.6210058 0.1468940
v 0.0552882 1.6774188 0.1468940
v 0.0542237 1.6785399 0.1466655
v 0.0528909 1.6792341 0.1462362
v 0.0514507 1.6794177 0.1456578
v 0.0500768 1.6790683 0.1450000
v 0.0811745 1.6168234 0.1447143
v 0.0820429 1.6180982 0.1444630
v 0.0824236 1.6196024 0.1442765
v 0.0822708 1.6211546 0.1441773
v 0.0556029 1.6775675 0.1441773
v 0.0545004 1.6786708 0.1442765
v 0.0530963 1.6793312 0.1444630
v 0.0515600 1.6794693 0.1447143
v 0.0807615 1.6166282 0.1438799
v 0.0812668 1.6177313 0.1428949
v 0.0813780 1.6191081 0.1421639
v 0.0810818 1.6205925 0.1417748
v 0.0544139 1.6770054 0.1417748
v 0.0534548 1.6781765 0.1421639
v 0.0523202 1.6789644 0.1428949
v 0.0511471 1.6792741 0.1438799
v 0.0799841 1.6162606 0.1434734
v 0.0798056 1.6170406 0.1421309
v 0.0794094 1.6181775 0.1411345
v 0.0788431 1.6195342 0.1406043
v 0.0521752 1.6759472 0.1406043
v 0.0514862 1.6772458 0.1411345
v 0.0508591 1.6782736 0.1421309
v 0.0503696 1.6789066 0.1434734
v 0.0791390 1.6158612 0.1436500
v 0.0782175 1.6162898 0.1424628
v 0.0772697 1.6171660 0.1415816
v 0.0764100 1.6183840 0.1411128
v 0.0497421 1.6747970 0.1411128
v 0.0493465 1.6762344 0.1415816
v 0.0492710 1.6775229 0.1424628
v 0.0495246 1.6785071 0.1436500
v 0.0785493 1.6155823 0.1443422
v 0.0771091 1.6157659 0.1437638
v 0.0757763 1.6164601 0.1433345
v 0.0747118 1.6175812 0.1431060
v 0.0480439 1.6739942 0.1431060
v 0.0478531 1.6755284 0.1433345
v 0.0481625 1.6769989 0.1437638
v 0.0489348 1.6782283 0.1443422
v 0.0784400 1.6155307 0.1452857
v 0.0769037 1.6156688 0.1455370
v 0.0754996 1.6163292 0.1457235
v 0.0743971 1.6174325 0.1458227
v 0.0477292 1.6738454 0.1458227
v 0.0475764 1.6753976 0.1457235
v 0.0479571 1.6769018 0.1455370
v 0.0488255 1.6781766 0.1452857
v 0.0788529 1.6157259 0.1461201
v 0.0776798 1.6160356 0.1471051
v 0.0765452 1.6168235 0.1478361
v 0.0755861 1.6179946 0.1482252
v 0.0489182 1.6744075 0.1482252
v 0.0486220 1.6758919 0.1478361
v 0.0487332 1.6772687 0.1471051
v 0.0492385 1.6783718 0.1461201
v 0.0796304 1.6160934 0.1465266
v 0.0791409 1.6167264 0.1478691
v 0.0785138 1.6177542 0.1488655
v 0.0778248 1.6190528 0.1493957
v 0.0511569 1.6754658 0.1493957
v 0.0505906 1.6768225 0.1488655
v 0.0501944 1.6779594 0.1478691
v 0.0500159 1.6787394 0.1465266
v 0.0804754 1.6164929 0.1463500
v 0.0807290 1.6174771 0.1475372
v 0.0806535 1.6187656 0.1484184
v 0.0802579 1.6202030 0.1488872
v 0.0535900 1.6766160 0.1488872
v 0.0527303 1.6778340 0.1484184
v 0.0517825 1.6787102 0.1475372
v 0.0508610 1.6791388 0.1463500
vn 0.4273796 -0.9040723 -0.0000000
vn 0.7006898 -0.6955375 0.1589383
vn 0.8614766 -0.4216308 0.2829938
vn 0.9220417 -0.1013688 0.3735819
vn 0.8775513 0.2289329 0.4212998
vn 0.7338871 0.5328379 0.4212998
vn 0.5068795 0.7768589 0.3735819
vn 0.2209523 0.9333245 0.2829938
vn -0.0927633 0.9829209 0.1589383
vn -0.4273796 0.9040723 0.0000000
vn 0.7270978 -0.6830537 -0.0690388
vn 0.9084969 -0.3994031 -0.1229254
vn 0.9841134 -0.0720258 -0.1622746
vn 0.9475514 0.2620239 -0.1830020
vn 0.8038873 0.5659289 -0.1830020
vn 0.5689512 0.8062019 -0.1622746
vn 0.2679725 0.9555522 -0.1229254
vn -0.0663553 0.9954048 -0.0690388
vn 0.6273153 -0.7302237 -0.2706454
vn 0.7308314 -0.4833904 -0.4818913
vn 0.7495762 -0.1828980 -0.6361477
vn 0.6830566 0.1369900 -0.7174033
vn 0.5393924 0.4408950 -0.7174033
vn 0.3344140 0.6953297 -0.6361477
vn 0.0903071 0.8715649 -0.4818913
vn -0.1661378 0.9482348 -0.2706454
vn 0.4394557 -0.8190300 -0.3688747
vn 0.3963425 -0.6415124 -0.6567910
vn 0.3080152 -0.3916359 -0.8670340
vn 0.1850947 -0.0984102 -0.9777808
vn 0.0414306 0.2054948 -0.9777808
vn -0.1071470 0.4865918 -0.8670340
vn -0.2441818 0.7134429 -0.6567910
vn -0.3539974 0.8594285 -0.3688747
vn 0.2352750 -0.9155518 -0.3262064
vn 0.0327935 -0.8133719 -0.5808190
vn -0.1719081 -0.6185088 -0.7667428
vn -0.3561296 -0.3542617 -0.8646794
vn -0.4997938 -0.0503567 -0.8646794
vn -0.5870703 0.2597189 -0.7667428
vn -0.6077309 0.5415834 -0.5808190
vn -0.5581781 0.7629067 -0.3262064
vn 0.0927633 -0.9829209 -0.1589383
vn -0.2209523 -0.9333245 -0.2829938
vn -0.5068795 -0.7768589 -0.3735819
vn -0.7338871 -0.5328379 -0.4212998
vn -0.8775513 -0.2289329 -0.4212998
vn -0.9220417 0.1013688 -0.3735819
vn -0.8614766 0.4216308 -0.2829938
vn -0.7006898 0.6955375 -0.1589383
vn 0.0663553 -0.9954048 0.0690388
vn -0.2679725 -0.9555522 0.1229254
vn -0.5689512 -0.8062019 0.1622746
vn -0.8038873 -0.5659289 0.1830020
vn -0.9475514 -0.2620239 0.1830020
vn -0.9841134 0.0720258 0.1622746
vn -0.9084969 0.3994031 0.1229254
vn -0.7270978 0.6830537 0.0690388
vn 0.1661378 -0.9482348 0.2706454
vn -0.0903071 -0.8715649 0.4818913
vn -0.3344140 -0.6953297 0.6361477
vn -0.5393924 -0.4408950 0.7174033
vn -0.6830566 -0.1369900 0.7174033
vn -0.7495762 0.1828980 0.6361477
vn -0.7308314 0.4833904 0.4818913
vn -0.6273153 0.7302237 0.2706454
vn 0.3539974 -0.8594285 0.3688747
vn 0.2441818 -0.7134429 0.6567910
vn 0.1071470 -0.4865918 0.8670340
vn -0.0414306 -0.2054948 0.9777808
vn -0.1850947 0.0984102 0.9777808
vn -0.3080152 0.3916359 0.8670340
vn -0.3963425 0.6415124 0.6567910
vn -0.4394557 0.8190300 0.3688747
vn 0.5581781 -0.7629067 0.3262064
vn 0.6077309 -0.5415834 0.5808190
vn 0.5870703 -0.2597189 0.7667428
vn 0.4997938 0.0503567 0.8646794
vn 0.3561296 0.3542617 0.8646794
vn 0.1719081 0.6185088 0.7667428
vn -0.0327935 0.8133719 0.5808190
vn -0.2352750 0.9155518 0.3262064
f 2//2 1//1 11//11
f 2//2 11//11 3//3
f 3//3 11//11 12//12
f 3//3 12//12 4//4
f 4//4 12//12 13//13
f 4//4 13//13 5//5
f 5//5 13//13 14//14
f 5//5 14//14 6//6
f 6//6 14//14 15//15
f 6//6 15//15 7//7
f 7//7 15//15 16//16
f 7//7 16//16 8//8
f 8//8 16//16 17//17
f 8//8 17//17 9//9
f 9//9 17//17 18//18
f 9//9 18//18 10//10
f 11//11 1//1 19//19
f 11//11 19//19 12//12
f 12//12 19//19 20//20
f 12//12 20//20 13//13
f 13//13 20//20 21//21
f 13//13 21//21 14//14
f 14//14 21//21 22//22
f 14//14 22//22 15//15
f 15//15 22//22 23//23
f 15//15 23//23 16//16
f 16//16 23//23 24//24
f 16//16 24//24 17//17
f 17//17 24//24 25//25
f 17//17 25//25 18//18
f 18//18 25//25 26//26
f 18//18 26//26 10//10
f 19//19 1//1 27//27
f 19//19 27//27 20//20
f 20//20 27//27 28//28
f 20//20 28//28 21//21
f 21//21 28//28 29//29
f 21//21 29//29 22//22
f 22//22 29//29 30//30
f 22//22 30//30 23//23
f 23//23 30//30 31//31
f 23//23 31//31 24//24
f 24//24 31//31 32//32
f 24//24 32//32 25//25
f 25//25 32//32 33//33
f 25//25 33//33 26//26
f 26//26 33//33 34//34
f 26//26 34//34 10//10
f 27//27 1//1 35//35
f 27//27 35//35 28//28
f 28//28 35//35 36//36
f 28//28 36//36 29//29
f 29//29 36//36 37//37
f 29//29 37//37 30//30
f 30//30 37//37 38//38
f 30//30 38//38 31//31
f 31//31 38//38 39//39
f 31//31 39//39 32//32
f 32//32 39//39 40//40
f 32//32 40//40 33//33
f 33//33 40//40 41//41
f 33//33 41//41 34//34
f 34//34 41//41 42//42
f 34//34 42//42 10//10
f 35//35 1//1 43//43
f 35//35 43//43 36//36
f 36//36 43//43 44//44
f 36//36 44//44 37//37
f 37//37 44//44 45//45
f 37//37 45//45 38//38
f 38//38 45//45 46//46
f 38//38 46//46 39//39
f 39//39 46//46 47//47
f 39//39 47//47 40//40
f 40//40 47//47 48//48
f 40//40 48//48 41//41
f 41//41 48//48 49//49
f 41//41 49//49 42//42
f 42//42 49//49 50//50
f 42//42 50//50 10//10
f 43//43 1//1 51//51
f 43//43 51//51 44//44
f 44//44 51//51 52//52
f 44//44 52//52 45//45
f 45//45 52//52 53//53
f 45//45 53//53 46//46
f 46//46 53//53 54//54
f 46//46 54//54 47//47
f 47//47 54//54 55//55
f 47//47 55//55 48//48
f 48//48 55//55 56//56
f 48//48 56//56 49//49
f 49//49 56//56 57//57
f 49//49 57//57 50//50
f 50//50 57//57 58//58
f 50//50 58//58 10//10
f 51//51 1//1 59//59
f 51//51 59//59 52//52
f 52//52 59//59 60//60
f 52//52 60//60 53//53
f 53//53 60//60 61//61
f 53//53 61//61 54//54
f 54//54 61//61 62//62
f 54//54 62//62 55//55
f 55//55 62//62 63//63
f 55//55 63//63 56//56
f 56//56 63//63 64//64
f 56//56 64//64 57//57
f 57//57 64//64 65//65
f 57//57 65//65 58//58
f 58//58 65//65 66//66
f 58//58 66//66 10//10
f 59//59 1//1 67//67
f 59//59 67//67 60//60
f 60//60 67//67 68//68
f 60//60 68//68 61//61
f 61//61 68//68 69//69
f 61//61 69//69 62//62
f 62//62 69//69 70//70
f 62//62 70//70 63//63
f 63//63 70//70 71//71
f 63//63 71//71 64//64
f 64//64 71//71 72//72
f 64//64 72//72 65//65
f 65//65 72//72 73//73
f 65//65 73//73 66//66
f 66//66 73//73 74//74
f 66//66 74//74 10//10
f 67//67 1//1 75//75
f 67//67 75//75 68//68
f 68//68 75//75 76//76
f 68//68 76//76 69//69
f 69//69 76//76 77//77
f 69//69 77//77 70//70
f 70//70 77//77 78//78
f 70//70 78//78 71//71
f 71//71 78//78 79//79
f 71//71 79//79 72//72
f 72//72 79//79 80//80
f 72//72 80//80 73//73
f 73//73 80//80 81//81
f 73//73 81//81 74//74
f 74//74 81//81 82//82
f 74//74 82//82 10//10
f 75//75 1//1 2//2
f 75//75 2//2 76//76
f 76//76 2//2 3//3
f 76//76 3//3 77//77
f 77//77 3//3 4//4
f 77//77 4//4 78//78
f 78//78 4//4 5//5
f 78//78 5//5 79//79
f 79//79 5//5 6//6
f 79//79 6//6 80//80
f 80//80 6//6 7//7
f 80//80 7//7 81//81
f 81//81 7//7 8//8
f 81//81 8//8 82//82
f 82//82 8//8 9//9
f 82//82 9//9 10//10

