# https://github.com/mikedh/trimesh
v -0.0381832 -0.2814771 0.0714771
v -0.0386177 -0.2811472 0.0736233
v -0.0394399 -0.2807782 0.0756461
v -0.0406216 -0.2803827 0.0774766
v -0.0421227 -0.2799741 0.0790525
v -0.0438921 -0.2795665 0.0803201
v -0.0458694 -0.2791736 0.0812363
v -0.0479875 -0.2788088 0.0817699
v -0.0501740 -0.2784846 0.0819027
v -0.1323547 -0.2682121 0.0716301
v -0.1344551 -0.2680004 0.0709615
v -0.1364038 -0.2678568 0.0699196
v -0.1381345 -0.2677862 0.0685398
v -0.1395881 -0.2677909 0.0668693
v -0.1407153 -0.2678709 0.0649649
v -0.1414775 -0.2680234 0.0628914
v -0.1418489 -0.2682433 0.0607194
v -0.1418168 -0.2685229 0.0585229
v -0.0384994 -0.2804244 0.0733995
v -0.0392073 -0.2793573 0.0752061
v -0.0402826 -0.2783120 0.0768355
v -0.0416889 -0.2773243 0.0782321
v -0.0433782 -0.2764276 0.0793483
v -0.0452931 -0.2756526 0.0801462
v -0.0473682 -0.2750257 0.0805986
v -0.0495329 -0.2745681 0.0806900
v -0.1317135 -0.2642956 0.0704174
v -0.1338358 -0.2642172 0.0697901
v -0.1358274 -0.2643358 0.0688294
v -0.1376207 -0.2646473 0.0675680
v -0.1391544 -0.2651411 0.0660489
v -0.1403763 -0.2658003 0.0643238
v -0.1412449 -0.2666026 0.0624514
v -0.1417306 -0.2675205 0.0604956
v -0.0383672 -0.2798256 0.0729408
v -0.0389474 -0.2781801 0.0743044
v -0.0399039 -0.2765965 0.0755214
v -0.0412043 -0.2751288 0.0765504
v -0.0428042 -0.2738270 0.0773563
v -0.0446491 -0.2727355 0.0779117
v -0.0466762 -0.2718913 0.0781976
v -0.0488166 -0.2713232 0.0782044
v -0.1309972 -0.2610506 0.0679319
v -0.1331439 -0.2610828 0.0673892
v -0.1351835 -0.2614187 0.0665949
v -0.1370466 -0.2620467 0.0655760
v -0.1386697 -0.2629456 0.0643672
v -0.1399976 -0.2640848 0.0630097
v -0.1409850 -0.2654254 0.0615497
v -0.1415984 -0.2669217 0.0600369
v -0.0382371 -0.2794230 0.0723026
v -0.0386916 -0.2773885 0.0730496
v -0.0395312 -0.2754429 0.0736928
v -0.0407272 -0.2736526 0.0742103
v -0.0422391 -0.2720784 0.0745843
v -0.0440152 -0.2707739 0.0748023
v -0.0459952 -0.2697836 0.0748567
v -0.0481115 -0.2691413 0.0747457
v -0.1302921 -0.2588687 0.0644732
v -0.1324628 -0.2589752 0.0640482
v -0.1345496 -0.2594571 0.0634855
v -0.1364815 -0.2602981 0.0628040
v -0.1381927 -0.2614694 0.0620271
v -0.1396248 -0.2629312 0.0611811
v -0.1407292 -0.2646338 0.0602949
v -0.1414683 -0.2665191 0.0593987
v -0.0381248 -0.2792650 0.0715617
v -0.0384707 -0.2770780 0.0715931
v -0.0392093 -0.2749905 0.0715703
v -0.0403153 -0.2730736 0.0714940
v -0.0417512 -0.2713925 0.0713668
v -0.0434679 -0.2700046 0.0711931
v -0.0454071 -0.2689570 0.0709787
v -0.0475027 -0.2682855 0.0707310
v -0.1296833 -0.2580129 0.0604585
v -0.1318747 -0.2581486 0.0601703
v -0.1340023 -0.2586878 0.0598763
v -0.1359936 -0.2596122 0.0595865
v -0.1377808 -0.2608904 0.0593108
v -0.1393030 -0.2624788 0.0590586
v -0.1405084 -0.2643233 0.0588384
v -0.1413559 -0.2663612 0.0586578
v -0.0380437 -0.2793709 0.0708076
v -0.0383114 -0.2772861 0.0701106
v -0.0389772 -0.2752938 0.0694099
v -0.0400183 -0.2734617 0.0687292
v -0.0413993 -0.2718522 0.0680918
v -0.0430732 -0.2705203 0.0675194
v -0.0449829 -0.2695111 0.0670315
v -0.0470636 -0.2688591 0.0666446
v -0.1292442 -0.2585866 0.0563720
v -0.1314506 -0.2587026 0.0562230
v -0.1336076 -0.2592035 0.0562026
v -0.1356417 -0.2600719 0.0563115
v -0.1374837 -0.2612785 0.0565460
v -0.1390708 -0.2627821 0.0568981
v -0.1403491 -0.2645314 0.0573559
v -0.1412749 -0.2664670 0.0579037
v -0.0380038 -0.2797278 0.0701312
v -0.0382329 -0.2779877 0.0687809
v -0.0388627 -0.2763161 0.0674721
v -0.0398718 -0.2747700 0.0662493
v -0.0412258 -0.2734020 0.0651543
v -0.0428786 -0.2722587 0.0642243
v -0.0447739 -0.2713790 0.0634910
v -0.0468471 -0.2707929 0.0629794
v -0.1290278 -0.2605204 0.0527068
v -0.1312415 -0.2605706 0.0526826
v -0.1334130 -0.2609419 0.0529075
v -0.1354682 -0.2616217 0.0533740
v -0.1373372 -0.2625869 0.0540662
v -0.1389564 -0.2638044 0.0549604
v -0.1402706 -0.2652330 0.0560262
v -0.1412350 -0.2668239 0.0572273
v -0.0380098 -0.2802926 0.0696142
v -0.0382446 -0.2790981 0.0677643
v -0.0388798 -0.2779343 0.0659907
v -0.0398937 -0.2768409 0.0643535
v -0.0412517 -0.2758550 0.0629087
v -0.0429077 -0.2750103 0.0617053
v -0.0448051 -0.2743356 0.0607844
v -0.0468795 -0.2738537 0.0601773
v -0.1290601 -0.2635811 0.0499047
v -0.1312728 -0.2635271 0.0499759
v -0.1334420 -0.2636935 0.0503885
v -0.1354941 -0.2640747 0.0511284
v -0.1373591 -0.2646577 0.0521703
v -0.1389735 -0.2654226 0.0534790
v -0.1402823 -0.2663434 0.0550096
v -0.1412409 -0.2673887 0.0567103
v -0.0380609 -0.2809972 0.0693187
v -0.0383452 -0.2804834 0.0671836
v -0.0390264 -0.2799531 0.0651443
v -0.0400813 -0.2794244 0.0632704
v -0.0414739 -0.2789153 0.0616257
v -0.0431569 -0.2784432 0.0602661
v -0.0450729 -0.2780241 0.0592381
v -0.0471567 -0.2776722 0.0585765
v -0.1293373 -0.2673996 0.0483039
v -0.1315405 -0.2672156 0.0484296
v -0.1336913 -0.2671264 0.0489493
v -0.1357163 -0.2671350 0.0498454
v -0.1375467 -0.2672413 0.0510872
v -0.1391200 -0.2674414 0.0526326
v -0.1403829 -0.2677287 0.0544289
v -0.1412921 -0.2680933 0.0564148
v -0.0381511 -0.2817567 0.0692806
v -0.0385225 -0.2819766 0.0671086
v -0.0392847 -0.2821291 0.0650351
v -0.0404119 -0.2822091 0.0631307
v -0.0418655 -0.2822138 0.0614602
v -0.0435962 -0.2821432 0.0600804
v -0.0455449 -0.2819996 0.0590385
v -0.0476453 -0.2817879 0.0583699
v -0.1298260 -0.2715154 0.0480973
v -0.1320125 -0.2711912 0.0482301
v -0.1341306 -0.2708264 0.0487637
v -0.1361079 -0.2704335 0.0496799
v -0.1378773 -0.2700259 0.0509475
v -0.1393784 -0.2696173 0.0525234
v -0.1405601 -0.2692218 0.0543539
v -0.1413823 -0.2688528 0.0563767
v -0.0382694 -0.2824795 0.0695044
v -0.0387551 -0.2833974 0.0675486
v -0.0396237 -0.2841997 0.0656762
v -0.0408456 -0.2848589 0.0639511
v -0.0423793 -0.2853527 0.0624320
v -0.0441726 -0.2856642 0.0611706
v -0.0461642 -0.2857828 0.0602099
v -0.0482865 -0.2857044 0.0595826
v -0.1304671 -0.2754319 0.0493100
v -0.1326318 -0.2749743 0.0494014
v -0.1347069 -0.2743474 0.0498538
v -0.1366218 -0.2735724 0.0506517
v -0.1383111 -0.2726757 0.0517679
v -0.1397174 -0.2716880 0.0531645
v -0.1407927 -0.2706427 0.0547939
v -0.1415006 -0.2695756 0.0566005
v -0.0384016 -0.2830783 0.0699631
v -0.0390150 -0.2845746 0.0684503
v -0.0400024 -0.2859152 0.0669903
v -0.0413303 -0.2870544 0.0656328
v -0.0429534 -0.2879533 0.0644240
v -0.0448165 -0.2885813 0.0634051
v -0.0468561 -0.2889172 0.0626108
v -0.0490028 -0.2889494 0.0620681
v -0.1311834 -0.2786768 0.0517956
v -0.1333238 -0.2781087 0.0518024
v -0.1353509 -0.2772645 0.0520883
v -0.1371958 -0.2761730 0.0526437
v -0.1387957 -0.2748712 0.0534496
v -0.1400961 -0.2734035 0.0544786
v -0.1410526 -0.2718199 0.0556956
v -0.1416328 -0.2701744 0.0570592
v -0.0385317 -0.2834809 0.0706013
v -0.0392708 -0.2853662 0.0697051
v -0.0403752 -0.2870688 0.0688189
v -0.0418073 -0.2885306 0.0679729
v -0.0435185 -0.2897019 0.0671960
v -0.0454504 -0.2905429 0.0665145
v -0.0475372 -0.2910248 0.0659518
v -0.0497079 -0.2911313 0.0655268
v -0.1318885 -0.2808587 0.0552543
v -0.1340048 -0.2802164 0.0551433
v -0.1359848 -0.2792261 0.0551977
v -0.1377609 -0.2779216 0.0554157
v -0.1392728 -0.2763474 0.0557897
v -0.1404688 -0.2745571 0.0563072
v -0.1413084 -0.2726115 0.0569504
v -0.1417629 -0.2705770 0.0576974
v -0.0386441 -0.2836388 0.0713422
v -0.0394916 -0.2856767 0.0711616
v -0.0406970 -0.2875212 0.0709414
v -0.0422192 -0.2891096 0.0706892
v -0.0440064 -0.2903878 0.0704135
v -0.0459977 -0.2913122 0.0701237
v -0.0481253 -0.2918514 0.0698297
v -0.0503167 -0.2919871 0.0695415
v -0.1324973 -0.2817145 0.0592690
v -0.1345929 -0.2810430 0.0590213
v -0.1365321 -0.2799954 0.0588069
v -0.1382488 -0.2786075 0.0586332
v -0.1396847 -0.2769264 0.0585060
v -0.1407907 -0.2750095 0.0584297
v -0.1415293 -0.2729220 0.0584069
v -0.1418752 -0.2707350 0.0584383
v -0.0387251 -0.2835330 0.0720963
v -0.0396509 -0.2854686 0.0726441
v -0.0409292 -0.2872179 0.0731019
v -0.0425163 -0.2887215 0.0734540
v -0.0443583 -0.2899281 0.0736885
v -0.0463924 -0.2907965 0.0737974
v -0.0485494 -0.2912974 0.0737770
v -0.0507558 -0.2914134 0.0736280
v -0.1329364 -0.2811409 0.0633554
v -0.1350171 -0.2804889 0.0629685
v -0.1369268 -0.2794797 0.0624806
v -0.1386007 -0.2781478 0.0619082
v -0.1399817 -0.2765383 0.0612708
v -0.1410228 -0.2747062 0.0605901
v -0.1416886 -0.2727139 0.0598894
v -0.1419563 -0.2706291 0.0591924
v -0.0387650 -0.2831761 0.0727727
v -0.0397294 -0.2847670 0.0739738
v -0.0410436 -0.2861956 0.0750396
v -0.0426628 -0.2874131 0.0759338
v -0.0445318 -0.2883783 0.0766260
v -0.0465870 -0.2890581 0.0770925
v -0.0487585 -0.2894294 0.0773174
v -0.0509722 -0.2894796 0.0772932
v -0.1331529 -0.2792071 0.0670206
v -0.1352261 -0.2786210 0.0665090
v -0.1371214 -0.2777413 0.0657757
v -0.1387742 -0.2765980 0.0648457
v -0.1401282 -0.2752300 0.0637507
v -0.1411373 -0.2736839 0.0625279
v -0.1417671 -0.2720123 0.0612191
v -0.1419962 -0.2702722 0.0598688
v -0.0387591 -0.2826113 0.0732897
v -0.0397177 -0.2836566 0.0749904
v -0.0410265 -0.2845774 0.0765210
v -0.0426409 -0.2853423 0.0778297
v -0.0445059 -0.2859253 0.0788716
v -0.0465580 -0.2863065 0.0796115
v -0.0487272 -0.2864729 0.0800241
v -0.0509399 -0.2864189 0.0800953
v -0.1331205 -0.2761463 0.0698227
v -0.1351949 -0.2756644 0.0692156
v -0.1370923 -0.2749897 0.0682947
v -0.1387483 -0.2741450 0.0670913
v -0.1401063 -0.2731591 0.0656465
v -0.1411202 -0.2720657 0.0640093
v -0.1417554 -0.2709019 0.0622357
v -0.1419902 -0.2697074 0.0603858
v -0.0387079 -0.2819067 0.0735852
v -0.0396171 -0.2822713 0.0755711
v -0.0408800 -0.2825586 0.0773674
v -0.0424533 -0.2827587 0.0789128
v -0.0442837 -0.2828650 0.0801546
v -0.0463087 -0.2828736 0.0810507
v -0.0484595 -0.2827844 0.0815704
v -0.0506627 -0.2826004 0.0816961
v -0.1328433 -0.2723278 0.0714235
v -0.1349271 -0.2719759 0.0707619
v -0.1368431 -0.2715568 0.0697339
v -0.1385261 -0.2710847 0.0683743
v -0.1399187 -0.2705756 0.0667296
v -0.1409736 -0.2700469 0.0648557
v -0.1416548 -0.2695166 0.0628164
v -0.1419391 -0.2690028 0.0606813
vn 0.9847319 -0.1230915 0.1230915
vn 0.9456111 -0.0939994 0.3114222
vn 0.8756543 -0.0631962 0.4787858
vn 0.7762502 -0.0303120 0.6296957
vn 0.6508724 0.0035418 0.7591789
vn 0.5038136 0.0372320 0.8630097
vn 0.3400389 0.0696396 0.9378293
vn 0.1650233 0.0996940 0.9812382
vn -0.0154205 0.1264050 0.9918589
vn -0.1953210 0.1488925 0.9693713
vn -0.3687295 0.1664131 0.9145191
vn -0.5299007 0.1783821 0.8290869
vn -0.6734679 0.1843922 0.7158495
vn -0.7946103 0.1842271 0.5784936
vn -0.8892067 0.1778701 0.4215136
vn -0.9539739 0.1655073 0.2500822
vn -0.9865853 0.1475252 0.0698976
vn -0.9847319 0.1230915 -0.1230915
vn 0.9560001 -0.0305370 0.2917728
vn 0.8955121 0.0581080 0.4412272
vn 0.8048902 0.1446390 0.5755270
vn 0.6873170 0.2261683 0.6902487
vn 0.5468292 0.2999988 0.7816511
vn 0.3881781 0.3637045 0.8467802
vn 0.2166728 0.4152017 0.8835499
vn 0.0380127 0.4528092 0.8907968
vn -0.1418877 0.4752967 0.8683092
vn -0.3170800 0.4819208 0.8168308
vn -0.4817614 0.4724469 0.7380378
vn -0.6304523 0.4471590 0.6344909
vn -0.7581657 0.4068537 0.5095634
vn -0.8605667 0.3528211 0.3673449
vn -0.9341161 0.2868116 0.2125237
vn -0.9761964 0.2109876 0.0502482
vn 0.9676070 0.0220429 0.2514970
vn 0.9176981 0.1586111 0.3642427
vn 0.8368879 0.2895894 0.4644961
vn 0.7280343 0.4106190 0.5489610
vn 0.5948880 0.5177065 0.6148888
vn 0.4419611 0.6073433 0.6601549
vn 0.2743775 0.6766062 0.6833161
vn 0.0977105 0.7232417 0.6836476
vn -0.0821900 0.7457293 0.6611600
vn -0.2593753 0.7433253 0.6165970
vn -0.4279784 0.7160857 0.5514125
vn -0.5823935 0.6648667 0.4677286
vn -0.7174484 0.5913043 0.3682757
vn -0.8285690 0.4977716 0.2563140
vn -0.9119301 0.3873146 0.1355392
vn -0.9645894 0.2635675 0.0099724
vn 0.9790320 0.0573984 0.1954527
vn 0.9395362 0.2261908 0.2571176
vn 0.8683839 0.3870562 0.3099950
vn 0.7681131 0.5346463 0.3523571
vn 0.6421933 0.6640963 0.3828366
vn 0.4949009 0.7711695 0.4004631
vn 0.3311776 0.8523784 0.4046880
vn 0.1564722 0.9050845 0.3953966
vn -0.0234283 0.9275721 0.3729091
vn -0.2025752 0.9190975 0.3379689
vn -0.3750387 0.8799119 0.2917207
vn -0.5350883 0.8112565 0.2356764
vn -0.6773695 0.7153316 0.1716718
vn -0.7970730 0.5952384 0.1018129
vn -0.8900920 0.4548943 0.0284141
vn -0.9531644 0.2989230 -0.0460719
vn 0.9888970 0.0712651 0.1303996
vn 0.9583924 0.2526961 0.1327729
vn 0.8955793 0.4252834 0.1306589
vn 0.8027195 0.5832907 0.1241505
vn 0.6830393 0.7215115 0.1134836
vn 0.5406121 0.8354233 0.0990276
vn 0.3802220 0.9213176 0.0812722
vn 0.2072104 0.9764046 0.0608111
vn 0.0273099 0.9988921 0.0383236
vn -0.1535308 0.9880367 0.0145531
vn -0.3293275 0.9441658 -0.0097149
vn -0.4942422 0.8686717 -0.0336766
vn -0.6427631 0.7639760 -0.0565349
vn -0.7698776 0.6334655 -0.0775232
vn -0.8712358 0.4813996 -0.0959306
vn -0.9432995 0.3127896 -0.1111250
vn 0.9960121 0.0619704 0.0641841
vn 0.9719925 0.2349299 0.0062063
vn 0.9151940 0.3996602 -0.0518817
vn 0.8276794 0.5506850 -0.1081339
vn 0.7124994 0.6830269 -0.1606825
vn 0.5735812 0.7923548 -0.2077942
vn 0.4155952 0.8751086 -0.2479226
vn 0.2438053 0.9285996 -0.2797529
vn 0.0639048 0.9510872 -0.3022405
vn -0.1181576 0.9418277 -0.3146417
vn -0.2963583 0.9010973 -0.3165367
vn -0.4647821 0.8301870 -0.3078426
vn -0.6178033 0.7313703 -0.2888193
vn -0.7502629 0.6078424 -0.2600638
vn -0.8576357 0.4636335 -0.2224972
vn -0.9361844 0.3034950 -0.1773404
vn 0.9995191 0.0306355 0.0047928
vn 0.9786960 0.1750353 -0.1073164
vn 0.9248621 0.3132772 -0.2156097
vn 0.8399821 0.4407618 -0.3164791
vn 0.7270204 0.5532843 -0.4065929
vn 0.5898318 0.6471586 -0.4829950
vn 0.4330307 0.7193249 -0.5431907
vn 0.2618430 0.7674357 -0.5852185
vn 0.0819425 0.7899233 -0.6077060
vn -0.1007221 0.7860440 -0.6099098
vn -0.2801078 0.7559011 -0.5917374
vn -0.4502611 0.7004444 -0.5537531
vn -0.6055006 0.6214472 -0.4971644
vn -0.7405948 0.5214593 -0.4237918
vn -0.8509322 0.4037388 -0.3360199
vn -0.9326773 0.2721601 -0.2367318
vn 0.9989951 -0.0189602 -0.0406109
vn 0.9776944 0.0802363 -0.1941026
vn 0.9234175 0.1765534 -0.3407770
vn 0.8381439 0.2667797 -0.4757556
vn 0.7248508 0.3479326 -0.5945875
vn 0.5874037 0.4173476 -0.6933815
vn 0.4304256 0.4727564 -0.7689182
vn 0.2591479 0.5123516 -0.8187418
vn 0.0792474 0.5348392 -0.8412294
vn -0.1033272 0.5394755 -0.8356373
vn -0.2825358 0.5260901 -0.8021239
vn -0.4524307 0.4950928 -0.7417477
vn -0.6073388 0.4474650 -0.6564409
vn -0.7420394 0.3847355 -0.5489591
vn -0.8519338 0.3089398 -0.4228061
vn -0.9332013 0.2225643 -0.2821355
vn 0.9945033 -0.0808348 -0.0665506
vn 0.9691085 -0.0380329 -0.2436847
vn 0.9110345 0.0059797 -0.4122867
vn 0.8223865 0.0497233 -0.5667523
vn 0.7062522 0.0917402 -0.7019911
vn 0.5665899 0.1306403 -0.8135779
vn 0.4080940 0.1651428 -0.8978792
vn 0.2360450 0.1941141 -0.9521567
vn 0.0561446 0.2166017 -0.9746443
vn -0.1256588 0.2318619 -0.9645983
vn -0.3033497 0.2393828 -0.9223204
vn -0.4710293 0.2389004 -0.8491513
vn -0.6230962 0.2304086 -0.7474376
vn -0.7544224 0.2141619 -0.6204688
vn -0.8605197 0.1906706 -0.4723882
vn -0.9376932 0.1606898 -0.3080752
vn 0.9865853 -0.1475252 -0.0698976
vn 0.9539739 -0.1655073 -0.2500822
vn 0.8892067 -0.1778701 -0.4215136
vn 0.7946103 -0.1842271 -0.5784936
vn 0.6734679 -0.1843922 -0.7158495
vn 0.5299007 -0.1783821 -0.8290869
vn 0.3687295 -0.1664131 -0.9145191
vn 0.1953210 -0.1488925 -0.9693713
vn 0.0154205 -0.1264050 -0.9918589
vn -0.1650233 -0.0996940 -0.9812382
vn -0.3400389 -0.0696396 -0.9378293
vn -0.5038136 -0.0372320 -0.8630097
vn -0.6508724 -0.0035418 -0.7591789
vn -0.7762502 0.0303120 -0.6296957
vn -0.8756543 0.0631962 -0.4787858
vn -0.9456111 0.0939994 -0.3114222
vn 0.9761964 -0.2109876 -0.0502482
vn 0.9341161 -0.2868116 -0.2125237
vn 0.8605667 -0.3528211 -0.3673449
vn 0.7581657 -0.4068537 -0.5095634
vn 0.6304523 -0.4471590 -0.6344909
vn 0.4817614 -0.4724469 -0.7380378
vn 0.3170800 -0.4819208 -0.8168308
vn 0.1418877 -0.4752967 -0.8683092
vn -0.0380127 -0.4528092 -0.8907968
vn -0.2166728 -0.4152017 -0.8835499
vn -0.3881781 -0.3637045 -0.8467802
vn -0.5468292 -0.2999988 -0.7816511
vn -0.6873170 -0.2261683 -0.6902487
vn -0.8048902 -0.1446390 -0.5755270
vn -0.8955121 -0.0581080 -0.4412272
vn -0.9560001 0.0305370 -0.2917728
vn 0.9645894 -0.2635675 -0.0099724
vn 0.9119301 -0.3873146 -0.1355392
vn 0.8285690 -0.4977716 -0.2563140
vn 0.7174484 -0.5913043 -0.3682757
vn 0.5823935 -0.6648667 -0.4677286
vn 0.4279784 -0.7160857 -0.5514125
vn 0.2593753 -0.7433253 -0.6165970
vn 0.0821900 -0.7457293 -0.6611600
vn -0.0977105 -0.7232417 -0.6836476
vn -0.2743775 -0.6766062 -0.6833161
vn -0.4419611 -0.6073433 -0.6601549
vn -0.5948880 -0.5177065 -0.6148888
vn -0.7280343 -0.4106190 -0.5489610
vn -0.8368879 -0.2895894 -0.4644961
vn -0.9176981 -0.1586111 -0.3642427
vn -0.9676070 -0.0220429 -0.2514970
vn 0.9531644 -0.2989230 0.0460719
vn 0.8900920 -0.4548943 -0.0284141
vn 0.7970730 -0.5952384 -0.1018129
vn 0.6773695 -0.7153316 -0.1716718
vn 0.5350883 -0.8112565 -0.2356764
vn 0.3750387 -0.8799119 -0.2917207
vn 0.2025752 -0.9190975 -0.3379689
vn 0.0234283 -0.9275721 -0.3729091
vn -0.1564722 -0.9050845 -0.3953966
vn -0.3311776 -0.8523784 -0.4046880
vn -0.4949009 -0.7711695 -0.4004631
vn -0.6421933 -0.6640963 -0.3828366
vn -0.7681131 -0.5346463 -0.3523571
vn -0.8683839 -0.3870562 -0.3099950
vn -0.9395362 -0.2261908 -0.2571176
vn -0.9790320 -0.0573984 -0.1954527
vn 0.9432995 -0.3127896 0.1111250
vn 0.8712358 -0.4813996 0.0959306
vn 0.7698776 -0.6334655 0.0775232
vn 0.6427631 -0.7639760 0.0565349
vn 0.4942422 -0.8686717 0.0336766
vn 0.3293275 -0.9441658 0.0097149
vn 0.1535308 -0.9880367 -0.0145531
vn -0.0273099 -0.9988921 -0.0383236
vn -0.2072104 -0.9764046 -0.0608111
vn -0.3802220 -0.9213176 -0.0812722
vn -0.5406121 -0.8354233 -0.0990276
vn -0.6830393 -0.7215115 -0.1134836
vn -0.8027195 -0.5832907 -0.1241505
vn -0.8955793 -0.4252834 -0.1306589
vn -0.9583924 -0.2526961 -0.1327729
vn -0.9888970 -0.0712651 -0.1303996
vn 0.9361844 -0.3034950 0.1773404
vn 0.8576357 -0.4636335 0.2224972
vn 0.7502629 -0.6078424 0.2600638
vn 0.6178033 -0.7313703 0.2888193
vn 0.4647821 -0.8301870 0.3078426
vn 0.2963583 -0.9010973 0.3165367
vn 0.1181576 -0.9418277 0.3146417
vn -0.0639048 -0.9510872 0.3022405
vn -0.2438053 -0.9285996 0.2797529
vn -0.4155952 -0.8751086 0.2479226
vn -0.5735812 -0.7923548 0.2077942
vn -0.7124994 -0.6830269 0.1606825
vn -0.8276794 -0.5506850 0.1081339
vn -0.9151940 -0.3996602 0.0518817
vn -0.9719925 -0.2349299 -0.0062063
vn -0.9960121 -0.0619704 -0.0641841
vn 0.9326773 -0.2721601 0.2367318
vn 0.8509322 -0.4037388 0.3360199
vn 0.7405948 -0.5214593 0.4237918
vn 0.6055006 -0.6214472 0.4971644
vn 0.4502611 -0.7004444 0.5537531
vn 0.2801078 -0.7559011 0.5917374
vn 0.1007221 -0.7860440 0.6099098
vn -0.0819425 -0.7899233 0.6077060
vn -0.2618430 -0.7674357 0.5852185
vn -0.4330307 -0.7193249 0.5431907
vn -0.5898318 -0.6471586 0.4829950
vn -0.7270204 -0.5532843 0.4065929
vn -0.8399821 -0.4407618 0.3164791
vn -0.9248621 -0.3132772 0.2156097
vn -0.9786960 -0.1750353 0.1073164
vn -0.9995191 -0.0306355 -0.0047928
vn 0.9332013 -0.2225643 0.2821355
vn 0.8519338 -0.3089398 0.4228061
vn 0.7420394 -0.3847355 0.5489591
vn 0.6073388 -0.4474650 0.6564409
vn 0.4524307 -0.4950928 0.7417477
vn 0.2825358 -0.5260901 0.8021239
vn 0.1033272 -0.5394755 0.8356373
vn -0.0792474 -0.5348392 0.8412294
vn -0.2591479 -0.5123516 0.8187418
vn -0.4304256 -0.4727564 0.7689182
vn -0.5874037 -0.4173476 0.6933815
vn -0.7248508 -0.3479326 0.5945875
vn -0.8381439 -0.2667797 0.4757556
vn -0.9234175 -0.1765534 0.3407770
vn -0.9776944 -0.0802363 0.1941026
vn -0.9989951 0.0189602 0.0406109
vn 0.9376932 -0.1606898 0.3080752
vn 0.8605197 -0.1906706 0.4723882
vn 0.7544224 -0.2141619 0.6204688
vn 0.6230962 -0.2304086 0.7474376
vn 0.4710293 -0.2389004 0.8491513
vn 0.3033497 -0.2393828 0.9223204
vn 0.1256588 -0.2318619 0.9645983
vn -0.0561446 -0.2166017 0.9746443
vn -0.2360450 -0.1941141 0.9521567
vn -0.4080940 -0.1651428 0.8978792
vn -0.5665899 -0.1306403 0.8135779
vn -0.7062522 -0.0917402 0.7019911
vn -0.8223865 -0.0497233 0.5667523
vn -0.9110345 -0.0059797 0.4122867
vn -0.9691085 0.0380329 0.2436847
vn -0.9945033 0.0808348 0.0665506
f 2//2 1//1 19//19
f 2//2 19//19 3//3
f 3//3 19//19 20//20
f 3//3 20//20 4//4
f 4//4 20//20 21//21
f 4//4 21//21 5//5
f 5//5 21//21 22//22
f 5//5 22//22 6//6
f 6//6 22//22 23//23
f 6//6 23//23 7//7
f 7//7 23//23 24//24
f 7//7 24//24 8//8
f 8//8 24//24 25//25
f 8//8 25//25 9//9
f 9//9 25//25 26//26
f 9//9 26//26 10//10
f 10//10 26//26 27//27
f 10//10 27//27 11//11
f 11//11 27//27 28//28
f 11//11 28//28 12//12
f 12//12 28//28 29//29
f 12//12 29//29 13//13
f 13//13 29//29 30//30
f 13//13 30//30 14//14
f 14//14 30//30 31//31
f 14//14 31//31 15//15
f 15//15 31//31 32//32
f 15//15 32//32 16//16
f 16//16 32//32 33//33
f 16//16 33//33 17//17
f 17//17 33//33 34//34
f 17//17 34//34 18//18
f 19//19 1//1 35//35
f 19//19 35//35 20//20
f 20//20 35//35 36//36
f 20//20 36//36 21//21
f 21//21 36//36 37//37
f 21//21 37//37 22//22
f 22//22 37//37 38//38
f 22//22 38//38 23//23
f 23//23 38//38 39//39
f 23//23 39//39 24//24
f 24//24 39//39 40//40
f 24//24 40//40 25//25
f 25//25 40//40 41//41
f 25//25 41//41 26//26
f 26//26 41//41 42//42
f 26//26 42//42 27//27
f 27//27 42//42 43//43
f 27//27 43//43 28//28
f 28//28 43//43 44//44
f 28//28 44//44 29//29
f 29//29 44//44 45//45
f 29//29 45//45 30//30
f 30//30 45//45 46//46
f 30//30 46//46 31//31
f 31//31 46//46 47//47
f 31//31 47//47 32//32
f 32//32 47//47 48//48
f 32//32 48//48 33//33
f 33//33 48//48 49//49
f 33//33 49//49 34//34
f 34//34 49//49 50//50
f 34//34 50//50 18//18
f 35//35 1//1 51//51
f 35//35 51//51 36//36
f 36//36 51//51 52//52
f 36//36 52//52 37//37
f 37//37 52//52 53//53
f 37//37 53//53 38//38
f 38//38 53//53 54//54
f 38//38 54//54 39//39
f 39//39 54//54 55//55
f 39//39 55//55 40//40
f 40//40 55//55 56//56
f 40//40 56//56 41//41
f 41//41 56//56 57//57
f 41//41 57//57 42//42
f 42//42 57//57 58//58
f 42//42 58//58 43//43
f 43//43 58//58 59//59
f 43//43 59//59 44//44
f 44//44 59//59 60//60
f 44//44 60//60 45//45
f 45//45 60//60 61//61
f 45//45 61//61 46//46
f 46//46 61//61 62//62
f 46//46 62//62 47//47
f 47//47 62//62 63//63
f 47//47 63//63 48//48
f 48//48 63//63 64//64
f 48//48 64//64 49//49
f 49//49 64//64 65//65
f 49//49 65//65 50//50
f 50//50 65//65 66//66
f 50//50 66//66 18//18
f 51//51 1//1 67//67
f 51//51 67//67 52//52
f 52//52 67//67 68//68
f 52//52 68//68 53//53
f 53//53 68//68 69//69
f 53//53 69//69 54//54
f 54//54 69//69 70//70
f 54//54 70//70 55//55
f 55//55 70//70 71//71
f 55//55 71//71 56//56
f 56//56 71//71 72//72
f 56//56 72//72 57//57
f 57//57 72//72 73//73
f 57//57 73//73 58//58
f 58//58 73//73 74//74
f 58//58 74//74 59//59
f 59//59 74//74 75//75
f 59//59 75//75 60//60
f 60//60 75//75 76//76
f 60//60 76//76 61//61
f 61//61 76//76 77//77
f 61//61 77//77 62//62
f 62//62 77//77 78//78
f 62//62 78//78 63//63
f 63//63 78//78 79//79
f 63//63 79//79 64//64
f 64//64 79//79 80//80
f 64//64 80//80 65//65
f 65//65 80//80 81//81
f 65//65 81//81 66//66
f 66//66 81//81 82//82
f 66//66 82//82 18//18
f 67//67 1//1 83//83
f 67//67 83//83 68//68
f 68//68 83//83 84//84
f 68//68 84//84 69//69
f 69//69 84//84 85//85
f 69//69 85//85 70//70
f 70//70 85//85 86//86
f 70//70 86//86 71//71
f 71//71 86//86 87//87
f 71//71 87//87 72//72
f 72//72 87//87 88//88
f 72//72 88//88 73//73
f 73//73 88//88 89//89
f 73//73 89//89 74//74
f 74//74 89//89 90//90
f 74//74 90//90 75//75
f 75//75 90//90 91//91
f 75//75 91//91 76//76
f 76//76 91//91 92//92
f 76//76 92//92 77//77
f 77//77 92//92 93//93
f 77//77 93//93 78//78
f 78//78 93//93 94//94
f 78//78 94//94 79//79
f 79//79 94//94 95//95
f 79//79 95//95 80//80
f 80//80 95//95 96//96
f 80//80 96//96 81//81
f 81//81 96//96 97//97
f 81//81 97//97 82//82
f 82//82 97//97 98//98
f 82//82 98//98 18//18
f 83//83 1//1 99//99
f 83//83 99//99 84//84
f 84//84 99//99 100//100
f 84//84 100//100 85//85
f 85//85 100//100 101//101
f 85//85 101//101 86//86
f 86//86 101//101 102//102
f 86//86 102//102 87//87
f 87//87 102//102 103//103
f 87//87 103//103 88//88
f 88//88 103//103 104//104
f 88//88 104//104 89//89
f 89//89 104//104 105//105
f 89//89 105//105 90//90
f 90//90 105//105 106//106
f 90//90 106//106 91//91
f 91//91 106//106 107//107
f 91//91 107//107 92//92
f 92//92 107//107 108//108
f 92//92 108//108 93//93
f 93//93 108//108 109//109
f 93//93 109//109 94//94
f 94//94 109//109 110//110
f 94//94 110//110 95//95
f 95//95 110//110 111//111
f 95//95 111//111 96//96
f 96//96 111//111 112//112
f 96//96 112//112 97//97
f 97//97 112//112 113//113
f 97//97 113//113 98//98
f 98//98 113//113 114//114
f 98//98 114//114 18//18
f 99//99 1//1 115//115
f 99//99 115//115 100//100
f 100//100 115//115 116//116
f 100//100 116//116 101//101
f 101//101 116//116 117//117
f 101//101 117//117 102//102
f 102//102 117//117 118//118
f 102//102 118//118 103//103
f 103//103 118//118 119//119
f 103//103 119//119 104//104
f 104//104 119//119 120//120
f 104//104 120//120 105//105
f 105//105 120//120 121//121
f 105//105 121//121 106//106
f 106//106 121//121 122//122
f 106//106 122//122 107//107
f 107//107 122//122 123//123
f 107//107 123//123 108//108
f 108//108 123//123 124//124
f 108//108 124//124 109//109
f 109//109 124//124 125//125
f 109//109 125//125 110//110
f 110//110 125//125 126//126
f 110//110 126//126 111//111
f 111//111 126//126 127//127
f 111//111 127//127 112//112
f 112//112 127//127 128//128
f 112//112 128//128 113//113
f 113//113 128//128 129//129
f 113//113 129//129 114//114
f 114//114 129//129 130//130
f 114//114 130//130 18//18
f 115//115 1//1 131//131
f 115//115 131//131 116//116
f 116//116 131//131 132//132
f 116//116 132//132 117//117
f 117//117 132//132 133//133
f 117//117 133//133 118//118
f 118//118 133//133 134//134
f 118//118 134//134 119//119
f 119//119 134//134 135//135
f 119//119 135//135 120//120
f 120//120 135//135 136//136
f 120//120 136//136 121//121
f 121//121 136//136 137//137
f 121//121 137//137 122//122
f 122//122 137//137 138//138
f 122//122 138//138 123//123
f 123//123 138//138 139//139
f 123//123 139//139 124//124
f 124//124 139//139 140//140
f 124//124 140//140 125//125
f 125//125 140//140 141//141
f 125//125 141//141 126//126
f 126//126 141//141 142//142
f 126//126 142//142 127//127
f 127//127 142//142 143//143
f 127//127 143//143 128//128
f 128//128 143//143 144//144
f 128//128 144//144 129//129
f 129//129 144//144 145//145
f 129//129 145//145 130//130
f 130//130 145//145 146//146
f 130//130 146//146 18//18
f 131//131 1//1 147//147
f 131//131 147//147 132//132
f 132//132 147//147 148//148
f 132//132 148//148 133//133
f 133//133 148//148 149//149
f 133//133 149//149 134//134
f 134//134 149//149 150//150
f 134//134 150//150 135//135
f 135//135 150//150 151//151
f 135//135 151//151 136//136
f 136//136 151//151 152//152
f 136//136 152//152 137//137
f 137//137 152//152 153//153
f 137//137 153//153 138//138
f 138//138 153//153 154//154
f 138//138 154//154 139//139
f 139//139 154//154 155//155
f 139//139 155//155 140//140
f 140//140 155//155 156//156
f 140//140 156//156 141//141
f 141//141 156//156 157//157
f 141//141 157//157 142//142
f 142//142 157//157 158//158
f 142//142 158//158 143//143
f 143//143 158//158 159//159
f 143//143 159//159 144//144
f 144//144 159//159 160//160
f 144//144 160//160 145//145
f 145//145 160//160 161//161
f 145//145 161//161 146//146
f 146//146 161//161 162//162
f 146//146 162//162 18//18
f 147//147 1//1 163//163
f 147//147 163//163 148//148
f 148//148 163//163 164//164
f 148//148 164//164 149//149
f 149//149 164//164 165//165
f 149//149 165//165 150//150
f 150//150 165//165 166//166
f 150//150 166//166 151//151
f 151//151 166//166 167//167
f 151//151 167//167 152//152
f 152//152 167//167 168//168
f 152//152 168//168 153//153
f 153//153 168//168 169//169
f 153//153 169//169 154//154
f 154//154 169//169 170//170
f 154//154 170//170 155//155
f 155//155 170//170 171//171
f 155//155 171//171 156//156
f 156//156 171//171 172//172
f 156//156 172//172 157//157
f 157//157 172//172 173//173
f 157//157 173//173 158//158
f 158//158 173//173 174//174
f 158//158 174//174 159//159
f 159//159 174//174 175//175
f 159//159 175//175 160//160
f 160//160 175//175 176//176
f 160//160 176//176 161//161
f 161//161 176//176 177//177
f 161//161 177//177 162//162
f 162//162 177//177 178//178
f 162//162 178//178 18//18
f 163//163 1//1 179//179
f 163//163 179//179 164//164
f 164//164 179//179 180//180
f 164//164 180//180 165//165
f 165//165 180//180 181//181
f 165//165 181//181 166//166
f 166//166 181//181 182//182
f 166//166 182//182 167//167
f 167//167 182//182 183//183
f 167//167 183//183 168//168
f 168//168 183//183 184//184
f 168//168 184//184 169//169
f 169//169 184//184 185//185
f 169//169 185//185 170//170
f 170//170 185//185 186//186
f 170//170 186//186 171//171
f 171//171 186//186 187//187
f 171//171 187//187 172//172
f 172//172 187//187 188//188
f 172//172 188//188 173//173
f 173//173 188//188 189//189
f 173//173 189//189 174//174
f 174//174 189//189 190//190
f 174//174 190//190 175//175
f 175//175 190//190 191//191
f 175//175 191//191 176//176
f 176//176 191//191 192//192
f 176//176 192//192 177//177
f 177//177 192//192 193//193
f 177//177 193//193 178//178
f 178//178 193//193 194//194
f 178//178 194//194 18//18
f 179//179 1//1 195//195
f 179//179 195//195 180//180
f 180//180 195//195 196//196
f 180//180 196//196 181//181
f 181//181 196//196 197//197
f 181//181 197//197 182//182
f 182//182 197//197 198//198
f 182//182 198//198 183//183
f 183//183 198//198 199//199
f 183//183 199//199 184//184
f 184//184 199//199 200//200
f 184//184 200//200 185//185
f 185//185 200//200 201//201
f 185//185 201//201 186//186
f 186//186 201//201 202//202
f 186//186 202//202 187//187
f 187//187 202//202 203//203
f 187//187 203//203 188//188
f 188//188 203//203 204//204
f 188//188 204//204 189//189
f 189//189 204//204 205//205
f 189//189 205//205 190//190
f 190//190 205//205 206//206
f 190//190 206//206 191//191
f 191//191 206//206 207//207
f 191//191 207//207 192//192
f 192//192 207//207 208//208
f 192//192 208//208 193//193
f 193//193 208//208 209//209
f 193//193 209//209 194//194
f 194//194 209//209 210//210
f 194//194 210//210 18//18
f 195//195 1//1 211//211
f 195//195 211//211 196//196
f 196//196 211//211 212//212
f 196//196 212//212 197//197
f 197//197 212//212 213//213
f 197//197 213//213 198//198
f 198//198 213//213 214//214
f 198//198 214//214 199//199
f 199//199 214//214 215//215
f 199//199 215//215 200//200
f 200//200 215//215 216//216
f 200//200 216//216 201//201
f 201//201 216//216 217//217
f 201//201 217//217 202//202
f 202//202 217//217 218//218
f 202//202 218//218 203//203
f 203//203 218//218 219//219
f 203//203 219//219 204//204
f 204//204 219//219 220//220
f 204//204 220//220 205//205
f 205//205 220//220 221//221
f 205//205 221//221 206//206
f 206//206 221//221 222//222
f 206//206 222//222 207//207
f 207//207 222//222 223//223
f 207//207 223//223 208//208
f 208//208 223//223 224//224
f 208//208 224//224 209//209
f 209//209 224//224 225//225
f 209//209 225//225 210//210
f 210//210 225//225 226//226
f 210//210 226//226 18//18
f 211//211 1//1 227//227
f 211//211 227//227 212//212
f 212//212 227//227 228//228
f 212//212 228//228 213//213
f 213//213 228//228 229//229
f 213//213 229//229 214//214
f 214//214 229//229 230//230
f 214//214 230//230 215//215
f 215//215 230//230 231//231
f 215//215 231//231 216//216
f 216//216 231//231 232//232
f 216//216 232//232 217//217
f 217//217 232//232 233//233
f 217//217 233//233 218//218
f 218//218 233//233 234//234
f 218//218 234//234 219//219
f 219//219 234//234 235//235
f 219//219 235//235 220//220
f 220//220 235//235 236//236
f 220//220 236//236 221//221
f 221//221 236//236 237//237
f 221//221 237//237 222//222
f 222//222 237//237 238//238
f 222//222 238//238 223//223
f 223//223 238//238 239//239
f 223//223 239//239 224//224
f 224//224 239//239 240//240
f 224//224 240//240 225//225
f 225//225 240//240 241//241
f 225//225 241//241 226//226
f 226//226 241//241 242//242
f 226//226 242//242 18//18
f 227//227 1//1 243//243
f 227//227 243//243 228//228
f 228//228 243//243 244//244
f 228//228 244//244 229//229
f 229//229 244//244 245//245
f 229//229 245//245 230//230
f 230//230 245//245 246//246
f 230//230 246//246 231//231
f 231//231 246//246 247//247
f 231//231 247//247 232//232
f 232//232 247//247 248//248
f 232//232 248//248 233//233
f 233//233 248//248 249//249
f 233//233 249//249 234//234
f 234//234 249//249 250//250
f 234//234 250//250 235//235
f 235//235 250//250 251//251
f 235//235 251//251 236//236
f 236//236 251//251 252//252
f 236//236 252//252 237//237
f 237//237 252//252 253//253
f 237//237 253//253 238//238
f 238//238 253//253 254//254
f 238//238 254//254 239//239
f 239//239 254//254 255//255
f 239//239 255//255 240//240
f 240//240 255//255 256//256
f 240//240 256//256 241//241
f 241//241 256//256 257//257
f 241//241 257//257 242//242
f 242//242 257//257 258//258
f 242//242 258//258 18//18
f 243//243 1//1 259//259
f 243//243 259//259 244//244
f 244//244 259//259 260//260
f 244//244 260//260 245//245
f 245//245 260//260 261//261
f 245//245 261//261 246//246
f 246//246 261//261 262//262
f 246//246 262//262 247//247
f 247//247 262//262 263//263
f 247//247 263//263 248//248
f 248//248 263//263 264//264
f 248//248 264//264 249//249
f 249//249 264//264 265//265
f 249//249 265//265 250//250
f 250//250 265//265 266//266
f 250//250 266//266 251//251
f 251//251 266//266 267//267
f 251//251 267//267 252//252
f 252//252 267//267 268//268
f 252//252 268//268 253//253
f 253//253 268//268 269//269
f 253//253 269//269 254//254
f 254//254 269//269 270//270
f 254//254 270//270 255//255
f 255//255 270//270 271//271
f 255//255 271//271 256//256
f 256//256 271//271 272//272
f 256//256 272//272 257//257
f 257//257 272//272 273//273
f 257//257 273//273 258//258
f 258//258 273//273 274//274
f 258//258 274//274 18//18
f 259//259 1//1 275//275
f 259//259 275//275 260//260
f 260//260 275//275 276//276
f 260//260 276//276 261//261
f 261//261 276//276 277//277
f 261//261 277//277 262//262
f 262//262 277//277 278//278
f 262//262 278//278 263//263
f 263//263 278//278 279//279
f 263//263 279//279 264//264
f 264//264 279//279 280//280
f 264//264 280//280 265//265
f 265//265 280//280 281//281
f 265//265 281//281 266//266
f 266//266 281//281 282//282
f 266//266 282//282 267//267
f 267//267 282//282 283//283
f 267//267 283//283 268//268
f 268//268 283//283 284//284
f 268//268 284//284 269//269
f 269//269 284//284 285//285
f 269//269 285//285 270//270
f 270//270 285//285 286//286
f 270//270 286//286 271//271
f 271//271 286//286 287//287
f 271//271 287//287 272//272
f 272//272 287//287 288//288
f 272//272 288//288 273//273
f 273//273 288//288 289//289
f 273//273 289//289 274//274
f 274//274 289//289 290//290
f 274//274 290//290 18//18
f 275//275 1//1 2//2
f 275//275 2//2 276//276
f 276//276 2//2 3//3
f 276//276 3//3 277//277
f 277//277 3//3 4//4
f 277//277 4//4 278//278
f 278//278 4//4 5//5
f 278//278 5//5 279//279
f 279//279 5//5 6//6
f 279//279 6//6 280//280
f 280//280 6//6 7//7
f 280//280 7//7 281//281
f 281//281 7//7 8//8
f 281//281 8//8 282//282
f 282//282 8//8 9//9
f 282//282 9//9 283//283
f 283//283 9//9 10//10
f 283//283 10//10 284//284
f 284//284 10//10 11//11
f 284//284 11//11 285//285
f 285//285 11//11 12//12
f 285//285 12//12 286//286
f 286//286 12//12 13//13
f 286//286 13//13 287//287
f 287//287 13//13 14//14
f 287//287 14//14 288//288
f 288//288 14//14 15//15
f 288//288 15//15 289//289
f 289//289 15//15 16//16
f 289//289 16//16 290//290
f 290//290 16//16 17//17
f 290//290 17//17 18//18

