# https://github.com/mikedh/trimesh
v -0.1403621 1.6460164 -0.0400000
v -0.1389834 1.6461333 -0.0401239
v -0.1377273 1.6467166 -0.0402328
v -0.1367454 1.6476959 -0.0403136
v -0.1361559 1.6489531 -0.0403566
v -0.1260302 1.7603366 -0.0403566
v -0.1263832 1.7616794 -0.0403136
v -0.1271725 1.7628198 -0.0402328
v -0.1283028 1.7636200 -0.0401239
v -0.1296379 1.7639836 -0.0400000
v -0.1393151 1.6461635 -0.0409010
v -0.1383506 1.6467732 -0.0416934
v -0.1375851 1.6477722 -0.0422815
v -0.1371109 1.6490399 -0.0425944
v -0.1269851 1.7604234 -0.0425944
v -0.1272230 1.7617558 -0.0422815
v -0.1277958 1.7628764 -0.0416934
v -0.1286345 1.7636501 -0.0409010
v -0.1400383 1.6462292 -0.0413341
v -0.1397099 1.6468968 -0.0425072
v -0.1394164 1.6479387 -0.0433779
v -0.1391934 1.6492292 -0.0438413
v -0.1290676 1.7606127 -0.0438413
v -0.1290543 1.7619223 -0.0433779
v -0.1291550 1.7630000 -0.0425072
v -0.1293577 1.7637159 -0.0413341
v -0.1408769 1.6463054 -0.0412575
v -0.1412859 1.6470401 -0.0423633
v -0.1415398 1.6481317 -0.0431841
v -0.1416080 1.6494487 -0.0436208
v -0.1314822 1.7608322 -0.0436208
v -0.1311777 1.7621153 -0.0431841
v -0.1307311 1.7631433 -0.0423633
v -0.1301963 1.7637921 -0.0412575
v -0.1415105 1.6463631 -0.0407006
v -0.1424767 1.6471483 -0.0413168
v -0.1431442 1.6482776 -0.0417741
v -0.1434324 1.6496146 -0.0420174
v -0.1333067 1.7609981 -0.0420174
v -0.1327821 1.7622612 -0.0417741
v -0.1319219 1.7632515 -0.0413168
v -0.1308299 1.7638497 -0.0407006
v -0.1416972 1.6463800 -0.0398761
v -0.1428275 1.6471802 -0.0397672
v -0.1436168 1.6483206 -0.0396864
v -0.1439698 1.6496634 -0.0396434
v -0.1338441 1.7610469 -0.0396434
v -0.1332546 1.7623041 -0.0396864
v -0.1322727 1.7632834 -0.0397672
v -0.1310166 1.7638667 -0.0398761
v -0.1413655 1.6463499 -0.0390990
v -0.1422042 1.6471236 -0.0383066
v -0.1427770 1.6482442 -0.0377185
v -0.1430149 1.6495766 -0.0374056
v -0.1328891 1.7609601 -0.0374056
v -0.1324149 1.7622278 -0.0377185
v -0.1316494 1.7632268 -0.0383066
v -0.1306849 1.7638365 -0.0390990
v -0.1406423 1.6462841 -0.0386659
v -0.1408450 1.6470000 -0.0374928
v -0.1409457 1.6480777 -0.0366221
v -0.1409324 1.6493873 -0.0361587
v -0.1308066 1.7607708 -0.0361587
v -0.1305836 1.7620613 -0.0366221
v -0.1302901 1.7631032 -0.0374928
v -0.1299617 1.7637708 -0.0386659
v -0.1398037 1.6462079 -0.0387425
v -0.1392689 1.6468567 -0.0376367
v -0.1388223 1.6478847 -0.0368159
v -0.1385178 1.6491678 -0.0363792
v -0.1283920 1.7605513 -0.0363792
v -0.1284602 1.7618683 -0.0368159
v -0.1287141 1.7629599 -0.0376367
v -0.1291231 1.7636946 -0.0387425
v -0.1391701 1.6461503 -0.0392994
v -0.1380781 1.6467485 -0.0386832
v -0.1372179 1.6477388 -0.0382259
v -0.1366933 1.6490019 -0.0379826
v -0.1265676 1.7603854 -0.0379826
v -0.1268558 1.7617224 -0.0382259
v -0.1275233 1.7628517 -0.0386832
v -0.1284895 1.7636369 -0.0392994
vn -0.0905357 -0.9958932 -0.0000000
vn 0.2847997 -0.9579956 -0.0336694
vn 0.5888886 -0.8059878 -0.0599492
vn 0.8229832 -0.5625262 -0.0791393
vn 0.9624771 -0.2562666 -0.0892478
vn 0.9929108 0.0785041 -0.0892478
vn 0.9109308 0.4048976 -0.0791393
vn 0.7245768 0.6865818 -0.0599492
vn 0.4528842 0.8909334 -0.0336694
vn 0.0905357 0.9958932 0.0000000
vn 0.1946481 -0.9498000 -0.2449330
vn 0.4283713 -0.7913953 -0.4361095
vn 0.6110833 -0.5432625 -0.5757109
vn 0.7235111 -0.2345424 -0.6492469
vn 0.7539448 0.1002283 -0.6492469
vn 0.6990309 0.4241612 -0.5757109
vn 0.5640595 0.7011743 -0.4361095
vn 0.3627325 0.8991290 -0.2449330
vn -0.0019538 -0.9319271 -0.3626405
vn 0.0783166 -0.7595721 -0.6456909
vn 0.1489738 -0.5012526 -0.8523806
vn 0.2023761 -0.1871665 -0.9612557
vn 0.2328098 0.1476042 -0.9612557
vn 0.2369214 0.4661712 -0.8523806
vn 0.2140047 0.7329975 -0.6456909
vn 0.1661307 0.9170019 -0.3626405
vn -0.2299106 -0.9112037 -0.3418317
vn -0.3275665 -0.7226737 -0.6086402
vn -0.3868351 -0.4525427 -0.8034698
vn -0.4018720 -0.1322349 -0.9060976
vn -0.3714383 0.2025358 -0.9060976
vn -0.2988875 0.5148811 -0.8034698
vn -0.1918784 0.7698959 -0.6086402
vn -0.0618262 0.9377252 -0.3418317
vn -0.4021507 -0.8955455 -0.1904548
vn -0.6342445 -0.6947939 -0.3391097
vn -0.7916826 -0.4157384 -0.4476609
vn -0.8584310 -0.0907295 -0.5048409
vn -0.8279973 0.2440412 -0.5048409
vn -0.7037350 0.5516854 -0.4476609
vn -0.4985564 0.7977758 -0.3391097
vn -0.2340662 0.9533834 -0.1904548
vn -0.4528842 -0.8909334 0.0336694
vn -0.7245768 -0.6865818 0.0599492
vn -0.9109308 -0.4048976 0.0791393
vn -0.9929108 -0.0785041 0.0892478
vn -0.9624771 0.2562666 0.0892478
vn -0.8229832 0.5625262 0.0791393
vn -0.5888886 0.8059878 0.0599492
vn -0.2847997 0.9579956 0.0336694
vn -0.3627325 -0.8991290 0.2449330
vn -0.5640595 -0.7011743 0.4361095
vn -0.6990309 -0.4241612 0.5757109
vn -0.7539448 -0.1002283 0.6492469
vn -0.7235111 0.2345424 0.6492469
vn -0.6110833 0.5432625 0.5757109
vn -0.4283713 0.7913953 0.4361095
vn -0.1946481 0.9498000 0.2449330
vn -0.1661307 -0.9170019 0.3626405
vn -0.2140047 -0.7329975 0.6456909
vn -0.2369214 -0.4661712 0.8523806
vn -0.2328098 -0.1476042 0.9612557
vn -0.2023761 0.1871665 0.9612557
vn -0.1489738 0.5012526 0.8523806
vn -0.0783166 0.7595721 0.6456909
vn 0.0019538 0.9319271 0.3626405
vn 0.0618262 -0.9377252 0.3418317
vn 0.1918784 -0.7698959 0.6086402
vn 0.2988875 -0.5148811 0.8034698
vn 0.3714383 -0.2025358 0.9060976
vn 0.4018720 0.1322349 0.9060976
vn 0.3868351 0.4525427 0.8034698
vn 0.3275665 0.7226737 0.6086402
vn 0.2299106 0.9112037 0.3418317
vn 0.2340662 -0.9533834 0.1904548
vn 0.4985564 -0.7977758 0.3391097
vn 0.7037350 -0.5516854 0.4476609
vn 0.8279973 -0.2440412 0.5048409
vn 0.8584310 0.0907295 0.5048409
vn 0.7916826 0.4157384 0.4476609
vn 0.6342445 0.6947939 0.3391097
vn 0.4021507 0.8955455 0.1904548
f 2//2 1//1 11//11
f 2//2 11//11 3//3
f 3//3 11//11 12//12
f 3//3 12//12 4//4
f 4//4 12//12 13//13
f 4//4 13//13 5//5
f 5//5 13//13 14//14
f 5//5 14//14 6//6
f 6//6 14//14 15//15
f 6//6 15//15 7//7
f 7//7 15//15 16//16
f 7//7 16//16 8//8
f 8//8 16//16 17//17
f 8//8 17//17 9//9
f 9//9 17//17 18//18
f 9//9 18//18 10//10
f 11//11 1//1 19//19
f 11//11 19//19 12//12
f 12//12 19//19 20//20
f 12//12 20//20 13//13
f 13//13 20//20 21//21
f 13//13 21//21 14//14
f 14//14 21//21 22//22
f 14//14 22//22 15//15
f 15//15 22//22 23//23
f 15//15 23//23 16//16
f 16//16 23//23 24//24
f 16//16 24//24 17//17
f 17//17 24//24 25//25
f 17//17 25//25 18//18
f 18//18 25//25 26//26
f 18//18 26//26 10//10
f 19//19 1//1 27//27
f 19//19 27//27 20//20
f 20//20 27//27 28//28
f 20//20 28//28 21//21
f 21//21 28//28 29//29
f 21//21 29//29 22//22
f 22//22 29//29 30//30
f 22//22 30//30 23//23
f 23//23 30//30 31//31
f 23//23 31//31 24//24
f 24//24 31//31 32//32
f 24//24 32//32 25//25
f 25//25 32//32 33//33
f 25//25 33//33 26//26
f 26//26 33//33 34//34
f 26//26 34//34 10//10
f 27//27 1//1 35//35
f 27//27 35//35 28//28
f 28//28 35//35 36//36
f 28//28 36//36 29//29
f 29//29 36//36 37//37
f 29//29 37//37 30//30
f 30//30 37//37 38//38
f 30//30 38//38 31//31
f 31//31 38//38 39//39
f 31//31 39//39 32//32
f 32//32 39//39 40//40
f 32//32 40//40 33//33
f 33//33 40//40 41//41
f 33//33 41//41 34//34
f 34//34 41//41 42//42
f 34//34 42//42 10//10
f 35//35 1//1 43//43
f 35//35 43//43 36//36
f 36//36 43//43 44//44
f 36//36 44//44 37//37
f 37//37 44//44 45//45
f 37//37 45//45 38//38
f 38//38 45//45 46//46
f 38//38 46//46 39//39
f 39//39 46//46 47//47
f 39//39 47//47 40//40
f 40//40 47//47 48//48
f 40//40 48//48 41//41
f 41//41 48//48 49//49
f 41//41 49//49 42//42
f 42//42 49//49 50//50
f 42//42 50//50 10//10
f 43//43 1//1 51//51
f 43//43 51//51 44//44
f 44//44 51//51 52//52
f 44//44 52//52 45//45
f 45//45 52//52 53//53
f 45//45 53//53 46//46
f 46//46 53//53 54//54
f 46//46 54//54 47//47
f 47//47 54//54 55//55
f 47//47 55//55 48//48
f 48//48 55//55 56//56
f 48//48 56//56 49//49
f 49//49 56//56 57//57
f 49//49 57//57 50//50
f 50//50 57//57 58//58
f 50//50 58//58 10//10
f 51//51 1//1 59//59
f 51//51 59//59 52//52
f 52//52 59//59 60//60
f 52//52 60//60 53//53
f 53//53 60//60 61//61
f 53//53 61//61 54//54
f 54//54 61//61 62//62
f 54//54 62//62 55//55
f 55//55 62//62 63//63
f 55//55 63//63 56//56
f 56//56 63//63 64//64
f 56//56 64//64 57//57
f 57//57 64//64 65//65
f 57//57 65//65 58//58
f 58//58 65//65 66//66
f 58//58 66//66 10//10
f 59//59 1//1 67//67
f 59//59 67//67 60//60
f 60//60 67//67 68//68
f 60//60 68//68 61//61
f 61//61 68//68 69//69
f 61//61 69//69 62//62
f 62//62 69//69 70//70
f 62//62 70//70 63//63
f 63//63 70//70 71//71
f 63//63 71//71 64//64
f 64//64 71//71 72//72
f 64//64 72//72 65//65
f 65//65 72//72 73//73
f 65//65 73//73 66//66
f 66//66 73//73 74//74
f 66//66 74//74 10//10
f 67//67 1//1 75//75
f 67//67 75//75 68//68
f 68//68 75//75 76//76
f 68//68 76//76 69//69
f 69//69 76//76 77//77
f 69//69 77//77 70//70
f 70//70 77//77 78//78
f 70//70 78//78 71//71
f 71//71 78//78 79//79
f 71//71 79//79 72//72
f 72//72 79//79 80//80
f 72//72 80//80 73//73
f 73//73 80//80 81//81
f 73//73 81//81 74//74
f 74//74 81//81 82//82
f 74//74 82//82 10//10
f 75//75 1//1 2//2
f 75//75 2//2 76//76
f 76//76 2//2 3//3
f 76//76 3//3 77//77
f 77//77 3//3 4//4
f 77//77 4//4 78//78
f 78//78 4//4 5//5
f 78//78 5//5 79//79
f 79//79 5//5 6//6
f 79//79 6//6 80//80
f 80//80 6//6 7//7
f 80//80 7//7 81//81
f 81//81 7//7 8//8
f 81//81 8//8 82//82
f 82//82 8//8 9//9
f 82//82 9//9 10//10

