# https://github.com/mikedh/trimesh
v 0.1837134 -2.1287337 0.0400000
v 0.2362866 -2.1287337 0.0400000
v 0.1837134 -2.1712663 0.0400000
v 0.2362866 -2.1712663 0.0400000
v 0.2100000 -2.1631433 0.0655195
v 0.2100000 -2.1368567 0.0655195
v 0.2100000 -2.1631433 0.0144805
v 0.2100000 -2.1368567 0.0144805
v 0.2525325 -2.1500000 0.0242281
v 0.2525325 -2.1500000 0.0557719
v 0.1674675 -2.1500000 0.0242281
v 0.1674675 -2.1500000 0.0557719
v 0.2100000 -2.1250000 0.0400000
v 0.2100000 -2.1750000 0.0400000
v 0.1945492 -2.1702254 0.0550000
v 0.2254508 -2.1702254 0.0550000
v 0.1945492 -2.1297746 0.0550000
v 0.2254508 -2.1297746 0.0550000
v 0.2100000 -2.1500000 0.0700000
v 0.1945492 -2.1702254 0.0250000
v 0.2254508 -2.1702254 0.0250000
v 0.1945492 -2.1297746 0.0250000
v 0.2254508 -2.1297746 0.0250000
v 0.2100000 -2.1500000 0.0100000
v 0.2504508 -2.1375000 0.0307295
v 0.2504508 -2.1625000 0.0307295
v 0.2350000 -2.1577254 0.0157295
v 0.2350000 -2.1422746 0.0157295
v 0.2504508 -2.1375000 0.0492705
v 0.2504508 -2.1625000 0.0492705
v 0.2350000 -2.1577254 0.0642705
v 0.2350000 -2.1422746 0.0642705
v 0.2600000 -2.1500000 0.0400000
v 0.1695492 -2.1375000 0.0307295
v 0.1695492 -2.1625000 0.0307295
v 0.1850000 -2.1577254 0.0157295
v 0.1850000 -2.1422746 0.0157295
v 0.1695492 -2.1375000 0.0492705
v 0.1695492 -2.1625000 0.0492705
v 0.1850000 -2.1577254 0.0642705
v 0.1850000 -2.1422746 0.0642705
v 0.1600000 -2.1500000 0.0400000
vn -0.3230371 0.9463863 0.0000000
vn 0.3230371 0.9463863 0.0000000
vn -0.3230371 -0.9463863 0.0000000
vn 0.3230371 -0.9463863 0.0000000
vn 0.0000000 -0.5855292 0.8106513
vn -0.0000000 0.5855292 0.8106513
vn -0.0000000 -0.5855292 -0.8106513
vn 0.0000000 0.5855292 -0.8106513
vn 0.7363837 -0.0000000 -0.6765641
vn 0.7363837 0.0000000 0.6765641
vn -0.7363837 0.0000000 -0.6765641
vn -0.7363837 -0.0000000 0.6765641
vn -0.0000000 1.0000000 0.0000000
vn 0.0000000 -1.0000000 0.0000000
vn -0.1836824 -0.8657321 0.4655843
vn 0.1836824 -0.8657321 0.4655843
vn -0.1836824 0.8657321 0.4655843
vn 0.1836824 0.8657321 0.4655843
vn 0.0000000 0.0000000 1.0000000
vn -0.1836824 -0.8657321 -0.4655843
vn 0.1836824 -0.8657321 -0.4655843
vn -0.1836824 0.8657321 -0.4655843
vn 0.1836824 0.8657321 -0.4655843
vn 0.0000000 0.0000000 -1.0000000
vn 0.6433471 0.6761815 -0.3590028
vn 0.6433471 -0.6761815 -0.3590028
vn 0.3427726 -0.3782787 -0.8598908
vn 0.3427726 0.3782787 -0.8598908
vn 0.6433471 0.6761815 0.3590028
vn 0.6433471 -0.6761815 0.3590028
vn 0.3427726 -0.3782787 0.8598908
vn 0.3427726 0.3782787 0.8598908
vn 1.0000000 0.0000000 0.0000000
vn -0.6433471 0.6761815 -0.3590028
vn -0.6433471 -0.6761815 -0.3590028
vn -0.3427726 -0.3782787 -0.8598908
vn -0.3427726 0.3782787 -0.8598908
vn -0.6433471 0.6761815 0.3590028
vn -0.6433471 -0.6761815 0.3590028
vn -0.3427726 -0.3782787 0.8598908
vn -0.3427726 0.3782787 0.8598908
vn -1.0000000 0.0000000 0.0000000
f 1//1 38//38 17//17
f 38//38 12//12 41//41
f 17//17 41//41 6//6
f 38//38 41//41 17//17
f 1//1 17//17 13//13
f 17//17 6//6 18//18
f 13//13 18//18 2//2
f 17//17 18//18 13//13
f 1//1 13//13 22//22
f 13//13 2//2 23//23
f 22//22 23//23 8//8
f 13//13 23//23 22//22
f 1//1 22//22 34//34
f 22//22 8//8 37//37
f 34//34 37//37 11//11
f 22//22 37//37 34//34
f 1//1 34//34 38//38
f 34//34 11//11 42//42
f 38//38 42//42 12//12
f 34//34 42//42 38//38
f 2//2 18//18 29//29
f 18//18 6//6 32//32
f 29//29 32//32 10//10
f 18//18 32//32 29//29
f 6//6 41//41 19//19
f 41//41 12//12 40//40
f 19//19 40//40 5//5
f 41//41 40//40 19//19
f 12//12 42//42 39//39
f 42//42 11//11 35//35
f 39//39 35//35 3//3
f 42//42 35//35 39//39
f 11//11 37//37 36//36
f 37//37 8//8 24//24
f 36//36 24//24 7//7
f 37//37 24//24 36//36
f 8//8 23//23 28//28
f 23//23 2//2 25//25
f 28//28 25//25 9//9
f 23//23 25//25 28//28
f 4//4 30//30 16//16
f 30//30 10//10 31//31
f 16//16 31//31 5//5
f 30//30 31//31 16//16
f 4//4 16//16 14//14
f 16//16 5//5 15//15
f 14//14 15//15 3//3
f 16//16 15//15 14//14
f 4//4 14//14 21//21
f 14//14 3//3 20//20
f 21//21 20//20 7//7
f 14//14 20//20 21//21
f 4//4 21//21 26//26
f 21//21 7//7 27//27
f 26//26 27//27 9//9
f 21//21 27//27 26//26
f 4//4 26//26 30//30
f 26//26 9//9 33//33
f 30//30 33//33 10//10
f 26//26 33//33 30//30
f 5//5 31//31 19//19
f 31//31 10//10 32//32
f 19//19 32//32 6//6
f 31//31 32//32 19//19
f 3//3 15//15 39//39
f 15//15 5//5 40//40
f 39//39 40//40 12//12
f 15//15 40//40 39//39
f 7//7 20//20 36//36
f 20//20 3//3 35//35
f 36//36 35//35 11//11
f 20//20 35//35 36//36
f 9//9 27//27 28//28
f 27//27 7//7 24//24
f 28//28 24//24 8//8
f 27//27 24//24 28//28
f 10//10 33//33 29//29
f 33//33 9//9 25//25
f 29//29 25//25 2//2
f 33//33 25//25 29//29

