# https://github.com/mikedh/trimesh
v -0.2241725 -2.0217207 0.0200000
v -0.1558275 -2.0217207 0.0200000
v -0.2241725 -2.0982793 0.0200000
v -0.1558275 -2.0982793 0.0200000
v -0.1900000 -2.0836579 0.0667858
v -0.1900000 -2.0363421 0.0667858
v -0.1900000 -2.0836579 -0.0267858
v -0.1900000 -2.0363421 -0.0267858
v -0.1347077 -2.0600000 -0.0089152
v -0.1347077 -2.0600000 0.0489152
v -0.2452923 -2.0600000 -0.0089152
v -0.2452923 -2.0600000 0.0489152
v -0.1900000 -2.0150000 0.0200000
v -0.1900000 -2.1050000 0.0200000
v -0.2100861 -2.0964058 0.0475000
v -0.1699139 -2.0964058 0.0475000
v -0.2100861 -2.0235942 0.0475000
v -0.1699139 -2.0235942 0.0475000
v -0.1900000 -2.0600000 0.0750000
v -0.2100861 -2.0964058 -0.0075000
v -0.1699139 -2.0964058 -0.0075000
v -0.2100861 -2.0235942 -0.0075000
v -0.1699139 -2.0235942 -0.0075000
v -0.1900000 -2.0600000 -0.0350000
v -0.1374139 -2.0375000 0.0030041
v -0.1374139 -2.0825000 0.0030041
v -0.1575000 -2.0739058 -0.0244959
v -0.1575000 -2.0460942 -0.0244959
v -0.1374139 -2.0375000 0.0369959
v -0.1374139 -2.0825000 0.0369959
v -0.1575000 -2.0739058 0.0644959
v -0.1575000 -2.0460942 0.0644959
v -0.1250000 -2.0600000 0.0200000
v -0.2425861 -2.0375000 0.0030041
v -0.2425861 -2.0825000 0.0030041
v -0.2225000 -2.0739058 -0.0244959
v -0.2225000 -2.0460942 -0.0244959
v -0.2425861 -2.0375000 0.0369959
v -0.2425861 -2.0825000 0.0369959
v -0.2225000 -2.0739058 0.0644959
v -0.2225000 -2.0460942 0.0644959
v -0.2550000 -2.0600000 0.0200000
vn -0.4138694 0.9103363 -0.0000000
vn 0.4138694 0.9103363 0.0000000
vn -0.4138694 -0.9103363 0.0000000
vn 0.4138694 -0.9103363 -0.0000000
vn 0.0000000 -0.5877630 0.8090331
vn -0.0000000 0.5877630 0.8090331
vn 0.0000000 -0.5877630 -0.8090331
vn -0.0000000 0.5877630 -0.8090331
vn 0.8165725 0.0000000 -0.5772429
vn 0.8165725 0.0000000 0.5772429
vn -0.8165725 -0.0000000 -0.5772429
vn -0.8165725 0.0000000 0.5772429
vn 0.0000000 1.0000000 -0.0000000
vn -0.0000000 -1.0000000 -0.0000000
vn -0.2443792 -0.8575867 0.4525747
vn 0.2443792 -0.8575867 0.4525747
vn -0.2443792 0.8575867 0.4525747
vn 0.2443792 0.8575867 0.4525747
vn 0.0000000 0.0000000 1.0000000
vn -0.2443792 -0.8575867 -0.4525747
vn 0.2443792 -0.8575867 -0.4525747
vn -0.2443792 0.8575867 -0.4525747
vn 0.2443792 0.8575867 -0.4525747
vn 0.0000000 0.0000000 -1.0000000
vn 0.7331281 0.6022552 -0.3159303
vn 0.7331281 -0.6022552 -0.3159303
vn 0.4402286 -0.3639530 -0.8208148
vn 0.4402286 0.3639530 -0.8208148
vn 0.7331281 0.6022552 0.3159303
vn 0.7331281 -0.6022552 0.3159303
vn 0.4402286 -0.3639530 0.8208148
vn 0.4402286 0.3639530 0.8208148
vn 1.0000000 0.0000000 0.0000000
vn -0.7331281 0.6022552 -0.3159303
vn -0.7331281 -0.6022552 -0.3159303
vn -0.4402286 -0.3639530 -0.8208148
vn -0.4402286 0.3639530 -0.8208148
vn -0.7331281 0.6022552 0.3159303
vn -0.7331281 -0.6022552 0.3159303
vn -0.4402286 -0.3639530 0.8208148
vn -0.4402286 0.3639530 0.8208148
vn -1.0000000 -0.0000000 0.0000000
f 1//1 38//38 17//17
f 38//38 12//12 41//41
f 17//17 41//41 6//6
f 38//38 41//41 17//17
f 1//1 17//17 13//13
f 17//17 6//6 18//18
f 13//13 18//18 2//2
f 17//17 18//18 13//13
f 1//1 13//13 22//22
f 13//13 2//2 23//23
f 22//22 23//23 8//8
f 13//13 23//23 22//22
f 1//1 22//22 34//34
f 22//22 8//8 37//37
f 34//34 37//37 11//11
f 22//22 37//37 34//34
f 1//1 34//34 38//38
f 34//34 11//11 42//42
f 38//38 42//42 12//12
f 34//34 42//42 38//38
f 2//2 18//18 29//29
f 18//18 6//6 32//32
f 29//29 32//32 10//10
f 18//18 32//32 29//29
f 6//6 41//41 19//19
f 41//41 12//12 40//40
f 19//19 40//40 5//5
f 41//41 40//40 19//19
f 12//12 42//42 39//39
f 42//42 11//11 35//35
f 39//39 35//35 3//3
f 42//42 35//35 39//39
f 11//11 37//37 36//36
f 37//37 8//8 24//24
f 36//36 24//24 7//7
f 37//37 24//24 36//36
f 8//8 23//23 28//28
f 23//23 2//2 25//25
f 28//28 25//25 9//9
f 23//23 25//25 28//28
f 4//4 30//30 16//16
f 30//30 10//10 31//31
f 16//16 31//31 5//5
f 30//30 31//31 16//16
f 4//4 16//16 14//14
f 16//16 5//5 15//15
f 14//14 15//15 3//3
f 16//16 15//15 14//14
f 4//4 14//14 21//21
f 14//14 3//3 20//20
f 21//21 20//20 7//7
f 14//14 20//20 21//21
f 4//4 21//21 26//26
f 21//21 7//7 27//27
f 26//26 27//27 9//9
f 21//21 27//27 26//26
f 4//4 26//26 30//30
f 26//26 9//9 33//33
f 30//30 33//33 10//10
f 26//26 33//33 30//30
f 5//5 31//31 19//19
f 31//31 10//10 32//32
f 19//19 32//32 6//6
f 31//31 32//32 19//19
f 3//3 15//15 39//39
f 15//15 5//5 40//40
f 39//39 40//40 12//12
f 15//15 40//40 39//39
f 7//7 20//20 36//36
f 20//20 3//3 35//35
f 36//36 35//35 11//11
f 20//20 35//35 36//36
f 9//9 27//27 28//28
f 27//27 7//7 24//24
f 28//28 24//24 8//8
f 27//27 24//24 28//28
f 10//10 33//33 29//29
f 33//33 9//9 25//25
f 29//29 25//25 2//2
f 33//33 25//25 29//29

