# https://github.com/mikedh/trimesh
v -0.1269630 -0.3763334 0.0500000
v -0.1245632 -0.3771108 0.0505581
v -0.1223487 -0.3783272 0.0510971
v -0.1203946 -0.3799411 0.0515988
v -0.1187677 -0.3818976 0.0520460
v -0.1175233 -0.3841299 0.0524236
v -0.1167037 -0.3865622 0.0527186
v -0.1163370 -0.3891115 0.0529211
v -0.1164355 -0.3916911 0.0530241
v -0.1569960 -0.5742131 0.0530241
v -0.1579992 -0.5765916 0.0529211
v -0.1594112 -0.5787456 0.0527186
v -0.1611837 -0.5806019 0.0524236
v -0.1632565 -0.5820971 0.0520460
v -0.1655589 -0.5831803 0.0515988
v -0.1680126 -0.5838147 0.0510971
v -0.1705339 -0.5839787 0.0505581
v -0.1730370 -0.5836666 0.0500000
v -0.1248974 -0.3770366 0.0513833
v -0.1230056 -0.3781812 0.0527195
v -0.1213520 -0.3797284 0.0539630
v -0.1199929 -0.3816253 0.0550717
v -0.1189745 -0.3838074 0.0560076
v -0.1183317 -0.3862004 0.0567389
v -0.1180861 -0.3887228 0.0572407
v -0.1182463 -0.3912887 0.0574960
v -0.1588068 -0.5738107 0.0574960
v -0.1597484 -0.5762029 0.0572407
v -0.1610391 -0.5783839 0.0567389
v -0.1626350 -0.5802794 0.0560076
v -0.1644817 -0.5818248 0.0550717
v -0.1665163 -0.5829676 0.0539630
v -0.1686695 -0.5836687 0.0527195
v -0.1708680 -0.5839044 0.0513833
v -0.1254869 -0.3769056 0.0520417
v -0.1241646 -0.3779237 0.0540138
v -0.1230410 -0.3793530 0.0558493
v -0.1221543 -0.3811450 0.0574856
v -0.1215349 -0.3832384 0.0588670
v -0.1212037 -0.3855622 0.0599464
v -0.1211720 -0.3880370 0.0606871
v -0.1214410 -0.3905787 0.0610638
v -0.1620014 -0.5731007 0.0610638
v -0.1628343 -0.5755171 0.0606871
v -0.1639111 -0.5777457 0.0599464
v -0.1651953 -0.5797104 0.0588670
v -0.1666431 -0.5813445 0.0574856
v -0.1682052 -0.5825922 0.0558493
v -0.1698285 -0.5834112 0.0540138
v -0.1714576 -0.5837734 0.0520417
v -0.1262607 -0.3767336 0.0524538
v -0.1256859 -0.3775856 0.0548241
v -0.1252579 -0.3788604 0.0570301
v -0.1249914 -0.3805145 0.0589966
v -0.1248955 -0.3824917 0.0606568
v -0.1249734 -0.3847245 0.0619541
v -0.1252224 -0.3871369 0.0628444
v -0.1256342 -0.3896469 0.0632972
v -0.1661946 -0.5721689 0.0632972
v -0.1668847 -0.5746170 0.0628444
v -0.1676808 -0.5769079 0.0619541
v -0.1685559 -0.5789636 0.0606568
v -0.1694802 -0.5807140 0.0589966
v -0.1704221 -0.5820996 0.0570301
v -0.1713497 -0.5830731 0.0548241
v -0.1722314 -0.5836015 0.0524538
v -0.1271255 -0.3765415 0.0525700
v -0.1273859 -0.3772079 0.0550525
v -0.1277353 -0.3783099 0.0573629
v -0.1281618 -0.3798100 0.0594226
v -0.1286510 -0.3816571 0.0611614
v -0.1291861 -0.3837883 0.0625201
v -0.1297489 -0.3861311 0.0634524
v -0.1303202 -0.3886056 0.0639267
v -0.1708806 -0.5711276 0.0639267
v -0.1714111 -0.5736112 0.0634524
v -0.1718935 -0.5759718 0.0625201
v -0.1723114 -0.5781290 0.0611614
v -0.1726506 -0.5800095 0.0594226
v -0.1728996 -0.5815491 0.0573629
v -0.1730498 -0.5826953 0.0550525
v -0.1730961 -0.5834093 0.0525700
v -0.1279769 -0.3763523 0.0523762
v -0.1290596 -0.3768359 0.0546714
v -0.1301744 -0.3777678 0.0568076
v -0.1312833 -0.3791163 0.0587120
v -0.1323485 -0.3808354 0.0603197
v -0.1333337 -0.3828666 0.0615759
v -0.1342053 -0.3851407 0.0624380
v -0.1349338 -0.3875803 0.0628765
v -0.1754942 -0.5701023 0.0628765
v -0.1758676 -0.5726208 0.0624380
v -0.1760411 -0.5750501 0.0615759
v -0.1760089 -0.5773074 0.0603197
v -0.1757721 -0.5793158 0.0587120
v -0.1753387 -0.5810070 0.0568076
v -0.1747235 -0.5823234 0.0546714
v -0.1739475 -0.5832201 0.0523762
v -0.1287122 -0.3761889 0.0518958
v -0.1305052 -0.3765147 0.0537270
v -0.1322811 -0.3772997 0.0554313
v -0.1339793 -0.3785172 0.0569506
v -0.1355419 -0.3801258 0.0582332
v -0.1369159 -0.3820706 0.0592355
v -0.1380543 -0.3842854 0.0599233
v -0.1389185 -0.3866949 0.0602731
v -0.1794789 -0.5692168 0.0602731
v -0.1797166 -0.5717655 0.0599233
v -0.1796233 -0.5742540 0.0592355
v -0.1792024 -0.5765977 0.0582332
v -0.1784681 -0.5787167 0.0569506
v -0.1774454 -0.5805389 0.0554313
v -0.1761691 -0.5820021 0.0537270
v -0.1746828 -0.5830567 0.0518958
v -0.1292428 -0.3760710 0.0511867
v -0.1315483 -0.3762829 0.0523330
v -0.1338012 -0.3769619 0.0533998
v -0.1359246 -0.3780849 0.0543509
v -0.1378462 -0.3796137 0.0551538
v -0.1395007 -0.3814962 0.0557812
v -0.1408316 -0.3836682 0.0562117
v -0.1417937 -0.3860559 0.0564307
v -0.1823541 -0.5685779 0.0564307
v -0.1824938 -0.5711483 0.0562117
v -0.1822081 -0.5736796 0.0557812
v -0.1815067 -0.5760857 0.0551538
v -0.1804134 -0.5782844 0.0543509
v -0.1789654 -0.5802011 0.0533998
v -0.1772122 -0.5817703 0.0523330
v -0.1752134 -0.5829388 0.0511867
v -0.1295046 -0.3760128 0.0503345
v -0.1320631 -0.3761685 0.0506576
v -0.1345513 -0.3767952 0.0509583
v -0.1368846 -0.3778716 0.0512264
v -0.1389834 -0.3793610 0.0514527
v -0.1407763 -0.3812127 0.0516295
v -0.1422022 -0.3833637 0.0517509
v -0.1432126 -0.3857406 0.0518126
v -0.1837730 -0.5682626 0.0518126
v -0.1838644 -0.5708438 0.0517509
v -0.1834837 -0.5733962 0.0516295
v -0.1826438 -0.5758330 0.0514527
v -0.1813734 -0.5780711 0.0512264
v -0.1797156 -0.5800344 0.0509583
v -0.1777270 -0.5816560 0.0506576
v -0.1754752 -0.5828806 0.0503345
v -0.1294661 -0.3760213 0.0494419
v -0.1319874 -0.3761853 0.0489029
v -0.1344411 -0.3768197 0.0484012
v -0.1367435 -0.3779029 0.0479540
v -0.1388163 -0.3793981 0.0475764
v -0.1405888 -0.3812544 0.0472814
v -0.1420008 -0.3834084 0.0470789
v -0.1430040 -0.3857869 0.0469759
v -0.1835645 -0.5683089 0.0469759
v -0.1836630 -0.5708885 0.0470789
v -0.1832963 -0.5734378 0.0472814
v -0.1824767 -0.5758701 0.0475764
v -0.1812323 -0.5781024 0.0479540
v -0.1796054 -0.5800589 0.0484012
v -0.1776513 -0.5816728 0.0489029
v -0.1754368 -0.5828892 0.0494419
v -0.1291320 -0.3760956 0.0486167
v -0.1313305 -0.3763313 0.0472805
v -0.1334837 -0.3770324 0.0460370
v -0.1355183 -0.3781752 0.0449283
v -0.1373650 -0.3797206 0.0439924
v -0.1389609 -0.3816161 0.0432611
v -0.1402516 -0.3837971 0.0427593
v -0.1411932 -0.3861893 0.0425040
v -0.1817537 -0.5687113 0.0425040
v -0.1819139 -0.5712772 0.0427593
v -0.1816683 -0.5737996 0.0432611
v -0.1810255 -0.5761926 0.0439924
v -0.1800071 -0.5783747 0.0449283
v -0.1786480 -0.5802716 0.0460370
v -0.1769944 -0.5818188 0.0472805
v -0.1751026 -0.5829634 0.0486167
v -0.1285424 -0.3762266 0.0479583
v -0.1301715 -0.3765888 0.0459862
v -0.1317948 -0.3774078 0.0441507
v -0.1333569 -0.3786555 0.0425144
v -0.1348047 -0.3802896 0.0411330
v -0.1360889 -0.3822543 0.0400536
v -0.1371657 -0.3844829 0.0393129
v -0.1379986 -0.3868993 0.0389362
v -0.1785590 -0.5694213 0.0389362
v -0.1788280 -0.5719630 0.0393129
v -0.1787963 -0.5744378 0.0400536
v -0.1784651 -0.5767616 0.0411330
v -0.1778457 -0.5788550 0.0425144
v -0.1769590 -0.5806470 0.0441507
v -0.1758354 -0.5820763 0.0459862
v -0.1745131 -0.5830944 0.0479583
v -0.1277686 -0.3763985 0.0475462
v -0.1286503 -0.3769269 0.0451759
v -0.1295779 -0.3779004 0.0429699
v -0.1305198 -0.3792860 0.0410034
v -0.1314441 -0.3810364 0.0393432
v -0.1323192 -0.3830921 0.0380459
v -0.1331153 -0.3853830 0.0371556
v -0.1338054 -0.3878311 0.0367028
v -0.1743658 -0.5703531 0.0367028
v -0.1747776 -0.5728631 0.0371556
v -0.1750266 -0.5752755 0.0380459
v -0.1751045 -0.5775083 0.0393432
v -0.1750086 -0.5794855 0.0410034
v -0.1747421 -0.5811396 0.0429699
v -0.1743141 -0.5824144 0.0451759
v -0.1737393 -0.5832664 0.0475462
v -0.1269039 -0.3765907 0.0474300
v -0.1269502 -0.3773047 0.0449475
v -0.1271004 -0.3784509 0.0426371
v -0.1273494 -0.3799905 0.0405774
v -0.1276886 -0.3818710 0.0388386
v -0.1281065 -0.3840282 0.0374799
v -0.1285889 -0.3863888 0.0365476
v -0.1291194 -0.3888724 0.0360733
v -0.1696798 -0.5713944 0.0360733
v -0.1702511 -0.5738689 0.0365476
v -0.1708139 -0.5762117 0.0374799
v -0.1713490 -0.5783429 0.0388386
v -0.1718382 -0.5801900 0.0405774
v -0.1722647 -0.5816901 0.0426371
v -0.1726141 -0.5827921 0.0449475
v -0.1728745 -0.5834585 0.0474300
v -0.1260525 -0.3767799 0.0476238
v -0.1252765 -0.3776766 0.0453286
v -0.1246613 -0.3789930 0.0431924
v -0.1242279 -0.3806842 0.0412880
v -0.1239911 -0.3826926 0.0396803
v -0.1239589 -0.3849499 0.0384241
v -0.1241324 -0.3873792 0.0375620
v -0.1245058 -0.3898977 0.0371235
v -0.1650662 -0.5724197 0.0371235
v -0.1657947 -0.5748593 0.0375620
v -0.1666663 -0.5771334 0.0384241
v -0.1676515 -0.5791646 0.0396803
v -0.1687167 -0.5808837 0.0412880
v -0.1698256 -0.5822322 0.0431924
v -0.1709404 -0.5831641 0.0453286
v -0.1720231 -0.5836477 0.0476238
v -0.1253172 -0.3769433 0.0481042
v -0.1238309 -0.3779979 0.0462730
v -0.1225546 -0.3794611 0.0445687
v -0.1215319 -0.3812833 0.0430494
v -0.1207976 -0.3834023 0.0417668
v -0.1203767 -0.3857460 0.0407645
v -0.1202834 -0.3882345 0.0400767
v -0.1205211 -0.3907832 0.0397269
v -0.1610815 -0.5733051 0.0397269
v -0.1619457 -0.5757146 0.0400767
v -0.1630841 -0.5779294 0.0407645
v -0.1644581 -0.5798742 0.0417668
v -0.1660207 -0.5814828 0.0430494
v -0.1677189 -0.5827003 0.0445687
v -0.1694948 -0.5834853 0.0462730
v -0.1712878 -0.5838111 0.0481042
v -0.1247866 -0.3770612 0.0488133
v -0.1227878 -0.3782297 0.0476670
v -0.1210346 -0.3797989 0.0466002
v -0.1195866 -0.3817156 0.0456491
v -0.1184933 -0.3839143 0.0448462
v -0.1177919 -0.3863204 0.0442188
v -0.1175062 -0.3888517 0.0437883
v -0.1176459 -0.3914221 0.0435693
v -0.1582063 -0.5739441 0.0435693
v -0.1591684 -0.5763318 0.0437883
v -0.1604993 -0.5785038 0.0442188
v -0.1621538 -0.5803863 0.0448462
v -0.1640754 -0.5819151 0.0456491
v -0.1661988 -0.5830381 0.0466002
v -0.1684517 -0.5837171 0.0476670
v -0.1707572 -0.5839290 0.0488133
v -0.1245248 -0.3771194 0.0496655
v -0.1222730 -0.3783440 0.0493424
v -0.1202844 -0.3799656 0.0490417
v -0.1186266 -0.3819289 0.0487736
v -0.1173562 -0.3841670 0.0485473
v -0.1165163 -0.3866038 0.0483705
v -0.1161356 -0.3891562 0.0482491
v -0.1162270 -0.3917374 0.0481874
v -0.1567874 -0.5742594 0.0481874
v -0.1577978 -0.5766363 0.0482491
v -0.1592237 -0.5787873 0.0483705
v -0.1610166 -0.5806390 0.0485473
v -0.1631154 -0.5821284 0.0487736
v -0.1654487 -0.5832048 0.0490417
v -0.1679369 -0.5838315 0.0493424
v -0.1704954 -0.5839872 0.0496655
vn 0.2169305 0.9761871 0.0000000
vn 0.3973303 0.9167140 0.0420012
vn 0.5541967 0.8285051 0.0802826
vn 0.6920813 0.7124723 0.1157875
vn 0.8064593 0.5726379 0.1473406
vn 0.8936179 0.4137676 0.1739065
vn 0.9507581 0.2412094 0.1946205
vn 0.9760689 0.0607211 0.2088119
vn 0.9687727 -0.1217097 0.2160235
vn 0.9291417 -0.3000491 0.2160235
vn 0.8584864 -0.4684001 0.2088119
vn 0.7591157 -0.6211814 0.1946205
vn 0.6342699 -0.7532982 0.1739065
vn 0.4880282 -0.8603018 0.1473406
vn 0.3251912 -0.9385329 0.1157875
vn 0.1511408 -0.9852468 0.0802826
vn -0.0283209 -0.9987161 0.0420012
vn -0.2169305 -0.9761871 0.0000000
vn 0.3721801 0.9223029 0.1041119
vn 0.5061238 0.8391880 0.1990032
vn 0.6227481 0.7278797 0.2870122
vn 0.7182323 0.5922439 0.3652253
vn 0.7894833 0.4369086 0.4310766
vn 0.8342200 0.2671068 0.4824219
vn 0.8510331 0.0885069 0.5175995
vn 0.8394186 -0.0929643 0.5354755
vn 0.7997876 -0.2713037 0.5354755
vn 0.7334506 -0.4406144 0.5175995
vn 0.6425776 -0.5952840 0.4824219
vn 0.5301353 -0.7301572 0.4310766
vn 0.3998012 -0.8406958 0.3652253
vn 0.2558581 -0.9231255 0.2870122
vn 0.1030678 -0.9745639 0.1990032
vn -0.0534710 -0.9931272 0.1041119
vn 0.3278094 0.9321631 0.1536652
vn 0.4213121 0.8580350 0.2937210
vn 0.5004285 0.7550618 0.4236189
vn 0.5625796 0.6268334 0.5390585
vn 0.6057659 0.4777347 0.6362525
vn 0.6286202 0.3127956 0.7120362
vn 0.6304412 0.1375273 0.7639569
vn 0.6112082 -0.0422509 0.7903413
vn 0.5715773 -0.2205903 0.7903413
vn 0.5128587 -0.3915939 0.7639569
vn 0.4369778 -0.5495952 0.7120362
vn 0.3464179 -0.6893311 0.6362525
vn 0.2441486 -0.8061063 0.5390585
vn 0.1335385 -0.8959434 0.4236189
vn 0.0182561 -0.9557168 0.2937210
vn -0.0978417 -0.9832670 0.1536652
vn 0.2695700 0.9451052 0.1846841
vn 0.3099912 0.8827730 0.3530118
vn 0.3398760 0.7907401 0.5091310
vn 0.3582753 0.6722344 0.6478733
vn 0.3646249 0.5313216 0.7646869
vn 0.3587570 0.3727652 0.8557684
vn 0.3408999 0.2018698 0.9181698
vn 0.3116672 0.0243138 0.9498802
vn 0.2720362 -0.1540257 0.9498802
vn 0.2233174 -0.3272514 0.9181698
vn 0.1671146 -0.4896256 0.8557684
vn 0.1052769 -0.6357442 0.7646869
vn 0.0398442 -0.7607054 0.6478733
vn -0.0270140 -0.8602650 0.5091310
vn -0.0930647 -0.9309789 0.3530118
vn -0.1560812 -0.9703249 0.1846841
vn 0.2044863 0.9595682 0.1934275
vn 0.1855881 0.9104181 0.3697241
vn 0.1604557 0.8306113 0.5332343
vn 0.1299614 0.7229708 0.6785450
vn 0.0951453 0.5912060 0.8008888
vn 0.0571798 0.4397824 0.8962823
vn 0.0173321 0.2737738 0.9616379
vn -0.0230755 0.0987010 0.9948496
vn -0.0627065 -0.0796384 0.9948496
vn -0.1002504 -0.2553475 0.9616379
vn -0.1344626 -0.4226084 0.8962823
vn -0.1642027 -0.5758599 0.8008888
vn -0.1884696 -0.7099689 0.6785450
vn -0.2064344 -0.8203938 0.5332343
vn -0.2174679 -0.9033337 0.3697241
vn -0.2211648 -0.9558619 0.1934275
vn 0.1404085 0.9738077 0.1788406
vn 0.0631075 0.9376360 0.3418422
vn -0.0161918 0.8698663 0.4930217
vn -0.0948240 0.7729231 0.6273741
vn -0.1701697 0.6501648 0.7404917
vn -0.2397367 0.5057638 0.8286913
vn -0.3012350 0.3445665 0.8891183
vn -0.3526449 0.1719387 0.9198254
vn -0.3922758 -0.0064008 0.9198254
vn -0.4188175 -0.1845548 0.8891183
vn -0.4313791 -0.3566270 0.8286913
vn -0.4295176 -0.5169010 0.7404917
vn -0.4132550 -0.6600166 0.6273741
vn -0.3830819 -0.7811388 0.4930217
vn -0.3399485 -0.8761158 0.3418422
vn -0.2852426 -0.9416224 0.1788406
vn 0.0850653 0.9861062 0.1426829
vn -0.0426775 0.9611438 0.2727292
vn -0.1687602 0.9037704 0.3933434
vn -0.2889685 0.8160663 0.5005327
vn -0.3993190 0.7010869 0.5907804
vn -0.4961799 0.5627512 0.6611479
vn -0.5763778 0.4057093 0.7093579
vn -0.6372900 0.2351932 0.7338567
vn -0.6769210 0.0568537 0.7338567
vn -0.6939603 -0.1234120 0.7093579
vn -0.6878223 -0.2996396 0.6611479
vn -0.6586670 -0.4659789 0.5907804
vn -0.6073995 -0.6168734 0.5005327
vn -0.5356502 -0.7472347 0.3933434
vn -0.4457335 -0.8526080 0.2727292
vn -0.3405859 -0.9293239 0.1426829
vn 0.0451318 0.9949803 0.0893156
vn -0.1190077 0.9781061 0.1707209
vn -0.2788474 0.9282342 0.2462221
vn -0.4290554 0.8471967 0.3133197
vn -0.5646640 0.7378303 0.3698122
vn -0.6812191 0.6038710 0.4138604
vn -0.7749097 0.4498275 0.4440385
vn -0.8426786 0.2808351 0.4593740
vn -0.8823096 0.1024956 0.4593740
vn -0.8924922 -0.0792937 0.4440385
vn -0.8728615 -0.2585198 0.4138604
vn -0.8240120 -0.4292356 0.3698122
vn -0.7474864 -0.5857430 0.3133197
vn -0.6457374 -0.7227709 0.2462221
vn -0.5220637 -0.8356458 0.1707209
vn -0.3805193 -0.9204498 0.0893156
vn 0.0254247 0.9993597 0.0251754
vn -0.1566766 0.9864770 0.0481212
vn -0.3331753 0.9403071 0.0694028
vn -0.4981881 0.8625595 0.0883156
vn -0.6462616 0.7559630 0.1042392
vn -0.7725357 0.6241636 0.1166551
vn -0.8728850 0.4715998 0.1251614
vn -0.9440376 0.3033593 0.1294841
vn -0.9836686 0.1250199 0.1294841
vn -0.9904675 -0.0575215 0.1251614
vn -0.9641781 -0.2382272 0.1166551
vn -0.9056096 -0.4111028 0.1042392
vn -0.8166191 -0.5703802 0.0883156
vn -0.7000654 -0.7106980 0.0694028
vn -0.5597326 -0.8272749 0.0481212
vn -0.4002264 -0.9160704 0.0251754
vn 0.0283209 0.9987161 -0.0420012
vn -0.1511408 0.9852468 -0.0802826
vn -0.3251912 0.9385329 -0.1157875
vn -0.4880282 0.8603018 -0.1473406
vn -0.6342699 0.7532982 -0.1739065
vn -0.7591157 0.6211814 -0.1946205
vn -0.8584864 0.4684001 -0.2088119
vn -0.9291417 0.3000491 -0.2160235
vn -0.9687727 0.1217097 -0.2160235
vn -0.9760689 -0.0607211 -0.2088119
vn -0.9507581 -0.2412094 -0.1946205
vn -0.8936179 -0.4137676 -0.1739065
vn -0.8064593 -0.5726379 -0.1473406
vn -0.6920813 -0.7124723 -0.1157875
vn -0.5541967 -0.8285051 -0.0802826
vn -0.3973303 -0.9167140 -0.0420012
vn 0.0534710 0.9931272 -0.1041119
vn -0.1030678 0.9745639 -0.1990032
vn -0.2558581 0.9231255 -0.2870122
vn -0.3998012 0.8406958 -0.3652253
vn -0.5301353 0.7301572 -0.4310766
vn -0.6425776 0.5952840 -0.4824219
vn -0.7334506 0.4406144 -0.5175995
vn -0.7997876 0.2713037 -0.5354755
vn -0.8394186 0.0929643 -0.5354755
vn -0.8510331 -0.0885069 -0.5175995
vn -0.8342200 -0.2671068 -0.4824219
vn -0.7894833 -0.4369086 -0.4310766
vn -0.7182323 -0.5922439 -0.3652253
vn -0.6227481 -0.7278797 -0.2870122
vn -0.5061238 -0.8391880 -0.1990032
vn -0.3721801 -0.9223029 -0.1041119
vn 0.0978417 0.9832670 -0.1536652
vn -0.0182561 0.9557168 -0.2937210
vn -0.1335385 0.8959434 -0.4236189
vn -0.2441486 0.8061063 -0.5390585
vn -0.3464179 0.6893311 -0.6362525
vn -0.4369778 0.5495952 -0.7120362
vn -0.5128587 0.3915939 -0.7639569
vn -0.5715773 0.2205903 -0.7903413
vn -0.6112082 0.0422509 -0.7903413
vn -0.6304412 -0.1375273 -0.7639569
vn -0.6286202 -0.3127956 -0.7120362
vn -0.6057659 -0.4777347 -0.6362525
vn -0.5625796 -0.6268334 -0.5390585
vn -0.5004285 -0.7550618 -0.4236189
vn -0.4213121 -0.8580350 -0.2937210
vn -0.3278094 -0.9321631 -0.1536652
vn 0.1560812 0.9703249 -0.1846841
vn 0.0930647 0.9309789 -0.3530118
vn 0.0270140 0.8602650 -0.5091310
vn -0.0398442 0.7607054 -0.6478733
vn -0.1052769 0.6357442 -0.7646869
vn -0.1671146 0.4896256 -0.8557684
vn -0.2233174 0.3272514 -0.9181698
vn -0.2720362 0.1540257 -0.9498802
vn -0.3116672 -0.0243138 -0.9498802
vn -0.3408999 -0.2018698 -0.9181698
vn -0.3587570 -0.3727652 -0.8557684
vn -0.3646249 -0.5313216 -0.7646869
vn -0.3582753 -0.6722344 -0.6478733
vn -0.3398760 -0.7907401 -0.5091310
vn -0.3099912 -0.8827730 -0.3530118
vn -0.2695700 -0.9451052 -0.1846841
vn 0.2211648 0.9558619 -0.1934275
vn 0.2174679 0.9033337 -0.3697241
vn 0.2064344 0.8203938 -0.5332343
vn 0.1884696 0.7099689 -0.6785450
vn 0.1642027 0.5758599 -0.8008888
vn 0.1344626 0.4226084 -0.8962823
vn 0.1002504 0.2553475 -0.9616379
vn 0.0627065 0.0796384 -0.9948496
vn 0.0230755 -0.0987010 -0.9948496
vn -0.0173321 -0.2737738 -0.9616379
vn -0.0571798 -0.4397824 -0.8962823
vn -0.0951453 -0.5912060 -0.8008888
vn -0.1299614 -0.7229708 -0.6785450
vn -0.1604557 -0.8306113 -0.5332343
vn -0.1855881 -0.9104181 -0.3697241
vn -0.2044863 -0.9595682 -0.1934275
vn 0.2852426 0.9416224 -0.1788406
vn 0.3399485 0.8761158 -0.3418422
vn 0.3830819 0.7811388 -0.4930217
vn 0.4132550 0.6600166 -0.6273741
vn 0.4295176 0.5169010 -0.7404917
vn 0.4313791 0.3566270 -0.8286913
vn 0.4188175 0.1845548 -0.8891183
vn 0.3922758 0.0064008 -0.9198254
vn 0.3526449 -0.1719387 -0.9198254
vn 0.3012350 -0.3445665 -0.8891183
vn 0.2397367 -0.5057638 -0.8286913
vn 0.1701697 -0.6501648 -0.7404917
vn 0.0948240 -0.7729231 -0.6273741
vn 0.0161918 -0.8698663 -0.4930217
vn -0.0631075 -0.9376360 -0.3418422
vn -0.1404085 -0.9738077 -0.1788406
vn 0.3405859 0.9293239 -0.1426829
vn 0.4457335 0.8526080 -0.2727292
vn 0.5356502 0.7472347 -0.3933434
vn 0.6073995 0.6168734 -0.5005327
vn 0.6586670 0.4659789 -0.5907804
vn 0.6878223 0.2996396 -0.6611479
vn 0.6939603 0.1234120 -0.7093579
vn 0.6769210 -0.0568537 -0.7338567
vn 0.6372900 -0.2351932 -0.7338567
vn 0.5763778 -0.4057093 -0.7093579
vn 0.4961799 -0.5627512 -0.6611479
vn 0.3993190 -0.7010869 -0.5907804
vn 0.2889685 -0.8160663 -0.5005327
vn 0.1687602 -0.9037704 -0.3933434
vn 0.0426775 -0.9611438 -0.2727292
vn -0.0850653 -0.9861062 -0.1426829
vn 0.3805193 0.9204498 -0.0893156
vn 0.5220637 0.8356458 -0.1707209
vn 0.6457374 0.7227709 -0.2462221
vn 0.7474864 0.5857430 -0.3133197
vn 0.8240120 0.4292356 -0.3698122
vn 0.8728615 0.2585198 -0.4138604
vn 0.8924922 0.0792937 -0.4440385
vn 0.8823096 -0.1024956 -0.4593740
vn 0.8426786 -0.2808351 -0.4593740
vn 0.7749097 -0.4498275 -0.4440385
vn 0.6812191 -0.6038710 -0.4138604
vn 0.5646640 -0.7378303 -0.3698122
vn 0.4290554 -0.8471967 -0.3133197
vn 0.2788474 -0.9282342 -0.2462221
vn 0.1190077 -0.9781061 -0.1707209
vn -0.0451318 -0.9949803 -0.0893156
vn 0.4002264 0.9160704 -0.0251754
vn 0.5597326 0.8272749 -0.0481212
vn 0.7000654 0.7106980 -0.0694028
vn 0.8166191 0.5703802 -0.0883156
vn 0.9056096 0.4111028 -0.1042392
vn 0.9641781 0.2382272 -0.1166551
vn 0.9904675 0.0575215 -0.1251614
vn 0.9836686 -0.1250199 -0.1294841
vn 0.9440376 -0.3033593 -0.1294841
vn 0.8728850 -0.4715998 -0.1251614
vn 0.7725357 -0.6241636 -0.1166551
vn 0.6462616 -0.7559630 -0.1042392
vn 0.4981881 -0.8625595 -0.0883156
vn 0.3331753 -0.9403071 -0.0694028
vn 0.1566766 -0.9864770 -0.0481212
vn -0.0254247 -0.9993597 -0.0251754
f 2//2 1//1 19//19
f 2//2 19//19 3//3
f 3//3 19//19 20//20
f 3//3 20//20 4//4
f 4//4 20//20 21//21
f 4//4 21//21 5//5
f 5//5 21//21 22//22
f 5//5 22//22 6//6
f 6//6 22//22 23//23
f 6//6 23//23 7//7
f 7//7 23//23 24//24
f 7//7 24//24 8//8
f 8//8 24//24 25//25
f 8//8 25//25 9//9
f 9//9 25//25 26//26
f 9//9 26//26 10//10
f 10//10 26//26 27//27
f 10//10 27//27 11//11
f 11//11 27//27 28//28
f 11//11 28//28 12//12
f 12//12 28//28 29//29
f 12//12 29//29 13//13
f 13//13 29//29 30//30
f 13//13 30//30 14//14
f 14//14 30//30 31//31
f 14//14 31//31 15//15
f 15//15 31//31 32//32
f 15//15 32//32 16//16
f 16//16 32//32 33//33
f 16//16 33//33 17//17
f 17//17 33//33 34//34
f 17//17 34//34 18//18
f 19//19 1//1 35//35
f 19//19 35//35 20//20
f 20//20 35//35 36//36
f 20//20 36//36 21//21
f 21//21 36//36 37//37
f 21//21 37//37 22//22
f 22//22 37//37 38//38
f 22//22 38//38 23//23
f 23//23 38//38 39//39
f 23//23 39//39 24//24
f 24//24 39//39 40//40
f 24//24 40//40 25//25
f 25//25 40//40 41//41
f 25//25 41//41 26//26
f 26//26 41//41 42//42
f 26//26 42//42 27//27
f 27//27 42//42 43//43
f 27//27 43//43 28//28
f 28//28 43//43 44//44
f 28//28 44//44 29//29
f 29//29 44//44 45//45
f 29//29 45//45 30//30
f 30//30 45//45 46//46
f 30//30 46//46 31//31
f 31//31 46//46 47//47
f 31//31 47//47 32//32
f 32//32 47//47 48//48
f 32//32 48//48 33//33
f 33//33 48//48 49//49
f 33//33 49//49 34//34
f 34//34 49//49 50//50
f 34//34 50//50 18//18
f 35//35 1//1 51//51
f 35//35 51//51 36//36
f 36//36 51//51 52//52
f 36//36 52//52 37//37
f 37//37 52//52 53//53
f 37//37 53//53 38//38
f 38//38 53//53 54//54
f 38//38 54//54 39//39
f 39//39 54//54 55//55
f 39//39 55//55 40//40
f 40//40 55//55 56//56
f 40//40 56//56 41//41
f 41//41 56//56 57//57
f 41//41 57//57 42//42
f 42//42 57//57 58//58
f 42//42 58//58 43//43
f 43//43 58//58 59//59
f 43//43 59//59 44//44
f 44//44 59//59 60//60
f 44//44 60//60 45//45
f 45//45 60//60 61//61
f 45//45 61//61 46//46
f 46//46 61//61 62//62
f 46//46 62//62 47//47
f 47//47 62//62 63//63
f 47//47 63//63 48//48
f 48//48 63//63 64//64
f 48//48 64//64 49//49
f 49//49 64//64 65//65
f 49//49 65//65 50//50
f 50//50 65//65 66//66
f 50//50 66//66 18//18
f 51//51 1//1 67//67
f 51//51 67//67 52//52
f 52//52 67//67 68//68
f 52//52 68//68 53//53
f 53//53 68//68 69//69
f 53//53 69//69 54//54
f 54//54 69//69 70//70
f 54//54 70//70 55//55
f 55//55 70//70 71//71
f 55//55 71//71 56//56
f 56//56 71//71 72//72
f 56//56 72//72 57//57
f 57//57 72//72 73//73
f 57//57 73//73 58//58
f 58//58 73//73 74//74
f 58//58 74//74 59//59
f 59//59 74//74 75//75
f 59//59 75//75 60//60
f 60//60 75//75 76//76
f 60//60 76//76 61//61
f 61//61 76//76 77//77
f 61//61 77//77 62//62
f 62//62 77//77 78//78
f 62//62 78//78 63//63
f 63//63 78//78 79//79
f 63//63 79//79 64//64
f 64//64 79//79 80//80
f 64//64 80//80 65//65
f 65//65 80//80 81//81
f 65//65 81//81 66//66
f 66//66 81//81 82//82
f 66//66 82//82 18//18
f 67//67 1//1 83//83
f 67//67 83//83 68//68
f 68//68 83//83 84//84
f 68//68 84//84 69//69
f 69//69 84//84 85//85
f 69//69 85//85 70//70
f 70//70 85//85 86//86
f 70//70 86//86 71//71
f 71//71 86//86 87//87
f 71//71 87//87 72//72
f 72//72 87//87 88//88
f 72//72 88//88 73//73
f 73//73 88//88 89//89
f 73//73 89//89 74//74
f 74//74 89//89 90//90
f 74//74 90//90 75//75
f 75//75 90//90 91//91
f 75//75 91//91 76//76
f 76//76 91//91 92//92
f 76//76 92//92 77//77
f 77//77 92//92 93//93
f 77//77 93//93 78//78
f 78//78 93//93 94//94
f 78//78 94//94 79//79
f 79//79 94//94 95//95
f 79//79 95//95 80//80
f 80//80 95//95 96//96
f 80//80 96//96 81//81
f 81//81 96//96 97//97
f 81//81 97//97 82//82
f 82//82 97//97 98//98
f 82//82 98//98 18//18
f 83//83 1//1 99//99
f 83//83 99//99 84//84
f 84//84 99//99 100//100
f 84//84 100//100 85//85
f 85//85 100//100 101//101
f 85//85 101//101 86//86
f 86//86 101//101 102//102
f 86//86 102//102 87//87
f 87//87 102//102 103//103
f 87//87 103//103 88//88
f 88//88 103//103 104//104
f 88//88 104//104 89//89
f 89//89 104//104 105//105
f 89//89 105//105 90//90
f 90//90 105//105 106//106
f 90//90 106//106 91//91
f 91//91 106//106 107//107
f 91//91 107//107 92//92
f 92//92 107//107 108//108
f 92//92 108//108 93//93
f 93//93 108//108 109//109
f 93//93 109//109 94//94
f 94//94 109//109 110//110
f 94//94 110//110 95//95
f 95//95 110//110 111//111
f 95//95 111//111 96//96
f 96//96 111//111 112//112
f 96//96 112//112 97//97
f 97//97 112//112 113//113
f 97//97 113//113 98//98
f 98//98 113//113 114//114
f 98//98 114//114 18//18
f 99//99 1//1 115//115
f 99//99 115//115 100//100
f 100//100 115//115 116//116
f 100//100 116//116 101//101
f 101//101 116//116 117//117
f 101//101 117//117 102//102
f 102//102 117//117 118//118
f 102//102 118//118 103//103
f 103//103 118//118 119//119
f 103//103 119//119 104//104
f 104//104 119//119 120//120
f 104//104 120//120 105//105
f 105//105 120//120 121//121
f 105//105 121//121 106//106
f 106//106 121//121 122//122
f 106//106 122//122 107//107
f 107//107 122//122 123//123
f 107//107 123//123 108//108
f 108//108 123//123 124//124
f 108//108 124//124 109//109
f 109//109 124//124 125//125
f 109//109 125//125 110//110
f 110//110 125//125 126//126
f 110//110 126//126 111//111
f 111//111 126//126 127//127
f 111//111 127//127 112//112
f 112//112 127//127 128//128
f 112//112 128//128 113//113
f 113//113 128//128 129//129
f 113//113 129//129 114//114
f 114//114 129//129 130//130
f 114//114 130//130 18//18
f 115//115 1//1 131//131
f 115//115 131//131 116//116
f 116//116 131//131 132//132
f 116//116 132//132 117//117
f 117//117 132//132 133//133
f 117//117 133//133 118//118
f 118//118 133//133 134//134
f 118//118 134//134 119//119
f 119//119 134//134 135//135
f 119//119 135//135 120//120
f 120//120 135//135 136//136
f 120//120 136//136 121//121
f 121//121 136//136 137//137
f 121//121 137//137 122//122
f 122//122 137//137 138//138
f 122//122 138//138 123//123
f 123//123 138//138 139//139
f 123//123 139//139 124//124
f 124//124 139//139 140//140
f 124//124 140//140 125//125
f 125//125 140//140 141//141
f 125//125 141//141 126//126
f 126//126 141//141 142//142
f 126//126 142//142 127//127
f 127//127 142//142 143//143
f 127//127 143//143 128//128
f 128//128 143//143 144//144
f 128//128 144//144 129//129
f 129//129 144//144 145//145
f 129//129 145//145 130//130
f 130//130 145//145 146//146
f 130//130 146//146 18//18
f 131//131 1//1 147//147
f 131//131 147//147 132//132
f 132//132 147//147 148//148
f 132//132 148//148 133//133
f 133//133 148//148 149//149
f 133//133 149//149 134//134
f 134//134 149//149 150//150
f 134//134 150//150 135//135
f 135//135 150//150 151//151
f 135//135 151//151 136//136
f 136//136 151//151 152//152
f 136//136 152//152 137//137
f 137//137 152//152 153//153
f 137//137 153//153 138//138
f 138//138 153//153 154//154
f 138//138 154//154 139//139
f 139//139 154//154 155//155
f 139//139 155//155 140//140
f 140//140 155//155 156//156
f 140//140 156//156 141//141
f 141//141 156//156 157//157
f 141//141 157//157 142//142
f 142//142 157//157 158//158
f 142//142 158//158 143//143
f 143//143 158//158 159//159
f 143//143 159//159 144//144
f 144//144 159//159 160//160
f 144//144 160//160 145//145
f 145//145 160//160 161//161
f 145//145 161//161 146//146
f 146//146 161//161 162//162
f 146//146 162//162 18//18
f 147//147 1//1 163//163
f 147//147 163//163 148//148
f 148//148 163//163 164//164
f 148//148 164//164 149//149
f 149//149 164//164 165//165
f 149//149 165//165 150//150
f 150//150 165//165 166//166
f 150//150 166//166 151//151
f 151//151 166//166 167//167
f 151//151 167//167 152//152
f 152//152 167//167 168//168
f 152//152 168//168 153//153
f 153//153 168//168 169//169
f 153//153 169//169 154//154
f 154//154 169//169 170//170
f 154//154 170//170 155//155
f 155//155 170//170 171//171
f 155//155 171//171 156//156
f 156//156 171//171 172//172
f 156//156 172//172 157//157
f 157//157 172//172 173//173
f 157//157 173//173 158//158
f 158//158 173//173 174//174
f 158//158 174//174 159//159
f 159//159 174//174 175//175
f 159//159 175//175 160//160
f 160//160 175//175 176//176
f 160//160 176//176 161//161
f 161//161 176//176 177//177
f 161//161 177//177 162//162
f 162//162 177//177 178//178
f 162//162 178//178 18//18
f 163//163 1//1 179//179
f 163//163 179//179 164//164
f 164//164 179//179 180//180
f 164//164 180//180 165//165
f 165//165 180//180 181//181
f 165//165 181//181 166//166
f 166//166 181//181 182//182
f 166//166 182//182 167//167
f 167//167 182//182 183//183
f 167//167 183//183 168//168
f 168//168 183//183 184//184
f 168//168 184//184 169//169
f 169//169 184//184 185//185
f 169//169 185//185 170//170
f 170//170 185//185 186//186
f 170//170 186//186 171//171
f 171//171 186//186 187//187
f 171//171 187//187 172//172
f 172//172 187//187 188//188
f 172//172 188//188 173//173
f 173//173 188//188 189//189
f 173//173 189//189 174//174
f 174//174 189//189 190//190
f 174//174 190//190 175//175
f 175//175 190//190 191//191
f 175//175 191//191 176//176
f 176//176 191//191 192//192
f 176//176 192//192 177//177
f 177//177 192//192 193//193
f 177//177 193//193 178//178
f 178//178 193//193 194//194
f 178//178 194//194 18//18
f 179//179 1//1 195//195
f 179//179 195//195 180//180
f 180//180 195//195 196//196
f 180//180 196//196 181//181
f 181//181 196//196 197//197
f 181//181 197//197 182//182
f 182//182 197//197 198//198
f 182//182 198//198 183//183
f 183//183 198//198 199//199
f 183//183 199//199 184//184
f 184//184 199//199 200//200
f 184//184 200//200 185//185
f 185//185 200//200 201//201
f 185//185 201//201 186//186
f 186//186 201//201 202//202
f 186//186 202//202 187//187
f 187//187 202//202 203//203
f 187//187 203//203 188//188
f 188//188 203//203 204//204
f 188//188 204//204 189//189
f 189//189 204//204 205//205
f 189//189 205//205 190//190
f 190//190 205//205 206//206
f 190//190 206//206 191//191
f 191//191 206//206 207//207
f 191//191 207//207 192//192
f 192//192 207//207 208//208
f 192//192 208//208 193//193
f 193//193 208//208 209//209
f 193//193 209//209 194//194
f 194//194 209//209 210//210
f 194//194 210//210 18//18
f 195//195 1//1 211//211
f 195//195 211//211 196//196
f 196//196 211//211 212//212
f 196//196 212//212 197//197
f 197//197 212//212 213//213
f 197//197 213//213 198//198
f 198//198 213//213 214//214
f 198//198 214//214 199//199
f 199//199 214//214 215//215
f 199//199 215//215 200//200
f 200//200 215//215 216//216
f 200//200 216//216 201//201
f 201//201 216//216 217//217
f 201//201 217//217 202//202
f 202//202 217//217 218//218
f 202//202 218//218 203//203
f 203//203 218//218 219//219
f 203//203 219//219 204//204
f 204//204 219//219 220//220
f 204//204 220//220 205//205
f 205//205 220//220 221//221
f 205//205 221//221 206//206
f 206//206 221//221 222//222
f 206//206 222//222 207//207
f 207//207 222//222 223//223
f 207//207 223//223 208//208
f 208//208 223//223 224//224
f 208//208 224//224 209//209
f 209//209 224//224 225//225
f 209//209 225//225 210//210
f 210//210 225//225 226//226
f 210//210 226//226 18//18
f 211//211 1//1 227//227
f 211//211 227//227 212//212
f 212//212 227//227 228//228
f 212//212 228//228 213//213
f 213//213 228//228 229//229
f 213//213 229//229 214//214
f 214//214 229//229 230//230
f 214//214 230//230 215//215
f 215//215 230//230 231//231
f 215//215 231//231 216//216
f 216//216 231//231 232//232
f 216//216 232//232 217//217
f 217//217 232//232 233//233
f 217//217 233//233 218//218
f 218//218 233//233 234//234
f 218//218 234//234 219//219
f 219//219 234//234 235//235
f 219//219 235//235 220//220
f 220//220 235//235 236//236
f 220//220 236//236 221//221
f 221//221 236//236 237//237
f 221//221 237//237 222//222
f 222//222 237//237 238//238
f 222//222 238//238 223//223
f 223//223 238//238 239//239
f 223//223 239//239 224//224
f 224//224 239//239 240//240
f 224//224 240//240 225//225
f 225//225 240//240 241//241
f 225//225 241//241 226//226
f 226//226 241//241 242//242
f 226//226 242//242 18//18
f 227//227 1//1 243//243
f 227//227 243//243 228//228
f 228//228 243//243 244//244
f 228//228 244//244 229//229
f 229//229 244//244 245//245
f 229//229 245//245 230//230
f 230//230 245//245 246//246
f 230//230 246//246 231//231
f 231//231 246//246 247//247
f 231//231 247//247 232//232
f 232//232 247//247 248//248
f 232//232 248//248 233//233
f 233//233 248//248 249//249
f 233//233 249//249 234//234
f 234//234 249//249 250//250
f 234//234 250//250 235//235
f 235//235 250//250 251//251
f 235//235 251//251 236//236
f 236//236 251//251 252//252
f 236//236 252//252 237//237
f 237//237 252//252 253//253
f 237//237 253//253 238//238
f 238//238 253//253 254//254
f 238//238 254//254 239//239
f 239//239 254//254 255//255
f 239//239 255//255 240//240
f 240//240 255//255 256//256
f 240//240 256//256 241//241
f 241//241 256//256 257//257
f 241//241 257//257 242//242
f 242//242 257//257 258//258
f 242//242 258//258 18//18
f 243//243 1//1 259//259
f 243//243 259//259 244//244
f 244//244 259//259 260//260
f 244//244 260//260 245//245
f 245//245 260//260 261//261
f 245//245 261//261 246//246
f 246//246 261//261 262//262
f 246//246 262//262 247//247
f 247//247 262//262 263//263
f 247//247 263//263 248//248
f 248//248 263//263 264//264
f 248//248 264//264 249//249
f 249//249 264//264 265//265
f 249//249 265//265 250//250
f 250//250 265//265 266//266
f 250//250 266//266 251//251
f 251//251 266//266 267//267
f 251//251 267//267 252//252
f 252//252 267//267 268//268
f 252//252 268//268 253//253
f 253//253 268//268 269//269
f 253//253 269//269 254//254
f 254//254 269//269 270//270
f 254//254 270//270 255//255
f 255//255 270//270 271//271
f 255//255 271//271 256//256
f 256//256 271//271 272//272
f 256//256 272//272 257//257
f 257//257 272//272 273//273
f 257//257 273//273 258//258
f 258//258 273//273 274//274
f 258//258 274//274 18//18
f 259//259 1//1 275//275
f 259//259 275//275 260//260
f 260//260 275//275 276//276
f 260//260 276//276 261//261
f 261//261 276//276 277//277
f 261//261 277//277 262//262
f 262//262 277//277 278//278
f 262//262 278//278 263//263
f 263//263 278//278 279//279
f 263//263 279//279 264//264
f 264//264 279//279 280//280
f 264//264 280//280 265//265
f 265//265 280//280 281//281
f 265//265 281//281 266//266
f 266//266 281//281 282//282
f 266//266 282//282 267//267
f 267//267 282//282 283//283
f 267//267 283//283 268//268
f 268//268 283//283 284//284
f 268//268 284//284 269//269
f 269//269 284//284 285//285
f 269//269 285//285 270//270
f 270//270 285//285 286//286
f 270//270 286//286 271//271
f 271//271 286//286 287//287
f 271//271 287//287 272//272
f 272//272 287//287 288//288
f 272//272 288//288 273//273
f 273//273 288//288 289//289
f 273//273 289//289 274//274
f 274//274 289//289 290//290
f 274//274 290//290 18//18
f 275//275 1//1 2//2
f 275//275 2//2 276//276
f 276//276 2//2 3//3
f 276//276 3//3 277//277
f 277//277 3//3 4//4
f 277//277 4//4 278//278
f 278//278 4//4 5//5
f 278//278 5//5 279//279
f 279//279 5//5 6//6
f 279//279 6//6 280//280
f 280//280 6//6 7//7
f 280//280 7//7 281//281
f 281//281 7//7 8//8
f 281//281 8//8 282//282
f 282//282 8//8 9//9
f 282//282 9//9 283//283
f 283//283 9//9 10//10
f 283//283 10//10 284//284
f 284//284 10//10 11//11
f 284//284 11//11 285//285
f 285//285 11//11 12//12
f 285//285 12//12 286//286
f 286//286 12//12 13//13
f 286//286 13//13 287//287
f 287//287 13//13 14//14
f 287//287 14//14 288//288
f 288//288 14//14 15//15
f 288//288 15//15 289//289
f 289//289 15//15 16//16
f 289//289 16//16 290//290
f 290//290 16//16 17//17
f 290//290 17//17 18//18

