# https://github.com/mikedh/trimesh
v -0.1918094 -1.3296607 -0.0308159
v -0.1896073 -1.3296438 -0.0310493
v -0.1874187 -1.3299795 -0.0310768
v -0.1853179 -1.3306565 -0.0308973
v -0.1833766 -1.3316517 -0.0305170
v -0.1816608 -1.3329312 -0.0299488
v -0.1802290 -1.3344514 -0.0292121
v -0.1791300 -1.3361605 -0.0283319
v -0.1784011 -1.3380004 -0.0273383
v -0.1640672 -1.4199084 0.0187350
v -0.1641397 -1.4218195 0.0198513
v -0.1646160 -1.4236687 0.0209727
v -0.1654800 -1.4253929 0.0220609
v -0.1667023 -1.4269334 0.0230790
v -0.1682412 -1.4282379 0.0239922
v -0.1700443 -1.4292618 0.0247695
v -0.1720502 -1.4299703 0.0253844
v -0.1741906 -1.4303393 0.0258159
v -0.1896723 -1.3292784 -0.0303795
v -0.1875464 -1.3292611 -0.0297599
v -0.1855040 -1.3296096 -0.0289782
v -0.1836147 -1.3303120 -0.0280611
v -0.1819429 -1.3313442 -0.0270397
v -0.1805455 -1.3326712 -0.0259488
v -0.1794700 -1.3342478 -0.0248257
v -0.1787531 -1.3360202 -0.0237085
v -0.1644192 -1.4179282 0.0223648
v -0.1644796 -1.4199068 0.0233575
v -0.1649324 -1.4218885 0.0242359
v -0.1657621 -1.4238059 0.0249700
v -0.1669404 -1.4255937 0.0255349
v -0.1684273 -1.4271910 0.0259113
v -0.1701720 -1.4285434 0.0260864
v -0.1721151 -1.4296049 0.0260542
v -0.1899913 -1.3289803 -0.0297503
v -0.1881735 -1.3286752 -0.0285230
v -0.1864179 -1.3287557 -0.0271758
v -0.1847843 -1.3292191 -0.0257544
v -0.1833283 -1.3300497 -0.0243073
v -0.1820995 -1.3312191 -0.0228839
v -0.1811397 -1.3326875 -0.0215325
v -0.1804817 -1.3344050 -0.0202991
v -0.1661478 -1.4163130 0.0257741
v -0.1661494 -1.4183465 0.0266507
v -0.1664865 -1.4204364 0.0273009
v -0.1671475 -1.4225114 0.0277024
v -0.1681100 -1.4245008 0.0278416
v -0.1693412 -1.4263370 0.0277137
v -0.1707991 -1.4279574 0.0273232
v -0.1724341 -1.4293068 0.0266834
v -0.1905259 -1.3287855 -0.0292378
v -0.1892244 -1.3282922 -0.0275154
v -0.1879494 -1.3281977 -0.0257073
v -0.1867442 -1.3285050 -0.0238751
v -0.1856499 -1.3292038 -0.0220813
v -0.1847037 -1.3302703 -0.0203868
v -0.1839379 -1.3316680 -0.0188494
v -0.1833785 -1.3333495 -0.0175215
v -0.1690446 -1.4152575 0.0285517
v -0.1689476 -1.4173270 0.0293337
v -0.1690907 -1.4194875 0.0297979
v -0.1694691 -1.4216655 0.0299284
v -0.1700699 -1.4237867 0.0297208
v -0.1708727 -1.4257790 0.0291822
v -0.1718500 -1.4275745 0.0283309
v -0.1729687 -1.4291121 0.0271959
v -0.1912115 -1.3287175 -0.0289036
v -0.1905724 -1.3281586 -0.0268584
v -0.1899138 -1.3280029 -0.0247499
v -0.1892581 -1.3282558 -0.0226499
v -0.1886277 -1.3289086 -0.0206300
v -0.1880441 -1.3299391 -0.0187588
v -0.1875270 -1.3313122 -0.0171002
v -0.1870941 -1.3329812 -0.0157107
v -0.1727602 -1.4148891 0.0303626
v -0.1725367 -1.4169712 0.0310829
v -0.1724310 -1.4191564 0.0314259
v -0.1724469 -1.4213703 0.0313797
v -0.1725838 -1.4235375 0.0309460
v -0.1728371 -1.4255843 0.0301396
v -0.1731980 -1.4274409 0.0289879
v -0.1736544 -1.4290441 0.0275301
v -0.1919656 -1.3287845 -0.0287881
v -0.1920549 -1.3282903 -0.0266314
v -0.1920741 -1.3281949 -0.0244191
v -0.1920228 -1.3285015 -0.0222266
v -0.1919026 -1.3291996 -0.0201285
v -0.1917176 -1.3302655 -0.0181963
v -0.1914741 -1.3316630 -0.0164958
v -0.1911804 -1.3333443 -0.0150849
v -0.1768465 -1.4152523 0.0309883
v -0.1764837 -1.4173219 0.0316873
v -0.1761045 -1.4194828 0.0319884
v -0.1757218 -1.4216613 0.0318812
v -0.1753485 -1.4237832 0.0313694
v -0.1749974 -1.4257762 0.0304704
v -0.1746805 -1.4275726 0.0292149
v -0.1744084 -1.4291111 0.0276456
v -0.1926971 -1.3289785 -0.0289053
v -0.1934930 -1.3286716 -0.0268617
v -0.1941699 -1.3287505 -0.0247548
v -0.1947048 -1.3292124 -0.0226561
v -0.1950795 -1.3300418 -0.0206373
v -0.1952812 -1.3312102 -0.0187671
v -0.1953031 -1.3326780 -0.0171091
v -0.1951444 -1.3343951 -0.0157199
v -0.1808105 -1.4163031 0.0303534
v -0.1803128 -1.4183370 0.0310740
v -0.1796682 -1.4204275 0.0314176
v -0.1788987 -1.4225035 0.0313724
v -0.1780305 -1.4244942 0.0309398
v -0.1770931 -1.4263318 0.0301348
v -0.1761186 -1.4279538 0.0289846
v -0.1751399 -1.4293050 0.0275284
v -0.1933178 -1.3292759 -0.0292410
v -0.1947132 -1.3292563 -0.0275216
v -0.1959482 -1.3296026 -0.0257164
v -0.1969806 -1.3303030 -0.0238868
v -0.1977752 -1.3313335 -0.0220951
v -0.1983051 -1.3326592 -0.0204024
v -0.1985522 -1.3342349 -0.0188661
v -0.1985080 -1.3360069 -0.0175388
v -0.1841741 -1.4179149 0.0285344
v -0.1835619 -1.4198939 0.0293170
v -0.1826921 -1.4218765 0.0297824
v -0.1815944 -1.4237952 0.0299146
v -0.1803063 -1.4255847 0.0297091
v -0.1788714 -1.4271840 0.0291731
v -0.1773388 -1.4285386 0.0283247
v -0.1757607 -1.4296025 0.0271927
v -0.1937529 -1.3296410 -0.0297546
v -0.1955686 -1.3299740 -0.0285315
v -0.1971946 -1.3306485 -0.0271881
v -0.1985757 -1.3316415 -0.0257702
v -0.1996647 -1.3329191 -0.0243260
v -0.2004246 -1.3344378 -0.0229048
v -0.2008295 -1.3361459 -0.0215550
v -0.2008656 -1.3379853 -0.0203224
v -0.1865317 -1.4198933 0.0257508
v -0.1858392 -1.4218049 0.0266282
v -0.1848116 -1.4236551 0.0272799
v -0.1834839 -1.4253807 0.0276837
v -0.1819014 -1.4269232 0.0278258
v -0.1801179 -1.4282299 0.0277014
v -0.1781942 -1.4292563 0.0273148
v -0.1761957 -1.4299675 0.0266791
v -0.1939498 -1.3300297 -0.0303844
v -0.1959557 -1.3307382 -0.0297695
v -0.1977588 -1.3317621 -0.0289922
v -0.1992977 -1.3330666 -0.0280790
v -0.2005200 -1.3346071 -0.0270609
v -0.2013840 -1.3363313 -0.0259727
v -0.2018603 -1.3381805 -0.0248513
v -0.2019328 -1.3400916 -0.0237350
v -0.1875989 -1.4219996 0.0223383
v -0.1868700 -1.4238395 0.0233319
v -0.1857710 -1.4255486 0.0242121
v -0.1843392 -1.4270688 0.0249488
v -0.1826234 -1.4283483 0.0255170
v -0.1806821 -1.4293435 0.0258973
v -0.1785813 -1.4300205 0.0260768
v -0.1763927 -1.4303562 0.0260493
v -0.1938849 -1.3303951 -0.0310542
v -0.1958280 -1.3314566 -0.0310864
v -0.1975727 -1.3328090 -0.0309113
v -0.1990596 -1.3344063 -0.0305349
v -0.2002379 -1.3361941 -0.0299700
v -0.2010676 -1.3381115 -0.0292359
v -0.2015204 -1.3400932 -0.0283575
v -0.2015808 -1.3420718 -0.0273648
v -0.1872469 -1.4239798 0.0187085
v -0.1865300 -1.4257522 0.0198257
v -0.1854545 -1.4273288 0.0209488
v -0.1840571 -1.4286558 0.0220397
v -0.1823853 -1.4296880 0.0230611
v -0.1804960 -1.4303904 0.0239782
v -0.1784536 -1.4307389 0.0247599
v -0.1763277 -1.4307216 0.0253795
v -0.1935659 -1.3306932 -0.0316834
v -0.1952009 -1.3320426 -0.0323232
v -0.1966588 -1.3336630 -0.0327137
v -0.1978900 -1.3354992 -0.0328416
v -0.1988525 -1.3374886 -0.0327024
v -0.1995135 -1.3395636 -0.0323009
v -0.1998506 -1.3416535 -0.0316507
v -0.1998522 -1.3436870 -0.0307741
v -0.1855183 -1.4255950 0.0152991
v -0.1848603 -1.4273125 0.0165325
v -0.1839005 -1.4287809 0.0178839
v -0.1826717 -1.4299503 0.0193073
v -0.1812157 -1.4307809 0.0207544
v -0.1795821 -1.4312443 0.0221758
v -0.1778265 -1.4313248 0.0235230
v -0.1760087 -1.4310197 0.0247503
v -0.1930313 -1.3308879 -0.0321959
v -0.1941500 -1.3324255 -0.0333309
v -0.1951273 -1.3342210 -0.0341822
v -0.1959301 -1.3362133 -0.0347208
v -0.1965309 -1.3383345 -0.0349284
v -0.1969093 -1.3405125 -0.0347979
v -0.1970524 -1.3426730 -0.0343337
v -0.1969554 -1.3447425 -0.0335517
v -0.1826215 -1.4266505 0.0125215
v -0.1820621 -1.4283320 0.0138494
v -0.1812963 -1.4297297 0.0153868
v -0.1803501 -1.4307962 0.0170813
v -0.1792558 -1.4314950 0.0188751
v -0.1780506 -1.4318023 0.0207073
v -0.1767756 -1.4317078 0.0225154
v -0.1754741 -1.4312145 0.0242378
v -0.1923456 -1.3309559 -0.0325301
v -0.1928020 -1.3325591 -0.0339879
v -0.1931629 -1.3344157 -0.0351396
v -0.1934162 -1.3364625 -0.0359460
v -0.1935531 -1.3386297 -0.0363797
v -0.1935690 -1.3408436 -0.0364259
v -0.1934633 -1.3430288 -0.0360829
v -0.1932398 -1.3451109 -0.0353626
v -0.1789059 -1.4270188 0.0107107
v -0.1784730 -1.4286878 0.0121002
v -0.1779559 -1.4300609 0.0137588
v -0.1773723 -1.4310914 0.0156300
v -0.1767419 -1.4317442 0.0176499
v -0.1760862 -1.4319971 0.0197499
v -0.1754276 -1.4318414 0.0218584
v -0.1747885 -1.4312825 0.0239036
v -0.1915916 -1.3308889 -0.0326456
v -0.1913195 -1.3324274 -0.0342149
v -0.1910026 -1.3342238 -0.0354704
v -0.1906515 -1.3362168 -0.0363694
v -0.1902782 -1.3383387 -0.0368812
v -0.1898955 -1.3405172 -0.0369884
v -0.1895163 -1.3426781 -0.0366873
v -0.1891535 -1.3447477 -0.0359883
v -0.1748196 -1.4266557 0.0100849
v -0.1745259 -1.4283370 0.0114958
v -0.1742824 -1.4297345 0.0131963
v -0.1740974 -1.4308004 0.0151285
v -0.1739772 -1.4314985 0.0172266
v -0.1739259 -1.4318051 0.0194191
v -0.1739451 -1.4317097 0.0216314
v -0.1740344 -1.4312155 0.0237881
v -0.1908601 -1.3306950 -0.0325284
v -0.1898814 -1.3320462 -0.0339846
v -0.1889069 -1.3336682 -0.0351348
v -0.1879695 -1.3355058 -0.0359398
v -0.1871013 -1.3374965 -0.0363724
v -0.1863318 -1.3395725 -0.0364176
v -0.1856872 -1.3416630 -0.0360740
v -0.1851895 -1.3436969 -0.0353534
v -0.1708556 -1.4256049 0.0107199
v -0.1706969 -1.4273220 0.0121091
v -0.1707188 -1.4287898 0.0137671
v -0.1709205 -1.4299582 0.0156373
v -0.1712952 -1.4307876 0.0176561
v -0.1718301 -1.4312495 0.0197548
v -0.1725070 -1.4313284 0.0218617
v -0.1733029 -1.4310215 0.0239053
v -0.1902393 -1.3303975 -0.0321927
v -0.1886612 -1.3314614 -0.0333247
v -0.1871286 -1.3328160 -0.0341731
v -0.1856937 -1.3344153 -0.0347091
v -0.1844056 -1.3362048 -0.0349146
v -0.1833079 -1.3381235 -0.0347824
v -0.1824381 -1.3401061 -0.0343170
v -0.1818259 -1.3420851 -0.0335344
v -0.1674920 -1.4239931 0.0125388
v -0.1674478 -1.4257651 0.0138661
v -0.1676949 -1.4273408 0.0154024
v -0.1682248 -1.4286665 0.0170951
v -0.1690194 -1.4296970 0.0188868
v -0.1700518 -1.4303974 0.0207164
v -0.1712868 -1.4307437 0.0225216
v -0.1726822 -1.4307241 0.0242410
v -0.1898043 -1.3300325 -0.0316791
v -0.1878058 -1.3307437 -0.0323148
v -0.1858821 -1.3317701 -0.0327014
v -0.1840986 -1.3330768 -0.0328258
v -0.1825161 -1.3346193 -0.0326837
v -0.1811884 -1.3363449 -0.0322799
v -0.1801608 -1.3381951 -0.0316282
v -0.1794683 -1.3401067 -0.0307508
v -0.1651344 -1.4220147 0.0153224
v -0.1651705 -1.4238541 0.0165550
v -0.1655754 -1.4255622 0.0179048
v -0.1663353 -1.4270809 0.0193260
v -0.1674243 -1.4283585 0.0207702
v -0.1688054 -1.4293515 0.0221881
v -0.1704314 -1.4300260 0.0235315
v -0.1722471 -1.4303590 0.0247546
vn -0.1507819 0.8616109 -0.4846561
vn 0.0427224 0.8622494 -0.5046789
vn 0.2243411 0.8328192 -0.5060466
vn 0.3980733 0.7753187 -0.4903249
vn 0.5581395 0.6918111 -0.4581241
vn 0.6992607 0.5851933 -0.4105889
vn 0.8168150 0.4590914 -0.3493542
vn 0.9069710 0.3177393 -0.2764877
vn 0.9667967 0.1658433 -0.1944224
vn 0.9943431 0.0084357 -0.1058807
vn 0.9886990 -0.1492784 -0.0137902
vn 0.9500199 -0.3020796 0.0788045
vn 0.8795257 -0.4448926 0.1688344
vn 0.7794714 -0.5729428 0.2533000
vn 0.6530876 -0.6819061 0.3293640
vn 0.5044933 -0.7680505 0.3944426
vn 0.3385798 -0.8283645 0.4462914
vn 0.1507819 -0.8616109 0.4846561
vn 0.0370194 0.8943359 -0.4458620
vn 0.2134402 0.8941505 -0.3936218
vn 0.3823514 0.8637737 -0.3281803
vn 0.5381333 0.8043709 -0.2517937
vn 0.6756473 0.7180480 -0.1670565
vn 0.7903890 0.6077703 -0.0768148
vn 0.8786180 0.4772596 0.0159250
vn 0.9374646 0.3308729 0.1080891
vn 0.9650109 0.1734653 0.1966309
vn 0.9603461 0.0102420 0.2786224
vn 0.9235939 -0.1534007 0.3513439
vn 0.8559123 -0.3120380 0.4123668
vn 0.7594652 -0.4603830 0.4596304
vn 0.6373658 -0.5934510 0.4915086
vn 0.4935924 -0.7067192 0.5068674
vn 0.3328768 -0.7962780 0.5051083
vn 0.0090089 0.9205088 -0.3906180
vn 0.1599000 0.9441783 -0.2880265
vn 0.3051331 0.9359263 -0.1758856
vn 0.4398723 0.8961856 -0.0579974
vn 0.5596695 0.8264172 0.0616818
vn 0.6605972 0.7290473 0.1791685
vn 0.7393620 0.6073800 0.2905742
vn 0.7933992 0.4654872 0.3922238
vn 0.8209455 0.3080796 0.4807655
vn 0.8210901 0.1403624 0.5532716
vn 0.7938021 -0.0321237 0.6073272
vn 0.7399346 -0.2036688 0.6411052
vn 0.6612042 -0.3685683 0.6534267
vn 0.5601474 -0.5212985 0.6438034
vn 0.4400522 -0.6566914 0.6124627
vn 0.3048663 -0.7701051 0.5603523
vn -0.0379306 0.9376112 -0.3456102
vn 0.0701782 0.9768686 -0.2019971
vn 0.1757319 0.9830738 -0.0518097
vn 0.2752083 0.9561811 0.0998901
vn 0.3653161 0.8972301 0.2480370
vn 0.4430944 0.8082947 0.3877203
vn 0.5059992 0.6924060 0.5143333
vn 0.5519768 0.5534497 0.6237107
vn 0.5795231 0.3960421 0.7122525
vn 0.5877273 0.2253884 0.7770307
vn 0.5762993 0.0471237 0.8158790
vn 0.5455811 -0.1328559 0.8274603
vn 0.4965402 -0.3085728 0.8113142
vn 0.4307463 -0.4741510 0.7678792
vn 0.3503304 -0.6240012 0.6984921
vn 0.2579268 -0.7530026 0.6053601
vn -0.0981375 0.9435804 -0.3162673
vn -0.0449033 0.9882783 -0.1459101
vn 0.0097557 0.9995294 0.0290818
vn 0.0640021 0.9771211 0.2028252
vn 0.1160288 0.9219456 0.3695317
vn 0.1641146 0.8359541 0.5236862
vn 0.2066766 0.7220823 0.6602136
vn 0.2423167 0.5841508 0.7746292
vn 0.2698630 0.4267433 0.8631710
vn 0.2884047 0.2550646 0.9229110
vn 0.2973195 0.0747831 0.9518448
vn 0.2962938 -0.1081404 0.9489550
vn 0.2853341 -0.2876328 0.9142493
vn 0.2647700 -0.4576953 0.8487708
vn 0.2352489 -0.6125914 0.7545792
vn 0.1977200 -0.7470334 0.6347030
vn -0.1643499 0.9376964 -0.3061284
vn -0.1714641 0.9770313 -0.1265302
vn -0.1727765 0.9833085 0.0570324
vn -0.1682716 0.9564798 0.2383926
vn -0.1581246 0.8975826 0.4115119
vn -0.1426930 0.8086892 0.5706666
vn -0.1225030 0.6928293 0.7106198
vn -0.0982317 0.5538876 0.8267763
vn -0.0706854 0.3964800 0.9153181
vn -0.0407750 0.2258116 0.9733173
vn -0.0094881 0.0475183 0.9988253
vn 0.0221404 -0.1325033 0.9909352
vn 0.0530604 -0.3082741 0.9498167
vn 0.0822378 -0.4739163 0.8767213
vn 0.1086881 -0.6238384 0.7739590
vn 0.1315075 -0.7529175 0.6448419
vn -0.2285817 0.9206688 -0.3164164
vn -0.2942390 0.9444842 -0.1461951
vn -0.3498485 0.9363674 0.0286707
vn -0.3935972 0.8967470 0.2023021
vn -0.4240771 0.8270797 0.3689142
vn -0.4403230 0.7297888 0.5229952
vn -0.4418358 0.6081756 0.6594722
vn -0.4285931 0.4663102 0.7738623
vn -0.4010468 0.3089026 0.8624040
vn -0.3601077 0.1411579 0.9221697
vn -0.3071181 -0.0313822 0.9511538
vn -0.2438121 -0.2030062 0.9483376
vn -0.1722652 -0.3680070 0.9137262
vn -0.0948342 -0.5208573 0.8483597
vn -0.0140868 -0.6563855 0.7542941
vn 0.0672757 -0.7699450 0.6345539
vn -0.2830855 0.8945515 -0.3458905
vn -0.3984196 0.8945626 -0.2025328
vn -0.5001029 0.8643681 -0.0525823
vn -0.5847971 0.8051272 0.0989069
vn -0.6497510 0.7189406 0.2468765
vn -0.6928768 0.6087693 0.3864216
vn -0.7128055 0.4783315 0.5129399
vn -0.7089211 0.3319817 0.6222693
vn -0.6813748 0.1745742 0.7108110
vn -0.6310774 0.0113138 0.7756374
vn -0.5596719 -0.1524017 0.8145803
vn -0.4694860 -0.3111454 0.8262999
vn -0.3634652 -0.4596267 0.8103310
vn -0.2450886 -0.5928567 0.7671066
vn -0.1182674 -0.7063071 0.6979564
vn 0.0127719 -0.7960624 0.6050798
vn -0.3212875 0.8624945 -0.3909956
vn -0.4714402 0.8332878 -0.2887483
vn -0.6054168 0.7759946 -0.1769265
vn -0.7188098 0.6926712 -0.0593220
vn -0.8079266 0.5862084 0.0601184
vn -0.8698927 0.4602274 0.1774188
vn -0.9027291 0.3189581 0.2886969
vn -0.9054040 0.1671042 0.3902817
vn -0.8778577 0.0096967 0.4788234
vn -0.8210010 -0.1480595 0.5513944
vn -0.7366878 -0.3009436 0.6055775
vn -0.6276616 -0.4438775 0.6395417
vn -0.4974779 -0.5720828 0.6521020
vn -0.3504024 -0.6812302 0.6427624
vn -0.1912880 -0.7675819 0.6117409
vn -0.0254301 -0.8281193 0.5599747
vn -0.3385798 0.8283645 -0.4462914
vn -0.5044933 0.7680505 -0.3944426
vn -0.6530876 0.6819061 -0.3293640
vn -0.7794714 0.5729428 -0.2533000
vn -0.8795257 0.4448926 -0.1688344
vn -0.9500199 0.3020796 -0.0788045
vn -0.9886990 0.1492784 0.0137902
vn -0.9943431 -0.0084357 0.1058807
vn -0.9667967 -0.1658433 0.1944224
vn -0.9069710 -0.3177393 0.2764877
vn -0.8168150 -0.4590914 0.3493542
vn -0.6992607 -0.5851933 0.4105889
vn -0.5581395 -0.6918111 0.4581241
vn -0.3980733 -0.7753187 0.4903249
vn -0.2243411 -0.8328192 0.5060466
vn -0.0427224 -0.8622494 0.5046789
vn -0.3328768 0.7962780 -0.5051083
vn -0.4935924 0.7067192 -0.5068674
vn -0.6373658 0.5934510 -0.4915086
vn -0.7594652 0.4603830 -0.4596304
vn -0.8559123 0.3120380 -0.4123668
vn -0.9235939 0.1534007 -0.3513439
vn -0.9603461 -0.0102420 -0.2786224
vn -0.9650109 -0.1734653 -0.1966309
vn -0.9374646 -0.3308729 -0.1080891
vn -0.8786180 -0.4772596 -0.0159250
vn -0.7903890 -0.6077703 0.0768148
vn -0.6756473 -0.7180480 0.1670565
vn -0.5381333 -0.8043709 0.2517937
vn -0.3823514 -0.8637737 0.3281803
vn -0.2134402 -0.8941505 0.3936218
vn -0.0370194 -0.8943359 0.4458620
vn -0.3048663 0.7701051 -0.5603523
vn -0.4400522 0.6566914 -0.6124627
vn -0.5601474 0.5212985 -0.6438034
vn -0.6612042 0.3685683 -0.6534267
vn -0.7399346 0.2036688 -0.6411052
vn -0.7938021 0.0321237 -0.6073272
vn -0.8210901 -0.1403624 -0.5532716
vn -0.8209455 -0.3080796 -0.4807655
vn -0.7933992 -0.4654872 -0.3922238
vn -0.7393620 -0.6073800 -0.2905742
vn -0.6605972 -0.7290473 -0.1791685
vn -0.5596695 -0.8264172 -0.0616818
vn -0.4398723 -0.8961856 0.0579974
vn -0.3051331 -0.9359263 0.1758856
vn -0.1599000 -0.9441783 0.2880265
vn -0.0090089 -0.9205088 0.3906180
vn -0.2579268 0.7530026 -0.6053601
vn -0.3503304 0.6240012 -0.6984921
vn -0.4307463 0.4741510 -0.7678792
vn -0.4965402 0.3085728 -0.8113142
vn -0.5455811 0.1328559 -0.8274603
vn -0.5762993 -0.0471237 -0.8158790
vn -0.5877273 -0.2253884 -0.7770307
vn -0.5795231 -0.3960421 -0.7122525
vn -0.5519768 -0.5534497 -0.6237107
vn -0.5059992 -0.6924060 -0.5143333
vn -0.4430944 -0.8082947 -0.3877203
vn -0.3653161 -0.8972301 -0.2480370
vn -0.2752083 -0.9561811 -0.0998901
vn -0.1757319 -0.9830738 0.0518097
vn -0.0701782 -0.9768686 0.2019971
vn 0.0379306 -0.9376112 0.3456102
vn -0.1977200 0.7470334 -0.6347030
vn -0.2352489 0.6125914 -0.7545792
vn -0.2647700 0.4576953 -0.8487708
vn -0.2853341 0.2876328 -0.9142493
vn -0.2962938 0.1081404 -0.9489550
vn -0.2973195 -0.0747831 -0.9518448
vn -0.2884047 -0.2550646 -0.9229110
vn -0.2698630 -0.4267433 -0.8631710
vn -0.2423167 -0.5841508 -0.7746292
vn -0.2066766 -0.7220823 -0.6602136
vn -0.1641146 -0.8359541 -0.5236862
vn -0.1160288 -0.9219456 -0.3695317
vn -0.0640021 -0.9771211 -0.2028252
vn -0.0097557 -0.9995294 -0.0290818
vn 0.0449033 -0.9882783 0.1459101
vn 0.0981375 -0.9435804 0.3162673
vn -0.1315075 0.7529175 -0.6448419
vn -0.1086881 0.6238384 -0.7739590
vn -0.0822378 0.4739163 -0.8767213
vn -0.0530604 0.3082741 -0.9498167
vn -0.0221404 0.1325033 -0.9909352
vn 0.0094881 -0.0475183 -0.9988253
vn 0.0407750 -0.2258116 -0.9733173
vn 0.0706854 -0.3964800 -0.9153181
vn 0.0982317 -0.5538876 -0.8267763
vn 0.1225030 -0.6928293 -0.7106198
vn 0.1426930 -0.8086892 -0.5706666
vn 0.1581246 -0.8975826 -0.4115119
vn 0.1682716 -0.9564798 -0.2383926
vn 0.1727765 -0.9833085 -0.0570324
vn 0.1714641 -0.9770313 0.1265302
vn 0.1643499 -0.9376964 0.3061284
vn -0.0672757 0.7699450 -0.6345539
vn 0.0140868 0.6563855 -0.7542941
vn 0.0948342 0.5208573 -0.8483597
vn 0.1722652 0.3680070 -0.9137262
vn 0.2438121 0.2030062 -0.9483376
vn 0.3071181 0.0313822 -0.9511538
vn 0.3601077 -0.1411579 -0.9221697
vn 0.4010468 -0.3089026 -0.8624040
vn 0.4285931 -0.4663102 -0.7738623
vn 0.4418358 -0.6081756 -0.6594722
vn 0.4403230 -0.7297888 -0.5229952
vn 0.4240771 -0.8270797 -0.3689142
vn 0.3935972 -0.8967470 -0.2023021
vn 0.3498485 -0.9363674 -0.0286707
vn 0.2942390 -0.9444842 0.1461951
vn 0.2285817 -0.9206688 0.3164164
vn -0.0127719 0.7960624 -0.6050798
vn 0.1182674 0.7063071 -0.6979564
vn 0.2450886 0.5928567 -0.7671066
vn 0.3634652 0.4596267 -0.8103310
vn 0.4694860 0.3111454 -0.8262999
vn 0.5596719 0.1524017 -0.8145803
vn 0.6310774 -0.0113138 -0.7756374
vn 0.6813748 -0.1745742 -0.7108110
vn 0.7089211 -0.3319817 -0.6222693
vn 0.7128055 -0.4783315 -0.5129399
vn 0.6928768 -0.6087693 -0.3864216
vn 0.6497510 -0.7189406 -0.2468765
vn 0.5847971 -0.8051272 -0.0989069
vn 0.5001029 -0.8643681 0.0525823
vn 0.3984196 -0.8945626 0.2025328
vn 0.2830855 -0.8945515 0.3458905
vn 0.0254301 0.8281193 -0.5599747
vn 0.1912880 0.7675819 -0.6117409
vn 0.3504024 0.6812302 -0.6427624
vn 0.4974779 0.5720828 -0.6521020
vn 0.6276616 0.4438775 -0.6395417
vn 0.7366878 0.3009436 -0.6055775
vn 0.8210010 0.1480595 -0.5513944
vn 0.8778577 -0.0096967 -0.4788234
vn 0.9054040 -0.1671042 -0.3902817
vn 0.9027291 -0.3189581 -0.2886969
vn 0.8698927 -0.4602274 -0.1774188
vn 0.8079266 -0.5862084 -0.0601184
vn 0.7188098 -0.6926712 0.0593220
vn 0.6054168 -0.7759946 0.1769265
vn 0.4714402 -0.8332878 0.2887483
vn 0.3212875 -0.8624945 0.3909956
f 2//2 1//1 19//19
f 2//2 19//19 3//3
f 3//3 19//19 20//20
f 3//3 20//20 4//4
f 4//4 20//20 21//21
f 4//4 21//21 5//5
f 5//5 21//21 22//22
f 5//5 22//22 6//6
f 6//6 22//22 23//23
f 6//6 23//23 7//7
f 7//7 23//23 24//24
f 7//7 24//24 8//8
f 8//8 24//24 25//25
f 8//8 25//25 9//9
f 9//9 25//25 26//26
f 9//9 26//26 10//10
f 10//10 26//26 27//27
f 10//10 27//27 11//11
f 11//11 27//27 28//28
f 11//11 28//28 12//12
f 12//12 28//28 29//29
f 12//12 29//29 13//13
f 13//13 29//29 30//30
f 13//13 30//30 14//14
f 14//14 30//30 31//31
f 14//14 31//31 15//15
f 15//15 31//31 32//32
f 15//15 32//32 16//16
f 16//16 32//32 33//33
f 16//16 33//33 17//17
f 17//17 33//33 34//34
f 17//17 34//34 18//18
f 19//19 1//1 35//35
f 19//19 35//35 20//20
f 20//20 35//35 36//36
f 20//20 36//36 21//21
f 21//21 36//36 37//37
f 21//21 37//37 22//22
f 22//22 37//37 38//38
f 22//22 38//38 23//23
f 23//23 38//38 39//39
f 23//23 39//39 24//24
f 24//24 39//39 40//40
f 24//24 40//40 25//25
f 25//25 40//40 41//41
f 25//25 41//41 26//26
f 26//26 41//41 42//42
f 26//26 42//42 27//27
f 27//27 42//42 43//43
f 27//27 43//43 28//28
f 28//28 43//43 44//44
f 28//28 44//44 29//29
f 29//29 44//44 45//45
f 29//29 45//45 30//30
f 30//30 45//45 46//46
f 30//30 46//46 31//31
f 31//31 46//46 47//47
f 31//31 47//47 32//32
f 32//32 47//47 48//48
f 32//32 48//48 33//33
f 33//33 48//48 49//49
f 33//33 49//49 34//34
f 34//34 49//49 50//50
f 34//34 50//50 18//18
f 35//35 1//1 51//51
f 35//35 51//51 36//36
f 36//36 51//51 52//52
f 36//36 52//52 37//37
f 37//37 52//52 53//53
f 37//37 53//53 38//38
f 38//38 53//53 54//54
f 38//38 54//54 39//39
f 39//39 54//54 55//55
f 39//39 55//55 40//40
f 40//40 55//55 56//56
f 40//40 56//56 41//41
f 41//41 56//56 57//57
f 41//41 57//57 42//42
f 42//42 57//57 58//58
f 42//42 58//58 43//43
f 43//43 58//58 59//59
f 43//43 59//59 44//44
f 44//44 59//59 60//60
f 44//44 60//60 45//45
f 45//45 60//60 61//61
f 45//45 61//61 46//46
f 46//46 61//61 62//62
f 46//46 62//62 47//47
f 47//47 62//62 63//63
f 47//47 63//63 48//48
f 48//48 63//63 64//64
f 48//48 64//64 49//49
f 49//49 64//64 65//65
f 49//49 65//65 50//50
f 50//50 65//65 66//66
f 50//50 66//66 18//18
f 51//51 1//1 67//67
f 51//51 67//67 52//52
f 52//52 67//67 68//68
f 52//52 68//68 53//53
f 53//53 68//68 69//69
f 53//53 69//69 54//54
f 54//54 69//69 70//70
f 54//54 70//70 55//55
f 55//55 70//70 71//71
f 55//55 71//71 56//56
f 56//56 71//71 72//72
f 56//56 72//72 57//57
f 57//57 72//72 73//73
f 57//57 73//73 58//58
f 58//58 73//73 74//74
f 58//58 74//74 59//59
f 59//59 74//74 75//75
f 59//59 75//75 60//60
f 60//60 75//75 76//76
f 60//60 76//76 61//61
f 61//61 76//76 77//77
f 61//61 77//77 62//62
f 62//62 77//77 78//78
f 62//62 78//78 63//63
f 63//63 78//78 79//79
f 63//63 79//79 64//64
f 64//64 79//79 80//80
f 64//64 80//80 65//65
f 65//65 80//80 81//81
f 65//65 81//81 66//66
f 66//66 81//81 82//82
f 66//66 82//82 18//18
f 67//67 1//1 83//83
f 67//67 83//83 68//68
f 68//68 83//83 84//84
f 68//68 84//84 69//69
f 69//69 84//84 85//85
f 69//69 85//85 70//70
f 70//70 85//85 86//86
f 70//70 86//86 71//71
f 71//71 86//86 87//87
f 71//71 87//87 72//72
f 72//72 87//87 88//88
f 72//72 88//88 73//73
f 73//73 88//88 89//89
f 73//73 89//89 74//74
f 74//74 89//89 90//90
f 74//74 90//90 75//75
f 75//75 90//90 91//91
f 75//75 91//91 76//76
f 76//76 91//91 92//92
f 76//76 92//92 77//77
f 77//77 92//92 93//93
f 77//77 93//93 78//78
f 78//78 93//93 94//94
f 78//78 94//94 79//79
f 79//79 94//94 95//95
f 79//79 95//95 80//80
f 80//80 95//95 96//96
f 80//80 96//96 81//81
f 81//81 96//96 97//97
f 81//81 97//97 82//82
f 82//82 97//97 98//98
f 82//82 98//98 18//18
f 83//83 1//1 99//99
f 83//83 99//99 84//84
f 84//84 99//99 100//100
f 84//84 100//100 85//85
f 85//85 100//100 101//101
f 85//85 101//101 86//86
f 86//86 101//101 102//102
f 86//86 102//102 87//87
f 87//87 102//102 103//103
f 87//87 103//103 88//88
f 88//88 103//103 104//104
f 88//88 104//104 89//89
f 89//89 104//104 105//105
f 89//89 105//105 90//90
f 90//90 105//105 106//106
f 90//90 106//106 91//91
f 91//91 106//106 107//107
f 91//91 107//107 92//92
f 92//92 107//107 108//108
f 92//92 108//108 93//93
f 93//93 108//108 109//109
f 93//93 109//109 94//94
f 94//94 109//109 110//110
f 94//94 110//110 95//95
f 95//95 110//110 111//111
f 95//95 111//111 96//96
f 96//96 111//111 112//112
f 96//96 112//112 97//97
f 97//97 112//112 113//113
f 97//97 113//113 98//98
f 98//98 113//113 114//114
f 98//98 114//114 18//18
f 99//99 1//1 115//115
f 99//99 115//115 100//100
f 100//100 115//115 116//116
f 100//100 116//116 101//101
f 101//101 116//116 117//117
f 101//101 117//117 102//102
f 102//102 117//117 118//118
f 102//102 118//118 103//103
f 103//103 118//118 119//119
f 103//103 119//119 104//104
f 104//104 119//119 120//120
f 104//104 120//120 105//105
f 105//105 120//120 121//121
f 105//105 121//121 106//106
f 106//106 121//121 122//122
f 106//106 122//122 107//107
f 107//107 122//122 123//123
f 107//107 123//123 108//108
f 108//108 123//123 124//124
f 108//108 124//124 109//109
f 109//109 124//124 125//125
f 109//109 125//125 110//110
f 110//110 125//125 126//126
f 110//110 126//126 111//111
f 111//111 126//126 127//127
f 111//111 127//127 112//112
f 112//112 127//127 128//128
f 112//112 128//128 113//113
f 113//113 128//128 129//129
f 113//113 129//129 114//114
f 114//114 129//129 130//130
f 114//114 130//130 18//18
f 115//115 1//1 131//131
f 115//115 131//131 116//116
f 116//116 131//131 132//132
f 116//116 132//132 117//117
f 117//117 132//132 133//133
f 117//117 133//133 118//118
f 118//118 133//133 134//134
f 118//118 134//134 119//119
f 119//119 134//134 135//135
f 119//119 135//135 120//120
f 120//120 135//135 136//136
f 120//120 136//136 121//121
f 121//121 136//136 137//137
f 121//121 137//137 122//122
f 122//122 137//137 138//138
f 122//122 138//138 123//123
f 123//123 138//138 139//139
f 123//123 139//139 124//124
f 124//124 139//139 140//140
f 124//124 140//140 125//125
f 125//125 140//140 141//141
f 125//125 141//141 126//126
f 126//126 141//141 142//142
f 126//126 142//142 127//127
f 127//127 142//142 143//143
f 127//127 143//143 128//128
f 128//128 143//143 144//144
f 128//128 144//144 129//129
f 129//129 144//144 145//145
f 129//129 145//145 130//130
f 130//130 145//145 146//146
f 130//130 146//146 18//18
f 131//131 1//1 147//147
f 131//131 147//147 132//132
f 132//132 147//147 148//148
f 132//132 148//148 133//133
f 133//133 148//148 149//149
f 133//133 149//149 134//134
f 134//134 149//149 150//150
f 134//134 150//150 135//135
f 135//135 150//150 151//151
f 135//135 151//151 136//136
f 136//136 151//151 152//152
f 136//136 152//152 137//137
f 137//137 152//152 153//153
f 137//137 153//153 138//138
f 138//138 153//153 154//154
f 138//138 154//154 139//139
f 139//139 154//154 155//155
f 139//139 155//155 140//140
f 140//140 155//155 156//156
f 140//140 156//156 141//141
f 141//141 156//156 157//157
f 141//141 157//157 142//142
f 142//142 157//157 158//158
f 142//142 158//158 143//143
f 143//143 158//158 159//159
f 143//143 159//159 144//144
f 144//144 159//159 160//160
f 144//144 160//160 145//145
f 145//145 160//160 161//161
f 145//145 161//161 146//146
f 146//146 161//161 162//162
f 146//146 162//162 18//18
f 147//147 1//1 163//163
f 147//147 163//163 148//148
f 148//148 163//163 164//164
f 148//148 164//164 149//149
f 149//149 164//164 165//165
f 149//149 165//165 150//150
f 150//150 165//165 166//166
f 150//150 166//166 151//151
f 151//151 166//166 167//167
f 151//151 167//167 152//152
f 152//152 167//167 168//168
f 152//152 168//168 153//153
f 153//153 168//168 169//169
f 153//153 169//169 154//154
f 154//154 169//169 170//170
f 154//154 170//170 155//155
f 155//155 170//170 171//171
f 155//155 171//171 156//156
f 156//156 171//171 172//172
f 156//156 172//172 157//157
f 157//157 172//172 173//173
f 157//157 173//173 158//158
f 158//158 173//173 174//174
f 158//158 174//174 159//159
f 159//159 174//174 175//175
f 159//159 175//175 160//160
f 160//160 175//175 176//176
f 160//160 176//176 161//161
f 161//161 176//176 177//177
f 161//161 177//177 162//162
f 162//162 177//177 178//178
f 162//162 178//178 18//18
f 163//163 1//1 179//179
f 163//163 179//179 164//164
f 164//164 179//179 180//180
f 164//164 180//180 165//165
f 165//165 180//180 181//181
f 165//165 181//181 166//166
f 166//166 181//181 182//182
f 166//166 182//182 167//167
f 167//167 182//182 183//183
f 167//167 183//183 168//168
f 168//168 183//183 184//184
f 168//168 184//184 169//169
f 169//169 184//184 185//185
f 169//169 185//185 170//170
f 170//170 185//185 186//186
f 170//170 186//186 171//171
f 171//171 186//186 187//187
f 171//171 187//187 172//172
f 172//172 187//187 188//188
f 172//172 188//188 173//173
f 173//173 188//188 189//189
f 173//173 189//189 174//174
f 174//174 189//189 190//190
f 174//174 190//190 175//175
f 175//175 190//190 191//191
f 175//175 191//191 176//176
f 176//176 191//191 192//192
f 176//176 192//192 177//177
f 177//177 192//192 193//193
f 177//177 193//193 178//178
f 178//178 193//193 194//194
f 178//178 194//194 18//18
f 179//179 1//1 195//195
f 179//179 195//195 180//180
f 180//180 195//195 196//196
f 180//180 196//196 181//181
f 181//181 196//196 197//197
f 181//181 197//197 182//182
f 182//182 197//197 198//198
f 182//182 198//198 183//183
f 183//183 198//198 199//199
f 183//183 199//199 184//184
f 184//184 199//199 200//200
f 184//184 200//200 185//185
f 185//185 200//200 201//201
f 185//185 201//201 186//186
f 186//186 201//201 202//202
f 186//186 202//202 187//187
f 187//187 202//202 203//203
f 187//187 203//203 188//188
f 188//188 203//203 204//204
f 188//188 204//204 189//189
f 189//189 204//204 205//205
f 189//189 205//205 190//190
f 190//190 205//205 206//206
f 190//190 206//206 191//191
f 191//191 206//206 207//207
f 191//191 207//207 192//192
f 192//192 207//207 208//208
f 192//192 208//208 193//193
f 193//193 208//208 209//209
f 193//193 209//209 194//194
f 194//194 209//209 210//210
f 194//194 210//210 18//18
f 195//195 1//1 211//211
f 195//195 211//211 196//196
f 196//196 211//211 212//212
f 196//196 212//212 197//197
f 197//197 212//212 213//213
f 197//197 213//213 198//198
f 198//198 213//213 214//214
f 198//198 214//214 199//199
f 199//199 214//214 215//215
f 199//199 215//215 200//200
f 200//200 215//215 216//216
f 200//200 216//216 201//201
f 201//201 216//216 217//217
f 201//201 217//217 202//202
f 202//202 217//217 218//218
f 202//202 218//218 203//203
f 203//203 218//218 219//219
f 203//203 219//219 204//204
f 204//204 219//219 220//220
f 204//204 220//220 205//205
f 205//205 220//220 221//221
f 205//205 221//221 206//206
f 206//206 221//221 222//222
f 206//206 222//222 207//207
f 207//207 222//222 223//223
f 207//207 223//223 208//208
f 208//208 223//223 224//224
f 208//208 224//224 209//209
f 209//209 224//224 225//225
f 209//209 225//225 210//210
f 210//210 225//225 226//226
f 210//210 226//226 18//18
f 211//211 1//1 227//227
f 211//211 227//227 212//212
f 212//212 227//227 228//228
f 212//212 228//228 213//213
f 213//213 228//228 229//229
f 213//213 229//229 214//214
f 214//214 229//229 230//230
f 214//214 230//230 215//215
f 215//215 230//230 231//231
f 215//215 231//231 216//216
f 216//216 231//231 232//232
f 216//216 232//232 217//217
f 217//217 232//232 233//233
f 217//217 233//233 218//218
f 218//218 233//233 234//234
f 218//218 234//234 219//219
f 219//219 234//234 235//235
f 219//219 235//235 220//220
f 220//220 235//235 236//236
f 220//220 236//236 221//221
f 221//221 236//236 237//237
f 221//221 237//237 222//222
f 222//222 237//237 238//238
f 222//222 238//238 223//223
f 223//223 238//238 239//239
f 223//223 239//239 224//224
f 224//224 239//239 240//240
f 224//224 240//240 225//225
f 225//225 240//240 241//241
f 225//225 241//241 226//226
f 226//226 241//241 242//242
f 226//226 242//242 18//18
f 227//227 1//1 243//243
f 227//227 243//243 228//228
f 228//228 243//243 244//244
f 228//228 244//244 229//229
f 229//229 244//244 245//245
f 229//229 245//245 230//230
f 230//230 245//245 246//246
f 230//230 246//246 231//231
f 231//231 246//246 247//247
f 231//231 247//247 232//232
f 232//232 247//247 248//248
f 232//232 248//248 233//233
f 233//233 248//248 249//249
f 233//233 249//249 234//234
f 234//234 249//249 250//250
f 234//234 250//250 235//235
f 235//235 250//250 251//251
f 235//235 251//251 236//236
f 236//236 251//251 252//252
f 236//236 252//252 237//237
f 237//237 252//252 253//253
f 237//237 253//253 238//238
f 238//238 253//253 254//254
f 238//238 254//254 239//239
f 239//239 254//254 255//255
f 239//239 255//255 240//240
f 240//240 255//255 256//256
f 240//240 256//256 241//241
f 241//241 256//256 257//257
f 241//241 257//257 242//242
f 242//242 257//257 258//258
f 242//242 258//258 18//18
f 243//243 1//1 259//259
f 243//243 259//259 244//244
f 244//244 259//259 260//260
f 244//244 260//260 245//245
f 245//245 260//260 261//261
f 245//245 261//261 246//246
f 246//246 261//261 262//262
f 246//246 262//262 247//247
f 247//247 262//262 263//263
f 247//247 263//263 248//248
f 248//248 263//263 264//264
f 248//248 264//264 249//249
f 249//249 264//264 265//265
f 249//249 265//265 250//250
f 250//250 265//265 266//266
f 250//250 266//266 251//251
f 251//251 266//266 267//267
f 251//251 267//267 252//252
f 252//252 267//267 268//268
f 252//252 268//268 253//253
f 253//253 268//268 269//269
f 253//253 269//269 254//254
f 254//254 269//269 270//270
f 254//254 270//270 255//255
f 255//255 270//270 271//271
f 255//255 271//271 256//256
f 256//256 271//271 272//272
f 256//256 272//272 257//257
f 257//257 272//272 273//273
f 257//257 273//273 258//258
f 258//258 273//273 274//274
f 258//258 274//274 18//18
f 259//259 1//1 275//275
f 259//259 275//275 260//260
f 260//260 275//275 276//276
f 260//260 276//276 261//261
f 261//261 276//276 277//277
f 261//261 277//277 262//262
f 262//262 277//277 278//278
f 262//262 278//278 263//263
f 263//263 278//278 279//279
f 263//263 279//279 264//264
f 264//264 279//279 280//280
f 264//264 280//280 265//265
f 265//265 280//280 281//281
f 265//265 281//281 266//266
f 266//266 281//281 282//282
f 266//266 282//282 267//267
f 267//267 282//282 283//283
f 267//267 283//283 268//268
f 268//268 283//283 284//284
f 268//268 284//284 269//269
f 269//269 284//284 285//285
f 269//269 285//285 270//270
f 270//270 285//285 286//286
f 270//270 286//286 271//271
f 271//271 286//286 287//287
f 271//271 287//287 272//272
f 272//272 287//287 288//288
f 272//272 288//288 273//273
f 273//273 288//288 289//289
f 273//273 289//289 274//274
f 274//274 289//289 290//290
f 274//274 290//290 18//18
f 275//275 1//1 2//2
f 275//275 2//2 276//276
f 276//276 2//2 3//3
f 276//276 3//3 277//277
f 277//277 3//3 4//4
f 277//277 4//4 278//278
f 278//278 4//4 5//5
f 278//278 5//5 279//279
f 279//279 5//5 6//6
f 279//279 6//6 280//280
f 280//280 6//6 7//7
f 280//280 7//7 281//281
f 281//281 7//7 8//8
f 281//281 8//8 282//282
f 282//282 8//8 9//9
f 282//282 9//9 283//283
f 283//283 9//9 10//10
f 283//283 10//10 284//284
f 284//284 10//10 11//11
f 284//284 11//11 285//285
f 285//285 11//11 12//12
f 285//285 12//12 286//286
f 286//286 12//12 13//13
f 286//286 13//13 287//287
f 287//287 13//13 14//14
f 287//287 14//14 288//288
f 288//288 14//14 15//15
f 288//288 15//15 289//289
f 289//289 15//15 16//16
f 289//289 16//16 290//290
f 290//290 16//16 17//17
f 290//290 17//17 18//18

