# https://github.com/mikedh/trimesh
v -0.1877510 -1.3300043 0.0312473
v -0.1857458 -1.3308926 0.0315542
v -0.1838856 -1.3320910 0.0316379
v -0.1822335 -1.3335587 0.0314955
v -0.1808460 -1.3352458 0.0311320
v -0.1797701 -1.3370948 0.0305596
v -0.1790426 -1.3390427 0.0297979
v -0.1786883 -1.3410232 0.0288728
v -0.1787192 -1.3429689 0.0278159
v -0.1971342 -1.4248134 -0.0233370
v -0.1979193 -1.4264941 -0.0245465
v -0.1990476 -1.4279536 -0.0257714
v -0.2004808 -1.4291422 -0.0269701
v -0.2021701 -1.4300196 -0.0281016
v -0.2040578 -1.4305557 -0.0291276
v -0.2060799 -1.4307323 -0.0300130
v -0.2081673 -1.4305435 -0.0307277
v -0.2102490 -1.4299957 -0.0312473
v -0.1861147 -1.3311866 0.0321574
v -0.1846107 -1.3326691 0.0328239
v -0.1832902 -1.3344012 0.0332238
v -0.1821982 -1.3363239 0.0333438
v -0.1813719 -1.3383718 0.0331796
v -0.1808394 -1.3404752 0.0327368
v -0.1806189 -1.3425624 0.0320306
v -0.1807178 -1.3445623 0.0310849
v -0.1991329 -1.4264069 -0.0200679
v -0.1998498 -1.4280333 -0.0213887
v -0.2008444 -1.4293861 -0.0228325
v -0.2020826 -1.4304193 -0.0243501
v -0.2035223 -1.4310977 -0.0258898
v -0.2051145 -1.4313981 -0.0273993
v -0.2068050 -1.4313104 -0.0288270
v -0.2085361 -1.4308376 -0.0301244
v -0.1866855 -1.3313586 0.0326381
v -0.1857328 -1.3330072 0.0337688
v -0.1849255 -1.3348939 0.0346009
v -0.1842910 -1.3369545 0.0351060
v -0.1838509 -1.3391187 0.0352670
v -0.1836202 -1.3413130 0.0350784
v -0.1836067 -1.3434626 0.0345465
v -0.1838110 -1.3454943 0.0336896
v -0.2022260 -1.4273389 -0.0174632
v -0.2028377 -1.4289335 -0.0188728
v -0.2036251 -1.4302239 -0.0204909
v -0.2045616 -1.4311662 -0.0222626
v -0.2056151 -1.4317282 -0.0241276
v -0.2067498 -1.4318908 -0.0260222
v -0.2079271 -1.4316485 -0.0278820
v -0.2091069 -1.4310096 -0.0296437
v -0.1873894 -1.3313878 0.0329382
v -0.1871167 -1.3330645 0.0343587
v -0.1869423 -1.3349774 0.0354606
v -0.1868719 -1.3370614 0.0362062
v -0.1869081 -1.3392454 0.0365702
v -0.1870495 -1.3414551 0.0365403
v -0.1872915 -1.3436153 0.0361173
v -0.1876257 -1.3456523 0.0353157
v -0.2060407 -1.4274969 -0.0158371
v -0.2065224 -1.4290861 -0.0173020
v -0.2070545 -1.4303660 -0.0190291
v -0.2076188 -1.4312928 -0.0209594
v -0.2081960 -1.4318351 -0.0230274
v -0.2087666 -1.4319744 -0.0251625
v -0.2093111 -1.4317059 -0.0272921
v -0.2098109 -1.4310387 -0.0293437
v -0.1881416 -1.3312706 0.0330215
v -0.1885955 -1.3328342 0.0345225
v -0.1890972 -1.3346417 0.0356992
v -0.1896297 -1.3366318 0.0365116
v -0.1901747 -1.3387365 0.0369320
v -0.1907139 -1.3408843 0.0369461
v -0.1912287 -1.3430019 0.0365533
v -0.1917016 -1.3450173 0.0357671
v -0.2101167 -1.4268619 -0.0153857
v -0.2104596 -1.4284728 -0.0168660
v -0.2107188 -1.4297952 -0.0186232
v -0.2108854 -1.4307840 -0.0205976
v -0.2109538 -1.4314055 -0.0227220
v -0.2109215 -1.4316387 -0.0249239
v -0.2107898 -1.4314755 -0.0271284
v -0.2105630 -1.4309215 -0.0292604
v -0.1888513 -1.3310212 0.0328780
v -0.1899907 -1.3323439 0.0342403
v -0.1911304 -1.3339273 0.0352881
v -0.1922316 -1.3357174 0.0359854
v -0.1932568 -1.3376534 0.0363087
v -0.1941712 -1.3396694 0.0362469
v -0.1949434 -1.3416965 0.0358020
v -0.1955474 -1.3436660 0.0349894
v -0.2139624 -1.4255105 -0.0161635
v -0.2141744 -1.4271674 -0.0176173
v -0.2141761 -1.4285803 -0.0193224
v -0.2139675 -1.4297009 -0.0212210
v -0.2135557 -1.4304912 -0.0232482
v -0.2129547 -1.4309242 -0.0253350
v -0.2121850 -1.4309852 -0.0274105
v -0.2112727 -1.4306722 -0.0294039
v -0.1894328 -1.3306697 0.0325249
v -0.1911340 -1.3316529 0.0335463
v -0.1927966 -1.3329202 0.0342766
v -0.1943639 -1.3344287 0.0346911
v -0.1957826 -1.3361269 0.0347755
v -0.1970044 -1.3379570 0.0345270
v -0.1979877 -1.3398566 0.0339541
v -0.1986990 -1.3417612 0.0330763
v -0.2171140 -1.4236057 -0.0180766
v -0.2172187 -1.4253275 -0.0194652
v -0.2170094 -1.4268679 -0.0210423
v -0.2164933 -1.4281743 -0.0227542
v -0.2156880 -1.4292025 -0.0245425
v -0.2146209 -1.4299172 -0.0263465
v -0.2133283 -1.4302942 -0.0281046
v -0.2118543 -1.4303207 -0.0297569
v -0.1898162 -1.3302585 0.0320050
v -0.1918877 -1.3308444 0.0325241
v -0.1938948 -1.3317421 0.0327870
v -0.1957694 -1.3329210 0.0327847
v -0.1974475 -1.3343409 0.0325173
v -0.1988720 -1.3359536 0.0319939
v -0.1999943 -1.3377041 0.0312324
v -0.2007763 -1.3395327 0.0302586
v -0.2191913 -1.4213773 -0.0208943
v -0.2192253 -1.4231749 -0.0221869
v -0.2188769 -1.4248645 -0.0235754
v -0.2181582 -1.4263884 -0.0250124
v -0.2170935 -1.4276947 -0.0264489
v -0.2157192 -1.4287390 -0.0278361
v -0.2140820 -1.4294857 -0.0291268
v -0.2122376 -1.4299094 -0.0302769
v -0.1899551 -1.3298371 0.0313808
v -0.1921607 -1.3300160 0.0312970
v -0.1942927 -1.3305349 0.0309987
v -0.1962786 -1.3313761 0.0304962
v -0.1980506 -1.3325110 0.0298065
v -0.1995485 -1.3339009 0.0289531
v -0.2007212 -1.3354985 0.0279651
v -0.2015288 -1.3372494 0.0268762
v -0.2199439 -1.4190940 -0.0242767
v -0.2199522 -1.4209694 -0.0254542
v -0.2195534 -1.4228118 -0.0266162
v -0.2187613 -1.4245584 -0.0277232
v -0.2176026 -1.4261499 -0.0287374
v -0.2161170 -1.4275319 -0.0296244
v -0.2143550 -1.4286574 -0.0303539
v -0.2123765 -1.4294881 -0.0309011
v -0.1898327 -1.3294565 0.0307277
v -0.1919201 -1.3292677 0.0300130
v -0.1939422 -1.3294443 0.0291276
v -0.1958299 -1.3299804 0.0281016
v -0.1975192 -1.3308578 0.0269701
v -0.1989524 -1.3320464 0.0257714
v -0.2000807 -1.3335059 0.0245465
v -0.2008658 -1.3351866 0.0233370
v -0.2192808 -1.4170311 -0.0278159
v -0.2193117 -1.4189768 -0.0288728
v -0.2189574 -1.4209573 -0.0297979
v -0.2182299 -1.4229052 -0.0305596
v -0.2171540 -1.4247542 -0.0311320
v -0.2157665 -1.4264413 -0.0314955
v -0.2141144 -1.4279090 -0.0316379
v -0.2122542 -1.4291074 -0.0315542
v -0.1894639 -1.3291624 0.0301244
v -0.1911950 -1.3286896 0.0288270
v -0.1928855 -1.3286019 0.0273993
v -0.1944777 -1.3289023 0.0258898
v -0.1959174 -1.3295807 0.0243501
v -0.1971556 -1.3306139 0.0228325
v -0.1981502 -1.3319667 0.0213887
v -0.1988671 -1.3335931 0.0200679
v -0.2172822 -1.4154377 -0.0310849
v -0.2173811 -1.4174376 -0.0320306
v -0.2171606 -1.4195248 -0.0327368
v -0.2166281 -1.4216282 -0.0331796
v -0.2158018 -1.4236761 -0.0333438
v -0.2147098 -1.4255988 -0.0332238
v -0.2133893 -1.4273309 -0.0328239
v -0.2118853 -1.4288134 -0.0321574
v -0.1888931 -1.3289904 0.0296437
v -0.1900729 -1.3283515 0.0278820
v -0.1912502 -1.3281092 0.0260222
v -0.1923849 -1.3282718 0.0241276
v -0.1934384 -1.3288338 0.0222626
v -0.1943749 -1.3297761 0.0204909
v -0.1951623 -1.3310665 0.0188728
v -0.1957740 -1.3326611 0.0174632
v -0.2141890 -1.4145057 -0.0336896
v -0.2143933 -1.4165374 -0.0345465
v -0.2143798 -1.4186870 -0.0350784
v -0.2141491 -1.4208813 -0.0352670
v -0.2137090 -1.4230455 -0.0351060
v -0.2130745 -1.4251061 -0.0346009
v -0.2122672 -1.4269928 -0.0337688
v -0.2113145 -1.4286414 -0.0326381
v -0.1881891 -1.3289613 0.0293437
v -0.1886889 -1.3282941 0.0272921
v -0.1892334 -1.3280256 0.0251625
v -0.1898040 -1.3281649 0.0230274
v -0.1903812 -1.3287072 0.0209594
v -0.1909455 -1.3296340 0.0190291
v -0.1914776 -1.3309139 0.0173020
v -0.1919593 -1.3325031 0.0158371
v -0.2103743 -1.4143477 -0.0353157
v -0.2107085 -1.4163847 -0.0361173
v -0.2109505 -1.4185449 -0.0365403
v -0.2110919 -1.4207546 -0.0365702
v -0.2111281 -1.4229386 -0.0362062
v -0.2110577 -1.4250226 -0.0354606
v -0.2108833 -1.4269355 -0.0343587
v -0.2106106 -1.4286122 -0.0329382
v -0.1874370 -1.3290785 0.0292604
v -0.1872102 -1.3285245 0.0271284
v -0.1870785 -1.3283613 0.0249239
v -0.1870462 -1.3285945 0.0227220
v -0.1871146 -1.3292160 0.0205976
v -0.1872812 -1.3302048 0.0186232
v -0.1875404 -1.3315272 0.0168660
v -0.1878833 -1.3331381 0.0153857
v -0.2062984 -1.4149827 -0.0357671
v -0.2067713 -1.4169981 -0.0365533
v -0.2072861 -1.4191157 -0.0369461
v -0.2078253 -1.4212635 -0.0369320
v -0.2083703 -1.4233682 -0.0365116
v -0.2089028 -1.4253583 -0.0356992
v -0.2094045 -1.4271658 -0.0345225
v -0.2098584 -1.4287294 -0.0330215
v -0.1867273 -1.3293278 0.0294039
v -0.1858150 -1.3290148 0.0274105
v -0.1850453 -1.3290758 0.0253350
v -0.1844443 -1.3295088 0.0232482
v -0.1840325 -1.3302991 0.0212210
v -0.1838239 -1.3314197 0.0193224
v -0.1838256 -1.3328326 0.0176173
v -0.1840376 -1.3344895 0.0161635
v -0.2024526 -1.4163340 -0.0349894
v -0.2030566 -1.4183035 -0.0358020
v -0.2038288 -1.4203306 -0.0362469
v -0.2047432 -1.4223466 -0.0363087
v -0.2057684 -1.4242826 -0.0359854
v -0.2068696 -1.4260727 -0.0352881
v -0.2080093 -1.4276561 -0.0342403
v -0.2091487 -1.4289788 -0.0328780
v -0.1861457 -1.3296793 0.0297569
v -0.1846717 -1.3297058 0.0281046
v -0.1833791 -1.3300828 0.0263465
v -0.1823120 -1.3307975 0.0245425
v -0.1815067 -1.3318257 0.0227542
v -0.1809906 -1.3331321 0.0210423
v -0.1807813 -1.3346725 0.0194652
v -0.1808860 -1.3363943 0.0180766
v -0.1993010 -1.4182388 -0.0330763
v -0.2000123 -1.4201434 -0.0339541
v -0.2009956 -1.4220430 -0.0345270
v -0.2022174 -1.4238731 -0.0347755
v -0.2036361 -1.4255713 -0.0346911
v -0.2052034 -1.4270798 -0.0342766
v -0.2068660 -1.4283471 -0.0335463
v -0.2085672 -1.4293303 -0.0325249
v -0.1857624 -1.3300906 0.0302769
v -0.1839180 -1.3305143 0.0291268
v -0.1822808 -1.3312610 0.0278361
v -0.1809065 -1.3323053 0.0264489
v -0.1798418 -1.3336116 0.0250124
v -0.1791231 -1.3351355 0.0235754
v -0.1787747 -1.3368251 0.0221869
v -0.1788087 -1.3386227 0.0208943
v -0.1972237 -1.4204673 -0.0302586
v -0.1980057 -1.4222959 -0.0312324
v -0.1991280 -1.4240464 -0.0319939
v -0.2005525 -1.4256591 -0.0325173
v -0.2022306 -1.4270790 -0.0327847
v -0.2041052 -1.4282579 -0.0327870
v -0.2061123 -1.4291556 -0.0325241
v -0.2081838 -1.4297415 -0.0320050
v -0.1856235 -1.3305119 0.0309011
v -0.1836450 -1.3313426 0.0303539
v -0.1818830 -1.3324681 0.0296244
v -0.1803974 -1.3338501 0.0287374
v -0.1792387 -1.3354416 0.0277232
v -0.1784466 -1.3371882 0.0266162
v -0.1780478 -1.3390306 0.0254542
v -0.1780561 -1.3409060 0.0242767
v -0.1964712 -1.4227506 -0.0268762
v -0.1972788 -1.4245015 -0.0279651
v -0.1984515 -1.4260991 -0.0289531
v -0.1999494 -1.4274890 -0.0298065
v -0.2017214 -1.4286239 -0.0304962
v -0.2037073 -1.4294651 -0.0309987
v -0.2058393 -1.4299840 -0.0312970
v -0.2080449 -1.4301629 -0.0313808
vn 0.1874187 0.8329719 0.5206074
vn 0.3633017 0.7541587 0.5470434
vn 0.5170795 0.6533111 0.5530041
vn 0.6531339 0.5305768 0.5402818
vn 0.7669955 0.3901735 0.5093944
vn 0.8549629 0.2368594 0.4614500
vn 0.9142055 0.0757759 0.3981033
vn 0.9428392 -0.0877160 0.3214966
vn 0.9399740 -0.2482014 0.2341900
vn 0.9057345 -0.4003769 0.1390803
vn 0.8412530 -0.5392105 0.0393126
vn 0.7486347 -0.6600946 -0.0618158
vn 0.6308973 -0.7589877 -0.1609544
vn 0.4918846 -0.8325414 -0.2548024
vn 0.3361565 -0.8782115 -0.3402108
vn 0.1688563 -0.8943475 -0.4142826
vn -0.0044427 -0.8802611 -0.4744689
vn -0.1874187 -0.8329719 -0.5206074
vn 0.3309160 0.7283383 0.6000149
vn 0.4551763 0.6039570 0.6542556
vn 0.5638541 0.4593960 0.6863118
vn 0.6533862 0.2995953 0.6952188
vn 0.7208695 0.1299497 0.6807791
vn 0.7641404 -0.0438678 0.6435566
vn 0.7818315 -0.2160839 0.5848480
vn 0.7734056 -0.3810027 0.5066366
vn 0.7391662 -0.5331782 0.4115269
vn 0.6802453 -0.6675784 0.3026640
vn 0.5985695 -0.7797383 0.1836375
vn 0.4968039 -0.8658974 0.0583747
vn 0.3782753 -0.9231196 -0.0689781
vn 0.2468767 -0.9493923 -0.1941808
vn 0.1069531 -0.9437016 -0.3130310
vn -0.0368284 -0.9060815 -0.4214974
vn 0.2807947 0.7132371 0.6422205
vn 0.3593726 0.5750921 0.7349288
vn 0.4256812 0.4177656 0.8026627
vn 0.4775601 0.2466203 0.8432762
vn 0.5133414 0.0674231 0.8555318
vn 0.5318938 -0.1138419 0.8391240
vn 0.5326498 -0.2911604 0.7946759
vn 0.5156181 -0.4586721 0.7237112
vn 0.4813786 -0.6108476 0.6286015
vn 0.4310635 -0.7426549 0.5124918
vn 0.3663229 -0.8497124 0.3792049
vn 0.2892758 -0.9284240 0.2331274
vn 0.2024493 -0.9760946 0.0790794
vn 0.1087039 -0.9910227 -0.0778300
vn 0.0111494 -0.9725665 -0.2323578
vn -0.0869498 -0.9211826 -0.3792918
vn 0.2189831 0.7106766 0.6685695
vn 0.2412237 0.5701978 0.7852933
vn 0.2552810 0.4107068 0.8753008
vn 0.2607245 0.2376379 0.9357088
vn 0.2574096 0.0568212 0.9646303
vn 0.2454780 -0.1257066 0.9612171
vn 0.2253491 -0.3038903 0.9256719
vn 0.1977042 -0.4718416 0.8592314
vn 0.1634647 -0.6240171 0.7641217
vn 0.1237628 -0.7553848 0.6434879
vn 0.0799072 -0.8615771 0.5012981
vn 0.0333440 -0.9390259 0.3422259
vn -0.0143864 -0.9850770 0.1715120
vn -0.0616963 -0.9980815 -0.0051918
vn -0.1069995 -0.9774608 -0.1819933
vn -0.1487614 -0.9237432 -0.3529428
vn 0.1529365 0.7209655 0.6758839
vn 0.1149800 0.5898645 0.7992743
vn 0.0732062 0.4390710 0.8954649
vn 0.0290328 0.2737317 0.9613678
vn -0.0160568 0.0994227 0.9949157
vn -0.0605608 -0.0780308 0.9951098
vn -0.1030057 -0.2527380 0.9620360
vn -0.1419908 -0.4189227 0.8968514
vn -0.1762303 -0.5710982 0.8017417
vn -0.2045920 -0.7042325 0.6798520
vn -0.2261317 -0.8139013 0.5351908
vn -0.2401224 -0.8964243 0.3725113
vn -0.2460780 -0.9489833 0.1971710
vn -0.2437711 -0.9697172 0.0149723
vn -0.2332431 -0.9577941 -0.1680123
vn -0.2148079 -0.9134542 -0.3456284
vn 0.0906213 0.7428630 0.6632815
vn -0.0041314 0.6317201 0.7751856
vn -0.0985822 0.4994372 0.8607230
vn -0.1895694 0.3505481 0.9171584
vn -0.2740737 0.1900894 0.9427352
vn -0.3493100 0.0234351 0.9367141
vn -0.4128101 -0.1438734 0.8993822
vn -0.4624947 -0.3062983 0.8320337
vn -0.4967342 -0.4584738 0.7369240
vn -0.5143963 -0.5953679 0.6171981
vn -0.5148808 -0.7124354 0.4767950
vn -0.4981393 -0.8057577 0.3203308
vn -0.4646802 -0.8721669 0.1529616
vn -0.4155596 -0.9093511 -0.0197697
vn -0.3523546 -0.9159385 -0.1921010
vn -0.2771231 -0.8915568 -0.3582308
vn 0.0395535 0.7737278 0.6322823
vn -0.1017442 0.6907161 0.7159326
vn -0.2393641 0.5845241 0.7752653
vn -0.3687155 0.4588219 0.8084128
vn -0.4855204 0.3178853 0.8143825
vn -0.5859421 0.1664528 0.7930734
vn -0.6666970 0.0095730 0.7452673
vn -0.7251500 -0.1475524 0.6725962
vn -0.7593895 -0.2997279 0.5774866
vn -0.7682833 -0.4419215 0.4630833
vn -0.7515129 -0.5694177 0.3331543
vn -0.7095860 -0.6779617 0.1919781
vn -0.6438264 -0.7638930 0.0442160
vn -0.5563415 -0.8242641 -0.1052273
vn -0.4499674 -0.8569425 -0.2513541
vn -0.3281909 -0.8606920 -0.3892301
vn 0.0058927 0.8098371 0.5866252
vn -0.1660847 0.7597368 0.6286620
vn -0.3321592 0.6840692 0.6493995
vn -0.4867979 0.5854938 0.6482475
vn -0.6248935 0.4673966 0.6253388
vn -0.7419158 0.3337723 0.5815128
vn -0.8340441 0.1890931 0.5182800
vn -0.8982767 0.0381677 0.4377696
vn -0.9325162 -0.1140078 0.3426599
vn -0.9356304 -0.2624014 0.2360960
vn -0.9074866 -0.4020983 0.1215937
vn -0.8489591 -0.5284505 0.0029344
vn -0.7619088 -0.6372211 -0.1159494
vn -0.6491365 -0.7247191 -0.2310932
vn -0.5143079 -0.7879218 -0.3386246
vn -0.3618517 -0.8245826 -0.4348871
vn -0.0063012 0.8468357 0.5318172
vn -0.1893925 0.8304572 0.5239001
vn -0.3657748 0.7860657 0.4983066
vn -0.5295741 0.7152852 0.4559806
vn -0.6753823 0.6205898 0.3984056
vn -0.7984183 0.5052123 0.3275497
vn -0.8946667 0.3730343 0.2457983
vn -0.9609930 0.2284616 0.1558773
vn -0.9952325 0.0762861 0.0607676
vn -0.9962530 -0.0784602 -0.0363858
vn -0.9639892 -0.2306582 -0.1323694
vn -0.8994479 -0.3752572 -0.2239988
vn -0.8046850 -0.5074297 -0.3082162
vn -0.6827521 -0.6227225 -0.3821860
vn -0.5376156 -0.7172014 -0.4433866
vn -0.3740456 -0.7875840 -0.4896952
vn 0.0044427 0.8802611 0.4744689
vn -0.1688563 0.8943475 0.4142826
vn -0.3361565 0.8782115 0.3402108
vn -0.4918846 0.8325414 0.2548024
vn -0.6308973 0.7589877 0.1609544
vn -0.7486347 0.6600946 0.0618158
vn -0.8412530 0.5392105 -0.0393126
vn -0.9057345 0.4003769 -0.1390803
vn -0.9399740 0.2482014 -0.2341900
vn -0.9428392 0.0877160 -0.3214966
vn -0.9142055 -0.0757759 -0.3981033
vn -0.8549629 -0.2368594 -0.4614500
vn -0.7669955 -0.3901735 -0.5093944
vn -0.6531339 -0.5305768 -0.5402818
vn -0.5170795 -0.6533111 -0.5530041
vn -0.3633017 -0.7541587 -0.5470434
vn 0.0368284 0.9060815 0.4214974
vn -0.1069531 0.9437016 0.3130310
vn -0.2468767 0.9493923 0.1941808
vn -0.3782753 0.9231196 0.0689781
vn -0.4968039 0.8658974 -0.0583747
vn -0.5985695 0.7797383 -0.1836375
vn -0.6802453 0.6675784 -0.3026640
vn -0.7391662 0.5331782 -0.4115269
vn -0.7734056 0.3810027 -0.5066366
vn -0.7818315 0.2160839 -0.5848480
vn -0.7641404 0.0438678 -0.6435566
vn -0.7208695 -0.1299497 -0.6807791
vn -0.6533862 -0.2995953 -0.6952188
vn -0.5638541 -0.4593960 -0.6863118
vn -0.4551763 -0.6039570 -0.6542556
vn -0.3309160 -0.7283383 -0.6000149
vn 0.0869498 0.9211826 0.3792918
vn -0.0111494 0.9725665 0.2323578
vn -0.1087039 0.9910227 0.0778300
vn -0.2024493 0.9760946 -0.0790794
vn -0.2892758 0.9284240 -0.2331274
vn -0.3663229 0.8497124 -0.3792049
vn -0.4310635 0.7426549 -0.5124918
vn -0.4813786 0.6108476 -0.6286015
vn -0.5156181 0.4586721 -0.7237112
vn -0.5326498 0.2911604 -0.7946759
vn -0.5318938 0.1138419 -0.8391240
vn -0.5133414 -0.0674231 -0.8555318
vn -0.4775601 -0.2466203 -0.8432762
vn -0.4256812 -0.4177656 -0.8026627
vn -0.3593726 -0.5750921 -0.7349288
vn -0.2807947 -0.7132371 -0.6422205
vn 0.1487614 0.9237432 0.3529428
vn 0.1069995 0.9774608 0.1819933
vn 0.0616963 0.9980815 0.0051918
vn 0.0143864 0.9850770 -0.1715120
vn -0.0333440 0.9390259 -0.3422259
vn -0.0799072 0.8615771 -0.5012981
vn -0.1237628 0.7553848 -0.6434879
vn -0.1634647 0.6240171 -0.7641217
vn -0.1977042 0.4718416 -0.8592314
vn -0.2253491 0.3038903 -0.9256719
vn -0.2454780 0.1257066 -0.9612171
vn -0.2574096 -0.0568212 -0.9646303
vn -0.2607245 -0.2376379 -0.9357088
vn -0.2552810 -0.4107068 -0.8753008
vn -0.2412237 -0.5701978 -0.7852933
vn -0.2189831 -0.7106766 -0.6685695
vn 0.2148079 0.9134542 0.3456284
vn 0.2332431 0.9577941 0.1680123
vn 0.2437711 0.9697172 -0.0149723
vn 0.2460780 0.9489833 -0.1971710
vn 0.2401224 0.8964243 -0.3725113
vn 0.2261317 0.8139013 -0.5351908
vn 0.2045920 0.7042325 -0.6798520
vn 0.1762303 0.5710982 -0.8017417
vn 0.1419908 0.4189227 -0.8968514
vn 0.1030057 0.2527380 -0.9620360
vn 0.0605608 0.0780308 -0.9951098
vn 0.0160568 -0.0994227 -0.9949157
vn -0.0290328 -0.2737317 -0.9613678
vn -0.0732062 -0.4390710 -0.8954649
vn -0.1149800 -0.5898645 -0.7992743
vn -0.1529365 -0.7209655 -0.6758839
vn 0.2771231 0.8915568 0.3582308
vn 0.3523546 0.9159385 0.1921010
vn 0.4155596 0.9093511 0.0197697
vn 0.4646802 0.8721669 -0.1529616
vn 0.4981393 0.8057577 -0.3203308
vn 0.5148808 0.7124354 -0.4767950
vn 0.5143963 0.5953679 -0.6171981
vn 0.4967342 0.4584738 -0.7369240
vn 0.4624947 0.3062983 -0.8320337
vn 0.4128101 0.1438734 -0.8993822
vn 0.3493100 -0.0234351 -0.9367141
vn 0.2740737 -0.1900894 -0.9427352
vn 0.1895694 -0.3505481 -0.9171584
vn 0.0985822 -0.4994372 -0.8607230
vn 0.0041314 -0.6317201 -0.7751856
vn -0.0906213 -0.7428630 -0.6632815
vn 0.3281909 0.8606920 0.3892301
vn 0.4499674 0.8569425 0.2513541
vn 0.5563415 0.8242641 0.1052273
vn 0.6438264 0.7638930 -0.0442160
vn 0.7095860 0.6779617 -0.1919781
vn 0.7515129 0.5694177 -0.3331543
vn 0.7682833 0.4419215 -0.4630833
vn 0.7593895 0.2997279 -0.5774866
vn 0.7251500 0.1475524 -0.6725962
vn 0.6666970 -0.0095730 -0.7452673
vn 0.5859421 -0.1664528 -0.7930734
vn 0.4855204 -0.3178853 -0.8143825
vn 0.3687155 -0.4588219 -0.8084128
vn 0.2393641 -0.5845241 -0.7752653
vn 0.1017442 -0.6907161 -0.7159326
vn -0.0395535 -0.7737278 -0.6322823
vn 0.3618517 0.8245826 0.4348871
vn 0.5143079 0.7879218 0.3386246
vn 0.6491365 0.7247191 0.2310932
vn 0.7619088 0.6372211 0.1159494
vn 0.8489591 0.5284505 -0.0029344
vn 0.9074866 0.4020983 -0.1215937
vn 0.9356304 0.2624014 -0.2360960
vn 0.9325162 0.1140078 -0.3426599
vn 0.8982767 -0.0381677 -0.4377696
vn 0.8340441 -0.1890931 -0.5182800
vn 0.7419158 -0.3337723 -0.5815128
vn 0.6248935 -0.4673966 -0.6253388
vn 0.4867979 -0.5854938 -0.6482475
vn 0.3321592 -0.6840692 -0.6493995
vn 0.1660847 -0.7597368 -0.6286620
vn -0.0058927 -0.8098371 -0.5866252
vn 0.3740456 0.7875840 0.4896952
vn 0.5376156 0.7172014 0.4433866
vn 0.6827521 0.6227225 0.3821860
vn 0.8046850 0.5074297 0.3082162
vn 0.8994479 0.3752572 0.2239988
vn 0.9639892 0.2306582 0.1323694
vn 0.9962530 0.0784602 0.0363858
vn 0.9952325 -0.0762861 -0.0607676
vn 0.9609930 -0.2284616 -0.1558773
vn 0.8946667 -0.3730343 -0.2457983
vn 0.7984183 -0.5052123 -0.3275497
vn 0.6753823 -0.6205898 -0.3984056
vn 0.5295741 -0.7152852 -0.4559806
vn 0.3657748 -0.7860657 -0.4983066
vn 0.1893925 -0.8304572 -0.5239001
vn 0.0063012 -0.8468357 -0.5318172
f 2//2 1//1 19//19
f 2//2 19//19 3//3
f 3//3 19//19 20//20
f 3//3 20//20 4//4
f 4//4 20//20 21//21
f 4//4 21//21 5//5
f 5//5 21//21 22//22
f 5//5 22//22 6//6
f 6//6 22//22 23//23
f 6//6 23//23 7//7
f 7//7 23//23 24//24
f 7//7 24//24 8//8
f 8//8 24//24 25//25
f 8//8 25//25 9//9
f 9//9 25//25 26//26
f 9//9 26//26 10//10
f 10//10 26//26 27//27
f 10//10 27//27 11//11
f 11//11 27//27 28//28
f 11//11 28//28 12//12
f 12//12 28//28 29//29
f 12//12 29//29 13//13
f 13//13 29//29 30//30
f 13//13 30//30 14//14
f 14//14 30//30 31//31
f 14//14 31//31 15//15
f 15//15 31//31 32//32
f 15//15 32//32 16//16
f 16//16 32//32 33//33
f 16//16 33//33 17//17
f 17//17 33//33 34//34
f 17//17 34//34 18//18
f 19//19 1//1 35//35
f 19//19 35//35 20//20
f 20//20 35//35 36//36
f 20//20 36//36 21//21
f 21//21 36//36 37//37
f 21//21 37//37 22//22
f 22//22 37//37 38//38
f 22//22 38//38 23//23
f 23//23 38//38 39//39
f 23//23 39//39 24//24
f 24//24 39//39 40//40
f 24//24 40//40 25//25
f 25//25 40//40 41//41
f 25//25 41//41 26//26
f 26//26 41//41 42//42
f 26//26 42//42 27//27
f 27//27 42//42 43//43
f 27//27 43//43 28//28
f 28//28 43//43 44//44
f 28//28 44//44 29//29
f 29//29 44//44 45//45
f 29//29 45//45 30//30
f 30//30 45//45 46//46
f 30//30 46//46 31//31
f 31//31 46//46 47//47
f 31//31 47//47 32//32
f 32//32 47//47 48//48
f 32//32 48//48 33//33
f 33//33 48//48 49//49
f 33//33 49//49 34//34
f 34//34 49//49 50//50
f 34//34 50//50 18//18
f 35//35 1//1 51//51
f 35//35 51//51 36//36
f 36//36 51//51 52//52
f 36//36 52//52 37//37
f 37//37 52//52 53//53
f 37//37 53//53 38//38
f 38//38 53//53 54//54
f 38//38 54//54 39//39
f 39//39 54//54 55//55
f 39//39 55//55 40//40
f 40//40 55//55 56//56
f 40//40 56//56 41//41
f 41//41 56//56 57//57
f 41//41 57//57 42//42
f 42//42 57//57 58//58
f 42//42 58//58 43//43
f 43//43 58//58 59//59
f 43//43 59//59 44//44
f 44//44 59//59 60//60
f 44//44 60//60 45//45
f 45//45 60//60 61//61
f 45//45 61//61 46//46
f 46//46 61//61 62//62
f 46//46 62//62 47//47
f 47//47 62//62 63//63
f 47//47 63//63 48//48
f 48//48 63//63 64//64
f 48//48 64//64 49//49
f 49//49 64//64 65//65
f 49//49 65//65 50//50
f 50//50 65//65 66//66
f 50//50 66//66 18//18
f 51//51 1//1 67//67
f 51//51 67//67 52//52
f 52//52 67//67 68//68
f 52//52 68//68 53//53
f 53//53 68//68 69//69
f 53//53 69//69 54//54
f 54//54 69//69 70//70
f 54//54 70//70 55//55
f 55//55 70//70 71//71
f 55//55 71//71 56//56
f 56//56 71//71 72//72
f 56//56 72//72 57//57
f 57//57 72//72 73//73
f 57//57 73//73 58//58
f 58//58 73//73 74//74
f 58//58 74//74 59//59
f 59//59 74//74 75//75
f 59//59 75//75 60//60
f 60//60 75//75 76//76
f 60//60 76//76 61//61
f 61//61 76//76 77//77
f 61//61 77//77 62//62
f 62//62 77//77 78//78
f 62//62 78//78 63//63
f 63//63 78//78 79//79
f 63//63 79//79 64//64
f 64//64 79//79 80//80
f 64//64 80//80 65//65
f 65//65 80//80 81//81
f 65//65 81//81 66//66
f 66//66 81//81 82//82
f 66//66 82//82 18//18
f 67//67 1//1 83//83
f 67//67 83//83 68//68
f 68//68 83//83 84//84
f 68//68 84//84 69//69
f 69//69 84//84 85//85
f 69//69 85//85 70//70
f 70//70 85//85 86//86
f 70//70 86//86 71//71
f 71//71 86//86 87//87
f 71//71 87//87 72//72
f 72//72 87//87 88//88
f 72//72 88//88 73//73
f 73//73 88//88 89//89
f 73//73 89//89 74//74
f 74//74 89//89 90//90
f 74//74 90//90 75//75
f 75//75 90//90 91//91
f 75//75 91//91 76//76
f 76//76 91//91 92//92
f 76//76 92//92 77//77
f 77//77 92//92 93//93
f 77//77 93//93 78//78
f 78//78 93//93 94//94
f 78//78 94//94 79//79
f 79//79 94//94 95//95
f 79//79 95//95 80//80
f 80//80 95//95 96//96
f 80//80 96//96 81//81
f 81//81 96//96 97//97
f 81//81 97//97 82//82
f 82//82 97//97 98//98
f 82//82 98//98 18//18
f 83//83 1//1 99//99
f 83//83 99//99 84//84
f 84//84 99//99 100//100
f 84//84 100//100 85//85
f 85//85 100//100 101//101
f 85//85 101//101 86//86
f 86//86 101//101 102//102
f 86//86 102//102 87//87
f 87//87 102//102 103//103
f 87//87 103//103 88//88
f 88//88 103//103 104//104
f 88//88 104//104 89//89
f 89//89 104//104 105//105
f 89//89 105//105 90//90
f 90//90 105//105 106//106
f 90//90 106//106 91//91
f 91//91 106//106 107//107
f 91//91 107//107 92//92
f 92//92 107//107 108//108
f 92//92 108//108 93//93
f 93//93 108//108 109//109
f 93//93 109//109 94//94
f 94//94 109//109 110//110
f 94//94 110//110 95//95
f 95//95 110//110 111//111
f 95//95 111//111 96//96
f 96//96 111//111 112//112
f 96//96 112//112 97//97
f 97//97 112//112 113//113
f 97//97 113//113 98//98
f 98//98 113//113 114//114
f 98//98 114//114 18//18
f 99//99 1//1 115//115
f 99//99 115//115 100//100
f 100//100 115//115 116//116
f 100//100 116//116 101//101
f 101//101 116//116 117//117
f 101//101 117//117 102//102
f 102//102 117//117 118//118
f 102//102 118//118 103//103
f 103//103 118//118 119//119
f 103//103 119//119 104//104
f 104//104 119//119 120//120
f 104//104 120//120 105//105
f 105//105 120//120 121//121
f 105//105 121//121 106//106
f 106//106 121//121 122//122
f 106//106 122//122 107//107
f 107//107 122//122 123//123
f 107//107 123//123 108//108
f 108//108 123//123 124//124
f 108//108 124//124 109//109
f 109//109 124//124 125//125
f 109//109 125//125 110//110
f 110//110 125//125 126//126
f 110//110 126//126 111//111
f 111//111 126//126 127//127
f 111//111 127//127 112//112
f 112//112 127//127 128//128
f 112//112 128//128 113//113
f 113//113 128//128 129//129
f 113//113 129//129 114//114
f 114//114 129//129 130//130
f 114//114 130//130 18//18
f 115//115 1//1 131//131
f 115//115 131//131 116//116
f 116//116 131//131 132//132
f 116//116 132//132 117//117
f 117//117 132//132 133//133
f 117//117 133//133 118//118
f 118//118 133//133 134//134
f 118//118 134//134 119//119
f 119//119 134//134 135//135
f 119//119 135//135 120//120
f 120//120 135//135 136//136
f 120//120 136//136 121//121
f 121//121 136//136 137//137
f 121//121 137//137 122//122
f 122//122 137//137 138//138
f 122//122 138//138 123//123
f 123//123 138//138 139//139
f 123//123 139//139 124//124
f 124//124 139//139 140//140
f 124//124 140//140 125//125
f 125//125 140//140 141//141
f 125//125 141//141 126//126
f 126//126 141//141 142//142
f 126//126 142//142 127//127
f 127//127 142//142 143//143
f 127//127 143//143 128//128
f 128//128 143//143 144//144
f 128//128 144//144 129//129
f 129//129 144//144 145//145
f 129//129 145//145 130//130
f 130//130 145//145 146//146
f 130//130 146//146 18//18
f 131//131 1//1 147//147
f 131//131 147//147 132//132
f 132//132 147//147 148//148
f 132//132 148//148 133//133
f 133//133 148//148 149//149
f 133//133 149//149 134//134
f 134//134 149//149 150//150
f 134//134 150//150 135//135
f 135//135 150//150 151//151
f 135//135 151//151 136//136
f 136//136 151//151 152//152
f 136//136 152//152 137//137
f 137//137 152//152 153//153
f 137//137 153//153 138//138
f 138//138 153//153 154//154
f 138//138 154//154 139//139
f 139//139 154//154 155//155
f 139//139 155//155 140//140
f 140//140 155//155 156//156
f 140//140 156//156 141//141
f 141//141 156//156 157//157
f 141//141 157//157 142//142
f 142//142 157//157 158//158
f 142//142 158//158 143//143
f 143//143 158//158 159//159
f 143//143 159//159 144//144
f 144//144 159//159 160//160
f 144//144 160//160 145//145
f 145//145 160//160 161//161
f 145//145 161//161 146//146
f 146//146 161//161 162//162
f 146//146 162//162 18//18
f 147//147 1//1 163//163
f 147//147 163//163 148//148
f 148//148 163//163 164//164
f 148//148 164//164 149//149
f 149//149 164//164 165//165
f 149//149 165//165 150//150
f 150//150 165//165 166//166
f 150//150 166//166 151//151
f 151//151 166//166 167//167
f 151//151 167//167 152//152
f 152//152 167//167 168//168
f 152//152 168//168 153//153
f 153//153 168//168 169//169
f 153//153 169//169 154//154
f 154//154 169//169 170//170
f 154//154 170//170 155//155
f 155//155 170//170 171//171
f 155//155 171//171 156//156
f 156//156 171//171 172//172
f 156//156 172//172 157//157
f 157//157 172//172 173//173
f 157//157 173//173 158//158
f 158//158 173//173 174//174
f 158//158 174//174 159//159
f 159//159 174//174 175//175
f 159//159 175//175 160//160
f 160//160 175//175 176//176
f 160//160 176//176 161//161
f 161//161 176//176 177//177
f 161//161 177//177 162//162
f 162//162 177//177 178//178
f 162//162 178//178 18//18
f 163//163 1//1 179//179
f 163//163 179//179 164//164
f 164//164 179//179 180//180
f 164//164 180//180 165//165
f 165//165 180//180 181//181
f 165//165 181//181 166//166
f 166//166 181//181 182//182
f 166//166 182//182 167//167
f 167//167 182//182 183//183
f 167//167 183//183 168//168
f 168//168 183//183 184//184
f 168//168 184//184 169//169
f 169//169 184//184 185//185
f 169//169 185//185 170//170
f 170//170 185//185 186//186
f 170//170 186//186 171//171
f 171//171 186//186 187//187
f 171//171 187//187 172//172
f 172//172 187//187 188//188
f 172//172 188//188 173//173
f 173//173 188//188 189//189
f 173//173 189//189 174//174
f 174//174 189//189 190//190
f 174//174 190//190 175//175
f 175//175 190//190 191//191
f 175//175 191//191 176//176
f 176//176 191//191 192//192
f 176//176 192//192 177//177
f 177//177 192//192 193//193
f 177//177 193//193 178//178
f 178//178 193//193 194//194
f 178//178 194//194 18//18
f 179//179 1//1 195//195
f 179//179 195//195 180//180
f 180//180 195//195 196//196
f 180//180 196//196 181//181
f 181//181 196//196 197//197
f 181//181 197//197 182//182
f 182//182 197//197 198//198
f 182//182 198//198 183//183
f 183//183 198//198 199//199
f 183//183 199//199 184//184
f 184//184 199//199 200//200
f 184//184 200//200 185//185
f 185//185 200//200 201//201
f 185//185 201//201 186//186
f 186//186 201//201 202//202
f 186//186 202//202 187//187
f 187//187 202//202 203//203
f 187//187 203//203 188//188
f 188//188 203//203 204//204
f 188//188 204//204 189//189
f 189//189 204//204 205//205
f 189//189 205//205 190//190
f 190//190 205//205 206//206
f 190//190 206//206 191//191
f 191//191 206//206 207//207
f 191//191 207//207 192//192
f 192//192 207//207 208//208
f 192//192 208//208 193//193
f 193//193 208//208 209//209
f 193//193 209//209 194//194
f 194//194 209//209 210//210
f 194//194 210//210 18//18
f 195//195 1//1 211//211
f 195//195 211//211 196//196
f 196//196 211//211 212//212
f 196//196 212//212 197//197
f 197//197 212//212 213//213
f 197//197 213//213 198//198
f 198//198 213//213 214//214
f 198//198 214//214 199//199
f 199//199 214//214 215//215
f 199//199 215//215 200//200
f 200//200 215//215 216//216
f 200//200 216//216 201//201
f 201//201 216//216 217//217
f 201//201 217//217 202//202
f 202//202 217//217 218//218
f 202//202 218//218 203//203
f 203//203 218//218 219//219
f 203//203 219//219 204//204
f 204//204 219//219 220//220
f 204//204 220//220 205//205
f 205//205 220//220 221//221
f 205//205 221//221 206//206
f 206//206 221//221 222//222
f 206//206 222//222 207//207
f 207//207 222//222 223//223
f 207//207 223//223 208//208
f 208//208 223//223 224//224
f 208//208 224//224 209//209
f 209//209 224//224 225//225
f 209//209 225//225 210//210
f 210//210 225//225 226//226
f 210//210 226//226 18//18
f 211//211 1//1 227//227
f 211//211 227//227 212//212
f 212//212 227//227 228//228
f 212//212 228//228 213//213
f 213//213 228//228 229//229
f 213//213 229//229 214//214
f 214//214 229//229 230//230
f 214//214 230//230 215//215
f 215//215 230//230 231//231
f 215//215 231//231 216//216
f 216//216 231//231 232//232
f 216//216 232//232 217//217
f 217//217 232//232 233//233
f 217//217 233//233 218//218
f 218//218 233//233 234//234
f 218//218 234//234 219//219
f 219//219 234//234 235//235
f 219//219 235//235 220//220
f 220//220 235//235 236//236
f 220//220 236//236 221//221
f 221//221 236//236 237//237
f 221//221 237//237 222//222
f 222//222 237//237 238//238
f 222//222 238//238 223//223
f 223//223 238//238 239//239
f 223//223 239//239 224//224
f 224//224 239//239 240//240
f 224//224 240//240 225//225
f 225//225 240//240 241//241
f 225//225 241//241 226//226
f 226//226 241//241 242//242
f 226//226 242//242 18//18
f 227//227 1//1 243//243
f 227//227 243//243 228//228
f 228//228 243//243 244//244
f 228//228 244//244 229//229
f 229//229 244//244 245//245
f 229//229 245//245 230//230
f 230//230 245//245 246//246
f 230//230 246//246 231//231
f 231//231 246//246 247//247
f 231//231 247//247 232//232
f 232//232 247//247 248//248
f 232//232 248//248 233//233
f 233//233 248//248 249//249
f 233//233 249//249 234//234
f 234//234 249//249 250//250
f 234//234 250//250 235//235
f 235//235 250//250 251//251
f 235//235 251//251 236//236
f 236//236 251//251 252//252
f 236//236 252//252 237//237
f 237//237 252//252 253//253
f 237//237 253//253 238//238
f 238//238 253//253 254//254
f 238//238 254//254 239//239
f 239//239 254//254 255//255
f 239//239 255//255 240//240
f 240//240 255//255 256//256
f 240//240 256//256 241//241
f 241//241 256//256 257//257
f 241//241 257//257 242//242
f 242//242 257//257 258//258
f 242//242 258//258 18//18
f 243//243 1//1 259//259
f 243//243 259//259 244//244
f 244//244 259//259 260//260
f 244//244 260//260 245//245
f 245//245 260//260 261//261
f 245//245 261//261 246//246
f 246//246 261//261 262//262
f 246//246 262//262 247//247
f 247//247 262//262 263//263
f 247//247 263//263 248//248
f 248//248 263//263 264//264
f 248//248 264//264 249//249
f 249//249 264//264 265//265
f 249//249 265//265 250//250
f 250//250 265//265 266//266
f 250//250 266//266 251//251
f 251//251 266//266 267//267
f 251//251 267//267 252//252
f 252//252 267//267 268//268
f 252//252 268//268 253//253
f 253//253 268//268 269//269
f 253//253 269//269 254//254
f 254//254 269//269 270//270
f 254//254 270//270 255//255
f 255//255 270//270 271//271
f 255//255 271//271 256//256
f 256//256 271//271 272//272
f 256//256 272//272 257//257
f 257//257 272//272 273//273
f 257//257 273//273 258//258
f 258//258 273//273 274//274
f 258//258 274//274 18//18
f 259//259 1//1 275//275
f 259//259 275//275 260//260
f 260//260 275//275 276//276
f 260//260 276//276 261//261
f 261//261 276//276 277//277
f 261//261 277//277 262//262
f 262//262 277//277 278//278
f 262//262 278//278 263//263
f 263//263 278//278 279//279
f 263//263 279//279 264//264
f 264//264 279//279 280//280
f 264//264 280//280 265//265
f 265//265 280//280 281//281
f 265//265 281//281 266//266
f 266//266 281//281 282//282
f 266//266 282//282 267//267
f 267//267 282//282 283//283
f 267//267 283//283 268//268
f 268//268 283//283 284//284
f 268//268 284//284 269//269
f 269//269 284//284 285//285
f 269//269 285//285 270//270
f 270//270 285//285 286//286
f 270//270 286//286 271//271
f 271//271 286//286 287//287
f 271//271 287//287 272//272
f 272//272 287//287 288//288
f 272//272 288//288 273//273
f 273//273 288//288 289//289
f 273//273 289//289 274//274
f 274//274 289//289 290//290
f 274//274 290//290 18//18
f 275//275 1//1 2//2
f 275//275 2//2 276//276
f 276//276 2//2 3//3
f 276//276 3//3 277//277
f 277//277 3//3 4//4
f 277//277 4//4 278//278
f 278//278 4//4 5//5
f 278//278 5//5 279//279
f 279//279 5//5 6//6
f 279//279 6//6 280//280
f 280//280 6//6 7//7
f 280//280 7//7 281//281
f 281//281 7//7 8//8
f 281//281 8//8 282//282
f 282//282 8//8 9//9
f 282//282 9//9 283//283
f 283//283 9//9 10//10
f 283//283 10//10 284//284
f 284//284 10//10 11//11
f 284//284 11//11 285//285
f 285//285 11//11 12//12
f 285//285 12//12 286//286
f 286//286 12//12 13//13
f 286//286 13//13 287//287
f 287//287 13//13 14//14
f 287//287 14//14 288//288
f 288//288 14//14 15//15
f 288//288 15//15 289//289
f 289//289 15//15 16//16
f 289//289 16//16 290//290
f 290//290 16//16 17//17
f 290//290 17//17 18//18

