# https://github.com/mikedh/trimesh
v 0.4178621 1.0058914 -0.0450000
v 0.4299760 1.0069629 -0.0472303
v 0.4420906 1.0057540 -0.0493847
v 0.4537935 1.0023060 -0.0513898
v 0.4646862 0.9967362 -0.0531772
v 0.4743977 0.9892344 -0.0546862
v 0.4825972 0.9800559 -0.0558654
v 0.4890056 0.9695134 -0.0566745
v 0.4934047 0.9579658 -0.0570861
v 0.5656446 0.5658064 -0.0570861
v 0.5656490 0.5534493 -0.0566745
v 0.5634179 0.5413153 -0.0558654
v 0.5590271 0.5298175 -0.0546862
v 0.5526262 0.5193476 -0.0531772
v 0.5444332 0.5102621 -0.0513898
v 0.5347271 0.5028703 -0.0493847
v 0.5238384 0.4974240 -0.0472303
v 0.5121379 0.4941086 -0.0450000
v 0.4300081 1.0069688 -0.0429548
v 0.4421537 1.0057656 -0.0409793
v 0.4538855 1.0023230 -0.0391407
v 0.4648039 0.9967579 -0.0375016
v 0.4745371 0.9892601 -0.0361178
v 0.4827536 0.9800847 -0.0350366
v 0.4891737 0.9695443 -0.0342946
v 0.4935787 0.9579979 -0.0339172
v 0.5658186 0.5658385 -0.0339172
v 0.5658171 0.5534803 -0.0342946
v 0.5635743 0.5413441 -0.0350366
v 0.5591665 0.5298432 -0.0361178
v 0.5527439 0.5193693 -0.0375016
v 0.5445252 0.5102790 -0.0391407
v 0.5347902 0.5028819 -0.0409793
v 0.5238705 0.4974299 -0.0429548
v 0.4286001 1.0067094 -0.0389260
v 0.4393858 1.0052558 -0.0330588
v 0.4498518 1.0015799 -0.0275983
v 0.4596418 0.9958070 -0.0227303
v 0.4684224 0.9881337 -0.0186207
v 0.4758946 0.9788212 -0.0154095
v 0.4818039 0.9681867 -0.0132059
v 0.4859491 0.9565924 -0.0120850
v 0.5581889 0.5644330 -0.0120850
v 0.5584473 0.5521227 -0.0132059
v 0.5567152 0.5400806 -0.0154095
v 0.5530519 0.5287168 -0.0186207
v 0.5475818 0.5184184 -0.0227303
v 0.5404915 0.5095360 -0.0275983
v 0.5320223 0.5023720 -0.0330588
v 0.5224625 0.4971705 -0.0389260
v 0.4259219 1.0062161 -0.0356298
v 0.4341206 1.0042859 -0.0265786
v 0.4421790 1.0001665 -0.0181548
v 0.4498226 0.9939982 -0.0106451
v 0.4567912 0.9859911 -0.0043054
v 0.4628475 0.9764178 0.0006485
v 0.4677851 0.9656043 0.0040480
v 0.4714361 0.9539190 0.0057771
v 0.5436759 0.5617596 0.0057771
v 0.5444285 0.5495403 0.0040480
v 0.5436681 0.5376772 0.0006485
v 0.5414206 0.5265743 -0.0043054
v 0.5377626 0.5166096 -0.0106451
v 0.5328187 0.5081226 -0.0181548
v 0.5267571 0.5014021 -0.0265786
v 0.5197844 0.4966772 -0.0356298
v 0.4222965 1.0055482 -0.0334637
v 0.4269933 1.0029729 -0.0223203
v 0.4317925 0.9982532 -0.0119492
v 0.4365306 0.9915497 -0.0027036
v 0.4410463 0.9830907 0.0051016
v 0.4451858 0.9731643 0.0112007
v 0.4488083 0.9621086 0.0153859
v 0.4517902 0.9503000 0.0175148
v 0.5240301 0.5581406 0.0175148
v 0.5254516 0.5460445 0.0153859
v 0.5260065 0.5344237 0.0112007
v 0.5256757 0.5236739 0.0051016
v 0.5244706 0.5141611 -0.0027036
v 0.5224321 0.5062092 -0.0119492
v 0.5196298 0.5000892 -0.0223203
v 0.5161590 0.4960094 -0.0334637
v 0.4181612 1.0047865 -0.0326891
v 0.4188635 1.0014753 -0.0207975
v 0.4199450 0.9960708 -0.0097301
v 0.4213689 0.9887567 0.0001363
v 0.4230868 0.9797824 0.0084656
v 0.4250400 0.9694533 0.0149742
v 0.4271622 0.9581212 0.0194404
v 0.4293810 0.9461720 0.0217122
v 0.5016209 0.5540126 0.0217122
v 0.5038056 0.5420571 0.0194404
v 0.5058607 0.5307127 0.0149742
v 0.5077162 0.5203655 0.0084656
v 0.5093089 0.5113681 0.0001363
v 0.5105847 0.5040268 -0.0097301
v 0.5115000 0.4985916 -0.0207975
v 0.5120237 0.4952476 -0.0326891
v 0.4140148 1.0040226 -0.0333994
v 0.4107118 0.9999737 -0.0221939
v 0.4080656 0.9938824 -0.0117650
v 0.4061664 0.9859563 -0.0024679
v 0.4050788 0.9764651 0.0053809
v 0.4048399 0.9657322 0.0115139
v 0.4054578 0.9541230 0.0157225
v 0.4069114 0.9420328 0.0178632
v 0.4791513 0.5498735 0.0178632
v 0.4821012 0.5380589 0.0157225
v 0.4856606 0.5269916 0.0115139
v 0.4897082 0.5170483 0.0053809
v 0.4941064 0.5085677 -0.0024679
v 0.4987053 0.5018385 -0.0117650
v 0.5033483 0.4970900 -0.0221939
v 0.5078772 0.4944838 -0.0333994
v 0.4103573 1.0033489 -0.0355089
v 0.4035213 0.9986492 -0.0263410
v 0.3975871 0.9919522 -0.0178086
v 0.3927567 0.9834861 -0.0102021
v 0.3891945 0.9735391 -0.0037806
v 0.3870219 0.9624499 0.0012373
v 0.3863129 0.9505963 0.0046805
v 0.3870916 0.9383818 0.0064320
v 0.4593314 0.5462224 0.0064320
v 0.4629563 0.5345322 0.0046805
v 0.4678425 0.5237093 0.0012373
v 0.4738239 0.5141222 -0.0037806
v 0.4806967 0.5060974 -0.0102021
v 0.4882268 0.4999083 -0.0178086
v 0.4961578 0.4957654 -0.0263410
v 0.5042197 0.4938100 -0.0355089
v 0.4076299 1.0028465 -0.0387632
v 0.3981595 0.9976614 -0.0327387
v 0.3897734 0.9905128 -0.0271318
v 0.3827571 0.9816440 -0.0221334
v 0.3773496 0.9713571 -0.0179137
v 0.3737351 0.9600024 -0.0146163
v 0.3720366 0.9479665 -0.0123537
v 0.3723120 0.9356593 -0.0112027
v 0.4445519 0.5434999 -0.0112027
v 0.4486800 0.5319024 -0.0123537
v 0.4545558 0.5212617 -0.0146163
v 0.4619790 0.5119403 -0.0179137
v 0.4706971 0.5042554 -0.0221334
v 0.4804130 0.4984689 -0.0271318
v 0.4907960 0.4947777 -0.0327387
v 0.5014923 0.4933076 -0.0387632
v 0.4061616 1.0025760 -0.0427697
v 0.3952729 0.9971297 -0.0406153
v 0.3855668 0.9897379 -0.0386102
v 0.3773738 0.9806524 -0.0368228
v 0.3709729 0.9701825 -0.0353138
v 0.3665821 0.9586847 -0.0341346
v 0.3643510 0.9465507 -0.0333255
v 0.3643554 0.9341936 -0.0329139
v 0.4365953 0.5420342 -0.0329139
v 0.4409944 0.5304866 -0.0333255
v 0.4474028 0.5199441 -0.0341346
v 0.4556023 0.5107656 -0.0353138
v 0.4653138 0.5032638 -0.0368228
v 0.4762065 0.4976940 -0.0386102
v 0.4879094 0.4942460 -0.0406153
v 0.5000240 0.4930371 -0.0427697
v 0.4061295 1.0025701 -0.0470452
v 0.3952098 0.9971181 -0.0490207
v 0.3854748 0.9897210 -0.0508593
v 0.3772561 0.9806307 -0.0524984
v 0.3708335 0.9701568 -0.0538822
v 0.3664257 0.9586559 -0.0549634
v 0.3641829 0.9465197 -0.0557054
v 0.3641814 0.9341615 -0.0560828
v 0.4364213 0.5420021 -0.0560828
v 0.4408263 0.5304557 -0.0557054
v 0.4472464 0.5199153 -0.0549634
v 0.4554629 0.5107399 -0.0538822
v 0.4651961 0.5032421 -0.0524984
v 0.4761145 0.4976770 -0.0508593
v 0.4878463 0.4942344 -0.0490207
v 0.4999919 0.4930312 -0.0470452
v 0.4075375 1.0028295 -0.0510740
v 0.3979777 0.9976280 -0.0569412
v 0.3895085 0.9904640 -0.0624017
v 0.3824182 0.9815816 -0.0672697
v 0.3769481 0.9712832 -0.0713793
v 0.3732848 0.9599194 -0.0745905
v 0.3715527 0.9478773 -0.0767941
v 0.3718111 0.9355670 -0.0779150
v 0.4440509 0.5434076 -0.0779150
v 0.4481961 0.5318133 -0.0767941
v 0.4541054 0.5211788 -0.0745905
v 0.4615776 0.5118663 -0.0713793
v 0.4703582 0.5041930 -0.0672697
v 0.4801482 0.4984201 -0.0624017
v 0.4906142 0.4947442 -0.0569412
v 0.5013999 0.4932906 -0.0510740
v 0.4102156 1.0033228 -0.0543702
v 0.4032429 0.9985979 -0.0634214
v 0.3971813 0.9918774 -0.0718452
v 0.3922374 0.9833904 -0.0793549
v 0.3885794 0.9734257 -0.0856946
v 0.3863319 0.9623228 -0.0906485
v 0.3855715 0.9504597 -0.0940480
v 0.3863241 0.9382404 -0.0957771
v 0.4585639 0.5460810 -0.0957771
v 0.4622149 0.5343957 -0.0940480
v 0.4671525 0.5235822 -0.0906485
v 0.4732088 0.5140089 -0.0856946
v 0.4801774 0.5060018 -0.0793549
v 0.4878210 0.4998335 -0.0718452
v 0.4958794 0.4957141 -0.0634214
v 0.5040781 0.4937839 -0.0543702
v 0.4138410 1.0039906 -0.0565363
v 0.4103702 0.9999108 -0.0676797
v 0.4075679 0.9937908 -0.0780508
v 0.4055294 0.9858389 -0.0872964
v 0.4043243 0.9763261 -0.0951016
v 0.4039935 0.9655763 -0.1012007
v 0.4045484 0.9539555 -0.1053859
v 0.4059699 0.9418594 -0.1075148
v 0.4782098 0.5497000 -0.1075148
v 0.4811917 0.5378914 -0.1053859
v 0.4848142 0.5268357 -0.1012007
v 0.4889537 0.5169093 -0.0951016
v 0.4934694 0.5084503 -0.0872964
v 0.4982075 0.5017468 -0.0780508
v 0.5030067 0.4970271 -0.0676797
v 0.5077035 0.4944518 -0.0565363
v 0.4179763 1.0047524 -0.0573109
v 0.4185000 1.0014084 -0.0692025
v 0.4194153 0.9959732 -0.0802699
v 0.4206911 0.9886319 -0.0901363
v 0.4222838 0.9796345 -0.0984656
v 0.4241393 0.9692873 -0.1049742
v 0.4261944 0.9579429 -0.1094404
v 0.4283791 0.9459874 -0.1117122
v 0.5006190 0.5538280 -0.1117122
v 0.5028378 0.5418788 -0.1094404
v 0.5049600 0.5305467 -0.1049742
v 0.5069132 0.5202176 -0.0984656
v 0.5086311 0.5112433 -0.0901363
v 0.5100550 0.5039292 -0.0802699
v 0.5111365 0.4985247 -0.0692025
v 0.5118388 0.4952135 -0.0573109
v 0.4221228 1.0055162 -0.0566006
v 0.4266517 1.0029100 -0.0678061
v 0.4312947 0.9981615 -0.0782350
v 0.4358936 0.9914323 -0.0875321
v 0.4402918 0.9829517 -0.0953809
v 0.4443394 0.9730084 -0.1015139
v 0.4478988 0.9619411 -0.1057225
v 0.4508487 0.9501265 -0.1078632
v 0.5230886 0.5579672 -0.1078632
v 0.5245422 0.5458770 -0.1057225
v 0.5251601 0.5342678 -0.1015139
v 0.5249212 0.5235349 -0.0953809
v 0.5238336 0.5140437 -0.0875321
v 0.5219344 0.5061176 -0.0782350
v 0.5192882 0.5000263 -0.0678061
v 0.5159852 0.4959774 -0.0566006
v 0.4257803 1.0061900 -0.0544911
v 0.4338422 1.0042346 -0.0636590
v 0.4417732 1.0000917 -0.0721914
v 0.4493033 0.9939026 -0.0797979
v 0.4561761 0.9858778 -0.0862194
v 0.4621575 0.9762907 -0.0912373
v 0.4670437 0.9654678 -0.0946805
v 0.4706686 0.9537776 -0.0964320
v 0.5429084 0.5616182 -0.0964320
v 0.5436871 0.5494037 -0.0946805
v 0.5429781 0.5375501 -0.0912373
v 0.5408055 0.5264609 -0.0862194
v 0.5372433 0.5165139 -0.0797979
v 0.5324129 0.5080478 -0.0721914
v 0.5264787 0.5013508 -0.0636590
v 0.5196427 0.4966511 -0.0544911
v 0.4285077 1.0066924 -0.0512368
v 0.4392040 1.0052223 -0.0572613
v 0.4495870 1.0015311 -0.0628682
v 0.4593029 0.9957446 -0.0678666
v 0.4680210 0.9880597 -0.0720863
v 0.4754442 0.9787383 -0.0753837
v 0.4813200 0.9680976 -0.0776463
v 0.4854481 0.9565001 -0.0787973
v 0.5576880 0.5643407 -0.0787973
v 0.5579634 0.5520335 -0.0776463
v 0.5562649 0.5399976 -0.0753837
v 0.5526504 0.5286429 -0.0720863
v 0.5472429 0.5183560 -0.0678666
v 0.5402266 0.5094872 -0.0628682
v 0.5318405 0.5023386 -0.0572613
v 0.5223701 0.4971535 -0.0512368
vn -0.1811624 0.9834532 0.0000000
vn 0.0095272 0.9993392 -0.0350760
vn 0.1896388 0.9795622 -0.0670454
vn 0.3630382 0.9267433 -0.0966962
vn 0.5239513 0.8428135 -0.1230467
vn 0.6670658 0.7307056 -0.1452324
vn 0.7876895 0.5942465 -0.1625310
vn 0.8818862 0.4380269 -0.1743825
vn 0.9465884 0.2672534 -0.1804050
vn 0.9796850 0.0875865 -0.1804050
vn 0.9800814 -0.0950328 -0.1743825
vn 0.9477334 -0.2745634 -0.1625310
vn 0.8836519 -0.4450471 -0.1452324
vn 0.7898787 -0.6007922 -0.1230467
vn 0.6694345 -0.7365509 -0.0966962
vn 0.5262379 -0.8476901 -0.0670454
vn 0.3649960 -0.9303481 -0.0350760
vn 0.1811624 -0.9834532 -0.0000000
vn 0.0100321 0.9994322 0.0321642
vn 0.1906039 0.9797399 0.0614798
vn 0.3644302 0.9269997 0.0886693
vn 0.5257226 0.8431398 0.1128324
vn 0.6691565 0.7310908 0.1331764
vn 0.7900291 0.5946775 0.1490390
vn 0.8843964 0.4384893 0.1599067
vn 0.9491854 0.2677317 0.1654293
vn 0.9822819 0.0880649 0.1654293
vn 0.9825916 -0.0945704 0.1599067
vn 0.9500731 -0.2741324 0.1490390
vn 0.8857425 -0.4446620 0.1331764
vn 0.7916499 -0.6004659 0.1128324
vn 0.6708265 -0.7362945 0.0886693
vn 0.5272030 -0.8475123 0.0614798
vn 0.3655009 -0.9302551 0.0321642
vn -0.0121103 0.9953534 0.0955249
vn 0.1482800 0.9719434 0.1825897
vn 0.3033885 0.9157552 0.2633399
vn 0.4480465 0.8288310 0.3351021
vn 0.5774752 0.7142021 0.3955221
vn 0.6874278 0.5757773 0.4426326
vn 0.7743135 0.4182108 0.4749087
vn 0.8353006 0.2467530 0.4913104
vn 0.8683971 0.0670861 0.4913104
vn 0.8725087 -0.1148489 0.4749087
vn 0.8474717 -0.2930326 0.4426326
vn 0.7940612 -0.4615506 0.3955221
vn 0.7139739 -0.6147746 0.3351021
vn 0.6097848 -0.7475390 0.2633399
vn 0.4848791 -0.8553089 0.1825897
vn 0.3433584 -0.9343340 0.0955249
vn -0.0542295 0.9875946 0.1473639
vn 0.0677719 0.9571130 0.2816766
vn 0.1872757 0.8943660 0.4062478
vn 0.3002921 0.8016131 0.5169537
vn 0.4030802 0.6820767 0.6101621
vn 0.4922606 0.5398254 0.6828382
vn 0.5649151 0.3796374 0.7326298
vn 0.6186702 0.2068474 0.7579323
vn 0.6517668 0.0271805 0.7579323
vn 0.6631103 -0.1534222 0.7326298
vn 0.6523046 -0.3289845 0.6828382
vn 0.6196662 -0.4936760 0.6101621
vn 0.5662195 -0.6419925 0.5169537
vn 0.4936720 -0.7689282 0.4062478
vn 0.4043710 -0.8701393 0.2816766
vn 0.3012392 -0.9420928 0.1473639
vn -0.1112452 0.9770917 0.1814286
vn -0.0412099 0.9370374 0.3467891
vn 0.0300968 0.8654120 0.5001563
vn 0.1002806 0.7647689 0.6364530
vn 0.1670060 0.6385893 0.7512075
vn 0.2280678 0.4911583 0.8406834
vn 0.2814576 0.3274216 0.9019849
vn 0.3254232 0.1528282 0.9331363
vn 0.3585197 -0.0268387 0.9331363
vn 0.3796528 -0.2056381 0.9019849
vn 0.3881117 -0.3776516 0.8406834
vn 0.3835920 -0.5371634 0.7512075
vn 0.3662080 -0.6788368 0.6364530
vn 0.3364931 -0.7978822 0.5001563
vn 0.2953892 -0.8902149 0.3467891
vn 0.2442235 -0.9525957 0.1814286
vn -0.1762805 0.9651115 0.1936104
vn -0.1655206 0.9141381 0.3700737
vn -0.1491902 0.8323854 0.5337385
vn -0.1278635 0.7227423 0.6791866
vn -0.1022733 0.5889853 0.8016461
vn -0.0732852 0.4356459 0.8971298
vn -0.0418697 0.2678613 0.9625473
vn -0.0090707 0.0912109 0.9957903
vn 0.0240258 -0.0884560 0.9957903
vn 0.0563256 -0.2651984 0.9625473
vn 0.0867587 -0.4331640 0.8971298
vn 0.1143127 -0.5867675 0.8016461
vn 0.1380638 -0.7208633 0.6791866
vn 0.1572061 -0.8309088 0.5337385
vn 0.1710785 -0.9131142 0.3700737
vn 0.1791882 -0.9645759 0.1936104
vn -0.2414911 0.9530990 0.1824399
vn -0.2901665 0.8911770 0.3487220
vn -0.3289606 0.7992698 0.5029440
vn -0.3566229 0.6806024 0.6400004
vn -0.3722787 0.5392474 0.7553945
vn -0.3754508 0.3799838 0.8453691
vn -0.3660687 0.2081404 0.9070123
vn -0.3444665 0.0294275 0.9383373
vn -0.3113699 -0.1502394 0.9383373
vn -0.2678735 -0.3249193 0.9070123
vn -0.2154069 -0.4888261 0.8453691
vn -0.1556926 -0.6365053 0.7553945
vn -0.0906955 -0.7630032 0.6400004
vn -0.0225643 -0.8640244 0.5029440
vn 0.0464326 -0.9360753 0.3487220
vn 0.1139776 -0.9765883 0.1824399
vn -0.2990117 0.9425031 0.1492644
vn -0.4001134 0.8709236 0.2853092
vn -0.4875315 0.7700594 0.4114870
vn -0.5584056 0.6434319 0.5236206
vn -0.6104435 0.4953750 0.6180311
vn -0.6419833 0.3308857 0.6916444
vn -0.6520364 0.1554622 0.7420782
vn -0.6403105 -0.0250701 0.7677070
vn -0.6072139 -0.2047370 0.7677070
vn -0.5538412 -0.3775975 0.7420782
vn -0.4819394 -0.5379241 0.6916444
vn -0.3938574 -0.6803778 0.6180311
vn -0.2924782 -0.8001737 0.5236206
vn -0.1811352 -0.8932348 0.4114870
vn -0.0635143 -0.9563287 0.2853092
vn 0.0564570 -0.9871843 0.1492644
vn -0.3419045 0.9346018 0.0980855
vn -0.4821002 0.8558208 0.1874840
vn -0.6057769 0.7482773 0.2703986
vn -0.7088738 0.6157141 0.3440845
vn -0.7880415 0.4626595 0.4061240
vn -0.8407350 0.2942736 0.4544972
vn -0.8652808 0.1161803 0.4876385
vn -0.8609195 -0.0657086 0.5044799
vn -0.8278230 -0.2453755 0.5044799
vn -0.7670855 -0.4168794 0.4876385
vn -0.6806911 -0.5745363 0.4544972
vn -0.5714555 -0.7130932 0.4061240
vn -0.4429464 -0.8278915 0.3440845
vn -0.2993806 -0.9150169 0.2703986
vn -0.1455010 -0.9714315 0.1874840
vn 0.0135642 -0.9950856 0.0980855
vn -0.3649960 0.9303481 0.0350760
vn -0.5262379 0.8476901 0.0670454
vn -0.6694345 0.7365509 0.0966962
vn -0.7898787 0.6007922 0.1230467
vn -0.8836519 0.4450471 0.1452324
vn -0.9477334 0.2745634 0.1625310
vn -0.9800814 0.0950328 0.1743825
vn -0.9796850 -0.0875865 0.1804050
vn -0.9465884 -0.2672534 0.1804050
vn -0.8818862 -0.4380269 0.1743825
vn -0.7876895 -0.5942465 0.1625310
vn -0.6670658 -0.7307056 0.1452324
vn -0.5239513 -0.8428135 0.1230467
vn -0.3630382 -0.9267433 0.0966962
vn -0.1896388 -0.9795622 0.0670454
vn -0.0095272 -0.9993392 0.0350760
vn -0.3655009 0.9302551 -0.0321642
vn -0.5272030 0.8475123 -0.0614798
vn -0.6708265 0.7362945 -0.0886693
vn -0.7916499 0.6004659 -0.1128324
vn -0.8857425 0.4446620 -0.1331764
vn -0.9500731 0.2741324 -0.1490390
vn -0.9825916 0.0945704 -0.1599067
vn -0.9822819 -0.0880649 -0.1654293
vn -0.9491854 -0.2677317 -0.1654293
vn -0.8843964 -0.4384893 -0.1599067
vn -0.7900291 -0.5946775 -0.1490390
vn -0.6691565 -0.7310908 -0.1331764
vn -0.5257226 -0.8431398 -0.1128324
vn -0.3644302 -0.9269997 -0.0886693
vn -0.1906039 -0.9797399 -0.0614798
vn -0.0100321 -0.9994322 -0.0321642
vn -0.3433584 0.9343340 -0.0955249
vn -0.4848791 0.8553089 -0.1825897
vn -0.6097848 0.7475390 -0.2633399
vn -0.7139739 0.6147746 -0.3351021
vn -0.7940612 0.4615506 -0.3955221
vn -0.8474717 0.2930326 -0.4426326
vn -0.8725087 0.1148489 -0.4749087
vn -0.8683971 -0.0670861 -0.4913104
vn -0.8353006 -0.2467530 -0.4913104
vn -0.7743135 -0.4182108 -0.4749087
vn -0.6874278 -0.5757773 -0.4426326
vn -0.5774752 -0.7142021 -0.3955221
vn -0.4480465 -0.8288310 -0.3351021
vn -0.3033885 -0.9157552 -0.2633399
vn -0.1482800 -0.9719434 -0.1825897
vn 0.0121103 -0.9953534 -0.0955249
vn -0.3012392 0.9420928 -0.1473639
vn -0.4043710 0.8701393 -0.2816766
vn -0.4936720 0.7689282 -0.4062478
vn -0.5662195 0.6419925 -0.5169537
vn -0.6196662 0.4936760 -0.6101621
vn -0.6523046 0.3289845 -0.6828382
vn -0.6631103 0.1534222 -0.7326298
vn -0.6517668 -0.0271805 -0.7579323
vn -0.6186702 -0.2068474 -0.7579323
vn -0.5649151 -0.3796374 -0.7326298
vn -0.4922606 -0.5398254 -0.6828382
vn -0.4030802 -0.6820767 -0.6101621
vn -0.3002921 -0.8016131 -0.5169537
vn -0.1872757 -0.8943660 -0.4062478
vn -0.0677719 -0.9571130 -0.2816766
vn 0.0542295 -0.9875946 -0.1473639
vn -0.2442235 0.9525957 -0.1814286
vn -0.2953892 0.8902149 -0.3467891
vn -0.3364931 0.7978822 -0.5001563
vn -0.3662080 0.6788368 -0.6364530
vn -0.3835920 0.5371634 -0.7512075
vn -0.3881117 0.3776516 -0.8406834
vn -0.3796528 0.2056381 -0.9019849
vn -0.3585197 0.0268387 -0.9331363
vn -0.3254232 -0.1528282 -0.9331363
vn -0.2814576 -0.3274216 -0.9019849
vn -0.2280678 -0.4911583 -0.8406834
vn -0.1670060 -0.6385893 -0.7512075
vn -0.1002806 -0.7647689 -0.6364530
vn -0.0300968 -0.8654120 -0.5001563
vn 0.0412099 -0.9370374 -0.3467891
vn 0.1112452 -0.9770917 -0.1814286
vn -0.1791882 0.9645759 -0.1936104
vn -0.1710785 0.9131142 -0.3700737
vn -0.1572061 0.8309088 -0.5337385
vn -0.1380638 0.7208633 -0.6791866
vn -0.1143127 0.5867675 -0.8016461
vn -0.0867587 0.4331640 -0.8971298
vn -0.0563256 0.2651984 -0.9625473
vn -0.0240258 0.0884560 -0.9957903
vn 0.0090707 -0.0912109 -0.9957903
vn 0.0418697 -0.2678613 -0.9625473
vn 0.0732852 -0.4356459 -0.8971298
vn 0.1022733 -0.5889853 -0.8016461
vn 0.1278635 -0.7227423 -0.6791866
vn 0.1491902 -0.8323854 -0.5337385
vn 0.1655206 -0.9141381 -0.3700737
vn 0.1762805 -0.9651115 -0.1936104
vn -0.1139776 0.9765883 -0.1824399
vn -0.0464326 0.9360753 -0.3487220
vn 0.0225643 0.8640244 -0.5029440
vn 0.0906955 0.7630032 -0.6400004
vn 0.1556926 0.6365053 -0.7553945
vn 0.2154069 0.4888261 -0.8453691
vn 0.2678735 0.3249193 -0.9070123
vn 0.3113699 0.1502394 -0.9383373
vn 0.3444665 -0.0294275 -0.9383373
vn 0.3660687 -0.2081404 -0.9070123
vn 0.3754508 -0.3799838 -0.8453691
vn 0.3722787 -0.5392474 -0.7553945
vn 0.3566229 -0.6806024 -0.6400004
vn 0.3289606 -0.7992698 -0.5029440
vn 0.2901665 -0.8911770 -0.3487220
vn 0.2414911 -0.9530990 -0.1824399
vn -0.0564570 0.9871843 -0.1492644
vn 0.0635143 0.9563287 -0.2853092
vn 0.1811352 0.8932348 -0.4114870
vn 0.2924782 0.8001737 -0.5236206
vn 0.3938574 0.6803778 -0.6180311
vn 0.4819394 0.5379241 -0.6916444
vn 0.5538412 0.3775975 -0.7420782
vn 0.6072139 0.2047370 -0.7677070
vn 0.6403105 0.0250701 -0.7677070
vn 0.6520364 -0.1554622 -0.7420782
vn 0.6419833 -0.3308857 -0.6916444
vn 0.6104435 -0.4953750 -0.6180311
vn 0.5584056 -0.6434319 -0.5236206
vn 0.4875315 -0.7700594 -0.4114870
vn 0.4001134 -0.8709236 -0.2853092
vn 0.2990117 -0.9425031 -0.1492644
vn -0.0135642 0.9950856 -0.0980855
vn 0.1455010 0.9714315 -0.1874840
vn 0.2993806 0.9150169 -0.2703986
vn 0.4429464 0.8278915 -0.3440845
vn 0.5714555 0.7130932 -0.4061240
vn 0.6806911 0.5745363 -0.4544972
vn 0.7670855 0.4168794 -0.4876385
vn 0.8278230 0.2453755 -0.5044799
vn 0.8609195 0.0657086 -0.5044799
vn 0.8652808 -0.1161803 -0.4876385
vn 0.8407350 -0.2942736 -0.4544972
vn 0.7880415 -0.4626595 -0.4061240
vn 0.7088738 -0.6157141 -0.3440845
vn 0.6057769 -0.7482773 -0.2703986
vn 0.4821002 -0.8558208 -0.1874840
vn 0.3419045 -0.9346018 -0.0980855
f 2//2 1//1 19//19
f 2//2 19//19 3//3
f 3//3 19//19 20//20
f 3//3 20//20 4//4
f 4//4 20//20 21//21
f 4//4 21//21 5//5
f 5//5 21//21 22//22
f 5//5 22//22 6//6
f 6//6 22//22 23//23
f 6//6 23//23 7//7
f 7//7 23//23 24//24
f 7//7 24//24 8//8
f 8//8 24//24 25//25
f 8//8 25//25 9//9
f 9//9 25//25 26//26
f 9//9 26//26 10//10
f 10//10 26//26 27//27
f 10//10 27//27 11//11
f 11//11 27//27 28//28
f 11//11 28//28 12//12
f 12//12 28//28 29//29
f 12//12 29//29 13//13
f 13//13 29//29 30//30
f 13//13 30//30 14//14
f 14//14 30//30 31//31
f 14//14 31//31 15//15
f 15//15 31//31 32//32
f 15//15 32//32 16//16
f 16//16 32//32 33//33
f 16//16 33//33 17//17
f 17//17 33//33 34//34
f 17//17 34//34 18//18
f 19//19 1//1 35//35
f 19//19 35//35 20//20
f 20//20 35//35 36//36
f 20//20 36//36 21//21
f 21//21 36//36 37//37
f 21//21 37//37 22//22
f 22//22 37//37 38//38
f 22//22 38//38 23//23
f 23//23 38//38 39//39
f 23//23 39//39 24//24
f 24//24 39//39 40//40
f 24//24 40//40 25//25
f 25//25 40//40 41//41
f 25//25 41//41 26//26
f 26//26 41//41 42//42
f 26//26 42//42 27//27
f 27//27 42//42 43//43
f 27//27 43//43 28//28
f 28//28 43//43 44//44
f 28//28 44//44 29//29
f 29//29 44//44 45//45
f 29//29 45//45 30//30
f 30//30 45//45 46//46
f 30//30 46//46 31//31
f 31//31 46//46 47//47
f 31//31 47//47 32//32
f 32//32 47//47 48//48
f 32//32 48//48 33//33
f 33//33 48//48 49//49
f 33//33 49//49 34//34
f 34//34 49//49 50//50
f 34//34 50//50 18//18
f 35//35 1//1 51//51
f 35//35 51//51 36//36
f 36//36 51//51 52//52
f 36//36 52//52 37//37
f 37//37 52//52 53//53
f 37//37 53//53 38//38
f 38//38 53//53 54//54
f 38//38 54//54 39//39
f 39//39 54//54 55//55
f 39//39 55//55 40//40
f 40//40 55//55 56//56
f 40//40 56//56 41//41
f 41//41 56//56 57//57
f 41//41 57//57 42//42
f 42//42 57//57 58//58
f 42//42 58//58 43//43
f 43//43 58//58 59//59
f 43//43 59//59 44//44
f 44//44 59//59 60//60
f 44//44 60//60 45//45
f 45//45 60//60 61//61
f 45//45 61//61 46//46
f 46//46 61//61 62//62
f 46//46 62//62 47//47
f 47//47 62//62 63//63
f 47//47 63//63 48//48
f 48//48 63//63 64//64
f 48//48 64//64 49//49
f 49//49 64//64 65//65
f 49//49 65//65 50//50
f 50//50 65//65 66//66
f 50//50 66//66 18//18
f 51//51 1//1 67//67
f 51//51 67//67 52//52
f 52//52 67//67 68//68
f 52//52 68//68 53//53
f 53//53 68//68 69//69
f 53//53 69//69 54//54
f 54//54 69//69 70//70
f 54//54 70//70 55//55
f 55//55 70//70 71//71
f 55//55 71//71 56//56
f 56//56 71//71 72//72
f 56//56 72//72 57//57
f 57//57 72//72 73//73
f 57//57 73//73 58//58
f 58//58 73//73 74//74
f 58//58 74//74 59//59
f 59//59 74//74 75//75
f 59//59 75//75 60//60
f 60//60 75//75 76//76
f 60//60 76//76 61//61
f 61//61 76//76 77//77
f 61//61 77//77 62//62
f 62//62 77//77 78//78
f 62//62 78//78 63//63
f 63//63 78//78 79//79
f 63//63 79//79 64//64
f 64//64 79//79 80//80
f 64//64 80//80 65//65
f 65//65 80//80 81//81
f 65//65 81//81 66//66
f 66//66 81//81 82//82
f 66//66 82//82 18//18
f 67//67 1//1 83//83
f 67//67 83//83 68//68
f 68//68 83//83 84//84
f 68//68 84//84 69//69
f 69//69 84//84 85//85
f 69//69 85//85 70//70
f 70//70 85//85 86//86
f 70//70 86//86 71//71
f 71//71 86//86 87//87
f 71//71 87//87 72//72
f 72//72 87//87 88//88
f 72//72 88//88 73//73
f 73//73 88//88 89//89
f 73//73 89//89 74//74
f 74//74 89//89 90//90
f 74//74 90//90 75//75
f 75//75 90//90 91//91
f 75//75 91//91 76//76
f 76//76 91//91 92//92
f 76//76 92//92 77//77
f 77//77 92//92 93//93
f 77//77 93//93 78//78
f 78//78 93//93 94//94
f 78//78 94//94 79//79
f 79//79 94//94 95//95
f 79//79 95//95 80//80
f 80//80 95//95 96//96
f 80//80 96//96 81//81
f 81//81 96//96 97//97
f 81//81 97//97 82//82
f 82//82 97//97 98//98
f 82//82 98//98 18//18
f 83//83 1//1 99//99
f 83//83 99//99 84//84
f 84//84 99//99 100//100
f 84//84 100//100 85//85
f 85//85 100//100 101//101
f 85//85 101//101 86//86
f 86//86 101//101 102//102
f 86//86 102//102 87//87
f 87//87 102//102 103//103
f 87//87 103//103 88//88
f 88//88 103//103 104//104
f 88//88 104//104 89//89
f 89//89 104//104 105//105
f 89//89 105//105 90//90
f 90//90 105//105 106//106
f 90//90 106//106 91//91
f 91//91 106//106 107//107
f 91//91 107//107 92//92
f 92//92 107//107 108//108
f 92//92 108//108 93//93
f 93//93 108//108 109//109
f 93//93 109//109 94//94
f 94//94 109//109 110//110
f 94//94 110//110 95//95
f 95//95 110//110 111//111
f 95//95 111//111 96//96
f 96//96 111//111 112//112
f 96//96 112//112 97//97
f 97//97 112//112 113//113
f 97//97 113//113 98//98
f 98//98 113//113 114//114
f 98//98 114//114 18//18
f 99//99 1//1 115//115
f 99//99 115//115 100//100
f 100//100 115//115 116//116
f 100//100 116//116 101//101
f 101//101 116//116 117//117
f 101//101 117//117 102//102
f 102//102 117//117 118//118
f 102//102 118//118 103//103
f 103//103 118//118 119//119
f 103//103 119//119 104//104
f 104//104 119//119 120//120
f 104//104 120//120 105//105
f 105//105 120//120 121//121
f 105//105 121//121 106//106
f 106//106 121//121 122//122
f 106//106 122//122 107//107
f 107//107 122//122 123//123
f 107//107 123//123 108//108
f 108//108 123//123 124//124
f 108//108 124//124 109//109
f 109//109 124//124 125//125
f 109//109 125//125 110//110
f 110//110 125//125 126//126
f 110//110 126//126 111//111
f 111//111 126//126 127//127
f 111//111 127//127 112//112
f 112//112 127//127 128//128
f 112//112 128//128 113//113
f 113//113 128//128 129//129
f 113//113 129//129 114//114
f 114//114 129//129 130//130
f 114//114 130//130 18//18
f 115//115 1//1 131//131
f 115//115 131//131 116//116
f 116//116 131//131 132//132
f 116//116 132//132 117//117
f 117//117 132//132 133//133
f 117//117 133//133 118//118
f 118//118 133//133 134//134
f 118//118 134//134 119//119
f 119//119 134//134 135//135
f 119//119 135//135 120//120
f 120//120 135//135 136//136
f 120//120 136//136 121//121
f 121//121 136//136 137//137
f 121//121 137//137 122//122
f 122//122 137//137 138//138
f 122//122 138//138 123//123
f 123//123 138//138 139//139
f 123//123 139//139 124//124
f 124//124 139//139 140//140
f 124//124 140//140 125//125
f 125//125 140//140 141//141
f 125//125 141//141 126//126
f 126//126 141//141 142//142
f 126//126 142//142 127//127
f 127//127 142//142 143//143
f 127//127 143//143 128//128
f 128//128 143//143 144//144
f 128//128 144//144 129//129
f 129//129 144//144 145//145
f 129//129 145//145 130//130
f 130//130 145//145 146//146
f 130//130 146//146 18//18
f 131//131 1//1 147//147
f 131//131 147//147 132//132
f 132//132 147//147 148//148
f 132//132 148//148 133//133
f 133//133 148//148 149//149
f 133//133 149//149 134//134
f 134//134 149//149 150//150
f 134//134 150//150 135//135
f 135//135 150//150 151//151
f 135//135 151//151 136//136
f 136//136 151//151 152//152
f 136//136 152//152 137//137
f 137//137 152//152 153//153
f 137//137 153//153 138//138
f 138//138 153//153 154//154
f 138//138 154//154 139//139
f 139//139 154//154 155//155
f 139//139 155//155 140//140
f 140//140 155//155 156//156
f 140//140 156//156 141//141
f 141//141 156//156 157//157
f 141//141 157//157 142//142
f 142//142 157//157 158//158
f 142//142 158//158 143//143
f 143//143 158//158 159//159
f 143//143 159//159 144//144
f 144//144 159//159 160//160
f 144//144 160//160 145//145
f 145//145 160//160 161//161
f 145//145 161//161 146//146
f 146//146 161//161 162//162
f 146//146 162//162 18//18
f 147//147 1//1 163//163
f 147//147 163//163 148//148
f 148//148 163//163 164//164
f 148//148 164//164 149//149
f 149//149 164//164 165//165
f 149//149 165//165 150//150
f 150//150 165//165 166//166
f 150//150 166//166 151//151
f 151//151 166//166 167//167
f 151//151 167//167 152//152
f 152//152 167//167 168//168
f 152//152 168//168 153//153
f 153//153 168//168 169//169
f 153//153 169//169 154//154
f 154//154 169//169 170//170
f 154//154 170//170 155//155
f 155//155 170//170 171//171
f 155//155 171//171 156//156
f 156//156 171//171 172//172
f 156//156 172//172 157//157
f 157//157 172//172 173//173
f 157//157 173//173 158//158
f 158//158 173//173 174//174
f 158//158 174//174 159//159
f 159//159 174//174 175//175
f 159//159 175//175 160//160
f 160//160 175//175 176//176
f 160//160 176//176 161//161
f 161//161 176//176 177//177
f 161//161 177//177 162//162
f 162//162 177//177 178//178
f 162//162 178//178 18//18
f 163//163 1//1 179//179
f 163//163 179//179 164//164
f 164//164 179//179 180//180
f 164//164 180//180 165//165
f 165//165 180//180 181//181
f 165//165 181//181 166//166
f 166//166 181//181 182//182
f 166//166 182//182 167//167
f 167//167 182//182 183//183
f 167//167 183//183 168//168
f 168//168 183//183 184//184
f 168//168 184//184 169//169
f 169//169 184//184 185//185
f 169//169 185//185 170//170
f 170//170 185//185 186//186
f 170//170 186//186 171//171
f 171//171 186//186 187//187
f 171//171 187//187 172//172
f 172//172 187//187 188//188
f 172//172 188//188 173//173
f 173//173 188//188 189//189
f 173//173 189//189 174//174
f 174//174 189//189 190//190
f 174//174 190//190 175//175
f 175//175 190//190 191//191
f 175//175 191//191 176//176
f 176//176 191//191 192//192
f 176//176 192//192 177//177
f 177//177 192//192 193//193
f 177//177 193//193 178//178
f 178//178 193//193 194//194
f 178//178 194//194 18//18
f 179//179 1//1 195//195
f 179//179 195//195 180//180
f 180//180 195//195 196//196
f 180//180 196//196 181//181
f 181//181 196//196 197//197
f 181//181 197//197 182//182
f 182//182 197//197 198//198
f 182//182 198//198 183//183
f 183//183 198//198 199//199
f 183//183 199//199 184//184
f 184//184 199//199 200//200
f 184//184 200//200 185//185
f 185//185 200//200 201//201
f 185//185 201//201 186//186
f 186//186 201//201 202//202
f 186//186 202//202 187//187
f 187//187 202//202 203//203
f 187//187 203//203 188//188
f 188//188 203//203 204//204
f 188//188 204//204 189//189
f 189//189 204//204 205//205
f 189//189 205//205 190//190
f 190//190 205//205 206//206
f 190//190 206//206 191//191
f 191//191 206//206 207//207
f 191//191 207//207 192//192
f 192//192 207//207 208//208
f 192//192 208//208 193//193
f 193//193 208//208 209//209
f 193//193 209//209 194//194
f 194//194 209//209 210//210
f 194//194 210//210 18//18
f 195//195 1//1 211//211
f 195//195 211//211 196//196
f 196//196 211//211 212//212
f 196//196 212//212 197//197
f 197//197 212//212 213//213
f 197//197 213//213 198//198
f 198//198 213//213 214//214
f 198//198 214//214 199//199
f 199//199 214//214 215//215
f 199//199 215//215 200//200
f 200//200 215//215 216//216
f 200//200 216//216 201//201
f 201//201 216//216 217//217
f 201//201 217//217 202//202
f 202//202 217//217 218//218
f 202//202 218//218 203//203
f 203//203 218//218 219//219
f 203//203 219//219 204//204
f 204//204 219//219 220//220
f 204//204 220//220 205//205
f 205//205 220//220 221//221
f 205//205 221//221 206//206
f 206//206 221//221 222//222
f 206//206 222//222 207//207
f 207//207 222//222 223//223
f 207//207 223//223 208//208
f 208//208 223//223 224//224
f 208//208 224//224 209//209
f 209//209 224//224 225//225
f 209//209 225//225 210//210
f 210//210 225//225 226//226
f 210//210 226//226 18//18
f 211//211 1//1 227//227
f 211//211 227//227 212//212
f 212//212 227//227 228//228
f 212//212 228//228 213//213
f 213//213 228//228 229//229
f 213//213 229//229 214//214
f 214//214 229//229 230//230
f 214//214 230//230 215//215
f 215//215 230//230 231//231
f 215//215 231//231 216//216
f 216//216 231//231 232//232
f 216//216 232//232 217//217
f 217//217 232//232 233//233
f 217//217 233//233 218//218
f 218//218 233//233 234//234
f 218//218 234//234 219//219
f 219//219 234//234 235//235
f 219//219 235//235 220//220
f 220//220 235//235 236//236
f 220//220 236//236 221//221
f 221//221 236//236 237//237
f 221//221 237//237 222//222
f 222//222 237//237 238//238
f 222//222 238//238 223//223
f 223//223 238//238 239//239
f 223//223 239//239 224//224
f 224//224 239//239 240//240
f 224//224 240//240 225//225
f 225//225 240//240 241//241
f 225//225 241//241 226//226
f 226//226 241//241 242//242
f 226//226 242//242 18//18
f 227//227 1//1 243//243
f 227//227 243//243 228//228
f 228//228 243//243 244//244
f 228//228 244//244 229//229
f 229//229 244//244 245//245
f 229//229 245//245 230//230
f 230//230 245//245 246//246
f 230//230 246//246 231//231
f 231//231 246//246 247//247
f 231//231 247//247 232//232
f 232//232 247//247 248//248
f 232//232 248//248 233//233
f 233//233 248//248 249//249
f 233//233 249//249 234//234
f 234//234 249//249 250//250
f 234//234 250//250 235//235
f 235//235 250//250 251//251
f 235//235 251//251 236//236
f 236//236 251//251 252//252
f 236//236 252//252 237//237
f 237//237 252//252 253//253
f 237//237 253//253 238//238
f 238//238 253//253 254//254
f 238//238 254//254 239//239
f 239//239 254//254 255//255
f 239//239 255//255 240//240
f 240//240 255//255 256//256
f 240//240 256//256 241//241
f 241//241 256//256 257//257
f 241//241 257//257 242//242
f 242//242 257//257 258//258
f 242//242 258//258 18//18
f 243//243 1//1 259//259
f 243//243 259//259 244//244
f 244//244 259//259 260//260
f 244//244 260//260 245//245
f 245//245 260//260 261//261
f 245//245 261//261 246//246
f 246//246 261//261 262//262
f 246//246 262//262 247//247
f 247//247 262//262 263//263
f 247//247 263//263 248//248
f 248//248 263//263 264//264
f 248//248 264//264 249//249
f 249//249 264//264 265//265
f 249//249 265//265 250//250
f 250//250 265//265 266//266
f 250//250 266//266 251//251
f 251//251 266//266 267//267
f 251//251 267//267 252//252
f 252//252 267//267 268//268
f 252//252 268//268 253//253
f 253//253 268//268 269//269
f 253//253 269//269 254//254
f 254//254 269//269 270//270
f 254//254 270//270 255//255
f 255//255 270//270 271//271
f 255//255 271//271 256//256
f 256//256 271//271 272//272
f 256//256 272//272 257//257
f 257//257 272//272 273//273
f 257//257 273//273 258//258
f 258//258 273//273 274//274
f 258//258 274//274 18//18
f 259//259 1//1 275//275
f 259//259 275//275 260//260
f 260//260 275//275 276//276
f 260//260 276//276 261//261
f 261//261 276//276 277//277
f 261//261 277//277 262//262
f 262//262 277//277 278//278
f 262//262 278//278 263//263
f 263//263 278//278 279//279
f 263//263 279//279 264//264
f 264//264 279//279 280//280
f 264//264 280//280 265//265
f 265//265 280//280 281//281
f 265//265 281//281 266//266
f 266//266 281//281 282//282
f 266//266 282//282 267//267
f 267//267 282//282 283//283
f 267//267 283//283 268//268
f 268//268 283//283 284//284
f 268//268 284//284 269//269
f 269//269 284//284 285//285
f 269//269 285//285 270//270
f 270//270 285//285 286//286
f 270//270 286//286 271//271
f 271//271 286//286 287//287
f 271//271 287//287 272//272
f 272//272 287//287 288//288
f 272//272 288//288 273//273
f 273//273 288//288 289//289
f 273//273 289//289 274//274
f 274//274 289//289 290//290
f 274//274 290//290 18//18
f 275//275 1//1 2//2
f 275//275 2//2 276//276
f 276//276 2//2 3//3
f 276//276 3//3 277//277
f 277//277 3//3 4//4
f 277//277 4//4 278//278
f 278//278 4//4 5//5
f 278//278 5//5 279//279
f 279//279 5//5 6//6
f 279//279 6//6 280//280
f 280//280 6//6 7//7
f 280//280 7//7 281//281
f 281//281 7//7 8//8
f 281//281 8//8 282//282
f 282//282 8//8 9//9
f 282//282 9//9 283//283
f 283//283 9//9 10//10
f 283//283 10//10 284//284
f 284//284 10//10 11//11
f 284//284 11//11 285//285
f 285//285 11//11 12//12
f 285//285 12//12 286//286
f 286//286 12//12 13//13
f 286//286 13//13 287//287
f 287//287 13//13 14//14
f 287//287 14//14 288//288
f 288//288 14//14 15//15
f 288//288 15//15 289//289
f 289//289 15//15 16//16
f 289//289 16//16 290//290
f 290//290 16//16 17//17
f 290//290 17//17 18//18

