# https://github.com/mikedh/trimesh
v -0.5046278 0.5477507 0.0200000
v -0.4941533 0.5457845 0.0209871
v -0.4842183 0.5419186 0.0219406
v -0.4751614 0.5362847 0.0228281
v -0.4672908 0.5290746 0.0236192
v -0.4608746 0.5205339 0.0242871
v -0.4561314 0.5109534 0.0248090
v -0.4532225 0.5006594 0.0251671
v -0.4522472 0.4900023 0.0253492
v -0.4932386 0.0493452 0.0253492
v -0.4961629 0.0390509 0.0251671
v -0.5009205 0.0294700 0.0248090
v -0.5073495 0.0209288 0.0242871
v -0.5152309 0.0137181 0.0236192
v -0.5242964 0.0080835 0.0228281
v -0.5342371 0.0042168 0.0219406
v -0.5447146 0.0022498 0.0209871
v -0.5553722 0.0022493 0.0200000
v -0.4951267 0.5458750 0.0245570
v -0.4861320 0.5420966 0.0289588
v -0.4779501 0.5365441 0.0330556
v -0.4708596 0.5294066 0.0367077
v -0.4651020 0.5209272 0.0397909
v -0.4608733 0.5113945 0.0422001
v -0.4583176 0.5011333 0.0438533
v -0.4575219 0.4904930 0.0446943
v -0.4985133 0.0498359 0.0446943
v -0.5012580 0.0395249 0.0438533
v -0.5056625 0.0299111 0.0422001
v -0.5115769 0.0213220 0.0397909
v -0.5187997 0.0140501 0.0367077
v -0.5270851 0.0083429 0.0330556
v -0.5361507 0.0043948 0.0289588
v -0.5456880 0.0023403 0.0245570
v -0.4972570 0.5460732 0.0275772
v -0.4903202 0.5424862 0.0348964
v -0.4840535 0.5371119 0.0417083
v -0.4786704 0.5301332 0.0477810
v -0.4743542 0.5217878 0.0529076
v -0.4712519 0.5123600 0.0569136
v -0.4694690 0.5021707 0.0596625
v -0.4690665 0.4915669 0.0610608
v -0.5100578 0.0509098 0.0610608
v -0.5124094 0.0405622 0.0596625
v -0.5160410 0.0308766 0.0569136
v -0.5208291 0.0221827 0.0529076
v -0.5266106 0.0147767 0.0477810
v -0.5331885 0.0089106 0.0417083
v -0.5403390 0.0047844 0.0348964
v -0.5478184 0.0025385 0.0275772
v -0.5002875 0.5463551 0.0296835
v -0.4962779 0.5430404 0.0390373
v -0.4927356 0.5379195 0.0477428
v -0.4897812 0.5311668 0.0555035
v -0.4875153 0.5230121 0.0620552
v -0.4860152 0.5137333 0.0671748
v -0.4853318 0.5036463 0.0706879
v -0.4854884 0.4930945 0.0724748
v -0.5264798 0.0524374 0.0724748
v -0.5282721 0.0420378 0.0706879
v -0.5308043 0.0322499 0.0671748
v -0.5339902 0.0234070 0.0620552
v -0.5377214 0.0158102 0.0555035
v -0.5418706 0.0097183 0.0477428
v -0.5462967 0.0053386 0.0390373
v -0.5508489 0.0028204 0.0296835
v -0.5038525 0.5466867 0.0306219
v -0.5032865 0.5436924 0.0408820
v -0.5029491 0.5388696 0.0504310
v -0.5028518 0.5323826 0.0589438
v -0.5029980 0.5244524 0.0661303
v -0.5033826 0.5153489 0.0717460
v -0.5039925 0.5053821 0.0755995
v -0.5048071 0.4948916 0.0775596
v -0.5457984 0.0542345 0.0775596
v -0.5469329 0.0437737 0.0755995
v -0.5481717 0.0338655 0.0717460
v -0.5494729 0.0248473 0.0661303
v -0.5507920 0.0170261 0.0589438
v -0.5520841 0.0106684 0.0504310
v -0.5533053 0.0059906 0.0408820
v -0.5544139 0.0031520 0.0306219
v -0.5075220 0.5470281 0.0302790
v -0.5105006 0.5443635 0.0402080
v -0.5134622 0.5398476 0.0494488
v -0.5163058 0.5336342 0.0576868
v -0.5189347 0.5259348 0.0646414
v -0.5212593 0.5170118 0.0700758
v -0.5232006 0.5071689 0.0738050
v -0.5246922 0.4967414 0.0757018
v -0.5656836 0.0560843 0.0757018
v -0.5661409 0.0455605 0.0738050
v -0.5660485 0.0355284 0.0700758
v -0.5654096 0.0263297 0.0646414
v -0.5642459 0.0182776 0.0576868
v -0.5625972 0.0116463 0.0494488
v -0.5605194 0.0066617 0.0402080
v -0.5580834 0.0034934 0.0302790
v -0.5108535 0.5473380 0.0286964
v -0.5170502 0.5449727 0.0370967
v -0.5230067 0.5407354 0.0449147
v -0.5285203 0.5347704 0.0518843
v -0.5334033 0.5272808 0.0577681
v -0.5374892 0.5185216 0.0623658
v -0.5406391 0.5087911 0.0655208
v -0.5427455 0.4984208 0.0671256
v -0.5837369 0.0577636 0.0671256
v -0.5835794 0.0471827 0.0655208
v -0.5822784 0.0370382 0.0623658
v -0.5798782 0.0276757 0.0577681
v -0.5764605 0.0194139 0.0518843
v -0.5721417 0.0125342 0.0449147
v -0.5670689 0.0072709 0.0370967
v -0.5614149 0.0038033 0.0286964
v -0.5134452 0.5475791 0.0260649
v -0.5221452 0.5454467 0.0319232
v -0.5304316 0.5414261 0.0373755
v -0.5380222 0.5356543 0.0422361
v -0.5446586 0.5283278 0.0463394
v -0.5501147 0.5196960 0.0495459
v -0.5542047 0.5100530 0.0517461
v -0.5567895 0.4997272 0.0528653
v -0.5977808 0.0590701 0.0528653
v -0.5971451 0.0484446 0.0517461
v -0.5949038 0.0382127 0.0495459
v -0.5911335 0.0287227 0.0463394
v -0.5859623 0.0202978 0.0422361
v -0.5795666 0.0132249 0.0373755
v -0.5721639 0.0077449 0.0319232
v -0.5640065 0.0040444 0.0260649
v -0.5149843 0.5477222 0.0227018
v -0.5251710 0.5457281 0.0253116
v -0.5348411 0.5418363 0.0277405
v -0.5436653 0.5361792 0.0299058
v -0.5513431 0.5289496 0.0317338
v -0.5576129 0.5203935 0.0331622
v -0.5622613 0.5108025 0.0341424
v -0.5651301 0.5005031 0.0346410
v -0.6061215 0.0598459 0.0346410
v -0.6052017 0.0491941 0.0341424
v -0.6024020 0.0389102 0.0331622
v -0.5978179 0.0293445 0.0317338
v -0.5916055 0.0208227 0.0299058
v -0.5839761 0.0136351 0.0277405
v -0.5751898 0.0080264 0.0253116
v -0.5655457 0.0041875 0.0227018
v -0.5152854 0.5477502 0.0190129
v -0.5257629 0.5457832 0.0180594
v -0.5357036 0.5419165 0.0171719
v -0.5447691 0.5362819 0.0163808
v -0.5526505 0.5290712 0.0157129
v -0.5590795 0.5205300 0.0151910
v -0.5638371 0.5109491 0.0148329
v -0.5667614 0.5006548 0.0146508
v -0.6077528 0.0599977 0.0146508
v -0.6067775 0.0493406 0.0148329
v -0.6038686 0.0390466 0.0151910
v -0.5991254 0.0294661 0.0157129
v -0.5927092 0.0209254 0.0163808
v -0.5848386 0.0137153 0.0171719
v -0.5757817 0.0080814 0.0180594
v -0.5658467 0.0042155 0.0190129
v -0.5143120 0.5476597 0.0154430
v -0.5238493 0.5456052 0.0110412
v -0.5329149 0.5416571 0.0069444
v -0.5412003 0.5359499 0.0032923
v -0.5484231 0.5286780 0.0002091
v -0.5543375 0.5200889 -0.0022001
v -0.5587420 0.5104751 -0.0038533
v -0.5614867 0.5001641 -0.0046943
v -0.6024781 0.0595070 -0.0046943
v -0.6016824 0.0488667 -0.0038533
v -0.5991267 0.0386055 -0.0022001
v -0.5948980 0.0290728 0.0002091
v -0.5891404 0.0205934 0.0032923
v -0.5820499 0.0134559 0.0069444
v -0.5738680 0.0079034 0.0110412
v -0.5648733 0.0041250 0.0154430
v -0.5121816 0.5474615 0.0124228
v -0.5196610 0.5452156 0.0051036
v -0.5268115 0.5410894 -0.0017083
v -0.5333894 0.5352233 -0.0077810
v -0.5391709 0.5278173 -0.0129076
v -0.5439590 0.5191234 -0.0169136
v -0.5475906 0.5094378 -0.0196625
v -0.5499422 0.4990902 -0.0210608
v -0.5909335 0.0584331 -0.0210608
v -0.5905310 0.0478293 -0.0196625
v -0.5887481 0.0376400 -0.0169136
v -0.5856458 0.0282122 -0.0129076
v -0.5813296 0.0198668 -0.0077810
v -0.5759465 0.0128881 -0.0017083
v -0.5696798 0.0075138 0.0051036
v -0.5627430 0.0039268 0.0124228
v -0.5091511 0.5471796 0.0103165
v -0.5137033 0.5446614 0.0009627
v -0.5181294 0.5402817 -0.0077428
v -0.5222786 0.5341898 -0.0155035
v -0.5260098 0.5265930 -0.0220552
v -0.5291957 0.5177501 -0.0271748
v -0.5317279 0.5079622 -0.0306879
v -0.5335202 0.4975626 -0.0324748
v -0.5745116 0.0569055 -0.0324748
v -0.5746682 0.0463537 -0.0306879
v -0.5739848 0.0362667 -0.0271748
v -0.5724847 0.0269879 -0.0220552
v -0.5702188 0.0188332 -0.0155035
v -0.5672644 0.0120805 -0.0077428
v -0.5637221 0.0069596 0.0009627
v -0.5597125 0.0036449 0.0103165
v -0.5055861 0.5468480 0.0093781
v -0.5066947 0.5440094 -0.0008820
v -0.5079159 0.5393316 -0.0104310
v -0.5092080 0.5329739 -0.0189438
v -0.5105271 0.5251527 -0.0261303
v -0.5118283 0.5161345 -0.0317460
v -0.5130671 0.5062263 -0.0355995
v -0.5142016 0.4957655 -0.0375596
v -0.5551929 0.0551084 -0.0375596
v -0.5560075 0.0446179 -0.0355995
v -0.5566174 0.0346511 -0.0317460
v -0.5570020 0.0255476 -0.0261303
v -0.5571482 0.0176174 -0.0189438
v -0.5570509 0.0111304 -0.0104310
v -0.5567135 0.0063076 -0.0008820
v -0.5561475 0.0033133 0.0093781
v -0.5019166 0.5465066 0.0097210
v -0.4994806 0.5433383 -0.0002080
v -0.4974028 0.5383537 -0.0094488
v -0.4957541 0.5317224 -0.0176868
v -0.4945904 0.5236703 -0.0246414
v -0.4939515 0.5144716 -0.0300758
v -0.4938591 0.5044395 -0.0338050
v -0.4943164 0.4939157 -0.0357018
v -0.5353078 0.0532586 -0.0357018
v -0.5367994 0.0428311 -0.0338050
v -0.5387407 0.0329882 -0.0300758
v -0.5410653 0.0240652 -0.0246414
v -0.5436942 0.0163658 -0.0176868
v -0.5465378 0.0101524 -0.0094488
v -0.5494994 0.0056365 -0.0002080
v -0.5524780 0.0029719 0.0097210
v -0.4985851 0.5461967 0.0113036
v -0.4929311 0.5427291 0.0029033
v -0.4878583 0.5374658 -0.0049147
v -0.4835395 0.5305861 -0.0118843
v -0.4801218 0.5223243 -0.0177681
v -0.4777216 0.5129618 -0.0223658
v -0.4764206 0.5028173 -0.0255208
v -0.4762631 0.4922364 -0.0271256
v -0.5172545 0.0515792 -0.0271256
v -0.5193609 0.0412089 -0.0255208
v -0.5225108 0.0314784 -0.0223658
v -0.5265967 0.0227192 -0.0177681
v -0.5314797 0.0152296 -0.0118843
v -0.5369933 0.0092646 -0.0049147
v -0.5429498 0.0050273 0.0029033
v -0.5491465 0.0026620 0.0113036
v -0.4959935 0.5459556 0.0139351
v -0.4878361 0.5422551 0.0080768
v -0.4804334 0.5367751 0.0026245
v -0.4740377 0.5297022 -0.0022361
v -0.4688665 0.5212773 -0.0063394
v -0.4650962 0.5117873 -0.0095459
v -0.4628549 0.5015554 -0.0117461
v -0.4622192 0.4909299 -0.0128653
v -0.5032105 0.0502728 -0.0128653
v -0.5057953 0.0399470 -0.0117461
v -0.5098853 0.0303040 -0.0095459
v -0.5153414 0.0216722 -0.0063394
v -0.5219778 0.0143457 -0.0022361
v -0.5295684 0.0085739 0.0026245
v -0.5378548 0.0045533 0.0080768
v -0.5465548 0.0024209 0.0139351
v -0.4944543 0.5458125 0.0172982
v -0.4848102 0.5419736 0.0146884
v -0.4760239 0.5363649 0.0122595
v -0.4683945 0.5291773 0.0100942
v -0.4621821 0.5206555 0.0082662
v -0.4575980 0.5110898 0.0068378
v -0.4547983 0.5008059 0.0058576
v -0.4538785 0.4901541 0.0053590
v -0.4948699 0.0494969 0.0053590
v -0.4977387 0.0391975 0.0058576
v -0.5023871 0.0296065 0.0068378
v -0.5086569 0.0210504 0.0082662
v -0.5163347 0.0138208 0.0100942
v -0.5251589 0.0081637 0.0122595
v -0.5348290 0.0042719 0.0146884
v -0.5450157 0.0022778 0.0172982
v 0.5046278 0.5477507 0.0200000
v 0.5152854 0.5477502 0.0190129
v 0.5257629 0.5457832 0.0180594
v 0.5357036 0.5419165 0.0171719
v 0.5447691 0.5362819 0.0163808
v 0.5526505 0.5290712 0.0157129
v 0.5590795 0.5205300 0.0151910
v 0.5638371 0.5109491 0.0148329
v 0.5667614 0.5006548 0.0146508
v 0.6077528 0.0599977 0.0146508
v 0.6067775 0.0493406 0.0148329
v 0.6038686 0.0390466 0.0151910
v 0.5991254 0.0294661 0.0157129
v 0.5927092 0.0209254 0.0163808
v 0.5848386 0.0137153 0.0171719
v 0.5757817 0.0080814 0.0180594
v 0.5658467 0.0042155 0.0190129
v 0.5553722 0.0022493 0.0200000
v 0.5149843 0.5477222 0.0227018
v 0.5251710 0.5457281 0.0253116
v 0.5348411 0.5418363 0.0277405
v 0.5436653 0.5361792 0.0299058
v 0.5513431 0.5289496 0.0317338
v 0.5576129 0.5203935 0.0331622
v 0.5622613 0.5108025 0.0341424
v 0.5651301 0.5005031 0.0346410
v 0.6061215 0.0598459 0.0346410
v 0.6052017 0.0491941 0.0341424
v 0.6024020 0.0389102 0.0331622
v 0.5978179 0.0293445 0.0317338
v 0.5916055 0.0208227 0.0299058
v 0.5839761 0.0136351 0.0277405
v 0.5751898 0.0080264 0.0253116
v 0.5655457 0.0041875 0.0227018
v 0.5134452 0.5475791 0.0260649
v 0.5221452 0.5454467 0.0319232
v 0.5304316 0.5414261 0.0373755
v 0.5380222 0.5356543 0.0422361
v 0.5446586 0.5283278 0.0463394
v 0.5501147 0.5196960 0.0495459
v 0.5542047 0.5100530 0.0517461
v 0.5567895 0.4997272 0.0528653
v 0.5977808 0.0590701 0.0528653
v 0.5971451 0.0484446 0.0517461
v 0.5949038 0.0382127 0.0495459
v 0.5911335 0.0287227 0.0463394
v 0.5859623 0.0202978 0.0422361
v 0.5795666 0.0132249 0.0373755
v 0.5721639 0.0077449 0.0319232
v 0.5640065 0.0040444 0.0260649
v 0.5108535 0.5473380 0.0286964
v 0.5170502 0.5449727 0.0370967
v 0.5230067 0.5407354 0.0449147
v 0.5285203 0.5347704 0.0518843
v 0.5334033 0.5272808 0.0577681
v 0.5374892 0.5185216 0.0623658
v 0.5406391 0.5087911 0.0655208
v 0.5427455 0.4984208 0.0671256
v 0.5837369 0.0577636 0.0671256
v 0.5835794 0.0471827 0.0655208
v 0.5822784 0.0370382 0.0623658
v 0.5798782 0.0276757 0.0577681
v 0.5764605 0.0194139 0.0518843
v 0.5721417 0.0125342 0.0449147
v 0.5670689 0.0072709 0.0370967
v 0.5614149 0.0038033 0.0286964
v 0.5075220 0.5470281 0.0302790
v 0.5105006 0.5443635 0.0402080
v 0.5134622 0.5398476 0.0494488
v 0.5163058 0.5336342 0.0576868
v 0.5189347 0.5259348 0.0646414
v 0.5212593 0.5170118 0.0700758
v 0.5232006 0.5071689 0.0738050
v 0.5246922 0.4967414 0.0757018
v 0.5656836 0.0560843 0.0757018
v 0.5661409 0.0455605 0.0738050
v 0.5660485 0.0355284 0.0700758
v 0.5654096 0.0263297 0.0646414
v 0.5642459 0.0182776 0.0576868
v 0.5625972 0.0116463 0.0494488
v 0.5605194 0.0066617 0.0402080
v 0.5580834 0.0034934 0.0302790
v 0.5038525 0.5466867 0.0306219
v 0.5032865 0.5436924 0.0408820
v 0.5029491 0.5388696 0.0504310
v 0.5028518 0.5323826 0.0589438
v 0.5029980 0.5244524 0.0661303
v 0.5033826 0.5153489 0.0717460
v 0.5039925 0.5053821 0.0755995
v 0.5048071 0.4948916 0.0775596
v 0.5457984 0.0542345 0.0775596
v 0.5469329 0.0437737 0.0755995
v 0.5481717 0.0338655 0.0717460
v 0.5494729 0.0248473 0.0661303
v 0.5507920 0.0170261 0.0589438
v 0.5520841 0.0106684 0.0504310
v 0.5533053 0.0059906 0.0408820
v 0.5544139 0.0031520 0.0306219
v 0.5002875 0.5463551 0.0296835
v 0.4962779 0.5430404 0.0390373
v 0.4927356 0.5379195 0.0477428
v 0.4897812 0.5311668 0.0555035
v 0.4875153 0.5230121 0.0620552
v 0.4860152 0.5137333 0.0671748
v 0.4853318 0.5036463 0.0706879
v 0.4854884 0.4930945 0.0724748
v 0.5264798 0.0524374 0.0724748
v 0.5282721 0.0420378 0.0706879
v 0.5308043 0.0322499 0.0671748
v 0.5339902 0.0234070 0.0620552
v 0.5377214 0.0158102 0.0555035
v 0.5418706 0.0097183 0.0477428
v 0.5462967 0.0053386 0.0390373
v 0.5508489 0.0028204 0.0296835
v 0.4972570 0.5460732 0.0275772
v 0.4903202 0.5424862 0.0348964
v 0.4840535 0.5371119 0.0417083
v 0.4786704 0.5301332 0.0477810
v 0.4743542 0.5217878 0.0529076
v 0.4712519 0.5123600 0.0569136
v 0.4694690 0.5021707 0.0596625
v 0.4690665 0.4915669 0.0610608
v 0.5100578 0.0509098 0.0610608
v 0.5124094 0.0405622 0.0596625
v 0.5160410 0.0308766 0.0569136
v 0.5208291 0.0221827 0.0529076
v 0.5266106 0.0147767 0.0477810
v 0.5331885 0.0089106 0.0417083
v 0.5403390 0.0047844 0.0348964
v 0.5478184 0.0025385 0.0275772
v 0.4951267 0.5458750 0.0245570
v 0.4861320 0.5420966 0.0289588
v 0.4779501 0.5365441 0.0330556
v 0.4708596 0.5294066 0.0367077
v 0.4651020 0.5209272 0.0397909
v 0.4608733 0.5113945 0.0422001
v 0.4583176 0.5011333 0.0438533
v 0.4575219 0.4904930 0.0446943
v 0.4985133 0.0498359 0.0446943
v 0.5012580 0.0395249 0.0438533
v 0.5056625 0.0299111 0.0422001
v 0.5115769 0.0213220 0.0397909
v 0.5187997 0.0140501 0.0367077
v 0.5270851 0.0083429 0.0330556
v 0.5361507 0.0043948 0.0289588
v 0.5456880 0.0023403 0.0245570
v 0.4941533 0.5457845 0.0209871
v 0.4842183 0.5419186 0.0219406
v 0.4751614 0.5362847 0.0228281
v 0.4672908 0.5290746 0.0236192
v 0.4608746 0.5205339 0.0242871
v 0.4561314 0.5109534 0.0248090
v 0.4532225 0.5006594 0.0251671
v 0.4522472 0.4900023 0.0253492
v 0.4932386 0.0493452 0.0253492
v 0.4961629 0.0390509 0.0251671
v 0.5009205 0.0294700 0.0248090
v 0.5073495 0.0209288 0.0242871
v 0.5152309 0.0137181 0.0236192
v 0.5242964 0.0080835 0.0228281
v 0.5342371 0.0042168 0.0219406
v 0.5447146 0.0022498 0.0209871
v 0.4944543 0.5458125 0.0172982
v 0.4848102 0.5419736 0.0146884
v 0.4760239 0.5363649 0.0122595
v 0.4683945 0.5291773 0.0100942
v 0.4621821 0.5206555 0.0082662
v 0.4575980 0.5110898 0.0068378
v 0.4547983 0.5008059 0.0058576
v 0.4538785 0.4901541 0.0053590
v 0.4948699 0.0494969 0.0053590
v 0.4977387 0.0391975 0.0058576
v 0.5023871 0.0296065 0.0068378
v 0.5086569 0.0210504 0.0082662
v 0.5163347 0.0138208 0.0100942
v 0.5251589 0.0081637 0.0122595
v 0.5348290 0.0042719 0.0146884
v 0.5450157 0.0022778 0.0172982
v 0.4959935 0.5459556 0.0139351
v 0.4878361 0.5422551 0.0080768
v 0.4804334 0.5367751 0.0026245
v 0.4740377 0.5297022 -0.0022361
v 0.4688665 0.5212773 -0.0063394
v 0.4650962 0.5117873 -0.0095459
v 0.4628549 0.5015554 -0.0117461
v 0.4622192 0.4909299 -0.0128653
v 0.5032105 0.0502728 -0.0128653
v 0.5057953 0.0399470 -0.0117461
v 0.5098853 0.0303040 -0.0095459
v 0.5153414 0.0216722 -0.0063394
v 0.5219778 0.0143457 -0.0022361
v 0.5295684 0.0085739 0.0026245
v 0.5378548 0.0045533 0.0080768
v 0.5465548 0.0024209 0.0139351
v 0.4985851 0.5461967 0.0113036
v 0.4929311 0.5427291 0.0029033
v 0.4878583 0.5374658 -0.0049147
v 0.4835395 0.5305861 -0.0118843
v 0.4801218 0.5223243 -0.0177681
v 0.4777216 0.5129618 -0.0223658
v 0.4764206 0.5028173 -0.0255208
v 0.4762631 0.4922364 -0.0271256
v 0.5172545 0.0515792 -0.0271256
v 0.5193609 0.0412089 -0.0255208
v 0.5225108 0.0314784 -0.0223658
v 0.5265967 0.0227192 -0.0177681
v 0.5314797 0.0152296 -0.0118843
v 0.5369933 0.0092646 -0.0049147
v 0.5429498 0.0050273 0.0029033
v 0.5491465 0.0026620 0.0113036
v 0.5019166 0.5465066 0.0097210
v 0.4994806 0.5433383 -0.0002080
v 0.4974028 0.5383537 -0.0094488
v 0.4957541 0.5317224 -0.0176868
v 0.4945904 0.5236703 -0.0246414
v 0.4939515 0.5144716 -0.0300758
v 0.4938591 0.5044395 -0.0338050
v 0.4943164 0.4939157 -0.0357018
v 0.5353078 0.0532586 -0.0357018
v 0.5367994 0.0428311 -0.0338050
v 0.5387407 0.0329882 -0.0300758
v 0.5410653 0.0240652 -0.0246414
v 0.5436942 0.0163658 -0.0176868
v 0.5465378 0.0101524 -0.0094488
v 0.5494994 0.0056365 -0.0002080
v 0.5524780 0.0029719 0.0097210
v 0.5055861 0.5468480 0.0093781
v 0.5066947 0.5440094 -0.0008820
v 0.5079159 0.5393316 -0.0104310
v 0.5092080 0.5329739 -0.0189438
v 0.5105271 0.5251527 -0.0261303
v 0.5118283 0.5161345 -0.0317460
v 0.5130671 0.5062263 -0.0355995
v 0.5142016 0.4957655 -0.0375596
v 0.5551929 0.0551084 -0.0375596
v 0.5560075 0.0446179 -0.0355995
v 0.5566174 0.0346511 -0.0317460
v 0.5570020 0.0255476 -0.0261303
v 0.5571482 0.0176174 -0.0189438
v 0.5570509 0.0111304 -0.0104310
v 0.5567135 0.0063076 -0.0008820
v 0.5561475 0.0033133 0.0093781
v 0.5091511 0.5471796 0.0103165
v 0.5137033 0.5446614 0.0009627
v 0.5181294 0.5402817 -0.0077428
v 0.5222786 0.5341898 -0.0155035
v 0.5260098 0.5265930 -0.0220552
v 0.5291957 0.5177501 -0.0271748
v 0.5317279 0.5079622 -0.0306879
v 0.5335202 0.4975626 -0.0324748
v 0.5745116 0.0569055 -0.0324748
v 0.5746682 0.0463537 -0.0306879
v 0.5739848 0.0362667 -0.0271748
v 0.5724847 0.0269879 -0.0220552
v 0.5702188 0.0188332 -0.0155035
v 0.5672644 0.0120805 -0.0077428
v 0.5637221 0.0069596 0.0009627
v 0.5597125 0.0036449 0.0103165
v 0.5121816 0.5474615 0.0124228
v 0.5196610 0.5452156 0.0051036
v 0.5268115 0.5410894 -0.0017083
v 0.5333894 0.5352233 -0.0077810
v 0.5391709 0.5278173 -0.0129076
v 0.5439590 0.5191234 -0.0169136
v 0.5475906 0.5094378 -0.0196625
v 0.5499422 0.4990902 -0.0210608
v 0.5909335 0.0584331 -0.0210608
v 0.5905310 0.0478293 -0.0196625
v 0.5887481 0.0376400 -0.0169136
v 0.5856458 0.0282122 -0.0129076
v 0.5813296 0.0198668 -0.0077810
v 0.5759465 0.0128881 -0.0017083
v 0.5696798 0.0075138 0.0051036
v 0.5627430 0.0039268 0.0124228
v 0.5143120 0.5476597 0.0154430
v 0.5238493 0.5456052 0.0110412
v 0.5329149 0.5416571 0.0069444
v 0.5412003 0.5359499 0.0032923
v 0.5484231 0.5286780 0.0002091
v 0.5543375 0.5200889 -0.0022001
v 0.5587420 0.5104751 -0.0038533
v 0.5614867 0.5001641 -0.0046943
v 0.6024781 0.0595070 -0.0046943
v 0.6016824 0.0488667 -0.0038533
v 0.5991267 0.0386055 -0.0022001
v 0.5948980 0.0290728 0.0002091
v 0.5891404 0.0205934 0.0032923
v 0.5820499 0.0134559 0.0069444
v 0.5738680 0.0079034 0.0110412
v 0.5648733 0.0041250 0.0154430
vn 0.0926234 0.9957012 -0.0000000
vn 0.2828257 0.9590037 0.0179334
vn 0.4529564 0.8908734 0.0342785
vn 0.6075010 0.7927789 0.0494381
vn 0.7413601 0.6681523 0.0629104
vn 0.8501592 0.5212637 0.0742533
vn 0.9303722 0.3570747 0.0830976
vn 0.9794196 0.1810755 0.0891570
vn 0.9957368 -0.0008874 0.0922361
vn 0.9788154 -0.1827919 0.0922361
vn 0.9292151 -0.3586229 0.0891570
vn 0.8485462 -0.5225555 0.0830976
vn 0.7394247 -0.6691320 0.0742533
vn 0.6053988 -0.7934322 0.0629104
vn 0.4508490 -0.8912301 0.0494381
vn 0.2808626 -0.9591357 0.0342785
vn 0.1010843 -0.9947162 0.0179334
vn -0.0926234 -0.9957012 0.0000000
vn 0.2651422 0.9606486 0.0827878
vn 0.4191555 0.8940177 0.1582434
vn 0.5587517 0.7973138 0.2282265
vn 0.6793262 0.6739229 0.2904201
vn 0.7769404 0.5280748 0.3427838
vn 0.8484324 0.3646970 0.3836126
vn 0.8915048 0.1892536 0.4115851
vn 0.9047857 0.0075732 0.4257998
vn 0.8878644 -0.1743313 0.4257998
vn 0.8413003 -0.3504448 0.4115851
vn 0.7666063 -0.5149331 0.3836126
vn 0.6662059 -0.6623209 0.3427838
vn 0.5433649 -0.7876616 0.2904201
vn 0.4020997 -0.8866953 0.2282265
vn 0.2470617 -0.9559914 0.1582434
vn 0.0834008 -0.9930712 0.0827878
vn 0.2264389 0.9642489 0.1376567
vn 0.3451769 0.9008994 0.2631219
vn 0.4520560 0.8072389 0.3794874
vn 0.5435551 0.6865527 0.4829008
vn 0.6166892 0.5429818 0.5699694
vn 0.6690938 0.3813796 0.6378582
vn 0.6990891 0.2071528 0.6843699
vn 0.7057247 0.0260905 0.7080056
vn 0.6888033 -0.1558140 0.7080056
vn 0.6488846 -0.3325457 0.6843699
vn 0.5872677 -0.4982505 0.6378582
vn 0.5059547 -0.6474138 0.5699694
vn 0.4075937 -0.7750317 0.4829008
vn 0.2954039 -0.8767701 0.3794874
vn 0.1730830 -0.9491097 0.2631219
vn 0.0446976 -0.9894709 0.1376567
vn 0.1713842 0.9693703 0.1759223
vn 0.2399433 0.9106886 0.3362640
vn 0.3002829 0.8213574 0.4849766
vn 0.3504226 0.7045185 0.6171366
vn 0.3887344 0.5641870 0.7284083
vn 0.4139873 0.4051105 0.8151687
vn 0.4253806 0.2326140 0.8746096
vn 0.4225633 0.0524311 0.9048156
vn 0.4056419 -0.1294734 0.9048156
vn 0.3751761 -0.3070844 0.8746096
vn 0.3321613 -0.4745197 0.8151687
vn 0.2779999 -0.6262087 0.7284083
vn 0.2144613 -0.7570659 0.6171366
vn 0.1436309 -0.8626517 0.4849766
vn 0.0678494 -0.9393205 0.3362640
vn -0.0103572 -0.9843496 0.1759223
vn 0.1066183 0.9753950 0.1929690
vn 0.1161475 0.9222045 0.3688477
vn 0.1217385 0.8379661 0.5319704
vn 0.1232235 0.7256534 0.6769366
vn 0.1205705 0.5891324 0.7989904
vn 0.1138826 0.4330272 0.8941578
vn 0.1033927 0.2625664 0.9593586
vn 0.0894550 0.0834179 0.9924914
vn 0.0725336 -0.0984866 0.9924914
vn 0.0531882 -0.2771321 0.9593586
vn 0.0320566 -0.4466029 0.8941578
vn 0.0098360 -0.6012633 0.7989904
vn -0.0127379 -0.7359311 0.6769366
vn -0.0349135 -0.8460429 0.5319704
vn -0.0559464 -0.9278046 0.3688477
vn -0.0751231 -0.9783248 0.1929690
vn 0.0399531 0.9815965 0.1867408
vn -0.0112788 0.9340581 0.3569429
vn -0.0620420 0.8550620 0.5148007
vn -0.1106388 0.7474080 0.6550881
vn -0.1554578 0.6148095 0.7732025
vn -0.1950233 0.4617626 0.8652983
vn -0.2280382 0.2933972 0.9283947
vn -0.2534224 0.1153135 0.9604582
vn -0.2703438 -0.0665910 0.9604582
vn -0.2782427 -0.2463013 0.9283947
vn -0.2768494 -0.4178675 0.8652983
vn -0.2661923 -0.5755862 0.7732025
vn -0.2466001 -0.7141765 0.6550881
vn -0.2186940 -0.8289470 0.5148007
vn -0.1833727 -0.9159510 0.3569429
vn -0.1417883 -0.9721234 0.1867408
vn -0.0205708 0.9872266 0.1579889
vn -0.1269662 0.9448197 0.3019856
vn -0.2288921 0.8705829 0.4355385
vn -0.3229568 0.7671585 0.5542262
vn -0.4060575 0.6381211 0.6541550
vn -0.4754718 0.4878509 0.7320711
vn -0.5289367 0.3213877 0.7854527
vn -0.5647128 0.1442707 0.8125795
vn -0.5816342 -0.0376338 0.8125795
vn -0.5791412 -0.2183107 0.7854527
vn -0.5572979 -0.3917793 0.7320711
vn -0.5167920 -0.5522746 0.6541550
vn -0.4589182 -0.6944259 0.5542262
vn -0.3855441 -0.8134261 0.4355385
vn -0.2990601 -0.9051894 0.3019856
vn -0.2023122 -0.9664933 0.1579889
vn -0.0676532 0.9916063 0.1101812
vn -0.2169611 0.9531913 0.2106043
vn -0.3586871 0.8826569 0.3037439
vn -0.4881221 0.7825227 0.3865165
vn -0.6010026 0.6562555 0.4562067
vn -0.6936367 0.5081453 0.5105453
vn -0.7630099 0.3431620 0.5477735
vn -0.8068701 0.1667970 0.5666917
vn -0.8237914 -0.0151075 0.5666917
vn -0.8132144 -0.1965365 0.5477735
vn -0.7754628 -0.3714849 0.5105453
vn -0.7117371 -0.5341402 0.4562067
vn -0.6240834 -0.6790617 0.3865165
vn -0.5153391 -0.8013521 0.3037439
vn -0.3890550 -0.8968177 0.2106043
vn -0.2493945 -0.9621135 0.1101812
vn -0.0956152 0.9942075 0.0490841
vn -0.2704087 0.9581632 0.0938210
vn -0.4357719 0.8898276 0.1353133
vn -0.5862132 0.7916475 0.1721872
vn -0.7167798 0.6670255 0.2032331
vn -0.8232041 0.5201981 0.2274401
vn -0.9020251 0.3560936 0.2440248
vn -0.9506864 0.1801752 0.2524525
vn -0.9676077 -0.0017293 0.2524525
vn -0.9522296 -0.1836048 0.2440248
vn -0.9050301 -0.3594321 0.2274401
vn -0.8275143 -0.5233702 0.2032331
vn -0.7221745 -0.6699370 0.1721872
vn -0.5924240 -0.7941815 0.1353133
vn -0.4425026 -0.8918459 0.0938210
vn -0.2773566 -0.9595124 0.0490841
vn -0.1010843 0.9947162 -0.0179334
vn -0.2808626 0.9591357 -0.0342785
vn -0.4508490 0.8912301 -0.0494381
vn -0.6053988 0.7934322 -0.0629104
vn -0.7394247 0.6691320 -0.0742533
vn -0.8485462 0.5225555 -0.0830976
vn -0.9292151 0.3586229 -0.0891570
vn -0.9788154 0.1827919 -0.0922361
vn -0.9957368 0.0008874 -0.0922361
vn -0.9794196 -0.1810755 -0.0891570
vn -0.9303722 -0.3570747 -0.0830976
vn -0.8501592 -0.5212637 -0.0742533
vn -0.7413601 -0.6681523 -0.0629104
vn -0.6075010 -0.7927789 -0.0494381
vn -0.4529564 -0.8908734 -0.0342785
vn -0.2828257 -0.9590037 -0.0179334
vn -0.0834008 0.9930712 -0.0827878
vn -0.2470617 0.9559914 -0.1582434
vn -0.4020997 0.8866953 -0.2282265
vn -0.5433649 0.7876616 -0.2904201
vn -0.6662059 0.6623209 -0.3427838
vn -0.7666063 0.5149331 -0.3836126
vn -0.8413003 0.3504448 -0.4115851
vn -0.8878644 0.1743313 -0.4257998
vn -0.9047857 -0.0075732 -0.4257998
vn -0.8915048 -0.1892536 -0.4115851
vn -0.8484324 -0.3646970 -0.3836126
vn -0.7769404 -0.5280748 -0.3427838
vn -0.6793262 -0.6739229 -0.2904201
vn -0.5587517 -0.7973138 -0.2282265
vn -0.4191555 -0.8940177 -0.1582434
vn -0.2651422 -0.9606486 -0.0827878
vn -0.0446976 0.9894709 -0.1376567
vn -0.1730830 0.9491097 -0.2631219
vn -0.2954039 0.8767701 -0.3794874
vn -0.4075937 0.7750317 -0.4829008
vn -0.5059547 0.6474138 -0.5699694
vn -0.5872677 0.4982505 -0.6378582
vn -0.6488846 0.3325457 -0.6843699
vn -0.6888033 0.1558140 -0.7080056
vn -0.7057247 -0.0260905 -0.7080056
vn -0.6990891 -0.2071528 -0.6843699
vn -0.6690938 -0.3813796 -0.6378582
vn -0.6166892 -0.5429818 -0.5699694
vn -0.5435551 -0.6865527 -0.4829008
vn -0.4520560 -0.8072389 -0.3794874
vn -0.3451769 -0.9008994 -0.2631219
vn -0.2264389 -0.9642489 -0.1376567
vn 0.0103572 0.9843496 -0.1759223
vn -0.0678494 0.9393205 -0.3362640
vn -0.1436309 0.8626517 -0.4849766
vn -0.2144613 0.7570659 -0.6171366
vn -0.2779999 0.6262087 -0.7284083
vn -0.3321613 0.4745197 -0.8151687
vn -0.3751761 0.3070844 -0.8746096
vn -0.4056419 0.1294734 -0.9048156
vn -0.4225633 -0.0524311 -0.9048156
vn -0.4253806 -0.2326140 -0.8746096
vn -0.4139873 -0.4051105 -0.8151687
vn -0.3887344 -0.5641870 -0.7284083
vn -0.3504226 -0.7045185 -0.6171366
vn -0.3002829 -0.8213574 -0.4849766
vn -0.2399433 -0.9106886 -0.3362640
vn -0.1713842 -0.9693703 -0.1759223
vn 0.0751231 0.9783248 -0.1929690
vn 0.0559464 0.9278046 -0.3688477
vn 0.0349135 0.8460429 -0.5319704
vn 0.0127379 0.7359311 -0.6769366
vn -0.0098360 0.6012633 -0.7989904
vn -0.0320566 0.4466029 -0.8941578
vn -0.0531882 0.2771321 -0.9593586
vn -0.0725336 0.0984866 -0.9924914
vn -0.0894550 -0.0834179 -0.9924914
vn -0.1033927 -0.2625664 -0.9593586
vn -0.1138826 -0.4330272 -0.8941578
vn -0.1205705 -0.5891324 -0.7989904
vn -0.1232235 -0.7256534 -0.6769366
vn -0.1217385 -0.8379661 -0.5319704
vn -0.1161475 -0.9222045 -0.3688477
vn -0.1066183 -0.9753950 -0.1929690
vn 0.1417883 0.9721234 -0.1867408
vn 0.1833727 0.9159510 -0.3569429
vn 0.2186940 0.8289470 -0.5148007
vn 0.2466001 0.7141765 -0.6550881
vn 0.2661923 0.5755862 -0.7732025
vn 0.2768494 0.4178675 -0.8652983
vn 0.2782427 0.2463013 -0.9283947
vn 0.2703438 0.0665910 -0.9604582
vn 0.2534224 -0.1153135 -0.9604582
vn 0.2280382 -0.2933972 -0.9283947
vn 0.1950233 -0.4617626 -0.8652983
vn 0.1554578 -0.6148095 -0.7732025
vn 0.1106388 -0.7474080 -0.6550881
vn 0.0620420 -0.8550620 -0.5148007
vn 0.0112788 -0.9340581 -0.3569429
vn -0.0399531 -0.9815965 -0.1867408
vn 0.2023122 0.9664933 -0.1579889
vn 0.2990601 0.9051894 -0.3019856
vn 0.3855441 0.8134261 -0.4355385
vn 0.4589182 0.6944259 -0.5542262
vn 0.5167920 0.5522746 -0.6541550
vn 0.5572979 0.3917793 -0.7320711
vn 0.5791412 0.2183107 -0.7854527
vn 0.5816342 0.0376338 -0.8125795
vn 0.5647128 -0.1442707 -0.8125795
vn 0.5289367 -0.3213877 -0.7854527
vn 0.4754718 -0.4878509 -0.7320711
vn 0.4060575 -0.6381211 -0.6541550
vn 0.3229568 -0.7671585 -0.5542262
vn 0.2288921 -0.8705829 -0.4355385
vn 0.1269662 -0.9448197 -0.3019856
vn 0.0205708 -0.9872266 -0.1579889
vn 0.2493945 0.9621135 -0.1101812
vn 0.3890550 0.8968177 -0.2106043
vn 0.5153391 0.8013521 -0.3037439
vn 0.6240834 0.6790617 -0.3865165
vn 0.7117371 0.5341402 -0.4562067
vn 0.7754628 0.3714849 -0.5105453
vn 0.8132144 0.1965365 -0.5477735
vn 0.8237914 0.0151075 -0.5666917
vn 0.8068701 -0.1667970 -0.5666917
vn 0.7630099 -0.3431620 -0.5477735
vn 0.6936367 -0.5081453 -0.5105453
vn 0.6010026 -0.6562555 -0.4562067
vn 0.4881221 -0.7825227 -0.3865165
vn 0.3586871 -0.8826569 -0.3037439
vn 0.2169611 -0.9531913 -0.2106043
vn 0.0676532 -0.9916063 -0.1101812
vn 0.2773566 0.9595124 -0.0490841
vn 0.4425026 0.8918459 -0.0938210
vn 0.5924240 0.7941815 -0.1353133
vn 0.7221745 0.6699370 -0.1721872
vn 0.8275143 0.5233702 -0.2032331
vn 0.9050301 0.3594321 -0.2274401
vn 0.9522296 0.1836048 -0.2440248
vn 0.9676077 0.0017293 -0.2524525
vn 0.9506864 -0.1801752 -0.2524525
vn 0.9020251 -0.3560936 -0.2440248
vn 0.8232041 -0.5201981 -0.2274401
vn 0.7167798 -0.6670255 -0.2032331
vn 0.5862132 -0.7916475 -0.1721872
vn 0.4357719 -0.8898276 -0.1353133
vn 0.2704087 -0.9581632 -0.0938210
vn 0.0956152 -0.9942075 -0.0490841
vn -0.0926234 0.9957012 -0.0000000
vn 0.1010843 0.9947162 -0.0179334
vn 0.2808626 0.9591357 -0.0342785
vn 0.4508490 0.8912301 -0.0494381
vn 0.6053988 0.7934322 -0.0629104
vn 0.7394247 0.6691320 -0.0742533
vn 0.8485462 0.5225555 -0.0830976
vn 0.9292151 0.3586229 -0.0891570
vn 0.9788154 0.1827919 -0.0922361
vn 0.9957368 0.0008874 -0.0922361
vn 0.9794196 -0.1810755 -0.0891570
vn 0.9303722 -0.3570747 -0.0830976
vn 0.8501592 -0.5212637 -0.0742533
vn 0.7413601 -0.6681523 -0.0629104
vn 0.6075010 -0.7927789 -0.0494381
vn 0.4529564 -0.8908734 -0.0342785
vn 0.2828257 -0.9590037 -0.0179334
vn 0.0926234 -0.9957012 -0.0000000
vn 0.0956152 0.9942075 0.0490841
vn 0.2704087 0.9581632 0.0938210
vn 0.4357719 0.8898276 0.1353133
vn 0.5862132 0.7916475 0.1721872
vn 0.7167798 0.6670255 0.2032331
vn 0.8232041 0.5201981 0.2274401
vn 0.9020251 0.3560936 0.2440248
vn 0.9506864 0.1801752 0.2524525
vn 0.9676077 -0.0017293 0.2524525
vn 0.9522296 -0.1836048 0.2440248
vn 0.9050301 -0.3594321 0.2274401
vn 0.8275143 -0.5233702 0.2032331
vn 0.7221745 -0.6699370 0.1721872
vn 0.5924240 -0.7941815 0.1353133
vn 0.4425026 -0.8918459 0.0938210
vn 0.2773566 -0.9595124 0.0490841
vn 0.0676532 0.9916063 0.1101812
vn 0.2169611 0.9531913 0.2106043
vn 0.3586871 0.8826569 0.3037439
vn 0.4881221 0.7825227 0.3865165
vn 0.6010026 0.6562555 0.4562067
vn 0.6936367 0.5081453 0.5105453
vn 0.7630099 0.3431620 0.5477735
vn 0.8068701 0.1667970 0.5666917
vn 0.8237914 -0.0151075 0.5666917
vn 0.8132144 -0.1965365 0.5477735
vn 0.7754628 -0.3714849 0.5105453
vn 0.7117371 -0.5341402 0.4562067
vn 0.6240834 -0.6790617 0.3865165
vn 0.5153391 -0.8013521 0.3037439
vn 0.3890550 -0.8968177 0.2106043
vn 0.2493945 -0.9621135 0.1101812
vn 0.0205708 0.9872266 0.1579889
vn 0.1269662 0.9448197 0.3019856
vn 0.2288921 0.8705829 0.4355385
vn 0.3229568 0.7671585 0.5542262
vn 0.4060575 0.6381211 0.6541550
vn 0.4754718 0.4878509 0.7320711
vn 0.5289367 0.3213877 0.7854527
vn 0.5647128 0.1442707 0.8125795
vn 0.5816342 -0.0376338 0.8125795
vn 0.5791412 -0.2183107 0.7854527
vn 0.5572979 -0.3917793 0.7320711
vn 0.5167920 -0.5522746 0.6541550
vn 0.4589182 -0.6944259 0.5542262
vn 0.3855441 -0.8134261 0.4355385
vn 0.2990601 -0.9051894 0.3019856
vn 0.2023122 -0.9664933 0.1579889
vn -0.0399531 0.9815965 0.1867408
vn 0.0112788 0.9340581 0.3569429
vn 0.0620420 0.8550620 0.5148007
vn 0.1106388 0.7474080 0.6550881
vn 0.1554578 0.6148095 0.7732025
vn 0.1950233 0.4617626 0.8652983
vn 0.2280382 0.2933972 0.9283947
vn 0.2534224 0.1153135 0.9604582
vn 0.2703438 -0.0665910 0.9604582
vn 0.2782427 -0.2463013 0.9283947
vn 0.2768494 -0.4178675 0.8652983
vn 0.2661923 -0.5755862 0.7732025
vn 0.2466001 -0.7141765 0.6550881
vn 0.2186940 -0.8289470 0.5148007
vn 0.1833727 -0.9159510 0.3569429
vn 0.1417883 -0.9721234 0.1867408
vn -0.1066183 0.9753950 0.1929690
vn -0.1161475 0.9222045 0.3688477
vn -0.1217385 0.8379661 0.5319704
vn -0.1232235 0.7256534 0.6769366
vn -0.1205705 0.5891324 0.7989904
vn -0.1138826 0.4330272 0.8941578
vn -0.1033927 0.2625664 0.9593586
vn -0.0894550 0.0834179 0.9924914
vn -0.0725336 -0.0984866 0.9924914
vn -0.0531882 -0.2771321 0.9593586
vn -0.0320566 -0.4466029 0.8941578
vn -0.0098360 -0.6012633 0.7989904
vn 0.0127379 -0.7359311 0.6769366
vn 0.0349135 -0.8460429 0.5319704
vn 0.0559464 -0.9278046 0.3688477
vn 0.0751231 -0.9783248 0.1929690
vn -0.1713842 0.9693703 0.1759223
vn -0.2399433 0.9106886 0.3362640
vn -0.3002829 0.8213574 0.4849766
vn -0.3504226 0.7045185 0.6171366
vn -0.3887344 0.5641870 0.7284083
vn -0.4139873 0.4051105 0.8151687
vn -0.4253806 0.2326140 0.8746096
vn -0.4225633 0.0524311 0.9048156
vn -0.4056419 -0.1294734 0.9048156
vn -0.3751761 -0.3070844 0.8746096
vn -0.3321613 -0.4745197 0.8151687
vn -0.2779999 -0.6262087 0.7284083
vn -0.2144613 -0.7570659 0.6171366
vn -0.1436309 -0.8626517 0.4849766
vn -0.0678494 -0.9393205 0.3362640
vn 0.0103572 -0.9843496 0.1759223
vn -0.2264389 0.9642489 0.1376567
vn -0.3451769 0.9008994 0.2631219
vn -0.4520560 0.8072389 0.3794874
vn -0.5435551 0.6865527 0.4829008
vn -0.6166892 0.5429818 0.5699694
vn -0.6690938 0.3813796 0.6378582
vn -0.6990891 0.2071528 0.6843699
vn -0.7057247 0.0260905 0.7080056
vn -0.6888033 -0.1558140 0.7080056
vn -0.6488846 -0.3325457 0.6843699
vn -0.5872677 -0.4982505 0.6378582
vn -0.5059547 -0.6474138 0.5699694
vn -0.4075937 -0.7750317 0.4829008
vn -0.2954039 -0.8767701 0.3794874
vn -0.1730830 -0.9491097 0.2631219
vn -0.0446976 -0.9894709 0.1376567
vn -0.2651422 0.9606486 0.0827878
vn -0.4191555 0.8940177 0.1582434
vn -0.5587517 0.7973138 0.2282265
vn -0.6793262 0.6739229 0.2904201
vn -0.7769404 0.5280748 0.3427838
vn -0.8484324 0.3646970 0.3836126
vn -0.8915048 0.1892536 0.4115851
vn -0.9047857 0.0075732 0.4257998
vn -0.8878644 -0.1743313 0.4257998
vn -0.8413003 -0.3504448 0.4115851
vn -0.7666063 -0.5149331 0.3836126
vn -0.6662059 -0.6623209 0.3427838
vn -0.5433649 -0.7876616 0.2904201
vn -0.4020997 -0.8866953 0.2282265
vn -0.2470617 -0.9559914 0.1582434
vn -0.0834008 -0.9930712 0.0827878
vn -0.2828257 0.9590037 0.0179334
vn -0.4529564 0.8908734 0.0342785
vn -0.6075010 0.7927789 0.0494381
vn -0.7413601 0.6681523 0.0629104
vn -0.8501592 0.5212637 0.0742533
vn -0.9303722 0.3570747 0.0830976
vn -0.9794196 0.1810755 0.0891570
vn -0.9957368 -0.0008874 0.0922361
vn -0.9788154 -0.1827919 0.0922361
vn -0.9292151 -0.3586229 0.0891570
vn -0.8485462 -0.5225555 0.0830976
vn -0.7394247 -0.6691320 0.0742533
vn -0.6053988 -0.7934322 0.0629104
vn -0.4508490 -0.8912301 0.0494381
vn -0.2808626 -0.9591357 0.0342785
vn -0.1010843 -0.9947162 0.0179334
vn -0.2773566 0.9595124 -0.0490841
vn -0.4425026 0.8918459 -0.0938210
vn -0.5924240 0.7941815 -0.1353133
vn -0.7221745 0.6699370 -0.1721872
vn -0.8275143 0.5233702 -0.2032331
vn -0.9050301 0.3594321 -0.2274401
vn -0.9522296 0.1836048 -0.2440248
vn -0.9676077 0.0017293 -0.2524525
vn -0.9506864 -0.1801752 -0.2524525
vn -0.9020251 -0.3560936 -0.2440248
vn -0.8232041 -0.5201981 -0.2274401
vn -0.7167798 -0.6670255 -0.2032331
vn -0.5862132 -0.7916475 -0.1721872
vn -0.4357719 -0.8898276 -0.1353133
vn -0.2704087 -0.9581632 -0.0938210
vn -0.0956152 -0.9942075 -0.0490841
vn -0.2493945 0.9621135 -0.1101812
vn -0.3890550 0.8968177 -0.2106043
vn -0.5153391 0.8013521 -0.3037439
vn -0.6240834 0.6790617 -0.3865165
vn -0.7117371 0.5341402 -0.4562067
vn -0.7754628 0.3714849 -0.5105453
vn -0.8132144 0.1965365 -0.5477735
vn -0.8237914 0.0151075 -0.5666917
vn -0.8068701 -0.1667970 -0.5666917
vn -0.7630099 -0.3431620 -0.5477735
vn -0.6936367 -0.5081453 -0.5105453
vn -0.6010026 -0.6562555 -0.4562067
vn -0.4881221 -0.7825227 -0.3865165
vn -0.3586871 -0.8826569 -0.3037439
vn -0.2169611 -0.9531913 -0.2106043
vn -0.0676532 -0.9916063 -0.1101812
vn -0.2023122 0.9664933 -0.1579889
vn -0.2990601 0.9051894 -0.3019856
vn -0.3855441 0.8134261 -0.4355385
vn -0.4589182 0.6944259 -0.5542262
vn -0.5167920 0.5522746 -0.6541550
vn -0.5572979 0.3917793 -0.7320711
vn -0.5791412 0.2183107 -0.7854527
vn -0.5816342 0.0376338 -0.8125795
vn -0.5647128 -0.1442707 -0.8125795
vn -0.5289367 -0.3213877 -0.7854527
vn -0.4754718 -0.4878509 -0.7320711
vn -0.4060575 -0.6381211 -0.6541550
vn -0.3229568 -0.7671585 -0.5542262
vn -0.2288921 -0.8705829 -0.4355385
vn -0.1269662 -0.9448197 -0.3019856
vn -0.0205708 -0.9872266 -0.1579889
vn -0.1417883 0.9721234 -0.1867408
vn -0.1833727 0.9159510 -0.3569429
vn -0.2186940 0.8289470 -0.5148007
vn -0.2466001 0.7141765 -0.6550881
vn -0.2661923 0.5755862 -0.7732025
vn -0.2768494 0.4178675 -0.8652983
vn -0.2782427 0.2463013 -0.9283947
vn -0.2703438 0.0665910 -0.9604582
vn -0.2534224 -0.1153135 -0.9604582
vn -0.2280382 -0.2933972 -0.9283947
vn -0.1950233 -0.4617626 -0.8652983
vn -0.1554578 -0.6148095 -0.7732025
vn -0.1106388 -0.7474080 -0.6550881
vn -0.0620420 -0.8550620 -0.5148007
vn -0.0112788 -0.9340581 -0.3569429
vn 0.0399531 -0.9815965 -0.1867408
vn -0.0751231 0.9783248 -0.1929690
vn -0.0559464 0.9278046 -0.3688477
vn -0.0349135 0.8460429 -0.5319704
vn -0.0127379 0.7359311 -0.6769366
vn 0.0098360 0.6012633 -0.7989904
vn 0.0320566 0.4466029 -0.8941578
vn 0.0531882 0.2771321 -0.9593586
vn 0.0725336 0.0984866 -0.9924914
vn 0.0894550 -0.0834179 -0.9924914
vn 0.1033927 -0.2625664 -0.9593586
vn 0.1138826 -0.4330272 -0.8941578
vn 0.1205705 -0.5891324 -0.7989904
vn 0.1232235 -0.7256534 -0.6769366
vn 0.1217385 -0.8379661 -0.5319704
vn 0.1161475 -0.9222045 -0.3688477
vn 0.1066183 -0.9753950 -0.1929690
vn -0.0103572 0.9843496 -0.1759223
vn 0.0678494 0.9393205 -0.3362640
vn 0.1436309 0.8626517 -0.4849766
vn 0.2144613 0.7570659 -0.6171366
vn 0.2779999 0.6262087 -0.7284083
vn 0.3321613 0.4745197 -0.8151687
vn 0.3751761 0.3070844 -0.8746096
vn 0.4056419 0.1294734 -0.9048156
vn 0.4225633 -0.0524311 -0.9048156
vn 0.4253806 -0.2326140 -0.8746096
vn 0.4139873 -0.4051105 -0.8151687
vn 0.3887344 -0.5641870 -0.7284083
vn 0.3504226 -0.7045185 -0.6171366
vn 0.3002829 -0.8213574 -0.4849766
vn 0.2399433 -0.9106886 -0.3362640
vn 0.1713842 -0.9693703 -0.1759223
vn 0.0446976 0.9894709 -0.1376567
vn 0.1730830 0.9491097 -0.2631219
vn 0.2954039 0.8767701 -0.3794874
vn 0.4075937 0.7750317 -0.4829008
vn 0.5059547 0.6474138 -0.5699694
vn 0.5872677 0.4982505 -0.6378582
vn 0.6488846 0.3325457 -0.6843699
vn 0.6888033 0.1558140 -0.7080056
vn 0.7057247 -0.0260905 -0.7080056
vn 0.6990891 -0.2071528 -0.6843699
vn 0.6690938 -0.3813796 -0.6378582
vn 0.6166892 -0.5429818 -0.5699694
vn 0.5435551 -0.6865527 -0.4829008
vn 0.4520560 -0.8072389 -0.3794874
vn 0.3451769 -0.9008994 -0.2631219
vn 0.2264389 -0.9642489 -0.1376567
vn 0.0834008 0.9930712 -0.0827878
vn 0.2470617 0.9559914 -0.1582434
vn 0.4020997 0.8866953 -0.2282265
vn 0.5433649 0.7876616 -0.2904201
vn 0.6662059 0.6623209 -0.3427838
vn 0.7666063 0.5149331 -0.3836126
vn 0.8413003 0.3504448 -0.4115851
vn 0.8878644 0.1743313 -0.4257998
vn 0.9047857 -0.0075732 -0.4257998
vn 0.8915048 -0.1892536 -0.4115851
vn 0.8484324 -0.3646970 -0.3836126
vn 0.7769404 -0.5280748 -0.3427838
vn 0.6793262 -0.6739229 -0.2904201
vn 0.5587517 -0.7973138 -0.2282265
vn 0.4191555 -0.8940177 -0.1582434
vn 0.2651422 -0.9606486 -0.0827878
f 2//2 1//1 19//19
f 2//2 19//19 3//3
f 3//3 19//19 20//20
f 3//3 20//20 4//4
f 4//4 20//20 21//21
f 4//4 21//21 5//5
f 5//5 21//21 22//22
f 5//5 22//22 6//6
f 6//6 22//22 23//23
f 6//6 23//23 7//7
f 7//7 23//23 24//24
f 7//7 24//24 8//8
f 8//8 24//24 25//25
f 8//8 25//25 9//9
f 9//9 25//25 26//26
f 9//9 26//26 10//10
f 10//10 26//26 27//27
f 10//10 27//27 11//11
f 11//11 27//27 28//28
f 11//11 28//28 12//12
f 12//12 28//28 29//29
f 12//12 29//29 13//13
f 13//13 29//29 30//30
f 13//13 30//30 14//14
f 14//14 30//30 31//31
f 14//14 31//31 15//15
f 15//15 31//31 32//32
f 15//15 32//32 16//16
f 16//16 32//32 33//33
f 16//16 33//33 17//17
f 17//17 33//33 34//34
f 17//17 34//34 18//18
f 19//19 1//1 35//35
f 19//19 35//35 20//20
f 20//20 35//35 36//36
f 20//20 36//36 21//21
f 21//21 36//36 37//37
f 21//21 37//37 22//22
f 22//22 37//37 38//38
f 22//22 38//38 23//23
f 23//23 38//38 39//39
f 23//23 39//39 24//24
f 24//24 39//39 40//40
f 24//24 40//40 25//25
f 25//25 40//40 41//41
f 25//25 41//41 26//26
f 26//26 41//41 42//42
f 26//26 42//42 27//27
f 27//27 42//42 43//43
f 27//27 43//43 28//28
f 28//28 43//43 44//44
f 28//28 44//44 29//29
f 29//29 44//44 45//45
f 29//29 45//45 30//30
f 30//30 45//45 46//46
f 30//30 46//46 31//31
f 31//31 46//46 47//47
f 31//31 47//47 32//32
f 32//32 47//47 48//48
f 32//32 48//48 33//33
f 33//33 48//48 49//49
f 33//33 49//49 34//34
f 34//34 49//49 50//50
f 34//34 50//50 18//18
f 35//35 1//1 51//51
f 35//35 51//51 36//36
f 36//36 51//51 52//52
f 36//36 52//52 37//37
f 37//37 52//52 53//53
f 37//37 53//53 38//38
f 38//38 53//53 54//54
f 38//38 54//54 39//39
f 39//39 54//54 55//55
f 39//39 55//55 40//40
f 40//40 55//55 56//56
f 40//40 56//56 41//41
f 41//41 56//56 57//57
f 41//41 57//57 42//42
f 42//42 57//57 58//58
f 42//42 58//58 43//43
f 43//43 58//58 59//59
f 43//43 59//59 44//44
f 44//44 59//59 60//60
f 44//44 60//60 45//45
f 45//45 60//60 61//61
f 45//45 61//61 46//46
f 46//46 61//61 62//62
f 46//46 62//62 47//47
f 47//47 62//62 63//63
f 47//47 63//63 48//48
f 48//48 63//63 64//64
f 48//48 64//64 49//49
f 49//49 64//64 65//65
f 49//49 65//65 50//50
f 50//50 65//65 66//66
f 50//50 66//66 18//18
f 51//51 1//1 67//67
f 51//51 67//67 52//52
f 52//52 67//67 68//68
f 52//52 68//68 53//53
f 53//53 68//68 69//69
f 53//53 69//69 54//54
f 54//54 69//69 70//70
f 54//54 70//70 55//55
f 55//55 70//70 71//71
f 55//55 71//71 56//56
f 56//56 71//71 72//72
f 56//56 72//72 57//57
f 57//57 72//72 73//73
f 57//57 73//73 58//58
f 58//58 73//73 74//74
f 58//58 74//74 59//59
f 59//59 74//74 75//75
f 59//59 75//75 60//60
f 60//60 75//75 76//76
f 60//60 76//76 61//61
f 61//61 76//76 77//77
f 61//61 77//77 62//62
f 62//62 77//77 78//78
f 62//62 78//78 63//63
f 63//63 78//78 79//79
f 63//63 79//79 64//64
f 64//64 79//79 80//80
f 64//64 80//80 65//65
f 65//65 80//80 81//81
f 65//65 81//81 66//66
f 66//66 81//81 82//82
f 66//66 82//82 18//18
f 67//67 1//1 83//83
f 67//67 83//83 68//68
f 68//68 83//83 84//84
f 68//68 84//84 69//69
f 69//69 84//84 85//85
f 69//69 85//85 70//70
f 70//70 85//85 86//86
f 70//70 86//86 71//71
f 71//71 86//86 87//87
f 71//71 87//87 72//72
f 72//72 87//87 88//88
f 72//72 88//88 73//73
f 73//73 88//88 89//89
f 73//73 89//89 74//74
f 74//74 89//89 90//90
f 74//74 90//90 75//75
f 75//75 90//90 91//91
f 75//75 91//91 76//76
f 76//76 91//91 92//92
f 76//76 92//92 77//77
f 77//77 92//92 93//93
f 77//77 93//93 78//78
f 78//78 93//93 94//94
f 78//78 94//94 79//79
f 79//79 94//94 95//95
f 79//79 95//95 80//80
f 80//80 95//95 96//96
f 80//80 96//96 81//81
f 81//81 96//96 97//97
f 81//81 97//97 82//82
f 82//82 97//97 98//98
f 82//82 98//98 18//18
f 83//83 1//1 99//99
f 83//83 99//99 84//84
f 84//84 99//99 100//100
f 84//84 100//100 85//85
f 85//85 100//100 101//101
f 85//85 101//101 86//86
f 86//86 101//101 102//102
f 86//86 102//102 87//87
f 87//87 102//102 103//103
f 87//87 103//103 88//88
f 88//88 103//103 104//104
f 88//88 104//104 89//89
f 89//89 104//104 105//105
f 89//89 105//105 90//90
f 90//90 105//105 106//106
f 90//90 106//106 91//91
f 91//91 106//106 107//107
f 91//91 107//107 92//92
f 92//92 107//107 108//108
f 92//92 108//108 93//93
f 93//93 108//108 109//109
f 93//93 109//109 94//94
f 94//94 109//109 110//110
f 94//94 110//110 95//95
f 95//95 110//110 111//111
f 95//95 111//111 96//96
f 96//96 111//111 112//112
f 96//96 112//112 97//97
f 97//97 112//112 113//113
f 97//97 113//113 98//98
f 98//98 113//113 114//114
f 98//98 114//114 18//18
f 99//99 1//1 115//115
f 99//99 115//115 100//100
f 100//100 115//115 116//116
f 100//100 116//116 101//101
f 101//101 116//116 117//117
f 101//101 117//117 102//102
f 102//102 117//117 118//118
f 102//102 118//118 103//103
f 103//103 118//118 119//119
f 103//103 119//119 104//104
f 104//104 119//119 120//120
f 104//104 120//120 105//105
f 105//105 120//120 121//121
f 105//105 121//121 106//106
f 106//106 121//121 122//122
f 106//106 122//122 107//107
f 107//107 122//122 123//123
f 107//107 123//123 108//108
f 108//108 123//123 124//124
f 108//108 124//124 109//109
f 109//109 124//124 125//125
f 109//109 125//125 110//110
f 110//110 125//125 126//126
f 110//110 126//126 111//111
f 111//111 126//126 127//127
f 111//111 127//127 112//112
f 112//112 127//127 128//128
f 112//112 128//128 113//113
f 113//113 128//128 129//129
f 113//113 129//129 114//114
f 114//114 129//129 130//130
f 114//114 130//130 18//18
f 115//115 1//1 131//131
f 115//115 131//131 116//116
f 116//116 131//131 132//132
f 116//116 132//132 117//117
f 117//117 132//132 133//133
f 117//117 133//133 118//118
f 118//118 133//133 134//134
f 118//118 134//134 119//119
f 119//119 134//134 135//135
f 119//119 135//135 120//120
f 120//120 135//135 136//136
f 120//120 136//136 121//121
f 121//121 136//136 137//137
f 121//121 137//137 122//122
f 122//122 137//137 138//138
f 122//122 138//138 123//123
f 123//123 138//138 139//139
f 123//123 139//139 124//124
f 124//124 139//139 140//140
f 124//124 140//140 125//125
f 125//125 140//140 141//141
f 125//125 141//141 126//126
f 126//126 141//141 142//142
f 126//126 142//142 127//127
f 127//127 142//142 143//143
f 127//127 143//143 128//128
f 128//128 143//143 144//144
f 128//128 144//144 129//129
f 129//129 144//144 145//145
f 129//129 145//145 130//130
f 130//130 145//145 146//146
f 130//130 146//146 18//18
f 131//131 1//1 147//147
f 131//131 147//147 132//132
f 132//132 147//147 148//148
f 132//132 148//148 133//133
f 133//133 148//148 149//149
f 133//133 149//149 134//134
f 134//134 149//149 150//150
f 134//134 150//150 135//135
f 135//135 150//150 151//151
f 135//135 151//151 136//136
f 136//136 151//151 152//152
f 136//136 152//152 137//137
f 137//137 152//152 153//153
f 137//137 153//153 138//138
f 138//138 153//153 154//154
f 138//138 154//154 139//139
f 139//139 154//154 155//155
f 139//139 155//155 140//140
f 140//140 155//155 156//156
f 140//140 156//156 141//141
f 141//141 156//156 157//157
f 141//141 157//157 142//142
f 142//142 157//157 158//158
f 142//142 158//158 143//143
f 143//143 158//158 159//159
f 143//143 159//159 144//144
f 144//144 159//159 160//160
f 144//144 160//160 145//145
f 145//145 160//160 161//161
f 145//145 161//161 146//146
f 146//146 161//161 162//162
f 146//146 162//162 18//18
f 147//147 1//1 163//163
f 147//147 163//163 148//148
f 148//148 163//163 164//164
f 148//148 164//164 149//149
f 149//149 164//164 165//165
f 149//149 165//165 150//150
f 150//150 165//165 166//166
f 150//150 166//166 151//151
f 151//151 166//166 167//167
f 151//151 167//167 152//152
f 152//152 167//167 168//168
f 152//152 168//168 153//153
f 153//153 168//168 169//169
f 153//153 169//169 154//154
f 154//154 169//169 170//170
f 154//154 170//170 155//155
f 155//155 170//170 171//171
f 155//155 171//171 156//156
f 156//156 171//171 172//172
f 156//156 172//172 157//157
f 157//157 172//172 173//173
f 157//157 173//173 158//158
f 158//158 173//173 174//174
f 158//158 174//174 159//159
f 159//159 174//174 175//175
f 159//159 175//175 160//160
f 160//160 175//175 176//176
f 160//160 176//176 161//161
f 161//161 176//176 177//177
f 161//161 177//177 162//162
f 162//162 177//177 178//178
f 162//162 178//178 18//18
f 163//163 1//1 179//179
f 163//163 179//179 164//164
f 164//164 179//179 180//180
f 164//164 180//180 165//165
f 165//165 180//180 181//181
f 165//165 181//181 166//166
f 166//166 181//181 182//182
f 166//166 182//182 167//167
f 167//167 182//182 183//183
f 167//167 183//183 168//168
f 168//168 183//183 184//184
f 168//168 184//184 169//169
f 169//169 184//184 185//185
f 169//169 185//185 170//170
f 170//170 185//185 186//186
f 170//170 186//186 171//171
f 171//171 186//186 187//187
f 171//171 187//187 172//172
f 172//172 187//187 188//188
f 172//172 188//188 173//173
f 173//173 188//188 189//189
f 173//173 189//189 174//174
f 174//174 189//189 190//190
f 174//174 190//190 175//175
f 175//175 190//190 191//191
f 175//175 191//191 176//176
f 176//176 191//191 192//192
f 176//176 192//192 177//177
f 177//177 192//192 193//193
f 177//177 193//193 178//178
f 178//178 193//193 194//194
f 178//178 194//194 18//18
f 179//179 1//1 195//195
f 179//179 195//195 180//180
f 180//180 195//195 196//196
f 180//180 196//196 181//181
f 181//181 196//196 197//197
f 181//181 197//197 182//182
f 182//182 197//197 198//198
f 182//182 198//198 183//183
f 183//183 198//198 199//199
f 183//183 199//199 184//184
f 184//184 199//199 200//200
f 184//184 200//200 185//185
f 185//185 200//200 201//201
f 185//185 201//201 186//186
f 186//186 201//201 202//202
f 186//186 202//202 187//187
f 187//187 202//202 203//203
f 187//187 203//203 188//188
f 188//188 203//203 204//204
f 188//188 204//204 189//189
f 189//189 204//204 205//205
f 189//189 205//205 190//190
f 190//190 205//205 206//206
f 190//190 206//206 191//191
f 191//191 206//206 207//207
f 191//191 207//207 192//192
f 192//192 207//207 208//208
f 192//192 208//208 193//193
f 193//193 208//208 209//209
f 193//193 209//209 194//194
f 194//194 209//209 210//210
f 194//194 210//210 18//18
f 195//195 1//1 211//211
f 195//195 211//211 196//196
f 196//196 211//211 212//212
f 196//196 212//212 197//197
f 197//197 212//212 213//213
f 197//197 213//213 198//198
f 198//198 213//213 214//214
f 198//198 214//214 199//199
f 199//199 214//214 215//215
f 199//199 215//215 200//200
f 200//200 215//215 216//216
f 200//200 216//216 201//201
f 201//201 216//216 217//217
f 201//201 217//217 202//202
f 202//202 217//217 218//218
f 202//202 218//218 203//203
f 203//203 218//218 219//219
f 203//203 219//219 204//204
f 204//204 219//219 220//220
f 204//204 220//220 205//205
f 205//205 220//220 221//221
f 205//205 221//221 206//206
f 206//206 221//221 222//222
f 206//206 222//222 207//207
f 207//207 222//222 223//223
f 207//207 223//223 208//208
f 208//208 223//223 224//224
f 208//208 224//224 209//209
f 209//209 224//224 225//225
f 209//209 225//225 210//210
f 210//210 225//225 226//226
f 210//210 226//226 18//18
f 211//211 1//1 227//227
f 211//211 227//227 212//212
f 212//212 227//227 228//228
f 212//212 228//228 213//213
f 213//213 228//228 229//229
f 213//213 229//229 214//214
f 214//214 229//229 230//230
f 214//214 230//230 215//215
f 215//215 230//230 231//231
f 215//215 231//231 216//216
f 216//216 231//231 232//232
f 216//216 232//232 217//217
f 217//217 232//232 233//233
f 217//217 233//233 218//218
f 218//218 233//233 234//234
f 218//218 234//234 219//219
f 219//219 234//234 235//235
f 219//219 235//235 220//220
f 220//220 235//235 236//236
f 220//220 236//236 221//221
f 221//221 236//236 237//237
f 221//221 237//237 222//222
f 222//222 237//237 238//238
f 222//222 238//238 223//223
f 223//223 238//238 239//239
f 223//223 239//239 224//224
f 224//224 239//239 240//240
f 224//224 240//240 225//225
f 225//225 240//240 241//241
f 225//225 241//241 226//226
f 226//226 241//241 242//242
f 226//226 242//242 18//18
f 227//227 1//1 243//243
f 227//227 243//243 228//228
f 228//228 243//243 244//244
f 228//228 244//244 229//229
f 229//229 244//244 245//245
f 229//229 245//245 230//230
f 230//230 245//245 246//246
f 230//230 246//246 231//231
f 231//231 246//246 247//247
f 231//231 247//247 232//232
f 232//232 247//247 248//248
f 232//232 248//248 233//233
f 233//233 248//248 249//249
f 233//233 249//249 234//234
f 234//234 249//249 250//250
f 234//234 250//250 235//235
f 235//235 250//250 251//251
f 235//235 251//251 236//236
f 236//236 251//251 252//252
f 236//236 252//252 237//237
f 237//237 252//252 253//253
f 237//237 253//253 238//238
f 238//238 253//253 254//254
f 238//238 254//254 239//239
f 239//239 254//254 255//255
f 239//239 255//255 240//240
f 240//240 255//255 256//256
f 240//240 256//256 241//241
f 241//241 256//256 257//257
f 241//241 257//257 242//242
f 242//242 257//257 258//258
f 242//242 258//258 18//18
f 243//243 1//1 259//259
f 243//243 259//259 244//244
f 244//244 259//259 260//260
f 244//244 260//260 245//245
f 245//245 260//260 261//261
f 245//245 261//261 246//246
f 246//246 261//261 262//262
f 246//246 262//262 247//247
f 247//247 262//262 263//263
f 247//247 263//263 248//248
f 248//248 263//263 264//264
f 248//248 264//264 249//249
f 249//249 264//264 265//265
f 249//249 265//265 250//250
f 250//250 265//265 266//266
f 250//250 266//266 251//251
f 251//251 266//266 267//267
f 251//251 267//267 252//252
f 252//252 267//267 268//268
f 252//252 268//268 253//253
f 253//253 268//268 269//269
f 253//253 269//269 254//254
f 254//254 269//269 270//270
f 254//254 270//270 255//255
f 255//255 270//270 271//271
f 255//255 271//271 256//256
f 256//256 271//271 272//272
f 256//256 272//272 257//257
f 257//257 272//272 273//273
f 257//257 273//273 258//258
f 258//258 273//273 274//274
f 258//258 274//274 18//18
f 259//259 1//1 275//275
f 259//259 275//275 260//260
f 260//260 275//275 276//276
f 260//260 276//276 261//261
f 261//261 276//276 277//277
f 261//261 277//277 262//262
f 262//262 277//277 278//278
f 262//262 278//278 263//263
f 263//263 278//278 279//279
f 263//263 279//279 264//264
f 264//264 279//279 280//280
f 264//264 280//280 265//265
f 265//265 280//280 281//281
f 265//265 281//281 266//266
f 266//266 281//281 282//282
f 266//266 282//282 267//267
f 267//267 282//282 283//283
f 267//267 283//283 268//268
f 268//268 283//283 284//284
f 268//268 284//284 269//269
f 269//269 284//284 285//285
f 269//269 285//285 270//270
f 270//270 285//285 286//286
f 270//270 286//286 271//271
f 271//271 286//286 287//287
f 271//271 287//287 272//272
f 272//272 287//287 288//288
f 272//272 288//288 273//273
f 273//273 288//288 289//289
f 273//273 289//289 274//274
f 274//274 289//289 290//290
f 274//274 290//290 18//18
f 275//275 1//1 2//2
f 275//275 2//2 276//276
f 276//276 2//2 3//3
f 276//276 3//3 277//277
f 277//277 3//3 4//4
f 277//277 4//4 278//278
f 278//278 4//4 5//5
f 278//278 5//5 279//279
f 279//279 5//5 6//6
f 279//279 6//6 280//280
f 280//280 6//6 7//7
f 280//280 7//7 281//281
f 281//281 7//7 8//8
f 281//281 8//8 282//282
f 282//282 8//8 9//9
f 282//282 9//9 283//283
f 283//283 9//9 10//10
f 283//283 10//10 284//284
f 284//284 10//10 11//11
f 284//284 11//11 285//285
f 285//285 11//11 12//12
f 285//285 12//12 286//286
f 286//286 12//12 13//13
f 286//286 13//13 287//287
f 287//287 13//13 14//14
f 287//287 14//14 288//288
f 288//288 14//14 15//15
f 288//288 15//15 289//289
f 289//289 15//15 16//16
f 289//289 16//16 290//290
f 290//290 16//16 17//17
f 290//290 17//17 18//18
f 292//292 291//291 309//309
f 292//292 309//309 293//293
f 293//293 309//309 310//310
f 293//293 310//310 294//294
f 294//294 310//310 311//311
f 294//294 311//311 295//295
f 295//295 311//311 312//312
f 295//295 312//312 296//296
f 296//296 312//312 313//313
f 296//296 313//313 297//297
f 297//297 313//313 314//314
f 297//297 314//314 298//298
f 298//298 314//314 315//315
f 298//298 315//315 299//299
f 299//299 315//315 316//316
f 299//299 316//316 300//300
f 300//300 316//316 317//317
f 300//300 317//317 301//301
f 301//301 317//317 318//318
f 301//301 318//318 302//302
f 302//302 318//318 319//319
f 302//302 319//319 303//303
f 303//303 319//319 320//320
f 303//303 320//320 304//304
f 304//304 320//320 321//321
f 304//304 321//321 305//305
f 305//305 321//321 322//322
f 305//305 322//322 306//306
f 306//306 322//322 323//323
f 306//306 323//323 307//307
f 307//307 323//323 324//324
f 307//307 324//324 308//308
f 309//309 291//291 325//325
f 309//309 325//325 310//310
f 310//310 325//325 326//326
f 310//310 326//326 311//311
f 311//311 326//326 327//327
f 311//311 327//327 312//312
f 312//312 327//327 328//328
f 312//312 328//328 313//313
f 313//313 328//328 329//329
f 313//313 329//329 314//314
f 314//314 329//329 330//330
f 314//314 330//330 315//315
f 315//315 330//330 331//331
f 315//315 331//331 316//316
f 316//316 331//331 332//332
f 316//316 332//332 317//317
f 317//317 332//332 333//333
f 317//317 333//333 318//318
f 318//318 333//333 334//334
f 318//318 334//334 319//319
f 319//319 334//334 335//335
f 319//319 335//335 320//320
f 320//320 335//335 336//336
f 320//320 336//336 321//321
f 321//321 336//336 337//337
f 321//321 337//337 322//322
f 322//322 337//337 338//338
f 322//322 338//338 323//323
f 323//323 338//338 339//339
f 323//323 339//339 324//324
f 324//324 339//339 340//340
f 324//324 340//340 308//308
f 325//325 291//291 341//341
f 325//325 341//341 326//326
f 326//326 341//341 342//342
f 326//326 342//342 327//327
f 327//327 342//342 343//343
f 327//327 343//343 328//328
f 328//328 343//343 344//344
f 328//328 344//344 329//329
f 329//329 344//344 345//345
f 329//329 345//345 330//330
f 330//330 345//345 346//346
f 330//330 346//346 331//331
f 331//331 346//346 347//347
f 331//331 347//347 332//332
f 332//332 347//347 348//348
f 332//332 348//348 333//333
f 333//333 348//348 349//349
f 333//333 349//349 334//334
f 334//334 349//349 350//350
f 334//334 350//350 335//335
f 335//335 350//350 351//351
f 335//335 351//351 336//336
f 336//336 351//351 352//352
f 336//336 352//352 337//337
f 337//337 352//352 353//353
f 337//337 353//353 338//338
f 338//338 353//353 354//354
f 338//338 354//354 339//339
f 339//339 354//354 355//355
f 339//339 355//355 340//340
f 340//340 355//355 356//356
f 340//340 356//356 308//308
f 341//341 291//291 357//357
f 341//341 357//357 342//342
f 342//342 357//357 358//358
f 342//342 358//358 343//343
f 343//343 358//358 359//359
f 343//343 359//359 344//344
f 344//344 359//359 360//360
f 344//344 360//360 345//345
f 345//345 360//360 361//361
f 345//345 361//361 346//346
f 346//346 361//361 362//362
f 346//346 362//362 347//347
f 347//347 362//362 363//363
f 347//347 363//363 348//348
f 348//348 363//363 364//364
f 348//348 364//364 349//349
f 349//349 364//364 365//365
f 349//349 365//365 350//350
f 350//350 365//365 366//366
f 350//350 366//366 351//351
f 351//351 366//366 367//367
f 351//351 367//367 352//352
f 352//352 367//367 368//368
f 352//352 368//368 353//353
f 353//353 368//368 369//369
f 353//353 369//369 354//354
f 354//354 369//369 370//370
f 354//354 370//370 355//355
f 355//355 370//370 371//371
f 355//355 371//371 356//356
f 356//356 371//371 372//372
f 356//356 372//372 308//308
f 357//357 291//291 373//373
f 357//357 373//373 358//358
f 358//358 373//373 374//374
f 358//358 374//374 359//359
f 359//359 374//374 375//375
f 359//359 375//375 360//360
f 360//360 375//375 376//376
f 360//360 376//376 361//361
f 361//361 376//376 377//377
f 361//361 377//377 362//362
f 362//362 377//377 378//378
f 362//362 378//378 363//363
f 363//363 378//378 379//379
f 363//363 379//379 364//364
f 364//364 379//379 380//380
f 364//364 380//380 365//365
f 365//365 380//380 381//381
f 365//365 381//381 366//366
f 366//366 381//381 382//382
f 366//366 382//382 367//367
f 367//367 382//382 383//383
f 367//367 383//383 368//368
f 368//368 383//383 384//384
f 368//368 384//384 369//369
f 369//369 384//384 385//385
f 369//369 385//385 370//370
f 370//370 385//385 386//386
f 370//370 386//386 371//371
f 371//371 386//386 387//387
f 371//371 387//387 372//372
f 372//372 387//387 388//388
f 372//372 388//388 308//308
f 373//373 291//291 389//389
f 373//373 389//389 374//374
f 374//374 389//389 390//390
f 374//374 390//390 375//375
f 375//375 390//390 391//391
f 375//375 391//391 376//376
f 376//376 391//391 392//392
f 376//376 392//392 377//377
f 377//377 392//392 393//393
f 377//377 393//393 378//378
f 378//378 393//393 394//394
f 378//378 394//394 379//379
f 379//379 394//394 395//395
f 379//379 395//395 380//380
f 380//380 395//395 396//396
f 380//380 396//396 381//381
f 381//381 396//396 397//397
f 381//381 397//397 382//382
f 382//382 397//397 398//398
f 382//382 398//398 383//383
f 383//383 398//398 399//399
f 383//383 399//399 384//384
f 384//384 399//399 400//400
f 384//384 400//400 385//385
f 385//385 400//400 401//401
f 385//385 401//401 386//386
f 386//386 401//401 402//402
f 386//386 402//402 387//387
f 387//387 402//402 403//403
f 387//387 403//403 388//388
f 388//388 403//403 404//404
f 388//388 404//404 308//308
f 389//389 291//291 405//405
f 389//389 405//405 390//390
f 390//390 405//405 406//406
f 390//390 406//406 391//391
f 391//391 406//406 407//407
f 391//391 407//407 392//392
f 392//392 407//407 408//408
f 392//392 408//408 393//393
f 393//393 408//408 409//409
f 393//393 409//409 394//394
f 394//394 409//409 410//410
f 394//394 410//410 395//395
f 395//395 410//410 411//411
f 395//395 411//411 396//396
f 396//396 411//411 412//412
f 396//396 412//412 397//397
f 397//397 412//412 413//413
f 397//397 413//413 398//398
f 398//398 413//413 414//414
f 398//398 414//414 399//399
f 399//399 414//414 415//415
f 399//399 415//415 400//400
f 400//400 415//415 416//416
f 400//400 416//416 401//401
f 401//401 416//416 417//417
f 401//401 417//417 402//402
f 402//402 417//417 418//418
f 402//402 418//418 403//403
f 403//403 418//418 419//419
f 403//403 419//419 404//404
f 404//404 419//419 420//420
f 404//404 420//420 308//308
f 405//405 291//291 421//421
f 405//405 421//421 406//406
f 406//406 421//421 422//422
f 406//406 422//422 407//407
f 407//407 422//422 423//423
f 407//407 423//423 408//408
f 408//408 423//423 424//424
f 408//408 424//424 409//409
f 409//409 424//424 425//425
f 409//409 425//425 410//410
f 410//410 425//425 426//426
f 410//410 426//426 411//411
f 411//411 426//426 427//427
f 411//411 427//427 412//412
f 412//412 427//427 428//428
f 412//412 428//428 413//413
f 413//413 428//428 429//429
f 413//413 429//429 414//414
f 414//414 429//429 430//430
f 414//414 430//430 415//415
f 415//415 430//430 431//431
f 415//415 431//431 416//416
f 416//416 431//431 432//432
f 416//416 432//432 417//417
f 417//417 432//432 433//433
f 417//417 433//433 418//418
f 418//418 433//433 434//434
f 418//418 434//434 419//419
f 419//419 434//434 435//435
f 419//419 435//435 420//420
f 420//420 435//435 436//436
f 420//420 436//436 308//308
f 421//421 291//291 437//437
f 421//421 437//437 422//422
f 422//422 437//437 438//438
f 422//422 438//438 423//423
f 423//423 438//438 439//439
f 423//423 439//439 424//424
f 424//424 439//439 440//440
f 424//424 440//440 425//425
f 425//425 440//440 441//441
f 425//425 441//441 426//426
f 426//426 441//441 442//442
f 426//426 442//442 427//427
f 427//427 442//442 443//443
f 427//427 443//443 428//428
f 428//428 443//443 444//444
f 428//428 444//444 429//429
f 429//429 444//444 445//445
f 429//429 445//445 430//430
f 430//430 445//445 446//446
f 430//430 446//446 431//431
f 431//431 446//446 447//447
f 431//431 447//447 432//432
f 432//432 447//447 448//448
f 432//432 448//448 433//433
f 433//433 448//448 449//449
f 433//433 449//449 434//434
f 434//434 449//449 450//450
f 434//434 450//450 435//435
f 435//435 450//450 451//451
f 435//435 451//451 436//436
f 436//436 451//451 452//452
f 436//436 452//452 308//308
f 437//437 291//291 453//453
f 437//437 453//453 438//438
f 438//438 453//453 454//454
f 438//438 454//454 439//439
f 439//439 454//454 455//455
f 439//439 455//455 440//440
f 440//440 455//455 456//456
f 440//440 456//456 441//441
f 441//441 456//456 457//457
f 441//441 457//457 442//442
f 442//442 457//457 458//458
f 442//442 458//458 443//443
f 443//443 458//458 459//459
f 443//443 459//459 444//444
f 444//444 459//459 460//460
f 444//444 460//460 445//445
f 445//445 460//460 461//461
f 445//445 461//461 446//446
f 446//446 461//461 462//462
f 446//446 462//462 447//447
f 447//447 462//462 463//463
f 447//447 463//463 448//448
f 448//448 463//463 464//464
f 448//448 464//464 449//449
f 449//449 464//464 465//465
f 449//449 465//465 450//450
f 450//450 465//465 466//466
f 450//450 466//466 451//451
f 451//451 466//466 467//467
f 451//451 467//467 452//452
f 452//452 467//467 468//468
f 452//452 468//468 308//308
f 453//453 291//291 469//469
f 453//453 469//469 454//454
f 454//454 469//469 470//470
f 454//454 470//470 455//455
f 455//455 470//470 471//471
f 455//455 471//471 456//456
f 456//456 471//471 472//472
f 456//456 472//472 457//457
f 457//457 472//472 473//473
f 457//457 473//473 458//458
f 458//458 473//473 474//474
f 458//458 474//474 459//459
f 459//459 474//474 475//475
f 459//459 475//475 460//460
f 460//460 475//475 476//476
f 460//460 476//476 461//461
f 461//461 476//476 477//477
f 461//461 477//477 462//462
f 462//462 477//477 478//478
f 462//462 478//478 463//463
f 463//463 478//478 479//479
f 463//463 479//479 464//464
f 464//464 479//479 480//480
f 464//464 480//480 465//465
f 465//465 480//480 481//481
f 465//465 481//481 466//466
f 466//466 481//481 482//482
f 466//466 482//482 467//467
f 467//467 482//482 483//483
f 467//467 483//483 468//468
f 468//468 483//483 484//484
f 468//468 484//484 308//308
f 469//469 291//291 485//485
f 469//469 485//485 470//470
f 470//470 485//485 486//486
f 470//470 486//486 471//471
f 471//471 486//486 487//487
f 471//471 487//487 472//472
f 472//472 487//487 488//488
f 472//472 488//488 473//473
f 473//473 488//488 489//489
f 473//473 489//489 474//474
f 474//474 489//489 490//490
f 474//474 490//490 475//475
f 475//475 490//490 491//491
f 475//475 491//491 476//476
f 476//476 491//491 492//492
f 476//476 492//492 477//477
f 477//477 492//492 493//493
f 477//477 493//493 478//478
f 478//478 493//493 494//494
f 478//478 494//494 479//479
f 479//479 494//494 495//495
f 479//479 495//495 480//480
f 480//480 495//495 496//496
f 480//480 496//496 481//481
f 481//481 496//496 497//497
f 481//481 497//497 482//482
f 482//482 497//497 498//498
f 482//482 498//498 483//483
f 483//483 498//498 499//499
f 483//483 499//499 484//484
f 484//484 499//499 500//500
f 484//484 500//500 308//308
f 485//485 291//291 501//501
f 485//485 501//501 486//486
f 486//486 501//501 502//502
f 486//486 502//502 487//487
f 487//487 502//502 503//503
f 487//487 503//503 488//488
f 488//488 503//503 504//504
f 488//488 504//504 489//489
f 489//489 504//504 505//505
f 489//489 505//505 490//490
f 490//490 505//505 506//506
f 490//490 506//506 491//491
f 491//491 506//506 507//507
f 491//491 507//507 492//492
f 492//492 507//507 508//508
f 492//492 508//508 493//493
f 493//493 508//508 509//509
f 493//493 509//509 494//494
f 494//494 509//509 510//510
f 494//494 510//510 495//495
f 495//495 510//510 511//511
f 495//495 511//511 496//496
f 496//496 511//511 512//512
f 496//496 512//512 497//497
f 497//497 512//512 513//513
f 497//497 513//513 498//498
f 498//498 513//513 514//514
f 498//498 514//514 499//499
f 499//499 514//514 515//515
f 499//499 515//515 500//500
f 500//500 515//515 516//516
f 500//500 516//516 308//308
f 501//501 291//291 517//517
f 501//501 517//517 502//502
f 502//502 517//517 518//518
f 502//502 518//518 503//503
f 503//503 518//518 519//519
f 503//503 519//519 504//504
f 504//504 519//519 520//520
f 504//504 520//520 505//505
f 505//505 520//520 521//521
f 505//505 521//521 506//506
f 506//506 521//521 522//522
f 506//506 522//522 507//507
f 507//507 522//522 523//523
f 507//507 523//523 508//508
f 508//508 523//523 524//524
f 508//508 524//524 509//509
f 509//509 524//524 525//525
f 509//509 525//525 510//510
f 510//510 525//525 526//526
f 510//510 526//526 511//511
f 511//511 526//526 527//527
f 511//511 527//527 512//512
f 512//512 527//527 528//528
f 512//512 528//528 513//513
f 513//513 528//528 529//529
f 513//513 529//529 514//514
f 514//514 529//529 530//530
f 514//514 530//530 515//515
f 515//515 530//530 531//531
f 515//515 531//531 516//516
f 516//516 531//531 532//532
f 516//516 532//532 308//308
f 517//517 291//291 533//533
f 517//517 533//533 518//518
f 518//518 533//533 534//534
f 518//518 534//534 519//519
f 519//519 534//534 535//535
f 519//519 535//535 520//520
f 520//520 535//535 536//536
f 520//520 536//536 521//521
f 521//521 536//536 537//537
f 521//521 537//537 522//522
f 522//522 537//537 538//538
f 522//522 538//538 523//523
f 523//523 538//538 539//539
f 523//523 539//539 524//524
f 524//524 539//539 540//540
f 524//524 540//540 525//525
f 525//525 540//540 541//541
f 525//525 541//541 526//526
f 526//526 541//541 542//542
f 526//526 542//542 527//527
f 527//527 542//542 543//543
f 527//527 543//543 528//528
f 528//528 543//543 544//544
f 528//528 544//544 529//529
f 529//529 544//544 545//545
f 529//529 545//545 530//530
f 530//530 545//545 546//546
f 530//530 546//546 531//531
f 531//531 546//546 547//547
f 531//531 547//547 532//532
f 532//532 547//547 548//548
f 532//532 548//548 308//308
f 533//533 291//291 549//549
f 533//533 549//549 534//534
f 534//534 549//549 550//550
f 534//534 550//550 535//535
f 535//535 550//550 551//551
f 535//535 551//551 536//536
f 536//536 551//551 552//552
f 536//536 552//552 537//537
f 537//537 552//552 553//553
f 537//537 553//553 538//538
f 538//538 553//553 554//554
f 538//538 554//554 539//539
f 539//539 554//554 555//555
f 539//539 555//555 540//540
f 540//540 555//555 556//556
f 540//540 556//556 541//541
f 541//541 556//556 557//557
f 541//541 557//557 542//542
f 542//542 557//557 558//558
f 542//542 558//558 543//543
f 543//543 558//558 559//559
f 543//543 559//559 544//544
f 544//544 559//559 560//560
f 544//544 560//560 545//545
f 545//545 560//560 561//561
f 545//545 561//561 546//546
f 546//546 561//561 562//562
f 546//546 562//562 547//547
f 547//547 562//562 563//563
f 547//547 563//563 548//548
f 548//548 563//563 564//564
f 548//548 564//564 308//308
f 549//549 291//291 565//565
f 549//549 565//565 550//550
f 550//550 565//565 566//566
f 550//550 566//566 551//551
f 551//551 566//566 567//567
f 551//551 567//567 552//552
f 552//552 567//567 568//568
f 552//552 568//568 553//553
f 553//553 568//568 569//569
f 553//553 569//569 554//554
f 554//554 569//569 570//570
f 554//554 570//570 555//555
f 555//555 570//570 571//571
f 555//555 571//571 556//556
f 556//556 571//571 572//572
f 556//556 572//572 557//557
f 557//557 572//572 573//573
f 557//557 573//573 558//558
f 558//558 573//573 574//574
f 558//558 574//574 559//559
f 559//559 574//574 575//575
f 559//559 575//575 560//560
f 560//560 575//575 576//576
f 560//560 576//576 561//561
f 561//561 576//576 577//577
f 561//561 577//577 562//562
f 562//562 577//577 578//578
f 562//562 578//578 563//563
f 563//563 578//578 579//579
f 563//563 579//579 564//564
f 564//564 579//579 580//580
f 564//564 580//580 308//308
f 565//565 291//291 292//292
f 565//565 292//292 566//566
f 566//566 292//292 293//293
f 566//566 293//293 567//567
f 567//567 293//293 294//294
f 567//567 294//294 568//568
f 568//568 294//294 295//295
f 568//568 295//295 569//569
f 569//569 295//295 296//296
f 569//569 296//296 570//570
f 570//570 296//296 297//297
f 570//570 297//297 571//571
f 571//571 297//297 298//298
f 571//571 298//298 572//572
f 572//572 298//298 299//299
f 572//572 299//299 573//573
f 573//573 299//299 300//300
f 573//573 300//300 574//574
f 574//574 300//300 301//301
f 574//574 301//301 575//575
f 575//575 301//301 302//302
f 575//575 302//302 576//576
f 576//576 302//302 303//303
f 576//576 303//303 577//577
f 577//577 303//303 304//304
f 577//577 304//304 578//578
f 578//578 304//304 305//305
f 578//578 305//305 579//579
f 579//579 305//305 306//306
f 579//579 306//306 580//580
f 580//580 306//306 307//307
f 580//580 307//307 308//308

