# https://github.com/mikedh/trimesh
v 0.0823216 1.4925796 0.0934522
v 0.0831366 1.4920410 0.0943396
v 0.0835732 1.4912562 0.0953067
v 0.0835788 1.4903199 0.0962367
v 0.0831528 1.4893451 0.0970176
v 0.0373465 1.4384492 0.1275551
v 0.0362572 1.4377403 0.1277845
v 0.0350162 1.4373041 0.1276780
v 0.0337733 1.4371929 0.1272485
v 0.0326784 1.4374204 0.1265478
v 0.0827291 1.4926279 0.0947066
v 0.0828073 1.4923593 0.0959963
v 0.0825470 1.4918061 0.0971658
v 0.0819794 1.4910351 0.0980742
v 0.0361731 1.4401392 0.1286117
v 0.0352253 1.4392265 0.1287136
v 0.0342504 1.4384071 0.1283676
v 0.0333658 1.4377799 0.1276154
v 0.0821125 1.4931370 0.0946300
v 0.0816485 1.4933160 0.0958525
v 0.0809856 1.4930951 0.0969721
v 0.0802039 1.4925008 0.0978538
v 0.0343976 1.4416049 0.1283914
v 0.0336640 1.4405154 0.1285199
v 0.0330915 1.4393638 0.1282238
v 0.0327492 1.4382889 0.1275389
v 0.0815223 1.4933737 0.0941393
v 0.0805393 1.4937609 0.0949302
v 0.0794912 1.4936945 0.0957295
v 0.0785046 1.4931824 0.0964408
v 0.0326983 1.4422865 0.1269783
v 0.0321696 1.4411148 0.1272772
v 0.0319823 1.4398087 0.1273015
v 0.0321590 1.4385256 0.1270481
v 0.0811839 1.4932477 0.0934218
v 0.0799034 1.4935241 0.0935817
v 0.0786345 1.4933754 0.0939126
v 0.0775304 1.4928196 0.0943747
v 0.0317241 1.4419237 0.1249123
v 0.0313129 1.4407958 0.1254604
v 0.0313464 1.4395719 0.1259530
v 0.0318207 1.4383996 0.1263306
v 0.0812267 1.4928071 0.0927515
v 0.0799838 1.4926959 0.0923220
v 0.0787428 1.4922597 0.0922155
v 0.0776535 1.4915508 0.0924449
v 0.0318472 1.4406549 0.1229824
v 0.0314212 1.4396801 0.1237633
v 0.0314268 1.4387438 0.1246933
v 0.0318634 1.4379590 0.1256604
v 0.0816342 1.4922201 0.0923846
v 0.0807496 1.4915929 0.0916324
v 0.0797747 1.4907735 0.0912864
v 0.0788269 1.4898608 0.0913883
v 0.0330206 1.4389649 0.1219258
v 0.0324530 1.4381939 0.1228342
v 0.0321927 1.4376407 0.1240037
v 0.0322709 1.4373721 0.1252934
v 0.0822508 1.4917111 0.0924611
v 0.0819085 1.4906362 0.0917762
v 0.0813360 1.4894846 0.0914801
v 0.0806024 1.4883951 0.0916086
v 0.0347961 1.4374992 0.1221462
v 0.0340144 1.4369049 0.1230279
v 0.0333515 1.4366840 0.1241475
v 0.0328875 1.4368630 0.1253700
v 0.0828410 1.4914744 0.0929519
v 0.0830177 1.4901913 0.0926985
v 0.0828304 1.4888852 0.0927228
v 0.0823017 1.4877135 0.0930217
v 0.0364954 1.4368176 0.1235592
v 0.0355088 1.4363055 0.1242705
v 0.0344607 1.4362391 0.1250698
v 0.0334777 1.4366263 0.1258607
v 0.0831793 1.4916004 0.0936694
v 0.0836536 1.4904281 0.0940470
v 0.0836871 1.4892042 0.0945396
v 0.0832759 1.4880763 0.0950877
v 0.0374696 1.4371804 0.1256253
v 0.0363655 1.4366246 0.1260874
v 0.0350966 1.4364759 0.1264183
v 0.0338161 1.4367523 0.1265782
vn 0.6109598 0.6788442 -0.4073065
vn 0.8403904 0.5205557 -0.1508832
vn 0.9443601 0.3135554 0.0993331
vn 0.9390183 0.0721071 0.3362219
vn 0.8269963 -0.1764198 0.5338101
vn 0.6216214 -0.4046141 0.6707267
vn 0.3455239 -0.5873311 0.7318848
vn 0.0286996 -0.7038451 0.7097734
vn -0.2938892 -0.7397549 0.6053032
vn -0.6109598 -0.6788442 0.4073065
vn 0.7237831 0.6885001 -0.0458868
vn 0.7367379 0.6125847 0.2862819
vn 0.6649349 0.4668576 0.5830142
vn 0.5179040 0.2687524 0.8121253
vn 0.3125291 0.0405581 0.9490419
vn 0.0714405 -0.1925807 0.9786771
vn -0.1789226 -0.4048159 0.8967223
vn -0.4104964 -0.5718105 0.7102995
vn 0.5473435 0.8341587 -0.0677820
vn 0.4225824 0.8719336 0.2472971
vn 0.2502163 0.8092258 0.5315500
vn 0.0502132 0.6548516 0.7540876
vn -0.1551617 0.4266572 0.8910042
vn -0.3432781 0.1497876 0.9272129
vn -0.4930781 -0.1454669 0.8577374
vn -0.5869361 -0.4261519 0.6884044
vn 0.3784653 0.9018949 -0.2082055
vn 0.1218904 0.9925398 -0.0027306
vn -0.1467290 0.9684388 0.2014869
vn -0.3974343 0.8344009 0.3818653
vn -0.6028092 0.6062066 0.5187819
vn -0.7402235 0.3090005 0.5971498
vn -0.7937700 -0.0248607 0.6077097
vn -0.7558142 -0.3584156 0.5479809
vn 0.2816544 0.8658359 -0.4135203
vn -0.0504840 0.9283357 -0.3682990
vn -0.3742816 0.8836825 -0.2811023
vn -0.6540523 0.7388187 -0.1623653
vn -0.8594272 0.5106244 -0.0254488
vn -0.9677760 0.2242443 0.1145607
vn -0.9661444 -0.0890648 0.2421413
vn -0.8526252 -0.3944747 0.3426661
vn 0.2938892 0.7397549 -0.6053032
vn -0.0286996 0.7038451 -0.7097734
vn -0.3455239 0.5873311 -0.7318848
vn -0.6216214 0.4046141 -0.6707267
vn -0.8269963 0.1764198 -0.5338101
vn -0.9390183 -0.0721071 -0.3362219
vn -0.9443601 -0.3135554 -0.0993331
vn -0.8403904 -0.5205557 0.1508832
vn 0.4104964 0.5718105 -0.7102995
vn 0.1789226 0.4048159 -0.8967223
vn -0.0714405 0.1925807 -0.9786771
vn -0.3125291 -0.0405581 -0.9490419
vn -0.5179040 -0.2687524 -0.8121253
vn -0.6649349 -0.4668576 -0.5830142
vn -0.7367379 -0.6125847 -0.2862819
vn -0.7237831 -0.6885001 0.0458868
vn 0.5869361 0.4261519 -0.6884044
vn 0.4930781 0.1454669 -0.8577374
vn 0.3432781 -0.1497876 -0.9272129
vn 0.1551617 -0.4266572 -0.8910042
vn -0.0502132 -0.6548516 -0.7540876
vn -0.2502163 -0.8092258 -0.5315500
vn -0.4225824 -0.8719336 -0.2472971
vn -0.5473435 -0.8341587 0.0677820
vn 0.7558142 0.3584156 -0.5479809
vn 0.7937700 0.0248607 -0.6077097
vn 0.7402235 -0.3090005 -0.5971498
vn 0.6028092 -0.6062066 -0.5187819
vn 0.3974343 -0.8344009 -0.3818653
vn 0.1467290 -0.9684388 -0.2014869
vn -0.1218904 -0.9925398 0.0027306
vn -0.3784653 -0.9018949 0.2082055
vn 0.8526252 0.3944747 -0.3426661
vn 0.9661444 0.0890648 -0.2421413
vn 0.9677760 -0.2242443 -0.1145607
vn 0.8594272 -0.5106244 0.0254488
vn 0.6540523 -0.7388187 0.1623653
vn 0.3742816 -0.8836825 0.2811023
vn 0.0504840 -0.9283357 0.3682990
vn -0.2816544 -0.8658359 0.4135203
f 2//2 1//1 11//11
f 2//2 11//11 3//3
f 3//3 11//11 12//12
f 3//3 12//12 4//4
f 4//4 12//12 13//13
f 4//4 13//13 5//5
f 5//5 13//13 14//14
f 5//5 14//14 6//6
f 6//6 14//14 15//15
f 6//6 15//15 7//7
f 7//7 15//15 16//16
f 7//7 16//16 8//8
f 8//8 16//16 17//17
f 8//8 17//17 9//9
f 9//9 17//17 18//18
f 9//9 18//18 10//10
f 11//11 1//1 19//19
f 11//11 19//19 12//12
f 12//12 19//19 20//20
f 12//12 20//20 13//13
f 13//13 20//20 21//21
f 13//13 21//21 14//14
f 14//14 21//21 22//22
f 14//14 22//22 15//15
f 15//15 22//22 23//23
f 15//15 23//23 16//16
f 16//16 23//23 24//24
f 16//16 24//24 17//17
f 17//17 24//24 25//25
f 17//17 25//25 18//18
f 18//18 25//25 26//26
f 18//18 26//26 10//10
f 19//19 1//1 27//27
f 19//19 27//27 20//20
f 20//20 27//27 28//28
f 20//20 28//28 21//21
f 21//21 28//28 29//29
f 21//21 29//29 22//22
f 22//22 29//29 30//30
f 22//22 30//30 23//23
f 23//23 30//30 31//31
f 23//23 31//31 24//24
f 24//24 31//31 32//32
f 24//24 32//32 25//25
f 25//25 32//32 33//33
f 25//25 33//33 26//26
f 26//26 33//33 34//34
f 26//26 34//34 10//10
f 27//27 1//1 35//35
f 27//27 35//35 28//28
f 28//28 35//35 36//36
f 28//28 36//36 29//29
f 29//29 36//36 37//37
f 29//29 37//37 30//30
f 30//30 37//37 38//38
f 30//30 38//38 31//31
f 31//31 38//38 39//39
f 31//31 39//39 32//32
f 32//32 39//39 40//40
f 32//32 40//40 33//33
f 33//33 40//40 41//41
f 33//33 41//41 34//34
f 34//34 41//41 42//42
f 34//34 42//42 10//10
f 35//35 1//1 43//43
f 35//35 43//43 36//36
f 36//36 43//43 44//44
f 36//36 44//44 37//37
f 37//37 44//44 45//45
f 37//37 45//45 38//38
f 38//38 45//45 46//46
f 38//38 46//46 39//39
f 39//39 46//46 47//47
f 39//39 47//47 40//40
f 40//40 47//47 48//48
f 40//40 48//48 41//41
f 41//41 48//48 49//49
f 41//41 49//49 42//42
f 42//42 49//49 50//50
f 42//42 50//50 10//10
f 43//43 1//1 51//51
f 43//43 51//51 44//44
f 44//44 51//51 52//52
f 44//44 52//52 45//45
f 45//45 52//52 53//53
f 45//45 53//53 46//46
f 46//46 53//53 54//54
f 46//46 54//54 47//47
f 47//47 54//54 55//55
f 47//47 55//55 48//48
f 48//48 55//55 56//56
f 48//48 56//56 49//49
f 49//49 56//56 57//57
f 49//49 57//57 50//50
f 50//50 57//57 58//58
f 50//50 58//58 10//10
f 51//51 1//1 59//59
f 51//51 59//59 52//52
f 52//52 59//59 60//60
f 52//52 60//60 53//53
f 53//53 60//60 61//61
f 53//53 61//61 54//54
f 54//54 61//61 62//62
f 54//54 62//62 55//55
f 55//55 62//62 63//63
f 55//55 63//63 56//56
f 56//56 63//63 64//64
f 56//56 64//64 57//57
f 57//57 64//64 65//65
f 57//57 65//65 58//58
f 58//58 65//65 66//66
f 58//58 66//66 10//10
f 59//59 1//1 67//67
f 59//59 67//67 60//60
f 60//60 67//67 68//68
f 60//60 68//68 61//61
f 61//61 68//68 69//69
f 61//61 69//69 62//62
f 62//62 69//69 70//70
f 62//62 70//70 63//63
f 63//63 70//70 71//71
f 63//63 71//71 64//64
f 64//64 71//71 72//72
f 64//64 72//72 65//65
f 65//65 72//72 73//73
f 65//65 73//73 66//66
f 66//66 73//73 74//74
f 66//66 74//74 10//10
f 67//67 1//1 75//75
f 67//67 75//75 68//68
f 68//68 75//75 76//76
f 68//68 76//76 69//69
f 69//69 76//76 77//77
f 69//69 77//77 70//70
f 70//70 77//77 78//78
f 70//70 78//78 71//71
f 71//71 78//78 79//79
f 71//71 79//79 72//72
f 72//72 79//79 80//80
f 72//72 80//80 73//73
f 73//73 80//80 81//81
f 73//73 81//81 74//74
f 74//74 81//81 82//82
f 74//74 82//82 10//10
f 75//75 1//1 2//2
f 75//75 2//2 76//76
f 76//76 2//2 3//3
f 76//76 3//3 77//77
f 77//77 3//3 4//4
f 77//77 4//4 78//78
f 78//78 4//4 5//5
f 78//78 5//5 79//79
f 79//79 5//5 6//6
f 79//79 6//6 80//80
f 80//80 6//6 7//7
f 80//80 7//7 81//81
f 81//81 7//7 8//8
f 81//81 8//8 82//82
f 82//82 8//8 9//9
f 82//82 9//9 10//10

