# https://github.com/mikedh/trimesh
v -0.1301998 -1.7230057 0.0498002
v -0.1282212 -1.7232343 0.0497520
v -0.1263866 -1.7240111 0.0497238
v -0.1248448 -1.7252730 0.0497181
v -0.1237206 -1.7269179 0.0497352
v -0.1231052 -1.7288125 0.0497738
v -0.1130483 -2.0808032 0.0598306
v -0.1135546 -2.0827289 0.0599012
v -0.1145831 -2.0844336 0.0599798
v -0.1160504 -2.0857790 0.0600601
v -0.1178377 -2.0866563 0.0601354
v -0.1198002 -2.0869943 0.0601998
v -0.1284578 -1.7232127 0.0507448
v -0.1268408 -1.7239696 0.0516290
v -0.1254796 -1.7252150 0.0523813
v -0.1244847 -1.7268481 0.0529407
v -0.1239366 -1.7287365 0.0532618
v -0.1138798 -2.0807273 0.0633187
v -0.1143187 -2.0826592 0.0631067
v -0.1152179 -2.0843756 0.0626430
v -0.1165045 -2.0857376 0.0619652
v -0.1180744 -2.0866347 0.0611282
v -0.1291591 -1.7232116 0.0514866
v -0.1281865 -1.7239674 0.0530527
v -0.1273608 -1.7252119 0.0543714
v -0.1267489 -1.7268444 0.0553360
v -0.1264004 -1.7287325 0.0558682
v -0.1163435 -2.0807233 0.0659251
v -0.1165829 -2.0826554 0.0655020
v -0.1170990 -2.0843725 0.0646331
v -0.1178502 -2.0857353 0.0633889
v -0.1187756 -2.0866335 0.0618701
v -0.1301370 -1.7232312 0.0517788
v -0.1300632 -1.7240050 0.0536133
v -0.1299842 -1.7252645 0.0551551
v -0.1299064 -1.7269076 0.0562792
v -0.1298363 -1.7288013 0.0568947
v -0.1197794 -2.0807921 0.0669515
v -0.1197404 -2.0827187 0.0664452
v -0.1197224 -2.0844251 0.0654168
v -0.1197269 -2.0857729 0.0639495
v -0.1197536 -2.0866531 0.0621623
v -0.1311297 -1.7232663 0.0515429
v -0.1319680 -1.7240723 0.0531607
v -0.1326468 -1.7253586 0.0545224
v -0.1331113 -1.7270210 0.0555177
v -0.1333237 -1.7289246 0.0560660
v -0.1232668 -2.0809154 0.0661229
v -0.1229452 -2.0828320 0.0656838
v -0.1223851 -2.0845192 0.0647841
v -0.1216317 -2.0858403 0.0634969
v -0.1207462 -2.0866882 0.0619264
v -0.1318710 -1.7233075 0.0508423
v -0.1333905 -1.7241514 0.0518162
v -0.1346354 -1.7254692 0.0526429
v -0.1355047 -1.7271540 0.0532555
v -0.1359281 -1.7290694 0.0536044
v -0.1258712 -2.0810602 0.0636613
v -0.1253387 -2.0829651 0.0634216
v -0.1243736 -2.0846297 0.0629046
v -0.1230543 -2.0859193 0.0621524
v -0.1214875 -2.0867294 0.0612258
v -0.1321623 -1.7233437 0.0498646
v -0.1339496 -1.7242210 0.0499399
v -0.1354169 -1.7255664 0.0500202
v -0.1364454 -1.7272711 0.0500988
v -0.1369517 -1.7291968 0.0501694
v -0.1268948 -2.0811875 0.0602262
v -0.1262794 -2.0830821 0.0602648
v -0.1251552 -2.0847270 0.0602819
v -0.1236134 -2.0859889 0.0602762
v -0.1217788 -2.0867657 0.0602480
v -0.1319256 -1.7233653 0.0488718
v -0.1334955 -1.7242624 0.0480348
v -0.1347821 -1.7256244 0.0473570
v -0.1356813 -1.7273408 0.0468933
v -0.1361202 -1.7292727 0.0466813
v -0.1260634 -2.0812635 0.0567382
v -0.1255153 -2.0831519 0.0570593
v -0.1245204 -2.0847850 0.0576187
v -0.1231592 -2.0860304 0.0583710
v -0.1215422 -2.0867873 0.0592552
v -0.1312244 -1.7233665 0.0481299
v -0.1321498 -1.7242647 0.0466111
v -0.1329010 -1.7256275 0.0453669
v -0.1334171 -1.7273446 0.0444980
v -0.1336565 -1.7292767 0.0440749
v -0.1235996 -2.0812675 0.0541318
v -0.1232511 -2.0831556 0.0546640
v -0.1226392 -2.0847881 0.0556286
v -0.1218135 -2.0860326 0.0569473
v -0.1208409 -2.0867884 0.0585134
v -0.1302464 -1.7233469 0.0478377
v -0.1302731 -1.7242271 0.0460505
v -0.1302776 -1.7255749 0.0445832
v -0.1302596 -1.7272813 0.0435548
v -0.1302206 -1.7292079 0.0430485
v -0.1201637 -2.0811987 0.0531053
v -0.1200936 -2.0830924 0.0537208
v -0.1200158 -2.0847355 0.0548449
v -0.1199368 -2.0859950 0.0563867
v -0.1198630 -2.0867688 0.0582212
v -0.1292538 -1.7233118 0.0480736
v -0.1283683 -1.7241597 0.0465031
v -0.1276149 -1.7254808 0.0452159
v -0.1270548 -1.7271680 0.0443162
v -0.1267332 -1.7290846 0.0438771
v -0.1166763 -2.0810754 0.0539340
v -0.1168887 -2.0829790 0.0544823
v -0.1173532 -2.0846414 0.0554776
v -0.1180320 -2.0859277 0.0568393
v -0.1188703 -2.0867337 0.0584571
v -0.1285125 -1.7232706 0.0487742
v -0.1269457 -1.7240807 0.0478476
v -0.1256264 -1.7253703 0.0470954
v -0.1246613 -1.7270349 0.0465784
v -0.1241288 -1.7289398 0.0463387
v -0.1140719 -2.0809306 0.0563956
v -0.1144953 -2.0828460 0.0567445
v -0.1153646 -2.0845308 0.0573571
v -0.1166095 -2.0858486 0.0581838
v -0.1181290 -2.0866925 0.0591577
vn -0.0285481 0.9991847 -0.0285481
vn 0.2758088 0.9605433 -0.0358611
vn 0.5327986 0.8453145 -0.0396104
vn 0.7465331 0.6641313 -0.0402224
vn 0.9011850 0.4317926 -0.0376924
vn 0.9855194 0.1664689 -0.0322421
vn 0.9934626 -0.1115421 -0.0242989
vn 0.9244112 -0.3811229 -0.0144663
vn 0.7832704 -0.6216715 -0.0034852
vn 0.5802197 -0.8144226 0.0078106
vn 0.3302164 -0.9437230 0.0185465
vn 0.0285481 -0.9991847 0.0285481
vn 0.2394179 0.9638654 0.1168016
vn 0.4659635 0.8514158 0.2407679
vn 0.6546707 0.6725173 0.3451475
vn 0.7915607 0.4417999 0.4221901
vn 0.8666845 0.1773171 0.4662796
vn 0.8746277 -0.1006939 0.4742227
vn 0.8147868 -0.3711155 0.4454163
vn 0.6914079 -0.6132855 0.3818847
vn 0.5133846 -0.8083213 0.2881890
vn 0.2938255 -0.9404010 0.1712092
vn 0.1315859 0.9640438 0.2308781
vn 0.2679207 0.8517434 0.4502795
vn 0.3824679 0.6729677 0.6331136
vn 0.4667266 0.4423374 0.7658354
vn 0.5145580 0.1778998 0.8387978
vn 0.5225011 -0.1001112 0.8467410
vn 0.4899527 -0.3705781 0.7890616
vn 0.4192051 -0.6128352 0.6698508
vn 0.3153417 -0.8079936 0.4977006
vn 0.1859935 -0.9402226 0.2852857
vn -0.0187937 0.9610308 0.2758018
vn -0.0082646 0.8462097 0.5327858
vn 0.0028613 0.6653618 0.7465156
vn 0.0137217 0.4332609 0.9011641
vn 0.0234919 0.1680607 0.9854967
vn 0.0314350 -0.1099503 0.9934399
vn 0.0369479 -0.3796545 0.9243902
vn 0.0395986 -0.6204410 0.7832528
vn 0.0391565 -0.8135273 0.5802069
vn 0.0356140 -0.9432356 0.3302094
vn -0.1714267 0.9556336 0.2395354
vn -0.2885885 0.8362975 0.4661794
vn -0.3824338 0.6517377 0.6549674
vn -0.4460715 0.4170026 0.7919148
vn -0.4749331 0.1504363 0.8670683
vn -0.4669899 -0.1275747 0.8750115
vn -0.4228454 -0.3959129 0.8151409
vn -0.3456966 -0.6340651 0.6917047
vn -0.2411674 -0.8234396 0.5136005
vn -0.1170191 -0.9486327 0.2939430
vn -0.2854153 0.9492986 0.1317965
vn -0.4979386 0.8246625 0.2683074
vn -0.6701780 0.6357459 0.3829994
vn -0.7894520 0.3979187 0.4673609
vn -0.8471642 0.1297491 0.5152455
vn -0.8392210 -0.1482619 0.5231887
vn -0.7662259 -0.4149967 0.4905870
vn -0.6334408 -0.6500569 0.4197367
vn -0.4505176 -0.8350745 0.3157284
vn -0.2310077 -0.9549678 0.1862041
vn -0.3302164 0.9437230 -0.0185465
vn -0.5802197 0.8144226 -0.0078106
vn -0.7832704 0.6216715 0.0034852
vn -0.9244112 0.3811229 0.0144663
vn -0.9934626 0.1115421 0.0242989
vn -0.9855194 -0.1664689 0.0322421
vn -0.9011850 -0.4317926 0.0376924
vn -0.7465331 -0.6641313 0.0402224
vn -0.5327986 -0.8453145 0.0396104
vn -0.2758088 -0.9605433 0.0358611
vn -0.2938255 0.9404010 -0.1712092
vn -0.5133846 0.8083213 -0.2881890
vn -0.6914079 0.6132855 -0.3818847
vn -0.8147868 0.3711155 -0.4454163
vn -0.8746277 0.1006939 -0.4742227
vn -0.8666845 -0.1773171 -0.4662796
vn -0.7915607 -0.4417999 -0.4221901
vn -0.6546707 -0.6725173 -0.3451475
vn -0.4659635 -0.8514158 -0.2407679
vn -0.2394179 -0.9638654 -0.1168016
vn -0.1859935 0.9402226 -0.2852857
vn -0.3153417 0.8079936 -0.4977006
vn -0.4192051 0.6128352 -0.6698508
vn -0.4899527 0.3705781 -0.7890616
vn -0.5225011 0.1001112 -0.8467410
vn -0.5145580 -0.1778998 -0.8387978
vn -0.4667266 -0.4423374 -0.7658354
vn -0.3824679 -0.6729677 -0.6331136
vn -0.2679207 -0.8517434 -0.4502795
vn -0.1315859 -0.9640438 -0.2308781
vn -0.0356140 0.9432356 -0.3302094
vn -0.0391565 0.8135273 -0.5802069
vn -0.0395986 0.6204410 -0.7832528
vn -0.0369479 0.3796545 -0.9243902
vn -0.0314350 0.1099503 -0.9934399
vn -0.0234919 -0.1680607 -0.9854967
vn -0.0137217 -0.4332609 -0.9011641
vn -0.0028613 -0.6653618 -0.7465156
vn 0.0082646 -0.8462097 -0.5327858
vn 0.0187937 -0.9610308 -0.2758018
vn 0.1170191 0.9486327 -0.2939430
vn 0.2411674 0.8234396 -0.5136005
vn 0.3456966 0.6340651 -0.6917047
vn 0.4228454 0.3959129 -0.8151409
vn 0.4669899 0.1275747 -0.8750115
vn 0.4749331 -0.1504363 -0.8670683
vn 0.4460715 -0.4170026 -0.7919148
vn 0.3824338 -0.6517377 -0.6549674
vn 0.2885885 -0.8362975 -0.4661794
vn 0.1714267 -0.9556336 -0.2395354
vn 0.2310077 0.9549678 -0.1862041
vn 0.4505176 0.8350745 -0.3157284
vn 0.6334408 0.6500569 -0.4197367
vn 0.7662259 0.4149967 -0.4905870
vn 0.8392210 0.1482619 -0.5231887
vn 0.8471642 -0.1297491 -0.5152455
vn 0.7894520 -0.3979187 -0.4673609
vn 0.6701780 -0.6357459 -0.3829994
vn 0.4979386 -0.8246625 -0.2683074
vn 0.2854153 -0.9492986 -0.1317965
f 2//2 1//1 13//13
f 2//2 13//13 3//3
f 3//3 13//13 14//14
f 3//3 14//14 4//4
f 4//4 14//14 15//15
f 4//4 15//15 5//5
f 5//5 15//15 16//16
f 5//5 16//16 6//6
f 6//6 16//16 17//17
f 6//6 17//17 7//7
f 7//7 17//17 18//18
f 7//7 18//18 8//8
f 8//8 18//18 19//19
f 8//8 19//19 9//9
f 9//9 19//19 20//20
f 9//9 20//20 10//10
f 10//10 20//20 21//21
f 10//10 21//21 11//11
f 11//11 21//21 22//22
f 11//11 22//22 12//12
f 13//13 1//1 23//23
f 13//13 23//23 14//14
f 14//14 23//23 24//24
f 14//14 24//24 15//15
f 15//15 24//24 25//25
f 15//15 25//25 16//16
f 16//16 25//25 26//26
f 16//16 26//26 17//17
f 17//17 26//26 27//27
f 17//17 27//27 18//18
f 18//18 27//27 28//28
f 18//18 28//28 19//19
f 19//19 28//28 29//29
f 19//19 29//29 20//20
f 20//20 29//29 30//30
f 20//20 30//30 21//21
f 21//21 30//30 31//31
f 21//21 31//31 22//22
f 22//22 31//31 32//32
f 22//22 32//32 12//12
f 23//23 1//1 33//33
f 23//23 33//33 24//24
f 24//24 33//33 34//34
f 24//24 34//34 25//25
f 25//25 34//34 35//35
f 25//25 35//35 26//26
f 26//26 35//35 36//36
f 26//26 36//36 27//27
f 27//27 36//36 37//37
f 27//27 37//37 28//28
f 28//28 37//37 38//38
f 28//28 38//38 29//29
f 29//29 38//38 39//39
f 29//29 39//39 30//30
f 30//30 39//39 40//40
f 30//30 40//40 31//31
f 31//31 40//40 41//41
f 31//31 41//41 32//32
f 32//32 41//41 42//42
f 32//32 42//42 12//12
f 33//33 1//1 43//43
f 33//33 43//43 34//34
f 34//34 43//43 44//44
f 34//34 44//44 35//35
f 35//35 44//44 45//45
f 35//35 45//45 36//36
f 36//36 45//45 46//46
f 36//36 46//46 37//37
f 37//37 46//46 47//47
f 37//37 47//47 38//38
f 38//38 47//47 48//48
f 38//38 48//48 39//39
f 39//39 48//48 49//49
f 39//39 49//49 40//40
f 40//40 49//49 50//50
f 40//40 50//50 41//41
f 41//41 50//50 51//51
f 41//41 51//51 42//42
f 42//42 51//51 52//52
f 42//42 52//52 12//12
f 43//43 1//1 53//53
f 43//43 53//53 44//44
f 44//44 53//53 54//54
f 44//44 54//54 45//45
f 45//45 54//54 55//55
f 45//45 55//55 46//46
f 46//46 55//55 56//56
f 46//46 56//56 47//47
f 47//47 56//56 57//57
f 47//47 57//57 48//48
f 48//48 57//57 58//58
f 48//48 58//58 49//49
f 49//49 58//58 59//59
f 49//49 59//59 50//50
f 50//50 59//59 60//60
f 50//50 60//60 51//51
f 51//51 60//60 61//61
f 51//51 61//61 52//52
f 52//52 61//61 62//62
f 52//52 62//62 12//12
f 53//53 1//1 63//63
f 53//53 63//63 54//54
f 54//54 63//63 64//64
f 54//54 64//64 55//55
f 55//55 64//64 65//65
f 55//55 65//65 56//56
f 56//56 65//65 66//66
f 56//56 66//66 57//57
f 57//57 66//66 67//67
f 57//57 67//67 58//58
f 58//58 67//67 68//68
f 58//58 68//68 59//59
f 59//59 68//68 69//69
f 59//59 69//69 60//60
f 60//60 69//69 70//70
f 60//60 70//70 61//61
f 61//61 70//70 71//71
f 61//61 71//71 62//62
f 62//62 71//71 72//72
f 62//62 72//72 12//12
f 63//63 1//1 73//73
f 63//63 73//73 64//64
f 64//64 73//73 74//74
f 64//64 74//74 65//65
f 65//65 74//74 75//75
f 65//65 75//75 66//66
f 66//66 75//75 76//76
f 66//66 76//76 67//67
f 67//67 76//76 77//77
f 67//67 77//77 68//68
f 68//68 77//77 78//78
f 68//68 78//78 69//69
f 69//69 78//78 79//79
f 69//69 79//79 70//70
f 70//70 79//79 80//80
f 70//70 80//80 71//71
f 71//71 80//80 81//81
f 71//71 81//81 72//72
f 72//72 81//81 82//82
f 72//72 82//82 12//12
f 73//73 1//1 83//83
f 73//73 83//83 74//74
f 74//74 83//83 84//84
f 74//74 84//84 75//75
f 75//75 84//84 85//85
f 75//75 85//85 76//76
f 76//76 85//85 86//86
f 76//76 86//86 77//77
f 77//77 86//86 87//87
f 77//77 87//87 78//78
f 78//78 87//87 88//88
f 78//78 88//88 79//79
f 79//79 88//88 89//89
f 79//79 89//89 80//80
f 80//80 89//89 90//90
f 80//80 90//90 81//81
f 81//81 90//90 91//91
f 81//81 91//91 82//82
f 82//82 91//91 92//92
f 82//82 92//92 12//12
f 83//83 1//1 93//93
f 83//83 93//93 84//84
f 84//84 93//93 94//94
f 84//84 94//94 85//85
f 85//85 94//94 95//95
f 85//85 95//95 86//86
f 86//86 95//95 96//96
f 86//86 96//96 87//87
f 87//87 96//96 97//97
f 87//87 97//97 88//88
f 88//88 97//97 98//98
f 88//88 98//98 89//89
f 89//89 98//98 99//99
f 89//89 99//99 90//90
f 90//90 99//99 100//100
f 90//90 100//100 91//91
f 91//91 100//100 101//101
f 91//91 101//101 92//92
f 92//92 101//101 102//102
f 92//92 102//102 12//12
f 93//93 1//1 103//103
f 93//93 103//103 94//94
f 94//94 103//103 104//104
f 94//94 104//104 95//95
f 95//95 104//104 105//105
f 95//95 105//105 96//96
f 96//96 105//105 106//106
f 96//96 106//106 97//97
f 97//97 106//106 107//107
f 97//97 107//107 98//98
f 98//98 107//107 108//108
f 98//98 108//108 99//99
f 99//99 108//108 109//109
f 99//99 109//109 100//100
f 100//100 109//109 110//110
f 100//100 110//110 101//101
f 101//101 110//110 111//111
f 101//101 111//111 102//102
f 102//102 111//111 112//112
f 102//102 112//112 12//12
f 103//103 1//1 113//113
f 103//103 113//113 104//104
f 104//104 113//113 114//114
f 104//104 114//114 105//105
f 105//105 114//114 115//115
f 105//105 115//115 106//106
f 106//106 115//115 116//116
f 106//106 116//116 107//107
f 107//107 116//116 117//117
f 107//107 117//117 108//108
f 108//108 117//117 118//118
f 108//108 118//118 109//109
f 109//109 118//118 119//119
f 109//109 119//119 110//110
f 110//110 119//119 120//120
f 110//110 120//120 111//111
f 111//111 120//120 121//121
f 111//111 121//121 112//112
f 112//112 121//121 122//122
f 112//112 122//122 12//12
f 113//113 1//1 2//2
f 113//113 2//2 114//114
f 114//114 2//2 3//3
f 114//114 3//3 115//115
f 115//115 3//3 4//4
f 115//115 4//4 116//116
f 116//116 4//4 5//5
f 116//116 5//5 117//117
f 117//117 5//5 6//6
f 117//117 6//6 118//118
f 118//118 6//6 7//7
f 118//118 7//7 119//119
f 119//119 7//7 8//8
f 119//119 8//8 120//120
f 120//120 8//8 9//9
f 120//120 9//9 121//121
f 121//121 9//9 10//10
f 121//121 10//10 122//122
f 122//122 10//10 11//11
f 122//122 11//11 12//12

