# https://github.com/mikedh/trimesh
v -0.0771961 1.5316022 0.1029972
v -0.0765289 1.5312408 0.1040770
v -0.0762804 1.5307297 0.1052681
v -0.0764805 1.5301306 0.1064268
v -0.0771051 1.5295158 0.1074135
v -0.1130789 1.5089594 0.1331091
v -0.1142844 1.5085284 0.1334296
v -0.1155762 1.5082750 0.1333365
v -0.1167985 1.5082296 0.1328410
v -0.1178039 1.5083978 0.1320028
v -0.0768443 1.5319664 0.1042159
v -0.0768731 1.5320933 0.1055292
v -0.0772790 1.5319678 0.1067787
v -0.0780131 1.5316050 0.1078136
v -0.1139869 1.5110485 0.1335092
v -0.1150829 1.5103656 0.1337815
v -0.1161689 1.5096386 0.1335977
v -0.1171139 1.5089552 0.1329799
v -0.0773586 1.5325159 0.1039355
v -0.0778397 1.5331262 0.1050022
v -0.0785813 1.5333594 0.1060686
v -0.0794941 1.5331874 0.1070062
v -0.1154679 1.5126309 0.1327017
v -0.1163852 1.5117572 0.1330714
v -0.1171355 1.5106714 0.1330706
v -0.1176282 1.5095047 0.1326995
v -0.0778755 1.5326796 0.1033428
v -0.0788111 1.5334337 0.1038883
v -0.0798901 1.5337738 0.1045679
v -0.0809823 1.5336586 0.1052996
v -0.1169561 1.5131021 0.1309951
v -0.1176940 1.5121715 0.1315707
v -0.1181069 1.5109790 0.1319568
v -0.1181450 1.5096684 0.1321068
v -0.0781974 1.5323948 0.1026643
v -0.0794162 1.5328985 0.1026130
v -0.0807053 1.5330527 0.1028497
v -0.0819094 1.5328386 0.1033457
v -0.1178832 1.5122822 0.1290413
v -0.1185092 1.5114505 0.1298525
v -0.1187120 1.5104438 0.1306815
v -0.1184670 1.5093836 0.1314283
v -0.0782015 1.5317704 0.1021590
v -0.0794238 1.5317250 0.1016635
v -0.0807156 1.5314716 0.1015704
v -0.0819211 1.5310406 0.1018909
v -0.1178949 1.5104842 0.1275865
v -0.1185195 1.5098694 0.1285732
v -0.1187196 1.5092703 0.1297319
v -0.1184711 1.5087592 0.1309230
v -0.0778861 1.5310448 0.1020201
v -0.0788311 1.5303614 0.1014023
v -0.0799171 1.5296344 0.1012185
v -0.0810131 1.5289515 0.1014908
v -0.1169869 1.5083950 0.1271864
v -0.1177210 1.5080322 0.1282213
v -0.1181269 1.5079067 0.1294708
v -0.1181557 1.5080336 0.1307841
v -0.0773718 1.5304953 0.1023005
v -0.0778645 1.5293286 0.1019294
v -0.0786148 1.5282428 0.1019286
v -0.0795321 1.5273691 0.1022983
v -0.1155059 1.5068126 0.1279938
v -0.1164187 1.5066406 0.1289314
v -0.1171603 1.5068738 0.1299978
v -0.1176414 1.5074841 0.1310645
v -0.0768550 1.5303316 0.1028932
v -0.0768931 1.5290210 0.1030432
v -0.0773060 1.5278285 0.1034293
v -0.0780439 1.5268979 0.1040049
v -0.1140177 1.5063414 0.1297004
v -0.1151099 1.5062262 0.1304321
v -0.1161889 1.5065663 0.1311117
v -0.1171245 1.5073204 0.1316572
v -0.0765330 1.5306164 0.1035717
v -0.0762880 1.5295562 0.1043185
v -0.0764908 1.5285495 0.1051475
v -0.0771168 1.5277178 0.1059587
v -0.1130906 1.5071614 0.1316543
v -0.1142947 1.5069473 0.1321503
v -0.1155838 1.5071015 0.1323870
v -0.1168026 1.5076052 0.1323357
vn 0.7378648 0.4216370 -0.5270463
vn 0.9242413 0.3156292 -0.2148401
vn 0.9790054 0.1810544 0.0936361
vn 0.9208532 0.0267036 0.3889939
vn 0.7583289 -0.1299687 0.6387844
vn 0.5102947 -0.2717025 0.8159516
vn 0.2040816 -0.3828802 0.9009736
vn -0.1268507 -0.4508634 0.8835333
vn -0.4456441 -0.4671625 0.7636495
vn -0.7378648 -0.4216370 0.5270463
vn 0.8340048 0.5232426 -0.1750804
vn 0.8183370 0.5507155 0.1644293
vn 0.7087538 0.5146956 0.4824484
vn 0.5191379 0.4203548 0.7441758
vn 0.2711037 0.2786210 0.9213431
vn -0.0080177 0.1051118 0.9944281
vn -0.2875191 -0.0812022 0.9543265
vn -0.5358806 -0.2595491 0.8034092
vn 0.6868317 0.6804951 -0.2553209
vn 0.5562914 0.8307076 0.0215591
vn 0.3628258 0.8843149 0.2938445
vn 0.1290242 0.8371859 0.5314815
vn -0.1190100 0.6954521 0.7086487
vn -0.3539458 0.4747311 0.8058242
vn -0.5495647 0.1987898 0.8114563
vn -0.6830537 -0.1022966 0.7231687
vn 0.5389370 0.7273214 -0.4249123
vn 0.2929611 0.9140832 -0.2804029
vn 0.0152018 0.9943795 -0.1047774
vn -0.2630021 0.9613091 0.0819433
vn -0.5110362 0.8195753 0.2591106
vn -0.7015698 0.5847958 0.4072023
vn -0.8128950 0.2821654 0.5094943
vn -0.8309484 -0.0554702 0.5535773
vn 0.4468116 0.6458356 -0.6190765
vn 0.1289293 0.7689956 -0.6261174
vn -0.2013376 0.8028485 -0.5611573
vn -0.5072001 0.7453137 -0.4327303
vn -0.7552343 0.6035799 -0.2555631
vn -0.9181092 0.3932647 -0.0491776
vn -0.9769267 0.1370778 0.1637798
vn -0.9230738 -0.1369560 0.3594130
vn 0.4456441 0.4671625 -0.7636495
vn 0.1268507 0.4508634 -0.8835333
vn -0.2040816 0.3828802 -0.9009736
vn -0.5102947 0.2717025 -0.8159516
vn -0.7583289 0.1299687 -0.6387844
vn -0.9208532 -0.0267036 -0.3889939
vn -0.9790054 -0.1810544 -0.0936361
vn -0.9242413 -0.3156292 0.2148401
vn 0.5358806 0.2595491 -0.8034092
vn 0.2875191 0.0812022 -0.9543265
vn 0.0080177 -0.1051118 -0.9944281
vn -0.2711037 -0.2786210 -0.9213431
vn -0.5191379 -0.4203548 -0.7441758
vn -0.7087538 -0.5146956 -0.4824484
vn -0.8183370 -0.5507155 -0.1644293
vn -0.8340048 -0.5232426 0.1750804
vn 0.6830537 0.1022966 -0.7231687
vn 0.5495647 -0.1987898 -0.8114563
vn 0.3539458 -0.4747311 -0.8058242
vn 0.1190100 -0.6954521 -0.7086487
vn -0.1290242 -0.8371859 -0.5314815
vn -0.3628258 -0.8843149 -0.2938445
vn -0.5562914 -0.8307076 -0.0215591
vn -0.6868317 -0.6804951 0.2553209
vn 0.8309484 0.0554702 -0.5535773
vn 0.8128950 -0.2821654 -0.5094943
vn 0.7015698 -0.5847958 -0.4072023
vn 0.5110362 -0.8195753 -0.2591106
vn 0.2630021 -0.9613091 -0.0819433
vn -0.0152018 -0.9943795 0.1047774
vn -0.2929611 -0.9140832 0.2804029
vn -0.5389370 -0.7273214 0.4249123
vn 0.9230738 0.1369560 -0.3594130
vn 0.9769267 -0.1370778 -0.1637798
vn 0.9181092 -0.3932647 0.0491776
vn 0.7552343 -0.6035799 0.2555631
vn 0.5072001 -0.7453137 0.4327303
vn 0.2013376 -0.8028485 0.5611573
vn -0.1289293 -0.7689956 0.6261174
vn -0.4468116 -0.6458356 0.6190765
f 2//2 1//1 11//11
f 2//2 11//11 3//3
f 3//3 11//11 12//12
f 3//3 12//12 4//4
f 4//4 12//12 13//13
f 4//4 13//13 5//5
f 5//5 13//13 14//14
f 5//5 14//14 6//6
f 6//6 14//14 15//15
f 6//6 15//15 7//7
f 7//7 15//15 16//16
f 7//7 16//16 8//8
f 8//8 16//16 17//17
f 8//8 17//17 9//9
f 9//9 17//17 18//18
f 9//9 18//18 10//10
f 11//11 1//1 19//19
f 11//11 19//19 12//12
f 12//12 19//19 20//20
f 12//12 20//20 13//13
f 13//13 20//20 21//21
f 13//13 21//21 14//14
f 14//14 21//21 22//22
f 14//14 22//22 15//15
f 15//15 22//22 23//23
f 15//15 23//23 16//16
f 16//16 23//23 24//24
f 16//16 24//24 17//17
f 17//17 24//24 25//25
f 17//17 25//25 18//18
f 18//18 25//25 26//26
f 18//18 26//26 10//10
f 19//19 1//1 27//27
f 19//19 27//27 20//20
f 20//20 27//27 28//28
f 20//20 28//28 21//21
f 21//21 28//28 29//29
f 21//21 29//29 22//22
f 22//22 29//29 30//30
f 22//22 30//30 23//23
f 23//23 30//30 31//31
f 23//23 31//31 24//24
f 24//24 31//31 32//32
f 24//24 32//32 25//25
f 25//25 32//32 33//33
f 25//25 33//33 26//26
f 26//26 33//33 34//34
f 26//26 34//34 10//10
f 27//27 1//1 35//35
f 27//27 35//35 28//28
f 28//28 35//35 36//36
f 28//28 36//36 29//29
f 29//29 36//36 37//37
f 29//29 37//37 30//30
f 30//30 37//37 38//38
f 30//30 38//38 31//31
f 31//31 38//38 39//39
f 31//31 39//39 32//32
f 32//32 39//39 40//40
f 32//32 40//40 33//33
f 33//33 40//40 41//41
f 33//33 41//41 34//34
f 34//34 41//41 42//42
f 34//34 42//42 10//10
f 35//35 1//1 43//43
f 35//35 43//43 36//36
f 36//36 43//43 44//44
f 36//36 44//44 37//37
f 37//37 44//44 45//45
f 37//37 45//45 38//38
f 38//38 45//45 46//46
f 38//38 46//46 39//39
f 39//39 46//46 47//47
f 39//39 47//47 40//40
f 40//40 47//47 48//48
f 40//40 48//48 41//41
f 41//41 48//48 49//49
f 41//41 49//49 42//42
f 42//42 49//49 50//50
f 42//42 50//50 10//10
f 43//43 1//1 51//51
f 43//43 51//51 44//44
f 44//44 51//51 52//52
f 44//44 52//52 45//45
f 45//45 52//52 53//53
f 45//45 53//53 46//46
f 46//46 53//53 54//54
f 46//46 54//54 47//47
f 47//47 54//54 55//55
f 47//47 55//55 48//48
f 48//48 55//55 56//56
f 48//48 56//56 49//49
f 49//49 56//56 57//57
f 49//49 57//57 50//50
f 50//50 57//57 58//58
f 50//50 58//58 10//10
f 51//51 1//1 59//59
f 51//51 59//59 52//52
f 52//52 59//59 60//60
f 52//52 60//60 53//53
f 53//53 60//60 61//61
f 53//53 61//61 54//54
f 54//54 61//61 62//62
f 54//54 62//62 55//55
f 55//55 62//62 63//63
f 55//55 63//63 56//56
f 56//56 63//63 64//64
f 56//56 64//64 57//57
f 57//57 64//64 65//65
f 57//57 65//65 58//58
f 58//58 65//65 66//66
f 58//58 66//66 10//10
f 59//59 1//1 67//67
f 59//59 67//67 60//60
f 60//60 67//67 68//68
f 60//60 68//68 61//61
f 61//61 68//68 69//69
f 61//61 69//69 62//62
f 62//62 69//69 70//70
f 62//62 70//70 63//63
f 63//63 70//70 71//71
f 63//63 71//71 64//64
f 64//64 71//71 72//72
f 64//64 72//72 65//65
f 65//65 72//72 73//73
f 65//65 73//73 66//66
f 66//66 73//73 74//74
f 66//66 74//74 10//10
f 67//67 1//1 75//75
f 67//67 75//75 68//68
f 68//68 75//75 76//76
f 68//68 76//76 69//69
f 69//69 76//76 77//77
f 69//69 77//77 70//70
f 70//70 77//77 78//78
f 70//70 78//78 71//71
f 71//71 78//78 79//79
f 71//71 79//79 72//72
f 72//72 79//79 80//80
f 72//72 80//80 73//73
f 73//73 80//80 81//81
f 73//73 81//81 74//74
f 74//74 81//81 82//82
f 74//74 82//82 10//10
f 75//75 1//1 2//2
f 75//75 2//2 76//76
f 76//76 2//2 3//3
f 76//76 3//3 77//77
f 77//77 3//3 4//4
f 77//77 4//4 78//78
f 78//78 4//4 5//5
f 78//78 5//5 79//79
f 79//79 5//5 6//6
f 79//79 6//6 80//80
f 80//80 6//6 7//7
f 80//80 7//7 81//81
f 81//81 7//7 8//8
f 81//81 8//8 82//82
f 82//82 8//8 9//9
f 82//82 9//9 10//10

