# https://github.com/mikedh/trimesh
v 0.1450647 1.2132758 -0.0208297
v 0.1482873 1.2154199 -0.0250039
v 0.1524588 1.2163147 -0.0287727
v 0.1572412 1.2158878 -0.0318307
v 0.1622471 1.2141738 -0.0339303
v 0.1670710 1.2113115 -0.0349014
v 0.3513220 1.0475328 -0.0246652
v 0.3546558 1.0431438 -0.0232410
v 0.3568023 1.0385002 -0.0207440
v 0.3575875 1.0339780 -0.0173766
v 0.3569479 1.0299437 -0.0134116
v 0.3549353 1.0267242 -0.0091703
v 0.1492775 1.2166860 -0.0225700
v 0.1543590 1.2187444 -0.0241021
v 0.1598975 1.2192842 -0.0253019
v 0.1654442 1.2182617 -0.0260721
v 0.1705500 1.2157598 -0.0263504
v 0.3548010 1.0519811 -0.0161143
v 0.3578530 1.0472317 -0.0153828
v 0.3594586 1.0418965 -0.0142152
v 0.3594877 1.0364077 -0.0127061
v 0.3579382 1.0312099 -0.0109778
v 0.1493010 1.2168943 -0.0196609
v 0.1544041 1.2191440 -0.0185195
v 0.1599605 1.2198428 -0.0174980
v 0.1655201 1.2189341 -0.0166793
v 0.1706326 1.2164915 -0.0161295
v 0.3548836 1.0527128 -0.0058934
v 0.3579288 1.0479042 -0.0059899
v 0.3595216 1.0424552 -0.0064113
v 0.3595329 1.0368073 -0.0071234
v 0.3579617 1.0314181 -0.0080686
v 0.1483515 1.2159889 -0.0170559
v 0.1525820 1.2174066 -0.0135206
v 0.1574134 1.2174141 -0.0105102
v 0.1624545 1.2160109 -0.0082686
v 0.1672966 1.2133105 -0.0069774
v 0.3515477 1.0495318 0.0032588
v 0.3548632 1.0449809 0.0024208
v 0.3569746 1.0400265 0.0005766
v 0.3577108 1.0350699 -0.0021245
v 0.3570122 1.0305127 -0.0054636
v 0.1466834 1.2142124 -0.0154531
v 0.1493809 1.2139977 -0.0104448
v 0.1529388 1.2126488 -0.0062107
v 0.1570687 1.2102753 -0.0030936
v 0.1614360 1.2070693 -0.0013462
v 0.3456871 1.0432906 0.0088899
v 0.3494774 1.0392453 0.0075957
v 0.3524999 1.0352612 0.0048761
v 0.3545097 1.0316610 0.0009512
v 0.3553441 1.0287363 -0.0038608
v 0.1447437 1.2120410 -0.0152820
v 0.1456586 1.2098306 -0.0101164
v 0.1477354 1.2068238 -0.0057516
v 0.1508059 1.2032642 -0.0025411
v 0.1546211 1.1994401 -0.0007450
v 0.3388722 1.0356614 0.0094911
v 0.3432146 1.0322342 0.0081483
v 0.3472965 1.0294362 0.0053351
v 0.3507874 1.0274939 0.0012796
v 0.3534043 1.0265648 -0.0036897
v 0.1430521 1.2100563 -0.0165884
v 0.1424125 1.2060220 -0.0126234
v 0.1431977 1.2014998 -0.0092560
v 0.1453442 1.1968562 -0.0067590
v 0.1486780 1.1924672 -0.0053348
v 0.3329290 1.0286885 0.0049014
v 0.3377529 1.0258262 0.0039303
v 0.3427588 1.0241122 0.0018307
v 0.3475412 1.0236853 -0.0012273
v 0.3517127 1.0245801 -0.0049961
v 0.1420618 1.2087901 -0.0190222
v 0.1405123 1.2035923 -0.0172939
v 0.1405414 1.1981035 -0.0157848
v 0.1421470 1.1927683 -0.0146172
v 0.1451990 1.1880189 -0.0138857
v 0.3294500 1.0242402 -0.0036496
v 0.3345558 1.0217383 -0.0039279
v 0.3401025 1.0207158 -0.0046981
v 0.3456410 1.0212556 -0.0058979
v 0.3507225 1.0233140 -0.0074300
v 0.1420383 1.2085819 -0.0219314
v 0.1404671 1.2031927 -0.0228766
v 0.1404784 1.1975448 -0.0235887
v 0.1420712 1.1920958 -0.0240101
v 0.1451164 1.1872872 -0.0241066
v 0.3293674 1.0235085 -0.0138705
v 0.3344799 1.0210659 -0.0133207
v 0.3400395 1.0201572 -0.0125020
v 0.3455959 1.0208560 -0.0114805
v 0.3506990 1.0231057 -0.0103391
v 0.1429878 1.2094873 -0.0245364
v 0.1422892 1.2049301 -0.0278755
v 0.1430254 1.1999735 -0.0305766
v 0.1451368 1.1950191 -0.0324208
v 0.1484523 1.1904682 -0.0332588
v 0.3327034 1.0266895 -0.0230226
v 0.3375455 1.0239891 -0.0217314
v 0.3425866 1.0225859 -0.0194898
v 0.3474180 1.0225934 -0.0164794
v 0.3516485 1.0240111 -0.0129441
v 0.1446559 1.2112637 -0.0261392
v 0.1454903 1.2083390 -0.0309512
v 0.1475001 1.2047388 -0.0348761
v 0.1505226 1.2007547 -0.0375957
v 0.1543129 1.1967094 -0.0388899
v 0.3385640 1.0329307 -0.0286538
v 0.3429313 1.0297247 -0.0269064
v 0.3470612 1.0273512 -0.0237893
v 0.3506191 1.0260023 -0.0195552
v 0.3533166 1.0257876 -0.0145469
v 0.1465957 1.2134352 -0.0263103
v 0.1492126 1.2125061 -0.0312796
v 0.1527035 1.2105638 -0.0353351
v 0.1567854 1.2077658 -0.0381483
v 0.1611278 1.2043386 -0.0394911
v 0.3453789 1.0405599 -0.0292550
v 0.3491941 1.0367358 -0.0274589
v 0.3522646 1.0331762 -0.0242484
v 0.3543414 1.0301694 -0.0198836
v 0.3552563 1.0279590 -0.0147180
vn -0.7467658 0.6637919 -0.0414870
vn -0.5707231 0.7768676 -0.2659923
vn -0.3614891 0.8163908 -0.4503684
vn -0.1248680 0.7914456 -0.5983493
vn 0.1206046 0.7048154 -0.6990635
vn 0.3561481 0.5636690 -0.7452757
vn 0.5639266 0.3789770 -0.7337324
vn 0.7281574 0.1647685 -0.6653105
vn 0.8361091 -0.0627563 -0.5449616
vn 0.8789572 -0.2862282 -0.3814547
vn 0.8524783 -0.4882004 -0.1869255
vn 0.7467658 -0.6637919 0.0414870
vn -0.5174303 0.8450087 -0.1350041
vn -0.2636123 0.9415379 -0.2097972
vn 0.0096602 0.9634559 -0.2676929
vn 0.2811443 0.9100845 -0.3044735
vn 0.5301762 0.7861847 -0.3175324
vn 0.7379548 0.6014926 -0.3059892
vn 0.8886971 0.3700375 -0.2707206
vn 0.9706373 0.1092540 -0.2143052
vn 0.9768340 -0.1610810 -0.1408836
vn 0.9057711 -0.4200592 -0.0559374
vn -0.5161654 0.8562174 0.0215653
vn -0.2612890 0.9621237 0.0777563
vn 0.0128535 0.9917503 0.1275390
vn 0.2849550 0.9438497 0.1671778
vn 0.5343071 0.8227868 0.1937468
vn 0.7420856 0.6380948 0.2052901
vn 0.8925078 0.4038027 0.2009308
vn 0.9738306 0.1375484 0.1809267
vn 0.9791573 -0.1404952 0.1466699
vn 0.9070361 -0.4088505 0.1006321
vn -0.5672671 0.8074903 0.1617634
vn -0.3551419 0.8726321 0.3352423
vn -0.1161439 0.8687473 0.4814444
vn 0.1310155 0.7970637 0.5895120
vn 0.3674337 0.6636679 0.6515653
vn 0.5752123 0.4789759 0.6631086
vn 0.7385684 0.2570167 0.6232649
vn 0.8448332 0.0145454 0.5348320
vn 0.8853045 -0.2299868 0.4041560
vn 0.8559343 -0.4575776 0.2408302
vn -0.6570429 0.7118838 0.2480242
vn -0.5200230 0.6970424 0.4936678
vn -0.3427671 0.6274056 0.6991945
vn -0.1394261 0.5090577 0.8493648
vn 0.0742698 0.3514638 0.9332509
vn 0.2820483 0.1667718 0.9447941
vn 0.4681268 -0.0309892 0.8831178
vn 0.6182100 -0.2267963 0.7525821
vn 0.7204233 -0.4055765 0.5625815
vn 0.7661585 -0.5531841 0.3270910
vn -0.7614375 0.5950156 0.2572342
vn -0.7117527 0.4824037 0.5105828
vn -0.6062927 0.3323924 0.7224434
vn -0.4539052 0.1570027 0.8771090
vn -0.2666318 -0.0301707 0.9633261
vn -0.0588532 -0.2148627 0.9748694
vn 0.1536477 -0.3830443 0.9108620
vn 0.3546845 -0.5218095 0.7758310
vn 0.5286936 -0.6202153 0.5794964
vn 0.6617639 -0.6700524 0.3363009
vn -0.8524783 0.4882004 0.1869255
vn -0.8789572 0.2862282 0.3814547
vn -0.8361091 0.0627563 0.5449616
vn -0.7281574 -0.1647685 0.6653105
vn -0.5639266 -0.3789770 0.7337324
vn -0.3561481 -0.5636690 0.7452757
vn -0.1206046 -0.7048154 0.6990635
vn 0.1248680 -0.7914456 0.5983493
vn 0.3614891 -0.8163908 0.4503684
vn 0.5707231 -0.7768676 0.2659923
vn -0.9057711 0.4200592 0.0559374
vn -0.9768340 0.1610810 0.1408836
vn -0.9706373 -0.1092540 0.2143052
vn -0.8886971 -0.3700375 0.2707206
vn -0.7379548 -0.6014926 0.3059892
vn -0.5301762 -0.7861847 0.3175324
vn -0.2811443 -0.9100845 0.3044735
vn -0.0096602 -0.9634559 0.2676929
vn 0.2636123 -0.9415379 0.2097972
vn 0.5174303 -0.8450087 0.1350041
vn -0.9070361 0.4088505 -0.1006321
vn -0.9791573 0.1404952 -0.1466699
vn -0.9738306 -0.1375484 -0.1809267
vn -0.8925078 -0.4038027 -0.2009308
vn -0.7420856 -0.6380948 -0.2052901
vn -0.5343071 -0.8227868 -0.1937468
vn -0.2849550 -0.9438497 -0.1671778
vn -0.0128535 -0.9917503 -0.1275390
vn 0.2612890 -0.9621237 -0.0777563
vn 0.5161654 -0.8562174 -0.0215653
vn -0.8559343 0.4575776 -0.2408302
vn -0.8853045 0.2299868 -0.4041560
vn -0.8448332 -0.0145454 -0.5348320
vn -0.7385684 -0.2570167 -0.6232649
vn -0.5752123 -0.4789759 -0.6631086
vn -0.3674337 -0.6636679 -0.6515653
vn -0.1310155 -0.7970637 -0.5895120
vn 0.1161439 -0.8687473 -0.4814444
vn 0.3551419 -0.8726321 -0.3352423
vn 0.5672671 -0.8074903 -0.1617634
vn -0.7661585 0.5531841 -0.3270910
vn -0.7204233 0.4055765 -0.5625815
vn -0.6182100 0.2267963 -0.7525821
vn -0.4681268 0.0309892 -0.8831178
vn -0.2820483 -0.1667718 -0.9447941
vn -0.0742698 -0.3514638 -0.9332509
vn 0.1394261 -0.5090577 -0.8493648
vn 0.3427671 -0.6274056 -0.6991945
vn 0.5200230 -0.6970424 -0.4936678
vn 0.6570429 -0.7118838 -0.2480242
vn -0.6617639 0.6700524 -0.3363009
vn -0.5286936 0.6202153 -0.5794964
vn -0.3546845 0.5218095 -0.7758310
vn -0.1536477 0.3830443 -0.9108620
vn 0.0588532 0.2148627 -0.9748694
vn 0.2666318 0.0301707 -0.9633261
vn 0.4539052 -0.1570027 -0.8771090
vn 0.6062927 -0.3323924 -0.7224434
vn 0.7117527 -0.4824037 -0.5105828
vn 0.7614375 -0.5950156 -0.2572342
f 2//2 1//1 13//13
f 2//2 13//13 3//3
f 3//3 13//13 14//14
f 3//3 14//14 4//4
f 4//4 14//14 15//15
f 4//4 15//15 5//5
f 5//5 15//15 16//16
f 5//5 16//16 6//6
f 6//6 16//16 17//17
f 6//6 17//17 7//7
f 7//7 17//17 18//18
f 7//7 18//18 8//8
f 8//8 18//18 19//19
f 8//8 19//19 9//9
f 9//9 19//19 20//20
f 9//9 20//20 10//10
f 10//10 20//20 21//21
f 10//10 21//21 11//11
f 11//11 21//21 22//22
f 11//11 22//22 12//12
f 13//13 1//1 23//23
f 13//13 23//23 14//14
f 14//14 23//23 24//24
f 14//14 24//24 15//15
f 15//15 24//24 25//25
f 15//15 25//25 16//16
f 16//16 25//25 26//26
f 16//16 26//26 17//17
f 17//17 26//26 27//27
f 17//17 27//27 18//18
f 18//18 27//27 28//28
f 18//18 28//28 19//19
f 19//19 28//28 29//29
f 19//19 29//29 20//20
f 20//20 29//29 30//30
f 20//20 30//30 21//21
f 21//21 30//30 31//31
f 21//21 31//31 22//22
f 22//22 31//31 32//32
f 22//22 32//32 12//12
f 23//23 1//1 33//33
f 23//23 33//33 24//24
f 24//24 33//33 34//34
f 24//24 34//34 25//25
f 25//25 34//34 35//35
f 25//25 35//35 26//26
f 26//26 35//35 36//36
f 26//26 36//36 27//27
f 27//27 36//36 37//37
f 27//27 37//37 28//28
f 28//28 37//37 38//38
f 28//28 38//38 29//29
f 29//29 38//38 39//39
f 29//29 39//39 30//30
f 30//30 39//39 40//40
f 30//30 40//40 31//31
f 31//31 40//40 41//41
f 31//31 41//41 32//32
f 32//32 41//41 42//42
f 32//32 42//42 12//12
f 33//33 1//1 43//43
f 33//33 43//43 34//34
f 34//34 43//43 44//44
f 34//34 44//44 35//35
f 35//35 44//44 45//45
f 35//35 45//45 36//36
f 36//36 45//45 46//46
f 36//36 46//46 37//37
f 37//37 46//46 47//47
f 37//37 47//47 38//38
f 38//38 47//47 48//48
f 38//38 48//48 39//39
f 39//39 48//48 49//49
f 39//39 49//49 40//40
f 40//40 49//49 50//50
f 40//40 50//50 41//41
f 41//41 50//50 51//51
f 41//41 51//51 42//42
f 42//42 51//51 52//52
f 42//42 52//52 12//12
f 43//43 1//1 53//53
f 43//43 53//53 44//44
f 44//44 53//53 54//54
f 44//44 54//54 45//45
f 45//45 54//54 55//55
f 45//45 55//55 46//46
f 46//46 55//55 56//56
f 46//46 56//56 47//47
f 47//47 56//56 57//57
f 47//47 57//57 48//48
f 48//48 57//57 58//58
f 48//48 58//58 49//49
f 49//49 58//58 59//59
f 49//49 59//59 50//50
f 50//50 59//59 60//60
f 50//50 60//60 51//51
f 51//51 60//60 61//61
f 51//51 61//61 52//52
f 52//52 61//61 62//62
f 52//52 62//62 12//12
f 53//53 1//1 63//63
f 53//53 63//63 54//54
f 54//54 63//63 64//64
f 54//54 64//64 55//55
f 55//55 64//64 65//65
f 55//55 65//65 56//56
f 56//56 65//65 66//66
f 56//56 66//66 57//57
f 57//57 66//66 67//67
f 57//57 67//67 58//58
f 58//58 67//67 68//68
f 58//58 68//68 59//59
f 59//59 68//68 69//69
f 59//59 69//69 60//60
f 60//60 69//69 70//70
f 60//60 70//70 61//61
f 61//61 70//70 71//71
f 61//61 71//71 62//62
f 62//62 71//71 72//72
f 62//62 72//72 12//12
f 63//63 1//1 73//73
f 63//63 73//73 64//64
f 64//64 73//73 74//74
f 64//64 74//74 65//65
f 65//65 74//74 75//75
f 65//65 75//75 66//66
f 66//66 75//75 76//76
f 66//66 76//76 67//67
f 67//67 76//76 77//77
f 67//67 77//77 68//68
f 68//68 77//77 78//78
f 68//68 78//78 69//69
f 69//69 78//78 79//79
f 69//69 79//79 70//70
f 70//70 79//79 80//80
f 70//70 80//80 71//71
f 71//71 80//80 81//81
f 71//71 81//81 72//72
f 72//72 81//81 82//82
f 72//72 82//82 12//12
f 73//73 1//1 83//83
f 73//73 83//83 74//74
f 74//74 83//83 84//84
f 74//74 84//84 75//75
f 75//75 84//84 85//85
f 75//75 85//85 76//76
f 76//76 85//85 86//86
f 76//76 86//86 77//77
f 77//77 86//86 87//87
f 77//77 87//87 78//78
f 78//78 87//87 88//88
f 78//78 88//88 79//79
f 79//79 88//88 89//89
f 79//79 89//89 80//80
f 80//80 89//89 90//90
f 80//80 90//90 81//81
f 81//81 90//90 91//91
f 81//81 91//91 82//82
f 82//82 91//91 92//92
f 82//82 92//92 12//12
f 83//83 1//1 93//93
f 83//83 93//93 84//84
f 84//84 93//93 94//94
f 84//84 94//94 85//85
f 85//85 94//94 95//95
f 85//85 95//95 86//86
f 86//86 95//95 96//96
f 86//86 96//96 87//87
f 87//87 96//96 97//97
f 87//87 97//97 88//88
f 88//88 97//97 98//98
f 88//88 98//98 89//89
f 89//89 98//98 99//99
f 89//89 99//99 90//90
f 90//90 99//99 100//100
f 90//90 100//100 91//91
f 91//91 100//100 101//101
f 91//91 101//101 92//92
f 92//92 101//101 102//102
f 92//92 102//102 12//12
f 93//93 1//1 103//103
f 93//93 103//103 94//94
f 94//94 103//103 104//104
f 94//94 104//104 95//95
f 95//95 104//104 105//105
f 95//95 105//105 96//96
f 96//96 105//105 106//106
f 96//96 106//106 97//97
f 97//97 106//106 107//107
f 97//97 107//107 98//98
f 98//98 107//107 108//108
f 98//98 108//108 99//99
f 99//99 108//108 109//109
f 99//99 109//109 100//100
f 100//100 109//109 110//110
f 100//100 110//110 101//101
f 101//101 110//110 111//111
f 101//101 111//111 102//102
f 102//102 111//111 112//112
f 102//102 112//112 12//12
f 103//103 1//1 113//113
f 103//103 113//113 104//104
f 104//104 113//113 114//114
f 104//104 114//114 105//105
f 105//105 114//114 115//115
f 105//105 115//115 106//106
f 106//106 115//115 116//116
f 106//106 116//116 107//107
f 107//107 116//116 117//117
f 107//107 117//117 108//108
f 108//108 117//117 118//118
f 108//108 118//118 109//109
f 109//109 118//118 119//119
f 109//109 119//119 110//110
f 110//110 119//119 120//120
f 110//110 120//120 111//111
f 111//111 120//120 121//121
f 111//111 121//121 112//112
f 112//112 121//121 122//122
f 112//112 122//122 12//12
f 113//113 1//1 2//2
f 113//113 2//2 114//114
f 114//114 2//2 3//3
f 114//114 3//3 115//115
f 115//115 3//3 4//4
f 115//115 4//4 116//116
f 116//116 4//4 5//5
f 116//116 5//5 117//117
f 117//117 5//5 6//6
f 117//117 6//6 118//118
f 118//118 6//6 7//7
f 118//118 7//7 119//119
f 119//119 7//7 8//8
f 119//119 8//8 120//120
f 120//120 8//8 9//9
f 120//120 9//9 121//121
f 121//121 9//9 10//10
f 121//121 10//10 122//122
f 122//122 10//10 11//11
f 122//122 11//11 12//12

