# https://github.com/mikedh/trimesh
v 0.0787597 -0.4100772 -0.0000000
v 0.0815839 -0.4101324 -0.0003494
v 0.0842798 -0.4109870 -0.0006706
v 0.0866290 -0.4125718 -0.0009374
v 0.0884411 -0.4147584 -0.0011283
v 0.0895694 -0.4173696 -0.0012277
v 0.1399225 -0.8201939 -0.0012277
v 0.1394716 -0.8230025 -0.0011283
v 0.1382535 -0.8255679 -0.0009374
v 0.1363667 -0.8276822 -0.0006706
v 0.1339641 -0.8291741 -0.0003494
v 0.1312403 -0.8299228 0.0000000
v 0.0813856 -0.4101572 0.0010952
v 0.0838993 -0.4110346 0.0021016
v 0.0860971 -0.4126383 0.0029378
v 0.0878010 -0.4148384 0.0035359
v 0.0888728 -0.4174567 0.0038477
v 0.1392259 -0.8202810 0.0038477
v 0.1388315 -0.8230825 0.0035359
v 0.1377216 -0.8256344 0.0029378
v 0.1359862 -0.8277297 0.0021016
v 0.1337658 -0.8291989 0.0010952
v 0.0804972 -0.4102683 0.0022463
v 0.0821944 -0.4112477 0.0043106
v 0.0837139 -0.4129362 0.0060257
v 0.0849325 -0.4151970 0.0072527
v 0.0857515 -0.4178468 0.0078920
v 0.1361045 -0.8206712 0.0078920
v 0.1359630 -0.8234411 0.0072527
v 0.1353384 -0.8259323 0.0060257
v 0.1342813 -0.8279428 0.0043106
v 0.1328774 -0.8293099 0.0022463
v 0.0791566 -0.4104358 0.0027956
v 0.0796220 -0.4115693 0.0053647
v 0.0801179 -0.4133857 0.0074991
v 0.0806043 -0.4157380 0.0090261
v 0.0810417 -0.4184356 0.0098218
v 0.1313948 -0.8212599 0.0098218
v 0.1316348 -0.8239821 0.0090261
v 0.1317424 -0.8263818 0.0074991
v 0.1317089 -0.8282644 0.0053647
v 0.1315369 -0.8294775 0.0027956
v 0.0777232 -0.4106150 0.0025958
v 0.0768712 -0.4119131 0.0049812
v 0.0762727 -0.4138663 0.0069631
v 0.0759761 -0.4163165 0.0083809
v 0.0760055 -0.4190651 0.0091198
v 0.1263586 -0.8218894 0.0091198
v 0.1270066 -0.8245607 0.0083809
v 0.1278972 -0.8268624 0.0069631
v 0.1289581 -0.8286082 0.0049812
v 0.1301034 -0.8296567 0.0025958
v 0.0765809 -0.4107578 0.0017004
v 0.0746792 -0.4121871 0.0032631
v 0.0732085 -0.4142494 0.0045614
v 0.0722881 -0.4167775 0.0054901
v 0.0719924 -0.4195667 0.0059741
v 0.1223454 -0.8223910 0.0059741
v 0.1233186 -0.8250217 0.0054901
v 0.1248330 -0.8272454 0.0045614
v 0.1267661 -0.8288822 0.0032631
v 0.1289611 -0.8297995 0.0017004
v 0.0760359 -0.4108259 0.0003494
v 0.0736333 -0.4123178 0.0006706
v 0.0717465 -0.4144321 0.0009374
v 0.0705284 -0.4169975 0.0011283
v 0.0700775 -0.4198061 0.0012277
v 0.1204306 -0.8226304 0.0012277
v 0.1215589 -0.8252416 0.0011283
v 0.1233710 -0.8274282 0.0009374
v 0.1257202 -0.8290130 0.0006706
v 0.1284161 -0.8298676 0.0003494
v 0.0762342 -0.4108011 -0.0010952
v 0.0740138 -0.4122703 -0.0021016
v 0.0722784 -0.4143656 -0.0029378
v 0.0711685 -0.4169175 -0.0035359
v 0.0707741 -0.4197190 -0.0038477
v 0.1211272 -0.8225433 -0.0038477
v 0.1221990 -0.8251616 -0.0035359
v 0.1239029 -0.8273617 -0.0029378
v 0.1261007 -0.8289654 -0.0021016
v 0.1286144 -0.8298428 -0.0010952
v 0.0771226 -0.4106901 -0.0022463
v 0.0757187 -0.4120572 -0.0043106
v 0.0746616 -0.4140677 -0.0060257
v 0.0740370 -0.4165589 -0.0072527
v 0.0738955 -0.4193288 -0.0078920
v 0.1242485 -0.8221532 -0.0078920
v 0.1250675 -0.8248030 -0.0072527
v 0.1262861 -0.8270638 -0.0060257
v 0.1278056 -0.8287523 -0.0043106
v 0.1295028 -0.8297317 -0.0022463
v 0.0784631 -0.4105225 -0.0027956
v 0.0782911 -0.4117356 -0.0053647
v 0.0782576 -0.4136182 -0.0074991
v 0.0783652 -0.4160179 -0.0090261
v 0.0786052 -0.4187401 -0.0098218
v 0.1289583 -0.8215644 -0.0098218
v 0.1293957 -0.8242620 -0.0090261
v 0.1298821 -0.8266143 -0.0074991
v 0.1303780 -0.8284307 -0.0053647
v 0.1308434 -0.8295642 -0.0027956
v 0.0798966 -0.4103433 -0.0025958
v 0.0810419 -0.4113918 -0.0049812
v 0.0821028 -0.4131376 -0.0069631
v 0.0829934 -0.4154393 -0.0083809
v 0.0836414 -0.4181106 -0.0091198
v 0.1339945 -0.8209349 -0.0091198
v 0.1340239 -0.8236835 -0.0083809
v 0.1337273 -0.8261337 -0.0069631
v 0.1331288 -0.8280869 -0.0049812
v 0.1322768 -0.8293850 -0.0025958
v 0.0810389 -0.4102005 -0.0017004
v 0.0832339 -0.4111178 -0.0032631
v 0.0851670 -0.4127546 -0.0045614
v 0.0866814 -0.4149783 -0.0054901
v 0.0876546 -0.4176090 -0.0059741
v 0.1380076 -0.8204333 -0.0059741
v 0.1377119 -0.8232225 -0.0054901
v 0.1367915 -0.8257506 -0.0045614
v 0.1353208 -0.8278129 -0.0032631
v 0.1334191 -0.8292422 -0.0017004
vn -0.1240347 0.9922779 -0.0000000
vn 0.1803935 0.9828751 -0.0376139
vn 0.4453655 0.8926799 -0.0690812
vn 0.6739241 0.7326738 -0.0949496
vn 0.8490118 0.5160816 -0.1133085
vn 0.9577851 0.2599247 -0.1228286
vn 0.9922962 -0.0161646 -0.1228286
vn 0.9499238 -0.2912146 -0.1133085
vn 0.8335384 -0.5442410 -0.0949496
vn 0.6513985 -0.7555844 -0.0690812
vn 0.4167814 -0.9082282 -0.0376139
vn 0.1240347 -0.9922779 -0.0000000
vn 0.1590521 0.9802074 0.1178810
vn 0.4061701 0.8877805 0.2164987
vn 0.6200514 0.7259397 0.2975697
vn 0.7847227 0.5080455 0.3551058
vn 0.8880945 0.2512134 0.3849417
vn 0.9226056 -0.0248759 0.3849417
vn 0.8856347 -0.2992508 0.3551058
vn 0.7796658 -0.5509751 0.2975697
vn 0.6122031 -0.7604838 0.2164987
vn 0.3954400 -0.9108959 0.1178810
vn 0.0634228 0.9682537 0.2417897
vn 0.2305386 0.8658265 0.4440680
vn 0.3786523 0.6957648 0.6103555
vn 0.4966481 0.4720361 0.7283698
vn 0.5758160 0.2121786 0.7895671
vn 0.6103272 -0.0639107 0.7895671
vn 0.5975602 -0.3352601 0.7283698
vn 0.5382666 -0.5811500 0.6103555
vn 0.4365716 -0.7824377 0.4440680
vn 0.2998107 -0.9228495 0.2417897
vn -0.0808705 0.9502171 0.3009111
vn -0.0344688 0.8327006 0.5526496
vn 0.0144092 0.6502344 0.7595970
vn 0.0619775 0.4177023 0.9064676
vn 0.1046245 0.1532796 0.9826286
vn 0.1391357 -0.1228096 0.9826286
vn 0.1628895 -0.3895939 0.9064676
vn 0.1740236 -0.6266803 0.7595970
vn 0.1715643 -0.8155637 0.5526496
vn 0.1555174 -0.9408862 0.3009111
vn -0.2351646 0.9309303 0.2794036
vn -0.3178434 0.7972788 0.5131492
vn -0.3750790 0.6015484 0.7053051
vn -0.4028197 0.3596027 0.8416782
vn -0.3992247 0.0902985 0.9123957
vn -0.3647135 -0.1857908 0.9123957
vn -0.3019076 -0.4476936 0.8416782
vn -0.2154647 -0.6753664 0.7053051
vn -0.1118104 -0.8509855 0.5131492
vn 0.0012233 -0.9601730 0.2794036
vn -0.3581166 0.9155613 0.1830302
vn -0.5436554 0.7690523 0.3361509
vn -0.6854494 0.5627521 0.4620273
vn -0.7732012 0.3133050 0.5513618
vn -0.8007255 0.0401109 0.5976870
vn -0.7662144 -0.2359784 0.5976870
vn -0.6722892 -0.4939913 0.5513618
vn -0.5258350 -0.7141627 0.4620273
vn -0.3376224 -0.8792120 0.3361509
vn -0.1217287 -0.9755420 0.1830302
vn -0.4167814 0.9082282 0.0376139
vn -0.6513985 0.7555844 0.0690812
vn -0.8335384 0.5442410 0.0949496
vn -0.9499238 0.2912146 0.1133085
vn -0.9922962 0.0161646 0.1228286
vn -0.9577851 -0.2599247 0.1228286
vn -0.8490118 -0.5160816 0.1133085
vn -0.6739241 -0.7326738 0.0949496
vn -0.4453655 -0.8926799 0.0690812
vn -0.1803935 -0.9828751 0.0376139
vn -0.3954400 0.9108959 -0.1178810
vn -0.6122031 0.7604838 -0.2164987
vn -0.7796658 0.5509751 -0.2975697
vn -0.8856347 0.2992508 -0.3551058
vn -0.9226056 0.0248759 -0.3849417
vn -0.8880945 -0.2512134 -0.3849417
vn -0.7847227 -0.5080455 -0.3551058
vn -0.6200514 -0.7259397 -0.2975697
vn -0.4061701 -0.8877805 -0.2164987
vn -0.1590521 -0.9802074 -0.1178810
vn -0.2998107 0.9228495 -0.2417897
vn -0.4365716 0.7824377 -0.4440680
vn -0.5382666 0.5811500 -0.6103555
vn -0.5975602 0.3352601 -0.7283698
vn -0.6103272 0.0639107 -0.7895671
vn -0.5758160 -0.2121786 -0.7895671
vn -0.4966481 -0.4720361 -0.7283698
vn -0.3786523 -0.6957648 -0.6103555
vn -0.2305386 -0.8658265 -0.4440680
vn -0.0634228 -0.9682537 -0.2417897
vn -0.1555174 0.9408862 -0.3009111
vn -0.1715643 0.8155637 -0.5526496
vn -0.1740236 0.6266803 -0.7595970
vn -0.1628895 0.3895939 -0.9064676
vn -0.1391357 0.1228096 -0.9826286
vn -0.1046245 -0.1532796 -0.9826286
vn -0.0619775 -0.4177023 -0.9064676
vn -0.0144092 -0.6502344 -0.7595970
vn 0.0344688 -0.8327006 -0.5526496
vn 0.0808705 -0.9502171 -0.3009111
vn -0.0012233 0.9601730 -0.2794036
vn 0.1118104 0.8509855 -0.5131492
vn 0.2154647 0.6753664 -0.7053051
vn 0.3019076 0.4476936 -0.8416782
vn 0.3647135 0.1857908 -0.9123957
vn 0.3992247 -0.0902985 -0.9123957
vn 0.4028197 -0.3596027 -0.8416782
vn 0.3750790 -0.6015484 -0.7053051
vn 0.3178434 -0.7972788 -0.5131492
vn 0.2351646 -0.9309303 -0.2794036
vn 0.1217287 0.9755420 -0.1830302
vn 0.3376224 0.8792120 -0.3361509
vn 0.5258350 0.7141627 -0.4620273
vn 0.6722892 0.4939913 -0.5513618
vn 0.7662144 0.2359784 -0.5976870
vn 0.8007255 -0.0401109 -0.5976870
vn 0.7732012 -0.3133050 -0.5513618
vn 0.6854494 -0.5627521 -0.4620273
vn 0.5436554 -0.7690523 -0.3361509
vn 0.3581166 -0.9155613 -0.1830302
f 2//2 1//1 13//13
f 2//2 13//13 3//3
f 3//3 13//13 14//14
f 3//3 14//14 4//4
f 4//4 14//14 15//15
f 4//4 15//15 5//5
f 5//5 15//15 16//16
f 5//5 16//16 6//6
f 6//6 16//16 17//17
f 6//6 17//17 7//7
f 7//7 17//17 18//18
f 7//7 18//18 8//8
f 8//8 18//18 19//19
f 8//8 19//19 9//9
f 9//9 19//19 20//20
f 9//9 20//20 10//10
f 10//10 20//20 21//21
f 10//10 21//21 11//11
f 11//11 21//21 22//22
f 11//11 22//22 12//12
f 13//13 1//1 23//23
f 13//13 23//23 14//14
f 14//14 23//23 24//24
f 14//14 24//24 15//15
f 15//15 24//24 25//25
f 15//15 25//25 16//16
f 16//16 25//25 26//26
f 16//16 26//26 17//17
f 17//17 26//26 27//27
f 17//17 27//27 18//18
f 18//18 27//27 28//28
f 18//18 28//28 19//19
f 19//19 28//28 29//29
f 19//19 29//29 20//20
f 20//20 29//29 30//30
f 20//20 30//30 21//21
f 21//21 30//30 31//31
f 21//21 31//31 22//22
f 22//22 31//31 32//32
f 22//22 32//32 12//12
f 23//23 1//1 33//33
f 23//23 33//33 24//24
f 24//24 33//33 34//34
f 24//24 34//34 25//25
f 25//25 34//34 35//35
f 25//25 35//35 26//26
f 26//26 35//35 36//36
f 26//26 36//36 27//27
f 27//27 36//36 37//37
f 27//27 37//37 28//28
f 28//28 37//37 38//38
f 28//28 38//38 29//29
f 29//29 38//38 39//39
f 29//29 39//39 30//30
f 30//30 39//39 40//40
f 30//30 40//40 31//31
f 31//31 40//40 41//41
f 31//31 41//41 32//32
f 32//32 41//41 42//42
f 32//32 42//42 12//12
f 33//33 1//1 43//43
f 33//33 43//43 34//34
f 34//34 43//43 44//44
f 34//34 44//44 35//35
f 35//35 44//44 45//45
f 35//35 45//45 36//36
f 36//36 45//45 46//46
f 36//36 46//46 37//37
f 37//37 46//46 47//47
f 37//37 47//47 38//38
f 38//38 47//47 48//48
f 38//38 48//48 39//39
f 39//39 48//48 49//49
f 39//39 49//49 40//40
f 40//40 49//49 50//50
f 40//40 50//50 41//41
f 41//41 50//50 51//51
f 41//41 51//51 42//42
f 42//42 51//51 52//52
f 42//42 52//52 12//12
f 43//43 1//1 53//53
f 43//43 53//53 44//44
f 44//44 53//53 54//54
f 44//44 54//54 45//45
f 45//45 54//54 55//55
f 45//45 55//55 46//46
f 46//46 55//55 56//56
f 46//46 56//56 47//47
f 47//47 56//56 57//57
f 47//47 57//57 48//48
f 48//48 57//57 58//58
f 48//48 58//58 49//49
f 49//49 58//58 59//59
f 49//49 59//59 50//50
f 50//50 59//59 60//60
f 50//50 60//60 51//51
f 51//51 60//60 61//61
f 51//51 61//61 52//52
f 52//52 61//61 62//62
f 52//52 62//62 12//12
f 53//53 1//1 63//63
f 53//53 63//63 54//54
f 54//54 63//63 64//64
f 54//54 64//64 55//55
f 55//55 64//64 65//65
f 55//55 65//65 56//56
f 56//56 65//65 66//66
f 56//56 66//66 57//57
f 57//57 66//66 67//67
f 57//57 67//67 58//58
f 58//58 67//67 68//68
f 58//58 68//68 59//59
f 59//59 68//68 69//69
f 59//59 69//69 60//60
f 60//60 69//69 70//70
f 60//60 70//70 61//61
f 61//61 70//70 71//71
f 61//61 71//71 62//62
f 62//62 71//71 72//72
f 62//62 72//72 12//12
f 63//63 1//1 73//73
f 63//63 73//73 64//64
f 64//64 73//73 74//74
f 64//64 74//74 65//65
f 65//65 74//74 75//75
f 65//65 75//75 66//66
f 66//66 75//75 76//76
f 66//66 76//76 67//67
f 67//67 76//76 77//77
f 67//67 77//77 68//68
f 68//68 77//77 78//78
f 68//68 78//78 69//69
f 69//69 78//78 79//79
f 69//69 79//79 70//70
f 70//70 79//79 80//80
f 70//70 80//80 71//71
f 71//71 80//80 81//81
f 71//71 81//81 72//72
f 72//72 81//81 82//82
f 72//72 82//82 12//12
f 73//73 1//1 83//83
f 73//73 83//83 74//74
f 74//74 83//83 84//84
f 74//74 84//84 75//75
f 75//75 84//84 85//85
f 75//75 85//85 76//76
f 76//76 85//85 86//86
f 76//76 86//86 77//77
f 77//77 86//86 87//87
f 77//77 87//87 78//78
f 78//78 87//87 88//88
f 78//78 88//88 79//79
f 79//79 88//88 89//89
f 79//79 89//89 80//80
f 80//80 89//89 90//90
f 80//80 90//90 81//81
f 81//81 90//90 91//91
f 81//81 91//91 82//82
f 82//82 91//91 92//92
f 82//82 92//92 12//12
f 83//83 1//1 93//93
f 83//83 93//93 84//84
f 84//84 93//93 94//94
f 84//84 94//94 85//85
f 85//85 94//94 95//95
f 85//85 95//95 86//86
f 86//86 95//95 96//96
f 86//86 96//96 87//87
f 87//87 96//96 97//97
f 87//87 97//97 88//88
f 88//88 97//97 98//98
f 88//88 98//98 89//89
f 89//89 98//98 99//99
f 89//89 99//99 90//90
f 90//90 99//99 100//100
f 90//90 100//100 91//91
f 91//91 100//100 101//101
f 91//91 101//101 92//92
f 92//92 101//101 102//102
f 92//92 102//102 12//12
f 93//93 1//1 103//103
f 93//93 103//103 94//94
f 94//94 103//103 104//104
f 94//94 104//104 95//95
f 95//95 104//104 105//105
f 95//95 105//105 96//96
f 96//96 105//105 106//106
f 96//96 106//106 97//97
f 97//97 106//106 107//107
f 97//97 107//107 98//98
f 98//98 107//107 108//108
f 98//98 108//108 99//99
f 99//99 108//108 109//109
f 99//99 109//109 100//100
f 100//100 109//109 110//110
f 100//100 110//110 101//101
f 101//101 110//110 111//111
f 101//101 111//111 102//102
f 102//102 111//111 112//112
f 102//102 112//112 12//12
f 103//103 1//1 113//113
f 103//103 113//113 104//104
f 104//104 113//113 114//114
f 104//104 114//114 105//105
f 105//105 114//114 115//115
f 105//105 115//115 106//106
f 106//106 115//115 116//116
f 106//106 116//116 107//107
f 107//107 116//116 117//117
f 107//107 117//117 108//108
f 108//108 117//117 118//118
f 108//108 118//118 109//109
f 109//109 118//118 119//119
f 109//109 119//119 110//110
f 110//110 119//119 120//120
f 110//110 120//120 111//111
f 111//111 120//120 121//121
f 111//111 121//121 112//112
f 112//112 121//121 122//122
f 112//112 122//122 12//12
f 113//113 1//1 2//2
f 113//113 2//2 114//114
f 114//114 2//2 3//3
f 114//114 3//3 115//115
f 115//115 3//3 4//4
f 115//115 4//4 116//116
f 116//116 4//4 5//5
f 116//116 5//5 117//117
f 117//117 5//5 6//6
f 117//117 6//6 118//118
f 118//118 6//6 7//7
f 118//118 7//7 119//119
f 119//119 7//7 8//8
f 119//119 8//8 120//120
f 120//120 8//8 9//9
f 120//120 9//9 121//121
f 121//121 9//9 10//10
f 121//121 10//10 122//122
f 122//122 10//10 11//11
f 122//122 11//11 12//12

