# https://github.com/mikedh/trimesh
v 0.0803328 1.6203833 0.1432561
v 0.0818519 1.6191533 0.1439782
v 0.0829064 1.6174223 0.1444617
v 0.0833691 1.6153991 0.1446483
v 0.0831842 1.6133278 0.1445155
v 0.0563741 1.5514582 0.1300792
v 0.0550363 1.5500158 0.1293922
v 0.0533324 1.5491745 0.1285372
v 0.0514677 1.5490359 0.1276175
v 0.0496672 1.5496167 0.1267439
v 0.0810027 1.6193043 0.1449081
v 0.0813105 1.6177061 0.1462093
v 0.0812189 1.6157815 0.1470028
v 0.0807391 1.6137626 0.1471929
v 0.0539290 1.5518930 0.1327566
v 0.0528861 1.5503981 0.1317467
v 0.0517364 1.5494583 0.1302848
v 0.0506185 1.5491869 0.1285474
v 0.0798439 1.6197434 0.1451780
v 0.0791326 1.6185314 0.1467166
v 0.0782847 1.6168935 0.1476863
v 0.0774025 1.6150271 0.1479701
v 0.0505923 1.5531575 0.1335339
v 0.0499520 1.5515101 0.1324302
v 0.0495586 1.5502837 0.1307921
v 0.0494597 1.5496261 0.1288173
v 0.0788181 1.6203030 0.1446849
v 0.0772048 1.6195831 0.1457899
v 0.0756873 1.6183103 0.1464377
v 0.0744488 1.6166383 0.1465503
v 0.0476387 1.5547687 0.1321140
v 0.0473545 1.5529270 0.1311816
v 0.0476307 1.5513353 0.1298654
v 0.0484339 1.5501857 0.1283242
v 0.0783171 1.6207693 0.1436171
v 0.0762632 1.6204593 0.1437831
v 0.0744188 1.6194909 0.1437340
v 0.0730063 1.6179808 0.1434757
v 0.0461961 1.5561112 0.1290395
v 0.0460860 1.5541076 0.1284778
v 0.0466892 1.5522116 0.1278586
v 0.0479329 1.5506519 0.1272564
v 0.0785323 1.6209641 0.1423825
v 0.0766676 1.6208255 0.1414628
v 0.0749637 1.6199842 0.1406078
v 0.0736259 1.6185418 0.1399208
v 0.0468158 1.5566722 0.1254845
v 0.0466309 1.5546009 0.1253517
v 0.0470936 1.5525777 0.1255383
v 0.0481481 1.5508467 0.1260218
v 0.0793815 1.6208131 0.1414526
v 0.0782636 1.6205417 0.1397152
v 0.0771139 1.6196019 0.1382533
v 0.0760710 1.6181070 0.1372434
v 0.0492609 1.5562374 0.1228071
v 0.0487811 1.5542185 0.1229972
v 0.0486895 1.5522939 0.1237907
v 0.0489973 1.5506957 0.1250919
v 0.0805403 1.6203739 0.1411827
v 0.0804414 1.6197163 0.1392079
v 0.0800480 1.6184899 0.1375698
v 0.0794077 1.6168425 0.1364661
v 0.0525975 1.5549729 0.1220299
v 0.0517153 1.5531065 0.1223137
v 0.0508674 1.5514686 0.1232834
v 0.0501561 1.5502566 0.1248220
v 0.0815661 1.6198143 0.1416758
v 0.0823693 1.6186647 0.1401346
v 0.0826455 1.6170730 0.1388184
v 0.0823613 1.6152313 0.1378860
v 0.0555512 1.5533617 0.1234497
v 0.0543127 1.5516897 0.1235623
v 0.0527952 1.5504169 0.1242101
v 0.0511819 1.5496970 0.1253151
v 0.0820671 1.6193481 0.1427436
v 0.0833108 1.6177884 0.1421414
v 0.0839140 1.6158924 0.1415222
v 0.0838039 1.6138888 0.1409605
v 0.0569937 1.5520192 0.1265243
v 0.0555812 1.5505091 0.1262660
v 0.0537368 1.5495407 0.1262169
v 0.0516829 1.5492307 0.1263829
vn 0.3887966 0.8972229 0.2093520
vn 0.6616999 0.6687916 0.3389262
vn 0.8269123 0.3801971 0.4143261
vn 0.8958409 0.0501208 0.4415393
vn 0.8626527 -0.2841264 0.4184526
vn 0.7319582 -0.5857290 0.3480786
vn 0.5181588 -0.8214533 0.2381720
vn 0.2442133 -0.9644929 0.1005651
vn -0.0601217 -0.9969507 -0.0497470
vn -0.3887966 -0.8972229 -0.2093520
vn 0.5078108 0.6961576 0.5074375
vn 0.5529087 0.4289230 0.7143648
vn 0.5341270 0.1144442 0.8376221
vn 0.4547368 -0.2115870 0.8651274
vn 0.3240424 -0.5131895 0.7947534
vn 0.1564449 -0.7571300 0.6342548
vn -0.0297903 -0.9157670 0.4006037
vn -0.2140109 -0.9695847 0.1187643
vn 0.2978109 0.7757435 0.5563548
vn 0.1789984 0.5706278 0.8014633
vn 0.0405256 0.3015096 0.9526015
vn -0.1019126 -0.0006275 0.9947932
vn -0.2326071 -0.3022301 0.9244192
vn -0.3371565 -0.5700646 0.7492342
vn -0.4037006 -0.7740622 0.4877023
vn -0.4240108 -0.8899987 0.1676816
vn 0.1119130 0.8771503 0.4669935
vn -0.1519976 0.7511851 0.6423532
vn -0.3964243 0.5398644 0.7425592
vn -0.5946745 0.2681725 0.7579220
vn -0.7253690 -0.0334300 0.6875480
vn -0.7741064 -0.3317097 0.5391919
vn -0.7346967 -0.5935049 0.3285922
vn -0.6099087 -0.7885920 0.0783203
vn 0.0211238 0.9616439 0.2734865
vn -0.3136501 0.9016282 0.2978090
vn -0.6098228 0.7384653 0.2877242
vn -0.8353305 0.4921408 0.2449906
vn -0.9660250 0.1905382 0.1746167
vn -0.9875049 -0.1331089 0.0843569
vn -0.8963491 -0.4430618 -0.0159521
vn -0.7006978 -0.7040984 -0.1151867
vn 0.0601217 0.9969507 0.0497470
vn -0.2442133 0.9644929 -0.1005651
vn -0.5181588 0.8214533 -0.2381720
vn -0.7319582 0.5857290 -0.3480786
vn -0.8626527 0.2841264 -0.4184526
vn -0.8958409 -0.0501208 -0.4415393
vn -0.8269123 -0.3801971 -0.4143261
vn -0.6616999 -0.6687916 -0.3389262
vn 0.2140109 0.9695847 -0.1187643
vn 0.0297903 0.9157670 -0.4006037
vn -0.1564449 0.7571300 -0.6342548
vn -0.3240424 0.5131895 -0.7947534
vn -0.4547368 0.2115870 -0.8651274
vn -0.5341270 -0.1144442 -0.8376221
vn -0.5529087 -0.4289230 -0.7143648
vn -0.5078108 -0.6961576 -0.5074375
vn 0.4240108 0.8899987 -0.1676816
vn 0.4037006 0.7740622 -0.4877023
vn 0.3371565 0.5700646 -0.7492342
vn 0.2326071 0.3022301 -0.9244192
vn 0.1019126 0.0006275 -0.9947932
vn -0.0405256 -0.3015096 -0.9526015
vn -0.1789984 -0.5706278 -0.8014633
vn -0.2978109 -0.7757435 -0.5563548
vn 0.6099087 0.7885920 -0.0783203
vn 0.7346967 0.5935049 -0.3285922
vn 0.7741064 0.3317097 -0.5391919
vn 0.7253690 0.0334300 -0.6875480
vn 0.5946745 -0.2681725 -0.7579220
vn 0.3964243 -0.5398644 -0.7425592
vn 0.1519976 -0.7511851 -0.6423532
vn -0.1119130 -0.8771503 -0.4669935
vn 0.7006978 0.7040984 0.1151867
vn 0.8963491 0.4430618 0.0159521
vn 0.9875049 0.1331089 -0.0843569
vn 0.9660250 -0.1905382 -0.1746167
vn 0.8353305 -0.4921408 -0.2449906
vn 0.6098228 -0.7384653 -0.2877242
vn 0.3136501 -0.9016282 -0.2978090
vn -0.0211238 -0.9616439 -0.2734865
f 2//2 1//1 11//11
f 2//2 11//11 3//3
f 3//3 11//11 12//12
f 3//3 12//12 4//4
f 4//4 12//12 13//13
f 4//4 13//13 5//5
f 5//5 13//13 14//14
f 5//5 14//14 6//6
f 6//6 14//14 15//15
f 6//6 15//15 7//7
f 7//7 15//15 16//16
f 7//7 16//16 8//8
f 8//8 16//16 17//17
f 8//8 17//17 9//9
f 9//9 17//17 18//18
f 9//9 18//18 10//10
f 11//11 1//1 19//19
f 11//11 19//19 12//12
f 12//12 19//19 20//20
f 12//12 20//20 13//13
f 13//13 20//20 21//21
f 13//13 21//21 14//14
f 14//14 21//21 22//22
f 14//14 22//22 15//15
f 15//15 22//22 23//23
f 15//15 23//23 16//16
f 16//16 23//23 24//24
f 16//16 24//24 17//17
f 17//17 24//24 25//25
f 17//17 25//25 18//18
f 18//18 25//25 26//26
f 18//18 26//26 10//10
f 19//19 1//1 27//27
f 19//19 27//27 20//20
f 20//20 27//27 28//28
f 20//20 28//28 21//21
f 21//21 28//28 29//29
f 21//21 29//29 22//22
f 22//22 29//29 30//30
f 22//22 30//30 23//23
f 23//23 30//30 31//31
f 23//23 31//31 24//24
f 24//24 31//31 32//32
f 24//24 32//32 25//25
f 25//25 32//32 33//33
f 25//25 33//33 26//26
f 26//26 33//33 34//34
f 26//26 34//34 10//10
f 27//27 1//1 35//35
f 27//27 35//35 28//28
f 28//28 35//35 36//36
f 28//28 36//36 29//29
f 29//29 36//36 37//37
f 29//29 37//37 30//30
f 30//30 37//37 38//38
f 30//30 38//38 31//31
f 31//31 38//38 39//39
f 31//31 39//39 32//32
f 32//32 39//39 40//40
f 32//32 40//40 33//33
f 33//33 40//40 41//41
f 33//33 41//41 34//34
f 34//34 41//41 42//42
f 34//34 42//42 10//10
f 35//35 1//1 43//43
f 35//35 43//43 36//36
f 36//36 43//43 44//44
f 36//36 44//44 37//37
f 37//37 44//44 45//45
f 37//37 45//45 38//38
f 38//38 45//45 46//46
f 38//38 46//46 39//39
f 39//39 46//46 47//47
f 39//39 47//47 40//40
f 40//40 47//47 48//48
f 40//40 48//48 41//41
f 41//41 48//48 49//49
f 41//41 49//49 42//42
f 42//42 49//49 50//50
f 42//42 50//50 10//10
f 43//43 1//1 51//51
f 43//43 51//51 44//44
f 44//44 51//51 52//52
f 44//44 52//52 45//45
f 45//45 52//52 53//53
f 45//45 53//53 46//46
f 46//46 53//53 54//54
f 46//46 54//54 47//47
f 47//47 54//54 55//55
f 47//47 55//55 48//48
f 48//48 55//55 56//56
f 48//48 56//56 49//49
f 49//49 56//56 57//57
f 49//49 57//57 50//50
f 50//50 57//57 58//58
f 50//50 58//58 10//10
f 51//51 1//1 59//59
f 51//51 59//59 52//52
f 52//52 59//59 60//60
f 52//52 60//60 53//53
f 53//53 60//60 61//61
f 53//53 61//61 54//54
f 54//54 61//61 62//62
f 54//54 62//62 55//55
f 55//55 62//62 63//63
f 55//55 63//63 56//56
f 56//56 63//63 64//64
f 56//56 64//64 57//57
f 57//57 64//64 65//65
f 57//57 65//65 58//58
f 58//58 65//65 66//66
f 58//58 66//66 10//10
f 59//59 1//1 67//67
f 59//59 67//67 60//60
f 60//60 67//67 68//68
f 60//60 68//68 61//61
f 61//61 68//68 69//69
f 61//61 69//69 62//62
f 62//62 69//69 70//70
f 62//62 70//70 63//63
f 63//63 70//70 71//71
f 63//63 71//71 64//64
f 64//64 71//71 72//72
f 64//64 72//72 65//65
f 65//65 72//72 73//73
f 65//65 73//73 66//66
f 66//66 73//73 74//74
f 66//66 74//74 10//10
f 67//67 1//1 75//75
f 67//67 75//75 68//68
f 68//68 75//75 76//76
f 68//68 76//76 69//69
f 69//69 76//76 77//77
f 69//69 77//77 70//70
f 70//70 77//77 78//78
f 70//70 78//78 71//71
f 71//71 78//78 79//79
f 71//71 79//79 72//72
f 72//72 79//79 80//80
f 72//72 80//80 73//73
f 73//73 80//80 81//81
f 73//73 81//81 74//74
f 74//74 81//81 82//82
f 74//74 82//82 10//10
f 75//75 1//1 2//2
f 75//75 2//2 76//76
f 76//76 2//2 3//3
f 76//76 3//3 77//77
f 77//77 3//3 4//4
f 77//77 4//4 78//78
f 78//78 4//4 5//5
f 78//78 5//5 79//79
f 79//79 5//5 6//6
f 79//79 6//6 80//80
f 80//80 6//6 7//7
f 80//80 7//7 81//81
f 81//81 7//7 8//8
f 81//81 8//8 82//82
f 82//82 8//8 9//9
f 82//82 9//9 10//10

