# https://github.com/mikedh/trimesh
v 0.0593950 1.3199817 0.0100000
v 0.0622266 1.3197475 0.0098296
v 0.0648777 1.3187236 0.0096729
v 0.0671337 1.3169930 0.0095428
v 0.0688117 1.3146958 0.0094497
v 0.0697759 1.3120182 0.0094012
v 0.1099481 0.6491772 0.0094012
v 0.1093143 0.6464027 0.0094497
v 0.1079260 0.6439197 0.0095428
v 0.1058955 0.6419293 0.0096729
v 0.1033875 0.6405928 0.0098296
v 0.1006050 0.6400183 0.0100000
v 0.0619356 1.3197298 0.0112585
v 0.0643193 1.3186897 0.0124150
v 0.0663530 1.3169457 0.0133759
v 0.0678721 1.3146389 0.0140633
v 0.0687535 1.3119563 0.0144215
v 0.1089257 0.6491152 0.0144215
v 0.1083748 0.6463458 0.0140633
v 0.1071454 0.6438724 0.0133759
v 0.1053371 0.6418955 0.0124150
v 0.1030965 0.6405751 0.0112585
v 0.0609704 1.3196713 0.0123502
v 0.0624671 1.3185775 0.0145100
v 0.0637640 1.3167887 0.0163044
v 0.0647559 1.3144500 0.0175881
v 0.0653625 1.3117508 0.0182570
v 0.1055347 0.6489097 0.0182570
v 0.1052585 0.6461569 0.0175881
v 0.1045563 0.6437155 0.0163044
v 0.1034850 0.6417832 0.0145100
v 0.1021313 0.6405166 0.0123502
v 0.0595897 1.3195877 0.0128122
v 0.0598175 1.3184169 0.0153965
v 0.0600602 1.3165643 0.0175437
v 0.0602980 1.3141798 0.0190797
v 0.0605116 1.3114568 0.0198801
v 0.1006838 0.6486157 0.0198801
v 0.1008006 0.6458867 0.0190797
v 0.1008525 0.6434910 0.0175437
v 0.1008354 0.6416227 0.0153965
v 0.1007506 0.6404330 0.0128122
v 0.0581634 1.3195012 0.0125206
v 0.0570805 1.3182510 0.0148370
v 0.0562341 1.3163324 0.0167616
v 0.0556929 1.3139007 0.0181384
v 0.0555005 1.3111531 0.0188558
v 0.0956727 0.6483120 0.0188558
v 0.0961955 0.6456077 0.0181384
v 0.0970265 0.6432592 0.0167616
v 0.0980983 0.6414568 0.0148370
v 0.0993243 0.6403465 0.0125206
v 0.0570737 1.3194352 0.0115537
v 0.0549894 1.3181243 0.0129815
v 0.0533110 1.3161552 0.0141678
v 0.0521745 1.3136875 0.0150164
v 0.0516720 1.3109210 0.0154586
v 0.0918442 0.6480799 0.0154586
v 0.0926771 0.6453944 0.0150164
v 0.0941033 0.6430820 0.0141678
v 0.0960072 0.6413300 0.0129815
v 0.0982346 0.6402805 0.0115537
v 0.0566125 1.3194072 0.0101704
v 0.0541045 1.3180707 0.0103271
v 0.0520740 1.3160803 0.0104572
v 0.0506857 1.3135973 0.0105503
v 0.0500519 1.3108228 0.0105988
v 0.0902241 0.6479818 0.0105988
v 0.0911883 0.6453042 0.0105503
v 0.0928663 0.6430070 0.0104572
v 0.0951223 0.6412764 0.0103271
v 0.0977734 0.6402525 0.0101704
v 0.0569035 1.3194249 0.0087415
v 0.0546629 1.3181045 0.0075850
v 0.0528546 1.3161276 0.0066241
v 0.0516252 1.3136542 0.0059367
v 0.0510743 1.3108848 0.0055785
v 0.0912465 0.6480437 0.0055785
v 0.0921279 0.6453611 0.0059367
v 0.0936470 0.6430543 0.0066241
v 0.0956807 0.6413103 0.0075850
v 0.0980644 0.6402702 0.0087415
v 0.0578687 1.3194834 0.0076498
v 0.0565150 1.3182168 0.0054900
v 0.0554437 1.3162845 0.0036956
v 0.0547415 1.3138431 0.0024119
v 0.0544653 1.3110903 0.0017430
v 0.0946375 0.6482492 0.0017430
v 0.0952441 0.6455500 0.0024119
v 0.0962360 0.6432113 0.0036956
v 0.0975329 0.6414225 0.0054900
v 0.0990296 0.6403287 0.0076498
v 0.0592494 1.3195670 0.0071878
v 0.0591646 1.3183773 0.0046035
v 0.0591475 1.3165090 0.0024563
v 0.0591994 1.3141133 0.0009203
v 0.0593162 1.3113843 0.0001199
v 0.0994884 0.6485432 0.0001199
v 0.0997020 0.6458202 0.0009203
v 0.0999398 0.6434357 0.0024563
v 0.1001825 0.6415831 0.0046035
v 0.1004103 0.6404123 0.0071878
v 0.0606757 1.3196535 0.0074794
v 0.0619017 1.3185432 0.0051630
v 0.0629735 1.3167408 0.0032384
v 0.0638045 1.3143923 0.0018616
v 0.0643273 1.3116880 0.0011442
v 0.1044995 0.6488469 0.0011442
v 0.1043071 0.6460993 0.0018616
v 0.1037659 0.6436676 0.0032384
v 0.1029195 0.6417490 0.0051630
v 0.1018366 0.6404988 0.0074794
v 0.0617654 1.3197195 0.0084463
v 0.0639928 1.3186700 0.0070185
v 0.0658967 1.3169180 0.0058322
v 0.0673229 1.3146056 0.0049836
v 0.0681558 1.3119201 0.0045414
v 0.1083280 0.6490790 0.0045414
v 0.1078255 0.6463125 0.0049836
v 0.1066890 0.6438448 0.0058322
v 0.1050106 0.6418757 0.0070185
v 0.1029263 0.6405648 0.0084463
vn -0.0604951 0.9981685 -0.0000000
vn 0.2444967 0.9694766 -0.0183453
vn 0.5046683 0.8626556 -0.0336928
vn 0.7237827 0.6884722 -0.0463095
vn 0.8855700 0.4612067 -0.0552636
vn 0.9782356 0.1986612 -0.0599068
vn 0.9950676 -0.0790671 -0.0599068
vn 0.9347875 -0.3508820 -0.0552636
vn 0.8016309 -0.5960229 -0.0463095
vn 0.6051561 -0.7953935 -0.0336928
vn 0.3597894 -0.9328532 -0.0183453
vn 0.0604951 -0.9981685 0.0000000
vn 0.2131731 0.9675782 0.1354612
vn 0.4471397 0.8591690 0.2487864
vn 0.6447117 0.6836800 0.3419480
vn 0.7912104 0.4554879 0.4080648
vn 0.8759479 0.1924619 0.4423502
vn 0.8927799 -0.0852663 0.4423502
vn 0.8404279 -0.3566008 0.4080648
vn 0.7225599 -0.6008151 0.3419480
vn 0.5476275 -0.7988801 0.2487864
vn 0.3284658 -0.9347516 0.1354612
vn 0.1092836 0.9612818 0.2529711
vn 0.2563375 0.8476053 0.4646035
vn 0.3824610 0.6677861 0.6385807
vn 0.4782526 0.4365208 0.7620525
vn 0.5366956 0.1719012 0.8260798
vn 0.5535276 -0.1058271 0.8260798
vn 0.5274701 -0.3755679 0.7620525
vn 0.4603092 -0.6167091 0.6385807
vn 0.3568254 -0.8104439 0.4646035
vn 0.2245763 -0.9410479 0.2529711
vn -0.0393347 0.9522747 0.3026975
vn -0.0166129 0.8310628 0.5559304
vn 0.0073006 0.6450491 0.7641063
vn 0.0305536 0.4093875 0.9118488
vn 0.0513811 0.1424882 0.9884620
vn 0.0682131 -0.1352401 0.9884620
vn 0.0797711 -0.4027012 0.9118488
vn 0.0851488 -0.6394461 0.7641063
vn 0.0838750 -0.8269863 0.5559304
vn 0.0759581 -0.9500551 0.3026975
vn -0.1928595 0.9429701 0.2713164
vn -0.2985747 0.8139742 0.4982962
vn -0.3802458 0.6215614 0.6848902
vn -0.4319261 0.3813585 0.8173161
vn -0.4499560 0.1121041 0.8859866
vn -0.4331240 -0.1656241 0.8859866
vn -0.3827087 -0.4307303 0.8173161
vn -0.3023976 -0.6629337 0.6848902
vn -0.1980869 -0.8440749 0.4982962
vn -0.0775668 -0.9593596 0.2713164
vn -0.3101541 0.9358614 0.1672362
vn -0.5139965 0.8009183 0.3071440
vn -0.6763352 0.6036166 0.4221583
vn -0.7852655 0.3599440 0.5037841
vn -0.8329828 0.0888904 0.5461118
vn -0.8161508 -0.1888379 0.5461118
vn -0.7360480 -0.4521448 0.5037841
vn -0.5984871 -0.6808785 0.4221583
vn -0.4135087 -0.8571308 0.3071440
vn -0.1948614 -0.9664684 0.1672362
vn -0.3597894 0.9328532 0.0183453
vn -0.6051561 0.7953935 0.0336928
vn -0.8016309 0.5960229 0.0463095
vn -0.9347875 0.3508820 0.0552636
vn -0.9950676 0.0790671 0.0599068
vn -0.9782356 -0.1986612 0.0599068
vn -0.8855700 -0.4612067 0.0552636
vn -0.7237827 -0.6884722 0.0463095
vn -0.5046683 -0.8626556 0.0336928
vn -0.2444967 -0.9694766 0.0183453
vn -0.3284658 0.9347516 -0.1354612
vn -0.5476275 0.7988801 -0.2487864
vn -0.7225599 0.6008151 -0.3419480
vn -0.8404279 0.3566008 -0.4080648
vn -0.8927799 0.0852663 -0.4423502
vn -0.8759479 -0.1924619 -0.4423502
vn -0.7912104 -0.4554879 -0.4080648
vn -0.6447117 -0.6836800 -0.3419480
vn -0.4471397 -0.8591690 -0.2487864
vn -0.2131731 -0.9675782 -0.1354612
vn -0.2245763 0.9410479 -0.2529711
vn -0.3568254 0.8104439 -0.4646035
vn -0.4603092 0.6167091 -0.6385807
vn -0.5274701 0.3755679 -0.7620525
vn -0.5535276 0.1058271 -0.8260798
vn -0.5366956 -0.1719012 -0.8260798
vn -0.4782526 -0.4365208 -0.7620525
vn -0.3824610 -0.6677861 -0.6385807
vn -0.2563375 -0.8476053 -0.4646035
vn -0.1092836 -0.9612818 -0.2529711
vn -0.0759581 0.9500551 -0.3026975
vn -0.0838750 0.8269863 -0.5559304
vn -0.0851488 0.6394461 -0.7641063
vn -0.0797711 0.4027012 -0.9118488
vn -0.0682131 0.1352401 -0.9884620
vn -0.0513811 -0.1424882 -0.9884620
vn -0.0305536 -0.4093875 -0.9118488
vn -0.0073006 -0.6450491 -0.7641063
vn 0.0166129 -0.8310628 -0.5559304
vn 0.0393347 -0.9522747 -0.3026975
vn 0.0775668 0.9593596 -0.2713164
vn 0.1980869 0.8440749 -0.4982962
vn 0.3023976 0.6629337 -0.6848902
vn 0.3827087 0.4307303 -0.8173161
vn 0.4331240 0.1656241 -0.8859866
vn 0.4499560 -0.1121041 -0.8859866
vn 0.4319261 -0.3813585 -0.8173161
vn 0.3802458 -0.6215614 -0.6848902
vn 0.2985747 -0.8139742 -0.4982962
vn 0.1928595 -0.9429701 -0.2713164
vn 0.1948614 0.9664684 -0.1672362
vn 0.4135087 0.8571308 -0.3071440
vn 0.5984871 0.6808785 -0.4221583
vn 0.7360480 0.4521448 -0.5037841
vn 0.8161508 0.1888379 -0.5461118
vn 0.8329828 -0.0888904 -0.5461118
vn 0.7852655 -0.3599440 -0.5037841
vn 0.6763352 -0.6036166 -0.4221583
vn 0.5139965 -0.8009183 -0.3071440
vn 0.3101541 -0.9358614 -0.1672362
f 2//2 1//1 13//13
f 2//2 13//13 3//3
f 3//3 13//13 14//14
f 3//3 14//14 4//4
f 4//4 14//14 15//15
f 4//4 15//15 5//5
f 5//5 15//15 16//16
f 5//5 16//16 6//6
f 6//6 16//16 17//17
f 6//6 17//17 7//7
f 7//7 17//17 18//18
f 7//7 18//18 8//8
f 8//8 18//18 19//19
f 8//8 19//19 9//9
f 9//9 19//19 20//20
f 9//9 20//20 10//10
f 10//10 20//20 21//21
f 10//10 21//21 11//11
f 11//11 21//21 22//22
f 11//11 22//22 12//12
f 13//13 1//1 23//23
f 13//13 23//23 14//14
f 14//14 23//23 24//24
f 14//14 24//24 15//15
f 15//15 24//24 25//25
f 15//15 25//25 16//16
f 16//16 25//25 26//26
f 16//16 26//26 17//17
f 17//17 26//26 27//27
f 17//17 27//27 18//18
f 18//18 27//27 28//28
f 18//18 28//28 19//19
f 19//19 28//28 29//29
f 19//19 29//29 20//20
f 20//20 29//29 30//30
f 20//20 30//30 21//21
f 21//21 30//30 31//31
f 21//21 31//31 22//22
f 22//22 31//31 32//32
f 22//22 32//32 12//12
f 23//23 1//1 33//33
f 23//23 33//33 24//24
f 24//24 33//33 34//34
f 24//24 34//34 25//25
f 25//25 34//34 35//35
f 25//25 35//35 26//26
f 26//26 35//35 36//36
f 26//26 36//36 27//27
f 27//27 36//36 37//37
f 27//27 37//37 28//28
f 28//28 37//37 38//38
f 28//28 38//38 29//29
f 29//29 38//38 39//39
f 29//29 39//39 30//30
f 30//30 39//39 40//40
f 30//30 40//40 31//31
f 31//31 40//40 41//41
f 31//31 41//41 32//32
f 32//32 41//41 42//42
f 32//32 42//42 12//12
f 33//33 1//1 43//43
f 33//33 43//43 34//34
f 34//34 43//43 44//44
f 34//34 44//44 35//35
f 35//35 44//44 45//45
f 35//35 45//45 36//36
f 36//36 45//45 46//46
f 36//36 46//46 37//37
f 37//37 46//46 47//47
f 37//37 47//47 38//38
f 38//38 47//47 48//48
f 38//38 48//48 39//39
f 39//39 48//48 49//49
f 39//39 49//49 40//40
f 40//40 49//49 50//50
f 40//40 50//50 41//41
f 41//41 50//50 51//51
f 41//41 51//51 42//42
f 42//42 51//51 52//52
f 42//42 52//52 12//12
f 43//43 1//1 53//53
f 43//43 53//53 44//44
f 44//44 53//53 54//54
f 44//44 54//54 45//45
f 45//45 54//54 55//55
f 45//45 55//55 46//46
f 46//46 55//55 56//56
f 46//46 56//56 47//47
f 47//47 56//56 57//57
f 47//47 57//57 48//48
f 48//48 57//57 58//58
f 48//48 58//58 49//49
f 49//49 58//58 59//59
f 49//49 59//59 50//50
f 50//50 59//59 60//60
f 50//50 60//60 51//51
f 51//51 60//60 61//61
f 51//51 61//61 52//52
f 52//52 61//61 62//62
f 52//52 62//62 12//12
f 53//53 1//1 63//63
f 53//53 63//63 54//54
f 54//54 63//63 64//64
f 54//54 64//64 55//55
f 55//55 64//64 65//65
f 55//55 65//65 56//56
f 56//56 65//65 66//66
f 56//56 66//66 57//57
f 57//57 66//66 67//67
f 57//57 67//67 58//58
f 58//58 67//67 68//68
f 58//58 68//68 59//59
f 59//59 68//68 69//69
f 59//59 69//69 60//60
f 60//60 69//69 70//70
f 60//60 70//70 61//61
f 61//61 70//70 71//71
f 61//61 71//71 62//62
f 62//62 71//71 72//72
f 62//62 72//72 12//12
f 63//63 1//1 73//73
f 63//63 73//73 64//64
f 64//64 73//73 74//74
f 64//64 74//74 65//65
f 65//65 74//74 75//75
f 65//65 75//75 66//66
f 66//66 75//75 76//76
f 66//66 76//76 67//67
f 67//67 76//76 77//77
f 67//67 77//77 68//68
f 68//68 77//77 78//78
f 68//68 78//78 69//69
f 69//69 78//78 79//79
f 69//69 79//79 70//70
f 70//70 79//79 80//80
f 70//70 80//80 71//71
f 71//71 80//80 81//81
f 71//71 81//81 72//72
f 72//72 81//81 82//82
f 72//72 82//82 12//12
f 73//73 1//1 83//83
f 73//73 83//83 74//74
f 74//74 83//83 84//84
f 74//74 84//84 75//75
f 75//75 84//84 85//85
f 75//75 85//85 76//76
f 76//76 85//85 86//86
f 76//76 86//86 77//77
f 77//77 86//86 87//87
f 77//77 87//87 78//78
f 78//78 87//87 88//88
f 78//78 88//88 79//79
f 79//79 88//88 89//89
f 79//79 89//89 80//80
f 80//80 89//89 90//90
f 80//80 90//90 81//81
f 81//81 90//90 91//91
f 81//81 91//91 82//82
f 82//82 91//91 92//92
f 82//82 92//92 12//12
f 83//83 1//1 93//93
f 83//83 93//93 84//84
f 84//84 93//93 94//94
f 84//84 94//94 85//85
f 85//85 94//94 95//95
f 85//85 95//95 86//86
f 86//86 95//95 96//96
f 86//86 96//96 87//87
f 87//87 96//96 97//97
f 87//87 97//97 88//88
f 88//88 97//97 98//98
f 88//88 98//98 89//89
f 89//89 98//98 99//99
f 89//89 99//99 90//90
f 90//90 99//99 100//100
f 90//90 100//100 91//91
f 91//91 100//100 101//101
f 91//91 101//101 92//92
f 92//92 101//101 102//102
f 92//92 102//102 12//12
f 93//93 1//1 103//103
f 93//93 103//103 94//94
f 94//94 103//103 104//104
f 94//94 104//104 95//95
f 95//95 104//104 105//105
f 95//95 105//105 96//96
f 96//96 105//105 106//106
f 96//96 106//106 97//97
f 97//97 106//106 107//107
f 97//97 107//107 98//98
f 98//98 107//107 108//108
f 98//98 108//108 99//99
f 99//99 108//108 109//109
f 99//99 109//109 100//100
f 100//100 109//109 110//110
f 100//100 110//110 101//101
f 101//101 110//110 111//111
f 101//101 111//111 102//102
f 102//102 111//111 112//112
f 102//102 112//112 12//12
f 103//103 1//1 113//113
f 103//103 113//113 104//104
f 104//104 113//113 114//114
f 104//104 114//114 105//105
f 105//105 114//114 115//115
f 105//105 115//115 106//106
f 106//106 115//115 116//116
f 106//106 116//116 107//107
f 107//107 116//116 117//117
f 107//107 117//117 108//108
f 108//108 117//117 118//118
f 108//108 118//118 109//109
f 109//109 118//118 119//119
f 109//109 119//119 110//110
f 110//110 119//119 120//120
f 110//110 120//120 111//111
f 111//111 120//120 121//121
f 111//111 121//121 112//112
f 112//112 121//121 122//122
f 112//112 122//122 12//12
f 113//113 1//1 2//2
f 113//113 2//2 114//114
f 114//114 2//2 3//3
f 114//114 3//3 115//115
f 115//115 3//3 4//4
f 115//115 4//4 116//116
f 116//116 4//4 5//5
f 116//116 5//5 117//117
f 117//117 5//5 6//6
f 117//117 6//6 118//118
f 118//118 6//6 7//7
f 118//118 7//7 119//119
f 119//119 7//7 8//8
f 119//119 8//8 120//120
f 120//120 8//8 9//9
f 120//120 9//9 121//121
f 121//121 9//9 10//10
f 121//121 10//10 122//122
f 122//122 10//10 11//11
f 122//122 11//11 12//12

