# https://github.com/mikedh/trimesh
v -0.0391791 1.6258209 0.0587313
v -0.0389545 1.6226647 0.0600175
v -0.0392196 1.6192927 0.0604922
v -0.0399530 1.6159780 0.0601169
v -0.0410953 1.6129892 0.0589219
v -0.0425539 1.6105683 0.0570042
v -0.0842107 1.5689115 -0.0054810
v -0.0859314 1.5681530 -0.0083323
v -0.0875767 1.5683543 -0.0113187
v -0.0890132 1.5694991 -0.0141982
v -0.0901246 1.5714946 -0.0167377
v -0.0908209 1.5741791 -0.0187313
v -0.0404763 1.6232862 0.0606178
v -0.0421400 1.6204853 0.0616441
v -0.0440354 1.6176451 0.0617271
v -0.0460089 1.6149957 0.0608600
v -0.0479007 1.6127517 0.0591131
v -0.0895575 1.5710949 -0.0033721
v -0.0908450 1.5701596 -0.0063942
v -0.0916591 1.5700214 -0.0097085
v -0.0919336 1.5706917 -0.0130464
v -0.0916465 1.5721161 -0.0161374
v -0.0417138 1.6245237 0.0606178
v -0.0445147 1.6228600 0.0616441
v -0.0473549 1.6209646 0.0617271
v -0.0500043 1.6189911 0.0608600
v -0.0522483 1.6170993 0.0591131
v -0.0939051 1.5754425 -0.0033721
v -0.0948404 1.5741550 -0.0063942
v -0.0949786 1.5733409 -0.0097085
v -0.0943083 1.5730664 -0.0130464
v -0.0928839 1.5733535 -0.0161374
v -0.0423353 1.6260455 0.0600175
v -0.0457073 1.6257804 0.0604922
v -0.0490220 1.6250470 0.0601169
v -0.0520108 1.6239047 0.0589219
v -0.0544317 1.6224461 0.0570042
v -0.0960885 1.5807893 -0.0054810
v -0.0968470 1.5790686 -0.0083323
v -0.0966457 1.5774233 -0.0113187
v -0.0955009 1.5759868 -0.0141982
v -0.0935054 1.5748754 -0.0167377
v -0.0421742 1.6274440 0.0589779
v -0.0453983 1.6284641 0.0584971
v -0.0485900 1.6287984 0.0573280
v -0.0514909 1.6284200 0.0555652
v -0.0538660 1.6273595 0.0533515
v -0.0955228 1.5857027 -0.0091337
v -0.0963271 1.5835839 -0.0116891
v -0.0962137 1.5811748 -0.0141076
v -0.0951919 1.5786705 -0.0161933
v -0.0933444 1.5762739 -0.0177774
v -0.0412739 1.6283444 0.0577774
v -0.0436705 1.6301919 0.0561933
v -0.0461748 1.6312137 0.0541076
v -0.0485839 1.6313271 0.0516891
v -0.0507027 1.6305228 0.0491337
v -0.0923595 1.5888660 -0.0133515
v -0.0934200 1.5864909 -0.0155652
v -0.0937984 1.5835900 -0.0173280
v -0.0934641 1.5803983 -0.0184971
v -0.0924440 1.5771742 -0.0189779
v -0.0398754 1.6285054 0.0567377
v -0.0409868 1.6305009 0.0541982
v -0.0424233 1.6316457 0.0513187
v -0.0440686 1.6318470 0.0483323
v -0.0457893 1.6310885 0.0454810
v -0.0874461 1.5894317 -0.0170042
v -0.0889047 1.5870108 -0.0189219
v -0.0900470 1.5840220 -0.0201169
v -0.0907804 1.5807073 -0.0204922
v -0.0910455 1.5773353 -0.0200175
v -0.0383535 1.6278839 0.0561374
v -0.0380664 1.6293083 0.0530464
v -0.0383409 1.6299786 0.0497085
v -0.0391550 1.6298404 0.0463942
v -0.0404425 1.6289051 0.0433721
v -0.0820993 1.5872483 -0.0191131
v -0.0839911 1.5850043 -0.0208600
v -0.0859646 1.5823549 -0.0217271
v -0.0878600 1.5795147 -0.0216441
v -0.0895237 1.5767138 -0.0206178
v -0.0371161 1.6266465 0.0561374
v -0.0356917 1.6269336 0.0530464
v -0.0350214 1.6266591 0.0497085
v -0.0351596 1.6258450 0.0463942
v -0.0360949 1.6245575 0.0433721
v -0.0777517 1.5829007 -0.0191131
v -0.0799957 1.5810089 -0.0208600
v -0.0826451 1.5790354 -0.0217271
v -0.0854853 1.5771400 -0.0216441
v -0.0882862 1.5754763 -0.0206178
v -0.0364946 1.6251246 0.0567377
v -0.0344991 1.6240132 0.0541982
v -0.0333543 1.6225767 0.0513187
v -0.0331530 1.6209314 0.0483323
v -0.0339115 1.6192107 0.0454810
v -0.0755683 1.5775539 -0.0170042
v -0.0779892 1.5760953 -0.0189219
v -0.0809780 1.5749530 -0.0201169
v -0.0842927 1.5742196 -0.0204922
v -0.0876647 1.5739545 -0.0200175
v -0.0366556 1.6237261 0.0577774
v -0.0348081 1.6213295 0.0561933
v -0.0337863 1.6188252 0.0541076
v -0.0336729 1.6164161 0.0516891
v -0.0344772 1.6142973 0.0491337
v -0.0761340 1.5726405 -0.0133515
v -0.0785091 1.5715800 -0.0155652
v -0.0814100 1.5712016 -0.0173280
v -0.0846017 1.5715359 -0.0184971
v -0.0878258 1.5725560 -0.0189779
v -0.0375560 1.6228258 0.0589779
v -0.0365359 1.6196017 0.0584971
v -0.0362016 1.6164100 0.0573280
v -0.0365800 1.6135091 0.0555652
v -0.0376405 1.6111340 0.0533515
v -0.0792973 1.5694772 -0.0091337
v -0.0814161 1.5686729 -0.0116891
v -0.0838252 1.5687863 -0.0141076
v -0.0863295 1.5698081 -0.0161933
v -0.0887261 1.5716556 -0.0177774
vn 0.4850713 0.4850713 0.7276069
vn 0.5035313 0.2002784 0.8404432
vn 0.4787286 -0.0782219 0.8744714
vn 0.4163671 -0.3491413 0.8394873
vn 0.3217404 -0.5917816 0.7391060
vn 0.2023547 -0.7879209 0.5815782
vn 0.0673895 -0.9228861 0.3791304
vn -0.0729033 -0.9864253 0.1471405
vn -0.2078479 -0.9733562 -0.0968351
vn -0.3270191 -0.8839696 -0.3341501
vn -0.4209273 -0.7241802 -0.5462447
vn -0.4850713 -0.4850713 -0.7276069
vn 0.3670224 0.2560242 0.8942853
vn 0.2280181 0.0241601 0.9733571
vn 0.0717746 -0.2084209 0.9754020
vn -0.0894802 -0.4238525 0.9013004
vn -0.2434165 -0.6058825 0.7574000
vn -0.3783817 -0.7408477 0.5549522
vn -0.4841239 -0.8184962 0.3093348
vn -0.5524403 -0.8326358 0.0390797
vn -0.5777296 -0.7815876 -0.2352644
vn -0.5574362 -0.6684344 -0.4924026
vn 0.2560242 0.3670224 0.8942853
vn 0.0241601 0.2280181 0.9733571
vn -0.2084209 0.0717746 0.9754020
vn -0.4238525 -0.0894802 0.9013004
vn -0.6058825 -0.2434165 0.7574000
vn -0.7408477 -0.3783817 0.5549522
vn -0.8184962 -0.4841239 0.3093348
vn -0.8326358 -0.5524403 0.0390797
vn -0.7815876 -0.5777296 -0.2352644
vn -0.6684344 -0.5574362 -0.4924026
vn 0.2002784 0.5035313 0.8404432
vn -0.0782219 0.4787286 0.8744714
vn -0.3491413 0.4163671 0.8394873
vn -0.5917816 0.3217404 0.7391060
vn -0.7879209 0.2023547 0.5815782
vn -0.9228861 0.0673895 0.3791304
vn -0.9864253 -0.0729033 0.1471405
vn -0.9733562 -0.2078479 -0.0968351
vn -0.8839696 -0.3270191 -0.3341501
vn -0.7241802 -0.4209273 -0.5462447
vn 0.2147222 0.6289733 0.7471860
vn -0.0516947 0.7091138 0.7031964
vn -0.3126805 0.7330233 0.6040760
vn -0.5482710 0.6996232 0.4581771
vn -0.7407547 0.6119871 0.2770458
vn -0.8757199 0.4770219 0.0745980
vn -0.9429147 0.3049795 -0.1337884
vn -0.9368954 0.1088084 -0.3322464
vn -0.8574423 -0.0966338 -0.5054251
vn -0.7097364 -0.2954853 -0.6395019
vn 0.2954853 0.7097364 0.6395019
vn 0.0966338 0.8574423 0.5054251
vn -0.1088084 0.9368954 0.3322464
vn -0.3049795 0.9429147 0.1337884
vn -0.4770219 0.8757199 -0.0745980
vn -0.6119871 0.7407547 -0.2770458
vn -0.6996232 0.5482710 -0.4581771
vn -0.7330233 0.3126805 -0.6040760
vn -0.7091138 0.0516947 -0.7031964
vn -0.6289733 -0.2147222 -0.7471860
vn 0.4209273 0.7241802 0.5462447
vn 0.3270191 0.8839696 0.3341501
vn 0.2078479 0.9733562 0.0968351
vn 0.0729033 0.9864253 -0.1471405
vn -0.0673895 0.9228861 -0.3791304
vn -0.2023547 0.7879209 -0.5815782
vn -0.3217404 0.5917816 -0.7391060
vn -0.4163671 0.3491413 -0.8394873
vn -0.4787286 0.0782219 -0.8744714
vn -0.5035313 -0.2002784 -0.8404432
vn 0.5574362 0.6684344 0.4924026
vn 0.5777296 0.7815876 0.2352644
vn 0.5524403 0.8326358 -0.0390797
vn 0.4841239 0.8184962 -0.3093348
vn 0.3783817 0.7408477 -0.5549522
vn 0.2434165 0.6058825 -0.7574000
vn 0.0894802 0.4238525 -0.9013004
vn -0.0717746 0.2084209 -0.9754020
vn -0.2280181 -0.0241601 -0.9733571
vn -0.3670224 -0.2560242 -0.8942853
vn 0.6684344 0.5574362 0.4924026
vn 0.7815876 0.5777296 0.2352644
vn 0.8326358 0.5524403 -0.0390797
vn 0.8184962 0.4841239 -0.3093348
vn 0.7408477 0.3783817 -0.5549522
vn 0.6058825 0.2434165 -0.7574000
vn 0.4238525 0.0894802 -0.9013004
vn 0.2084209 -0.0717746 -0.9754020
vn -0.0241601 -0.2280181 -0.9733571
vn -0.2560242 -0.3670224 -0.8942853
vn 0.7241802 0.4209273 0.5462447
vn 0.8839696 0.3270191 0.3341501
vn 0.9733562 0.2078479 0.0968351
vn 0.9864253 0.0729033 -0.1471405
vn 0.9228861 -0.0673895 -0.3791304
vn 0.7879209 -0.2023547 -0.5815782
vn 0.5917816 -0.3217404 -0.7391060
vn 0.3491413 -0.4163671 -0.8394873
vn 0.0782219 -0.4787286 -0.8744714
vn -0.2002784 -0.5035313 -0.8404432
vn 0.7097364 0.2954853 0.6395019
vn 0.8574423 0.0966338 0.5054251
vn 0.9368954 -0.1088084 0.3322464
vn 0.9429147 -0.3049795 0.1337884
vn 0.8757199 -0.4770219 -0.0745980
vn 0.7407547 -0.6119871 -0.2770458
vn 0.5482710 -0.6996232 -0.4581771
vn 0.3126805 -0.7330233 -0.6040760
vn 0.0516947 -0.7091138 -0.7031964
vn -0.2147222 -0.6289733 -0.7471860
vn 0.6289733 0.2147222 0.7471860
vn 0.7091138 -0.0516947 0.7031964
vn 0.7330233 -0.3126805 0.6040760
vn 0.6996232 -0.5482710 0.4581771
vn 0.6119871 -0.7407547 0.2770458
vn 0.4770219 -0.8757199 0.0745980
vn 0.3049795 -0.9429147 -0.1337884
vn 0.1088084 -0.9368954 -0.3322464
vn -0.0966338 -0.8574423 -0.5054251
vn -0.2954853 -0.7097364 -0.6395019
f 2//2 1//1 13//13
f 2//2 13//13 3//3
f 3//3 13//13 14//14
f 3//3 14//14 4//4
f 4//4 14//14 15//15
f 4//4 15//15 5//5
f 5//5 15//15 16//16
f 5//5 16//16 6//6
f 6//6 16//16 17//17
f 6//6 17//17 7//7
f 7//7 17//17 18//18
f 7//7 18//18 8//8
f 8//8 18//18 19//19
f 8//8 19//19 9//9
f 9//9 19//19 20//20
f 9//9 20//20 10//10
f 10//10 20//20 21//21
f 10//10 21//21 11//11
f 11//11 21//21 22//22
f 11//11 22//22 12//12
f 13//13 1//1 23//23
f 13//13 23//23 14//14
f 14//14 23//23 24//24
f 14//14 24//24 15//15
f 15//15 24//24 25//25
f 15//15 25//25 16//16
f 16//16 25//25 26//26
f 16//16 26//26 17//17
f 17//17 26//26 27//27
f 17//17 27//27 18//18
f 18//18 27//27 28//28
f 18//18 28//28 19//19
f 19//19 28//28 29//29
f 19//19 29//29 20//20
f 20//20 29//29 30//30
f 20//20 30//30 21//21
f 21//21 30//30 31//31
f 21//21 31//31 22//22
f 22//22 31//31 32//32
f 22//22 32//32 12//12
f 23//23 1//1 33//33
f 23//23 33//33 24//24
f 24//24 33//33 34//34
f 24//24 34//34 25//25
f 25//25 34//34 35//35
f 25//25 35//35 26//26
f 26//26 35//35 36//36
f 26//26 36//36 27//27
f 27//27 36//36 37//37
f 27//27 37//37 28//28
f 28//28 37//37 38//38
f 28//28 38//38 29//29
f 29//29 38//38 39//39
f 29//29 39//39 30//30
f 30//30 39//39 40//40
f 30//30 40//40 31//31
f 31//31 40//40 41//41
f 31//31 41//41 32//32
f 32//32 41//41 42//42
f 32//32 42//42 12//12
f 33//33 1//1 43//43
f 33//33 43//43 34//34
f 34//34 43//43 44//44
f 34//34 44//44 35//35
f 35//35 44//44 45//45
f 35//35 45//45 36//36
f 36//36 45//45 46//46
f 36//36 46//46 37//37
f 37//37 46//46 47//47
f 37//37 47//47 38//38
f 38//38 47//47 48//48
f 38//38 48//48 39//39
f 39//39 48//48 49//49
f 39//39 49//49 40//40
f 40//40 49//49 50//50
f 40//40 50//50 41//41
f 41//41 50//50 51//51
f 41//41 51//51 42//42
f 42//42 51//51 52//52
f 42//42 52//52 12//12
f 43//43 1//1 53//53
f 43//43 53//53 44//44
f 44//44 53//53 54//54
f 44//44 54//54 45//45
f 45//45 54//54 55//55
f 45//45 55//55 46//46
f 46//46 55//55 56//56
f 46//46 56//56 47//47
f 47//47 56//56 57//57
f 47//47 57//57 48//48
f 48//48 57//57 58//58
f 48//48 58//58 49//49
f 49//49 58//58 59//59
f 49//49 59//59 50//50
f 50//50 59//59 60//60
f 50//50 60//60 51//51
f 51//51 60//60 61//61
f 51//51 61//61 52//52
f 52//52 61//61 62//62
f 52//52 62//62 12//12
f 53//53 1//1 63//63
f 53//53 63//63 54//54
f 54//54 63//63 64//64
f 54//54 64//64 55//55
f 55//55 64//64 65//65
f 55//55 65//65 56//56
f 56//56 65//65 66//66
f 56//56 66//66 57//57
f 57//57 66//66 67//67
f 57//57 67//67 58//58
f 58//58 67//67 68//68
f 58//58 68//68 59//59
f 59//59 68//68 69//69
f 59//59 69//69 60//60
f 60//60 69//69 70//70
f 60//60 70//70 61//61
f 61//61 70//70 71//71
f 61//61 71//71 62//62
f 62//62 71//71 72//72
f 62//62 72//72 12//12
f 63//63 1//1 73//73
f 63//63 73//73 64//64
f 64//64 73//73 74//74
f 64//64 74//74 65//65
f 65//65 74//74 75//75
f 65//65 75//75 66//66
f 66//66 75//75 76//76
f 66//66 76//76 67//67
f 67//67 76//76 77//77
f 67//67 77//77 68//68
f 68//68 77//77 78//78
f 68//68 78//78 69//69
f 69//69 78//78 79//79
f 69//69 79//79 70//70
f 70//70 79//79 80//80
f 70//70 80//80 71//71
f 71//71 80//80 81//81
f 71//71 81//81 72//72
f 72//72 81//81 82//82
f 72//72 82//82 12//12
f 73//73 1//1 83//83
f 73//73 83//83 74//74
f 74//74 83//83 84//84
f 74//74 84//84 75//75
f 75//75 84//84 85//85
f 75//75 85//85 76//76
f 76//76 85//85 86//86
f 76//76 86//86 77//77
f 77//77 86//86 87//87
f 77//77 87//87 78//78
f 78//78 87//87 88//88
f 78//78 88//88 79//79
f 79//79 88//88 89//89
f 79//79 89//89 80//80
f 80//80 89//89 90//90
f 80//80 90//90 81//81
f 81//81 90//90 91//91
f 81//81 91//91 82//82
f 82//82 91//91 92//92
f 82//82 92//92 12//12
f 83//83 1//1 93//93
f 83//83 93//93 84//84
f 84//84 93//93 94//94
f 84//84 94//94 85//85
f 85//85 94//94 95//95
f 85//85 95//95 86//86
f 86//86 95//95 96//96
f 86//86 96//96 87//87
f 87//87 96//96 97//97
f 87//87 97//97 88//88
f 88//88 97//97 98//98
f 88//88 98//98 89//89
f 89//89 98//98 99//99
f 89//89 99//99 90//90
f 90//90 99//99 100//100
f 90//90 100//100 91//91
f 91//91 100//100 101//101
f 91//91 101//101 92//92
f 92//92 101//101 102//102
f 92//92 102//102 12//12
f 93//93 1//1 103//103
f 93//93 103//103 94//94
f 94//94 103//103 104//104
f 94//94 104//104 95//95
f 95//95 104//104 105//105
f 95//95 105//105 96//96
f 96//96 105//105 106//106
f 96//96 106//106 97//97
f 97//97 106//106 107//107
f 97//97 107//107 98//98
f 98//98 107//107 108//108
f 98//98 108//108 99//99
f 99//99 108//108 109//109
f 99//99 109//109 100//100
f 100//100 109//109 110//110
f 100//100 110//110 101//101
f 101//101 110//110 111//111
f 101//101 111//111 102//102
f 102//102 111//111 112//112
f 102//102 112//112 12//12
f 103//103 1//1 113//113
f 103//103 113//113 104//104
f 104//104 113//113 114//114
f 104//104 114//114 105//105
f 105//105 114//114 115//115
f 105//105 115//115 106//106
f 106//106 115//115 116//116
f 106//106 116//116 107//107
f 107//107 116//116 117//117
f 107//107 117//117 108//108
f 108//108 117//117 118//118
f 108//108 118//118 109//109
f 109//109 118//118 119//119
f 109//109 119//119 110//110
f 110//110 119//119 120//120
f 110//110 120//120 111//111
f 111//111 120//120 121//121
f 111//111 121//121 112//112
f 112//112 121//121 122//122
f 112//112 122//122 12//12
f 113//113 1//1 2//2
f 113//113 2//2 114//114
f 114//114 2//2 3//3
f 114//114 3//3 115//115
f 115//115 3//3 4//4
f 115//115 4//4 116//116
f 116//116 4//4 5//5
f 116//116 5//5 117//117
f 117//117 5//5 6//6
f 117//117 6//6 118//118
f 118//118 6//6 7//7
f 118//118 7//7 119//119
f 119//119 7//7 8//8
f 119//119 8//8 120//120
f 120//120 8//8 9//9
f 120//120 9//9 121//121
f 121//121 9//9 10//10
f 121//121 10//10 122//122
f 122//122 10//10 11//11
f 122//122 11//11 12//12

