# https://github.com/mikedh/trimesh
v 0.0000000 1.5828402 0.0974754
v 0.0012997 1.5826689 0.0976277
v 0.0024426 1.5821757 0.0980661
v 0.0032909 1.5814201 0.0987377
v 0.0037423 1.5804932 0.0995616
v 0.0037423 1.4895068 0.1804384
v 0.0032909 1.4885799 0.1812623
v 0.0024426 1.4878243 0.1819339
v 0.0012997 1.4873311 0.1823723
v 0.0000000 1.4871598 0.1825246
v 0.0010515 1.5831764 0.0981986
v 0.0019761 1.5831295 0.0991391
v 0.0026624 1.5827052 0.1001835
v 0.0030276 1.5819546 0.1012057
v 0.0030276 1.4909682 0.1820824
v 0.0026624 1.4898650 0.1827080
v 0.0019761 1.4887782 0.1830070
v 0.0010515 1.4878387 0.1829433
v 0.0004016 1.5834901 0.0985515
v 0.0007548 1.5837190 0.0998023
v 0.0010169 1.5834994 0.1010770
v 0.0011564 1.5828577 0.1022217
v 0.0011564 1.4918714 0.1830985
v 0.0010169 1.4906593 0.1836016
v 0.0007548 1.4893677 0.1836702
v 0.0004016 1.4881523 0.1832962
v -0.0004016 1.5834901 0.0985515
v -0.0007548 1.5837190 0.0998023
v -0.0010169 1.5834994 0.1010770
v -0.0011564 1.5828577 0.1022217
v -0.0011564 1.4918714 0.1830985
v -0.0010169 1.4906593 0.1836016
v -0.0007548 1.4893677 0.1836702
v -0.0004016 1.4881523 0.1832962
v -0.0010515 1.5831764 0.0981986
v -0.0019761 1.5831295 0.0991391
v -0.0026624 1.5827052 0.1001835
v -0.0030276 1.5819546 0.1012057
v -0.0030276 1.4909682 0.1820824
v -0.0026624 1.4898650 0.1827080
v -0.0019761 1.4887782 0.1830070
v -0.0010515 1.4878387 0.1829433
v -0.0012997 1.5826689 0.0976277
v -0.0024426 1.5821757 0.0980661
v -0.0032909 1.5814201 0.0987377
v -0.0037423 1.5804932 0.0995616
v -0.0037423 1.4895068 0.1804384
v -0.0032909 1.4885799 0.1812623
v -0.0024426 1.4878243 0.1819339
v -0.0012997 1.4873311 0.1823723
v -0.0010515 1.5821613 0.0970567
v -0.0019761 1.5812218 0.0969930
v -0.0026624 1.5801350 0.0972920
v -0.0030276 1.5790318 0.0979176
v -0.0030276 1.4880454 0.1787943
v -0.0026624 1.4872948 0.1798165
v -0.0019761 1.4868705 0.1808609
v -0.0010515 1.4868236 0.1818014
v -0.0004016 1.5818477 0.0967038
v -0.0007548 1.5806323 0.0963298
v -0.0010169 1.5793407 0.0963984
v -0.0011564 1.5781286 0.0969015
v -0.0011564 1.4871423 0.1777783
v -0.0010169 1.4865006 0.1789230
v -0.0007548 1.4862810 0.1801977
v -0.0004016 1.4865099 0.1814485
v 0.0004016 1.5818477 0.0967038
v 0.0007548 1.5806323 0.0963298
v 0.0010169 1.5793407 0.0963984
v 0.0011564 1.5781286 0.0969015
v 0.0011564 1.4871423 0.1777783
v 0.0010169 1.4865006 0.1789230
v 0.0007548 1.4862810 0.1801977
v 0.0004016 1.4865099 0.1814485
v 0.0010515 1.5821613 0.0970567
v 0.0019761 1.5812218 0.0969930
v 0.0026624 1.5801350 0.0972920
v 0.0030276 1.5790318 0.0979176
v 0.0030276 1.4880454 0.1787943
v 0.0026624 1.4872948 0.1798165
v 0.0019761 1.4868705 0.1808609
v 0.0010515 1.4868236 0.1818014
vn 0.0000000 0.7474093 -0.6643638
vn 0.3718902 0.6938027 -0.6167135
vn 0.6621602 0.5600804 -0.4978492
vn 0.8741219 0.3630216 -0.3226859
vn 0.9857741 0.1256213 -0.1116634
vn 0.9857741 -0.1256213 0.1116634
vn 0.8741219 -0.3630216 0.3226859
vn 0.6621602 -0.5600804 0.4978492
vn 0.3718902 -0.6938027 0.6167135
vn 0.0000000 -0.7474093 0.6643638
vn 0.3008655 0.8390270 -0.4533361
vn 0.5356989 0.8186561 -0.2069515
vn 0.7071795 0.7043691 0.0613300
vn 0.7975080 0.5105693 0.3214031
vn 0.7975080 0.2593267 0.5447299
vn 0.7071795 -0.0216742 0.7067018
vn 0.5356989 -0.3015046 0.7887469
vn 0.3008655 -0.5485783 0.7800909
vn 0.1149204 0.9287806 -0.3523633
vn 0.2046188 0.9784647 -0.0271668
vn 0.2701185 0.9153334 0.2986649
vn 0.3046210 0.7484802 0.5890530
vn 0.3046210 0.4972377 0.8123797
vn 0.2701185 0.1892902 0.9440367
vn 0.2046188 -0.1416960 0.9685316
vn 0.1149204 -0.4588248 0.8810636
vn -0.1149204 0.9287806 -0.3523633
vn -0.2046188 0.9784647 -0.0271668
vn -0.2701185 0.9153334 0.2986649
vn -0.3046210 0.7484802 0.5890530
vn -0.3046210 0.4972377 0.8123797
vn -0.2701185 0.1892902 0.9440367
vn -0.2046188 -0.1416960 0.9685316
vn -0.1149204 -0.4588248 0.8810636
vn -0.3008655 0.8390270 -0.4533361
vn -0.5356989 0.8186561 -0.2069515
vn -0.7071795 0.7043691 0.0613300
vn -0.7975080 0.5105693 0.3214031
vn -0.7975080 0.2593267 0.5447299
vn -0.7071795 -0.0216742 0.7067018
vn -0.5356989 -0.3015046 0.7887469
vn -0.3008655 -0.5485783 0.7800909
vn -0.3718902 0.6938027 -0.6167135
vn -0.6621602 0.5600804 -0.4978492
vn -0.8741219 0.3630216 -0.3226859
vn -0.9857741 0.1256213 -0.1116634
vn -0.9857741 -0.1256213 0.1116634
vn -0.8741219 -0.3630216 0.3226859
vn -0.6621602 -0.5600804 0.4978492
vn -0.3718902 -0.6938027 0.6167135
vn -0.3008655 0.5485783 -0.7800909
vn -0.5356989 0.3015046 -0.7887469
vn -0.7071795 0.0216742 -0.7067018
vn -0.7975080 -0.2593267 -0.5447299
vn -0.7975080 -0.5105693 -0.3214031
vn -0.7071795 -0.7043691 -0.0613300
vn -0.5356989 -0.8186561 0.2069515
vn -0.3008655 -0.8390270 0.4533361
vn -0.1149204 0.4588248 -0.8810636
vn -0.2046188 0.1416960 -0.9685316
vn -0.2701185 -0.1892902 -0.9440367
vn -0.3046210 -0.4972377 -0.8123797
vn -0.3046210 -0.7484802 -0.5890530
vn -0.2701185 -0.9153334 -0.2986649
vn -0.2046188 -0.9784647 0.0271668
vn -0.1149204 -0.9287806 0.3523633
vn 0.1149204 0.4588248 -0.8810636
vn 0.2046188 0.1416960 -0.9685316
vn 0.2701185 -0.1892902 -0.9440367
vn 0.3046210 -0.4972377 -0.8123797
vn 0.3046210 -0.7484802 -0.5890530
vn 0.2701185 -0.9153334 -0.2986649
vn 0.2046188 -0.9784647 0.0271668
vn 0.1149204 -0.9287806 0.3523633
vn 0.3008655 0.5485783 -0.7800909
vn 0.5356989 0.3015046 -0.7887469
vn 0.7071795 0.0216742 -0.7067018
vn 0.7975080 -0.2593267 -0.5447299
vn 0.7975080 -0.5105693 -0.3214031
vn 0.7071795 -0.7043691 -0.0613300
vn 0.5356989 -0.8186561 0.2069515
vn 0.3008655 -0.8390270 0.4533361
f 2//2 1//1 11//11
f 2//2 11//11 3//3
f 3//3 11//11 12//12
f 3//3 12//12 4//4
f 4//4 12//12 13//13
f 4//4 13//13 5//5
f 5//5 13//13 14//14
f 5//5 14//14 6//6
f 6//6 14//14 15//15
f 6//6 15//15 7//7
f 7//7 15//15 16//16
f 7//7 16//16 8//8
f 8//8 16//16 17//17
f 8//8 17//17 9//9
f 9//9 17//17 18//18
f 9//9 18//18 10//10
f 11//11 1//1 19//19
f 11//11 19//19 12//12
f 12//12 19//19 20//20
f 12//12 20//20 13//13
f 13//13 20//20 21//21
f 13//13 21//21 14//14
f 14//14 21//21 22//22
f 14//14 22//22 15//15
f 15//15 22//22 23//23
f 15//15 23//23 16//16
f 16//16 23//23 24//24
f 16//16 24//24 17//17
f 17//17 24//24 25//25
f 17//17 25//25 18//18
f 18//18 25//25 26//26
f 18//18 26//26 10//10
f 19//19 1//1 27//27
f 19//19 27//27 20//20
f 20//20 27//27 28//28
f 20//20 28//28 21//21
f 21//21 28//28 29//29
f 21//21 29//29 22//22
f 22//22 29//29 30//30
f 22//22 30//30 23//23
f 23//23 30//30 31//31
f 23//23 31//31 24//24
f 24//24 31//31 32//32
f 24//24 32//32 25//25
f 25//25 32//32 33//33
f 25//25 33//33 26//26
f 26//26 33//33 34//34
f 26//26 34//34 10//10
f 27//27 1//1 35//35
f 27//27 35//35 28//28
f 28//28 35//35 36//36
f 28//28 36//36 29//29
f 29//29 36//36 37//37
f 29//29 37//37 30//30
f 30//30 37//37 38//38
f 30//30 38//38 31//31
f 31//31 38//38 39//39
f 31//31 39//39 32//32
f 32//32 39//39 40//40
f 32//32 40//40 33//33
f 33//33 40//40 41//41
f 33//33 41//41 34//34
f 34//34 41//41 42//42
f 34//34 42//42 10//10
f 35//35 1//1 43//43
f 35//35 43//43 36//36
f 36//36 43//43 44//44
f 36//36 44//44 37//37
f 37//37 44//44 45//45
f 37//37 45//45 38//38
f 38//38 45//45 46//46
f 38//38 46//46 39//39
f 39//39 46//46 47//47
f 39//39 47//47 40//40
f 40//40 47//47 48//48
f 40//40 48//48 41//41
f 41//41 48//48 49//49
f 41//41 49//49 42//42
f 42//42 49//49 50//50
f 42//42 50//50 10//10
f 43//43 1//1 51//51
f 43//43 51//51 44//44
f 44//44 51//51 52//52
f 44//44 52//52 45//45
f 45//45 52//52 53//53
f 45//45 53//53 46//46
f 46//46 53//53 54//54
f 46//46 54//54 47//47
f 47//47 54//54 55//55
f 47//47 55//55 48//48
f 48//48 55//55 56//56
f 48//48 56//56 49//49
f 49//49 56//56 57//57
f 49//49 57//57 50//50
f 50//50 57//57 58//58
f 50//50 58//58 10//10
f 51//51 1//1 59//59
f 51//51 59//59 52//52
f 52//52 59//59 60//60
f 52//52 60//60 53//53
f 53//53 60//60 61//61
f 53//53 61//61 54//54
f 54//54 61//61 62//62
f 54//54 62//62 55//55
f 55//55 62//62 63//63
f 55//55 63//63 56//56
f 56//56 63//63 64//64
f 56//56 64//64 57//57
f 57//57 64//64 65//65
f 57//57 65//65 58//58
f 58//58 65//65 66//66
f 58//58 66//66 10//10
f 59//59 1//1 67//67
f 59//59 67//67 60//60
f 60//60 67//67 68//68
f 60//60 68//68 61//61
f 61//61 68//68 69//69
f 61//61 69//69 62//62
f 62//62 69//69 70//70
f 62//62 70//70 63//63
f 63//63 70//70 71//71
f 63//63 71//71 64//64
f 64//64 71//71 72//72
f 64//64 72//72 65//65
f 65//65 72//72 73//73
f 65//65 73//73 66//66
f 66//66 73//73 74//74
f 66//66 74//74 10//10
f 67//67 1//1 75//75
f 67//67 75//75 68//68
f 68//68 75//75 76//76
f 68//68 76//76 69//69
f 69//69 76//76 77//77
f 69//69 77//77 70//70
f 70//70 77//77 78//78
f 70//70 78//78 71//71
f 71//71 78//78 79//79
f 71//71 79//79 72//72
f 72//72 79//79 80//80
f 72//72 80//80 73//73
f 73//73 80//80 81//81
f 73//73 81//81 74//74
f 74//74 81//81 82//82
f 74//74 82//82 10//10
f 75//75 1//1 2//2
f 75//75 2//2 76//76
f 76//76 2//2 3//3
f 76//76 3//3 77//77
f 77//77 3//3 4//4
f 77//77 4//4 78//78
f 78//78 4//4 5//5
f 78//78 5//5 79//79
f 79//79 5//5 6//6
f 79//79 6//6 80//80
f 80//80 6//6 7//7
f 80//80 7//7 81//81
f 81//81 7//7 8//8
f 81//81 8//8 82//82
f 82//82 8//8 9//9
f 82//82 9//9 10//10

