# https://github.com/mikedh/trimesh
v 0.2668399 1.1084270 0.0200000
v 0.2691909 1.1089192 0.0191097
v 0.2716074 1.1086889 0.0182915
v 0.2738937 1.1077547 0.0176117
v 0.2758646 1.1061922 0.0171255
v 0.2773604 1.1041281 0.0168721
v 0.4282598 0.7017295 0.0168721
v 0.4284901 0.6991908 0.0171255
v 0.4280326 0.6967177 0.0176117
v 0.4269243 0.6945105 0.0182915
v 0.4252551 0.6927480 0.0191097
v 0.4231601 0.6915730 0.0200000
v 0.2693099 1.1089639 0.0204160
v 0.2718358 1.1087745 0.0207984
v 0.2742129 1.1078744 0.0211160
v 0.2762488 1.1063363 0.0213433
v 0.2777784 1.1042848 0.0214617
v 0.4286779 0.7018863 0.0214617
v 0.4288743 0.6993349 0.0213433
v 0.4283518 0.6968374 0.0211160
v 0.4271527 0.6945961 0.0207984
v 0.4253741 0.6927926 0.0204160
v 0.2688013 1.1087731 0.0216109
v 0.2708599 1.1084086 0.0230913
v 0.2728488 1.1073628 0.0243213
v 0.2746068 1.1057205 0.0252012
v 0.2759917 1.1036148 0.0256597
v 0.4268912 0.7012163 0.0256597
v 0.4272324 0.6987192 0.0252012
v 0.4269876 0.6963258 0.0243213
v 0.4261768 0.6942302 0.0230913
v 0.4248655 0.6926019 0.0216109
v 0.2678015 1.1083982 0.0223741
v 0.2689412 1.1076891 0.0245560
v 0.2701668 1.1063571 0.0263687
v 0.2713788 1.1045100 0.0276654
v 0.2724791 1.1022976 0.0283412
v 0.4233785 0.6998990 0.0283412
v 0.4240043 0.6975086 0.0276654
v 0.4243056 0.6953201 0.0263687
v 0.4242582 0.6935107 0.0245560
v 0.4238657 0.6922270 0.0223741
v 0.2665783 1.1079395 0.0225012
v 0.2665940 1.1068089 0.0247998
v 0.2668856 1.1051266 0.0267096
v 0.2674295 1.1030290 0.0280757
v 0.2681816 1.1006860 0.0287877
v 0.4190811 0.6982875 0.0287877
v 0.4200550 0.6960277 0.0280757
v 0.4210244 0.6940896 0.0267096
v 0.4219109 0.6926305 0.0247998
v 0.4226425 0.6917683 0.0225012
v 0.2654595 1.1075200 0.0219581
v 0.2644470 1.1060038 0.0237576
v 0.2638844 1.1040012 0.0252526
v 0.2638172 1.1016744 0.0263221
v 0.2642509 1.0992120 0.0268795
v 0.4151504 0.6968135 0.0268795
v 0.4164427 0.6946731 0.0263221
v 0.4180233 0.6929642 0.0252526
v 0.4197639 0.6918253 0.0237576
v 0.4215238 0.6913488 0.0219581
v 0.2647449 1.1072520 0.0208903
v 0.2630757 1.1054895 0.0217085
v 0.2619674 1.1032823 0.0223883
v 0.2615099 1.1008092 0.0228745
v 0.2617402 1.0982705 0.0231279
v 0.4126396 0.6958719 0.0231279
v 0.4141354 0.6938078 0.0228745
v 0.4161063 0.6922453 0.0223883
v 0.4183926 0.6913111 0.0217085
v 0.4208091 0.6910808 0.0208903
v 0.2646259 1.1072074 0.0195840
v 0.2628473 1.1054039 0.0192016
v 0.2616482 1.1031626 0.0188840
v 0.2611257 1.1006651 0.0186567
v 0.2613221 1.0981137 0.0185383
v 0.4122216 0.6957152 0.0185383
v 0.4137512 0.6936637 0.0186567
v 0.4157871 0.6921256 0.0188840
v 0.4181642 0.6912255 0.0192016
v 0.4206901 0.6910361 0.0195840
v 0.2651345 1.1073981 0.0183891
v 0.2638232 1.1057698 0.0169087
v 0.2630124 1.1036742 0.0156787
v 0.2627676 1.1012808 0.0147988
v 0.2631088 1.0987837 0.0143403
v 0.4140083 0.6963852 0.0143403
v 0.4153932 0.6942795 0.0147988
v 0.4171512 0.6926372 0.0156787
v 0.4191401 0.6915914 0.0169087
v 0.4211987 0.6912269 0.0183891
v 0.2661343 1.1077730 0.0176259
v 0.2657418 1.1064893 0.0154440
v 0.2656944 1.1046799 0.0136313
v 0.2659957 1.1024914 0.0123346
v 0.2666215 1.1001010 0.0116588
v 0.4175209 0.6977024 0.0116588
v 0.4186212 0.6954900 0.0123346
v 0.4198332 0.6936429 0.0136313
v 0.4210588 0.6923109 0.0154440
v 0.4221985 0.6916018 0.0176259
v 0.2673575 1.1082317 0.0174988
v 0.2680891 1.1073695 0.0152002
v 0.2689756 1.1059104 0.0132904
v 0.2699450 1.1039723 0.0119243
v 0.2709189 1.1017125 0.0112123
v 0.4218184 0.6993140 0.0112123
v 0.4225705 0.6969710 0.0119243
v 0.4231144 0.6948734 0.0132904
v 0.4234060 0.6931911 0.0152002
v 0.4234217 0.6920605 0.0174988
v 0.2684762 1.1086512 0.0180419
v 0.2702361 1.1081747 0.0162424
v 0.2719767 1.1070358 0.0147474
v 0.2735573 1.1053269 0.0136779
v 0.2748496 1.1031865 0.0131205
v 0.4257491 0.7007880 0.0131205
v 0.4261828 0.6983256 0.0136779
v 0.4261156 0.6959988 0.0147474
v 0.4255530 0.6939962 0.0162424
v 0.4245405 0.6924800 0.0180419
vn -0.3511234 0.9363292 0.0000000
vn -0.0687235 0.9919371 -0.1064792
vn 0.1966613 0.9607712 -0.1955584
vn 0.4452086 0.8541325 -0.2687879
vn 0.6580627 0.6812248 -0.3207590
vn 0.8193390 0.4558312 -0.3477090
vn 0.9170348 0.1953090 -0.3477090
vn 0.9437293 -0.0805528 -0.3207590
vn 0.8970525 -0.3507846 -0.2687879
vn 0.7799094 -0.5945572 -0.1955584
vn 0.6004546 -0.7925380 -0.1064792
vn 0.3511234 -0.9363292 0.0000000
vn -0.0544930 0.9972736 0.0497586
vn 0.2227970 0.9705721 0.0913860
vn 0.4811312 0.8676035 0.1256067
vn 0.7009310 0.6973004 0.1498932
vn 0.8658090 0.4732575 0.1624872
vn 0.9635049 0.2127352 0.1624872
vn 0.9865975 -0.0644772 0.1498932
vn 0.9329751 -0.3373136 0.1256067
vn 0.8060451 -0.5847563 0.0913860
vn 0.6146852 -0.7872015 0.0497586
vn -0.1153139 0.9744657 0.1926636
vn 0.1110939 0.9286834 0.3538435
vn 0.3275994 0.8100290 0.4863451
vn 0.5177133 0.6285938 0.5803816
vn 0.6671975 0.3987781 0.6291450
vn 0.7648933 0.1382559 0.6291450
vn 0.8033799 -0.1331838 0.5803816
vn 0.7794433 -0.3948880 0.4863451
vn 0.6943421 -0.6266449 0.3538435
vn 0.5538642 -0.8100094 0.1926636
vn -0.2348895 0.9296249 0.2839445
vn -0.1085171 0.8463293 0.5214890
vn 0.0257520 0.6968363 0.7167678
vn 0.1575027 0.4935148 0.8553573
vn 0.2767222 0.2523499 0.9272240
vn 0.3744180 -0.0081723 0.9272240
vn 0.4431693 -0.2682628 0.8553573
vn 0.4775959 -0.5080808 0.7167678
vn 0.4747311 -0.7089990 0.5214890
vn 0.4342887 -0.8548502 0.2839445
vn -0.3811795 0.8747661 0.2991428
vn -0.3771914 0.7455764 0.5494019
vn -0.3435312 0.5583551 0.7551331
vn -0.2831827 0.3282578 0.9011406
vn -0.2009894 0.0732081 0.9768541
vn -0.1032936 -0.1873142 0.9768541
vn 0.0024839 -0.4335198 0.9011406
vn 0.1083127 -0.6465620 0.7551331
vn 0.2060567 -0.8097519 0.5494019
vn 0.2879987 -0.9097089 0.2991428
vn -0.5149856 0.8245888 0.2341860
vn -0.6229381 0.6534214 0.4301030
vn -0.6813011 0.4316914 0.5911610
vn -0.6862616 0.1771032 0.7054641
vn -0.6379348 -0.0906465 0.7647368
vn -0.5402389 -0.3511687 0.7647368
vn -0.4005950 -0.5846744 0.7054641
vn -0.2294572 -0.7732257 0.5911610
vn -0.0396899 -0.9019069 0.4301030
vn 0.1541926 -0.9598862 0.2341860
vn -0.6004546 0.7925380 0.1064792
vn -0.7799094 0.5945572 0.1955584
vn -0.8970525 0.3507846 0.2687879
vn -0.9437293 0.0805528 0.3207590
vn -0.9170348 -0.1953090 0.3477090
vn -0.8193390 -0.4558312 0.3477090
vn -0.6580627 -0.6812248 0.3207590
vn -0.4452086 -0.8541325 0.2687879
vn -0.1966613 -0.9607712 0.1955584
vn 0.0687235 -0.9919371 0.1064792
vn -0.6146852 0.7872015 -0.0497586
vn -0.8060451 0.5847563 -0.0913860
vn -0.9329751 0.3373136 -0.1256067
vn -0.9865975 0.0644772 -0.1498932
vn -0.9635049 -0.2127352 -0.1624872
vn -0.8658090 -0.4732575 -0.1624872
vn -0.7009310 -0.6973004 -0.1498932
vn -0.4811312 -0.8676035 -0.1256067
vn -0.2227970 -0.9705721 -0.0913860
vn 0.0544930 -0.9972736 -0.0497586
vn -0.5538642 0.8100094 -0.1926636
vn -0.6943421 0.6266449 -0.3538435
vn -0.7794433 0.3948880 -0.4863451
vn -0.8033799 0.1331838 -0.5803816
vn -0.7648933 -0.1382559 -0.6291450
vn -0.6671975 -0.3987781 -0.6291450
vn -0.5177133 -0.6285938 -0.5803816
vn -0.3275994 -0.8100290 -0.4863451
vn -0.1110939 -0.9286834 -0.3538435
vn 0.1153139 -0.9744657 -0.1926636
vn -0.4342887 0.8548502 -0.2839445
vn -0.4747311 0.7089990 -0.5214890
vn -0.4775959 0.5080808 -0.7167678
vn -0.4431693 0.2682628 -0.8553573
vn -0.3744180 0.0081723 -0.9272240
vn -0.2767222 -0.2523499 -0.9272240
vn -0.1575027 -0.4935148 -0.8553573
vn -0.0257520 -0.6968363 -0.7167678
vn 0.1085171 -0.8463293 -0.5214890
vn 0.2348895 -0.9296249 -0.2839445
vn -0.2879987 0.9097089 -0.2991428
vn -0.2060567 0.8097519 -0.5494019
vn -0.1083127 0.6465620 -0.7551331
vn -0.0024839 0.4335198 -0.9011406
vn 0.1032936 0.1873142 -0.9768541
vn 0.2009894 -0.0732081 -0.9768541
vn 0.2831827 -0.3282578 -0.9011406
vn 0.3435312 -0.5583551 -0.7551331
vn 0.3771914 -0.7455764 -0.5494019
vn 0.3811795 -0.8747661 -0.2991428
vn -0.1541926 0.9598862 -0.2341860
vn 0.0396899 0.9019069 -0.4301030
vn 0.2294572 0.7732257 -0.5911610
vn 0.4005950 0.5846744 -0.7054641
vn 0.5402389 0.3511687 -0.7647368
vn 0.6379348 0.0906465 -0.7647368
vn 0.6862616 -0.1771032 -0.7054641
vn 0.6813011 -0.4316914 -0.5911610
vn 0.6229381 -0.6534214 -0.4301030
vn 0.5149856 -0.8245888 -0.2341860
f 2//2 1//1 13//13
f 2//2 13//13 3//3
f 3//3 13//13 14//14
f 3//3 14//14 4//4
f 4//4 14//14 15//15
f 4//4 15//15 5//5
f 5//5 15//15 16//16
f 5//5 16//16 6//6
f 6//6 16//16 17//17
f 6//6 17//17 7//7
f 7//7 17//17 18//18
f 7//7 18//18 8//8
f 8//8 18//18 19//19
f 8//8 19//19 9//9
f 9//9 19//19 20//20
f 9//9 20//20 10//10
f 10//10 20//20 21//21
f 10//10 21//21 11//11
f 11//11 21//21 22//22
f 11//11 22//22 12//12
f 13//13 1//1 23//23
f 13//13 23//23 14//14
f 14//14 23//23 24//24
f 14//14 24//24 15//15
f 15//15 24//24 25//25
f 15//15 25//25 16//16
f 16//16 25//25 26//26
f 16//16 26//26 17//17
f 17//17 26//26 27//27
f 17//17 27//27 18//18
f 18//18 27//27 28//28
f 18//18 28//28 19//19
f 19//19 28//28 29//29
f 19//19 29//29 20//20
f 20//20 29//29 30//30
f 20//20 30//30 21//21
f 21//21 30//30 31//31
f 21//21 31//31 22//22
f 22//22 31//31 32//32
f 22//22 32//32 12//12
f 23//23 1//1 33//33
f 23//23 33//33 24//24
f 24//24 33//33 34//34
f 24//24 34//34 25//25
f 25//25 34//34 35//35
f 25//25 35//35 26//26
f 26//26 35//35 36//36
f 26//26 36//36 27//27
f 27//27 36//36 37//37
f 27//27 37//37 28//28
f 28//28 37//37 38//38
f 28//28 38//38 29//29
f 29//29 38//38 39//39
f 29//29 39//39 30//30
f 30//30 39//39 40//40
f 30//30 40//40 31//31
f 31//31 40//40 41//41
f 31//31 41//41 32//32
f 32//32 41//41 42//42
f 32//32 42//42 12//12
f 33//33 1//1 43//43
f 33//33 43//43 34//34
f 34//34 43//43 44//44
f 34//34 44//44 35//35
f 35//35 44//44 45//45
f 35//35 45//45 36//36
f 36//36 45//45 46//46
f 36//36 46//46 37//37
f 37//37 46//46 47//47
f 37//37 47//47 38//38
f 38//38 47//47 48//48
f 38//38 48//48 39//39
f 39//39 48//48 49//49
f 39//39 49//49 40//40
f 40//40 49//49 50//50
f 40//40 50//50 41//41
f 41//41 50//50 51//51
f 41//41 51//51 42//42
f 42//42 51//51 52//52
f 42//42 52//52 12//12
f 43//43 1//1 53//53
f 43//43 53//53 44//44
f 44//44 53//53 54//54
f 44//44 54//54 45//45
f 45//45 54//54 55//55
f 45//45 55//55 46//46
f 46//46 55//55 56//56
f 46//46 56//56 47//47
f 47//47 56//56 57//57
f 47//47 57//57 48//48
f 48//48 57//57 58//58
f 48//48 58//58 49//49
f 49//49 58//58 59//59
f 49//49 59//59 50//50
f 50//50 59//59 60//60
f 50//50 60//60 51//51
f 51//51 60//60 61//61
f 51//51 61//61 52//52
f 52//52 61//61 62//62
f 52//52 62//62 12//12
f 53//53 1//1 63//63
f 53//53 63//63 54//54
f 54//54 63//63 64//64
f 54//54 64//64 55//55
f 55//55 64//64 65//65
f 55//55 65//65 56//56
f 56//56 65//65 66//66
f 56//56 66//66 57//57
f 57//57 66//66 67//67
f 57//57 67//67 58//58
f 58//58 67//67 68//68
f 58//58 68//68 59//59
f 59//59 68//68 69//69
f 59//59 69//69 60//60
f 60//60 69//69 70//70
f 60//60 70//70 61//61
f 61//61 70//70 71//71
f 61//61 71//71 62//62
f 62//62 71//71 72//72
f 62//62 72//72 12//12
f 63//63 1//1 73//73
f 63//63 73//73 64//64
f 64//64 73//73 74//74
f 64//64 74//74 65//65
f 65//65 74//74 75//75
f 65//65 75//75 66//66
f 66//66 75//75 76//76
f 66//66 76//76 67//67
f 67//67 76//76 77//77
f 67//67 77//77 68//68
f 68//68 77//77 78//78
f 68//68 78//78 69//69
f 69//69 78//78 79//79
f 69//69 79//79 70//70
f 70//70 79//79 80//80
f 70//70 80//80 71//71
f 71//71 80//80 81//81
f 71//71 81//81 72//72
f 72//72 81//81 82//82
f 72//72 82//82 12//12
f 73//73 1//1 83//83
f 73//73 83//83 74//74
f 74//74 83//83 84//84
f 74//74 84//84 75//75
f 75//75 84//84 85//85
f 75//75 85//85 76//76
f 76//76 85//85 86//86
f 76//76 86//86 77//77
f 77//77 86//86 87//87
f 77//77 87//87 78//78
f 78//78 87//87 88//88
f 78//78 88//88 79//79
f 79//79 88//88 89//89
f 79//79 89//89 80//80
f 80//80 89//89 90//90
f 80//80 90//90 81//81
f 81//81 90//90 91//91
f 81//81 91//91 82//82
f 82//82 91//91 92//92
f 82//82 92//92 12//12
f 83//83 1//1 93//93
f 83//83 93//93 84//84
f 84//84 93//93 94//94
f 84//84 94//94 85//85
f 85//85 94//94 95//95
f 85//85 95//95 86//86
f 86//86 95//95 96//96
f 86//86 96//96 87//87
f 87//87 96//96 97//97
f 87//87 97//97 88//88
f 88//88 97//97 98//98
f 88//88 98//98 89//89
f 89//89 98//98 99//99
f 89//89 99//99 90//90
f 90//90 99//99 100//100
f 90//90 100//100 91//91
f 91//91 100//100 101//101
f 91//91 101//101 92//92
f 92//92 101//101 102//102
f 92//92 102//102 12//12
f 93//93 1//1 103//103
f 93//93 103//103 94//94
f 94//94 103//103 104//104
f 94//94 104//104 95//95
f 95//95 104//104 105//105
f 95//95 105//105 96//96
f 96//96 105//105 106//106
f 96//96 106//106 97//97
f 97//97 106//106 107//107
f 97//97 107//107 98//98
f 98//98 107//107 108//108
f 98//98 108//108 99//99
f 99//99 108//108 109//109
f 99//99 109//109 100//100
f 100//100 109//109 110//110
f 100//100 110//110 101//101
f 101//101 110//110 111//111
f 101//101 111//111 102//102
f 102//102 111//111 112//112
f 102//102 112//112 12//12
f 103//103 1//1 113//113
f 103//103 113//113 104//104
f 104//104 113//113 114//114
f 104//104 114//114 105//105
f 105//105 114//114 115//115
f 105//105 115//115 106//106
f 106//106 115//115 116//116
f 106//106 116//116 107//107
f 107//107 116//116 117//117
f 107//107 117//117 108//108
f 108//108 117//117 118//118
f 108//108 118//118 109//109
f 109//109 118//118 119//119
f 109//109 119//119 110//110
f 110//110 119//119 120//120
f 110//110 120//120 111//111
f 111//111 120//120 121//121
f 111//111 121//121 112//112
f 112//112 121//121 122//122
f 112//112 122//122 12//12
f 113//113 1//1 2//2
f 113//113 2//2 114//114
f 114//114 2//2 3//3
f 114//114 3//3 115//115
f 115//115 3//3 4//4
f 115//115 4//4 116//116
f 116//116 4//4 5//5
f 116//116 5//5 117//117
f 117//117 5//5 6//6
f 117//117 6//6 118//118
f 118//118 6//6 7//7
f 118//118 7//7 119//119
f 119//119 7//7 8//8
f 119//119 8//8 120//120
f 120//120 8//8 9//9
f 120//120 9//9 121//121
f 121//121 9//9 10//10
f 121//121 10//10 122//122
f 122//122 10//10 11//11
f 122//122 11//11 12//12

