# https://github.com/mikedh/trimesh
v -0.1083232 -0.3450952 0.0198137
v -0.1042173 -0.3461626 0.0202936
v -0.1005799 -0.3483510 0.0207498
v -0.0977056 -0.3514832 0.0211452
v -0.0958274 -0.3553053 0.0214479
v -0.0950973 -0.3595078 0.0216332
v -0.1855746 -1.1637501 0.0316862
v -0.1872205 -1.1676887 0.0316027
v -0.1899017 -1.1710043 0.0313892
v -0.1934011 -1.1734285 0.0310633
v -0.1974350 -1.1747647 0.0306512
v -0.2016768 -1.1749048 0.0301863
v -0.1050083 -0.3460481 0.0223299
v -0.1020978 -0.3481314 0.0246574
v -0.0998275 -0.3511762 0.0266076
v -0.0983813 -0.3549358 0.0280225
v -0.0978764 -0.3591057 0.0287874
v -0.1883537 -1.1633481 0.0388404
v -0.1897744 -1.1673192 0.0381773
v -0.1920236 -1.1706973 0.0368516
v -0.1949190 -1.1732089 0.0349709
v -0.1982261 -1.1746503 0.0326875
v -0.1067057 -0.3458401 0.0236940
v -0.1053552 -0.3477322 0.0272751
v -0.1043809 -0.3506182 0.0302668
v -0.1038618 -0.3542642 0.0324267
v -0.1038401 -0.3583749 0.0335799
v -0.1943173 -1.1626172 0.0436329
v -0.1952550 -1.1666476 0.0425815
v -0.1965770 -1.1701393 0.0405108
v -0.1981764 -1.1728097 0.0375886
v -0.1999235 -1.1744423 0.0340516
v -0.1088548 -0.3455943 0.0240204
v -0.1094791 -0.3472604 0.0279014
v -0.1101457 -0.3499587 0.0311423
v -0.1108004 -0.3534704 0.0334805
v -0.1113903 -0.3575112 0.0347266
v -0.2018676 -1.1617535 0.0447796
v -0.2021936 -1.1658538 0.0436353
v -0.2023418 -1.1694799 0.0413863
v -0.2023003 -1.1723379 0.0382149
v -0.2020725 -1.1741964 0.0343779
v -0.1108796 -0.3453765 0.0232216
v -0.1133647 -0.3468425 0.0263686
v -0.1155772 -0.3493744 0.0289996
v -0.1173379 -0.3527672 0.0309015
v -0.1185041 -0.3567459 0.0319202
v -0.2089814 -1.1609883 0.0419732
v -0.2087310 -1.1651506 0.0410563
v -0.2077733 -1.1688956 0.0392436
v -0.2061859 -1.1719199 0.0366820
v -0.2040973 -1.1739786 0.0335792
v -0.1122376 -0.3452451 0.0215117
v -0.1159707 -0.3465903 0.0230873
v -0.1192201 -0.3490219 0.0244127
v -0.1217225 -0.3523429 0.0253806
v -0.1232753 -0.3562843 0.0259127
v -0.2137526 -1.1605266 0.0359657
v -0.2131157 -1.1647263 0.0355354
v -0.2114162 -1.1685431 0.0346567
v -0.2087919 -1.1716678 0.0334007
v -0.2054553 -1.1738472 0.0318692
v -0.1125650 -0.3452353 0.0193488
v -0.1165989 -0.3465715 0.0189367
v -0.1200983 -0.3489957 0.0186108
v -0.1227795 -0.3523113 0.0183973
v -0.1244254 -0.3562499 0.0183138
v -0.2149027 -1.1604922 0.0283668
v -0.2141726 -1.1646947 0.0285521
v -0.2122944 -1.1685168 0.0288548
v -0.2094201 -1.1716490 0.0292502
v -0.2057827 -1.1738374 0.0297064
v -0.1117739 -0.3453497 0.0173125
v -0.1150810 -0.3467911 0.0150291
v -0.1179764 -0.3493027 0.0131484
v -0.1202256 -0.3526808 0.0118227
v -0.1216463 -0.3566519 0.0111596
v -0.2121236 -1.1608943 0.0212126
v -0.2116187 -1.1650642 0.0219775
v -0.2101725 -1.1688238 0.0233924
v -0.2079022 -1.1718686 0.0253426
v -0.2049917 -1.1739519 0.0276701
v -0.1100765 -0.3455577 0.0159484
v -0.1118236 -0.3471903 0.0124114
v -0.1134230 -0.3498607 0.0094892
v -0.1147450 -0.3533524 0.0074185
v -0.1156827 -0.3573828 0.0063671
v -0.2061599 -1.1616251 0.0164201
v -0.2061382 -1.1657358 0.0175733
v -0.2056191 -1.1693818 0.0197332
v -0.2046448 -1.1722678 0.0227249
v -0.2032943 -1.1741599 0.0263060
v -0.1079275 -0.3458036 0.0156221
v -0.1076997 -0.3476621 0.0117851
v -0.1076582 -0.3505201 0.0086137
v -0.1078064 -0.3541462 0.0063647
v -0.1081324 -0.3582465 0.0052204
v -0.1986097 -1.1624888 0.0152734
v -0.1991996 -1.1665296 0.0165195
v -0.1998543 -1.1700413 0.0188577
v -0.2005209 -1.1727396 0.0220986
v -0.2011452 -1.1744057 0.0259796
v -0.1059027 -0.3460214 0.0164208
v -0.1038141 -0.3480801 0.0133180
v -0.1022267 -0.3511044 0.0107564
v -0.1012690 -0.3548494 0.0089437
v -0.1010186 -0.3590117 0.0080268
v -0.1914959 -1.1632541 0.0180798
v -0.1926621 -1.1672328 0.0190985
v -0.1944228 -1.1706256 0.0210004
v -0.1966353 -1.1731575 0.0236314
v -0.1991204 -1.1746235 0.0267784
v -0.1045447 -0.3461528 0.0181308
v -0.1012081 -0.3483322 0.0165993
v -0.0985838 -0.3514569 0.0153433
v -0.0968843 -0.3552737 0.0144646
v -0.0962474 -0.3594734 0.0140343
v -0.1867247 -1.1637157 0.0240873
v -0.1882775 -1.1676571 0.0246194
v -0.1907799 -1.1709781 0.0255873
v -0.1940293 -1.1734097 0.0269127
v -0.1977624 -1.1747549 0.0284883
vn 0.1117861 0.9936547 -0.0124207
vn 0.4060320 0.9135925 0.0220637
vn 0.6429196 0.7641703 0.0519434
vn 0.8279859 0.5553562 0.0775814
vn 0.9477199 0.3039819 0.0970665
vn 0.9936044 0.0295890 0.1089712
vn 0.9625013 -0.2468834 0.1124271
vn 0.8567731 -0.5044344 0.1071717
vn 0.6841337 -0.7233303 0.0935650
vn 0.4572326 -0.8863809 0.0725753
vn 0.1929877 -0.9801347 0.0457353
vn -0.1117861 -0.9936547 0.0124207
vn 0.3492698 0.9218047 0.1681863
vn 0.5386707 0.7792529 0.3203105
vn 0.6846996 0.5760867 0.4464422
vn 0.7767287 0.3287207 0.5372478
vn 0.8082466 0.0564063 0.5861363
vn 0.7771435 -0.2200661 0.5895922
vn 0.6857819 -0.4796956 0.5473530
vn 0.5408473 -0.7025998 0.4624258
vn 0.3529837 -0.8712983 0.3409423
vn 0.1362255 -0.9719224 0.1918579
vn 0.2274635 0.9367315 0.2660722
vn 0.3149628 0.8066672 0.5000864
vn 0.3772211 0.6137667 0.6935378
vn 0.4097982 0.3736863 0.8321202
vn 0.4104868 0.1051499 0.9057837
vn 0.3793836 -0.1713225 0.9092396
vn 0.3188514 -0.4347301 0.8422254
vn 0.2333688 -0.6649198 0.7095214
vn 0.1292758 -0.8438840 0.5207183
vn 0.0144192 -0.9569956 0.2897438
vn 0.0732510 0.9543732 0.2894929
vn 0.0317382 0.8390677 0.5431005
vn -0.0120609 0.6582999 0.7526591
vn -0.0547528 0.4268302 0.9026728
vn -0.0930956 0.1627589 0.9822641
vn -0.1241988 -0.1137135 0.9857200
vn -0.1456997 -0.3815862 0.9127780
vn -0.1559132 -0.6203866 0.7686427
vn -0.1539488 -0.8114836 0.5637324
vn -0.1397933 -0.9393540 0.3131644
vn -0.0720464 0.9700026 0.2321727
vn -0.2351133 0.8677725 0.4378271
vn -0.3788387 0.6977537 0.6079646
vn -0.4924483 0.4739125 0.7300011
vn -0.5675661 0.2137971 0.7950846
vn -0.5986692 -0.0626753 0.7985405
vn -0.5833952 -0.3345038 0.7401063
vn -0.5226909 -0.5809328 0.6239482
vn -0.4208003 -0.7827787 0.4584590
vn -0.2850907 -0.9237245 0.2558443
vn -0.1694966 0.9794320 0.1094707
vn -0.4140891 0.8850904 0.2124741
vn -0.6248344 0.7215565 0.2982251
vn -0.7860081 0.5023177 0.3603723
vn -0.8857907 0.2445888 0.3943998
vn -0.9168938 -0.0318836 0.3978557
vn -0.8769549 -0.3060987 0.3704775
vn -0.7686866 -0.5571300 0.3142087
vn -0.5997761 -0.7654608 0.2331060
vn -0.3825409 -0.9142951 0.1331423
vn -0.1929877 0.9801347 -0.0457353
vn -0.4572326 0.8863809 -0.0725753
vn -0.6841337 0.7233303 -0.0935650
vn -0.8567731 0.5044344 -0.1071717
vn -0.9625013 0.2468834 -0.1124271
vn -0.9936044 -0.0295890 -0.1089712
vn -0.9477199 -0.3039819 -0.0970665
vn -0.8279859 -0.5553562 -0.0775814
vn -0.6429196 -0.7641703 -0.0519434
vn -0.4060320 -0.9135925 -0.0220637
vn -0.1362255 0.9719224 -0.1918579
vn -0.3529837 0.8712983 -0.3409423
vn -0.5408473 0.7025998 -0.4624258
vn -0.6857819 0.4796956 -0.5473530
vn -0.7771435 0.2200661 -0.5895922
vn -0.8082466 -0.0564063 -0.5861363
vn -0.7767287 -0.3287207 -0.5372478
vn -0.6846996 -0.5760867 -0.4464422
vn -0.5386707 -0.7792529 -0.3203105
vn -0.3492698 -0.9218047 -0.1681863
vn -0.0144192 0.9569956 -0.2897438
vn -0.1292758 0.8438840 -0.5207183
vn -0.2333688 0.6649198 -0.7095214
vn -0.3188514 0.4347301 -0.8422254
vn -0.3793836 0.1713225 -0.9092396
vn -0.4104868 -0.1051499 -0.9057837
vn -0.4097982 -0.3736863 -0.8321202
vn -0.3772211 -0.6137667 -0.6935378
vn -0.3149628 -0.8066672 -0.5000864
vn -0.2274635 -0.9367315 -0.2660722
vn 0.1397933 0.9393540 -0.3131644
vn 0.1539488 0.8114836 -0.5637324
vn 0.1559132 0.6203866 -0.7686427
vn 0.1456997 0.3815862 -0.9127780
vn 0.1241988 0.1137135 -0.9857200
vn 0.0930956 -0.1627589 -0.9822641
vn 0.0547528 -0.4268302 -0.9026728
vn 0.0120609 -0.6582999 -0.7526591
vn -0.0317382 -0.8390677 -0.5431005
vn -0.0732510 -0.9543732 -0.2894929
vn 0.2850907 0.9237245 -0.2558443
vn 0.4208003 0.7827787 -0.4584590
vn 0.5226909 0.5809328 -0.6239482
vn 0.5833952 0.3345038 -0.7401063
vn 0.5986692 0.0626753 -0.7985405
vn 0.5675661 -0.2137971 -0.7950846
vn 0.4924483 -0.4739125 -0.7300011
vn 0.3788387 -0.6977537 -0.6079646
vn 0.2351133 -0.8677725 -0.4378271
vn 0.0720464 -0.9700026 -0.2321727
vn 0.3825409 0.9142951 -0.1331423
vn 0.5997761 0.7654608 -0.2331060
vn 0.7686866 0.5571300 -0.3142087
vn 0.8769549 0.3060987 -0.3704775
vn 0.9168938 0.0318836 -0.3978557
vn 0.8857907 -0.2445888 -0.3943998
vn 0.7860081 -0.5023177 -0.3603723
vn 0.6248344 -0.7215565 -0.2982251
vn 0.4140891 -0.8850904 -0.2124741
vn 0.1694966 -0.9794320 -0.1094707
f 2//2 1//1 13//13
f 2//2 13//13 3//3
f 3//3 13//13 14//14
f 3//3 14//14 4//4
f 4//4 14//14 15//15
f 4//4 15//15 5//5
f 5//5 15//15 16//16
f 5//5 16//16 6//6
f 6//6 16//16 17//17
f 6//6 17//17 7//7
f 7//7 17//17 18//18
f 7//7 18//18 8//8
f 8//8 18//18 19//19
f 8//8 19//19 9//9
f 9//9 19//19 20//20
f 9//9 20//20 10//10
f 10//10 20//20 21//21
f 10//10 21//21 11//11
f 11//11 21//21 22//22
f 11//11 22//22 12//12
f 13//13 1//1 23//23
f 13//13 23//23 14//14
f 14//14 23//23 24//24
f 14//14 24//24 15//15
f 15//15 24//24 25//25
f 15//15 25//25 16//16
f 16//16 25//25 26//26
f 16//16 26//26 17//17
f 17//17 26//26 27//27
f 17//17 27//27 18//18
f 18//18 27//27 28//28
f 18//18 28//28 19//19
f 19//19 28//28 29//29
f 19//19 29//29 20//20
f 20//20 29//29 30//30
f 20//20 30//30 21//21
f 21//21 30//30 31//31
f 21//21 31//31 22//22
f 22//22 31//31 32//32
f 22//22 32//32 12//12
f 23//23 1//1 33//33
f 23//23 33//33 24//24
f 24//24 33//33 34//34
f 24//24 34//34 25//25
f 25//25 34//34 35//35
f 25//25 35//35 26//26
f 26//26 35//35 36//36
f 26//26 36//36 27//27
f 27//27 36//36 37//37
f 27//27 37//37 28//28
f 28//28 37//37 38//38
f 28//28 38//38 29//29
f 29//29 38//38 39//39
f 29//29 39//39 30//30
f 30//30 39//39 40//40
f 30//30 40//40 31//31
f 31//31 40//40 41//41
f 31//31 41//41 32//32
f 32//32 41//41 42//42
f 32//32 42//42 12//12
f 33//33 1//1 43//43
f 33//33 43//43 34//34
f 34//34 43//43 44//44
f 34//34 44//44 35//35
f 35//35 44//44 45//45
f 35//35 45//45 36//36
f 36//36 45//45 46//46
f 36//36 46//46 37//37
f 37//37 46//46 47//47
f 37//37 47//47 38//38
f 38//38 47//47 48//48
f 38//38 48//48 39//39
f 39//39 48//48 49//49
f 39//39 49//49 40//40
f 40//40 49//49 50//50
f 40//40 50//50 41//41
f 41//41 50//50 51//51
f 41//41 51//51 42//42
f 42//42 51//51 52//52
f 42//42 52//52 12//12
f 43//43 1//1 53//53
f 43//43 53//53 44//44
f 44//44 53//53 54//54
f 44//44 54//54 45//45
f 45//45 54//54 55//55
f 45//45 55//55 46//46
f 46//46 55//55 56//56
f 46//46 56//56 47//47
f 47//47 56//56 57//57
f 47//47 57//57 48//48
f 48//48 57//57 58//58
f 48//48 58//58 49//49
f 49//49 58//58 59//59
f 49//49 59//59 50//50
f 50//50 59//59 60//60
f 50//50 60//60 51//51
f 51//51 60//60 61//61
f 51//51 61//61 52//52
f 52//52 61//61 62//62
f 52//52 62//62 12//12
f 53//53 1//1 63//63
f 53//53 63//63 54//54
f 54//54 63//63 64//64
f 54//54 64//64 55//55
f 55//55 64//64 65//65
f 55//55 65//65 56//56
f 56//56 65//65 66//66
f 56//56 66//66 57//57
f 57//57 66//66 67//67
f 57//57 67//67 58//58
f 58//58 67//67 68//68
f 58//58 68//68 59//59
f 59//59 68//68 69//69
f 59//59 69//69 60//60
f 60//60 69//69 70//70
f 60//60 70//70 61//61
f 61//61 70//70 71//71
f 61//61 71//71 62//62
f 62//62 71//71 72//72
f 62//62 72//72 12//12
f 63//63 1//1 73//73
f 63//63 73//73 64//64
f 64//64 73//73 74//74
f 64//64 74//74 65//65
f 65//65 74//74 75//75
f 65//65 75//75 66//66
f 66//66 75//75 76//76
f 66//66 76//76 67//67
f 67//67 76//76 77//77
f 67//67 77//77 68//68
f 68//68 77//77 78//78
f 68//68 78//78 69//69
f 69//69 78//78 79//79
f 69//69 79//79 70//70
f 70//70 79//79 80//80
f 70//70 80//80 71//71
f 71//71 80//80 81//81
f 71//71 81//81 72//72
f 72//72 81//81 82//82
f 72//72 82//82 12//12
f 73//73 1//1 83//83
f 73//73 83//83 74//74
f 74//74 83//83 84//84
f 74//74 84//84 75//75
f 75//75 84//84 85//85
f 75//75 85//85 76//76
f 76//76 85//85 86//86
f 76//76 86//86 77//77
f 77//77 86//86 87//87
f 77//77 87//87 78//78
f 78//78 87//87 88//88
f 78//78 88//88 79//79
f 79//79 88//88 89//89
f 79//79 89//89 80//80
f 80//80 89//89 90//90
f 80//80 90//90 81//81
f 81//81 90//90 91//91
f 81//81 91//91 82//82
f 82//82 91//91 92//92
f 82//82 92//92 12//12
f 83//83 1//1 93//93
f 83//83 93//93 84//84
f 84//84 93//93 94//94
f 84//84 94//94 85//85
f 85//85 94//94 95//95
f 85//85 95//95 86//86
f 86//86 95//95 96//96
f 86//86 96//96 87//87
f 87//87 96//96 97//97
f 87//87 97//97 88//88
f 88//88 97//97 98//98
f 88//88 98//98 89//89
f 89//89 98//98 99//99
f 89//89 99//99 90//90
f 90//90 99//99 100//100
f 90//90 100//100 91//91
f 91//91 100//100 101//101
f 91//91 101//101 92//92
f 92//92 101//101 102//102
f 92//92 102//102 12//12
f 93//93 1//1 103//103
f 93//93 103//103 94//94
f 94//94 103//103 104//104
f 94//94 104//104 95//95
f 95//95 104//104 105//105
f 95//95 105//105 96//96
f 96//96 105//105 106//106
f 96//96 106//106 97//97
f 97//97 106//106 107//107
f 97//97 107//107 98//98
f 98//98 107//107 108//108
f 98//98 108//108 99//99
f 99//99 108//108 109//109
f 99//99 109//109 100//100
f 100//100 109//109 110//110
f 100//100 110//110 101//101
f 101//101 110//110 111//111
f 101//101 111//111 102//102
f 102//102 111//111 112//112
f 102//102 112//112 12//12
f 103//103 1//1 113//113
f 103//103 113//113 104//104
f 104//104 113//113 114//114
f 104//104 114//114 105//105
f 105//105 114//114 115//115
f 105//105 115//115 106//106
f 106//106 115//115 116//116
f 106//106 116//116 107//107
f 107//107 116//116 117//117
f 107//107 117//117 108//108
f 108//108 117//117 118//118
f 108//108 118//118 109//109
f 109//109 118//118 119//119
f 109//109 119//119 110//110
f 110//110 119//119 120//120
f 110//110 120//120 111//111
f 111//111 120//120 121//121
f 111//111 121//121 112//112
f 112//112 121//121 122//122
f 112//112 122//122 12//12
f 113//113 1//1 2//2
f 113//113 2//2 114//114
f 114//114 2//2 3//3
f 114//114 3//3 115//115
f 115//115 3//3 4//4
f 115//115 4//4 116//116
f 116//116 4//4 5//5
f 116//116 5//5 117//117
f 117//117 5//5 6//6
f 117//117 6//6 118//118
f 118//118 6//6 7//7
f 118//118 7//7 119//119
f 119//119 7//7 8//8
f 119//119 8//8 120//120
f 120//120 8//8 9//9
f 120//120 9//9 121//121
f 121//121 9//9 10//10
f 121//121 10//10 122//122
f 122//122 10//10 11//11
f 122//122 11//11 12//12

