# https://github.com/mikedh/trimesh
v -0.0229800 1.5847746 -0.0018364
v -0.0216690 1.5842108 -0.0011929
v -0.0206278 1.5833059 -0.0004528
v -0.0199409 1.5821332 0.0003241
v -0.0196638 1.5807876 0.0010746
v -0.0198190 1.5793782 0.0017381
v -0.0753940 1.4480192 0.0522608
v -0.0763421 1.4468207 0.0526004
v -0.0775866 1.4458797 0.0527292
v -0.0790265 1.4452726 0.0526370
v -0.0805454 1.4450484 0.0523311
v -0.0820200 1.4452254 0.0518364
v -0.0220408 1.5845975 -0.0005966
v -0.0213413 1.5840479 0.0006916
v -0.0209382 1.5831704 0.0019237
v -0.0208642 1.5820360 0.0030000
v -0.0211253 1.5807367 0.0038333
v -0.0767003 1.4493777 0.0543560
v -0.0775425 1.4480691 0.0545258
v -0.0785839 1.4469169 0.0543289
v -0.0797400 1.4460146 0.0537814
v -0.0809172 1.4454350 0.0529275
v -0.0226861 1.5849798 -0.0003125
v -0.0225798 1.5847815 0.0012367
v -0.0226695 1.5841959 0.0026857
v -0.0229480 1.5832703 0.0039172
v -0.0233927 1.5820798 0.0048313
v -0.0789677 1.4507208 0.0553539
v -0.0796263 1.4493034 0.0554429
v -0.0803152 1.4479425 0.0550909
v -0.0809785 1.4467482 0.0543265
v -0.0815626 1.4458173 0.0532115
v -0.0234322 1.5852553 -0.0004168
v -0.0240114 1.5853102 0.0010365
v -0.0246707 1.5849349 0.0024058
v -0.0253567 1.5841598 0.0035803
v -0.0260138 1.5830477 0.0044647
v -0.0815888 1.4516887 0.0549874
v -0.0820350 1.4501929 0.0551060
v -0.0823164 1.4486815 0.0548110
v -0.0824101 1.4472769 0.0541262
v -0.0823086 1.4460928 0.0531072
v -0.0240790 1.5853502 -0.0008816
v -0.0252526 1.5854923 0.0001446
v -0.0264057 1.5851895 0.0011591
v -0.0274450 1.5844662 0.0020797
v -0.0282862 1.5833811 0.0028318
v -0.0838612 1.4520221 0.0533545
v -0.0841233 1.4504993 0.0536054
v -0.0840514 1.4489360 0.0535643
v -0.0836513 1.4474589 0.0532343
v -0.0829554 1.4461877 0.0526424
v -0.0244532 1.5852390 -0.0015823
v -0.0259707 1.5852790 -0.0012000
v -0.0274096 1.5848913 -0.0007205
v -0.0286533 1.5841073 -0.0001826
v -0.0296010 1.5829906 0.0003701
v -0.0851760 1.4516316 0.0508928
v -0.0853316 1.4501404 0.0513431
v -0.0850553 1.4486378 0.0516847
v -0.0843695 1.4472456 0.0518898
v -0.0833296 1.4460766 0.0519417
v -0.0244546 1.5849516 -0.0023311
v -0.0259735 1.5847274 -0.0026370
v -0.0274134 1.5841203 -0.0027292
v -0.0286579 1.5831793 -0.0026004
v -0.0296060 1.5819808 -0.0022608
v -0.0851810 1.4506218 0.0482619
v -0.0853362 1.4492124 0.0489254
v -0.0850591 1.4478668 0.0496759
v -0.0843722 1.4466941 0.0504528
v -0.0833310 1.4457892 0.0511929
v -0.0240828 1.5845650 -0.0029275
v -0.0252600 1.5839854 -0.0037814
v -0.0264161 1.5830831 -0.0043289
v -0.0274575 1.5819309 -0.0045258
v -0.0282997 1.5806223 -0.0043560
v -0.0838747 1.4492633 0.0461667
v -0.0841358 1.4479640 0.0470000
v -0.0840618 1.4468296 0.0480763
v -0.0836587 1.4459521 0.0493084
v -0.0829592 1.4454025 0.0505966
v -0.0234374 1.5841827 -0.0032115
v -0.0240215 1.5832518 -0.0043265
v -0.0246848 1.5820575 -0.0050909
v -0.0253737 1.5806966 -0.0054429
v -0.0260323 1.5792792 -0.0053539
v -0.0816073 1.4479202 0.0451687
v -0.0820520 1.4467297 0.0460828
v -0.0823305 1.4458041 0.0473143
v -0.0824202 1.4452185 0.0487633
v -0.0823139 1.4450202 0.0503125
v -0.0226914 1.5839072 -0.0031072
v -0.0225899 1.5827231 -0.0041262
v -0.0226836 1.5813185 -0.0048110
v -0.0229650 1.5798071 -0.0051060
v -0.0234112 1.5783113 -0.0049874
v -0.0789862 1.4469523 0.0455353
v -0.0796433 1.4458402 0.0464197
v -0.0803293 1.4450651 0.0475942
v -0.0809886 1.4446898 0.0489635
v -0.0815678 1.4447447 0.0504168
v -0.0220446 1.5838123 -0.0026424
v -0.0213487 1.5825411 -0.0032343
v -0.0209486 1.5810640 -0.0035643
v -0.0208767 1.5795007 -0.0036054
v -0.0211388 1.5779779 -0.0033545
v -0.0767138 1.4466189 0.0471682
v -0.0775550 1.4455338 0.0479203
v -0.0785943 1.4448105 0.0488409
v -0.0797474 1.4445077 0.0498554
v -0.0809210 1.4446498 0.0508816
v -0.0216704 1.5839234 -0.0019417
v -0.0206305 1.5827544 -0.0018898
v -0.0199447 1.5813622 -0.0016847
v -0.0196684 1.5798596 -0.0013431
v -0.0198240 1.5783684 -0.0008928
v -0.0753990 1.4470094 0.0496299
v -0.0763467 1.4458927 0.0501826
v -0.0775904 1.4451087 0.0507205
v -0.0790293 1.4447210 0.0512000
v -0.0805468 1.4447610 0.0515823
vn 0.3672793 0.8681147 -0.3338903
vn 0.6225696 0.7547486 -0.2067889
vn 0.8056693 0.5878808 -0.0727548
vn 0.9244108 0.3755877 0.0663217
vn 0.9705443 0.1347802 0.1996947
vn 0.9412263 -0.1159350 0.3172573
vn 0.8390353 -0.3574774 0.4101582
vn 0.6717337 -0.5714996 0.4713407
vn 0.4517767 -0.7415475 0.4959891
vn 0.1955848 -0.8541372 0.4818675
vn -0.0773987 -0.8997220 0.4295459
vn -0.3672793 -0.8681147 0.3338903
vn 0.5498067 0.8304203 -0.0900817
vn 0.6720339 0.7268585 0.1415883
vn 0.7407338 0.5666075 0.3609285
vn 0.7513527 0.3627344 0.5512648
vn 0.7036183 0.1311718 0.6983662
vn 0.6014273 -0.1103706 0.7912671
vn 0.4525421 -0.3435454 0.8229108
vn 0.2680996 -0.5505277 0.7905959
vn 0.0619494 -0.7151595 0.6962106
vn -0.1501616 -0.8240503 0.5462532
vn 0.4235015 0.9052386 -0.0344898
vn 0.4400634 0.8642688 0.2436877
vn 0.4218987 0.7554731 0.5012603
vn 0.3708698 0.5881177 0.7187302
vn 0.2911673 0.3754918 0.8799020
vn 0.1889763 0.1339494 0.9728029
vn 0.0720591 -0.1181620 0.9903763
vn -0.0507354 -0.3616621 0.9309277
vn -0.1700212 -0.5777491 0.7983099
vn -0.2764668 -0.7492320 0.6018451
vn 0.2774975 0.9591560 -0.0549091
vn 0.1719141 0.9632928 0.2061858
vn 0.0533372 0.8915780 0.4497154
vn -0.0689544 0.7505389 0.6572189
vn -0.1856107 0.5515595 0.8132224
vn -0.2878017 0.3100172 0.9061234
vn -0.3677650 0.0442592 0.9288649
vn -0.4192970 -0.2255572 0.8793827
vn -0.4381705 -0.4787251 0.7608081
vn -0.4224709 -0.6953147 0.5814257
vn 0.1509161 0.9777253 -0.1458683
vn -0.0605637 0.9973970 0.0391313
vn -0.2661951 0.9384530 0.2201050
vn -0.4502692 0.8064774 0.3832125
vn -0.5989634 0.6121979 0.5161942
vn -0.7011544 0.3706555 0.6090952
vn -0.7490799 0.1001977 0.6548586
vn -0.7388292 -0.1786822 0.6497724
vn -0.6706482 -0.4446209 0.5937536
vn -0.5490522 -0.6767453 0.4904665
vn 0.0776749 0.9559710 -0.2829949
vn -0.1950776 0.9574433 -0.2127137
vn -0.4510795 0.8835380 -0.1260469
vn -0.6709018 0.7409444 -0.0298690
vn -0.8381334 0.5411589 0.0684058
vn -0.9403244 0.2996165 0.1613067
vn -0.9697124 0.0346647 0.2417771
vn -0.9237137 -0.2335972 0.3036205
vn -0.8051621 -0.4845746 0.3419086
vn -0.6222934 -0.6984996 0.3533400
vn 0.0773987 0.8997220 -0.4295459
vn -0.1955848 0.8541372 -0.4818675
vn -0.4517767 0.7415475 -0.4959891
vn -0.6717337 0.5714996 -0.4713407
vn -0.8390353 0.3574774 -0.4101582
vn -0.9412263 0.1159350 -0.3172573
vn -0.9705443 -0.1347802 -0.1996947
vn -0.9244108 -0.3755877 -0.0663217
vn -0.8056693 -0.5878808 0.0727548
vn -0.6225696 -0.7547486 0.2067889
vn 0.1501616 0.8240503 -0.5462532
vn -0.0619494 0.7151595 -0.6962106
vn -0.2680996 0.5505277 -0.7905959
vn -0.4525421 0.3435454 -0.8229108
vn -0.6014273 0.1103706 -0.7912671
vn -0.7036183 -0.1311718 -0.6983662
vn -0.7513527 -0.3627344 -0.5512648
vn -0.7407338 -0.5666075 -0.3609285
vn -0.6720339 -0.7268585 -0.1415883
vn -0.5498067 -0.8304203 0.0900817
vn 0.2764668 0.7492320 -0.6018451
vn 0.1700212 0.5777491 -0.7983099
vn 0.0507354 0.3616621 -0.9309277
vn -0.0720591 0.1181620 -0.9903763
vn -0.1889763 -0.1339494 -0.9728029
vn -0.2911673 -0.3754918 -0.8799020
vn -0.3708698 -0.5881177 -0.7187302
vn -0.4218987 -0.7554731 -0.5012603
vn -0.4400634 -0.8642688 -0.2436877
vn -0.4235015 -0.9052386 0.0344898
vn 0.4224709 0.6953147 -0.5814257
vn 0.4381705 0.4787251 -0.7608081
vn 0.4192970 0.2255572 -0.8793827
vn 0.3677650 -0.0442592 -0.9288649
vn 0.2878017 -0.3100172 -0.9061234
vn 0.1856107 -0.5515595 -0.8132224
vn 0.0689544 -0.7505389 -0.6572189
vn -0.0533372 -0.8915780 -0.4497154
vn -0.1719141 -0.9632928 -0.2061858
vn -0.2774975 -0.9591560 0.0549091
vn 0.5490522 0.6767453 -0.4904665
vn 0.6706482 0.4446209 -0.5937536
vn 0.7388292 0.1786822 -0.6497724
vn 0.7490799 -0.1001977 -0.6548586
vn 0.7011544 -0.3706555 -0.6090952
vn 0.5989634 -0.6121979 -0.5161942
vn 0.4502692 -0.8064774 -0.3832125
vn 0.2661951 -0.9384530 -0.2201050
vn 0.0605637 -0.9973970 -0.0391313
vn -0.1509161 -0.9777253 0.1458683
vn 0.6222934 0.6984996 -0.3533400
vn 0.8051621 0.4845746 -0.3419086
vn 0.9237137 0.2335972 -0.3036205
vn 0.9697124 -0.0346647 -0.2417771
vn 0.9403244 -0.2996165 -0.1613067
vn 0.8381334 -0.5411589 -0.0684058
vn 0.6709018 -0.7409444 0.0298690
vn 0.4510795 -0.8835380 0.1260469
vn 0.1950776 -0.9574433 0.2127137
vn -0.0776749 -0.9559710 0.2829949
f 2//2 1//1 13//13
f 2//2 13//13 3//3
f 3//3 13//13 14//14
f 3//3 14//14 4//4
f 4//4 14//14 15//15
f 4//4 15//15 5//5
f 5//5 15//15 16//16
f 5//5 16//16 6//6
f 6//6 16//16 17//17
f 6//6 17//17 7//7
f 7//7 17//17 18//18
f 7//7 18//18 8//8
f 8//8 18//18 19//19
f 8//8 19//19 9//9
f 9//9 19//19 20//20
f 9//9 20//20 10//10
f 10//10 20//20 21//21
f 10//10 21//21 11//11
f 11//11 21//21 22//22
f 11//11 22//22 12//12
f 13//13 1//1 23//23
f 13//13 23//23 14//14
f 14//14 23//23 24//24
f 14//14 24//24 15//15
f 15//15 24//24 25//25
f 15//15 25//25 16//16
f 16//16 25//25 26//26
f 16//16 26//26 17//17
f 17//17 26//26 27//27
f 17//17 27//27 18//18
f 18//18 27//27 28//28
f 18//18 28//28 19//19
f 19//19 28//28 29//29
f 19//19 29//29 20//20
f 20//20 29//29 30//30
f 20//20 30//30 21//21
f 21//21 30//30 31//31
f 21//21 31//31 22//22
f 22//22 31//31 32//32
f 22//22 32//32 12//12
f 23//23 1//1 33//33
f 23//23 33//33 24//24
f 24//24 33//33 34//34
f 24//24 34//34 25//25
f 25//25 34//34 35//35
f 25//25 35//35 26//26
f 26//26 35//35 36//36
f 26//26 36//36 27//27
f 27//27 36//36 37//37
f 27//27 37//37 28//28
f 28//28 37//37 38//38
f 28//28 38//38 29//29
f 29//29 38//38 39//39
f 29//29 39//39 30//30
f 30//30 39//39 40//40
f 30//30 40//40 31//31
f 31//31 40//40 41//41
f 31//31 41//41 32//32
f 32//32 41//41 42//42
f 32//32 42//42 12//12
f 33//33 1//1 43//43
f 33//33 43//43 34//34
f 34//34 43//43 44//44
f 34//34 44//44 35//35
f 35//35 44//44 45//45
f 35//35 45//45 36//36
f 36//36 45//45 46//46
f 36//36 46//46 37//37
f 37//37 46//46 47//47
f 37//37 47//47 38//38
f 38//38 47//47 48//48
f 38//38 48//48 39//39
f 39//39 48//48 49//49
f 39//39 49//49 40//40
f 40//40 49//49 50//50
f 40//40 50//50 41//41
f 41//41 50//50 51//51
f 41//41 51//51 42//42
f 42//42 51//51 52//52
f 42//42 52//52 12//12
f 43//43 1//1 53//53
f 43//43 53//53 44//44
f 44//44 53//53 54//54
f 44//44 54//54 45//45
f 45//45 54//54 55//55
f 45//45 55//55 46//46
f 46//46 55//55 56//56
f 46//46 56//56 47//47
f 47//47 56//56 57//57
f 47//47 57//57 48//48
f 48//48 57//57 58//58
f 48//48 58//58 49//49
f 49//49 58//58 59//59
f 49//49 59//59 50//50
f 50//50 59//59 60//60
f 50//50 60//60 51//51
f 51//51 60//60 61//61
f 51//51 61//61 52//52
f 52//52 61//61 62//62
f 52//52 62//62 12//12
f 53//53 1//1 63//63
f 53//53 63//63 54//54
f 54//54 63//63 64//64
f 54//54 64//64 55//55
f 55//55 64//64 65//65
f 55//55 65//65 56//56
f 56//56 65//65 66//66
f 56//56 66//66 57//57
f 57//57 66//66 67//67
f 57//57 67//67 58//58
f 58//58 67//67 68//68
f 58//58 68//68 59//59
f 59//59 68//68 69//69
f 59//59 69//69 60//60
f 60//60 69//69 70//70
f 60//60 70//70 61//61
f 61//61 70//70 71//71
f 61//61 71//71 62//62
f 62//62 71//71 72//72
f 62//62 72//72 12//12
f 63//63 1//1 73//73
f 63//63 73//73 64//64
f 64//64 73//73 74//74
f 64//64 74//74 65//65
f 65//65 74//74 75//75
f 65//65 75//75 66//66
f 66//66 75//75 76//76
f 66//66 76//76 67//67
f 67//67 76//76 77//77
f 67//67 77//77 68//68
f 68//68 77//77 78//78
f 68//68 78//78 69//69
f 69//69 78//78 79//79
f 69//69 79//79 70//70
f 70//70 79//79 80//80
f 70//70 80//80 71//71
f 71//71 80//80 81//81
f 71//71 81//81 72//72
f 72//72 81//81 82//82
f 72//72 82//82 12//12
f 73//73 1//1 83//83
f 73//73 83//83 74//74
f 74//74 83//83 84//84
f 74//74 84//84 75//75
f 75//75 84//84 85//85
f 75//75 85//85 76//76
f 76//76 85//85 86//86
f 76//76 86//86 77//77
f 77//77 86//86 87//87
f 77//77 87//87 78//78
f 78//78 87//87 88//88
f 78//78 88//88 79//79
f 79//79 88//88 89//89
f 79//79 89//89 80//80
f 80//80 89//89 90//90
f 80//80 90//90 81//81
f 81//81 90//90 91//91
f 81//81 91//91 82//82
f 82//82 91//91 92//92
f 82//82 92//92 12//12
f 83//83 1//1 93//93
f 83//83 93//93 84//84
f 84//84 93//93 94//94
f 84//84 94//94 85//85
f 85//85 94//94 95//95
f 85//85 95//95 86//86
f 86//86 95//95 96//96
f 86//86 96//96 87//87
f 87//87 96//96 97//97
f 87//87 97//97 88//88
f 88//88 97//97 98//98
f 88//88 98//98 89//89
f 89//89 98//98 99//99
f 89//89 99//99 90//90
f 90//90 99//99 100//100
f 90//90 100//100 91//91
f 91//91 100//100 101//101
f 91//91 101//101 92//92
f 92//92 101//101 102//102
f 92//92 102//102 12//12
f 93//93 1//1 103//103
f 93//93 103//103 94//94
f 94//94 103//103 104//104
f 94//94 104//104 95//95
f 95//95 104//104 105//105
f 95//95 105//105 96//96
f 96//96 105//105 106//106
f 96//96 106//106 97//97
f 97//97 106//106 107//107
f 97//97 107//107 98//98
f 98//98 107//107 108//108
f 98//98 108//108 99//99
f 99//99 108//108 109//109
f 99//99 109//109 100//100
f 100//100 109//109 110//110
f 100//100 110//110 101//101
f 101//101 110//110 111//111
f 101//101 111//111 102//102
f 102//102 111//111 112//112
f 102//102 112//112 12//12
f 103//103 1//1 113//113
f 103//103 113//113 104//104
f 104//104 113//113 114//114
f 104//104 114//114 105//105
f 105//105 114//114 115//115
f 105//105 115//115 106//106
f 106//106 115//115 116//116
f 106//106 116//116 107//107
f 107//107 116//116 117//117
f 107//107 117//117 108//108
f 108//108 117//117 118//118
f 108//108 118//118 109//109
f 109//109 118//118 119//119
f 109//109 119//119 110//110
f 110//110 119//119 120//120
f 110//110 120//120 111//111
f 111//111 120//120 121//121
f 111//111 121//121 112//112
f 112//112 121//121 122//122
f 112//112 122//122 12//12
f 113//113 1//1 2//2
f 113//113 2//2 114//114
f 114//114 2//2 3//3
f 114//114 3//3 115//115
f 115//115 3//3 4//4
f 115//115 4//4 116//116
f 116//116 4//4 5//5
f 116//116 5//5 117//117
f 117//117 5//5 6//6
f 117//117 6//6 118//118
f 118//118 6//6 7//7
f 118//118 7//7 119//119
f 119//119 7//7 8//8
f 119//119 8//8 120//120
f 120//120 8//8 9//9
f 120//120 9//9 121//121
f 121//121 9//9 10//10
f 121//121 10//10 122//122
f 122//122 10//10 11//11
f 122//122 11//11 12//12

