# https://github.com/mikedh/trimesh
v -0.1298812 -0.8640015 0.0299406
v -0.1281963 -0.8642776 0.0299765
v -0.1266575 -0.8650173 0.0300143
v -0.1253895 -0.8661607 0.0300509
v -0.1244950 -0.8676151 0.0300834
v -0.1240465 -0.8692627 0.0301091
v -0.1440803 -1.8809701 0.0401260
v -0.1445937 -1.8825988 0.0401327
v -0.1455450 -1.8840171 0.0401287
v -0.1468573 -1.8851099 0.0401142
v -0.1484242 -1.8857887 0.0400905
v -0.1501188 -1.8859985 0.0400594
v -0.1284392 -0.8642644 0.0308170
v -0.1271237 -0.8649921 0.0316272
v -0.1260412 -0.8661254 0.0323055
v -0.1252794 -0.8675727 0.0327971
v -0.1249000 -0.8692166 0.0330621
v -0.1449338 -1.8809239 0.0430790
v -0.1453781 -1.8825564 0.0428465
v -0.1461968 -1.8839818 0.0423833
v -0.1473236 -1.8850847 0.0417271
v -0.1486672 -1.8857755 0.0409310
v -0.1290698 -0.8642460 0.0314233
v -0.1283338 -0.8649566 0.0327907
v -0.1277328 -0.8660758 0.0339320
v -0.1273155 -0.8675130 0.0347548
v -0.1271156 -0.8691516 0.0351923
v -0.1471494 -1.8808590 0.0452092
v -0.1474141 -1.8824967 0.0448041
v -0.1478884 -1.8839322 0.0440098
v -0.1485337 -1.8850492 0.0428906
v -0.1492978 -1.8857571 0.0415373
v -0.1299192 -0.8642271 0.0316330
v -0.1299636 -0.8649203 0.0331931
v -0.1300111 -0.8660252 0.0344945
v -0.1300576 -0.8674520 0.0354318
v -0.1300995 -0.8690852 0.0359290
v -0.1501333 -1.8807926 0.0459459
v -0.1501563 -1.8824357 0.0454811
v -0.1501667 -1.8838816 0.0445723
v -0.1501635 -1.8850129 0.0432930
v -0.1501471 -1.8857382 0.0417470
v -0.1307596 -0.8642128 0.0313898
v -0.1315764 -0.8648930 0.0327265
v -0.1322655 -0.8659870 0.0338422
v -0.1327711 -0.8674060 0.0346467
v -0.1330522 -0.8690352 0.0350748
v -0.1530860 -1.8807426 0.0450917
v -0.1528698 -1.8823898 0.0446961
v -0.1524211 -1.8838434 0.0439200
v -0.1517763 -1.8849856 0.0428264
v -0.1509875 -1.8857239 0.0415038
v -0.1313660 -0.8642071 0.0307590
v -0.1327400 -0.8648820 0.0315159
v -0.1338921 -0.8659715 0.0321501
v -0.1347289 -0.8673874 0.0326100
v -0.1351826 -0.8690150 0.0328585
v -0.1552164 -1.8807223 0.0428754
v -0.1548276 -1.8823712 0.0426593
v -0.1540477 -1.8838279 0.0422278
v -0.1529399 -1.8849745 0.0416159
v -0.1515939 -1.8857182 0.0408730
v -0.1315758 -0.8642113 0.0299095
v -0.1331427 -0.8648901 0.0298858
v -0.1344550 -0.8659829 0.0298713
v -0.1354063 -0.8674012 0.0298673
v -0.1359197 -0.8690299 0.0298740
v -0.1559535 -1.8807373 0.0398909
v -0.1555050 -1.8823849 0.0399166
v -0.1546105 -1.8838393 0.0399491
v -0.1533425 -1.8849827 0.0399857
v -0.1518037 -1.8857224 0.0400235
v -0.1313328 -0.8642245 0.0290690
v -0.1326764 -0.8649153 0.0282729
v -0.1338032 -0.8660182 0.0276167
v -0.1346219 -0.8674436 0.0271535
v -0.1350662 -0.8690761 0.0269210
v -0.1551000 -1.8807834 0.0369379
v -0.1547206 -1.8824273 0.0372029
v -0.1539588 -1.8838746 0.0376945
v -0.1528763 -1.8850079 0.0383728
v -0.1515608 -1.8857356 0.0391830
v -0.1307022 -0.8642429 0.0284627
v -0.1314663 -0.8649508 0.0271094
v -0.1321116 -0.8660678 0.0259902
v -0.1325859 -0.8675033 0.0251959
v -0.1328506 -0.8691410 0.0247908
v -0.1528844 -1.8808484 0.0348077
v -0.1526845 -1.8824870 0.0352452
v -0.1522672 -1.8839242 0.0360680
v -0.1516662 -1.8850434 0.0372093
v -0.1509302 -1.8857540 0.0385767
v -0.1298529 -0.8642618 0.0282530
v -0.1298365 -0.8649871 0.0267070
v -0.1298333 -0.8661184 0.0254277
v -0.1298437 -0.8675643 0.0245189
v -0.1298667 -0.8692074 0.0240541
v -0.1499005 -1.8809148 0.0340710
v -0.1499424 -1.8825480 0.0345682
v -0.1499889 -1.8839748 0.0355055
v -0.1500364 -1.8850797 0.0368069
v -0.1500808 -1.8857729 0.0383670
v -0.1290125 -0.8642761 0.0284962
v -0.1282237 -0.8650144 0.0271736
v -0.1275789 -0.8661566 0.0260800
v -0.1271302 -0.8676102 0.0253039
v -0.1269140 -0.8692574 0.0249083
v -0.1469478 -1.8809648 0.0349252
v -0.1472289 -1.8825940 0.0353533
v -0.1477345 -1.8840130 0.0361578
v -0.1484236 -1.8851070 0.0372735
v -0.1492404 -1.8857872 0.0386102
v -0.1284061 -0.8642818 0.0291270
v -0.1270601 -0.8650255 0.0283841
v -0.1259523 -0.8661721 0.0277722
v -0.1251724 -0.8676288 0.0273407
v -0.1247836 -0.8692777 0.0271246
v -0.1448174 -1.8809850 0.0371415
v -0.1452711 -1.8826126 0.0373900
v -0.1461079 -1.8840285 0.0378499
v -0.1472600 -1.8851180 0.0384841
v -0.1486340 -1.8857929 0.0392410
vn 0.0197971 0.9997550 -0.0098986
vn 0.3220001 0.9467334 -0.0034289
vn 0.5731768 0.8194270 0.0028048
vn 0.7779492 0.6282657 0.0087859
vn 0.9212207 0.3887863 0.0140585
vn 0.9926455 0.1196771 0.0182275
vn 0.9871372 -0.1584926 0.0209817
vn 0.9051142 -0.4245932 0.0221117
vn 0.7524732 -0.6582710 0.0215239
vn 0.5402919 -0.8412575 0.0192472
vn 0.2842703 -0.9586199 0.0154360
vn -0.0197971 -0.9997550 0.0098986
vn 0.2784161 0.9490894 0.1473561
vn 0.4931309 0.8237539 0.2797346
vn 0.6679290 0.6342130 0.3894159
vn 0.7899277 0.3958834 0.4682846
vn 0.8503214 0.1273706 0.5106176
vn 0.8448131 -0.1507991 0.5133717
vn 0.7738212 -0.4174961 0.4763379
vn 0.6424531 -0.6523238 0.4021539
vn 0.4602460 -0.8369306 0.2961770
vn 0.2406863 -0.9562639 0.1662210
vn 0.1652855 0.9524066 0.2561297
vn 0.2853567 0.8298462 0.4795069
vn 0.3823509 0.6425866 0.6639957
vn 0.4491321 0.4058761 0.7959553
vn 0.4808923 0.1382029 0.8658190
vn 0.4753840 -0.1399668 0.8685732
vn 0.4330256 -0.4075034 0.8040086
vn 0.3568750 -0.6439502 0.6767337
vn 0.2524718 -0.8308383 0.4959493
vn 0.1275557 -0.9529468 0.2749946
vn 0.0129216 0.9557961 0.2937462
vn 0.0055271 0.8360714 0.5485928
vn -0.0022647 0.6511429 0.7589518
vn -0.0098502 0.4160868 0.9092715
vn -0.0166535 0.1492715 0.9886560
vn -0.0221619 -0.1288982 0.9914102
vn -0.0259567 -0.3972927 0.9173248
vn -0.0277406 -0.6353939 0.7716898
vn -0.0273577 -0.8246131 0.5650352
vn -0.0248081 -0.9495572 0.3126110
vn -0.1378497 0.9583498 0.2501262
vn -0.2713776 0.8407615 0.4684809
vn -0.3828603 0.6575892 0.6488408
vn -0.4640353 0.4237796 0.7778702
vn -0.5089991 0.1576106 0.8462144
vn -0.5145074 -0.1205591 0.8489686
vn -0.4801418 -0.3895999 0.7859235
vn -0.4083363 -0.6289475 0.6615788
vn -0.3042625 -0.8199230 0.4849233
vn -0.1755795 -0.9470035 0.2689910
vn -0.2466295 0.9593834 0.1369576
vn -0.4711613 0.8426597 0.2606370
vn -0.6574557 0.6601983 0.3631669
vn -0.7917247 0.4268931 0.4369603
vn -0.8642208 0.1609857 0.4766614
vn -0.8697291 -0.1171840 0.4794155
vn -0.8078312 -0.3864863 0.4450135
vn -0.6829317 -0.6263384 0.3759049
vn -0.5040461 -0.8180248 0.2770794
vn -0.2843593 -0.9459699 0.1558225
vn -0.2842703 0.9586199 -0.0154360
vn -0.5402919 0.8412575 -0.0192472
vn -0.7524732 0.6582710 -0.0215239
vn -0.9051142 0.4245932 -0.0221117
vn -0.9871372 0.1584926 -0.0209817
vn -0.9926455 -0.1196771 -0.0182275
vn -0.9212207 -0.3887863 -0.0140585
vn -0.7779492 -0.6282657 -0.0087859
vn -0.5731768 -0.8194270 -0.0028048
vn -0.3220001 -0.9467334 0.0034289
vn -0.2406863 0.9562639 -0.1662210
vn -0.4602460 0.8369306 -0.2961770
vn -0.6424531 0.6523238 -0.4021539
vn -0.7738212 0.4174961 -0.4763379
vn -0.8448131 0.1507991 -0.5133717
vn -0.8503214 -0.1273706 -0.5106176
vn -0.7899277 -0.3958834 -0.4682846
vn -0.6679290 -0.6342130 -0.3894159
vn -0.4931309 -0.8237539 -0.2797346
vn -0.2784161 -0.9490894 -0.1473561
vn -0.1275557 0.9529468 -0.2749946
vn -0.2524718 0.8308383 -0.4959493
vn -0.3568750 0.6439502 -0.6767337
vn -0.4330256 0.4075034 -0.8040086
vn -0.4753840 0.1399668 -0.8685732
vn -0.4808923 -0.1382029 -0.8658190
vn -0.4491321 -0.4058761 -0.7959553
vn -0.3823509 -0.6425866 -0.6639957
vn -0.2853567 -0.8298462 -0.4795069
vn -0.1652855 -0.9524066 -0.2561297
vn 0.0248081 0.9495572 -0.3126110
vn 0.0273577 0.8246131 -0.5650352
vn 0.0277406 0.6353939 -0.7716898
vn 0.0259567 0.3972927 -0.9173248
vn 0.0221619 0.1288982 -0.9914102
vn 0.0166535 -0.1492715 -0.9886560
vn 0.0098502 -0.4160868 -0.9092715
vn 0.0022647 -0.6511429 -0.7589518
vn -0.0055271 -0.8360714 -0.5485928
vn -0.0129216 -0.9557961 -0.2937462
vn 0.1755795 0.9470035 -0.2689910
vn 0.3042625 0.8199230 -0.4849233
vn 0.4083363 0.6289475 -0.6615788
vn 0.4801418 0.3895999 -0.7859235
vn 0.5145074 0.1205591 -0.8489686
vn 0.5089991 -0.1576106 -0.8462144
vn 0.4640353 -0.4237796 -0.7778702
vn 0.3828603 -0.6575892 -0.6488408
vn 0.2713776 -0.8407615 -0.4684809
vn 0.1378497 -0.9583498 -0.2501262
vn 0.2843593 0.9459699 -0.1558225
vn 0.5040461 0.8180248 -0.2770794
vn 0.6829317 0.6263384 -0.3759049
vn 0.8078312 0.3864863 -0.4450135
vn 0.8697291 0.1171840 -0.4794155
vn 0.8642208 -0.1609857 -0.4766614
vn 0.7917247 -0.4268931 -0.4369603
vn 0.6574557 -0.6601983 -0.3631669
vn 0.4711613 -0.8426597 -0.2606370
vn 0.2466295 -0.9593834 -0.1369576
f 2//2 1//1 13//13
f 2//2 13//13 3//3
f 3//3 13//13 14//14
f 3//3 14//14 4//4
f 4//4 14//14 15//15
f 4//4 15//15 5//5
f 5//5 15//15 16//16
f 5//5 16//16 6//6
f 6//6 16//16 17//17
f 6//6 17//17 7//7
f 7//7 17//17 18//18
f 7//7 18//18 8//8
f 8//8 18//18 19//19
f 8//8 19//19 9//9
f 9//9 19//19 20//20
f 9//9 20//20 10//10
f 10//10 20//20 21//21
f 10//10 21//21 11//11
f 11//11 21//21 22//22
f 11//11 22//22 12//12
f 13//13 1//1 23//23
f 13//13 23//23 14//14
f 14//14 23//23 24//24
f 14//14 24//24 15//15
f 15//15 24//24 25//25
f 15//15 25//25 16//16
f 16//16 25//25 26//26
f 16//16 26//26 17//17
f 17//17 26//26 27//27
f 17//17 27//27 18//18
f 18//18 27//27 28//28
f 18//18 28//28 19//19
f 19//19 28//28 29//29
f 19//19 29//29 20//20
f 20//20 29//29 30//30
f 20//20 30//30 21//21
f 21//21 30//30 31//31
f 21//21 31//31 22//22
f 22//22 31//31 32//32
f 22//22 32//32 12//12
f 23//23 1//1 33//33
f 23//23 33//33 24//24
f 24//24 33//33 34//34
f 24//24 34//34 25//25
f 25//25 34//34 35//35
f 25//25 35//35 26//26
f 26//26 35//35 36//36
f 26//26 36//36 27//27
f 27//27 36//36 37//37
f 27//27 37//37 28//28
f 28//28 37//37 38//38
f 28//28 38//38 29//29
f 29//29 38//38 39//39
f 29//29 39//39 30//30
f 30//30 39//39 40//40
f 30//30 40//40 31//31
f 31//31 40//40 41//41
f 31//31 41//41 32//32
f 32//32 41//41 42//42
f 32//32 42//42 12//12
f 33//33 1//1 43//43
f 33//33 43//43 34//34
f 34//34 43//43 44//44
f 34//34 44//44 35//35
f 35//35 44//44 45//45
f 35//35 45//45 36//36
f 36//36 45//45 46//46
f 36//36 46//46 37//37
f 37//37 46//46 47//47
f 37//37 47//47 38//38
f 38//38 47//47 48//48
f 38//38 48//48 39//39
f 39//39 48//48 49//49
f 39//39 49//49 40//40
f 40//40 49//49 50//50
f 40//40 50//50 41//41
f 41//41 50//50 51//51
f 41//41 51//51 42//42
f 42//42 51//51 52//52
f 42//42 52//52 12//12
f 43//43 1//1 53//53
f 43//43 53//53 44//44
f 44//44 53//53 54//54
f 44//44 54//54 45//45
f 45//45 54//54 55//55
f 45//45 55//55 46//46
f 46//46 55//55 56//56
f 46//46 56//56 47//47
f 47//47 56//56 57//57
f 47//47 57//57 48//48
f 48//48 57//57 58//58
f 48//48 58//58 49//49
f 49//49 58//58 59//59
f 49//49 59//59 50//50
f 50//50 59//59 60//60
f 50//50 60//60 51//51
f 51//51 60//60 61//61
f 51//51 61//61 52//52
f 52//52 61//61 62//62
f 52//52 62//62 12//12
f 53//53 1//1 63//63
f 53//53 63//63 54//54
f 54//54 63//63 64//64
f 54//54 64//64 55//55
f 55//55 64//64 65//65
f 55//55 65//65 56//56
f 56//56 65//65 66//66
f 56//56 66//66 57//57
f 57//57 66//66 67//67
f 57//57 67//67 58//58
f 58//58 67//67 68//68
f 58//58 68//68 59//59
f 59//59 68//68 69//69
f 59//59 69//69 60//60
f 60//60 69//69 70//70
f 60//60 70//70 61//61
f 61//61 70//70 71//71
f 61//61 71//71 62//62
f 62//62 71//71 72//72
f 62//62 72//72 12//12
f 63//63 1//1 73//73
f 63//63 73//73 64//64
f 64//64 73//73 74//74
f 64//64 74//74 65//65
f 65//65 74//74 75//75
f 65//65 75//75 66//66
f 66//66 75//75 76//76
f 66//66 76//76 67//67
f 67//67 76//76 77//77
f 67//67 77//77 68//68
f 68//68 77//77 78//78
f 68//68 78//78 69//69
f 69//69 78//78 79//79
f 69//69 79//79 70//70
f 70//70 79//79 80//80
f 70//70 80//80 71//71
f 71//71 80//80 81//81
f 71//71 81//81 72//72
f 72//72 81//81 82//82
f 72//72 82//82 12//12
f 73//73 1//1 83//83
f 73//73 83//83 74//74
f 74//74 83//83 84//84
f 74//74 84//84 75//75
f 75//75 84//84 85//85
f 75//75 85//85 76//76
f 76//76 85//85 86//86
f 76//76 86//86 77//77
f 77//77 86//86 87//87
f 77//77 87//87 78//78
f 78//78 87//87 88//88
f 78//78 88//88 79//79
f 79//79 88//88 89//89
f 79//79 89//89 80//80
f 80//80 89//89 90//90
f 80//80 90//90 81//81
f 81//81 90//90 91//91
f 81//81 91//91 82//82
f 82//82 91//91 92//92
f 82//82 92//92 12//12
f 83//83 1//1 93//93
f 83//83 93//93 84//84
f 84//84 93//93 94//94
f 84//84 94//94 85//85
f 85//85 94//94 95//95
f 85//85 95//95 86//86
f 86//86 95//95 96//96
f 86//86 96//96 87//87
f 87//87 96//96 97//97
f 87//87 97//97 88//88
f 88//88 97//97 98//98
f 88//88 98//98 89//89
f 89//89 98//98 99//99
f 89//89 99//99 90//90
f 90//90 99//99 100//100
f 90//90 100//100 91//91
f 91//91 100//100 101//101
f 91//91 101//101 92//92
f 92//92 101//101 102//102
f 92//92 102//102 12//12
f 93//93 1//1 103//103
f 93//93 103//103 94//94
f 94//94 103//103 104//104
f 94//94 104//104 95//95
f 95//95 104//104 105//105
f 95//95 105//105 96//96
f 96//96 105//105 106//106
f 96//96 106//106 97//97
f 97//97 106//106 107//107
f 97//97 107//107 98//98
f 98//98 107//107 108//108
f 98//98 108//108 99//99
f 99//99 108//108 109//109
f 99//99 109//109 100//100
f 100//100 109//109 110//110
f 100//100 110//110 101//101
f 101//101 110//110 111//111
f 101//101 111//111 102//102
f 102//102 111//111 112//112
f 102//102 112//112 12//12
f 103//103 1//1 113//113
f 103//103 113//113 104//104
f 104//104 113//113 114//114
f 104//104 114//114 105//105
f 105//105 114//114 115//115
f 105//105 115//115 106//106
f 106//106 115//115 116//116
f 106//106 116//116 107//107
f 107//107 116//116 117//117
f 107//107 117//117 108//108
f 108//108 117//117 118//118
f 108//108 118//118 109//109
f 109//109 118//118 119//119
f 109//109 119//119 110//110
f 110//110 119//119 120//120
f 110//110 120//120 111//111
f 111//111 120//120 121//121
f 111//111 121//121 112//112
f 112//112 121//121 122//122
f 112//112 122//122 12//12
f 113//113 1//1 2//2
f 113//113 2//2 114//114
f 114//114 2//2 3//3
f 114//114 3//3 115//115
f 115//115 3//3 4//4
f 115//115 4//4 116//116
f 116//116 4//4 5//5
f 116//116 5//5 117//117
f 117//117 5//5 6//6
f 117//117 6//6 118//118
f 118//118 6//6 7//7
f 118//118 7//7 119//119
f 119//119 7//7 8//8
f 119//119 8//8 120//120
f 120//120 8//8 9//9
f 120//120 9//9 121//121
f 121//121 9//9 10//10
f 121//121 10//10 122//122
f 122//122 10//10 11//11
f 122//122 11//11 12//12

