# https://github.com/mikedh/trimesh
v 0.1810190 -1.4600651 0.0094905
v 0.1837672 -1.4607389 0.0097982
v 0.1862102 -1.4621630 0.0101223
v 0.1881501 -1.4642220 0.0104364
v 0.1894297 -1.4667491 0.0107152
v 0.1899454 -1.4695396 0.0109361
v 0.1496554 -1.8623673 0.0310811
v 0.1485832 -1.8650033 0.0311385
v 0.1468156 -1.8672340 0.0311037
v 0.1444958 -1.8688785 0.0309795
v 0.1418118 -1.8698038 0.0307759
v 0.1389810 -1.8699349 0.0305095
v 0.1832578 -1.4606169 0.0111593
v 0.1852326 -1.4619288 0.0127341
v 0.1867836 -1.4638946 0.0140874
v 0.1877850 -1.4663551 0.0151096
v 0.1881557 -1.4691108 0.0157178
v 0.1478657 -1.8619386 0.0358629
v 0.1469384 -1.8646093 0.0355329
v 0.1454491 -1.8669066 0.0347547
v 0.1435182 -1.8686443 0.0335913
v 0.1413024 -1.8696818 0.0321370
v 0.1821374 -1.4604548 0.0120787
v 0.1830827 -1.4616178 0.0144984
v 0.1837782 -1.4634599 0.0165538
v 0.1841677 -1.4658318 0.0180782
v 0.1842195 -1.4685414 0.0189481
v 0.1439295 -1.8613692 0.0390931
v 0.1433211 -1.8640860 0.0385014
v 0.1424437 -1.8664718 0.0372211
v 0.1413683 -1.8683334 0.0353557
v 0.1401820 -1.8695197 0.0330564
v 0.1807063 -1.4602962 0.0123101
v 0.1803364 -1.4613134 0.0149426
v 0.1799393 -1.4630343 0.0171747
v 0.1795471 -1.4653196 0.0188255
v 0.1791916 -1.4679840 0.0197613
v 0.1389015 -1.8608118 0.0399063
v 0.1387005 -1.8635738 0.0392487
v 0.1386047 -1.8660463 0.0378419
v 0.1386220 -1.8680289 0.0357998
v 0.1387509 -1.8693611 0.0332878
v 0.1793479 -1.4601834 0.0117916
v 0.1777297 -1.4610970 0.0139476
v 0.1762954 -1.4627319 0.0157837
v 0.1751612 -1.4649556 0.0171513
v 0.1744191 -1.4675880 0.0179395
v 0.1341291 -1.8604157 0.0380845
v 0.1343147 -1.8632098 0.0375746
v 0.1349609 -1.8657439 0.0364510
v 0.1360153 -1.8678126 0.0348048
v 0.1373925 -1.8692484 0.0327693
v 0.1784262 -1.4601468 0.0106620
v 0.1759610 -1.4610268 0.0117799
v 0.1738230 -1.4626337 0.0127536
v 0.1721854 -1.4648374 0.0135042
v 0.1711809 -1.4674594 0.0139709
v 0.1308908 -1.8602871 0.0341159
v 0.1313388 -1.8630916 0.0339275
v 0.1324884 -1.8656457 0.0334209
v 0.1342466 -1.8677423 0.0326371
v 0.1364709 -1.8692118 0.0316397
v 0.1781882 -1.4601962 0.0092241
v 0.1755042 -1.4611215 0.0090205
v 0.1731844 -1.4627660 0.0088963
v 0.1714168 -1.4649967 0.0088615
v 0.1703446 -1.4676327 0.0089189
v 0.1300546 -1.8604604 0.0290639
v 0.1305703 -1.8632509 0.0292848
v 0.1318499 -1.8657780 0.0295636
v 0.1337898 -1.8678370 0.0298777
v 0.1362328 -1.8692611 0.0302018
v 0.1786976 -1.4603182 0.0078630
v 0.1764818 -1.4613557 0.0064087
v 0.1745509 -1.4630934 0.0052453
v 0.1730616 -1.4653907 0.0044671
v 0.1721343 -1.4680614 0.0041371
v 0.1318443 -1.8608892 0.0242822
v 0.1322150 -1.8636449 0.0248904
v 0.1332164 -1.8661054 0.0259126
v 0.1347674 -1.8680712 0.0272659
v 0.1367422 -1.8693831 0.0288407
v 0.1798180 -1.4604803 0.0069436
v 0.1786317 -1.4616666 0.0046443
v 0.1775563 -1.4635282 0.0027789
v 0.1766789 -1.4659140 0.0014986
v 0.1760705 -1.4686308 0.0009069
v 0.1357805 -1.8614586 0.0210519
v 0.1358323 -1.8641682 0.0219218
v 0.1362218 -1.8665401 0.0234462
v 0.1369173 -1.8683822 0.0255016
v 0.1378626 -1.8695452 0.0279213
v 0.1812491 -1.4606389 0.0067122
v 0.1813780 -1.4619711 0.0042002
v 0.1813953 -1.4639537 0.0021581
v 0.1812995 -1.4664262 0.0007513
v 0.1810985 -1.4691882 0.0000937
v 0.1408084 -1.8620160 0.0202387
v 0.1404529 -1.8646804 0.0211745
v 0.1400607 -1.8669657 0.0228253
v 0.1396636 -1.8686866 0.0250574
v 0.1392937 -1.8697038 0.0276899
v 0.1826075 -1.4607516 0.0072307
v 0.1839847 -1.4621874 0.0051952
v 0.1850391 -1.4642561 0.0035490
v 0.1856853 -1.4667902 0.0024254
v 0.1858709 -1.4695843 0.0019155
v 0.1455809 -1.8624120 0.0220605
v 0.1448388 -1.8650444 0.0228487
v 0.1437046 -1.8672681 0.0242163
v 0.1422703 -1.8689030 0.0260524
v 0.1406521 -1.8698166 0.0282084
v 0.1835291 -1.4607882 0.0083603
v 0.1857534 -1.4622577 0.0073629
v 0.1875116 -1.4643543 0.0065791
v 0.1886612 -1.4669084 0.0060725
v 0.1891092 -1.4697129 0.0058841
v 0.1488191 -1.8625406 0.0260291
v 0.1478146 -1.8651626 0.0264958
v 0.1461770 -1.8673663 0.0272464
v 0.1440390 -1.8689732 0.0282201
v 0.1415738 -1.8698532 0.0293380
vn 0.1018964 0.9934895 -0.0509482
vn 0.3973550 0.9174953 -0.0176487
vn 0.6360777 0.7714900 0.0144364
vn 0.8235082 0.5654991 0.0452211
vn 0.9459472 0.3161457 0.0723594
vn 0.9946679 0.0428245 0.0938176
vn 0.9663165 -0.2336019 0.1079933
vn 0.8630464 -0.4921363 0.1138097
vn 0.6923827 -0.7129749 0.1107839
vn 0.4668185 -0.8787869 0.0990660
vn 0.2031588 -0.9759172 0.0794494
vn -0.1018964 -0.9934895 0.0509482
vn 0.3425227 0.9306319 0.1288507
vn 0.5353734 0.7956165 0.2834954
vn 0.6850939 0.5986602 0.4150330
vn 0.7807699 0.3557185 0.5136757
vn 0.8156126 0.0857223 0.5722131
vn 0.7872611 -0.1907041 0.5863888
vn 0.6978692 -0.4525635 0.5551260
vn 0.5539683 -0.6798138 0.4805958
vn 0.3661142 -0.8546604 0.3681250
vn 0.1483266 -0.9627805 0.2259488
vn 0.2219291 0.9480756 0.2278160
vn 0.3138927 0.8276534 0.4652539
vn 0.3806766 0.6426938 0.6648534
vn 0.4174926 0.4082662 0.8117997
vn 0.4218128 0.1426849 0.8953854
vn 0.3934614 -0.1337415 0.9095611
vn 0.3345918 -0.4000159 0.8532500
vn 0.2495511 -0.6357802 0.7304162
vn 0.1446335 -0.8226235 0.5498834
vn 0.0277330 -0.9453368 0.3249141
vn 0.0678871 0.9651524 0.2527295
vn 0.0309811 0.8590165 0.5110097
vn -0.0081751 0.6858011 0.7277431
vn -0.0465450 0.4597084 0.8868493
vn -0.0812130 0.1984494 0.9767406
vn -0.1095644 -0.0779770 0.9909164
vn -0.1294457 -0.3485736 0.9282997
vn -0.1393006 -0.5926729 0.7933059
vn -0.1382780 -0.7912604 0.5956392
vn -0.1263090 -0.9282600 0.3498276
vn -0.0783278 0.9772865 0.1969157
vn -0.2375554 0.8813019 0.4085026
vn -0.3772688 0.7164316 0.5868509
vn -0.4870042 0.4962615 0.7187151
vn -0.5586794 0.2380736 0.7944799
vn -0.5870308 -0.0383528 0.8086556
vn -0.5699050 -0.3120205 0.7601655
vn -0.5083944 -0.5620424 0.6524136
vn -0.4068145 -0.7689750 0.4931322
vn -0.2725239 -0.9161259 0.2940137
vn -0.1775375 0.9812267 0.0753297
vn -0.4197627 0.8885384 0.1851994
vn -0.6277062 0.7263779 0.2799287
vn -0.7858645 0.5081309 0.3524485
vn -0.8826498 0.2509403 0.3974397
vn -0.9110012 -0.0254861 0.4116154
vn -0.8687652 -0.3001511 0.3938988
vn -0.7588317 -0.5520961 0.3454915
vn -0.5890219 -0.7617385 0.2698290
vn -0.3717336 -0.9121857 0.1724278
vn -0.2031588 0.9759172 -0.0794494
vn -0.4668185 0.8787869 -0.0990660
vn -0.6923827 0.7129749 -0.1107839
vn -0.8630464 0.4921363 -0.1138097
vn -0.9663165 0.2336019 -0.1079933
vn -0.9946679 -0.0428245 -0.0938176
vn -0.9459472 -0.3161457 -0.0723594
vn -0.8235082 -0.5654991 -0.0452211
vn -0.6360777 -0.7714900 -0.0144364
vn -0.3973550 -0.9174953 0.0176487
vn -0.1483266 0.9627805 -0.2259488
vn -0.3661142 0.8546604 -0.3681250
vn -0.5539683 0.6798138 -0.4805958
vn -0.6978692 0.4525635 -0.5551260
vn -0.7872611 0.1907041 -0.5863888
vn -0.8156126 -0.0857223 -0.5722131
vn -0.7807699 -0.3557185 -0.5136757
vn -0.6850939 -0.5986602 -0.4150330
vn -0.5353734 -0.7956165 -0.2834954
vn -0.3425227 -0.9306319 -0.1288507
vn -0.0277330 0.9453368 -0.3249141
vn -0.1446335 0.8226235 -0.5498834
vn -0.2495511 0.6357802 -0.7304162
vn -0.3345918 0.4000159 -0.8532500
vn -0.3934614 0.1337415 -0.9095611
vn -0.4218128 -0.1426849 -0.8953854
vn -0.4174926 -0.4082662 -0.8117997
vn -0.3806766 -0.6426938 -0.6648534
vn -0.3138927 -0.8276534 -0.4652539
vn -0.2219291 -0.9480756 -0.2278160
vn 0.1263090 0.9282600 -0.3498276
vn 0.1382780 0.7912604 -0.5956392
vn 0.1393006 0.5926729 -0.7933059
vn 0.1294457 0.3485736 -0.9282997
vn 0.1095644 0.0779770 -0.9909164
vn 0.0812130 -0.1984494 -0.9767406
vn 0.0465450 -0.4597084 -0.8868493
vn 0.0081751 -0.6858011 -0.7277431
vn -0.0309811 -0.8590165 -0.5110097
vn -0.0678871 -0.9651524 -0.2527295
vn 0.2725239 0.9161259 -0.2940137
vn 0.4068145 0.7689750 -0.4931322
vn 0.5083944 0.5620424 -0.6524136
vn 0.5699050 0.3120205 -0.7601655
vn 0.5870308 0.0383528 -0.8086556
vn 0.5586794 -0.2380736 -0.7944799
vn 0.4870042 -0.4962615 -0.7187151
vn 0.3772688 -0.7164316 -0.5868509
vn 0.2375554 -0.8813019 -0.4085026
vn 0.0783278 -0.9772865 -0.1969157
vn 0.3717336 0.9121857 -0.1724278
vn 0.5890219 0.7617385 -0.2698290
vn 0.7588317 0.5520961 -0.3454915
vn 0.8687652 0.3001511 -0.3938988
vn 0.9110012 0.0254861 -0.4116154
vn 0.8826498 -0.2509403 -0.3974397
vn 0.7858645 -0.5081309 -0.3524485
vn 0.6277062 -0.7263779 -0.2799287
vn 0.4197627 -0.8885384 -0.1851994
vn 0.1775375 -0.9812267 -0.0753297
f 2//2 1//1 13//13
f 2//2 13//13 3//3
f 3//3 13//13 14//14
f 3//3 14//14 4//4
f 4//4 14//14 15//15
f 4//4 15//15 5//5
f 5//5 15//15 16//16
f 5//5 16//16 6//6
f 6//6 16//16 17//17
f 6//6 17//17 7//7
f 7//7 17//17 18//18
f 7//7 18//18 8//8
f 8//8 18//18 19//19
f 8//8 19//19 9//9
f 9//9 19//19 20//20
f 9//9 20//20 10//10
f 10//10 20//20 21//21
f 10//10 21//21 11//11
f 11//11 21//21 22//22
f 11//11 22//22 12//12
f 13//13 1//1 23//23
f 13//13 23//23 14//14
f 14//14 23//23 24//24
f 14//14 24//24 15//15
f 15//15 24//24 25//25
f 15//15 25//25 16//16
f 16//16 25//25 26//26
f 16//16 26//26 17//17
f 17//17 26//26 27//27
f 17//17 27//27 18//18
f 18//18 27//27 28//28
f 18//18 28//28 19//19
f 19//19 28//28 29//29
f 19//19 29//29 20//20
f 20//20 29//29 30//30
f 20//20 30//30 21//21
f 21//21 30//30 31//31
f 21//21 31//31 22//22
f 22//22 31//31 32//32
f 22//22 32//32 12//12
f 23//23 1//1 33//33
f 23//23 33//33 24//24
f 24//24 33//33 34//34
f 24//24 34//34 25//25
f 25//25 34//34 35//35
f 25//25 35//35 26//26
f 26//26 35//35 36//36
f 26//26 36//36 27//27
f 27//27 36//36 37//37
f 27//27 37//37 28//28
f 28//28 37//37 38//38
f 28//28 38//38 29//29
f 29//29 38//38 39//39
f 29//29 39//39 30//30
f 30//30 39//39 40//40
f 30//30 40//40 31//31
f 31//31 40//40 41//41
f 31//31 41//41 32//32
f 32//32 41//41 42//42
f 32//32 42//42 12//12
f 33//33 1//1 43//43
f 33//33 43//43 34//34
f 34//34 43//43 44//44
f 34//34 44//44 35//35
f 35//35 44//44 45//45
f 35//35 45//45 36//36
f 36//36 45//45 46//46
f 36//36 46//46 37//37
f 37//37 46//46 47//47
f 37//37 47//47 38//38
f 38//38 47//47 48//48
f 38//38 48//48 39//39
f 39//39 48//48 49//49
f 39//39 49//49 40//40
f 40//40 49//49 50//50
f 40//40 50//50 41//41
f 41//41 50//50 51//51
f 41//41 51//51 42//42
f 42//42 51//51 52//52
f 42//42 52//52 12//12
f 43//43 1//1 53//53
f 43//43 53//53 44//44
f 44//44 53//53 54//54
f 44//44 54//54 45//45
f 45//45 54//54 55//55
f 45//45 55//55 46//46
f 46//46 55//55 56//56
f 46//46 56//56 47//47
f 47//47 56//56 57//57
f 47//47 57//57 48//48
f 48//48 57//57 58//58
f 48//48 58//58 49//49
f 49//49 58//58 59//59
f 49//49 59//59 50//50
f 50//50 59//59 60//60
f 50//50 60//60 51//51
f 51//51 60//60 61//61
f 51//51 61//61 52//52
f 52//52 61//61 62//62
f 52//52 62//62 12//12
f 53//53 1//1 63//63
f 53//53 63//63 54//54
f 54//54 63//63 64//64
f 54//54 64//64 55//55
f 55//55 64//64 65//65
f 55//55 65//65 56//56
f 56//56 65//65 66//66
f 56//56 66//66 57//57
f 57//57 66//66 67//67
f 57//57 67//67 58//58
f 58//58 67//67 68//68
f 58//58 68//68 59//59
f 59//59 68//68 69//69
f 59//59 69//69 60//60
f 60//60 69//69 70//70
f 60//60 70//70 61//61
f 61//61 70//70 71//71
f 61//61 71//71 62//62
f 62//62 71//71 72//72
f 62//62 72//72 12//12
f 63//63 1//1 73//73
f 63//63 73//73 64//64
f 64//64 73//73 74//74
f 64//64 74//74 65//65
f 65//65 74//74 75//75
f 65//65 75//75 66//66
f 66//66 75//75 76//76
f 66//66 76//76 67//67
f 67//67 76//76 77//77
f 67//67 77//77 68//68
f 68//68 77//77 78//78
f 68//68 78//78 69//69
f 69//69 78//78 79//79
f 69//69 79//79 70//70
f 70//70 79//79 80//80
f 70//70 80//80 71//71
f 71//71 80//80 81//81
f 71//71 81//81 72//72
f 72//72 81//81 82//82
f 72//72 82//82 12//12
f 73//73 1//1 83//83
f 73//73 83//83 74//74
f 74//74 83//83 84//84
f 74//74 84//84 75//75
f 75//75 84//84 85//85
f 75//75 85//85 76//76
f 76//76 85//85 86//86
f 76//76 86//86 77//77
f 77//77 86//86 87//87
f 77//77 87//87 78//78
f 78//78 87//87 88//88
f 78//78 88//88 79//79
f 79//79 88//88 89//89
f 79//79 89//89 80//80
f 80//80 89//89 90//90
f 80//80 90//90 81//81
f 81//81 90//90 91//91
f 81//81 91//91 82//82
f 82//82 91//91 92//92
f 82//82 92//92 12//12
f 83//83 1//1 93//93
f 83//83 93//93 84//84
f 84//84 93//93 94//94
f 84//84 94//94 85//85
f 85//85 94//94 95//95
f 85//85 95//95 86//86
f 86//86 95//95 96//96
f 86//86 96//96 87//87
f 87//87 96//96 97//97
f 87//87 97//97 88//88
f 88//88 97//97 98//98
f 88//88 98//98 89//89
f 89//89 98//98 99//99
f 89//89 99//99 90//90
f 90//90 99//99 100//100
f 90//90 100//100 91//91
f 91//91 100//100 101//101
f 91//91 101//101 92//92
f 92//92 101//101 102//102
f 92//92 102//102 12//12
f 93//93 1//1 103//103
f 93//93 103//103 94//94
f 94//94 103//103 104//104
f 94//94 104//104 95//95
f 95//95 104//104 105//105
f 95//95 105//105 96//96
f 96//96 105//105 106//106
f 96//96 106//106 97//97
f 97//97 106//106 107//107
f 97//97 107//107 98//98
f 98//98 107//107 108//108
f 98//98 108//108 99//99
f 99//99 108//108 109//109
f 99//99 109//109 100//100
f 100//100 109//109 110//110
f 100//100 110//110 101//101
f 101//101 110//110 111//111
f 101//101 111//111 102//102
f 102//102 111//111 112//112
f 102//102 112//112 12//12
f 103//103 1//1 113//113
f 103//103 113//113 104//104
f 104//104 113//113 114//114
f 104//104 114//114 105//105
f 105//105 114//114 115//115
f 105//105 115//115 106//106
f 106//106 115//115 116//116
f 106//106 116//116 107//107
f 107//107 116//116 117//117
f 107//107 117//117 108//108
f 108//108 117//117 118//118
f 108//108 118//118 109//109
f 109//109 118//118 119//119
f 109//109 119//119 110//110
f 110//110 119//119 120//120
f 110//110 120//120 111//111
f 111//111 120//120 121//121
f 111//111 121//121 112//112
f 112//112 121//121 122//122
f 112//112 122//122 12//12
f 113//113 1//1 2//2
f 113//113 2//2 114//114
f 114//114 2//2 3//3
f 114//114 3//3 115//115
f 115//115 3//3 4//4
f 115//115 4//4 116//116
f 116//116 4//4 5//5
f 116//116 5//5 117//117
f 117//117 5//5 6//6
f 117//117 6//6 118//118
f 118//118 6//6 7//7
f 118//118 7//7 119//119
f 119//119 7//7 8//8
f 119//119 8//8 120//120
f 120//120 8//8 9//9
f 120//120 9//9 121//121
f 121//121 9//9 10//10
f 121//121 10//10 122//122
f 122//122 10//10 11//11
f 122//122 11//11 12//12

