# https://github.com/mikedh/trimesh
v -0.0175251 1.5542426 0.0275251
v -0.0162922 1.5536998 0.0283226
v -0.0153597 1.5528573 0.0292560
v -0.0148031 1.5517833 0.0302497
v -0.0146676 1.5505648 0.0312231
v -0.0149640 1.5493006 0.0320975
v -0.0856684 1.4280930 0.1028019
v -0.0867238 1.4270399 0.1032793
v -0.0880445 1.4262266 0.1034911
v -0.0895237 1.4257190 0.1034200
v -0.0910415 1.4255583 0.1030719
v -0.0924749 1.4257574 0.1024749
v -0.0166563 1.5542064 0.0288269
v -0.0160584 1.5538293 0.0302236
v -0.0157798 1.5531420 0.0316023
v -0.0158431 1.5522002 0.0328511
v -0.0162431 1.5510801 0.0338690
v -0.0869475 1.4298725 0.1045734
v -0.0878993 1.4286753 0.1049073
v -0.0890212 1.4275853 0.1048437
v -0.0902224 1.4266910 0.1043876
v -0.0914056 1.4260648 0.1035761
v -0.0172800 1.5546765 0.0290092
v -0.0172553 1.5547316 0.0305735
v -0.0174529 1.5544033 0.0320913
v -0.0178569 1.5537183 0.0334397
v -0.0184345 1.5527320 0.0345095
v -0.0891389 1.4315244 0.1052139
v -0.0899131 1.4301934 0.1054959
v -0.0906943 1.4288466 0.1053327
v -0.0914193 1.4275933 0.1047374
v -0.0920293 1.4265350 0.1037584
v -0.0179963 1.5549844 0.0288207
v -0.0186298 1.5553224 0.0302117
v -0.0193743 1.5552292 0.0315857
v -0.0201696 1.5547123 0.0328311
v -0.0209510 1.5538137 0.0338472
v -0.0916554 1.4326061 0.1045517
v -0.0922258 1.4311874 0.1048873
v -0.0926157 1.4296725 0.1048271
v -0.0927938 1.4281841 0.1043757
v -0.0927456 1.4268428 0.1035699
v -0.0186132 1.5550475 0.0283119
v -0.0198136 1.5554434 0.0292354
v -0.0210291 1.5553983 0.0302209
v -0.0221613 1.5549159 0.0311885
v -0.0231183 1.5540353 0.0320598
v -0.0938227 1.4328277 0.1027642
v -0.0942175 1.4313910 0.1032447
v -0.0942705 1.4298417 0.1034623
v -0.0939776 1.4283051 0.1033994
v -0.0933624 1.4269059 0.1030611
v -0.0189654 1.5548488 0.0276192
v -0.0204895 1.5550622 0.0279061
v -0.0219739 1.5548655 0.0283627
v -0.0232984 1.5542746 0.0289519
v -0.0243557 1.5533374 0.0296260
v -0.0950601 1.4321298 0.1003305
v -0.0953546 1.4307497 0.1010081
v -0.0952153 1.4293088 0.1016041
v -0.0946535 1.4279239 0.1020701
v -0.0937146 1.4267073 0.1023684
v -0.0189585 1.5544417 0.0269281
v -0.0204763 1.5542810 0.0265800
v -0.0219555 1.5537734 0.0265089
v -0.0232762 1.5529601 0.0267207
v -0.0243316 1.5519070 0.0271981
v -0.0950360 1.4306994 0.0979025
v -0.0953324 1.4294352 0.0987769
v -0.0951969 1.4282167 0.0997503
v -0.0946403 1.4271427 0.1007440
v -0.0937078 1.4263002 0.1016774
v -0.0185944 1.5539352 0.0264239
v -0.0197776 1.5533090 0.0256124
v -0.0209788 1.5524147 0.0251563
v -0.0221007 1.5513247 0.0250927
v -0.0230525 1.5501275 0.0254266
v -0.0937569 1.4289199 0.0961310
v -0.0941569 1.4277998 0.0971489
v -0.0942202 1.4268580 0.0983977
v -0.0939416 1.4261707 0.0997764
v -0.0933437 1.4257936 0.1011731
v -0.0179707 1.5534650 0.0262416
v -0.0185807 1.5524067 0.0252626
v -0.0193057 1.5511534 0.0246673
v -0.0200869 1.5498066 0.0245041
v -0.0208611 1.5484756 0.0247861
v -0.0915655 1.4272680 0.0954905
v -0.0921431 1.4262817 0.0965603
v -0.0925471 1.4255967 0.0979087
v -0.0927447 1.4252684 0.0994265
v -0.0927200 1.4253235 0.1009908
v -0.0172544 1.5531572 0.0264301
v -0.0172062 1.5518159 0.0256243
v -0.0173843 1.5503275 0.0251729
v -0.0177742 1.5488126 0.0251127
v -0.0183446 1.5473939 0.0254483
v -0.0890490 1.4261863 0.0961528
v -0.0898304 1.4252877 0.0971689
v -0.0906257 1.4247708 0.0984143
v -0.0913702 1.4246776 0.0997883
v -0.0920037 1.4250156 0.1011793
v -0.0166376 1.5530941 0.0269389
v -0.0160224 1.5516949 0.0266006
v -0.0157295 1.5501583 0.0265377
v -0.0157825 1.5486090 0.0267553
v -0.0161773 1.5471723 0.0272358
v -0.0868817 1.4259647 0.0979402
v -0.0878387 1.4250841 0.0988115
v -0.0889709 1.4246017 0.0997791
v -0.0901864 1.4245566 0.1007646
v -0.0913868 1.4249525 0.1016881
v -0.0162854 1.5532927 0.0276316
v -0.0153465 1.5520761 0.0279299
v -0.0147847 1.5506912 0.0283959
v -0.0146454 1.5492503 0.0289919
v -0.0149399 1.5478702 0.0296695
v -0.0856443 1.4266626 0.1003740
v -0.0867016 1.4257254 0.1010481
v -0.0880261 1.4251345 0.1016373
v -0.0895105 1.4249378 0.1020939
v -0.0910346 1.4251512 0.1023808
vn 0.4499770 0.7713892 -0.4499770
vn 0.6896934 0.6624694 -0.2923308
vn 0.8529027 0.5073466 -0.1231116
vn 0.9481373 0.3130782 0.0549342
vn 0.9690008 0.0951065 0.2280180
vn 0.9145908 -0.1297455 0.3830010
vn 0.7893902 -0.3443752 0.5082016
vn 0.6029090 -0.5324794 0.5941098
vn 0.3690834 -0.6795856 0.6339881
vn 0.1054497 -0.7740014 0.6243414
vn -0.1678820 -0.8076598 0.5652445
vn -0.4499770 -0.7713892 0.4499770
vn 0.6184411 0.7615973 -0.1936496
vn 0.7220415 0.6894037 0.0581252
vn 0.7682734 0.5633091 0.3040376
vn 0.7543596 0.3937205 0.5252864
vn 0.6819156 0.1939578 0.7052457
vn 0.5567149 -0.0206719 0.8304464
vn 0.3882678 -0.2338654 0.8913782
vn 0.1892195 -0.4293547 0.8830915
vn -0.0254115 -0.5919443 0.8055782
vn -0.2391343 -0.7085318 0.6639258
vn 0.4963713 0.8536158 -0.1579734
vn 0.4978497 0.8584037 0.1236476
vn 0.4601298 0.7955935 0.3940959
vn 0.3866354 0.6709179 0.6327577
vn 0.2832953 0.4944452 0.8217467
vn 0.1580946 0.2798155 0.9469474
vn 0.0205436 0.0433320 0.9988495
vn -0.1189241 -0.1970702 0.9731497
vn -0.2496033 -0.4229443 0.8711006
vn -0.3612041 -0.6165133 0.6996020
vn 0.3561925 0.9138686 -0.1948617
vn 0.2403991 0.9690632 0.0558991
vn 0.1062733 0.9476910 0.3009779
vn -0.0356405 0.8524239 0.5216351
vn -0.1744600 0.6912014 0.7012877
vn -0.2996607 0.4765717 0.8264883
vn -0.4017323 0.2248380 0.8877269
vn -0.4727806 -0.0449727 0.8800318
vn -0.5070539 -0.3122848 0.8033521
vn -0.5013828 -0.5562606 0.6627137
vn 0.2354656 0.9262110 -0.2944302
vn 0.0186735 0.9917311 -0.1269673
vn -0.1984806 0.9788472 0.0496347
vn -0.3993195 0.8896043 0.2216938
vn -0.5686952 0.7315056 0.3761454
vn -0.6938958 0.5168759 0.5013461
vn -0.7654113 0.2620184 0.5877856
vn -0.7775344 -0.0138166 0.6286886
vn -0.7287795 -0.2896169 0.6204857
vn -0.6221098 -0.5439182 0.5631451
vn 0.1665391 0.8873359 -0.4299998
vn -0.1079159 0.9203335 -0.3759526
vn -0.3724732 0.8807138 -0.2925866
vn -0.6069542 0.7724964 -0.1866972
vn -0.7937752 0.6045584 -0.0665584
vn -0.9189759 0.3899287 0.0586423
vn -0.9730460 0.1449105 0.1793946
vn -0.9515270 -0.1119500 0.2864672
vn -0.8553689 -0.3610145 0.3715004
vn -0.6910362 -0.5827933 0.4275756
vn 0.1678820 0.8076598 -0.5652445
vn -0.1054497 0.7740014 -0.6243414
vn -0.3690834 0.6795856 -0.6339881
vn -0.6029090 0.5324794 -0.5941098
vn -0.7893902 0.3443752 -0.5082016
vn -0.9145908 0.1297455 -0.3830010
vn -0.9690008 -0.0951065 -0.2280180
vn -0.9481373 -0.3130782 -0.0549342
vn -0.8529027 -0.5073466 0.1231116
vn -0.6896934 -0.6624694 0.2923308
vn 0.2391343 0.7085318 -0.6639258
vn 0.0254115 0.5919443 -0.8055782
vn -0.1892195 0.4293547 -0.8830915
vn -0.3882678 0.2338654 -0.8913782
vn -0.5567149 0.0206719 -0.8304464
vn -0.6819156 -0.1939578 -0.7052457
vn -0.7543596 -0.3937205 -0.5252864
vn -0.7682734 -0.5633091 -0.3040376
vn -0.7220415 -0.6894037 -0.0581252
vn -0.6184411 -0.7615973 0.1936496
vn 0.3612041 0.6165133 -0.6996020
vn 0.2496033 0.4229443 -0.8711006
vn 0.1189241 0.1970702 -0.9731497
vn -0.0205436 -0.0433320 -0.9988495
vn -0.1580946 -0.2798155 -0.9469474
vn -0.2832953 -0.4944452 -0.8217467
vn -0.3866354 -0.6709179 -0.6327577
vn -0.4601298 -0.7955935 -0.3940959
vn -0.4978497 -0.8584037 -0.1236476
vn -0.4963713 -0.8536158 0.1579734
vn 0.5013828 0.5562606 -0.6627137
vn 0.5070539 0.3122848 -0.8033521
vn 0.4727806 0.0449727 -0.8800318
vn 0.4017323 -0.2248380 -0.8877269
vn 0.2996607 -0.4765717 -0.8264883
vn 0.1744600 -0.6912014 -0.7012877
vn 0.0356405 -0.8524239 -0.5216351
vn -0.1062733 -0.9476910 -0.3009779
vn -0.2403991 -0.9690632 -0.0558991
vn -0.3561925 -0.9138686 0.1948617
vn 0.6221098 0.5439182 -0.5631451
vn 0.7287795 0.2896169 -0.6204857
vn 0.7775344 0.0138166 -0.6286886
vn 0.7654113 -0.2620184 -0.5877856
vn 0.6938958 -0.5168759 -0.5013461
vn 0.5686952 -0.7315056 -0.3761454
vn 0.3993195 -0.8896043 -0.2216938
vn 0.1984806 -0.9788472 -0.0496347
vn -0.0186735 -0.9917311 0.1269673
vn -0.2354656 -0.9262110 0.2944302
vn 0.6910362 0.5827933 -0.4275756
vn 0.8553689 0.3610145 -0.3715004
vn 0.9515270 0.1119500 -0.2864672
vn 0.9730460 -0.1449105 -0.1793946
vn 0.9189759 -0.3899287 -0.0586423
vn 0.7937752 -0.6045584 0.0665584
vn 0.6069542 -0.7724964 0.1866972
vn 0.3724732 -0.8807138 0.2925866
vn 0.1079159 -0.9203335 0.3759526
vn -0.1665391 -0.8873359 0.4299998
f 2//2 1//1 13//13
f 2//2 13//13 3//3
f 3//3 13//13 14//14
f 3//3 14//14 4//4
f 4//4 14//14 15//15
f 4//4 15//15 5//5
f 5//5 15//15 16//16
f 5//5 16//16 6//6
f 6//6 16//16 17//17
f 6//6 17//17 7//7
f 7//7 17//17 18//18
f 7//7 18//18 8//8
f 8//8 18//18 19//19
f 8//8 19//19 9//9
f 9//9 19//19 20//20
f 9//9 20//20 10//10
f 10//10 20//20 21//21
f 10//10 21//21 11//11
f 11//11 21//21 22//22
f 11//11 22//22 12//12
f 13//13 1//1 23//23
f 13//13 23//23 14//14
f 14//14 23//23 24//24
f 14//14 24//24 15//15
f 15//15 24//24 25//25
f 15//15 25//25 16//16
f 16//16 25//25 26//26
f 16//16 26//26 17//17
f 17//17 26//26 27//27
f 17//17 27//27 18//18
f 18//18 27//27 28//28
f 18//18 28//28 19//19
f 19//19 28//28 29//29
f 19//19 29//29 20//20
f 20//20 29//29 30//30
f 20//20 30//30 21//21
f 21//21 30//30 31//31
f 21//21 31//31 22//22
f 22//22 31//31 32//32
f 22//22 32//32 12//12
f 23//23 1//1 33//33
f 23//23 33//33 24//24
f 24//24 33//33 34//34
f 24//24 34//34 25//25
f 25//25 34//34 35//35
f 25//25 35//35 26//26
f 26//26 35//35 36//36
f 26//26 36//36 27//27
f 27//27 36//36 37//37
f 27//27 37//37 28//28
f 28//28 37//37 38//38
f 28//28 38//38 29//29
f 29//29 38//38 39//39
f 29//29 39//39 30//30
f 30//30 39//39 40//40
f 30//30 40//40 31//31
f 31//31 40//40 41//41
f 31//31 41//41 32//32
f 32//32 41//41 42//42
f 32//32 42//42 12//12
f 33//33 1//1 43//43
f 33//33 43//43 34//34
f 34//34 43//43 44//44
f 34//34 44//44 35//35
f 35//35 44//44 45//45
f 35//35 45//45 36//36
f 36//36 45//45 46//46
f 36//36 46//46 37//37
f 37//37 46//46 47//47
f 37//37 47//47 38//38
f 38//38 47//47 48//48
f 38//38 48//48 39//39
f 39//39 48//48 49//49
f 39//39 49//49 40//40
f 40//40 49//49 50//50
f 40//40 50//50 41//41
f 41//41 50//50 51//51
f 41//41 51//51 42//42
f 42//42 51//51 52//52
f 42//42 52//52 12//12
f 43//43 1//1 53//53
f 43//43 53//53 44//44
f 44//44 53//53 54//54
f 44//44 54//54 45//45
f 45//45 54//54 55//55
f 45//45 55//55 46//46
f 46//46 55//55 56//56
f 46//46 56//56 47//47
f 47//47 56//56 57//57
f 47//47 57//57 48//48
f 48//48 57//57 58//58
f 48//48 58//58 49//49
f 49//49 58//58 59//59
f 49//49 59//59 50//50
f 50//50 59//59 60//60
f 50//50 60//60 51//51
f 51//51 60//60 61//61
f 51//51 61//61 52//52
f 52//52 61//61 62//62
f 52//52 62//62 12//12
f 53//53 1//1 63//63
f 53//53 63//63 54//54
f 54//54 63//63 64//64
f 54//54 64//64 55//55
f 55//55 64//64 65//65
f 55//55 65//65 56//56
f 56//56 65//65 66//66
f 56//56 66//66 57//57
f 57//57 66//66 67//67
f 57//57 67//67 58//58
f 58//58 67//67 68//68
f 58//58 68//68 59//59
f 59//59 68//68 69//69
f 59//59 69//69 60//60
f 60//60 69//69 70//70
f 60//60 70//70 61//61
f 61//61 70//70 71//71
f 61//61 71//71 62//62
f 62//62 71//71 72//72
f 62//62 72//72 12//12
f 63//63 1//1 73//73
f 63//63 73//73 64//64
f 64//64 73//73 74//74
f 64//64 74//74 65//65
f 65//65 74//74 75//75
f 65//65 75//75 66//66
f 66//66 75//75 76//76
f 66//66 76//76 67//67
f 67//67 76//76 77//77
f 67//67 77//77 68//68
f 68//68 77//77 78//78
f 68//68 78//78 69//69
f 69//69 78//78 79//79
f 69//69 79//79 70//70
f 70//70 79//79 80//80
f 70//70 80//80 71//71
f 71//71 80//80 81//81
f 71//71 81//81 72//72
f 72//72 81//81 82//82
f 72//72 82//82 12//12
f 73//73 1//1 83//83
f 73//73 83//83 74//74
f 74//74 83//83 84//84
f 74//74 84//84 75//75
f 75//75 84//84 85//85
f 75//75 85//85 76//76
f 76//76 85//85 86//86
f 76//76 86//86 77//77
f 77//77 86//86 87//87
f 77//77 87//87 78//78
f 78//78 87//87 88//88
f 78//78 88//88 79//79
f 79//79 88//88 89//89
f 79//79 89//89 80//80
f 80//80 89//89 90//90
f 80//80 90//90 81//81
f 81//81 90//90 91//91
f 81//81 91//91 82//82
f 82//82 91//91 92//92
f 82//82 92//92 12//12
f 83//83 1//1 93//93
f 83//83 93//93 84//84
f 84//84 93//93 94//94
f 84//84 94//94 85//85
f 85//85 94//94 95//95
f 85//85 95//95 86//86
f 86//86 95//95 96//96
f 86//86 96//96 87//87
f 87//87 96//96 97//97
f 87//87 97//97 88//88
f 88//88 97//97 98//98
f 88//88 98//98 89//89
f 89//89 98//98 99//99
f 89//89 99//99 90//90
f 90//90 99//99 100//100
f 90//90 100//100 91//91
f 91//91 100//100 101//101
f 91//91 101//101 92//92
f 92//92 101//101 102//102
f 92//92 102//102 12//12
f 93//93 1//1 103//103
f 93//93 103//103 94//94
f 94//94 103//103 104//104
f 94//94 104//104 95//95
f 95//95 104//104 105//105
f 95//95 105//105 96//96
f 96//96 105//105 106//106
f 96//96 106//106 97//97
f 97//97 106//106 107//107
f 97//97 107//107 98//98
f 98//98 107//107 108//108
f 98//98 108//108 99//99
f 99//99 108//108 109//109
f 99//99 109//109 100//100
f 100//100 109//109 110//110
f 100//100 110//110 101//101
f 101//101 110//110 111//111
f 101//101 111//111 102//102
f 102//102 111//111 112//112
f 102//102 112//112 12//12
f 103//103 1//1 113//113
f 103//103 113//113 104//104
f 104//104 113//113 114//114
f 104//104 114//114 105//105
f 105//105 114//114 115//115
f 105//105 115//115 106//106
f 106//106 115//115 116//116
f 106//106 116//116 107//107
f 107//107 116//116 117//117
f 107//107 117//117 108//108
f 108//108 117//117 118//118
f 108//108 118//118 109//109
f 109//109 118//118 119//119
f 109//109 119//119 110//110
f 110//110 119//119 120//120
f 110//110 120//120 111//111
f 111//111 120//120 121//121
f 111//111 121//121 112//112
f 112//112 121//121 122//122
f 112//112 122//122 12//12
f 113//113 1//1 2//2
f 113//113 2//2 114//114
f 114//114 2//2 3//3
f 114//114 3//3 115//115
f 115//115 3//3 4//4
f 115//115 4//4 116//116
f 116//116 4//4 5//5
f 116//116 5//5 117//117
f 117//117 5//5 6//6
f 117//117 6//6 118//118
f 118//118 6//6 7//7
f 118//118 7//7 119//119
f 119//119 7//7 8//8
f 119//119 8//8 120//120
f 120//120 8//8 9//9
f 120//120 9//9 121//121
f 121//121 9//9 10//10
f 121//121 10//10 122//122
f 122//122 10//10 11//11
f 122//122 11//11 12//12

