# https://github.com/mikedh/trimesh
v 0.0347478 1.4517580 0.1341210
v 0.0354704 1.4520699 0.1330617
v 0.0364982 1.4521321 0.1322362
v 0.0377071 1.4519372 0.1317440
v 0.0389513 1.4515086 0.1316445
v 0.0770808 1.4308981 0.1419498
v 0.0779593 1.4301792 0.1426230
v 0.0784809 1.4294388 0.1435828
v 0.0785826 1.4287660 0.1447136
v 0.0782522 1.4282420 0.1458790
v 0.0356155 1.4526212 0.1336275
v 0.0367709 1.4531683 0.1332996
v 0.0380745 1.4533332 0.1331768
v 0.0393691 1.4530961 0.1332738
v 0.0774986 1.4324856 0.1435791
v 0.0783267 1.4315753 0.1440558
v 0.0787536 1.4304749 0.1446463
v 0.0787277 1.4293173 0.1452795
v 0.0355041 1.4528023 0.1344021
v 0.0365614 1.4535087 0.1347554
v 0.0377923 1.4537918 0.1351381
v 0.0390482 1.4536176 0.1355042
v 0.0771777 1.4330071 0.1458094
v 0.0780445 1.4320338 0.1460171
v 0.0785441 1.4308153 0.1461020
v 0.0786163 1.4294984 0.1460541
v 0.0351787 1.4525440 0.1350896
v 0.0359498 1.4530232 0.1360473
v 0.0369683 1.4531378 0.1368788
v 0.0381112 1.4528739 0.1374836
v 0.0762407 1.4322634 0.1477889
v 0.0772205 1.4313798 0.1477578
v 0.0779325 1.4303299 0.1473940
v 0.0782908 1.4292401 0.1467415
v 0.0347636 1.4519450 0.1354273
v 0.0351697 1.4518974 0.1366821
v 0.0359173 1.4516210 0.1377340
v 0.0369160 1.4511491 0.1384561
v 0.0750455 1.4305385 0.1487614
v 0.0761695 1.4298630 0.1486130
v 0.0771524 1.4292041 0.1480288
v 0.0778758 1.4286411 0.1470793
v 0.0344174 1.4512340 0.1352864
v 0.0345191 1.4505612 0.1364172
v 0.0350407 1.4498208 0.1373770
v 0.0359192 1.4491019 0.1380502
v 0.0740487 1.4284914 0.1483555
v 0.0752929 1.4280628 0.1482560
v 0.0765018 1.4278679 0.1477638
v 0.0775296 1.4279301 0.1469383
v 0.0342723 1.4506827 0.1347205
v 0.0342464 1.4495251 0.1353537
v 0.0346733 1.4484247 0.1359442
v 0.0355014 1.4475144 0.1364209
v 0.0736309 1.4269039 0.1467262
v 0.0749255 1.4266668 0.1468232
v 0.0762291 1.4268317 0.1467004
v 0.0773845 1.4273788 0.1463725
v 0.0343837 1.4505016 0.1339459
v 0.0344559 1.4491847 0.1338980
v 0.0349555 1.4479662 0.1339829
v 0.0358223 1.4469929 0.1341906
v 0.0739518 1.4263824 0.1444958
v 0.0752077 1.4262082 0.1448619
v 0.0764386 1.4264913 0.1452446
v 0.0774959 1.4271977 0.1455979
v 0.0347092 1.4507599 0.1332585
v 0.0350675 1.4496701 0.1326060
v 0.0357795 1.4486202 0.1322422
v 0.0367593 1.4477366 0.1322111
v 0.0748888 1.4271261 0.1425164
v 0.0760317 1.4268622 0.1431212
v 0.0770502 1.4269768 0.1439527
v 0.0778213 1.4274560 0.1449104
v 0.0351242 1.4513589 0.1329207
v 0.0358476 1.4507959 0.1319712
v 0.0368305 1.4501370 0.1313870
v 0.0379545 1.4494615 0.1312386
v 0.0760840 1.4288509 0.1415439
v 0.0770827 1.4283790 0.1422660
v 0.0778303 1.4281026 0.1433179
v 0.0782364 1.4280550 0.1445727
vn -0.8558489 0.4626210 -0.2313105
vn -0.6438030 0.5490233 -0.5330020
vn -0.3730840 0.5595915 -0.7400444
vn -0.0615638 0.5057761 -0.8604653
vn 0.2555133 0.3947356 -0.8825513
vn 0.5432079 0.2392250 -0.8047960
vn 0.7698191 0.0563799 -0.6357672
vn 0.9095977 -0.1337500 -0.3933737
vn 0.9451262 -0.3098573 -0.1035617
vn 0.8558489 -0.4626210 0.2313105
vn -0.6022876 0.7067825 -0.3710905
vn -0.2991648 0.8404857 -0.4517568
vn 0.0360173 0.8765863 -0.4798950
vn 0.3655585 0.8129097 -0.4533705
vn 0.6532532 0.6573991 -0.3756152
vn 0.8674002 0.4271902 -0.2551969
vn 0.9835169 0.1471442 -0.1050861
vn 0.9866415 -0.1520981 0.0583498
vn -0.6341773 0.7586063 -0.1494509
vn -0.3559453 0.9327594 -0.0571217
vn -0.0389389 0.9983974 0.0410654
vn 0.2810280 0.9502798 0.1341325
vn 0.5687227 0.7947692 0.2118878
vn 0.7924439 0.5490013 0.2657634
vn 0.9267364 0.2394179 0.2895490
vn 0.9547518 -0.1002743 0.2799894
vn -0.7272913 0.6846999 0.0472581
vn -0.5217371 0.8011671 0.2931238
vn -0.2578018 0.8246817 0.5034266
vn 0.0342096 0.7543752 0.6555515
vn 0.3219043 0.5988646 0.7333068
vn 0.5735810 0.3752855 0.7281247
vn 0.7609445 0.1078257 0.6397945
vn 0.8616378 -0.1741807 0.4766984
vn -0.8460632 0.5132930 0.1439003
vn -0.7332136 0.4959727 0.4651977
vn -0.5369732 0.4217926 0.7305825
vn -0.2806205 0.3000248 0.9117221
vn 0.0070741 0.1445142 0.9894774
vn 0.2944097 -0.0276036 0.9552806
vn 0.5494681 -0.1973687 0.8118684
vn 0.7428659 -0.3455876 0.5733406
vn -0.9451262 0.3098573 0.1035617
vn -0.9095977 0.1337500 0.3933737
vn -0.7698191 -0.0563799 0.6357672
vn -0.5432079 -0.2392250 0.8047960
vn -0.2555133 -0.3947356 0.8825513
vn 0.0615638 -0.5057761 0.8604653
vn 0.3730840 -0.5595915 0.7400444
vn 0.6438030 -0.5490233 0.5330020
vn -0.9866415 0.1520981 -0.0583498
vn -0.9835169 -0.1471442 0.1050861
vn -0.8674002 -0.4271902 0.2551969
vn -0.6532532 -0.6573991 0.3756152
vn -0.3655585 -0.8129097 0.4533705
vn -0.0360173 -0.8765863 0.4798950
vn 0.2991648 -0.8404857 0.4517568
vn 0.6022876 -0.7067825 0.3710905
vn -0.9547518 0.1002743 -0.2799894
vn -0.9267364 -0.2394179 -0.2895490
vn -0.7924439 -0.5490013 -0.2657634
vn -0.5687227 -0.7947692 -0.2118878
vn -0.2810280 -0.9502798 -0.1341325
vn 0.0389389 -0.9983974 -0.0410654
vn 0.3559453 -0.9327594 0.0571217
vn 0.6341773 -0.7586063 0.1494509
vn -0.8616378 0.1741807 -0.4766984
vn -0.7609445 -0.1078257 -0.6397945
vn -0.5735810 -0.3752855 -0.7281247
vn -0.3219043 -0.5988646 -0.7333068
vn -0.0342096 -0.7543752 -0.6555515
vn 0.2578018 -0.8246817 -0.5034266
vn 0.5217371 -0.8011671 -0.2931238
vn 0.7272913 -0.6846999 -0.0472581
vn -0.7428659 0.3455876 -0.5733406
vn -0.5494681 0.1973687 -0.8118684
vn -0.2944097 0.0276036 -0.9552806
vn -0.0070741 -0.1445142 -0.9894774
vn 0.2806205 -0.3000248 -0.9117221
vn 0.5369732 -0.4217926 -0.7305825
vn 0.7332136 -0.4959727 -0.4651977
vn 0.8460632 -0.5132930 -0.1439003
f 2//2 1//1 11//11
f 2//2 11//11 3//3
f 3//3 11//11 12//12
f 3//3 12//12 4//4
f 4//4 12//12 13//13
f 4//4 13//13 5//5
f 5//5 13//13 14//14
f 5//5 14//14 6//6
f 6//6 14//14 15//15
f 6//6 15//15 7//7
f 7//7 15//15 16//16
f 7//7 16//16 8//8
f 8//8 16//16 17//17
f 8//8 17//17 9//9
f 9//9 17//17 18//18
f 9//9 18//18 10//10
f 11//11 1//1 19//19
f 11//11 19//19 12//12
f 12//12 19//19 20//20
f 12//12 20//20 13//13
f 13//13 20//20 21//21
f 13//13 21//21 14//14
f 14//14 21//21 22//22
f 14//14 22//22 15//15
f 15//15 22//22 23//23
f 15//15 23//23 16//16
f 16//16 23//23 24//24
f 16//16 24//24 17//17
f 17//17 24//24 25//25
f 17//17 25//25 18//18
f 18//18 25//25 26//26
f 18//18 26//26 10//10
f 19//19 1//1 27//27
f 19//19 27//27 20//20
f 20//20 27//27 28//28
f 20//20 28//28 21//21
f 21//21 28//28 29//29
f 21//21 29//29 22//22
f 22//22 29//29 30//30
f 22//22 30//30 23//23
f 23//23 30//30 31//31
f 23//23 31//31 24//24
f 24//24 31//31 32//32
f 24//24 32//32 25//25
f 25//25 32//32 33//33
f 25//25 33//33 26//26
f 26//26 33//33 34//34
f 26//26 34//34 10//10
f 27//27 1//1 35//35
f 27//27 35//35 28//28
f 28//28 35//35 36//36
f 28//28 36//36 29//29
f 29//29 36//36 37//37
f 29//29 37//37 30//30
f 30//30 37//37 38//38
f 30//30 38//38 31//31
f 31//31 38//38 39//39
f 31//31 39//39 32//32
f 32//32 39//39 40//40
f 32//32 40//40 33//33
f 33//33 40//40 41//41
f 33//33 41//41 34//34
f 34//34 41//41 42//42
f 34//34 42//42 10//10
f 35//35 1//1 43//43
f 35//35 43//43 36//36
f 36//36 43//43 44//44
f 36//36 44//44 37//37
f 37//37 44//44 45//45
f 37//37 45//45 38//38
f 38//38 45//45 46//46
f 38//38 46//46 39//39
f 39//39 46//46 47//47
f 39//39 47//47 40//40
f 40//40 47//47 48//48
f 40//40 48//48 41//41
f 41//41 48//48 49//49
f 41//41 49//49 42//42
f 42//42 49//49 50//50
f 42//42 50//50 10//10
f 43//43 1//1 51//51
f 43//43 51//51 44//44
f 44//44 51//51 52//52
f 44//44 52//52 45//45
f 45//45 52//52 53//53
f 45//45 53//53 46//46
f 46//46 53//53 54//54
f 46//46 54//54 47//47
f 47//47 54//54 55//55
f 47//47 55//55 48//48
f 48//48 55//55 56//56
f 48//48 56//56 49//49
f 49//49 56//56 57//57
f 49//49 57//57 50//50
f 50//50 57//57 58//58
f 50//50 58//58 10//10
f 51//51 1//1 59//59
f 51//51 59//59 52//52
f 52//52 59//59 60//60
f 52//52 60//60 53//53
f 53//53 60//60 61//61
f 53//53 61//61 54//54
f 54//54 61//61 62//62
f 54//54 62//62 55//55
f 55//55 62//62 63//63
f 55//55 63//63 56//56
f 56//56 63//63 64//64
f 56//56 64//64 57//57
f 57//57 64//64 65//65
f 57//57 65//65 58//58
f 58//58 65//65 66//66
f 58//58 66//66 10//10
f 59//59 1//1 67//67
f 59//59 67//67 60//60
f 60//60 67//67 68//68
f 60//60 68//68 61//61
f 61//61 68//68 69//69
f 61//61 69//69 62//62
f 62//62 69//69 70//70
f 62//62 70//70 63//63
f 63//63 70//70 71//71
f 63//63 71//71 64//64
f 64//64 71//71 72//72
f 64//64 72//72 65//65
f 65//65 72//72 73//73
f 65//65 73//73 66//66
f 66//66 73//73 74//74
f 66//66 74//74 10//10
f 67//67 1//1 75//75
f 67//67 75//75 68//68
f 68//68 75//75 76//76
f 68//68 76//76 69//69
f 69//69 76//76 77//77
f 69//69 77//77 70//70
f 70//70 77//77 78//78
f 70//70 78//78 71//71
f 71//71 78//78 79//79
f 71//71 79//79 72//72
f 72//72 79//79 80//80
f 72//72 80//80 73//73
f 73//73 80//80 81//81
f 73//73 81//81 74//74
f 74//74 81//81 82//82
f 74//74 82//82 10//10
f 75//75 1//1 2//2
f 75//75 2//2 76//76
f 76//76 2//2 3//3
f 76//76 3//3 77//77
f 77//77 3//3 4//4
f 77//77 4//4 78//78
f 78//78 4//4 5//5
f 78//78 5//5 79//79
f 79//79 5//5 6//6
f 79//79 6//6 80//80
f 80//80 6//6 7//7
f 80//80 7//7 81//81
f 81//81 7//7 8//8
f 81//81 8//8 82//82
f 82//82 8//8 9//9
f 82//82 9//9 10//10

