# https://github.com/mikedh/trimesh
v -0.3976495 0.9707453 -0.0201119
v -0.3947857 0.9696697 -0.0194452
v -0.3923444 0.9678107 -0.0188234
v -0.3905232 0.9653189 -0.0182969
v -0.3894699 0.9623962 -0.0179084
v -0.3892696 0.9592794 -0.0176893
v -0.5999386 -0.0037791 -0.0076575
v -0.6014228 -0.0065314 -0.0078154
v -0.6036018 -0.0087545 -0.0081503
v -0.6062992 -0.0102684 -0.0086350
v -0.6092964 -0.0109505 -0.0092304
v -0.6123505 -0.0107453 -0.0098881
v -0.3955023 0.9698413 -0.0180202
v -0.3937195 0.9681400 -0.0160889
v -0.3924456 0.9657792 -0.0144745
v -0.3917836 0.9629502 -0.0133077
v -0.3917873 0.9598823 -0.0126830
v -0.6024564 -0.0031762 -0.0026512
v -0.6037365 -0.0059773 -0.0032147
v -0.6055241 -0.0082942 -0.0043279
v -0.6076743 -0.0099391 -0.0059006
v -0.6100130 -0.0107789 -0.0078054
v -0.3968198 0.9701385 -0.0171546
v -0.3962477 0.9687103 -0.0144277
v -0.3959797 0.9665765 -0.0121523
v -0.3960373 0.9639098 -0.0105126
v -0.3964160 0.9609265 -0.0096416
v -0.6070850 -0.0021320 0.0003903
v -0.6079902 -0.0050177 -0.0004196
v -0.6090582 -0.0074969 -0.0020057
v -0.6102025 -0.0093688 -0.0042394
v -0.6113304 -0.0104816 -0.0069398
v -0.3983850 0.9704817 -0.0170801
v -0.3992515 0.9693689 -0.0142848
v -0.4001785 0.9674971 -0.0119525
v -0.4010911 0.9650179 -0.0102722
v -0.4019153 0.9621322 -0.0093800
v -0.6125844 -0.0009263 0.0006519
v -0.6130440 -0.0039097 -0.0001792
v -0.6132571 -0.0065763 -0.0018059
v -0.6132063 -0.0087102 -0.0040965
v -0.6128957 -0.0101385 -0.0068653
v -0.3997787 0.9707789 -0.0178168
v -0.4019260 0.9699392 -0.0156985
v -0.4039171 0.9682943 -0.0139287
v -0.4055910 0.9659774 -0.0126508
v -0.4068119 0.9631763 -0.0119682
v -0.6174809 0.0001179 -0.0019364
v -0.6175439 -0.0029501 -0.0025578
v -0.6169957 -0.0057791 -0.0037821
v -0.6158808 -0.0081399 -0.0055102
v -0.6142894 -0.0098413 -0.0076020
v -0.4006274 0.9709505 -0.0191672
v -0.4035545 0.9702685 -0.0182900
v -0.4061937 0.9687546 -0.0175513
v -0.4083311 0.9665314 -0.0170110
v -0.4097935 0.9637791 -0.0167129
v -0.6204625 0.0007207 -0.0066810
v -0.6202840 -0.0023961 -0.0069180
v -0.6192722 -0.0053188 -0.0074047
v -0.6175093 -0.0078107 -0.0081017
v -0.6151381 -0.0096697 -0.0089525
v -0.4007036 0.9709505 -0.0207696
v -0.4037008 0.9702684 -0.0213650
v -0.4063982 0.9687545 -0.0218497
v -0.4085772 0.9665314 -0.0221846
v -0.4100614 0.9637791 -0.0223425
v -0.6207304 0.0007206 -0.0123107
v -0.6205301 -0.0023962 -0.0120916
v -0.6194768 -0.0053189 -0.0117031
v -0.6176556 -0.0078107 -0.0111766
v -0.6152143 -0.0096697 -0.0105548
v -0.3999870 0.9707789 -0.0221946
v -0.4023257 0.9699391 -0.0240994
v -0.4044759 0.9682942 -0.0256721
v -0.4062635 0.9659773 -0.0267853
v -0.4075436 0.9631762 -0.0273488
v -0.6182127 0.0001177 -0.0173170
v -0.6182164 -0.0029502 -0.0166923
v -0.6175544 -0.0057792 -0.0155255
v -0.6162805 -0.0081400 -0.0139111
v -0.6144977 -0.0098413 -0.0119798
v -0.3986696 0.9704816 -0.0230602
v -0.3997975 0.9693688 -0.0257606
v -0.4009418 0.9674969 -0.0279943
v -0.4020098 0.9650177 -0.0295804
v -0.4029150 0.9621320 -0.0303903
v -0.6135840 -0.0009265 -0.0203584
v -0.6139627 -0.0039098 -0.0194874
v -0.6140203 -0.0065765 -0.0178477
v -0.6137523 -0.0087103 -0.0155723
v -0.6131802 -0.0101385 -0.0128454
v -0.3971043 0.9701385 -0.0231347
v -0.3967937 0.9687102 -0.0259035
v -0.3967429 0.9665763 -0.0281941
v -0.3969560 0.9639097 -0.0298208
v -0.3974156 0.9609263 -0.0306519
v -0.6080847 -0.0021322 -0.0206200
v -0.6089089 -0.0050179 -0.0197278
v -0.6098215 -0.0074971 -0.0180475
v -0.6107485 -0.0093689 -0.0157152
v -0.6116150 -0.0104817 -0.0129199
v -0.3957106 0.9698413 -0.0223980
v -0.3941192 0.9681399 -0.0244898
v -0.3930043 0.9657791 -0.0262179
v -0.3924561 0.9629501 -0.0274422
v -0.3925191 0.9598821 -0.0280636
v -0.6031881 -0.0031763 -0.0180318
v -0.6044090 -0.0059774 -0.0173492
v -0.6060829 -0.0082943 -0.0160713
v -0.6080740 -0.0099392 -0.0143015
v -0.6102213 -0.0107789 -0.0121832
v -0.3948619 0.9696697 -0.0210475
v -0.3924907 0.9678107 -0.0218983
v -0.3907278 0.9653188 -0.0225953
v -0.3897160 0.9623961 -0.0230820
v -0.3895375 0.9592793 -0.0233190
v -0.6002065 -0.0037791 -0.0132871
v -0.6016689 -0.0065314 -0.0129890
v -0.6038063 -0.0087546 -0.0124487
v -0.6064455 -0.0102685 -0.0117100
v -0.6093726 -0.0109505 -0.0108328
vn 0.2136858 0.9768494 -0.0101755
vn 0.4931687 0.8681867 0.0551045
vn 0.7092512 0.6962320 0.1105612
vn 0.8683971 0.4703486 0.1570311
vn 0.9591544 0.2086053 0.1910674
vn 0.9752413 -0.0687286 0.2101923
vn 0.9157858 -0.3405251 0.2130235
vn 0.7853041 -0.5861387 0.1993460
vn 0.5934150 -0.7867121 0.1701255
vn 0.3542995 -0.9264043 0.1274636
vn 0.0859220 -0.9935127 0.0744972
vn -0.2136858 -0.9768494 0.0101755
vn 0.4230455 0.8849786 0.1945390
vn 0.5804637 0.7270718 0.3666449
vn 0.6913833 0.5127368 0.5090089
vn 0.7479144 0.2591893 0.6111014
vn 0.7462531 -0.0138944 0.6655173
vn 0.6867976 -0.2856910 0.6683485
vn 0.5740642 -0.5355547 0.6193800
vn 0.4164013 -0.7443239 0.5221033
vn 0.2255121 -0.8955645 0.3835474
vn 0.0157987 -0.9767208 0.2139317
vn 0.2941283 0.9140616 0.2792489
vn 0.3436960 0.7804853 0.5222220
vn 0.3659546 0.5861517 0.7228439
vn 0.3595630 0.3467994 0.8662821
vn 0.3252725 0.0810765 0.9421382
vn 0.2658170 -0.1907200 0.9449694
vn 0.1857127 -0.4479446 0.8745607
vn 0.0909726 -0.6709089 0.7359383
vn -0.0112557 -0.8421509 0.5391244
vn -0.1131185 -0.9476378 0.2986416
vn 0.1409603 0.9476430 0.2865361
vn 0.0623897 0.8421605 0.5356055
vn -0.0206907 0.6709220 0.7412392
vn -0.1018416 0.4479603 0.8882341
vn -0.1748991 0.1907369 0.9659346
vn -0.2343546 -0.0810596 0.9687659
vn -0.2756919 -0.3467837 0.8965127
vn -0.2956728 -0.5861386 0.7543336
vn -0.2925620 -0.7804758 0.5525080
vn -0.2662864 -0.9140564 0.3059288
vn 0.0045829 0.9767246 0.2144480
vn -0.1880794 0.8955714 0.4032095
vn -0.3649514 0.7443335 0.5592657
vn -0.5126663 0.5355661 0.6710754
vn -0.6202411 0.2857034 0.7305303
vn -0.6796966 0.0139069 0.7333616
vn -0.6865165 -0.2591779 0.6793540
vn -0.6399335 -0.5127272 0.5723600
vn -0.5430311 -0.7270648 0.4201120
vn -0.4026638 -0.8849748 0.2338407
vn -0.0784618 0.9935141 0.0823007
vn -0.3405982 0.9264068 0.1605094
vn -0.5745831 0.7867156 0.2256831
vn -0.7628309 0.5861429 0.2729935
vn -0.8914244 0.3405296 0.2990017
vn -0.9508799 0.0687331 0.3018329
vn -0.9366812 -0.2086011 0.2812721
vn -0.8495651 -0.4703451 0.2387774
vn -0.6955499 -0.6962294 0.1774118
vn -0.4857085 -0.8681853 0.1016934
vn -0.0859220 0.9935127 -0.0744972
vn -0.3542995 0.9264043 -0.1274636
vn -0.5934150 0.7867121 -0.1701255
vn -0.7853041 0.5861387 -0.1993460
vn -0.9157858 0.3405251 -0.2130235
vn -0.9752413 0.0687286 -0.2101923
vn -0.9591544 -0.2086053 -0.1910674
vn -0.8683971 -0.4703486 -0.1570311
vn -0.7092512 -0.6962320 -0.1105612
vn -0.4931687 -0.8681867 -0.0551045
vn -0.0157987 0.9767208 -0.2139317
vn -0.2255121 0.8955645 -0.3835474
vn -0.4164013 0.7443239 -0.5221033
vn -0.5740642 0.5355547 -0.6193800
vn -0.6867976 0.2856910 -0.6683485
vn -0.7462531 0.0138944 -0.6655173
vn -0.7479144 -0.2591893 -0.6111014
vn -0.6913833 -0.5127368 -0.5090089
vn -0.5804637 -0.7270718 -0.3666449
vn -0.4230455 -0.8849786 -0.1945390
vn 0.1131185 0.9476378 -0.2986416
vn 0.0112557 0.8421509 -0.5391244
vn -0.0909726 0.6709089 -0.7359383
vn -0.1857127 0.4479446 -0.8745607
vn -0.2658170 0.1907200 -0.9449694
vn -0.3252725 -0.0810765 -0.9421382
vn -0.3595630 -0.3467994 -0.8662821
vn -0.3659546 -0.5861517 -0.7228439
vn -0.3436960 -0.7804853 -0.5222220
vn -0.2941283 -0.9140616 -0.2792489
vn 0.2662864 0.9140564 -0.3059288
vn 0.2925620 0.7804758 -0.5525080
vn 0.2956728 0.5861386 -0.7543336
vn 0.2756919 0.3467837 -0.8965127
vn 0.2343546 0.0810596 -0.9687659
vn 0.1748991 -0.1907369 -0.9659346
vn 0.1018416 -0.4479603 -0.8882341
vn 0.0206907 -0.6709220 -0.7412392
vn -0.0623897 -0.8421605 -0.5356055
vn -0.1409603 -0.9476430 -0.2865361
vn 0.4026638 0.8849748 -0.2338407
vn 0.5430311 0.7270648 -0.4201120
vn 0.6399335 0.5127272 -0.5723600
vn 0.6865165 0.2591779 -0.6793540
vn 0.6796966 -0.0139069 -0.7333616
vn 0.6202411 -0.2857034 -0.7305303
vn 0.5126663 -0.5355661 -0.6710754
vn 0.3649514 -0.7443335 -0.5592657
vn 0.1880794 -0.8955714 -0.4032095
vn -0.0045829 -0.9767246 -0.2144480
vn 0.4857085 0.8681853 -0.1016934
vn 0.6955499 0.6962294 -0.1774118
vn 0.8495651 0.4703451 -0.2387774
vn 0.9366812 0.2086011 -0.2812721
vn 0.9508799 -0.0687331 -0.3018329
vn 0.8914244 -0.3405296 -0.2990017
vn 0.7628309 -0.5861429 -0.2729935
vn 0.5745831 -0.7867156 -0.2256831
vn 0.3405982 -0.9264068 -0.1605094
vn 0.0784618 -0.9935141 -0.0823007
f 2//2 1//1 13//13
f 2//2 13//13 3//3
f 3//3 13//13 14//14
f 3//3 14//14 4//4
f 4//4 14//14 15//15
f 4//4 15//15 5//5
f 5//5 15//15 16//16
f 5//5 16//16 6//6
f 6//6 16//16 17//17
f 6//6 17//17 7//7
f 7//7 17//17 18//18
f 7//7 18//18 8//8
f 8//8 18//18 19//19
f 8//8 19//19 9//9
f 9//9 19//19 20//20
f 9//9 20//20 10//10
f 10//10 20//20 21//21
f 10//10 21//21 11//11
f 11//11 21//21 22//22
f 11//11 22//22 12//12
f 13//13 1//1 23//23
f 13//13 23//23 14//14
f 14//14 23//23 24//24
f 14//14 24//24 15//15
f 15//15 24//24 25//25
f 15//15 25//25 16//16
f 16//16 25//25 26//26
f 16//16 26//26 17//17
f 17//17 26//26 27//27
f 17//17 27//27 18//18
f 18//18 27//27 28//28
f 18//18 28//28 19//19
f 19//19 28//28 29//29
f 19//19 29//29 20//20
f 20//20 29//29 30//30
f 20//20 30//30 21//21
f 21//21 30//30 31//31
f 21//21 31//31 22//22
f 22//22 31//31 32//32
f 22//22 32//32 12//12
f 23//23 1//1 33//33
f 23//23 33//33 24//24
f 24//24 33//33 34//34
f 24//24 34//34 25//25
f 25//25 34//34 35//35
f 25//25 35//35 26//26
f 26//26 35//35 36//36
f 26//26 36//36 27//27
f 27//27 36//36 37//37
f 27//27 37//37 28//28
f 28//28 37//37 38//38
f 28//28 38//38 29//29
f 29//29 38//38 39//39
f 29//29 39//39 30//30
f 30//30 39//39 40//40
f 30//30 40//40 31//31
f 31//31 40//40 41//41
f 31//31 41//41 32//32
f 32//32 41//41 42//42
f 32//32 42//42 12//12
f 33//33 1//1 43//43
f 33//33 43//43 34//34
f 34//34 43//43 44//44
f 34//34 44//44 35//35
f 35//35 44//44 45//45
f 35//35 45//45 36//36
f 36//36 45//45 46//46
f 36//36 46//46 37//37
f 37//37 46//46 47//47
f 37//37 47//47 38//38
f 38//38 47//47 48//48
f 38//38 48//48 39//39
f 39//39 48//48 49//49
f 39//39 49//49 40//40
f 40//40 49//49 50//50
f 40//40 50//50 41//41
f 41//41 50//50 51//51
f 41//41 51//51 42//42
f 42//42 51//51 52//52
f 42//42 52//52 12//12
f 43//43 1//1 53//53
f 43//43 53//53 44//44
f 44//44 53//53 54//54
f 44//44 54//54 45//45
f 45//45 54//54 55//55
f 45//45 55//55 46//46
f 46//46 55//55 56//56
f 46//46 56//56 47//47
f 47//47 56//56 57//57
f 47//47 57//57 48//48
f 48//48 57//57 58//58
f 48//48 58//58 49//49
f 49//49 58//58 59//59
f 49//49 59//59 50//50
f 50//50 59//59 60//60
f 50//50 60//60 51//51
f 51//51 60//60 61//61
f 51//51 61//61 52//52
f 52//52 61//61 62//62
f 52//52 62//62 12//12
f 53//53 1//1 63//63
f 53//53 63//63 54//54
f 54//54 63//63 64//64
f 54//54 64//64 55//55
f 55//55 64//64 65//65
f 55//55 65//65 56//56
f 56//56 65//65 66//66
f 56//56 66//66 57//57
f 57//57 66//66 67//67
f 57//57 67//67 58//58
f 58//58 67//67 68//68
f 58//58 68//68 59//59
f 59//59 68//68 69//69
f 59//59 69//69 60//60
f 60//60 69//69 70//70
f 60//60 70//70 61//61
f 61//61 70//70 71//71
f 61//61 71//71 62//62
f 62//62 71//71 72//72
f 62//62 72//72 12//12
f 63//63 1//1 73//73
f 63//63 73//73 64//64
f 64//64 73//73 74//74
f 64//64 74//74 65//65
f 65//65 74//74 75//75
f 65//65 75//75 66//66
f 66//66 75//75 76//76
f 66//66 76//76 67//67
f 67//67 76//76 77//77
f 67//67 77//77 68//68
f 68//68 77//77 78//78
f 68//68 78//78 69//69
f 69//69 78//78 79//79
f 69//69 79//79 70//70
f 70//70 79//79 80//80
f 70//70 80//80 71//71
f 71//71 80//80 81//81
f 71//71 81//81 72//72
f 72//72 81//81 82//82
f 72//72 82//82 12//12
f 73//73 1//1 83//83
f 73//73 83//83 74//74
f 74//74 83//83 84//84
f 74//74 84//84 75//75
f 75//75 84//84 85//85
f 75//75 85//85 76//76
f 76//76 85//85 86//86
f 76//76 86//86 77//77
f 77//77 86//86 87//87
f 77//77 87//87 78//78
f 78//78 87//87 88//88
f 78//78 88//88 79//79
f 79//79 88//88 89//89
f 79//79 89//89 80//80
f 80//80 89//89 90//90
f 80//80 90//90 81//81
f 81//81 90//90 91//91
f 81//81 91//91 82//82
f 82//82 91//91 92//92
f 82//82 92//92 12//12
f 83//83 1//1 93//93
f 83//83 93//93 84//84
f 84//84 93//93 94//94
f 84//84 94//94 85//85
f 85//85 94//94 95//95
f 85//85 95//95 86//86
f 86//86 95//95 96//96
f 86//86 96//96 87//87
f 87//87 96//96 97//97
f 87//87 97//97 88//88
f 88//88 97//97 98//98
f 88//88 98//98 89//89
f 89//89 98//98 99//99
f 89//89 99//99 90//90
f 90//90 99//99 100//100
f 90//90 100//100 91//91
f 91//91 100//100 101//101
f 91//91 101//101 92//92
f 92//92 101//101 102//102
f 92//92 102//102 12//12
f 93//93 1//1 103//103
f 93//93 103//103 94//94
f 94//94 103//103 104//104
f 94//94 104//104 95//95
f 95//95 104//104 105//105
f 95//95 105//105 96//96
f 96//96 105//105 106//106
f 96//96 106//106 97//97
f 97//97 106//106 107//107
f 97//97 107//107 98//98
f 98//98 107//107 108//108
f 98//98 108//108 99//99
f 99//99 108//108 109//109
f 99//99 109//109 100//100
f 100//100 109//109 110//110
f 100//100 110//110 101//101
f 101//101 110//110 111//111
f 101//101 111//111 102//102
f 102//102 111//111 112//112
f 102//102 112//112 12//12
f 103//103 1//1 113//113
f 103//103 113//113 104//104
f 104//104 113//113 114//114
f 104//104 114//114 105//105
f 105//105 114//114 115//115
f 105//105 115//115 106//106
f 106//106 115//115 116//116
f 106//106 116//116 107//107
f 107//107 116//116 117//117
f 107//107 117//117 108//108
f 108//108 117//117 118//118
f 108//108 118//118 109//109
f 109//109 118//118 119//119
f 109//109 119//119 110//110
f 110//110 119//119 120//120
f 110//110 120//120 111//111
f 111//111 120//120 121//121
f 111//111 121//121 112//112
f 112//112 121//121 122//122
f 112//112 122//122 12//12
f 113//113 1//1 2//2
f 113//113 2//2 114//114
f 114//114 2//2 3//3
f 114//114 3//3 115//115
f 115//115 3//3 4//4
f 115//115 4//4 116//116
f 116//116 4//4 5//5
f 116//116 5//5 117//117
f 117//117 5//5 6//6
f 117//117 6//6 118//118
f 118//118 6//6 7//7
f 118//118 7//7 119//119
f 119//119 7//7 8//8
f 119//119 8//8 120//120
f 120//120 8//8 9//9
f 120//120 9//9 121//121
f 121//121 9//9 10//10
f 121//121 10//10 122//122
f 122//122 10//10 11//11
f 122//122 11//11 12//12

