# https://github.com/mikedh/trimesh
v -0.3777885 0.9917945 0.0200000
v -0.3746121 0.9907043 0.0206230
v -0.3718722 0.9887470 0.0211956
v -0.3697908 0.9860810 0.0216713
v -0.3685365 0.9829224 0.0220116
v -0.3682108 0.9795271 0.0221890
v -0.5488403 0.0161700 0.0221890
v -0.5503738 0.0131232 0.0220116
v -0.5526872 0.0106336 0.0216713
v -0.5555930 0.0089027 0.0211956
v -0.5588559 0.0080709 0.0206230
v -0.5622115 0.0082055 0.0200000
v -0.3753559 0.9908438 0.0222010
v -0.3732995 0.9890146 0.0242237
v -0.3717859 0.9864551 0.0259042
v -0.3709378 0.9833727 0.0271064
v -0.3708238 0.9800170 0.0277329
v -0.5514533 0.0166600 0.0277329
v -0.5527751 0.0135735 0.0271064
v -0.5546823 0.0110077 0.0259042
v -0.5570203 0.0091703 0.0242237
v -0.5595997 0.0082104 0.0222010
v -0.3767755 0.9911100 0.0231892
v -0.3760236 0.9895254 0.0261201
v -0.3755939 0.9871691 0.0285551
v -0.3755212 0.9842321 0.0302971
v -0.3758113 0.9809522 0.0312048
v -0.5564407 0.0175951 0.0312048
v -0.5573585 0.0144329 0.0302971
v -0.5584903 0.0117217 0.0285551
v -0.5597444 0.0096811 0.0261201
v -0.5610192 0.0084765 0.0231892
v -0.3784905 0.9914315 0.0233229
v -0.3793147 0.9901425 0.0263766
v -0.3801945 0.9880317 0.0289137
v -0.3810585 0.9852703 0.0307286
v -0.3818367 0.9820819 0.0316744
v -0.5624662 0.0187249 0.0316744
v -0.5628958 0.0154711 0.0307286
v -0.5630909 0.0125843 0.0289137
v -0.5630355 0.0102982 0.0263766
v -0.5627343 0.0087981 0.0233229
v -0.3800414 0.9917223 0.0225662
v -0.3822910 0.9907005 0.0249245
v -0.3843549 0.9888118 0.0268838
v -0.3860660 0.9862092 0.0282855
v -0.3872857 0.9831036 0.0290159
v -0.5679152 0.0197466 0.0290159
v -0.5679034 0.0164100 0.0282855
v -0.5672513 0.0133643 0.0268838
v -0.5660118 0.0108562 0.0249245
v -0.5642852 0.0090889 0.0225662
v -0.3810127 0.9919044 0.0211219
v -0.3841549 0.9910500 0.0221529
v -0.3869604 0.9893003 0.0230094
v -0.3892020 0.9867972 0.0236222
v -0.3906982 0.9837434 0.0239415
v -0.5713276 0.0203864 0.0239415
v -0.5710394 0.0169980 0.0236222
v -0.5698568 0.0138529 0.0230094
v -0.5678757 0.0112057 0.0221529
v -0.5652565 0.0092710 0.0211219
v -0.3811441 0.9919291 0.0193770
v -0.3844070 0.9910973 0.0188044
v -0.3873128 0.9893664 0.0183287
v -0.3896262 0.9868768 0.0179884
v -0.3911597 0.9838300 0.0178110
v -0.5717892 0.0204729 0.0178110
v -0.5714635 0.0170776 0.0179884
v -0.5702092 0.0139190 0.0183287
v -0.5681278 0.0112530 0.0188044
v -0.5653879 0.0092957 0.0193770
v -0.3804003 0.9917896 0.0177990
v -0.3829797 0.9908297 0.0157763
v -0.3853177 0.9889923 0.0140958
v -0.3872249 0.9864265 0.0128936
v -0.3885467 0.9833400 0.0122671
v -0.5691762 0.0199830 0.0122671
v -0.5690622 0.0166273 0.0128936
v -0.5682141 0.0135449 0.0140958
v -0.5667005 0.0109854 0.0157763
v -0.5646441 0.0091562 0.0177990
v -0.3789808 0.9915235 0.0168108
v -0.3802556 0.9903189 0.0138799
v -0.3815097 0.9882783 0.0114449
v -0.3826415 0.9855671 0.0097029
v -0.3835593 0.9824049 0.0087952
v -0.5641887 0.0190478 0.0087952
v -0.5644788 0.0157679 0.0097029
v -0.5644061 0.0128309 0.0114449
v -0.5639764 0.0104746 0.0138799
v -0.5632245 0.0088900 0.0168108
v -0.3772657 0.9912019 0.0166771
v -0.3769645 0.9897018 0.0136234
v -0.3769091 0.9874157 0.0110863
v -0.3771042 0.9845289 0.0092714
v -0.3775338 0.9812751 0.0083256
v -0.5581633 0.0179181 0.0083256
v -0.5589415 0.0147297 0.0092714
v -0.5598055 0.0119683 0.0110863
v -0.5606853 0.0098575 0.0136234
v -0.5615095 0.0085685 0.0166771
v -0.3757148 0.9909111 0.0174338
v -0.3739882 0.9891438 0.0150755
v -0.3727487 0.9866357 0.0131162
v -0.3720966 0.9835900 0.0117145
v -0.3720848 0.9802534 0.0109841
v -0.5527143 0.0168964 0.0109841
v -0.5539340 0.0137908 0.0117145
v -0.5556451 0.0111882 0.0131162
v -0.5577090 0.0092995 0.0150755
v -0.5599586 0.0082777 0.0174338
v -0.3747435 0.9907290 0.0188781
v -0.3721243 0.9887943 0.0178471
v -0.3701432 0.9861471 0.0169906
v -0.3689606 0.9830020 0.0163778
v -0.3686724 0.9796136 0.0160585
v -0.5493018 0.0162566 0.0160585
v -0.5507980 0.0132028 0.0163778
v -0.5530396 0.0106997 0.0169906
v -0.5558451 0.0089500 0.0178471
v -0.5589873 0.0080956 0.0188781
vn 0.1842885 0.9828722 -0.0000000
vn 0.4685641 0.8816600 0.0558860
vn 0.6910952 0.7154387 0.1026396
vn 0.8580860 0.4937474 0.1410744
vn 0.9574633 0.2343539 0.1683516
vn 0.9822817 -0.0426346 0.1824965
vn 0.9310057 -0.3161068 0.1824965
vn 0.8075301 -0.5652901 0.1683516
vn 0.6209339 -0.7710636 0.1410744
vn 0.3849751 -0.9172019 0.1026396
vn 0.1173433 -0.9915177 0.0558860
vn -0.1842885 -0.9828722 -0.0000000
vn 0.4018514 0.8941687 0.1974281
vn 0.5685714 0.7384119 0.3625941
vn 0.6896814 0.5253233 0.4983724
vn 0.7564971 0.2720350 0.5947345
vn 0.7644304 -0.0017874 0.6447038
vn 0.7131544 -0.2752597 0.6447038
vn 0.6065639 -0.5276090 0.5947345
vn 0.4525293 -0.7394878 0.4983724
vn 0.2624513 -0.8942286 0.3625941
vn 0.0506306 -0.9790090 0.1974281
vn 0.2745175 0.9180438 0.2860695
vn 0.3347116 0.7822606 0.5253917
vn 0.3682495 0.5855917 0.7221320
vn 0.3729154 0.3439566 0.8617587
vn 0.3486203 0.0761770 0.9341632
vn 0.2973442 -0.1972953 0.9341632
vn 0.2229821 -0.4556874 0.8617587
vn 0.1310975 -0.6792193 0.7221320
vn 0.0285915 -0.8503799 0.5253917
vn -0.0767033 -0.9551339 0.2860695
vn 0.1206816 0.9468880 0.2980588
vn 0.0521785 0.8352356 0.5474111
vn -0.0200821 0.6584039 0.7523968
vn -0.0905015 0.4308473 0.8978753
vn -0.1537327 0.1703681 0.9733144
vn -0.2050087 -0.1031041 0.9733144
vn -0.2404348 -0.3687967 0.8978753
vn -0.2572341 -0.6064071 0.7523968
vn -0.2539416 -0.7974050 0.5474111
vn -0.2305392 -0.9262897 0.2980588
vn -0.0184362 0.9729726 0.2301835
vn -0.2033236 0.8831422 0.4227522
vn -0.3712604 0.7242499 0.5810576
vn -0.5095813 0.5094247 0.6934070
vn -0.6080234 0.2555476 0.7516668
vn -0.6592994 -0.0179246 0.7516668
vn -0.6595146 -0.2902192 0.6934070
vn -0.6084124 -0.5405612 0.5810576
vn -0.5094437 -0.7494983 0.4227522
vn -0.3696570 -0.9002051 0.2301835
vn -0.1055594 0.9893082 0.1006307
vn -0.3633329 0.9131439 0.1848171
vn -0.5911874 0.7654862 0.2540244
vn -0.7720320 0.5586342 0.3031409
vn -0.8925250 0.3088917 0.3286106
vn -0.9438011 0.0354194 0.3286106
vn -0.9219652 -0.2410097 0.3031409
vn -0.8283395 -0.4993249 0.2540244
vn -0.6694530 -0.7194966 0.1848171
vn -0.4567802 -0.8838695 0.1006307
vn -0.1173433 0.9915177 -0.0558860
vn -0.3849751 0.9172019 -0.1026396
vn -0.6209339 0.7710636 -0.1410744
vn -0.8075301 0.5652901 -0.1683516
vn -0.9310057 0.3161068 -0.1824965
vn -0.9822817 0.0426346 -0.1824965
vn -0.9574633 -0.2343539 -0.1683516
vn -0.8580860 -0.4937474 -0.1410744
vn -0.6910952 -0.7154387 -0.1026396
vn -0.4685641 -0.8816600 -0.0558860
vn -0.0506306 0.9790090 -0.1974281
vn -0.2624513 0.8942286 -0.3625941
vn -0.4525293 0.7394878 -0.4983724
vn -0.6065639 0.5276090 -0.5947345
vn -0.7131544 0.2752597 -0.6447038
vn -0.7644304 0.0017874 -0.6447038
vn -0.7564971 -0.2720350 -0.5947345
vn -0.6896814 -0.5253233 -0.4983724
vn -0.5685714 -0.7384119 -0.3625941
vn -0.4018514 -0.8941687 -0.1974281
vn 0.0767033 0.9551339 -0.2860695
vn -0.0285915 0.8503799 -0.5253917
vn -0.1310975 0.6792193 -0.7221320
vn -0.2229821 0.4556874 -0.8617587
vn -0.2973442 0.1972953 -0.9341632
vn -0.3486203 -0.0761770 -0.9341632
vn -0.3729154 -0.3439566 -0.8617587
vn -0.3682495 -0.5855917 -0.7221320
vn -0.3347116 -0.7822606 -0.5253917
vn -0.2745175 -0.9180438 -0.2860695
vn 0.2305392 0.9262897 -0.2980588
vn 0.2539416 0.7974050 -0.5474111
vn 0.2572341 0.6064071 -0.7523968
vn 0.2404348 0.3687967 -0.8978753
vn 0.2050087 0.1031041 -0.9733144
vn 0.1537327 -0.1703681 -0.9733144
vn 0.0905015 -0.4308473 -0.8978753
vn 0.0200821 -0.6584039 -0.7523968
vn -0.0521785 -0.8352356 -0.5474111
vn -0.1206816 -0.9468880 -0.2980588
vn 0.3696570 0.9002051 -0.2301835
vn 0.5094437 0.7494983 -0.4227522
vn 0.6084124 0.5405612 -0.5810576
vn 0.6595146 0.2902192 -0.6934070
vn 0.6592994 0.0179246 -0.7516668
vn 0.6080234 -0.2555476 -0.7516668
vn 0.5095813 -0.5094247 -0.6934070
vn 0.3712604 -0.7242499 -0.5810576
vn 0.2033236 -0.8831422 -0.4227522
vn 0.0184362 -0.9729726 -0.2301835
vn 0.4567802 0.8838695 -0.1006307
vn 0.6694530 0.7194966 -0.1848171
vn 0.8283395 0.4993249 -0.2540244
vn 0.9219652 0.2410097 -0.3031409
vn 0.9438011 -0.0354194 -0.3286106
vn 0.8925250 -0.3088917 -0.3286106
vn 0.7720320 -0.5586342 -0.3031409
vn 0.5911874 -0.7654862 -0.2540244
vn 0.3633329 -0.9131439 -0.1848171
vn 0.1055594 -0.9893082 -0.1006307
f 2//2 1//1 13//13
f 2//2 13//13 3//3
f 3//3 13//13 14//14
f 3//3 14//14 4//4
f 4//4 14//14 15//15
f 4//4 15//15 5//5
f 5//5 15//15 16//16
f 5//5 16//16 6//6
f 6//6 16//16 17//17
f 6//6 17//17 7//7
f 7//7 17//17 18//18
f 7//7 18//18 8//8
f 8//8 18//18 19//19
f 8//8 19//19 9//9
f 9//9 19//19 20//20
f 9//9 20//20 10//10
f 10//10 20//20 21//21
f 10//10 21//21 11//11
f 11//11 21//21 22//22
f 11//11 22//22 12//12
f 13//13 1//1 23//23
f 13//13 23//23 14//14
f 14//14 23//23 24//24
f 14//14 24//24 15//15
f 15//15 24//24 25//25
f 15//15 25//25 16//16
f 16//16 25//25 26//26
f 16//16 26//26 17//17
f 17//17 26//26 27//27
f 17//17 27//27 18//18
f 18//18 27//27 28//28
f 18//18 28//28 19//19
f 19//19 28//28 29//29
f 19//19 29//29 20//20
f 20//20 29//29 30//30
f 20//20 30//30 21//21
f 21//21 30//30 31//31
f 21//21 31//31 22//22
f 22//22 31//31 32//32
f 22//22 32//32 12//12
f 23//23 1//1 33//33
f 23//23 33//33 24//24
f 24//24 33//33 34//34
f 24//24 34//34 25//25
f 25//25 34//34 35//35
f 25//25 35//35 26//26
f 26//26 35//35 36//36
f 26//26 36//36 27//27
f 27//27 36//36 37//37
f 27//27 37//37 28//28
f 28//28 37//37 38//38
f 28//28 38//38 29//29
f 29//29 38//38 39//39
f 29//29 39//39 30//30
f 30//30 39//39 40//40
f 30//30 40//40 31//31
f 31//31 40//40 41//41
f 31//31 41//41 32//32
f 32//32 41//41 42//42
f 32//32 42//42 12//12
f 33//33 1//1 43//43
f 33//33 43//43 34//34
f 34//34 43//43 44//44
f 34//34 44//44 35//35
f 35//35 44//44 45//45
f 35//35 45//45 36//36
f 36//36 45//45 46//46
f 36//36 46//46 37//37
f 37//37 46//46 47//47
f 37//37 47//47 38//38
f 38//38 47//47 48//48
f 38//38 48//48 39//39
f 39//39 48//48 49//49
f 39//39 49//49 40//40
f 40//40 49//49 50//50
f 40//40 50//50 41//41
f 41//41 50//50 51//51
f 41//41 51//51 42//42
f 42//42 51//51 52//52
f 42//42 52//52 12//12
f 43//43 1//1 53//53
f 43//43 53//53 44//44
f 44//44 53//53 54//54
f 44//44 54//54 45//45
f 45//45 54//54 55//55
f 45//45 55//55 46//46
f 46//46 55//55 56//56
f 46//46 56//56 47//47
f 47//47 56//56 57//57
f 47//47 57//57 48//48
f 48//48 57//57 58//58
f 48//48 58//58 49//49
f 49//49 58//58 59//59
f 49//49 59//59 50//50
f 50//50 59//59 60//60
f 50//50 60//60 51//51
f 51//51 60//60 61//61
f 51//51 61//61 52//52
f 52//52 61//61 62//62
f 52//52 62//62 12//12
f 53//53 1//1 63//63
f 53//53 63//63 54//54
f 54//54 63//63 64//64
f 54//54 64//64 55//55
f 55//55 64//64 65//65
f 55//55 65//65 56//56
f 56//56 65//65 66//66
f 56//56 66//66 57//57
f 57//57 66//66 67//67
f 57//57 67//67 58//58
f 58//58 67//67 68//68
f 58//58 68//68 59//59
f 59//59 68//68 69//69
f 59//59 69//69 60//60
f 60//60 69//69 70//70
f 60//60 70//70 61//61
f 61//61 70//70 71//71
f 61//61 71//71 62//62
f 62//62 71//71 72//72
f 62//62 72//72 12//12
f 63//63 1//1 73//73
f 63//63 73//73 64//64
f 64//64 73//73 74//74
f 64//64 74//74 65//65
f 65//65 74//74 75//75
f 65//65 75//75 66//66
f 66//66 75//75 76//76
f 66//66 76//76 67//67
f 67//67 76//76 77//77
f 67//67 77//77 68//68
f 68//68 77//77 78//78
f 68//68 78//78 69//69
f 69//69 78//78 79//79
f 69//69 79//79 70//70
f 70//70 79//79 80//80
f 70//70 80//80 71//71
f 71//71 80//80 81//81
f 71//71 81//81 72//72
f 72//72 81//81 82//82
f 72//72 82//82 12//12
f 73//73 1//1 83//83
f 73//73 83//83 74//74
f 74//74 83//83 84//84
f 74//74 84//84 75//75
f 75//75 84//84 85//85
f 75//75 85//85 76//76
f 76//76 85//85 86//86
f 76//76 86//86 77//77
f 77//77 86//86 87//87
f 77//77 87//87 78//78
f 78//78 87//87 88//88
f 78//78 88//88 79//79
f 79//79 88//88 89//89
f 79//79 89//89 80//80
f 80//80 89//89 90//90
f 80//80 90//90 81//81
f 81//81 90//90 91//91
f 81//81 91//91 82//82
f 82//82 91//91 92//92
f 82//82 92//92 12//12
f 83//83 1//1 93//93
f 83//83 93//93 84//84
f 84//84 93//93 94//94
f 84//84 94//94 85//85
f 85//85 94//94 95//95
f 85//85 95//95 86//86
f 86//86 95//95 96//96
f 86//86 96//96 87//87
f 87//87 96//96 97//97
f 87//87 97//97 88//88
f 88//88 97//97 98//98
f 88//88 98//98 89//89
f 89//89 98//98 99//99
f 89//89 99//99 90//90
f 90//90 99//99 100//100
f 90//90 100//100 91//91
f 91//91 100//100 101//101
f 91//91 101//101 92//92
f 92//92 101//101 102//102
f 92//92 102//102 12//12
f 93//93 1//1 103//103
f 93//93 103//103 94//94
f 94//94 103//103 104//104
f 94//94 104//104 95//95
f 95//95 104//104 105//105
f 95//95 105//105 96//96
f 96//96 105//105 106//106
f 96//96 106//106 97//97
f 97//97 106//106 107//107
f 97//97 107//107 98//98
f 98//98 107//107 108//108
f 98//98 108//108 99//99
f 99//99 108//108 109//109
f 99//99 109//109 100//100
f 100//100 109//109 110//110
f 100//100 110//110 101//101
f 101//101 110//110 111//111
f 101//101 111//111 102//102
f 102//102 111//111 112//112
f 102//102 112//112 12//12
f 103//103 1//1 113//113
f 103//103 113//113 104//104
f 104//104 113//113 114//114
f 104//104 114//114 105//105
f 105//105 114//114 115//115
f 105//105 115//115 106//106
f 106//106 115//115 116//116
f 106//106 116//116 107//107
f 107//107 116//116 117//117
f 107//107 117//117 108//108
f 108//108 117//117 118//118
f 108//108 118//118 109//109
f 109//109 118//118 119//119
f 109//109 119//119 110//110
f 110//110 119//119 120//120
f 110//110 120//120 111//111
f 111//111 120//120 121//121
f 111//111 121//121 112//112
f 112//112 121//121 122//122
f 112//112 122//122 12//12
f 113//113 1//1 2//2
f 113//113 2//2 114//114
f 114//114 2//2 3//3
f 114//114 3//3 115//115
f 115//115 3//3 4//4
f 115//115 4//4 116//116
f 116//116 4//4 5//5
f 116//116 5//5 117//117
f 117//117 5//5 6//6
f 117//117 6//6 118//118
f 118//118 6//6 7//7
f 118//118 7//7 119//119
f 119//119 7//7 8//8
f 119//119 8//8 120//120
f 120//120 8//8 9//9
f 120//120 9//9 121//121
f 121//121 9//9 10//10
f 121//121 10//10 122//122
f 122//122 10//10 11//11
f 122//122 11//11 12//12

