# https://github.com/mikedh/trimesh
v 0.0297511 1.5014937 0.1015148
v 0.0310628 1.5014211 0.1016398
v 0.0322464 1.5011770 0.1021701
v 0.0331591 1.5007910 0.1030418
v 0.0336907 1.5003096 0.1041496
v 0.0387771 1.4697909 0.1753600
v 0.0384080 1.4692974 0.1765270
v 0.0376278 1.4688886 0.1775098
v 0.0365307 1.4686139 0.1781899
v 0.0352489 1.4685063 0.1784852
v 0.0308254 1.5021201 0.1019563
v 0.0318003 1.5024908 0.1027650
v 0.0325579 1.5025610 0.1038433
v 0.0330071 1.5023224 0.1050611
v 0.0380936 1.4718037 0.1762715
v 0.0378069 1.4710674 0.1773285
v 0.0371817 1.4702023 0.1781047
v 0.0362933 1.4693129 0.1785065
v 0.0301834 1.5025454 0.1021845
v 0.0305936 1.5032902 0.1031938
v 0.0309322 1.5036381 0.1044210
v 0.0311584 1.5035472 0.1057180
v 0.0362449 1.4730284 0.1769284
v 0.0361812 1.4721444 0.1779063
v 0.0359750 1.4710017 0.1785335
v 0.0356513 1.4697382 0.1787346
v 0.0293819 1.5025347 0.1022371
v 0.0290874 1.5032699 0.1032927
v 0.0289029 1.5036108 0.1045542
v 0.0288507 1.5035161 0.1058695
v 0.0339372 1.4729974 0.1770800
v 0.0341518 1.4721171 0.1780395
v 0.0344688 1.4709815 0.1786324
v 0.0348498 1.4697275 0.1787872
v 0.0287272 1.5020918 0.1020941
v 0.0278569 1.5024377 0.1030239
v 0.0272451 1.5024895 0.1041921
v 0.0269655 1.5022411 0.1054578
v 0.0320520 1.4717223 0.1766682
v 0.0324940 1.4709959 0.1776774
v 0.0332383 1.4701492 0.1783637
v 0.0341951 1.4692846 0.1786442
v 0.0284693 1.5013861 0.1018101
v 0.0273722 1.5011114 0.1024902
v 0.0265920 1.5007026 0.1034730
v 0.0262229 1.5002091 0.1046400
v 0.0313093 1.4696904 0.1758504
v 0.0318409 1.4692090 0.1769582
v 0.0327536 1.4688230 0.1778299
v 0.0339372 1.4685789 0.1783602
v 0.0287067 1.5006871 0.1014935
v 0.0278183 1.4997977 0.1018953
v 0.0271931 1.4989326 0.1026715
v 0.0269064 1.4981963 0.1037285
v 0.0319929 1.4676776 0.1749389
v 0.0324421 1.4674390 0.1761567
v 0.0331997 1.4675092 0.1772350
v 0.0341746 1.4678799 0.1780437
v 0.0293487 1.5002618 0.1012654
v 0.0290250 1.4989983 0.1014665
v 0.0288188 1.4978556 0.1020937
v 0.0287551 1.4969716 0.1030716
v 0.0338416 1.4664528 0.1742820
v 0.0340678 1.4663619 0.1755790
v 0.0344064 1.4667098 0.1768062
v 0.0348166 1.4674546 0.1778155
v 0.0301502 1.5002725 0.1012128
v 0.0305312 1.4990185 0.1013676
v 0.0308482 1.4978829 0.1019605
v 0.0310628 1.4970026 0.1029200
v 0.0361493 1.4664839 0.1741305
v 0.0360971 1.4663892 0.1754458
v 0.0359126 1.4667301 0.1767073
v 0.0356181 1.4674653 0.1777629
v 0.0308049 1.5007154 0.1013558
v 0.0317617 1.4998508 0.1016363
v 0.0325060 1.4990041 0.1023226
v 0.0329480 1.4982777 0.1033318
v 0.0380345 1.4677589 0.1745422
v 0.0377549 1.4675105 0.1758079
v 0.0371431 1.4675623 0.1769761
v 0.0362728 1.4679082 0.1779059
vn -0.0655122 0.3930731 -0.9171705
vn 0.3102443 0.3698757 -0.8757514
vn 0.6115855 0.3034481 -0.7306725
vn 0.8403454 0.2026592 -0.5027414
vn 0.9725563 0.0793067 -0.2187342
vn 0.9945783 -0.0528253 0.0895738
vn 0.9039848 -0.1791771 0.3882101
vn 0.7097703 -0.2856601 0.6439134
vn 0.4318711 -0.3598854 0.8270247
vn 0.0655122 -0.3930731 0.9171705
vn 0.2423146 0.5698968 -0.7851759
vn 0.4906351 0.6595909 -0.5694006
vn 0.6806779 0.6728056 -0.2898453
vn 0.7924944 0.6095052 0.0213553
vn 0.8145164 0.4773732 0.3296633
vn 0.7443173 0.2909692 0.6011062
vn 0.5888198 0.0704827 0.8051854
vn 0.3639415 -0.1598643 0.9176001
vn 0.0586004 0.6916087 -0.7198912
vn 0.1635271 0.8763021 -0.4531595
vn 0.2488605 0.9588873 -0.1363947
vn 0.3055207 0.9321284 0.1944062
vn 0.3275427 0.7999964 0.5027142
vn 0.3124999 0.5770510 0.7545568
vn 0.2617118 0.2871938 0.9214264
vn 0.1802272 -0.0381525 0.9828848
vn -0.1707259 0.6885215 -0.7048339
vn -0.2447943 0.8708053 -0.4263495
vn -0.2901671 0.9516310 -0.1010026
vn -0.3023573 0.9239452 0.2343190
vn -0.2803353 0.7918132 0.5426269
vn -0.2265277 0.5697946 0.7899489
vn -0.1466096 0.2816970 0.9482365
vn -0.0490990 -0.0412396 0.9979422
vn -0.3580693 0.5618145 -0.7457552
vn -0.5783642 0.6452001 -0.4992110
vn -0.7305148 0.6538082 -0.1971875
vn -0.7989510 0.5880813 0.1258483
vn -0.7769290 0.4559493 0.4341562
vn -0.6668755 0.2719718 0.6937640
vn -0.4801795 0.0560919 0.8753750
vn -0.2364425 -0.1679467 0.9570208
vn -0.4318711 0.3598854 -0.8270247
vn -0.7097703 0.2856601 -0.6439134
vn -0.9039848 0.1791771 -0.3882101
vn -0.9945783 0.0528253 -0.0895738
vn -0.9725563 -0.0793067 0.2187342
vn -0.8403454 -0.2026592 0.5027414
vn -0.6115855 -0.3034481 0.7306725
vn -0.3102443 -0.3698757 0.8757514
vn -0.3639415 0.1598643 -0.9176001
vn -0.5888198 -0.0704827 -0.8051854
vn -0.7443173 -0.2909692 -0.6011062
vn -0.8145164 -0.4773732 -0.3296633
vn -0.7924944 -0.6095052 -0.0213553
vn -0.6806779 -0.6728056 0.2898453
vn -0.4906351 -0.6595909 0.5694006
vn -0.2423146 -0.5698968 0.7851759
vn -0.1802272 0.0381525 -0.9828848
vn -0.2617118 -0.2871938 -0.9214264
vn -0.3124999 -0.5770510 -0.7545568
vn -0.3275427 -0.7999964 -0.5027142
vn -0.3055207 -0.9321284 -0.1944062
vn -0.2488605 -0.9588873 0.1363947
vn -0.1635271 -0.8763021 0.4531595
vn -0.0586004 -0.6916087 0.7198912
vn 0.0490990 0.0412396 -0.9979422
vn 0.1466096 -0.2816970 -0.9482365
vn 0.2265277 -0.5697946 -0.7899489
vn 0.2803353 -0.7918132 -0.5426269
vn 0.3023573 -0.9239452 -0.2343190
vn 0.2901671 -0.9516310 0.1010026
vn 0.2447943 -0.8708053 0.4263495
vn 0.1707259 -0.6885215 0.7048339
vn 0.2364425 0.1679467 -0.9570208
vn 0.4801795 -0.0560919 -0.8753750
vn 0.6668755 -0.2719718 -0.6937640
vn 0.7769290 -0.4559493 -0.4341562
vn 0.7989510 -0.5880813 -0.1258483
vn 0.7305148 -0.6538082 0.1971875
vn 0.5783642 -0.6452001 0.4992110
vn 0.3580693 -0.5618145 0.7457552
f 2//2 1//1 11//11
f 2//2 11//11 3//3
f 3//3 11//11 12//12
f 3//3 12//12 4//4
f 4//4 12//12 13//13
f 4//4 13//13 5//5
f 5//5 13//13 14//14
f 5//5 14//14 6//6
f 6//6 14//14 15//15
f 6//6 15//15 7//7
f 7//7 15//15 16//16
f 7//7 16//16 8//8
f 8//8 16//16 17//17
f 8//8 17//17 9//9
f 9//9 17//17 18//18
f 9//9 18//18 10//10
f 11//11 1//1 19//19
f 11//11 19//19 12//12
f 12//12 19//19 20//20
f 12//12 20//20 13//13
f 13//13 20//20 21//21
f 13//13 21//21 14//14
f 14//14 21//21 22//22
f 14//14 22//22 15//15
f 15//15 22//22 23//23
f 15//15 23//23 16//16
f 16//16 23//23 24//24
f 16//16 24//24 17//17
f 17//17 24//24 25//25
f 17//17 25//25 18//18
f 18//18 25//25 26//26
f 18//18 26//26 10//10
f 19//19 1//1 27//27
f 19//19 27//27 20//20
f 20//20 27//27 28//28
f 20//20 28//28 21//21
f 21//21 28//28 29//29
f 21//21 29//29 22//22
f 22//22 29//29 30//30
f 22//22 30//30 23//23
f 23//23 30//30 31//31
f 23//23 31//31 24//24
f 24//24 31//31 32//32
f 24//24 32//32 25//25
f 25//25 32//32 33//33
f 25//25 33//33 26//26
f 26//26 33//33 34//34
f 26//26 34//34 10//10
f 27//27 1//1 35//35
f 27//27 35//35 28//28
f 28//28 35//35 36//36
f 28//28 36//36 29//29
f 29//29 36//36 37//37
f 29//29 37//37 30//30
f 30//30 37//37 38//38
f 30//30 38//38 31//31
f 31//31 38//38 39//39
f 31//31 39//39 32//32
f 32//32 39//39 40//40
f 32//32 40//40 33//33
f 33//33 40//40 41//41
f 33//33 41//41 34//34
f 34//34 41//41 42//42
f 34//34 42//42 10//10
f 35//35 1//1 43//43
f 35//35 43//43 36//36
f 36//36 43//43 44//44
f 36//36 44//44 37//37
f 37//37 44//44 45//45
f 37//37 45//45 38//38
f 38//38 45//45 46//46
f 38//38 46//46 39//39
f 39//39 46//46 47//47
f 39//39 47//47 40//40
f 40//40 47//47 48//48
f 40//40 48//48 41//41
f 41//41 48//48 49//49
f 41//41 49//49 42//42
f 42//42 49//49 50//50
f 42//42 50//50 10//10
f 43//43 1//1 51//51
f 43//43 51//51 44//44
f 44//44 51//51 52//52
f 44//44 52//52 45//45
f 45//45 52//52 53//53
f 45//45 53//53 46//46
f 46//46 53//53 54//54
f 46//46 54//54 47//47
f 47//47 54//54 55//55
f 47//47 55//55 48//48
f 48//48 55//55 56//56
f 48//48 56//56 49//49
f 49//49 56//56 57//57
f 49//49 57//57 50//50
f 50//50 57//57 58//58
f 50//50 58//58 10//10
f 51//51 1//1 59//59
f 51//51 59//59 52//52
f 52//52 59//59 60//60
f 52//52 60//60 53//53
f 53//53 60//60 61//61
f 53//53 61//61 54//54
f 54//54 61//61 62//62
f 54//54 62//62 55//55
f 55//55 62//62 63//63
f 55//55 63//63 56//56
f 56//56 63//63 64//64
f 56//56 64//64 57//57
f 57//57 64//64 65//65
f 57//57 65//65 58//58
f 58//58 65//65 66//66
f 58//58 66//66 10//10
f 59//59 1//1 67//67
f 59//59 67//67 60//60
f 60//60 67//67 68//68
f 60//60 68//68 61//61
f 61//61 68//68 69//69
f 61//61 69//69 62//62
f 62//62 69//69 70//70
f 62//62 70//70 63//63
f 63//63 70//70 71//71
f 63//63 71//71 64//64
f 64//64 71//71 72//72
f 64//64 72//72 65//65
f 65//65 72//72 73//73
f 65//65 73//73 66//66
f 66//66 73//73 74//74
f 66//66 74//74 10//10
f 67//67 1//1 75//75
f 67//67 75//75 68//68
f 68//68 75//75 76//76
f 68//68 76//76 69//69
f 69//69 76//76 77//77
f 69//69 77//77 70//70
f 70//70 77//77 78//78
f 70//70 78//78 71//71
f 71//71 78//78 79//79
f 71//71 79//79 72//72
f 72//72 79//79 80//80
f 72//72 80//80 73//73
f 73//73 80//80 81//81
f 73//73 81//81 74//74
f 74//74 81//81 82//82
f 74//74 82//82 10//10
f 75//75 1//1 2//2
f 75//75 2//2 76//76
f 76//76 2//2 3//3
f 76//76 3//3 77//77
f 77//77 3//3 4//4
f 77//77 4//4 78//78
f 78//78 4//4 5//5
f 78//78 5//5 79//79
f 79//79 5//5 6//6
f 79//79 6//6 80//80
f 80//80 6//6 7//7
f 80//80 7//7 81//81
f 81//81 7//7 8//8
f 81//81 8//8 82//82
f 82//82 8//8 9//9
f 82//82 9//9 10//10

