# https://github.com/mikedh/trimesh
v 0.0168661 1.6937607 0.0774929
v 0.0181970 1.6940230 0.0767115
v 0.0196740 1.6939595 0.0761965
v 0.0211774 1.6935751 0.0759897
v 0.0225854 1.6929011 0.0761078
v 0.0237839 1.6919921 0.0765412
v 0.0746759 1.6309217 0.1172548
v 0.0751891 1.6297766 0.1181908
v 0.0752819 1.6286497 0.1192734
v 0.0749468 1.6276321 0.1204148
v 0.0742109 1.6268063 0.1215227
v 0.0731339 1.6262393 0.1225071
v 0.0182430 1.6944934 0.0773595
v 0.0197623 1.6948622 0.0774401
v 0.0213009 1.6948370 0.0777281
v 0.0227340 1.6944199 0.0782001
v 0.0239457 1.6936448 0.0788180
v 0.0748377 1.6325744 0.1195316
v 0.0753378 1.6312954 0.1202831
v 0.0754054 1.6299115 0.1210118
v 0.0750352 1.6285348 0.1216584
v 0.0742570 1.6272767 0.1221707
v 0.0179541 1.6947267 0.0780705
v 0.0192079 1.6953097 0.0788045
v 0.0205259 1.6954626 0.0796353
v 0.0218013 1.6951730 0.0804957
v 0.0229307 1.6944642 0.0813159
v 0.0738227 1.6333938 0.1220295
v 0.0744050 1.6320485 0.1225787
v 0.0746305 1.6305372 0.1229190
v 0.0744808 1.6289823 0.1230228
v 0.0739681 1.6275100 0.1228817
v 0.0174077 1.6946603 0.0786539
v 0.0181594 1.6951823 0.0799241
v 0.0190601 1.6952845 0.0812003
v 0.0200370 1.6949586 0.0823794
v 0.0210109 1.6942309 0.0833656
v 0.0719029 1.6331605 0.1240792
v 0.0726408 1.6318341 0.1244624
v 0.0731647 1.6303590 0.1244840
v 0.0734322 1.6288549 0.1241423
v 0.0734217 1.6274435 0.1234651
v 0.0167502 1.6943120 0.0789535
v 0.0168975 1.6945140 0.0804988
v 0.0172963 1.6943503 0.0820038
v 0.0179140 1.6938341 0.0833464
v 0.0187008 1.6930073 0.0844179
v 0.0695928 1.6319369 0.1251315
v 0.0705178 1.6307096 0.1254294
v 0.0714008 1.6294248 0.1252874
v 0.0721704 1.6281866 0.1247171
v 0.0727641 1.6270953 0.1237646
v 0.0161577 1.6937752 0.0788888
v 0.0157606 1.6934838 0.0803748
v 0.0157070 1.6929103 0.0818304
v 0.0160011 1.6921009 0.0831377
v 0.0166192 1.6911213 0.0841908
v 0.0675112 1.6300509 0.1249044
v 0.0686049 1.6289764 0.1252207
v 0.0698115 1.6279848 0.1251140
v 0.0710335 1.6271564 0.1245931
v 0.0721717 1.6265585 0.1237000
v 0.0157891 1.6931937 0.0784773
v 0.0150532 1.6923679 0.0795852
v 0.0147181 1.6913503 0.0807266
v 0.0148109 1.6902234 0.0818092
v 0.0153241 1.6890783 0.0827452
v 0.0662161 1.6280079 0.1234588
v 0.0674146 1.6270989 0.1238922
v 0.0688226 1.6264249 0.1240103
v 0.0703260 1.6260405 0.1238035
v 0.0718030 1.6259770 0.1232885
v 0.0157430 1.6927233 0.0778293
v 0.0149648 1.6914652 0.0783416
v 0.0145946 1.6900885 0.0789882
v 0.0146622 1.6887046 0.0797169
v 0.0151623 1.6874256 0.0804684
v 0.0660543 1.6263552 0.1211820
v 0.0672660 1.6255801 0.1217999
v 0.0686991 1.6251630 0.1222719
v 0.0702377 1.6251378 0.1225599
v 0.0717570 1.6255066 0.1226405
v 0.0160319 1.6924900 0.0771183
v 0.0155192 1.6910177 0.0769772
v 0.0153695 1.6894628 0.0770810
v 0.0155950 1.6879515 0.0774213
v 0.0161773 1.6866062 0.0779705
v 0.0670693 1.6255358 0.1186841
v 0.0681987 1.6248270 0.1195043
v 0.0694741 1.6245374 0.1203647
v 0.0707921 1.6246903 0.1211955
v 0.0720459 1.6252733 0.1219295
v 0.0165783 1.6925565 0.0765349
v 0.0165678 1.6911451 0.0758577
v 0.0168353 1.6896410 0.0755160
v 0.0173592 1.6881659 0.0755376
v 0.0180971 1.6868395 0.0759208
v 0.0689891 1.6257691 0.1166344
v 0.0699630 1.6250414 0.1176206
v 0.0709399 1.6247155 0.1187997
v 0.0718406 1.6248177 0.1200759
v 0.0725923 1.6253397 0.1213461
v 0.0172359 1.6929047 0.0762354
v 0.0178296 1.6918134 0.0752829
v 0.0185992 1.6905752 0.0747126
v 0.0194822 1.6892904 0.0745706
v 0.0204072 1.6880631 0.0748685
v 0.0712992 1.6269927 0.1155821
v 0.0720860 1.6261659 0.1166536
v 0.0727037 1.6256497 0.1179962
v 0.0731025 1.6254860 0.1195012
v 0.0732498 1.6256880 0.1210465
v 0.0178283 1.6934415 0.0763000
v 0.0189665 1.6928436 0.0754069
v 0.0201885 1.6920152 0.0748860
v 0.0213951 1.6910236 0.0747793
v 0.0224888 1.6899491 0.0750956
v 0.0733808 1.6288787 0.1158092
v 0.0739989 1.6278991 0.1168623
v 0.0742930 1.6270897 0.1181696
v 0.0742394 1.6265162 0.1196252
v 0.0738423 1.6262248 0.1211112
vn -0.5698029 0.6837635 -0.4558423
vn -0.3073481 0.7327212 -0.6071711
vn -0.0405054 0.7169471 -0.6959499
vn 0.2281621 0.6448154 -0.7294896
vn 0.4780027 0.5226231 -0.7059593
vn 0.6901585 0.3601406 -0.6276782
vn 0.8486993 0.1698917 -0.5008456
vn 0.9415822 -0.0336723 -0.3350956
vn 0.9614141 -0.2350870 -0.1428880
vn 0.9059893 -0.4188465 0.0612459
vn 0.7785937 -0.5704090 0.2615824
vn 0.5698029 -0.6837635 0.4558423
vn -0.2983375 0.8247811 -0.4803444
vn -0.0239567 0.8860232 -0.4630216
vn 0.2509077 0.8772044 -0.4093381
vn 0.5051462 0.7999454 -0.3239053
vn 0.7195827 0.6607633 -0.2135243
vn 0.8781234 0.4705144 -0.0866917
vn 0.9687258 0.2436499 0.0469583
vn 0.9841597 -0.0026980 0.1772635
vn 0.9225380 -0.2497704 0.2941742
vn 0.7876043 -0.4783491 0.3884091
vn -0.3548763 0.8704280 -0.3412008
vn -0.1277951 0.9698576 -0.2074720
vn 0.1081857 0.9924318 -0.0580945
vn 0.3348284 0.9374524 0.0952525
vn 0.5349548 0.8098236 0.2408509
vn 0.6934955 0.6195747 0.3676835
vn 0.7984079 0.3811569 0.4661161
vn 0.8414377 0.1125294 0.5285071
vn 0.8186996 -0.1659360 0.5497237
vn 0.7310656 -0.4327023 0.5275527
vn -0.4618148 0.8574307 -0.2270235
vn -0.3241971 0.9459870 0.0022245
vn -0.1617618 0.9596224 0.2301258
vn 0.0126856 0.8982992 0.4392011
vn 0.1857458 0.7673808 0.6136980
vn 0.3442865 0.5771319 0.7405306
vn 0.4762652 0.3420037 0.8100648
vn 0.5714902 0.0797201 0.8167274
vn 0.6222976 -0.1898067 0.7594203
vn 0.6241270 -0.4456995 0.6417300
vn -0.5904991 0.7892719 -0.1684064
vn -0.5605370 0.8208073 0.1098800
vn -0.4866024 0.7875676 0.3780944
vn -0.3749641 0.6929769 0.6157799
vn -0.2344741 0.5448074 0.8051129
vn -0.0759334 0.3545585 0.9319455
vn 0.0886155 0.1366815 0.9866435
vn 0.2466495 -0.0923348 0.9646960
vn 0.3859577 -0.3149863 0.8670757
vn 0.4954428 -0.5138583 0.7003471
vn -0.7064482 0.6842147 -0.1810558
vn -0.7734877 0.6278606 0.0866482
vn -0.7792955 0.5223692 0.3461631
vn -0.7242504 0.3765015 0.5776746
vn -0.6131073 0.2017419 0.7638060
vn -0.4545665 0.0114930 0.8906386
vn -0.2606708 -0.1797939 0.9485383
vn -0.0460435 -0.3575332 0.9327647
vn 0.1730070 -0.5079331 0.8438439
vn 0.3794936 -0.6189156 0.6876977
vn -0.7785937 0.5704090 -0.2615824
vn -0.9059893 0.4188465 -0.0612459
vn -0.9614141 0.2350870 0.1428880
vn -0.9415822 0.0336723 0.3350956
vn -0.8486993 -0.1698917 0.5008456
vn -0.6901585 -0.3601406 0.6276782
vn -0.4780027 -0.5226231 0.7059593
vn -0.2281621 -0.6448154 0.7294896
vn 0.0405054 -0.7169471 0.6959499
vn 0.3073481 -0.7327212 0.6071711
vn -0.7876043 0.4783491 -0.3884091
vn -0.9225380 0.2497704 -0.2941742
vn -0.9841597 0.0026980 -0.1772635
vn -0.9687258 -0.2436499 -0.0469583
vn -0.8781234 -0.4705144 0.0866917
vn -0.7195827 -0.6607633 0.2135243
vn -0.5051462 -0.7999454 0.3239053
vn -0.2509077 -0.8772044 0.4093381
vn 0.0239567 -0.8860232 0.4630216
vn 0.2983375 -0.8247811 0.4803444
vn -0.7310656 0.4327023 -0.5275527
vn -0.8186996 0.1659360 -0.5497237
vn -0.8414377 -0.1125294 -0.5285071
vn -0.7984079 -0.3811569 -0.4661161
vn -0.6934955 -0.6195747 -0.3676835
vn -0.5349548 -0.8098236 -0.2408509
vn -0.3348284 -0.9374524 -0.0952525
vn -0.1081857 -0.9924318 0.0580945
vn 0.1277951 -0.9698576 0.2074720
vn 0.3548763 -0.8704280 0.3412008
vn -0.6241270 0.4456995 -0.6417300
vn -0.6222976 0.1898067 -0.7594203
vn -0.5714902 -0.0797201 -0.8167274
vn -0.4762652 -0.3420037 -0.8100648
vn -0.3442865 -0.5771319 -0.7405306
vn -0.1857458 -0.7673808 -0.6136980
vn -0.0126856 -0.8982992 -0.4392011
vn 0.1617618 -0.9596224 -0.2301258
vn 0.3241971 -0.9459870 -0.0022245
vn 0.4618148 -0.8574307 0.2270235
vn -0.4954428 0.5138583 -0.7003471
vn -0.3859577 0.3149863 -0.8670757
vn -0.2466495 0.0923348 -0.9646960
vn -0.0886155 -0.1366815 -0.9866435
vn 0.0759334 -0.3545585 -0.9319455
vn 0.2344741 -0.5448074 -0.8051129
vn 0.3749641 -0.6929769 -0.6157799
vn 0.4866024 -0.7875676 -0.3780944
vn 0.5605370 -0.8208073 -0.1098800
vn 0.5904991 -0.7892719 0.1684064
vn -0.3794936 0.6189156 -0.6876977
vn -0.1730070 0.5079331 -0.8438439
vn 0.0460435 0.3575332 -0.9327647
vn 0.2606708 0.1797939 -0.9485383
vn 0.4545665 -0.0114930 -0.8906386
vn 0.6131073 -0.2017419 -0.7638060
vn 0.7242504 -0.3765015 -0.5776746
vn 0.7792955 -0.5223692 -0.3461631
vn 0.7734877 -0.6278606 -0.0866482
vn 0.7064482 -0.6842147 0.1810558
f 2//2 1//1 13//13
f 2//2 13//13 3//3
f 3//3 13//13 14//14
f 3//3 14//14 4//4
f 4//4 14//14 15//15
f 4//4 15//15 5//5
f 5//5 15//15 16//16
f 5//5 16//16 6//6
f 6//6 16//16 17//17
f 6//6 17//17 7//7
f 7//7 17//17 18//18
f 7//7 18//18 8//8
f 8//8 18//18 19//19
f 8//8 19//19 9//9
f 9//9 19//19 20//20
f 9//9 20//20 10//10
f 10//10 20//20 21//21
f 10//10 21//21 11//11
f 11//11 21//21 22//22
f 11//11 22//22 12//12
f 13//13 1//1 23//23
f 13//13 23//23 14//14
f 14//14 23//23 24//24
f 14//14 24//24 15//15
f 15//15 24//24 25//25
f 15//15 25//25 16//16
f 16//16 25//25 26//26
f 16//16 26//26 17//17
f 17//17 26//26 27//27
f 17//17 27//27 18//18
f 18//18 27//27 28//28
f 18//18 28//28 19//19
f 19//19 28//28 29//29
f 19//19 29//29 20//20
f 20//20 29//29 30//30
f 20//20 30//30 21//21
f 21//21 30//30 31//31
f 21//21 31//31 22//22
f 22//22 31//31 32//32
f 22//22 32//32 12//12
f 23//23 1//1 33//33
f 23//23 33//33 24//24
f 24//24 33//33 34//34
f 24//24 34//34 25//25
f 25//25 34//34 35//35
f 25//25 35//35 26//26
f 26//26 35//35 36//36
f 26//26 36//36 27//27
f 27//27 36//36 37//37
f 27//27 37//37 28//28
f 28//28 37//37 38//38
f 28//28 38//38 29//29
f 29//29 38//38 39//39
f 29//29 39//39 30//30
f 30//30 39//39 40//40
f 30//30 40//40 31//31
f 31//31 40//40 41//41
f 31//31 41//41 32//32
f 32//32 41//41 42//42
f 32//32 42//42 12//12
f 33//33 1//1 43//43
f 33//33 43//43 34//34
f 34//34 43//43 44//44
f 34//34 44//44 35//35
f 35//35 44//44 45//45
f 35//35 45//45 36//36
f 36//36 45//45 46//46
f 36//36 46//46 37//37
f 37//37 46//46 47//47
f 37//37 47//47 38//38
f 38//38 47//47 48//48
f 38//38 48//48 39//39
f 39//39 48//48 49//49
f 39//39 49//49 40//40
f 40//40 49//49 50//50
f 40//40 50//50 41//41
f 41//41 50//50 51//51
f 41//41 51//51 42//42
f 42//42 51//51 52//52
f 42//42 52//52 12//12
f 43//43 1//1 53//53
f 43//43 53//53 44//44
f 44//44 53//53 54//54
f 44//44 54//54 45//45
f 45//45 54//54 55//55
f 45//45 55//55 46//46
f 46//46 55//55 56//56
f 46//46 56//56 47//47
f 47//47 56//56 57//57
f 47//47 57//57 48//48
f 48//48 57//57 58//58
f 48//48 58//58 49//49
f 49//49 58//58 59//59
f 49//49 59//59 50//50
f 50//50 59//59 60//60
f 50//50 60//60 51//51
f 51//51 60//60 61//61
f 51//51 61//61 52//52
f 52//52 61//61 62//62
f 52//52 62//62 12//12
f 53//53 1//1 63//63
f 53//53 63//63 54//54
f 54//54 63//63 64//64
f 54//54 64//64 55//55
f 55//55 64//64 65//65
f 55//55 65//65 56//56
f 56//56 65//65 66//66
f 56//56 66//66 57//57
f 57//57 66//66 67//67
f 57//57 67//67 58//58
f 58//58 67//67 68//68
f 58//58 68//68 59//59
f 59//59 68//68 69//69
f 59//59 69//69 60//60
f 60//60 69//69 70//70
f 60//60 70//70 61//61
f 61//61 70//70 71//71
f 61//61 71//71 62//62
f 62//62 71//71 72//72
f 62//62 72//72 12//12
f 63//63 1//1 73//73
f 63//63 73//73 64//64
f 64//64 73//73 74//74
f 64//64 74//74 65//65
f 65//65 74//74 75//75
f 65//65 75//75 66//66
f 66//66 75//75 76//76
f 66//66 76//76 67//67
f 67//67 76//76 77//77
f 67//67 77//77 68//68
f 68//68 77//77 78//78
f 68//68 78//78 69//69
f 69//69 78//78 79//79
f 69//69 79//79 70//70
f 70//70 79//79 80//80
f 70//70 80//80 71//71
f 71//71 80//80 81//81
f 71//71 81//81 72//72
f 72//72 81//81 82//82
f 72//72 82//82 12//12
f 73//73 1//1 83//83
f 73//73 83//83 74//74
f 74//74 83//83 84//84
f 74//74 84//84 75//75
f 75//75 84//84 85//85
f 75//75 85//85 76//76
f 76//76 85//85 86//86
f 76//76 86//86 77//77
f 77//77 86//86 87//87
f 77//77 87//87 78//78
f 78//78 87//87 88//88
f 78//78 88//88 79//79
f 79//79 88//88 89//89
f 79//79 89//89 80//80
f 80//80 89//89 90//90
f 80//80 90//90 81//81
f 81//81 90//90 91//91
f 81//81 91//91 82//82
f 82//82 91//91 92//92
f 82//82 92//92 12//12
f 83//83 1//1 93//93
f 83//83 93//93 84//84
f 84//84 93//93 94//94
f 84//84 94//94 85//85
f 85//85 94//94 95//95
f 85//85 95//95 86//86
f 86//86 95//95 96//96
f 86//86 96//96 87//87
f 87//87 96//96 97//97
f 87//87 97//97 88//88
f 88//88 97//97 98//98
f 88//88 98//98 89//89
f 89//89 98//98 99//99
f 89//89 99//99 90//90
f 90//90 99//99 100//100
f 90//90 100//100 91//91
f 91//91 100//100 101//101
f 91//91 101//101 92//92
f 92//92 101//101 102//102
f 92//92 102//102 12//12
f 93//93 1//1 103//103
f 93//93 103//103 94//94
f 94//94 103//103 104//104
f 94//94 104//104 95//95
f 95//95 104//104 105//105
f 95//95 105//105 96//96
f 96//96 105//105 106//106
f 96//96 106//106 97//97
f 97//97 106//106 107//107
f 97//97 107//107 98//98
f 98//98 107//107 108//108
f 98//98 108//108 99//99
f 99//99 108//108 109//109
f 99//99 109//109 100//100
f 100//100 109//109 110//110
f 100//100 110//110 101//101
f 101//101 110//110 111//111
f 101//101 111//111 102//102
f 102//102 111//111 112//112
f 102//102 112//112 12//12
f 103//103 1//1 113//113
f 103//103 113//113 104//104
f 104//104 113//113 114//114
f 104//104 114//114 105//105
f 105//105 114//114 115//115
f 105//105 115//115 106//106
f 106//106 115//115 116//116
f 106//106 116//116 107//107
f 107//107 116//116 117//117
f 107//107 117//117 108//108
f 108//108 117//117 118//118
f 108//108 118//118 109//109
f 109//109 118//118 119//119
f 109//109 119//119 110//110
f 110//110 119//119 120//120
f 110//110 120//120 111//111
f 111//111 120//120 121//121
f 111//111 121//121 112//112
f 112//112 121//121 122//122
f 112//112 122//122 12//12
f 113//113 1//1 2//2
f 113//113 2//2 114//114
f 114//114 2//2 3//3
f 114//114 3//3 115//115
f 115//115 3//3 4//4
f 115//115 4//4 116//116
f 116//116 4//4 5//5
f 116//116 5//5 117//117
f 117//117 5//5 6//6
f 117//117 6//6 118//118
f 118//118 6//6 7//7
f 118//118 7//7 119//119
f 119//119 7//7 8//8
f 119//119 8//8 120//120
f 120//120 8//8 9//9
f 120//120 9//9 121//121
f 121//121 9//9 10//10
f 121//121 10//10 122//122
f 122//122 10//10 11//11
f 122//122 11//11 12//12

