# https://github.com/mikedh/trimesh
v -0.0545086 1.4319895 -0.0099017
v -0.0511535 1.4313644 -0.0097673
v -0.0481099 1.4298186 -0.0096517
v -0.0456246 1.4274774 -0.0095643
v -0.0438987 1.4245304 -0.0095122
v -0.0430723 1.4212163 -0.0094996
v -0.0932122 0.1978038 -0.0195276
v -0.0943070 0.1945691 -0.0195939
v -0.0962681 0.1917744 -0.0196930
v -0.0989366 0.1896461 -0.0198170
v -0.1020964 0.1883567 -0.0199559
v -0.1054914 0.1880105 -0.0200983
v -0.0516754 1.4313721 -0.0080969
v -0.0491114 1.4298334 -0.0064462
v -0.0470246 1.4274980 -0.0050835
v -0.0455838 1.4245552 -0.0041191
v -0.0449059 1.4212434 -0.0036311
v -0.0950458 0.1978308 -0.0136590
v -0.0959921 0.1945940 -0.0142007
v -0.0976681 0.1917951 -0.0152122
v -0.0999382 0.1896609 -0.0166116
v -0.1026183 0.1883644 -0.0182855
v -0.0529618 1.4314151 -0.0069112
v -0.0515800 1.4299159 -0.0041709
v -0.0504754 1.4276134 -0.0019028
v -0.0497373 1.4246941 -0.0002908
v -0.0494255 1.4213945 0.0005347
v -0.0995654 0.1979819 -0.0094932
v -0.1001455 0.1947328 -0.0103724
v -0.1011189 0.1919104 -0.0120315
v -0.1024068 0.1897434 -0.0143362
v -0.1039047 0.1884074 -0.0170998
v -0.0546680 1.4314819 -0.0065279
v -0.0548542 1.4300441 -0.0034353
v -0.0550523 1.4277925 -0.0008746
v -0.0552461 1.4249097 0.0009469
v -0.0554200 1.4216291 0.0018815
v -0.1055599 0.1982165 -0.0081465
v -0.1056544 0.1949484 -0.0091348
v -0.1056959 0.1920896 -0.0110033
v -0.1056810 0.1898716 -0.0136006
v -0.1056109 0.1884742 -0.0167165
v -0.0563368 1.4315546 -0.0070496
v -0.0580568 1.4301835 -0.0044366
v -0.0595290 1.4279875 -0.0022742
v -0.0606344 1.4251443 -0.0007377
v -0.0612833 1.4218844 0.0000484
v -0.1114231 0.1984718 -0.0099796
v -0.1110426 0.1951831 -0.0108194
v -0.1101726 0.1922845 -0.0124029
v -0.1088835 0.1900111 -0.0146019
v -0.1072798 0.1885468 -0.0172382
v -0.0575212 1.4316137 -0.0083367
v -0.0603294 1.4302969 -0.0069064
v -0.0627060 1.4281460 -0.0057267
v -0.0644582 1.4253351 -0.0048932
v -0.0654442 1.4220920 -0.0044735
v -0.1155840 0.1986794 -0.0145014
v -0.1148664 0.1953738 -0.0149749
v -0.1133495 0.1924430 -0.0158554
v -0.1111562 0.1901244 -0.0170717
v -0.1084641 0.1886059 -0.0185253
v -0.0579036 1.4316433 -0.0100441
v -0.0610634 1.4303539 -0.0101830
v -0.0637319 1.4282256 -0.0103070
v -0.0656930 1.4254309 -0.0104061
v -0.0667878 1.4221962 -0.0104724
v -0.1169277 0.1987837 -0.0205004
v -0.1161013 0.1954696 -0.0204878
v -0.1143754 0.1925226 -0.0204357
v -0.1118901 0.1901814 -0.0203483
v -0.1088465 0.1886356 -0.0202327
v -0.0573817 1.4316356 -0.0117145
v -0.0600618 1.4303391 -0.0133884
v -0.0623319 1.4282049 -0.0147878
v -0.0640079 1.4254060 -0.0157993
v -0.0649542 1.4221692 -0.0163410
v -0.1150941 0.1987566 -0.0263689
v -0.1144162 0.1954448 -0.0258809
v -0.1129754 0.1925020 -0.0249165
v -0.1108886 0.1901666 -0.0235538
v -0.1083246 0.1886279 -0.0219031
v -0.0560953 1.4315926 -0.0129002
v -0.0575932 1.4302566 -0.0156638
v -0.0588811 1.4280896 -0.0179685
v -0.0598545 1.4252672 -0.0196276
v -0.0604346 1.4220181 -0.0205068
v -0.1105745 0.1986055 -0.0305347
v -0.1102627 0.1953059 -0.0297092
v -0.1095246 0.1923866 -0.0280972
v -0.1084200 0.1900841 -0.0258291
v -0.1070382 0.1885849 -0.0230888
v -0.0543891 1.4315258 -0.0132835
v -0.0543190 1.4301284 -0.0163994
v -0.0543041 1.4279104 -0.0189967
v -0.0543456 1.4250516 -0.0208652
v -0.0544401 1.4217835 -0.0218535
v -0.1045800 0.1983709 -0.0318815
v -0.1047539 0.1950903 -0.0309469
v -0.1049477 0.1922075 -0.0291254
v -0.1051458 0.1899559 -0.0265647
v -0.1053320 0.1885181 -0.0234721
v -0.0527202 1.4314532 -0.0127618
v -0.0511165 1.4299889 -0.0153981
v -0.0498274 1.4277155 -0.0175971
v -0.0489574 1.4248169 -0.0191806
v -0.0485769 1.4215282 -0.0200204
v -0.0987167 0.1981156 -0.0300484
v -0.0993656 0.1948557 -0.0292623
v -0.1004710 0.1920125 -0.0277258
v -0.1019432 0.1898165 -0.0255634
v -0.1036632 0.1884454 -0.0229504
v -0.0515359 1.4313941 -0.0114747
v -0.0488438 1.4298756 -0.0129283
v -0.0466505 1.4275570 -0.0141446
v -0.0451336 1.4246262 -0.0150251
v -0.0444160 1.4213206 -0.0154986
v -0.0945558 0.1979080 -0.0255265
v -0.0955418 0.1946649 -0.0251068
v -0.0972940 0.1918540 -0.0242733
v -0.0996706 0.1897031 -0.0230936
v -0.1024788 0.1883863 -0.0216633
vn 0.0409479 0.9991277 0.0081896
vn 0.3417598 0.9395697 0.0202215
vn 0.5900180 0.8068471 0.0296077
vn 0.7905611 0.6112876 0.0366153
vn 0.9286347 0.3687518 0.0407382
vn 0.9942982 0.0981488 0.0416890
vn 0.9829049 -0.1798464 0.0394103
vn 0.8953204 -0.4441173 0.0340753
vn 0.7378672 -0.6744419 0.0260765
vn 0.5219998 -0.8527954 0.0160041
vn 0.2637206 -0.9645881 0.0046136
vn -0.0409479 -0.9991277 -0.0081896
vn 0.2949458 0.9402602 0.1700520
vn 0.5040398 0.8081152 0.3047847
vn 0.6723872 0.6130306 0.4148360
vn 0.7876115 0.3708319 0.4920892
vn 0.8414263 0.1004036 0.5309623
vn 0.8300330 -0.1775916 0.5286837
vn 0.7542972 -0.4420373 0.4854263
vn 0.6196934 -0.6726989 0.4042973
vn 0.4360217 -0.8515273 0.2911810
vn 0.2169065 -0.9638976 0.1544442
vn 0.1795565 0.9441175 0.2764083
vn 0.2921173 0.8151995 0.5001173
vn 0.3811074 0.6227677 0.6833137
vn 0.4400117 0.3824516 0.8124780
vn 0.4646213 0.1129996 0.8782700
vn 0.4532280 -0.1649956 0.8759913
vn 0.4066974 -0.4304175 0.8058151
vn 0.3284135 -0.6629619 0.6727749
vn 0.2240992 -0.8444430 0.4865137
vn 0.1015172 -0.9600403 0.2608005
vn 0.0265105 0.9501081 0.3107923
vn 0.0110349 0.8262016 0.5632665
vn -0.0052303 0.6378897 0.7701100
vn -0.0210256 0.4004976 0.9160566
vn -0.0351522 0.1325618 0.9905512
vn -0.0465455 -0.1454334 0.9882726
vn -0.0543399 -0.4123715 0.9093937
vn -0.0579241 -0.6478398 0.7595712
vn -0.0569833 -0.8334409 0.5496628
vn -0.0515288 -0.9540498 0.2951844
vn -0.1231837 0.9566267 0.2639908
vn -0.2638916 0.8381736 0.4773114
vn -0.3831068 0.6543448 0.6519678
vn -0.4719659 0.4201344 0.7750712
vn -0.5239803 0.1538484 0.8377203
vn -0.5353735 -0.1241467 0.8354417
vn -0.5052802 -0.3927348 0.7684083
vn -0.4358006 -0.6313847 0.6414290
vn -0.3319097 -0.8214688 0.4637078
vn -0.2012230 -0.9475311 0.2483829
vn -0.2294157 0.9619267 0.1485442
vn -0.4589959 0.8479077 0.2652836
vn -0.6512706 0.6677239 0.3605433
vn -0.7919800 0.4361003 0.4272988
vn -0.8708818 0.1711558 0.4607282
vn -0.8822751 -0.1068394 0.4584496
vn -0.8252943 -0.3767688 0.4206359
vn -0.7039644 -0.6180056 0.3500045
vn -0.5270140 -0.8117348 0.2516800
vn -0.3074549 -0.9422311 0.1329363
vn -0.2637206 0.9645881 -0.0046136
vn -0.5219998 0.8527954 -0.0160041
vn -0.7378672 0.6744419 -0.0260765
vn -0.8953204 0.4441173 -0.0340753
vn -0.9829049 0.1798464 -0.0394103
vn -0.9942982 -0.0981488 -0.0416890
vn -0.9286347 -0.3687518 -0.0407382
vn -0.7905611 -0.6112876 -0.0366153
vn -0.5900180 -0.8068471 -0.0296077
vn -0.3417598 -0.9395697 -0.0202215
vn -0.2169065 0.9638976 -0.1544442
vn -0.4360217 0.8515273 -0.2911810
vn -0.6196934 0.6726989 -0.4042973
vn -0.7542972 0.4420373 -0.4854263
vn -0.8300330 0.1775916 -0.5286837
vn -0.8414263 -0.1004036 -0.5309623
vn -0.7876115 -0.3708319 -0.4920892
vn -0.6723872 -0.6130306 -0.4148360
vn -0.5040398 -0.8081152 -0.3047847
vn -0.2949458 -0.9402602 -0.1700520
vn -0.1015172 0.9600403 -0.2608005
vn -0.2240992 0.8444430 -0.4865137
vn -0.3284135 0.6629619 -0.6727749
vn -0.4066974 0.4304175 -0.8058151
vn -0.4532280 0.1649956 -0.8759913
vn -0.4646213 -0.1129996 -0.8782700
vn -0.4400117 -0.3824516 -0.8124780
vn -0.3811074 -0.6227677 -0.6833137
vn -0.2921173 -0.8151995 -0.5001173
vn -0.1795565 -0.9441175 -0.2764083
vn 0.0515288 0.9540498 -0.2951844
vn 0.0569833 0.8334409 -0.5496628
vn 0.0579241 0.6478398 -0.7595712
vn 0.0543399 0.4123715 -0.9093937
vn 0.0465455 0.1454334 -0.9882726
vn 0.0351522 -0.1325618 -0.9905512
vn 0.0210256 -0.4004976 -0.9160566
vn 0.0052303 -0.6378897 -0.7701100
vn -0.0110349 -0.8262016 -0.5632665
vn -0.0265105 -0.9501081 -0.3107923
vn 0.2012230 0.9475311 -0.2483829
vn 0.3319097 0.8214688 -0.4637078
vn 0.4358006 0.6313847 -0.6414290
vn 0.5052802 0.3927348 -0.7684083
vn 0.5353735 0.1241467 -0.8354417
vn 0.5239803 -0.1538484 -0.8377203
vn 0.4719659 -0.4201344 -0.7750712
vn 0.3831068 -0.6543448 -0.6519678
vn 0.2638916 -0.8381736 -0.4773114
vn 0.1231837 -0.9566267 -0.2639908
vn 0.3074549 0.9422311 -0.1329363
vn 0.5270140 0.8117348 -0.2516800
vn 0.7039644 0.6180056 -0.3500045
vn 0.8252943 0.3767688 -0.4206359
vn 0.8822751 0.1068394 -0.4584496
vn 0.8708818 -0.1711558 -0.4607282
vn 0.7919800 -0.4361003 -0.4272988
vn 0.6512706 -0.6677239 -0.3605433
vn 0.4589959 -0.8479077 -0.2652836
vn 0.2294157 -0.9619267 -0.1485442
f 2//2 1//1 13//13
f 2//2 13//13 3//3
f 3//3 13//13 14//14
f 3//3 14//14 4//4
f 4//4 14//14 15//15
f 4//4 15//15 5//5
f 5//5 15//15 16//16
f 5//5 16//16 6//6
f 6//6 16//16 17//17
f 6//6 17//17 7//7
f 7//7 17//17 18//18
f 7//7 18//18 8//8
f 8//8 18//18 19//19
f 8//8 19//19 9//9
f 9//9 19//19 20//20
f 9//9 20//20 10//10
f 10//10 20//20 21//21
f 10//10 21//21 11//11
f 11//11 21//21 22//22
f 11//11 22//22 12//12
f 13//13 1//1 23//23
f 13//13 23//23 14//14
f 14//14 23//23 24//24
f 14//14 24//24 15//15
f 15//15 24//24 25//25
f 15//15 25//25 16//16
f 16//16 25//25 26//26
f 16//16 26//26 17//17
f 17//17 26//26 27//27
f 17//17 27//27 18//18
f 18//18 27//27 28//28
f 18//18 28//28 19//19
f 19//19 28//28 29//29
f 19//19 29//29 20//20
f 20//20 29//29 30//30
f 20//20 30//30 21//21
f 21//21 30//30 31//31
f 21//21 31//31 22//22
f 22//22 31//31 32//32
f 22//22 32//32 12//12
f 23//23 1//1 33//33
f 23//23 33//33 24//24
f 24//24 33//33 34//34
f 24//24 34//34 25//25
f 25//25 34//34 35//35
f 25//25 35//35 26//26
f 26//26 35//35 36//36
f 26//26 36//36 27//27
f 27//27 36//36 37//37
f 27//27 37//37 28//28
f 28//28 37//37 38//38
f 28//28 38//38 29//29
f 29//29 38//38 39//39
f 29//29 39//39 30//30
f 30//30 39//39 40//40
f 30//30 40//40 31//31
f 31//31 40//40 41//41
f 31//31 41//41 32//32
f 32//32 41//41 42//42
f 32//32 42//42 12//12
f 33//33 1//1 43//43
f 33//33 43//43 34//34
f 34//34 43//43 44//44
f 34//34 44//44 35//35
f 35//35 44//44 45//45
f 35//35 45//45 36//36
f 36//36 45//45 46//46
f 36//36 46//46 37//37
f 37//37 46//46 47//47
f 37//37 47//47 38//38
f 38//38 47//47 48//48
f 38//38 48//48 39//39
f 39//39 48//48 49//49
f 39//39 49//49 40//40
f 40//40 49//49 50//50
f 40//40 50//50 41//41
f 41//41 50//50 51//51
f 41//41 51//51 42//42
f 42//42 51//51 52//52
f 42//42 52//52 12//12
f 43//43 1//1 53//53
f 43//43 53//53 44//44
f 44//44 53//53 54//54
f 44//44 54//54 45//45
f 45//45 54//54 55//55
f 45//45 55//55 46//46
f 46//46 55//55 56//56
f 46//46 56//56 47//47
f 47//47 56//56 57//57
f 47//47 57//57 48//48
f 48//48 57//57 58//58
f 48//48 58//58 49//49
f 49//49 58//58 59//59
f 49//49 59//59 50//50
f 50//50 59//59 60//60
f 50//50 60//60 51//51
f 51//51 60//60 61//61
f 51//51 61//61 52//52
f 52//52 61//61 62//62
f 52//52 62//62 12//12
f 53//53 1//1 63//63
f 53//53 63//63 54//54
f 54//54 63//63 64//64
f 54//54 64//64 55//55
f 55//55 64//64 65//65
f 55//55 65//65 56//56
f 56//56 65//65 66//66
f 56//56 66//66 57//57
f 57//57 66//66 67//67
f 57//57 67//67 58//58
f 58//58 67//67 68//68
f 58//58 68//68 59//59
f 59//59 68//68 69//69
f 59//59 69//69 60//60
f 60//60 69//69 70//70
f 60//60 70//70 61//61
f 61//61 70//70 71//71
f 61//61 71//71 62//62
f 62//62 71//71 72//72
f 62//62 72//72 12//12
f 63//63 1//1 73//73
f 63//63 73//73 64//64
f 64//64 73//73 74//74
f 64//64 74//74 65//65
f 65//65 74//74 75//75
f 65//65 75//75 66//66
f 66//66 75//75 76//76
f 66//66 76//76 67//67
f 67//67 76//76 77//77
f 67//67 77//77 68//68
f 68//68 77//77 78//78
f 68//68 78//78 69//69
f 69//69 78//78 79//79
f 69//69 79//79 70//70
f 70//70 79//79 80//80
f 70//70 80//80 71//71
f 71//71 80//80 81//81
f 71//71 81//81 72//72
f 72//72 81//81 82//82
f 72//72 82//82 12//12
f 73//73 1//1 83//83
f 73//73 83//83 74//74
f 74//74 83//83 84//84
f 74//74 84//84 75//75
f 75//75 84//84 85//85
f 75//75 85//85 76//76
f 76//76 85//85 86//86
f 76//76 86//86 77//77
f 77//77 86//86 87//87
f 77//77 87//87 78//78
f 78//78 87//87 88//88
f 78//78 88//88 79//79
f 79//79 88//88 89//89
f 79//79 89//89 80//80
f 80//80 89//89 90//90
f 80//80 90//90 81//81
f 81//81 90//90 91//91
f 81//81 91//91 82//82
f 82//82 91//91 92//92
f 82//82 92//92 12//12
f 83//83 1//1 93//93
f 83//83 93//93 84//84
f 84//84 93//93 94//94
f 84//84 94//94 85//85
f 85//85 94//94 95//95
f 85//85 95//95 86//86
f 86//86 95//95 96//96
f 86//86 96//96 87//87
f 87//87 96//96 97//97
f 87//87 97//97 88//88
f 88//88 97//97 98//98
f 88//88 98//98 89//89
f 89//89 98//98 99//99
f 89//89 99//99 90//90
f 90//90 99//99 100//100
f 90//90 100//100 91//91
f 91//91 100//100 101//101
f 91//91 101//101 92//92
f 92//92 101//101 102//102
f 92//92 102//102 12//12
f 93//93 1//1 103//103
f 93//93 103//103 94//94
f 94//94 103//103 104//104
f 94//94 104//104 95//95
f 95//95 104//104 105//105
f 95//95 105//105 96//96
f 96//96 105//105 106//106
f 96//96 106//106 97//97
f 97//97 106//106 107//107
f 97//97 107//107 98//98
f 98//98 107//107 108//108
f 98//98 108//108 99//99
f 99//99 108//108 109//109
f 99//99 109//109 100//100
f 100//100 109//109 110//110
f 100//100 110//110 101//101
f 101//101 110//110 111//111
f 101//101 111//111 102//102
f 102//102 111//111 112//112
f 102//102 112//112 12//12
f 103//103 1//1 113//113
f 103//103 113//113 104//104
f 104//104 113//113 114//114
f 104//104 114//114 105//105
f 105//105 114//114 115//115
f 105//105 115//115 106//106
f 106//106 115//115 116//116
f 106//106 116//116 107//107
f 107//107 116//116 117//117
f 107//107 117//117 108//108
f 108//108 117//117 118//118
f 108//108 118//118 109//109
f 109//109 118//118 119//119
f 109//109 119//119 110//110
f 110//110 119//119 120//120
f 110//110 120//120 111//111
f 111//111 120//120 121//121
f 111//111 121//121 112//112
f 112//112 121//121 122//122
f 112//112 122//122 12//12
f 113//113 1//1 2//2
f 113//113 2//2 114//114
f 114//114 2//2 3//3
f 114//114 3//3 115//115
f 115//115 3//3 4//4
f 115//115 4//4 116//116
f 116//116 4//4 5//5
f 116//116 5//5 117//117
f 117//117 5//5 6//6
f 117//117 6//6 118//118
f 118//118 6//6 7//7
f 118//118 7//7 119//119
f 119//119 7//7 8//8
f 119//119 8//8 120//120
f 120//120 8//8 9//9
f 120//120 9//9 121//121
f 121//121 9//9 10//10
f 121//121 10//10 122//122
f 122//122 10//10 11//11
f 122//122 11//11 12//12

