# https://github.com/mikedh/trimesh
v 0.0199006 1.6214570 0.0214570
v 0.0198446 1.6219157 0.0199613
v 0.0202062 1.6222192 0.0184687
v 0.0209563 1.6223430 0.0171002
v 0.0220339 1.6222769 0.0159666
v 0.0233518 1.6220263 0.0151598
v 0.0948033 1.6016116 -0.0052549
v 0.0962707 1.6010664 -0.0052439
v 0.0976351 1.6004347 -0.0048080
v 0.0987861 1.5997678 -0.0039827
v 0.0996303 1.5991198 -0.0028346
v 0.1000994 1.5985430 -0.0014570
v 0.0201386 1.6225471 0.0203590
v 0.0207705 1.6234309 0.0192319
v 0.0217450 1.6240368 0.0181671
v 0.0229833 1.6243156 0.0172507
v 0.0243849 1.6242448 0.0165571
v 0.0958364 1.6038301 -0.0038576
v 0.0972201 1.6031051 -0.0039598
v 0.0984239 1.6021286 -0.0037411
v 0.0993504 1.6009796 -0.0032194
v 0.0999244 1.5997512 -0.0024369
v 0.0204242 1.6228707 0.0210351
v 0.0213186 1.6240518 0.0205294
v 0.0225112 1.6249046 0.0199808
v 0.0239054 1.6253602 0.0194337
v 0.0253883 1.6253814 0.0189325
v 0.0968398 1.6049667 -0.0014822
v 0.0981422 1.6041496 -0.0017768
v 0.0991900 1.6029964 -0.0019275
v 0.0998984 1.6016004 -0.0019220
v 0.1002100 1.6000747 -0.0017608
v 0.0206249 1.6227996 0.0218084
v 0.0217036 1.6239154 0.0220134
v 0.0230494 1.6247139 0.0220552
v 0.0245532 1.6251306 0.0219306
v 0.0260933 1.6251317 0.0216495
v 0.0975447 1.6047170 0.0012348
v 0.0987900 1.6039201 0.0007201
v 0.0997283 1.6028057 0.0001470
v 0.1002835 1.6014640 -0.0004380
v 0.1004106 1.6000036 -0.0009875
v 0.0206868 1.6223529 0.0224718
v 0.0218224 1.6230582 0.0232864
v 0.0232155 1.6235158 0.0238347
v 0.0247531 1.6236885 0.0240723
v 0.0263108 1.6235624 0.0239801
v 0.0977622 1.6031477 0.0035654
v 0.0989899 1.6024780 0.0028618
v 0.0998944 1.6016076 0.0019264
v 0.1004023 1.6006069 0.0008350
v 0.1004725 1.5995570 -0.0003241
v 0.0205934 1.6216504 0.0228474
v 0.0216432 1.6217101 0.0240072
v 0.0229649 1.6216313 0.0248423
v 0.0244516 1.6214203 0.0252851
v 0.0259826 1.6210942 0.0252997
v 0.0974341 1.6006795 0.0048850
v 0.0986883 1.6002098 0.0040746
v 0.0996438 1.5997230 0.0029340
v 0.1002230 1.5992587 0.0015558
v 0.1003791 1.5988545 0.0000515
v 0.0203697 1.6208802 0.0228346
v 0.0212139 1.6202322 0.0239827
v 0.0223649 1.6195653 0.0248080
v 0.0237293 1.6189336 0.0252439
v 0.0251967 1.6183884 0.0252549
v 0.0966482 1.5979737 0.0048402
v 0.0979661 1.5977231 0.0040334
v 0.0990437 1.5976570 0.0028998
v 0.0997938 1.5977808 0.0015313
v 0.1001554 1.5980843 0.0000387
v 0.0200756 1.6202488 0.0224369
v 0.0206496 1.6190204 0.0232194
v 0.0215761 1.6178714 0.0237411
v 0.0227799 1.6168949 0.0239598
v 0.0241636 1.6161699 0.0238576
v 0.0956151 1.5957552 0.0034429
v 0.0970167 1.5956844 0.0027493
v 0.0982550 1.5959632 0.0018329
v 0.0992295 1.5965691 0.0007681
v 0.0998614 1.5974529 -0.0003590
v 0.0197900 1.6199253 0.0217608
v 0.0201016 1.6183996 0.0219220
v 0.0208100 1.6170036 0.0219275
v 0.0218578 1.6158504 0.0217768
v 0.0231602 1.6150333 0.0214822
v 0.0946117 1.5946186 0.0010675
v 0.0960946 1.5946398 0.0005663
v 0.0974888 1.5950954 0.0000192
v 0.0986814 1.5959482 -0.0005294
v 0.0995758 1.5971293 -0.0010351
v 0.0195894 1.6199964 0.0209875
v 0.0197165 1.6185360 0.0204380
v 0.0202717 1.6171943 0.0198530
v 0.0212100 1.6160799 0.0192799
v 0.0224553 1.6152830 0.0187652
v 0.0939067 1.5948683 -0.0016495
v 0.0954468 1.5948694 -0.0019306
v 0.0969506 1.5952861 -0.0020552
v 0.0982964 1.5960846 -0.0020134
v 0.0993751 1.5972004 -0.0018084
v 0.0195275 1.6204430 0.0203241
v 0.0195977 1.6193931 0.0191650
v 0.0201056 1.6183924 0.0180736
v 0.0210101 1.6175220 0.0171382
v 0.0222378 1.6168523 0.0164346
v 0.0936892 1.5964376 -0.0039801
v 0.0952469 1.5963115 -0.0040723
v 0.0967845 1.5964842 -0.0038347
v 0.0981776 1.5969418 -0.0032864
v 0.0993132 1.5976471 -0.0024718
v 0.0196209 1.6211455 0.0199485
v 0.0197770 1.6207413 0.0184442
v 0.0203562 1.6202770 0.0170660
v 0.0213117 1.6197902 0.0159254
v 0.0225659 1.6193205 0.0151150
v 0.0940174 1.5989058 -0.0052997
v 0.0955484 1.5985797 -0.0052851
v 0.0970351 1.5983687 -0.0048423
v 0.0983568 1.5982899 -0.0040072
v 0.0994066 1.5983496 -0.0028474
vn -0.9271726 0.2649065 0.2649065
vn -0.9348959 0.3537568 -0.0287357
vn -0.8644300 0.4061087 -0.2963723
vn -0.7262761 0.4262241 -0.5393107
vn -0.5319528 0.4129928 -0.7392314
vn -0.2967814 0.3677306 -0.8813030
vn -0.0388069 0.2940236 -0.9550100
vn 0.2223752 0.1974705 -0.9547537
vn 0.4668579 0.0853287 -0.8802061
vn 0.6756886 -0.0339252 -0.7364062
vn 0.8321285 -0.1511073 -0.5335998
vn 0.9271726 -0.2649065 -0.2649065
vn -0.8773494 0.4773333 0.0491004
vn -0.7587408 0.6330678 -0.1534194
vn -0.5810102 0.7381713 -0.3428270
vn -0.3585992 0.7852560 -0.5047570
vn -0.1088627 0.7712712 -0.6271282
vn 0.1491118 0.6975641 -0.7008352
vn 0.3957288 0.5697337 -0.7202793
vn 0.6121238 0.3972758 -0.6837224
vn 0.7813777 0.1930340 -0.5934532
vn 0.8896750 -0.0275308 -0.4557637
vn -0.8214543 0.5406478 0.1814191
vn -0.6560844 0.7493503 0.0895955
vn -0.4399127 0.8979973 -0.0088118
vn -0.1902201 0.9759850 -0.1061588
vn 0.0736636 0.9780251 -0.1950399
vn 0.3316382 0.9043181 -0.2687469
vn 0.5641080 0.7604627 -0.3216811
vn 0.7532213 0.5571019 -0.3497072
vn 0.8840341 0.3093164 -0.3504384
vn 0.9455701 0.0357836 -0.3234450
vn -0.7821874 0.5267350 0.3327657
vn -0.5839675 0.7237983 0.3675567
vn -0.3407906 0.8628770 0.3732358
vn -0.0719323 0.9340741 0.3497590
vn 0.2018898 0.9325929 0.2991839
vn 0.4598644 0.8588859 0.2254769
vn 0.6823957 0.7185518 0.1342367
vn 0.8523434 0.5219816 0.0323404
vn 0.9561510 0.2837645 -0.0724771
vn 0.9848369 0.0218709 -0.1720984
vn -0.7700705 0.4393230 0.4625869
vn -0.5617137 0.5632585 0.6059848
vn -0.3102036 0.6422209 0.7009465
vn -0.0354312 0.6707533 0.7408337
vn 0.2414578 0.6471480 0.7231166
vn 0.4994323 0.5734410 0.6494096
vn 0.7188968 0.4552310 0.5253115
vn 0.8829304 0.3013255 0.3600511
vn 0.9784048 0.1232247 0.1659509
vn 0.9969539 -0.0655411 -0.0422772
vn -0.7883502 0.3018337 0.5360973
vn -0.5952859 0.3107474 0.7409930
vn -0.3563474 0.2951535 0.8865105
vn -0.0904971 0.2565792 0.9622772
vn 0.1817652 0.1981752 0.9631656
vn 0.4397398 0.1244682 0.8894586
vn 0.6638309 0.0410569 0.7467549
vn 0.8367866 -0.0457419 0.5456151
vn 0.9448326 -0.1292864 0.3009592
vn 0.9786742 -0.2030304 0.0312332
vn -0.8321285 0.1511073 0.5335998
vn -0.6756886 0.0339252 0.7364062
vn -0.4668579 -0.0853287 0.8802061
vn -0.2223752 -0.1974705 0.9547537
vn 0.0388069 -0.2940236 0.9550100
vn 0.2967814 -0.3677306 0.8813030
vn 0.5319528 -0.4129928 0.7392314
vn 0.7262761 -0.4262241 0.5393107
vn 0.8644300 -0.4061087 0.2963723
vn 0.9348959 -0.3537568 0.0287357
vn -0.8896750 0.0275308 0.4557637
vn -0.7813777 -0.1930340 0.5934532
vn -0.6121238 -0.3972758 0.6837224
vn -0.3957288 -0.5697337 0.7202793
vn -0.1491118 -0.6975641 0.7008352
vn 0.1088627 -0.7712712 0.6271282
vn 0.3585992 -0.7852560 0.5047570
vn 0.5810102 -0.7381713 0.3428270
vn 0.7587408 -0.6330678 0.1534194
vn 0.8773494 -0.4773333 -0.0491004
vn -0.9455701 -0.0357836 0.3234450
vn -0.8840341 -0.3093164 0.3504384
vn -0.7532213 -0.5571019 0.3497072
vn -0.5641080 -0.7604627 0.3216811
vn -0.3316382 -0.9043181 0.2687469
vn -0.0736636 -0.9780251 0.1950399
vn 0.1902201 -0.9759850 0.1061588
vn 0.4399127 -0.8979973 0.0088118
vn 0.6560844 -0.7493503 -0.0895955
vn 0.8214543 -0.5406478 -0.1814191
vn -0.9848369 -0.0218709 0.1720984
vn -0.9561510 -0.2837645 0.0724771
vn -0.8523434 -0.5219816 -0.0323404
vn -0.6823957 -0.7185518 -0.1342367
vn -0.4598644 -0.8588859 -0.2254769
vn -0.2018898 -0.9325929 -0.2991839
vn 0.0719323 -0.9340741 -0.3497590
vn 0.3407906 -0.8628770 -0.3732358
vn 0.5839675 -0.7237983 -0.3675567
vn 0.7821874 -0.5267350 -0.3327657
vn -0.9969539 0.0655411 0.0422772
vn -0.9784048 -0.1232247 -0.1659509
vn -0.8829304 -0.3013255 -0.3600511
vn -0.7188968 -0.4552310 -0.5253115
vn -0.4994323 -0.5734410 -0.6494096
vn -0.2414578 -0.6471480 -0.7231166
vn 0.0354312 -0.6707533 -0.7408337
vn 0.3102036 -0.6422209 -0.7009465
vn 0.5617137 -0.5632585 -0.6059848
vn 0.7700705 -0.4393230 -0.4625869
vn -0.9786742 0.2030304 -0.0312332
vn -0.9448326 0.1292864 -0.3009592
vn -0.8367866 0.0457419 -0.5456151
vn -0.6638309 -0.0410569 -0.7467549
vn -0.4397398 -0.1244682 -0.8894586
vn -0.1817652 -0.1981752 -0.9631656
vn 0.0904971 -0.2565792 -0.9622772
vn 0.3563474 -0.2951535 -0.8865105
vn 0.5952859 -0.3107474 -0.7409930
vn 0.7883502 -0.3018337 -0.5360973
f 2//2 1//1 13//13
f 2//2 13//13 3//3
f 3//3 13//13 14//14
f 3//3 14//14 4//4
f 4//4 14//14 15//15
f 4//4 15//15 5//5
f 5//5 15//15 16//16
f 5//5 16//16 6//6
f 6//6 16//16 17//17
f 6//6 17//17 7//7
f 7//7 17//17 18//18
f 7//7 18//18 8//8
f 8//8 18//18 19//19
f 8//8 19//19 9//9
f 9//9 19//19 20//20
f 9//9 20//20 10//10
f 10//10 20//20 21//21
f 10//10 21//21 11//11
f 11//11 21//21 22//22
f 11//11 22//22 12//12
f 13//13 1//1 23//23
f 13//13 23//23 14//14
f 14//14 23//23 24//24
f 14//14 24//24 15//15
f 15//15 24//24 25//25
f 15//15 25//25 16//16
f 16//16 25//25 26//26
f 16//16 26//26 17//17
f 17//17 26//26 27//27
f 17//17 27//27 18//18
f 18//18 27//27 28//28
f 18//18 28//28 19//19
f 19//19 28//28 29//29
f 19//19 29//29 20//20
f 20//20 29//29 30//30
f 20//20 30//30 21//21
f 21//21 30//30 31//31
f 21//21 31//31 22//22
f 22//22 31//31 32//32
f 22//22 32//32 12//12
f 23//23 1//1 33//33
f 23//23 33//33 24//24
f 24//24 33//33 34//34
f 24//24 34//34 25//25
f 25//25 34//34 35//35
f 25//25 35//35 26//26
f 26//26 35//35 36//36
f 26//26 36//36 27//27
f 27//27 36//36 37//37
f 27//27 37//37 28//28
f 28//28 37//37 38//38
f 28//28 38//38 29//29
f 29//29 38//38 39//39
f 29//29 39//39 30//30
f 30//30 39//39 40//40
f 30//30 40//40 31//31
f 31//31 40//40 41//41
f 31//31 41//41 32//32
f 32//32 41//41 42//42
f 32//32 42//42 12//12
f 33//33 1//1 43//43
f 33//33 43//43 34//34
f 34//34 43//43 44//44
f 34//34 44//44 35//35
f 35//35 44//44 45//45
f 35//35 45//45 36//36
f 36//36 45//45 46//46
f 36//36 46//46 37//37
f 37//37 46//46 47//47
f 37//37 47//47 38//38
f 38//38 47//47 48//48
f 38//38 48//48 39//39
f 39//39 48//48 49//49
f 39//39 49//49 40//40
f 40//40 49//49 50//50
f 40//40 50//50 41//41
f 41//41 50//50 51//51
f 41//41 51//51 42//42
f 42//42 51//51 52//52
f 42//42 52//52 12//12
f 43//43 1//1 53//53
f 43//43 53//53 44//44
f 44//44 53//53 54//54
f 44//44 54//54 45//45
f 45//45 54//54 55//55
f 45//45 55//55 46//46
f 46//46 55//55 56//56
f 46//46 56//56 47//47
f 47//47 56//56 57//57
f 47//47 57//57 48//48
f 48//48 57//57 58//58
f 48//48 58//58 49//49
f 49//49 58//58 59//59
f 49//49 59//59 50//50
f 50//50 59//59 60//60
f 50//50 60//60 51//51
f 51//51 60//60 61//61
f 51//51 61//61 52//52
f 52//52 61//61 62//62
f 52//52 62//62 12//12
f 53//53 1//1 63//63
f 53//53 63//63 54//54
f 54//54 63//63 64//64
f 54//54 64//64 55//55
f 55//55 64//64 65//65
f 55//55 65//65 56//56
f 56//56 65//65 66//66
f 56//56 66//66 57//57
f 57//57 66//66 67//67
f 57//57 67//67 58//58
f 58//58 67//67 68//68
f 58//58 68//68 59//59
f 59//59 68//68 69//69
f 59//59 69//69 60//60
f 60//60 69//69 70//70
f 60//60 70//70 61//61
f 61//61 70//70 71//71
f 61//61 71//71 62//62
f 62//62 71//71 72//72
f 62//62 72//72 12//12
f 63//63 1//1 73//73
f 63//63 73//73 64//64
f 64//64 73//73 74//74
f 64//64 74//74 65//65
f 65//65 74//74 75//75
f 65//65 75//75 66//66
f 66//66 75//75 76//76
f 66//66 76//76 67//67
f 67//67 76//76 77//77
f 67//67 77//77 68//68
f 68//68 77//77 78//78
f 68//68 78//78 69//69
f 69//69 78//78 79//79
f 69//69 79//79 70//70
f 70//70 79//79 80//80
f 70//70 80//80 71//71
f 71//71 80//80 81//81
f 71//71 81//81 72//72
f 72//72 81//81 82//82
f 72//72 82//82 12//12
f 73//73 1//1 83//83
f 73//73 83//83 74//74
f 74//74 83//83 84//84
f 74//74 84//84 75//75
f 75//75 84//84 85//85
f 75//75 85//85 76//76
f 76//76 85//85 86//86
f 76//76 86//86 77//77
f 77//77 86//86 87//87
f 77//77 87//87 78//78
f 78//78 87//87 88//88
f 78//78 88//88 79//79
f 79//79 88//88 89//89
f 79//79 89//89 80//80
f 80//80 89//89 90//90
f 80//80 90//90 81//81
f 81//81 90//90 91//91
f 81//81 91//91 82//82
f 82//82 91//91 92//92
f 82//82 92//92 12//12
f 83//83 1//1 93//93
f 83//83 93//93 84//84
f 84//84 93//93 94//94
f 84//84 94//94 85//85
f 85//85 94//94 95//95
f 85//85 95//95 86//86
f 86//86 95//95 96//96
f 86//86 96//96 87//87
f 87//87 96//96 97//97
f 87//87 97//97 88//88
f 88//88 97//97 98//98
f 88//88 98//98 89//89
f 89//89 98//98 99//99
f 89//89 99//99 90//90
f 90//90 99//99 100//100
f 90//90 100//100 91//91
f 91//91 100//100 101//101
f 91//91 101//101 92//92
f 92//92 101//101 102//102
f 92//92 102//102 12//12
f 93//93 1//1 103//103
f 93//93 103//103 94//94
f 94//94 103//103 104//104
f 94//94 104//104 95//95
f 95//95 104//104 105//105
f 95//95 105//105 96//96
f 96//96 105//105 106//106
f 96//96 106//106 97//97
f 97//97 106//106 107//107
f 97//97 107//107 98//98
f 98//98 107//107 108//108
f 98//98 108//108 99//99
f 99//99 108//108 109//109
f 99//99 109//109 100//100
f 100//100 109//109 110//110
f 100//100 110//110 101//101
f 101//101 110//110 111//111
f 101//101 111//111 102//102
f 102//102 111//111 112//112
f 102//102 112//112 12//12
f 103//103 1//1 113//113
f 103//103 113//113 104//104
f 104//104 113//113 114//114
f 104//104 114//114 105//105
f 105//105 114//114 115//115
f 105//105 115//115 106//106
f 106//106 115//115 116//116
f 106//106 116//116 107//107
f 107//107 116//116 117//117
f 107//107 117//117 108//108
f 108//108 117//117 118//118
f 108//108 118//118 109//109
f 109//109 118//118 119//119
f 109//109 119//119 110//110
f 110//110 119//119 120//120
f 110//110 120//120 111//111
f 111//111 120//120 121//121
f 111//111 121//121 112//112
f 112//112 121//121 122//122
f 112//112 122//122 12//12
f 113//113 1//1 2//2
f 113//113 2//2 114//114
f 114//114 2//2 3//3
f 114//114 3//3 115//115
f 115//115 3//3 4//4
f 115//115 4//4 116//116
f 116//116 4//4 5//5
f 116//116 5//5 117//117
f 117//117 5//5 6//6
f 117//117 6//6 118//118
f 118//118 6//6 7//7
f 118//118 7//7 119//119
f 119//119 7//7 8//8
f 119//119 8//8 120//120
f 120//120 8//8 9//9
f 120//120 9//9 121//121
f 121//121 9//9 10//10
f 121//121 10//10 122//122
f 122//122 10//10 11//11
f 122//122 11//11 12//12

