# https://github.com/mikedh/trimesh
v 0.0350000 1.7446938 0.0985529
v 0.0365495 1.7449087 0.0986115
v 0.0379735 1.7455361 0.0987826
v 0.0391566 1.7465252 0.0990523
v 0.0400030 1.7477957 0.0993988
v 0.0404440 1.7492448 0.0997940
v 0.0404440 1.8607552 0.1302060
v 0.0400030 1.8622043 0.1306012
v 0.0391566 1.8634748 0.1309477
v 0.0379735 1.8644639 0.1312174
v 0.0365495 1.8650913 0.1313885
v 0.0350000 1.8653062 0.1314471
v 0.0363419 1.7451126 0.0978640
v 0.0375751 1.7459273 0.0973482
v 0.0385997 1.7470720 0.0970472
v 0.0393327 1.7484539 0.0969855
v 0.0397147 1.7499611 0.0971680
v 0.0397147 1.8614714 0.1275799
v 0.0393327 1.8628625 0.1281878
v 0.0385997 1.8640217 0.1289426
v 0.0375751 1.8648551 0.1297830
v 0.0363419 1.8652951 0.1306411
v 0.0357748 1.7452618 0.0973168
v 0.0364868 1.7462137 0.0962982
v 0.0370783 1.7474723 0.0955794
v 0.0375015 1.7489357 0.0952188
v 0.0377220 1.7504854 0.0952455
v 0.0377220 1.8619957 0.1256574
v 0.0375015 1.8633443 0.1264211
v 0.0370783 1.8644220 0.1274748
v 0.0364868 1.8651414 0.1287330
v 0.0357748 1.8654443 0.1300939
v 0.0350000 1.7453164 0.0971165
v 0.0350000 1.7463185 0.0959138
v 0.0350000 1.7476189 0.0950422
v 0.0350000 1.7491121 0.0945721
v 0.0350000 1.7506773 0.0945419
v 0.0350000 1.8621876 0.1249538
v 0.0350000 1.8635206 0.1257745
v 0.0350000 1.8645685 0.1269375
v 0.0350000 1.8652462 0.1283487
v 0.0350000 1.8654990 0.1298936
v 0.0342252 1.7452618 0.0973168
v 0.0335132 1.7462137 0.0962982
v 0.0329217 1.7474723 0.0955794
v 0.0324985 1.7489357 0.0952188
v 0.0322780 1.7504854 0.0952455
v 0.0322780 1.8619957 0.1256574
v 0.0324985 1.8633443 0.1264211
v 0.0329217 1.8644220 0.1274748
v 0.0335132 1.8651414 0.1287330
v 0.0342252 1.8654443 0.1300939
v 0.0336581 1.7451126 0.0978640
v 0.0324249 1.7459273 0.0973482
v 0.0314003 1.7470720 0.0970472
v 0.0306673 1.7484539 0.0969855
v 0.0302853 1.7499611 0.0971680
v 0.0302853 1.8614714 0.1275799
v 0.0306673 1.8628625 0.1281878
v 0.0314003 1.8640217 0.1289426
v 0.0324249 1.8648551 0.1297830
v 0.0336581 1.8652951 0.1306411
v 0.0334505 1.7449087 0.0986115
v 0.0320265 1.7455361 0.0987826
v 0.0308434 1.7465252 0.0990523
v 0.0299970 1.7477957 0.0993988
v 0.0295560 1.7492448 0.0997940
v 0.0295560 1.8607552 0.1302060
v 0.0299970 1.8622043 0.1306012
v 0.0308434 1.8634748 0.1309477
v 0.0320265 1.8644639 0.1312174
v 0.0334505 1.8650913 0.1313885
v 0.0336581 1.7447049 0.0993589
v 0.0324249 1.7451449 0.1002170
v 0.0314003 1.7459783 0.1010574
v 0.0306673 1.7471375 0.1018122
v 0.0302853 1.7485286 0.1024201
v 0.0302853 1.8600389 0.1328320
v 0.0306673 1.8615461 0.1330145
v 0.0314003 1.8629280 0.1329528
v 0.0324249 1.8640727 0.1326518
v 0.0336581 1.8648874 0.1321360
v 0.0342252 1.7445557 0.0999061
v 0.0335132 1.7448586 0.1012670
v 0.0329217 1.7455780 0.1025252
v 0.0324985 1.7466557 0.1035789
v 0.0322780 1.7480043 0.1043426
v 0.0322780 1.8595146 0.1347545
v 0.0324985 1.8610643 0.1347812
v 0.0329217 1.8625277 0.1344206
v 0.0335132 1.8637863 0.1337018
v 0.0342252 1.8647382 0.1326832
v 0.0350000 1.7445010 0.1001064
v 0.0350000 1.7447538 0.1016513
v 0.0350000 1.7454315 0.1030625
v 0.0350000 1.7464794 0.1042255
v 0.0350000 1.7478124 0.1050462
v 0.0350000 1.8593227 0.1354581
v 0.0350000 1.8608879 0.1354279
v 0.0350000 1.8623811 0.1349578
v 0.0350000 1.8636815 0.1340862
v 0.0350000 1.8646836 0.1328835
v 0.0357748 1.7445557 0.0999061
v 0.0364868 1.7448586 0.1012670
v 0.0370783 1.7455780 0.1025252
v 0.0375015 1.7466557 0.1035789
v 0.0377220 1.7480043 0.1043426
v 0.0377220 1.8595146 0.1347545
v 0.0375015 1.8610643 0.1347812
v 0.0370783 1.8625277 0.1344206
v 0.0364868 1.8637863 0.1337018
v 0.0357748 1.8647382 0.1326832
v 0.0363419 1.7447049 0.0993589
v 0.0375751 1.7451449 0.1002170
v 0.0385997 1.7459783 0.1010574
v 0.0393327 1.7471375 0.1018122
v 0.0397147 1.7485286 0.1024201
v 0.0397147 1.8600389 0.1328320
v 0.0393327 1.8615461 0.1330145
v 0.0385997 1.8629280 0.1329528
v 0.0375751 1.8640727 0.1326518
v 0.0363419 1.8648874 0.1321360
vn 0.0000000 -0.9647638 -0.2631174
vn 0.3032529 -0.9193332 -0.2507272
vn 0.5569505 -0.8012804 -0.2185310
vn 0.7655083 -0.6207541 -0.1692966
vn 0.9135220 -0.3924557 -0.1070334
vn 0.9902757 -0.1342169 -0.0366046
vn 0.9902757 0.1342169 0.0366046
vn 0.9135220 0.3924557 0.1070334
vn 0.7655083 0.6207541 0.1692966
vn 0.5569505 0.8012804 0.2185310
vn 0.3032529 0.9193332 0.2507272
vn 0.0000000 0.9647638 0.2631174
vn 0.2626247 -0.8794376 -0.3970109
vn 0.4823333 -0.7280088 -0.4871939
vn 0.6629496 -0.5200449 -0.5385639
vn 0.7911332 -0.2722739 -0.5476998
vn 0.8576039 -0.0039375 -0.5142957
vn 0.8576039 0.2644963 -0.4410865
vn 0.7911332 0.5126375 -0.3336331
vn 0.6629496 0.7214634 -0.1999708
vn 0.4823333 0.8745521 -0.0501318
vn 0.2626247 0.9592288 0.1044435
vn 0.1516264 -0.8502321 -0.5040981
vn 0.2784752 -0.6743702 -0.6838687
vn 0.3827542 -0.4463205 -0.8088864
vn 0.4567610 -0.1842948 -0.8702901
vn 0.4951378 0.0914336 -0.8639898
vn 0.4951378 0.3598674 -0.7907806
vn 0.4567610 0.6006166 -0.6562233
vn 0.3827542 0.7951877 -0.4702933
vn 0.2784752 0.9281907 -0.2468066
vn 0.1516264 0.9884343 -0.0026436
vn -0.0000000 -0.8395421 -0.5432947
vn -0.0000000 -0.6547371 -0.7558567
vn -0.0000000 -0.4193356 -0.9078313
vn -0.0000000 -0.1520922 -0.9883663
vn 0.0000000 0.1263419 -0.9919868
vn 0.0000000 0.3947757 -0.9187775
vn 0.0000000 0.6328192 -0.7742996
vn -0.0000000 0.8221727 -0.5692381
vn -0.0000000 0.9478238 -0.3187946
vn 0.0000000 0.9991243 -0.0418402
vn -0.1516264 -0.8502321 -0.5040981
vn -0.2784752 -0.6743702 -0.6838687
vn -0.3827542 -0.4463205 -0.8088864
vn -0.4567610 -0.1842948 -0.8702901
vn -0.4951378 0.0914336 -0.8639898
vn -0.4951378 0.3598674 -0.7907806
vn -0.4567610 0.6006166 -0.6562233
vn -0.3827542 0.7951877 -0.4702933
vn -0.2784752 0.9281907 -0.2468066
vn -0.1516264 0.9884343 -0.0026436
vn -0.2626247 -0.8794376 -0.3970109
vn -0.4823333 -0.7280088 -0.4871939
vn -0.6629496 -0.5200449 -0.5385639
vn -0.7911332 -0.2722739 -0.5476998
vn -0.8576039 -0.0039375 -0.5142957
vn -0.8576039 0.2644963 -0.4410865
vn -0.7911332 0.5126375 -0.3336331
vn -0.6629496 0.7214634 -0.1999708
vn -0.4823333 0.8745521 -0.0501318
vn -0.2626247 0.9592288 0.1044435
vn -0.3032529 -0.9193332 -0.2507272
vn -0.5569505 -0.8012804 -0.2185310
vn -0.7655083 -0.6207541 -0.1692966
vn -0.9135220 -0.3924557 -0.1070334
vn -0.9902757 -0.1342169 -0.0366046
vn -0.9902757 0.1342169 0.0366046
vn -0.9135220 0.3924557 0.1070334
vn -0.7655083 0.6207541 0.1692966
vn -0.5569505 0.8012804 0.2185310
vn -0.3032529 0.9193332 0.2507272
vn -0.2626247 -0.9592288 -0.1044435
vn -0.4823333 -0.8745521 0.0501318
vn -0.6629496 -0.7214634 0.1999708
vn -0.7911332 -0.5126375 0.3336331
vn -0.8576039 -0.2644963 0.4410865
vn -0.8576039 0.0039375 0.5142957
vn -0.7911332 0.2722739 0.5476998
vn -0.6629496 0.5200449 0.5385639
vn -0.4823333 0.7280088 0.4871939
vn -0.2626247 0.8794376 0.3970109
vn -0.1516264 -0.9884343 0.0026436
vn -0.2784752 -0.9281907 0.2468066
vn -0.3827542 -0.7951877 0.4702933
vn -0.4567610 -0.6006166 0.6562233
vn -0.4951378 -0.3598674 0.7907806
vn -0.4951378 -0.0914336 0.8639898
vn -0.4567610 0.1842948 0.8702901
vn -0.3827542 0.4463205 0.8088864
vn -0.2784752 0.6743702 0.6838687
vn -0.1516264 0.8502321 0.5040981
vn 0.0000000 -0.9991243 0.0418402
vn -0.0000000 -0.9478238 0.3187946
vn -0.0000000 -0.8221727 0.5692381
vn 0.0000000 -0.6328192 0.7742996
vn 0.0000000 -0.3947757 0.9187775
vn -0.0000000 -0.1263419 0.9919868
vn -0.0000000 0.1520922 0.9883663
vn -0.0000000 0.4193356 0.9078313
vn -0.0000000 0.6547371 0.7558567
vn -0.0000000 0.8395421 0.5432947
vn 0.1516264 -0.9884343 0.0026436
vn 0.2784752 -0.9281907 0.2468066
vn 0.3827542 -0.7951877 0.4702933
vn 0.4567610 -0.6006166 0.6562233
vn 0.4951378 -0.3598674 0.7907806
vn 0.4951378 -0.0914336 0.8639898
vn 0.4567610 0.1842948 0.8702901
vn 0.3827542 0.4463205 0.8088864
vn 0.2784752 0.6743702 0.6838687
vn 0.1516264 0.8502321 0.5040981
vn 0.2626247 -0.9592288 -0.1044435
vn 0.4823333 -0.8745521 0.0501318
vn 0.6629496 -0.7214634 0.1999708
vn 0.7911332 -0.5126375 0.3336331
vn 0.8576039 -0.2644963 0.4410865
vn 0.8576039 0.0039375 0.5142957
vn 0.7911332 0.2722739 0.5476998
vn 0.6629496 0.5200449 0.5385639
vn 0.4823333 0.7280088 0.4871939
vn 0.2626247 0.8794376 0.3970109
f 2//2 1//1 13//13
f 2//2 13//13 3//3
f 3//3 13//13 14//14
f 3//3 14//14 4//4
f 4//4 14//14 15//15
f 4//4 15//15 5//5
f 5//5 15//15 16//16
f 5//5 16//16 6//6
f 6//6 16//16 17//17
f 6//6 17//17 7//7
f 7//7 17//17 18//18
f 7//7 18//18 8//8
f 8//8 18//18 19//19
f 8//8 19//19 9//9
f 9//9 19//19 20//20
f 9//9 20//20 10//10
f 10//10 20//20 21//21
f 10//10 21//21 11//11
f 11//11 21//21 22//22
f 11//11 22//22 12//12
f 13//13 1//1 23//23
f 13//13 23//23 14//14
f 14//14 23//23 24//24
f 14//14 24//24 15//15
f 15//15 24//24 25//25
f 15//15 25//25 16//16
f 16//16 25//25 26//26
f 16//16 26//26 17//17
f 17//17 26//26 27//27
f 17//17 27//27 18//18
f 18//18 27//27 28//28
f 18//18 28//28 19//19
f 19//19 28//28 29//29
f 19//19 29//29 20//20
f 20//20 29//29 30//30
f 20//20 30//30 21//21
f 21//21 30//30 31//31
f 21//21 31//31 22//22
f 22//22 31//31 32//32
f 22//22 32//32 12//12
f 23//23 1//1 33//33
f 23//23 33//33 24//24
f 24//24 33//33 34//34
f 24//24 34//34 25//25
f 25//25 34//34 35//35
f 25//25 35//35 26//26
f 26//26 35//35 36//36
f 26//26 36//36 27//27
f 27//27 36//36 37//37
f 27//27 37//37 28//28
f 28//28 37//37 38//38
f 28//28 38//38 29//29
f 29//29 38//38 39//39
f 29//29 39//39 30//30
f 30//30 39//39 40//40
f 30//30 40//40 31//31
f 31//31 40//40 41//41
f 31//31 41//41 32//32
f 32//32 41//41 42//42
f 32//32 42//42 12//12
f 33//33 1//1 43//43
f 33//33 43//43 34//34
f 34//34 43//43 44//44
f 34//34 44//44 35//35
f 35//35 44//44 45//45
f 35//35 45//45 36//36
f 36//36 45//45 46//46
f 36//36 46//46 37//37
f 37//37 46//46 47//47
f 37//37 47//47 38//38
f 38//38 47//47 48//48
f 38//38 48//48 39//39
f 39//39 48//48 49//49
f 39//39 49//49 40//40
f 40//40 49//49 50//50
f 40//40 50//50 41//41
f 41//41 50//50 51//51
f 41//41 51//51 42//42
f 42//42 51//51 52//52
f 42//42 52//52 12//12
f 43//43 1//1 53//53
f 43//43 53//53 44//44
f 44//44 53//53 54//54
f 44//44 54//54 45//45
f 45//45 54//54 55//55
f 45//45 55//55 46//46
f 46//46 55//55 56//56
f 46//46 56//56 47//47
f 47//47 56//56 57//57
f 47//47 57//57 48//48
f 48//48 57//57 58//58
f 48//48 58//58 49//49
f 49//49 58//58 59//59
f 49//49 59//59 50//50
f 50//50 59//59 60//60
f 50//50 60//60 51//51
f 51//51 60//60 61//61
f 51//51 61//61 52//52
f 52//52 61//61 62//62
f 52//52 62//62 12//12
f 53//53 1//1 63//63
f 53//53 63//63 54//54
f 54//54 63//63 64//64
f 54//54 64//64 55//55
f 55//55 64//64 65//65
f 55//55 65//65 56//56
f 56//56 65//65 66//66
f 56//56 66//66 57//57
f 57//57 66//66 67//67
f 57//57 67//67 58//58
f 58//58 67//67 68//68
f 58//58 68//68 59//59
f 59//59 68//68 69//69
f 59//59 69//69 60//60
f 60//60 69//69 70//70
f 60//60 70//70 61//61
f 61//61 70//70 71//71
f 61//61 71//71 62//62
f 62//62 71//71 72//72
f 62//62 72//72 12//12
f 63//63 1//1 73//73
f 63//63 73//73 64//64
f 64//64 73//73 74//74
f 64//64 74//74 65//65
f 65//65 74//74 75//75
f 65//65 75//75 66//66
f 66//66 75//75 76//76
f 66//66 76//76 67//67
f 67//67 76//76 77//77
f 67//67 77//77 68//68
f 68//68 77//77 78//78
f 68//68 78//78 69//69
f 69//69 78//78 79//79
f 69//69 79//79 70//70
f 70//70 79//79 80//80
f 70//70 80//80 71//71
f 71//71 80//80 81//81
f 71//71 81//81 72//72
f 72//72 81//81 82//82
f 72//72 82//82 12//12
f 73//73 1//1 83//83
f 73//73 83//83 74//74
f 74//74 83//83 84//84
f 74//74 84//84 75//75
f 75//75 84//84 85//85
f 75//75 85//85 76//76
f 76//76 85//85 86//86
f 76//76 86//86 77//77
f 77//77 86//86 87//87
f 77//77 87//87 78//78
f 78//78 87//87 88//88
f 78//78 88//88 79//79
f 79//79 88//88 89//89
f 79//79 89//89 80//80
f 80//80 89//89 90//90
f 80//80 90//90 81//81
f 81//81 90//90 91//91
f 81//81 91//91 82//82
f 82//82 91//91 92//92
f 82//82 92//92 12//12
f 83//83 1//1 93//93
f 83//83 93//93 84//84
f 84//84 93//93 94//94
f 84//84 94//94 85//85
f 85//85 94//94 95//95
f 85//85 95//95 86//86
f 86//86 95//95 96//96
f 86//86 96//96 87//87
f 87//87 96//96 97//97
f 87//87 97//97 88//88
f 88//88 97//97 98//98
f 88//88 98//98 89//89
f 89//89 98//98 99//99
f 89//89 99//99 90//90
f 90//90 99//99 100//100
f 90//90 100//100 91//91
f 91//91 100//100 101//101
f 91//91 101//101 92//92
f 92//92 101//101 102//102
f 92//92 102//102 12//12
f 93//93 1//1 103//103
f 93//93 103//103 94//94
f 94//94 103//103 104//104
f 94//94 104//104 95//95
f 95//95 104//104 105//105
f 95//95 105//105 96//96
f 96//96 105//105 106//106
f 96//96 106//106 97//97
f 97//97 106//106 107//107
f 97//97 107//107 98//98
f 98//98 107//107 108//108
f 98//98 108//108 99//99
f 99//99 108//108 109//109
f 99//99 109//109 100//100
f 100//100 109//109 110//110
f 100//100 110//110 101//101
f 101//101 110//110 111//111
f 101//101 111//111 102//102
f 102//102 111//111 112//112
f 102//102 112//112 12//12
f 103//103 1//1 113//113
f 103//103 113//113 104//104
f 104//104 113//113 114//114
f 104//104 114//114 105//105
f 105//105 114//114 115//115
f 105//105 115//115 106//106
f 106//106 115//115 116//116
f 106//106 116//116 107//107
f 107//107 116//116 117//117
f 107//107 117//117 108//108
f 108//108 117//117 118//118
f 108//108 118//118 109//109
f 109//109 118//118 119//119
f 109//109 119//119 110//110
f 110//110 119//119 120//120
f 110//110 120//120 111//111
f 111//111 120//120 121//121
f 111//111 121//121 112//112
f 112//112 121//121 122//122
f 112//112 122//122 12//12
f 113//113 1//1 2//2
f 113//113 2//2 114//114
f 114//114 2//2 3//3
f 114//114 3//3 115//115
f 115//115 3//3 4//4
f 115//115 4//4 116//116
f 116//116 4//4 5//5
f 116//116 5//5 117//117
f 117//117 5//5 6//6
f 117//117 6//6 118//118
f 118//118 6//6 7//7
f 118//118 7//7 119//119
f 119//119 7//7 8//8
f 119//119 8//8 120//120
f 120//120 8//8 9//9
f 120//120 9//9 121//121
f 121//121 9//9 10//10
f 121//121 10//10 122//122
f 122//122 10//10 11//11
f 122//122 11//11 12//12

