# https://github.com/mikedh/trimesh
v -0.0141553 1.6420235 0.0766275
v -0.0132309 1.6416945 0.0778473
v -0.0126928 1.6412282 0.0792414
v -0.0125847 1.6406625 0.0806971
v -0.0129153 1.6400430 0.0820962
v -0.0136579 1.6394201 0.0833256
v -0.0717522 1.6088441 0.1342855
v -0.0731096 1.6083618 0.1348982
v -0.0746202 1.6080122 0.1351141
v -0.0761615 1.6078237 0.1349157
v -0.0776088 1.6078114 0.1343191
v -0.0788447 1.6079765 0.1333725
v -0.0134991 1.6424374 0.0779872
v -0.0132076 1.6426538 0.0795100
v -0.0133043 1.6426552 0.0810724
v -0.0137814 1.6424415 0.0825480
v -0.0146002 1.6420300 0.0838172
v -0.0726946 1.6114540 0.1347771
v -0.0739756 1.6107603 0.1353500
v -0.0753397 1.6100049 0.1354895
v -0.0766763 1.6092492 0.1351843
v -0.0778770 1.6085543 0.1344590
v -0.0139849 1.6430474 0.0777994
v -0.0141398 1.6438243 0.0791496
v -0.0146074 1.6442915 0.0805687
v -0.0153498 1.6444110 0.0819417
v -0.0163070 1.6441731 0.0831574
v -0.0744013 1.6135971 0.1341173
v -0.0755441 1.6127298 0.1347437
v -0.0766428 1.6116412 0.1349857
v -0.0776085 1.6104198 0.1348239
v -0.0783628 1.6091643 0.1342712
v -0.0145581 1.6433611 0.0773342
v -0.0152397 1.6444263 0.0782568
v -0.0161449 1.6451330 0.0793207
v -0.0172005 1.6454238 0.0804397
v -0.0183208 1.6452752 0.0815230
v -0.0764151 1.6146992 0.1324829
v -0.0773947 1.6137426 0.1332416
v -0.0781804 1.6124827 0.1337378
v -0.0787084 1.6110217 0.1339311
v -0.0789360 1.6094780 0.1338060
v -0.0150651 1.6432944 0.0767162
v -0.0162126 1.6442984 0.0770710
v -0.0175049 1.6449541 0.0776630
v -0.0188374 1.6452086 0.0784444
v -0.0201020 1.6450410 0.0793518
v -0.0781963 1.6144650 0.1303118
v -0.0790316 1.6135274 0.1312464
v -0.0795404 1.6123039 0.1320801
v -0.0796813 1.6108938 0.1327453
v -0.0794430 1.6094113 0.1331880
v -0.0153700 1.6428652 0.0761111
v -0.0167978 1.6434748 0.0759097
v -0.0183230 1.6438029 0.0760398
v -0.0198220 1.6438229 0.0764906
v -0.0211734 1.6435332 0.0772258
v -0.0792677 1.6129573 0.1281857
v -0.0800162 1.6121417 0.1292926
v -0.0803584 1.6111527 0.1304568
v -0.0802665 1.6100703 0.1315840
v -0.0797479 1.6089821 0.1325829
v -0.0153912 1.6421886 0.0756809
v -0.0168385 1.6421763 0.0750843
v -0.0183798 1.6419878 0.0748859
v -0.0198904 1.6416382 0.0751018
v -0.0212478 1.6411559 0.0757145
v -0.0793421 1.6105799 0.1266744
v -0.0800847 1.6099570 0.1279038
v -0.0804153 1.6093375 0.1293029
v -0.0803072 1.6087718 0.1307586
v -0.0797691 1.6083055 0.1321527
v -0.0151230 1.6414457 0.0755410
v -0.0163237 1.6407508 0.0748157
v -0.0176603 1.6399951 0.0745105
v -0.0190244 1.6392397 0.0746500
v -0.0203054 1.6385460 0.0752229
v -0.0783998 1.6079700 0.1261828
v -0.0792186 1.6075585 0.1274520
v -0.0796957 1.6073448 0.1289276
v -0.0797924 1.6073462 0.1304900
v -0.0795009 1.6075626 0.1320128
v -0.0146372 1.6408357 0.0757288
v -0.0153915 1.6395802 0.0751761
v -0.0163572 1.6383588 0.0750143
v -0.0174559 1.6372702 0.0752563
v -0.0185987 1.6364029 0.0758827
v -0.0766930 1.6058269 0.1268426
v -0.0776502 1.6055890 0.1280583
v -0.0783926 1.6057085 0.1294313
v -0.0788602 1.6061757 0.1308504
v -0.0790151 1.6069526 0.1322006
v -0.0140640 1.6405220 0.0761940
v -0.0142916 1.6389783 0.0760689
v -0.0148196 1.6375173 0.0762622
v -0.0156053 1.6362574 0.0767584
v -0.0165849 1.6353008 0.0775171
v -0.0746792 1.6047248 0.1284770
v -0.0757995 1.6045762 0.1295603
v -0.0768551 1.6048670 0.1306793
v -0.0777603 1.6055737 0.1317432
v -0.0784419 1.6066389 0.1326658
v -0.0135570 1.6405887 0.0768120
v -0.0133187 1.6391062 0.0772547
v -0.0134596 1.6376961 0.0779199
v -0.0139684 1.6364726 0.0787536
v -0.0148037 1.6355350 0.0796882
v -0.0728980 1.6049590 0.1306482
v -0.0741626 1.6047914 0.1315556
v -0.0754951 1.6050459 0.1323370
v -0.0767874 1.6057016 0.1329290
v -0.0779349 1.6067056 0.1332838
v -0.0132521 1.6410179 0.0774171
v -0.0127335 1.6399297 0.0784160
v -0.0126416 1.6388473 0.0795432
v -0.0129838 1.6378583 0.0807074
v -0.0137323 1.6370427 0.0818143
v -0.0718266 1.6064668 0.1327742
v -0.0731780 1.6061771 0.1335094
v -0.0746770 1.6061971 0.1339602
v -0.0762022 1.6065252 0.1340903
v -0.0776300 1.6071348 0.1338889
vn 0.6990314 0.3679113 -0.6131854
vn 0.8775096 0.3022404 -0.3723273
vn 0.9688239 0.2167755 -0.1199527
vn 0.9834056 0.1146828 0.1405749
vn 0.9211685 0.0040245 0.3891432
vn 0.7875629 -0.1066909 0.6069281
vn 0.5930659 -0.2090578 0.7775395
vn 0.3524513 -0.2953003 0.8880179
vn 0.0838556 -0.3587646 0.9296538
vn -0.1923312 -0.3943588 0.8986044
vn -0.4547186 -0.3989324 0.7962939
vn -0.6990314 -0.3679113 0.6131854
vn 0.8250150 0.4476213 -0.3449426
vn 0.8724129 0.4837803 -0.0696583
vn 0.8508922 0.4816713 0.2097027
vn 0.7630332 0.4419715 0.4716371
vn 0.6161411 0.3680522 0.6963531
vn 0.4216441 0.2656853 0.8669646
vn 0.1943160 0.1426467 0.9705118
vn -0.0486578 0.0082239 0.9987817
vn -0.2887421 -0.1273539 0.9488988
vn -0.5072132 -0.2535514 0.8236786
vn 0.7299430 0.5670018 -0.3816964
vn 0.6978049 0.7030331 -0.1371598
vn 0.6108998 0.7830263 0.1169244
vn 0.4766374 0.8015945 0.3609198
vn 0.3056825 0.7578906 0.5763333
vn 0.1111855 0.6555237 0.7469447
vn -0.0920798 0.5022697 0.8597944
vn -0.2886502 0.3095789 0.9060033
vn -0.4633502 0.0918988 0.8813973
vn -0.6022852 -0.1341709 0.7869248
vn 0.6177681 0.6283940 -0.4727405
vn 0.4917859 0.8157852 -0.3043702
vn 0.3277341 0.9379999 -0.1129003
vn 0.1387206 0.9865328 0.0866577
vn -0.0606259 0.9583673 0.2790279
vn -0.2551229 0.8560005 0.4496393
vn -0.4299965 0.6872080 0.5855324
vn -0.5718159 0.4645526 0.6761786
vn -0.6693692 0.2046509 0.7141869
vn -0.7144601 -0.0727787 0.6958808
vn 0.5185475 0.6153478 -0.5936797
vn 0.3095585 0.7918247 -0.5264856
vn 0.0772692 0.9050672 -0.4181900
vn -0.1601725 0.9472324 -0.2776608
vn -0.3846319 0.9157649 -0.1159005
vn -0.5791289 0.8133981 0.0547109
vn -0.7288897 0.6479076 0.2212139
vn -0.8222808 0.4316198 0.3708889
vn -0.8515965 0.1806905 0.4920714
vn -0.8136807 -0.0858249 0.5749416
vn 0.4588672 0.5313590 -0.7121085
vn 0.1999505 0.6375720 -0.7439905
vn -0.0733831 0.6930523 -0.7171425
vn -0.3399540 0.6942238 -0.6344168
vn -0.5795185 0.6414986 -0.5026310
vn -0.7740155 0.5391317 -0.3320196
vn -0.9086711 0.3948990 -0.1355421
vn -0.9729331 0.2196050 0.0719364
vn -0.9612046 0.0264377 0.2745666
vn -0.8733610 -0.1698137 0.4565128
vn 0.4547186 0.3989324 -0.7962939
vn 0.1923312 0.3943588 -0.8986044
vn -0.0838556 0.3587646 -0.9296538
vn -0.3524513 0.2953003 -0.8880179
vn -0.5930659 0.2090578 -0.7775395
vn -0.7875629 0.1066909 -0.6069281
vn -0.9211685 -0.0040245 -0.3891432
vn -0.9834056 -0.1146828 -0.1405749
vn -0.9688239 -0.2167755 0.1199527
vn -0.8775096 -0.3022404 0.3723273
vn 0.5072132 0.2535514 -0.8236786
vn 0.2887421 0.1273539 -0.9488988
vn 0.0486578 -0.0082239 -0.9987817
vn -0.1943160 -0.1426467 -0.9705118
vn -0.4216441 -0.2656853 -0.8669646
vn -0.6161411 -0.3680522 -0.6963531
vn -0.7630332 -0.4419715 -0.4716371
vn -0.8508922 -0.4816713 -0.2097027
vn -0.8724129 -0.4837803 0.0696583
vn -0.8250150 -0.4476213 0.3449426
vn 0.6022852 0.1341709 -0.7869248
vn 0.4633502 -0.0918988 -0.8813973
vn 0.2886502 -0.3095789 -0.9060033
vn 0.0920798 -0.5022697 -0.8597944
vn -0.1111855 -0.6555237 -0.7469447
vn -0.3056825 -0.7578906 -0.5763333
vn -0.4766374 -0.8015945 -0.3609198
vn -0.6108998 -0.7830263 -0.1169244
vn -0.6978049 -0.7030331 0.1371598
vn -0.7299430 -0.5670018 0.3816964
vn 0.7144601 0.0727787 -0.6958808
vn 0.6693692 -0.2046509 -0.7141869
vn 0.5718159 -0.4645526 -0.6761786
vn 0.4299965 -0.6872080 -0.5855324
vn 0.2551229 -0.8560005 -0.4496393
vn 0.0606259 -0.9583673 -0.2790279
vn -0.1387206 -0.9865328 -0.0866577
vn -0.3277341 -0.9379999 0.1129003
vn -0.4917859 -0.8157852 0.3043702
vn -0.6177681 -0.6283940 0.4727405
vn 0.8136807 0.0858249 -0.5749416
vn 0.8515965 -0.1806905 -0.4920714
vn 0.8222808 -0.4316198 -0.3708889
vn 0.7288897 -0.6479076 -0.2212139
vn 0.5791289 -0.8133981 -0.0547109
vn 0.3846319 -0.9157649 0.1159005
vn 0.1601725 -0.9472324 0.2776608
vn -0.0772692 -0.9050672 0.4181900
vn -0.3095585 -0.7918247 0.5264856
vn -0.5185475 -0.6153478 0.5936797
vn 0.8733610 0.1698137 -0.4565128
vn 0.9612046 -0.0264377 -0.2745666
vn 0.9729331 -0.2196050 -0.0719364
vn 0.9086711 -0.3948990 0.1355421
vn 0.7740155 -0.5391317 0.3320196
vn 0.5795185 -0.6414986 0.5026310
vn 0.3399540 -0.6942238 0.6344168
vn 0.0733831 -0.6930523 0.7171425
vn -0.1999505 -0.6375720 0.7439905
vn -0.4588672 -0.5313590 0.7121085
f 2//2 1//1 13//13
f 2//2 13//13 3//3
f 3//3 13//13 14//14
f 3//3 14//14 4//4
f 4//4 14//14 15//15
f 4//4 15//15 5//5
f 5//5 15//15 16//16
f 5//5 16//16 6//6
f 6//6 16//16 17//17
f 6//6 17//17 7//7
f 7//7 17//17 18//18
f 7//7 18//18 8//8
f 8//8 18//18 19//19
f 8//8 19//19 9//9
f 9//9 19//19 20//20
f 9//9 20//20 10//10
f 10//10 20//20 21//21
f 10//10 21//21 11//11
f 11//11 21//21 22//22
f 11//11 22//22 12//12
f 13//13 1//1 23//23
f 13//13 23//23 14//14
f 14//14 23//23 24//24
f 14//14 24//24 15//15
f 15//15 24//24 25//25
f 15//15 25//25 16//16
f 16//16 25//25 26//26
f 16//16 26//26 17//17
f 17//17 26//26 27//27
f 17//17 27//27 18//18
f 18//18 27//27 28//28
f 18//18 28//28 19//19
f 19//19 28//28 29//29
f 19//19 29//29 20//20
f 20//20 29//29 30//30
f 20//20 30//30 21//21
f 21//21 30//30 31//31
f 21//21 31//31 22//22
f 22//22 31//31 32//32
f 22//22 32//32 12//12
f 23//23 1//1 33//33
f 23//23 33//33 24//24
f 24//24 33//33 34//34
f 24//24 34//34 25//25
f 25//25 34//34 35//35
f 25//25 35//35 26//26
f 26//26 35//35 36//36
f 26//26 36//36 27//27
f 27//27 36//36 37//37
f 27//27 37//37 28//28
f 28//28 37//37 38//38
f 28//28 38//38 29//29
f 29//29 38//38 39//39
f 29//29 39//39 30//30
f 30//30 39//39 40//40
f 30//30 40//40 31//31
f 31//31 40//40 41//41
f 31//31 41//41 32//32
f 32//32 41//41 42//42
f 32//32 42//42 12//12
f 33//33 1//1 43//43
f 33//33 43//43 34//34
f 34//34 43//43 44//44
f 34//34 44//44 35//35
f 35//35 44//44 45//45
f 35//35 45//45 36//36
f 36//36 45//45 46//46
f 36//36 46//46 37//37
f 37//37 46//46 47//47
f 37//37 47//47 38//38
f 38//38 47//47 48//48
f 38//38 48//48 39//39
f 39//39 48//48 49//49
f 39//39 49//49 40//40
f 40//40 49//49 50//50
f 40//40 50//50 41//41
f 41//41 50//50 51//51
f 41//41 51//51 42//42
f 42//42 51//51 52//52
f 42//42 52//52 12//12
f 43//43 1//1 53//53
f 43//43 53//53 44//44
f 44//44 53//53 54//54
f 44//44 54//54 45//45
f 45//45 54//54 55//55
f 45//45 55//55 46//46
f 46//46 55//55 56//56
f 46//46 56//56 47//47
f 47//47 56//56 57//57
f 47//47 57//57 48//48
f 48//48 57//57 58//58
f 48//48 58//58 49//49
f 49//49 58//58 59//59
f 49//49 59//59 50//50
f 50//50 59//59 60//60
f 50//50 60//60 51//51
f 51//51 60//60 61//61
f 51//51 61//61 52//52
f 52//52 61//61 62//62
f 52//52 62//62 12//12
f 53//53 1//1 63//63
f 53//53 63//63 54//54
f 54//54 63//63 64//64
f 54//54 64//64 55//55
f 55//55 64//64 65//65
f 55//55 65//65 56//56
f 56//56 65//65 66//66
f 56//56 66//66 57//57
f 57//57 66//66 67//67
f 57//57 67//67 58//58
f 58//58 67//67 68//68
f 58//58 68//68 59//59
f 59//59 68//68 69//69
f 59//59 69//69 60//60
f 60//60 69//69 70//70
f 60//60 70//70 61//61
f 61//61 70//70 71//71
f 61//61 71//71 62//62
f 62//62 71//71 72//72
f 62//62 72//72 12//12
f 63//63 1//1 73//73
f 63//63 73//73 64//64
f 64//64 73//73 74//74
f 64//64 74//74 65//65
f 65//65 74//74 75//75
f 65//65 75//75 66//66
f 66//66 75//75 76//76
f 66//66 76//76 67//67
f 67//67 76//76 77//77
f 67//67 77//77 68//68
f 68//68 77//77 78//78
f 68//68 78//78 69//69
f 69//69 78//78 79//79
f 69//69 79//79 70//70
f 70//70 79//79 80//80
f 70//70 80//80 71//71
f 71//71 80//80 81//81
f 71//71 81//81 72//72
f 72//72 81//81 82//82
f 72//72 82//82 12//12
f 73//73 1//1 83//83
f 73//73 83//83 74//74
f 74//74 83//83 84//84
f 74//74 84//84 75//75
f 75//75 84//84 85//85
f 75//75 85//85 76//76
f 76//76 85//85 86//86
f 76//76 86//86 77//77
f 77//77 86//86 87//87
f 77//77 87//87 78//78
f 78//78 87//87 88//88
f 78//78 88//88 79//79
f 79//79 88//88 89//89
f 79//79 89//89 80//80
f 80//80 89//89 90//90
f 80//80 90//90 81//81
f 81//81 90//90 91//91
f 81//81 91//91 82//82
f 82//82 91//91 92//92
f 82//82 92//92 12//12
f 83//83 1//1 93//93
f 83//83 93//93 84//84
f 84//84 93//93 94//94
f 84//84 94//94 85//85
f 85//85 94//94 95//95
f 85//85 95//95 86//86
f 86//86 95//95 96//96
f 86//86 96//96 87//87
f 87//87 96//96 97//97
f 87//87 97//97 88//88
f 88//88 97//97 98//98
f 88//88 98//98 89//89
f 89//89 98//98 99//99
f 89//89 99//99 90//90
f 90//90 99//99 100//100
f 90//90 100//100 91//91
f 91//91 100//100 101//101
f 91//91 101//101 92//92
f 92//92 101//101 102//102
f 92//92 102//102 12//12
f 93//93 1//1 103//103
f 93//93 103//103 94//94
f 94//94 103//103 104//104
f 94//94 104//104 95//95
f 95//95 104//104 105//105
f 95//95 105//105 96//96
f 96//96 105//105 106//106
f 96//96 106//106 97//97
f 97//97 106//106 107//107
f 97//97 107//107 98//98
f 98//98 107//107 108//108
f 98//98 108//108 99//99
f 99//99 108//108 109//109
f 99//99 109//109 100//100
f 100//100 109//109 110//110
f 100//100 110//110 101//101
f 101//101 110//110 111//111
f 101//101 111//111 102//102
f 102//102 111//111 112//112
f 102//102 112//112 12//12
f 103//103 1//1 113//113
f 103//103 113//113 104//104
f 104//104 113//113 114//114
f 104//104 114//114 105//105
f 105//105 114//114 115//115
f 105//105 115//115 106//106
f 106//106 115//115 116//116
f 106//106 116//116 107//107
f 107//107 116//116 117//117
f 107//107 117//117 108//108
f 108//108 117//117 118//118
f 108//108 118//118 109//109
f 109//109 118//118 119//119
f 109//109 119//119 110//110
f 110//110 119//119 120//120
f 110//110 120//120 111//111
f 111//111 120//120 121//121
f 111//111 121//121 112//112
f 112//112 121//121 122//122
f 112//112 122//122 12//12
f 113//113 1//1 2//2
f 113//113 2//2 114//114
f 114//114 2//2 3//3
f 114//114 3//3 115//115
f 115//115 3//3 4//4
f 115//115 4//4 116//116
f 116//116 4//4 5//5
f 116//116 5//5 117//117
f 117//117 5//5 6//6
f 117//117 6//6 118//118
f 118//118 6//6 7//7
f 118//118 7//7 119//119
f 119//119 7//7 8//8
f 119//119 8//8 120//120
f 120//120 8//8 9//9
f 120//120 9//9 121//121
f 121//121 9//9 10//10
f 121//121 10//10 122//122
f 122//122 10//10 11//11
f 122//122 11//11 12//12

