# https://github.com/mikedh/trimesh
v -0.1996504 -1.6930087 -0.0400000
v -0.1976974 -1.6933903 -0.0399015
v -0.1959309 -1.6943073 -0.0398110
v -0.1944940 -1.6956855 -0.0397358
v -0.1935032 -1.6974133 -0.0396820
v -0.1930388 -1.6993506 -0.0396540
v -0.2131383 -2.1013405 -0.0396540
v -0.2137937 -2.1032219 -0.0396820
v -0.2149519 -2.1048422 -0.0397358
v -0.2165190 -2.1060702 -0.0398110
v -0.2183682 -2.1068064 -0.0399015
v -0.2203496 -2.1069913 -0.0400000
v -0.1980101 -1.6933747 -0.0389299
v -0.1965310 -1.6942773 -0.0379464
v -0.1953329 -1.6956436 -0.0371294
v -0.1945130 -1.6973628 -0.0365449
v -0.1941375 -1.6992957 -0.0362403
v -0.2142370 -2.1012856 -0.0362403
v -0.2148034 -2.1031714 -0.0365449
v -0.2157908 -2.1048002 -0.0371294
v -0.2171192 -2.1060402 -0.0379464
v -0.2186809 -2.1067908 -0.0389299
v -0.1987662 -1.6933369 -0.0382450
v -0.1979819 -1.6942048 -0.0366321
v -0.1973611 -1.6955422 -0.0352921
v -0.1969540 -1.6972408 -0.0343335
v -0.1967938 -1.6991629 -0.0338340
v -0.2168933 -2.1011528 -0.0338340
v -0.2172445 -2.1030493 -0.0343335
v -0.2178189 -2.1046988 -0.0352921
v -0.2185700 -2.1059676 -0.0366321
v -0.2194370 -2.1067530 -0.0382450
v -0.1997630 -1.6932870 -0.0380303
v -0.1998947 -1.6941091 -0.0362202
v -0.2000349 -1.6954085 -0.0347164
v -0.2001724 -1.6970798 -0.0336405
v -0.2002958 -1.6989878 -0.0330799
v -0.2203953 -2.1009777 -0.0330799
v -0.2204628 -2.1028884 -0.0336405
v -0.2204928 -2.1045651 -0.0347164
v -0.2204828 -2.1058720 -0.0362202
v -0.2204338 -2.1067032 -0.0380303
v -0.2007334 -1.6932385 -0.0383435
v -0.2017569 -1.6940160 -0.0368211
v -0.2026381 -1.6952783 -0.0355563
v -0.2033056 -1.6969232 -0.0346515
v -0.2037053 -1.6988173 -0.0341800
v -0.2238048 -2.1008072 -0.0341800
v -0.2235960 -2.1027317 -0.0346515
v -0.2230959 -2.1044350 -0.0355563
v -0.2223451 -2.1057789 -0.0368211
v -0.2214042 -2.1066546 -0.0383435
v -0.2014174 -1.6932043 -0.0391005
v -0.2030696 -1.6939504 -0.0382738
v -0.2044731 -1.6951866 -0.0375870
v -0.2055142 -1.6968128 -0.0370956
v -0.2061085 -1.6986971 -0.0368396
v -0.2262080 -2.1006870 -0.0368396
v -0.2258046 -2.1026213 -0.0370956
v -0.2249309 -2.1043432 -0.0375870
v -0.2236577 -2.1057132 -0.0382738
v -0.2220882 -2.1066204 -0.0391005
v -0.2016318 -1.6931936 -0.0400985
v -0.2034810 -1.6939298 -0.0401890
v -0.2050481 -1.6951578 -0.0402642
v -0.2062063 -1.6967781 -0.0403180
v -0.2068617 -1.6986595 -0.0403460
v -0.2269612 -2.1006494 -0.0403460
v -0.2264968 -2.1025867 -0.0403180
v -0.2255060 -2.1043145 -0.0402642
v -0.2240691 -2.1056927 -0.0401890
v -0.2223026 -2.1066097 -0.0400985
v -0.2013191 -1.6932092 -0.0410701
v -0.2028808 -1.6939598 -0.0420536
v -0.2042092 -1.6951998 -0.0428706
v -0.2051966 -1.6968286 -0.0434551
v -0.2057630 -1.6987144 -0.0437597
v -0.2258625 -2.1007043 -0.0437597
v -0.2254870 -2.1026372 -0.0434551
v -0.2246671 -2.1043564 -0.0428706
v -0.2234690 -2.1057227 -0.0420536
v -0.2219899 -2.1066253 -0.0410701
v -0.2005630 -1.6932470 -0.0417550
v -0.2014300 -1.6940324 -0.0433679
v -0.2021811 -1.6953012 -0.0447079
v -0.2027555 -1.6969507 -0.0456665
v -0.2031067 -1.6988472 -0.0461660
v -0.2232062 -2.1008371 -0.0461660
v -0.2230460 -2.1027592 -0.0456665
v -0.2226389 -2.1044578 -0.0447079
v -0.2220181 -2.1057952 -0.0433679
v -0.2212338 -2.1066631 -0.0417550
v -0.1995662 -1.6932968 -0.0419697
v -0.1995172 -1.6941280 -0.0437798
v -0.1995072 -1.6954349 -0.0452836
v -0.1995372 -1.6971116 -0.0463595
v -0.1996047 -1.6990223 -0.0469201
v -0.2197042 -2.1010122 -0.0469201
v -0.2198276 -2.1029202 -0.0463595
v -0.2199651 -2.1045915 -0.0452836
v -0.2201053 -2.1058909 -0.0437798
v -0.2202370 -2.1067130 -0.0419697
v -0.1985958 -1.6933454 -0.0416565
v -0.1976549 -1.6942211 -0.0431789
v -0.1969041 -1.6955650 -0.0444437
v -0.1964040 -1.6972683 -0.0453485
v -0.1961952 -1.6991928 -0.0458200
v -0.2162947 -2.1011827 -0.0458200
v -0.2166944 -2.1030768 -0.0453485
v -0.2173619 -2.1047217 -0.0444437
v -0.2182431 -2.1059840 -0.0431789
v -0.2192666 -2.1067615 -0.0416565
v -0.1979118 -1.6933796 -0.0408995
v -0.1963423 -1.6942868 -0.0417262
v -0.1950691 -1.6956568 -0.0424130
v -0.1941954 -1.6973787 -0.0429044
v -0.1937920 -1.6993130 -0.0431604
v -0.2138915 -2.1013029 -0.0431604
v -0.2144858 -2.1031872 -0.0429044
v -0.2155269 -2.1048134 -0.0424130
v -0.2169304 -2.1060496 -0.0417262
v -0.2185826 -2.1067957 -0.0408995
vn 0.0499376 0.9987523 0.0000000
vn 0.3500827 0.9365964 0.0151437
vn 0.5970370 0.8017314 0.0278128
vn 0.7957305 0.6044433 0.0382277
vn 0.9315580 0.3607197 0.0456191
vn 0.9947534 0.0895551 0.0494520
vn 0.9808589 -0.1883357 0.0494520
vn 0.8909298 -0.4518441 0.0456191
vn 0.7314682 -0.6808032 0.0382277
vn 0.5140861 -0.8572875 0.0278128
vn 0.2549106 -0.9668460 0.0151437
vn -0.0499376 -0.9987523 0.0000000
vn 0.3019934 0.9390008 0.1645521
vn 0.5087169 0.8061474 0.3022144
vn 0.6743376 0.6105129 0.4153827
vn 0.7866933 0.3679629 0.4956984
vn 0.8377173 0.0974069 0.5373468
vn 0.8238228 -0.1804839 0.5373468
vn 0.7460651 -0.4446008 0.4956984
vn 0.6100753 -0.6747336 0.4153827
vn 0.4257659 -0.8528715 0.3022144
vn 0.2068213 -0.9644416 0.1645521
vn 0.1857359 0.9448137 0.2698689
vn 0.2951997 0.8168233 0.4956379
vn 0.3808660 0.6251865 0.6812363
vn 0.4364780 0.3854737 0.8129557
vn 0.4580771 0.1163889 0.8812599
vn 0.4441826 -0.1615019 0.8812599
vn 0.3958498 -0.4270901 0.8129557
vn 0.3166037 -0.6600600 0.6812363
vn 0.2122488 -0.8421957 0.4956379
vn 0.0905638 -0.9586287 0.2698689
vn 0.0324612 0.9524774 0.3028745
vn 0.0136974 0.8308984 0.5562556
vn -0.0060488 0.6445322 0.7645532
vn -0.0252481 0.4085600 0.9123822
vn -0.0424430 0.1414149 0.9890402
vn -0.0563376 -0.1364758 0.9890402
vn -0.0658763 -0.4040038 0.9123822
vn -0.0703111 -0.6407142 0.7645532
vn -0.0692536 -0.8281206 0.5562556
vn -0.0627109 -0.9509650 0.3028745
vn -0.1167608 0.9599385 0.2547252
vn -0.2603618 0.8446013 0.4678251
vn -0.3827333 0.6633665 0.6430087
vn -0.4747659 0.4310359 0.7673366
vn -0.5297291 0.1657792 0.8318079
vn -0.5436236 -0.1121115 0.8318079
vn -0.5153940 -0.3815279 0.7673366
vn -0.4469956 -0.6218800 0.6430087
vn -0.3433128 -0.8144176 0.4678251
vn -0.2119329 -0.9435039 0.2547252
vn -0.2219461 0.9651978 0.1383224
vn -0.4535440 0.8542604 0.2540412
vn -0.6482552 0.6766425 0.3491705
vn -0.7916273 0.4468789 0.4166838
vn -0.8732131 0.1829534 0.4516934
vn -0.8871077 -0.0949373 0.4516934
vn -0.8322555 -0.3656848 0.4166838
vn -0.7125175 -0.6086039 0.3491705
vn -0.5364949 -0.8047585 0.2540412
vn -0.3171183 -0.9382446 0.1383224
vn -0.2549106 0.9668460 -0.0151437
vn -0.5140861 0.8572875 -0.0278128
vn -0.7314682 0.6808032 -0.0382277
vn -0.8909298 0.4518441 -0.0456191
vn -0.9808589 0.1883357 -0.0494520
vn -0.9947534 -0.0895551 -0.0494520
vn -0.9315580 -0.3607197 -0.0456191
vn -0.7957305 -0.6044433 -0.0382277
vn -0.5970370 -0.8017314 -0.0278128
vn -0.3500827 -0.9365964 -0.0151437
vn -0.2068213 0.9644416 -0.1645521
vn -0.4257659 0.8528715 -0.3022144
vn -0.6100753 0.6747336 -0.4153827
vn -0.7460651 0.4446008 -0.4956984
vn -0.8238228 0.1804839 -0.5373468
vn -0.8377173 -0.0974069 -0.5373468
vn -0.7866933 -0.3679629 -0.4956984
vn -0.6743376 -0.6105129 -0.4153827
vn -0.5087169 -0.8061474 -0.3022144
vn -0.3019934 -0.9390008 -0.1645521
vn -0.0905638 0.9586287 -0.2698689
vn -0.2122488 0.8421957 -0.4956379
vn -0.3166037 0.6600600 -0.6812363
vn -0.3958498 0.4270901 -0.8129557
vn -0.4441826 0.1615019 -0.8812599
vn -0.4580771 -0.1163889 -0.8812599
vn -0.4364780 -0.3854737 -0.8129557
vn -0.3808660 -0.6251865 -0.6812363
vn -0.2951997 -0.8168233 -0.4956379
vn -0.1857359 -0.9448137 -0.2698689
vn 0.0627109 0.9509650 -0.3028745
vn 0.0692536 0.8281206 -0.5562556
vn 0.0703111 0.6407142 -0.7645532
vn 0.0658763 0.4040038 -0.9123822
vn 0.0563376 0.1364758 -0.9890402
vn 0.0424430 -0.1414149 -0.9890402
vn 0.0252481 -0.4085600 -0.9123822
vn 0.0060488 -0.6445322 -0.7645532
vn -0.0136974 -0.8308984 -0.5562556
vn -0.0324612 -0.9524774 -0.3028745
vn 0.2119329 0.9435039 -0.2547252
vn 0.3433128 0.8144176 -0.4678251
vn 0.4469956 0.6218800 -0.6430087
vn 0.5153940 0.3815279 -0.7673366
vn 0.5436236 0.1121115 -0.8318079
vn 0.5297291 -0.1657792 -0.8318079
vn 0.4747659 -0.4310359 -0.7673366
vn 0.3827333 -0.6633665 -0.6430087
vn 0.2603618 -0.8446013 -0.4678251
vn 0.1167608 -0.9599385 -0.2547252
vn 0.3171183 0.9382446 -0.1383224
vn 0.5364949 0.8047585 -0.2540412
vn 0.7125175 0.6086039 -0.3491705
vn 0.8322555 0.3656848 -0.4166838
vn 0.8871077 0.0949373 -0.4516934
vn 0.8732131 -0.1829534 -0.4516934
vn 0.7916273 -0.4468789 -0.4166838
vn 0.6482552 -0.6766425 -0.3491705
vn 0.4535440 -0.8542604 -0.2540412
vn 0.2219461 -0.9651978 -0.1383224
f 2//2 1//1 13//13
f 2//2 13//13 3//3
f 3//3 13//13 14//14
f 3//3 14//14 4//4
f 4//4 14//14 15//15
f 4//4 15//15 5//5
f 5//5 15//15 16//16
f 5//5 16//16 6//6
f 6//6 16//16 17//17
f 6//6 17//17 7//7
f 7//7 17//17 18//18
f 7//7 18//18 8//8
f 8//8 18//18 19//19
f 8//8 19//19 9//9
f 9//9 19//19 20//20
f 9//9 20//20 10//10
f 10//10 20//20 21//21
f 10//10 21//21 11//11
f 11//11 21//21 22//22
f 11//11 22//22 12//12
f 13//13 1//1 23//23
f 13//13 23//23 14//14
f 14//14 23//23 24//24
f 14//14 24//24 15//15
f 15//15 24//24 25//25
f 15//15 25//25 16//16
f 16//16 25//25 26//26
f 16//16 26//26 17//17
f 17//17 26//26 27//27
f 17//17 27//27 18//18
f 18//18 27//27 28//28
f 18//18 28//28 19//19
f 19//19 28//28 29//29
f 19//19 29//29 20//20
f 20//20 29//29 30//30
f 20//20 30//30 21//21
f 21//21 30//30 31//31
f 21//21 31//31 22//22
f 22//22 31//31 32//32
f 22//22 32//32 12//12
f 23//23 1//1 33//33
f 23//23 33//33 24//24
f 24//24 33//33 34//34
f 24//24 34//34 25//25
f 25//25 34//34 35//35
f 25//25 35//35 26//26
f 26//26 35//35 36//36
f 26//26 36//36 27//27
f 27//27 36//36 37//37
f 27//27 37//37 28//28
f 28//28 37//37 38//38
f 28//28 38//38 29//29
f 29//29 38//38 39//39
f 29//29 39//39 30//30
f 30//30 39//39 40//40
f 30//30 40//40 31//31
f 31//31 40//40 41//41
f 31//31 41//41 32//32
f 32//32 41//41 42//42
f 32//32 42//42 12//12
f 33//33 1//1 43//43
f 33//33 43//43 34//34
f 34//34 43//43 44//44
f 34//34 44//44 35//35
f 35//35 44//44 45//45
f 35//35 45//45 36//36
f 36//36 45//45 46//46
f 36//36 46//46 37//37
f 37//37 46//46 47//47
f 37//37 47//47 38//38
f 38//38 47//47 48//48
f 38//38 48//48 39//39
f 39//39 48//48 49//49
f 39//39 49//49 40//40
f 40//40 49//49 50//50
f 40//40 50//50 41//41
f 41//41 50//50 51//51
f 41//41 51//51 42//42
f 42//42 51//51 52//52
f 42//42 52//52 12//12
f 43//43 1//1 53//53
f 43//43 53//53 44//44
f 44//44 53//53 54//54
f 44//44 54//54 45//45
f 45//45 54//54 55//55
f 45//45 55//55 46//46
f 46//46 55//55 56//56
f 46//46 56//56 47//47
f 47//47 56//56 57//57
f 47//47 57//57 48//48
f 48//48 57//57 58//58
f 48//48 58//58 49//49
f 49//49 58//58 59//59
f 49//49 59//59 50//50
f 50//50 59//59 60//60
f 50//50 60//60 51//51
f 51//51 60//60 61//61
f 51//51 61//61 52//52
f 52//52 61//61 62//62
f 52//52 62//62 12//12
f 53//53 1//1 63//63
f 53//53 63//63 54//54
f 54//54 63//63 64//64
f 54//54 64//64 55//55
f 55//55 64//64 65//65
f 55//55 65//65 56//56
f 56//56 65//65 66//66
f 56//56 66//66 57//57
f 57//57 66//66 67//67
f 57//57 67//67 58//58
f 58//58 67//67 68//68
f 58//58 68//68 59//59
f 59//59 68//68 69//69
f 59//59 69//69 60//60
f 60//60 69//69 70//70
f 60//60 70//70 61//61
f 61//61 70//70 71//71
f 61//61 71//71 62//62
f 62//62 71//71 72//72
f 62//62 72//72 12//12
f 63//63 1//1 73//73
f 63//63 73//73 64//64
f 64//64 73//73 74//74
f 64//64 74//74 65//65
f 65//65 74//74 75//75
f 65//65 75//75 66//66
f 66//66 75//75 76//76
f 66//66 76//76 67//67
f 67//67 76//76 77//77
f 67//67 77//77 68//68
f 68//68 77//77 78//78
f 68//68 78//78 69//69
f 69//69 78//78 79//79
f 69//69 79//79 70//70
f 70//70 79//79 80//80
f 70//70 80//80 71//71
f 71//71 80//80 81//81
f 71//71 81//81 72//72
f 72//72 81//81 82//82
f 72//72 82//82 12//12
f 73//73 1//1 83//83
f 73//73 83//83 74//74
f 74//74 83//83 84//84
f 74//74 84//84 75//75
f 75//75 84//84 85//85
f 75//75 85//85 76//76
f 76//76 85//85 86//86
f 76//76 86//86 77//77
f 77//77 86//86 87//87
f 77//77 87//87 78//78
f 78//78 87//87 88//88
f 78//78 88//88 79//79
f 79//79 88//88 89//89
f 79//79 89//89 80//80
f 80//80 89//89 90//90
f 80//80 90//90 81//81
f 81//81 90//90 91//91
f 81//81 91//91 82//82
f 82//82 91//91 92//92
f 82//82 92//92 12//12
f 83//83 1//1 93//93
f 83//83 93//93 84//84
f 84//84 93//93 94//94
f 84//84 94//94 85//85
f 85//85 94//94 95//95
f 85//85 95//95 86//86
f 86//86 95//95 96//96
f 86//86 96//96 87//87
f 87//87 96//96 97//97
f 87//87 97//97 88//88
f 88//88 97//97 98//98
f 88//88 98//98 89//89
f 89//89 98//98 99//99
f 89//89 99//99 90//90
f 90//90 99//99 100//100
f 90//90 100//100 91//91
f 91//91 100//100 101//101
f 91//91 101//101 92//92
f 92//92 101//101 102//102
f 92//92 102//102 12//12
f 93//93 1//1 103//103
f 93//93 103//103 94//94
f 94//94 103//103 104//104
f 94//94 104//104 95//95
f 95//95 104//104 105//105
f 95//95 105//105 96//96
f 96//96 105//105 106//106
f 96//96 106//106 97//97
f 97//97 106//106 107//107
f 97//97 107//107 98//98
f 98//98 107//107 108//108
f 98//98 108//108 99//99
f 99//99 108//108 109//109
f 99//99 109//109 100//100
f 100//100 109//109 110//110
f 100//100 110//110 101//101
f 101//101 110//110 111//111
f 101//101 111//111 102//102
f 102//102 111//111 112//112
f 102//102 112//112 12//12
f 103//103 1//1 113//113
f 103//103 113//113 104//104
f 104//104 113//113 114//114
f 104//104 114//114 105//105
f 105//105 114//114 115//115
f 105//105 115//115 106//106
f 106//106 115//115 116//116
f 106//106 116//116 107//107
f 107//107 116//116 117//117
f 107//107 117//117 108//108
f 108//108 117//117 118//118
f 108//108 118//118 109//109
f 109//109 118//118 119//119
f 109//109 119//119 110//110
f 110//110 119//119 120//120
f 110//110 120//120 111//111
f 111//111 120//120 121//121
f 111//111 121//121 112//112
f 112//112 121//121 122//122
f 112//112 122//122 12//12
f 113//113 1//1 2//2
f 113//113 2//2 114//114
f 114//114 2//2 3//3
f 114//114 3//3 115//115
f 115//115 3//3 4//4
f 115//115 4//4 116//116
f 116//116 4//4 5//5
f 116//116 5//5 117//117
f 117//117 5//5 6//6
f 117//117 6//6 118//118
f 118//118 6//6 7//7
f 118//118 7//7 119//119
f 119//119 7//7 8//8
f 119//119 8//8 120//120
f 120//120 8//8 9//9
f 120//120 9//9 121//121
f 121//121 9//9 10//10
f 121//121 10//10 122//122
f 122//122 10//10 11//11
f 122//122 11//11 12//12

