# https://github.com/mikedh/trimesh
v 0.0160482 1.5451196 -0.0095200
v 0.0174630 1.5454730 -0.0100894
v 0.0189212 1.5453830 -0.0106515
v 0.0203049 1.5448569 -0.0111608
v 0.0215018 1.5439374 -0.0115761
v 0.0224151 1.5426989 -0.0118637
v 0.1449706 1.2212417 -0.0420003
v 0.1451235 1.2196839 -0.0419748
v 0.1448613 1.2181517 -0.0417894
v 0.1442052 1.2167693 -0.0414590
v 0.1432085 1.2156486 -0.0410104
v 0.1419518 1.2148804 -0.0404800
v 0.0175644 1.5454371 -0.0092945
v 0.0191159 1.5453142 -0.0091262
v 0.0205770 1.5447608 -0.0090286
v 0.0218294 1.5438217 -0.0090097
v 0.0227715 1.5425729 -0.0090711
v 0.1453270 1.2211158 -0.0392077
v 0.1454510 1.2195682 -0.0394085
v 0.1451334 1.2180556 -0.0396572
v 0.1443999 1.2167005 -0.0399337
v 0.1433099 1.2156128 -0.0402156
v 0.0172808 1.5452606 -0.0085653
v 0.0185716 1.5449755 -0.0077268
v 0.0198162 1.5442873 -0.0070725
v 0.0209136 1.5432518 -0.0066553
v 0.0217750 1.5419528 -0.0065091
v 0.1443305 1.2204956 -0.0366457
v 0.1445352 1.2189983 -0.0370541
v 0.1443725 1.2175821 -0.0377011
v 0.1438556 1.2163618 -0.0385344
v 0.1430263 1.2154363 -0.0394864
v 0.0166880 1.5449908 -0.0080971
v 0.0174342 1.5444577 -0.0068284
v 0.0182262 1.5435634 -0.0058166
v 0.0189998 1.5423805 -0.0051437
v 0.0196925 1.5410047 -0.0048642
v 0.1422480 1.2195475 -0.0350008
v 0.1426215 1.2181270 -0.0355425
v 0.1427825 1.2168582 -0.0364452
v 0.1427182 1.2158439 -0.0376359
v 0.1424336 1.2151664 -0.0390182
v 0.0159450 1.5446998 -0.0080154
v 0.0160084 1.5438994 -0.0066716
v 0.0162331 1.5427830 -0.0055974
v 0.0166009 1.5414412 -0.0048799
v 0.0170821 1.5399826 -0.0045772
v 0.1396377 1.2185254 -0.0347138
v 0.1402226 1.2171877 -0.0352786
v 0.1407894 1.2160778 -0.0362260
v 0.1412924 1.2152857 -0.0374791
v 0.1416906 1.2148755 -0.0389365
v 0.0152509 1.5444658 -0.0083421
v 0.0146763 1.5434503 -0.0072984
v 0.0143709 1.5421552 -0.0064737
v 0.0143596 1.5406855 -0.0059346
v 0.0146432 1.5391603 -0.0057248
v 0.1371988 1.2177032 -0.0358614
v 0.1379813 1.2164320 -0.0363333
v 0.1389273 1.2154500 -0.0371023
v 0.1399602 1.2148366 -0.0381060
v 0.1409964 1.2146414 -0.0392631
v 0.0147915 1.5443514 -0.0089896
v 0.0137948 1.5432307 -0.0085410
v 0.0131387 1.5418483 -0.0082106
v 0.0128765 1.5403161 -0.0080252
v 0.0130294 1.5387583 -0.0079997
v 0.1355849 1.2173011 -0.0381363
v 0.1364982 1.2160626 -0.0384239
v 0.1376951 1.2151431 -0.0388392
v 0.1390788 1.2146170 -0.0393485
v 0.1405370 1.2145270 -0.0399106
v 0.0146901 1.5443872 -0.0097844
v 0.0136001 1.5432995 -0.0100663
v 0.0128666 1.5419444 -0.0103428
v 0.0125490 1.5404318 -0.0105915
v 0.0126730 1.5388842 -0.0107923
v 0.1352285 1.2174271 -0.0409289
v 0.1361706 1.2161783 -0.0409903
v 0.1374230 1.2152392 -0.0409714
v 0.1388841 1.2146858 -0.0408738
v 0.1404356 1.2145629 -0.0407055
v 0.0149737 1.5445637 -0.0105136
v 0.0141444 1.5436382 -0.0114656
v 0.0136275 1.5424179 -0.0122989
v 0.0134648 1.5410017 -0.0129459
v 0.0136695 1.5395044 -0.0133543
v 0.1362250 1.2180472 -0.0434909
v 0.1370864 1.2167482 -0.0433447
v 0.1381838 1.2157127 -0.0429275
v 0.1394284 1.2150245 -0.0422732
v 0.1407192 1.2147394 -0.0414347
v 0.0155664 1.5448336 -0.0109818
v 0.0152818 1.5441561 -0.0123641
v 0.0152175 1.5431418 -0.0135548
v 0.0153785 1.5418730 -0.0144575
v 0.0157520 1.5404525 -0.0149992
v 0.1383075 1.2189953 -0.0451358
v 0.1390002 1.2176195 -0.0448563
v 0.1397738 1.2164366 -0.0441834
v 0.1405658 1.2155423 -0.0431716
v 0.1413120 1.2150092 -0.0419029
v 0.0163094 1.5451245 -0.0110635
v 0.0167076 1.5447143 -0.0125209
v 0.0172106 1.5439222 -0.0137740
v 0.0177774 1.5428123 -0.0147214
v 0.0183623 1.5414746 -0.0152862
v 0.1409179 1.2200174 -0.0454228
v 0.1413991 1.2185588 -0.0451201
v 0.1417669 1.2172170 -0.0444026
v 0.1419916 1.2161006 -0.0433284
v 0.1420550 1.2153002 -0.0419846
v 0.0170036 1.5453586 -0.0107369
v 0.0180398 1.5451634 -0.0118940
v 0.0190727 1.5445500 -0.0128977
v 0.0200187 1.5435680 -0.0136667
v 0.0208012 1.5422968 -0.0141386
v 0.1433568 1.2208397 -0.0442752
v 0.1436404 1.2193145 -0.0440654
v 0.1436291 1.2178448 -0.0435263
v 0.1433237 1.2165497 -0.0427016
v 0.1427491 1.2155342 -0.0416579
vn -0.3548792 0.9308306 0.0872654
vn -0.0767579 0.9967496 -0.0244621
vn 0.1853590 0.9746661 -0.1251722
vn 0.4315449 0.8759695 -0.2155141
vn 0.6431130 0.7092693 -0.2886913
vn 0.8042669 0.4878918 -0.3392879
vn 0.9030078 0.2288995 -0.3635685
vn 0.9318352 -0.0480347 -0.3596885
vn 0.8882219 -0.3218716 -0.3278117
vn 0.7748458 -0.5715286 -0.2701280
vn 0.5995780 -0.7772461 -0.1907742
vn 0.3548792 -0.9308306 -0.0872654
vn -0.0569043 0.9897354 0.1310945
vn 0.2218219 0.9617838 0.1605211
vn 0.4816618 0.8582633 0.1771611
vn 0.7029202 0.6881395 0.1799090
vn 0.8690990 0.4649867 0.1686840
vn 0.9678399 0.2059943 0.1444034
vn 0.9916423 -0.0691645 0.1089118
vn 0.9383387 -0.3395779 0.0648635
vn 0.8113086 -0.5844109 0.0155654
vn 0.6194315 -0.7842603 -0.0352176
vn -0.1124151 0.9551927 0.2738061
vn 0.1198715 0.8983431 0.4226234
vn 0.3415346 0.7710664 0.5374111
vn 0.5356990 0.5840828 0.6098147
vn 0.6878280 0.3521871 0.6347101
vn 0.7865688 0.0931948 0.6104296
vn 0.8244211 -0.1732212 0.5388174
vn 0.7982116 -0.4267748 0.4251135
vn 0.7093582 -0.6478516 0.2776676
vn 0.5639208 -0.8188030 0.1074940
vn -0.2284162 0.9023772 0.3654331
vn -0.0931746 0.8013429 0.5909044
vn 0.0487105 0.6377431 0.7687073
vn 0.1862562 0.4249810 0.8858328
vn 0.3090252 0.1797177 0.9339191
vn 0.4077660 -0.0792746 0.9096386
vn 0.4749784 -0.3323230 0.8148355
vn 0.5053874 -0.5600980 0.6564097
vn 0.4963121 -0.7448517 0.4459487
vn 0.4479197 -0.8716185 0.1991210
vn -0.3738251 0.8454409 0.3814242
vn -0.3602309 0.6967744 0.6202735
vn -0.3183488 0.4940174 0.8090741
vn -0.2517751 0.2534655 0.9340046
vn -0.1658094 -0.0062085 0.9861383
vn -0.0670685 -0.2652008 0.9618578
vn 0.0369470 -0.5038386 0.8630073
vn 0.1383282 -0.7038238 0.6967765
vn 0.2292558 -0.8494203 0.4753177
vn 0.3025107 -0.9285548 0.2151121
vn -0.5096798 0.7996397 0.3174946
vn -0.6097399 0.6126565 0.5028612
vn -0.6612898 0.3784004 0.6476951
vn -0.6610250 0.1154935 0.7414224
vn -0.6094442 -0.1557728 0.7773754
vn -0.5107034 -0.4147651 0.7530949
vn -0.3723029 -0.6418105 0.6704252
vn -0.2046128 -0.8194407 0.5353975
vn -0.0202531 -0.9335382 0.3579054
vn 0.1666561 -0.9743560 0.1511825
vn -0.5995780 0.7772461 0.1907742
vn -0.7748458 0.5715286 0.2701280
vn -0.8882219 0.3218716 0.3278117
vn -0.9318352 0.0480347 0.3596885
vn -0.9030078 -0.2288995 0.3635685
vn -0.8042669 -0.4878918 0.3392879
vn -0.6431130 -0.7092693 0.2886913
vn -0.4315449 -0.8759695 0.2155141
vn -0.1853590 -0.9746661 0.1251722
vn 0.0767579 -0.9967496 0.0244621
vn -0.6194315 0.7842603 0.0352176
vn -0.8113086 0.5844109 -0.0155654
vn -0.9383387 0.3395779 -0.0648635
vn -0.9916423 0.0691645 -0.1089118
vn -0.9678399 -0.2059943 -0.1444034
vn -0.8690990 -0.4649867 -0.1686840
vn -0.7029202 -0.6881395 -0.1799090
vn -0.4816618 -0.8582633 -0.1771611
vn -0.2218219 -0.9617838 -0.1605211
vn 0.0569043 -0.9897354 -0.1310945
vn -0.5639208 0.8188030 -0.1074940
vn -0.7093582 0.6478516 -0.2776676
vn -0.7982116 0.4267748 -0.4251135
vn -0.8244211 0.1732212 -0.5388174
vn -0.7865688 -0.0931948 -0.6104296
vn -0.6878280 -0.3521871 -0.6347101
vn -0.5356990 -0.5840828 -0.6098147
vn -0.3415346 -0.7710664 -0.5374111
vn -0.1198715 -0.8983431 -0.4226234
vn 0.1124151 -0.9551927 -0.2738061
vn -0.4479197 0.8716185 -0.1991210
vn -0.4963121 0.7448517 -0.4459487
vn -0.5053874 0.5600980 -0.6564097
vn -0.4749784 0.3323230 -0.8148355
vn -0.4077660 0.0792746 -0.9096386
vn -0.3090252 -0.1797177 -0.9339191
vn -0.1862562 -0.4249810 -0.8858328
vn -0.0487105 -0.6377431 -0.7687073
vn 0.0931746 -0.8013429 -0.5909044
vn 0.2284162 -0.9023772 -0.3654331
vn -0.3025107 0.9285548 -0.2151121
vn -0.2292558 0.8494203 -0.4753177
vn -0.1383282 0.7038238 -0.6967765
vn -0.0369470 0.5038386 -0.8630073
vn 0.0670685 0.2652008 -0.9618578
vn 0.1658094 0.0062085 -0.9861383
vn 0.2517751 -0.2534655 -0.9340046
vn 0.3183488 -0.4940174 -0.8090741
vn 0.3602309 -0.6967744 -0.6202735
vn 0.3738251 -0.8454409 -0.3814242
vn -0.1666561 0.9743560 -0.1511825
vn 0.0202531 0.9335382 -0.3579054
vn 0.2046128 0.8194407 -0.5353975
vn 0.3723029 0.6418105 -0.6704252
vn 0.5107034 0.4147651 -0.7530949
vn 0.6094442 0.1557728 -0.7773754
vn 0.6610250 -0.1154935 -0.7414224
vn 0.6612898 -0.3784004 -0.6476951
vn 0.6097399 -0.6126565 -0.5028612
vn 0.5096798 -0.7996397 -0.3174946
f 2//2 1//1 13//13
f 2//2 13//13 3//3
f 3//3 13//13 14//14
f 3//3 14//14 4//4
f 4//4 14//14 15//15
f 4//4 15//15 5//5
f 5//5 15//15 16//16
f 5//5 16//16 6//6
f 6//6 16//16 17//17
f 6//6 17//17 7//7
f 7//7 17//17 18//18
f 7//7 18//18 8//8
f 8//8 18//18 19//19
f 8//8 19//19 9//9
f 9//9 19//19 20//20
f 9//9 20//20 10//10
f 10//10 20//20 21//21
f 10//10 21//21 11//11
f 11//11 21//21 22//22
f 11//11 22//22 12//12
f 13//13 1//1 23//23
f 13//13 23//23 14//14
f 14//14 23//23 24//24
f 14//14 24//24 15//15
f 15//15 24//24 25//25
f 15//15 25//25 16//16
f 16//16 25//25 26//26
f 16//16 26//26 17//17
f 17//17 26//26 27//27
f 17//17 27//27 18//18
f 18//18 27//27 28//28
f 18//18 28//28 19//19
f 19//19 28//28 29//29
f 19//19 29//29 20//20
f 20//20 29//29 30//30
f 20//20 30//30 21//21
f 21//21 30//30 31//31
f 21//21 31//31 22//22
f 22//22 31//31 32//32
f 22//22 32//32 12//12
f 23//23 1//1 33//33
f 23//23 33//33 24//24
f 24//24 33//33 34//34
f 24//24 34//34 25//25
f 25//25 34//34 35//35
f 25//25 35//35 26//26
f 26//26 35//35 36//36
f 26//26 36//36 27//27
f 27//27 36//36 37//37
f 27//27 37//37 28//28
f 28//28 37//37 38//38
f 28//28 38//38 29//29
f 29//29 38//38 39//39
f 29//29 39//39 30//30
f 30//30 39//39 40//40
f 30//30 40//40 31//31
f 31//31 40//40 41//41
f 31//31 41//41 32//32
f 32//32 41//41 42//42
f 32//32 42//42 12//12
f 33//33 1//1 43//43
f 33//33 43//43 34//34
f 34//34 43//43 44//44
f 34//34 44//44 35//35
f 35//35 44//44 45//45
f 35//35 45//45 36//36
f 36//36 45//45 46//46
f 36//36 46//46 37//37
f 37//37 46//46 47//47
f 37//37 47//47 38//38
f 38//38 47//47 48//48
f 38//38 48//48 39//39
f 39//39 48//48 49//49
f 39//39 49//49 40//40
f 40//40 49//49 50//50
f 40//40 50//50 41//41
f 41//41 50//50 51//51
f 41//41 51//51 42//42
f 42//42 51//51 52//52
f 42//42 52//52 12//12
f 43//43 1//1 53//53
f 43//43 53//53 44//44
f 44//44 53//53 54//54
f 44//44 54//54 45//45
f 45//45 54//54 55//55
f 45//45 55//55 46//46
f 46//46 55//55 56//56
f 46//46 56//56 47//47
f 47//47 56//56 57//57
f 47//47 57//57 48//48
f 48//48 57//57 58//58
f 48//48 58//58 49//49
f 49//49 58//58 59//59
f 49//49 59//59 50//50
f 50//50 59//59 60//60
f 50//50 60//60 51//51
f 51//51 60//60 61//61
f 51//51 61//61 52//52
f 52//52 61//61 62//62
f 52//52 62//62 12//12
f 53//53 1//1 63//63
f 53//53 63//63 54//54
f 54//54 63//63 64//64
f 54//54 64//64 55//55
f 55//55 64//64 65//65
f 55//55 65//65 56//56
f 56//56 65//65 66//66
f 56//56 66//66 57//57
f 57//57 66//66 67//67
f 57//57 67//67 58//58
f 58//58 67//67 68//68
f 58//58 68//68 59//59
f 59//59 68//68 69//69
f 59//59 69//69 60//60
f 60//60 69//69 70//70
f 60//60 70//70 61//61
f 61//61 70//70 71//71
f 61//61 71//71 62//62
f 62//62 71//71 72//72
f 62//62 72//72 12//12
f 63//63 1//1 73//73
f 63//63 73//73 64//64
f 64//64 73//73 74//74
f 64//64 74//74 65//65
f 65//65 74//74 75//75
f 65//65 75//75 66//66
f 66//66 75//75 76//76
f 66//66 76//76 67//67
f 67//67 76//76 77//77
f 67//67 77//77 68//68
f 68//68 77//77 78//78
f 68//68 78//78 69//69
f 69//69 78//78 79//79
f 69//69 79//79 70//70
f 70//70 79//79 80//80
f 70//70 80//80 71//71
f 71//71 80//80 81//81
f 71//71 81//81 72//72
f 72//72 81//81 82//82
f 72//72 82//82 12//12
f 73//73 1//1 83//83
f 73//73 83//83 74//74
f 74//74 83//83 84//84
f 74//74 84//84 75//75
f 75//75 84//84 85//85
f 75//75 85//85 76//76
f 76//76 85//85 86//86
f 76//76 86//86 77//77
f 77//77 86//86 87//87
f 77//77 87//87 78//78
f 78//78 87//87 88//88
f 78//78 88//88 79//79
f 79//79 88//88 89//89
f 79//79 89//89 80//80
f 80//80 89//89 90//90
f 80//80 90//90 81//81
f 81//81 90//90 91//91
f 81//81 91//91 82//82
f 82//82 91//91 92//92
f 82//82 92//92 12//12
f 83//83 1//1 93//93
f 83//83 93//93 84//84
f 84//84 93//93 94//94
f 84//84 94//94 85//85
f 85//85 94//94 95//95
f 85//85 95//95 86//86
f 86//86 95//95 96//96
f 86//86 96//96 87//87
f 87//87 96//96 97//97
f 87//87 97//97 88//88
f 88//88 97//97 98//98
f 88//88 98//98 89//89
f 89//89 98//98 99//99
f 89//89 99//99 90//90
f 90//90 99//99 100//100
f 90//90 100//100 91//91
f 91//91 100//100 101//101
f 91//91 101//101 92//92
f 92//92 101//101 102//102
f 92//92 102//102 12//12
f 93//93 1//1 103//103
f 93//93 103//103 94//94
f 94//94 103//103 104//104
f 94//94 104//104 95//95
f 95//95 104//104 105//105
f 95//95 105//105 96//96
f 96//96 105//105 106//106
f 96//96 106//106 97//97
f 97//97 106//106 107//107
f 97//97 107//107 98//98
f 98//98 107//107 108//108
f 98//98 108//108 99//99
f 99//99 108//108 109//109
f 99//99 109//109 100//100
f 100//100 109//109 110//110
f 100//100 110//110 101//101
f 101//101 110//110 111//111
f 101//101 111//111 102//102
f 102//102 111//111 112//112
f 102//102 112//112 12//12
f 103//103 1//1 113//113
f 103//103 113//113 104//104
f 104//104 113//113 114//114
f 104//104 114//114 105//105
f 105//105 114//114 115//115
f 105//105 115//115 106//106
f 106//106 115//115 116//116
f 106//106 116//116 107//107
f 107//107 116//116 117//117
f 107//107 117//117 108//108
f 108//108 117//117 118//118
f 108//108 118//118 109//109
f 109//109 118//118 119//119
f 109//109 119//119 110//110
f 110//110 119//119 120//120
f 110//110 120//120 111//111
f 111//111 120//120 121//121
f 111//111 121//121 112//112
f 112//112 121//121 122//122
f 112//112 122//122 12//12
f 113//113 1//1 2//2
f 113//113 2//2 114//114
f 114//114 2//2 3//3
f 114//114 3//3 115//115
f 115//115 3//3 4//4
f 115//115 4//4 116//116
f 116//116 4//4 5//5
f 116//116 5//5 117//117
f 117//117 5//5 6//6
f 117//117 6//6 118//118
f 118//118 6//6 7//7
f 118//118 7//7 119//119
f 119//119 7//7 8//8
f 119//119 8//8 120//120
f 120//120 8//8 9//9
f 120//120 9//9 121//121
f 121//121 9//9 10//10
f 121//121 10//10 122//122
f 122//122 10//10 11//11
f 122//122 11//11 12//12

