# https://github.com/mikedh/trimesh
v 0.0989975 -0.4240852 0.0398997
v 0.1006821 -0.4240509 0.0396214
v 0.1023114 -0.4244986 0.0393737
v 0.1037535 -0.4253920 0.0391767
v 0.1048915 -0.4266587 0.0390464
v 0.1056332 -0.4281961 0.0389934
v 0.2059185 -1.0198796 0.0490220
v 0.2057244 -1.0215729 0.0491297
v 0.2050665 -1.0231388 0.0493080
v 0.2039981 -1.0244503 0.0495423
v 0.2026059 -1.0254014 0.0498138
v 0.2010025 -1.0259148 0.0501003
v 0.1005988 -0.4240503 0.0404924
v 0.1021515 -0.4244974 0.0410452
v 0.1035300 -0.4253903 0.0415133
v 0.1046224 -0.4266566 0.0418588
v 0.1053404 -0.4281938 0.0420537
v 0.2056258 -1.0198774 0.0520822
v 0.2054554 -1.0215708 0.0519421
v 0.2048430 -1.0231370 0.0516446
v 0.2038382 -1.0244491 0.0512138
v 0.2025226 -1.0254007 0.0506848
v 0.1000973 -0.4241232 0.0412057
v 0.1011891 -0.4246373 0.0424140
v 0.1021847 -0.4255859 0.0434268
v 0.1030032 -0.4268920 0.0441619
v 0.1035785 -0.4284500 0.0445598
v 0.2038638 -1.0201335 0.0545883
v 0.2038362 -1.0218062 0.0542452
v 0.2034977 -1.0233326 0.0535581
v 0.2028759 -1.0245890 0.0525827
v 0.2020211 -1.0254736 0.0513981
v 0.0993120 -0.4242501 0.0415702
v 0.0996822 -0.4248809 0.0431134
v 0.1000781 -0.4259264 0.0444045
v 0.1004677 -0.4273018 0.0453387
v 0.1008195 -0.4288959 0.0458403
v 0.2011048 -1.0205795 0.0558689
v 0.2013007 -1.0222160 0.0554219
v 0.2013911 -1.0236731 0.0545358
v 0.2013689 -1.0248326 0.0532821
v 0.2012358 -1.0256006 0.0517626
v 0.0984533 -0.4243971 0.0414882
v 0.0980344 -0.4251628 0.0429560
v 0.0977747 -0.4263205 0.0441844
v 0.0976953 -0.4277762 0.0450738
v 0.0978026 -0.4294121 0.0455521
v 0.1980880 -1.0210957 0.0555807
v 0.1985282 -1.0226904 0.0551571
v 0.1990877 -1.0240672 0.0543157
v 0.1997211 -1.0251145 0.0531247
v 0.2003771 -1.0257475 0.0516805
v 0.0977513 -0.4245246 0.0409816
v 0.0966873 -0.4254076 0.0419839
v 0.0958916 -0.4266627 0.0428255
v 0.0954288 -0.4281881 0.0434382
v 0.0953364 -0.4298603 0.0437724
v 0.1956217 -1.0215438 0.0538009
v 0.1962618 -1.0231023 0.0535215
v 0.1972047 -1.0244094 0.0529568
v 0.1983740 -1.0253593 0.0521526
v 0.1996751 -1.0258750 0.0511740
v 0.0973941 -0.4245986 0.0401862
v 0.0960019 -0.4255497 0.0404577
v 0.0949335 -0.4268612 0.0406920
v 0.0942756 -0.4284271 0.0408703
v 0.0940815 -0.4301204 0.0409780
v 0.1943668 -1.0218039 0.0510066
v 0.1951085 -1.0233413 0.0509536
v 0.1962465 -1.0246080 0.0508233
v 0.1976886 -1.0255014 0.0506263
v 0.1993179 -1.0259491 0.0503786
v 0.0974774 -0.4245993 0.0393152
v 0.0961618 -0.4255509 0.0387862
v 0.0951570 -0.4268630 0.0383554
v 0.0945446 -0.4284292 0.0380579
v 0.0943742 -0.4301226 0.0379178
v 0.1946596 -1.0218062 0.0479463
v 0.1953776 -1.0233434 0.0481412
v 0.1964700 -1.0246097 0.0484867
v 0.1978485 -1.0255026 0.0489548
v 0.1994012 -1.0259497 0.0495076
v 0.0979789 -0.4245264 0.0386019
v 0.0971241 -0.4254110 0.0374173
v 0.0965023 -0.4266674 0.0364419
v 0.0961638 -0.4281938 0.0357548
v 0.0961362 -0.4298665 0.0354117
v 0.1964215 -1.0215500 0.0454402
v 0.1969968 -1.0231080 0.0458381
v 0.1978153 -1.0244141 0.0465732
v 0.1988109 -1.0253627 0.0475860
v 0.1999027 -1.0258768 0.0487943
v 0.0987642 -0.4243994 0.0382374
v 0.0986311 -0.4251674 0.0367179
v 0.0986089 -0.4263269 0.0354642
v 0.0986993 -0.4277840 0.0345781
v 0.0988952 -0.4294205 0.0341311
v 0.1991805 -1.0211041 0.0441597
v 0.1995323 -1.0226982 0.0446613
v 0.1999219 -1.0240736 0.0455955
v 0.2003178 -1.0251191 0.0468866
v 0.2006880 -1.0257499 0.0484298
v 0.0996229 -0.4242525 0.0383195
v 0.1002789 -0.4248855 0.0368753
v 0.1009123 -0.4259328 0.0356843
v 0.1014718 -0.4273096 0.0348429
v 0.1019120 -0.4289043 0.0344193
v 0.2021974 -1.0205879 0.0444479
v 0.2023047 -1.0222238 0.0449262
v 0.2022253 -1.0236795 0.0458156
v 0.2019656 -1.0248372 0.0470440
v 0.2015467 -1.0256029 0.0485118
v 0.1003249 -0.4241250 0.0388260
v 0.1016260 -0.4246407 0.0378474
v 0.1027953 -0.4255906 0.0370432
v 0.1037382 -0.4268977 0.0364785
v 0.1043783 -0.4284562 0.0361991
v 0.2046636 -1.0201397 0.0462276
v 0.2045712 -1.0218119 0.0465618
v 0.2041084 -1.0233373 0.0471745
v 0.2033127 -1.0245924 0.0480161
v 0.2022487 -1.0254754 0.0490184
vn -0.1670849 0.9858009 -0.0167085
vn 0.1357091 0.9885083 -0.0665907
vn 0.4028858 0.9089818 -0.1069352
vn 0.6369818 0.7583066 -0.1386556
vn 0.8204696 0.5490090 -0.1594326
vn 0.9398394 0.2975738 -0.1677846
vn 0.9863288 0.0232866 -0.1631356
vn 0.9564063 -0.2530177 -0.1458389
vn 0.8519953 -0.5102733 -0.1171542
vn 0.6804291 -0.7285236 -0.0791809
vn 0.4541429 -0.8902510 -0.0347473
vn 0.1670849 -0.9858009 0.0167085
vn 0.1207608 0.9886232 0.0896712
vn 0.3754320 0.9091928 0.1800534
vn 0.5992475 0.7585966 0.2557998
vn 0.7754393 0.5493552 0.3112921
vn 0.8910257 0.2979490 0.3424902
vn 0.9375151 0.0236618 0.3471391
vn 0.9113760 -0.2526716 0.3248858
vn 0.8142611 -0.5099833 0.2773012
vn 0.6529753 -0.7283126 0.2078077
vn 0.4391946 -0.8901361 0.1215146
vn 0.0307928 0.9755434 0.2176395
vn 0.2101977 0.8851705 0.4150784
vn 0.3721390 0.7255788 0.5788333
vn 0.5044186 0.5099532 0.6967852
vn 0.5972340 0.2552365 0.7603722
vn 0.6437234 -0.0190506 0.7650211
vn 0.6403553 -0.2920735 0.7103788
vn 0.5871526 -0.5430011 0.6003346
vn 0.4877410 -0.7523349 0.4428327
vn 0.3492266 -0.9032160 0.2494829
vn -0.1100882 0.9527735 0.2830253
vn -0.0485426 0.8433516 0.5351651
vn 0.0165098 0.6681002 0.7438881
vn 0.0800273 0.4413609 0.8937540
vn 0.1371855 0.1808811 0.9738902
vn 0.1836749 -0.0934060 0.9785391
vn 0.2159640 -0.3606658 0.9073476
vn 0.2315234 -0.6004797 0.7653895
vn 0.2290007 -0.7941539 0.5629195
vn 0.2083456 -0.9259859 0.3148687
vn -0.2641332 0.9264147 0.2683085
vn -0.3314597 0.7949414 0.5081364
vn -0.3723495 0.6015622 0.7067381
vn -0.3840193 0.3619576 0.8494209
vn -0.3658501 0.0948063 0.9258323
vn -0.3193608 -0.1794808 0.9304812
vn -0.2480826 -0.4400692 0.8630146
vn -0.1573360 -0.6670177 0.7282395
vn -0.0539164 -0.8425640 0.5358907
vn 0.0543006 -0.9523446 0.3001519
vn -0.3900660 0.9035299 0.1774324
vn -0.5627462 0.7529115 0.3412346
vn -0.6902445 0.5437935 0.4773376
vn -0.7633804 0.2930192 0.5756650
vn -0.7770849 0.0200757 0.6290755
vn -0.7305955 -0.2542114 0.6337245
vn -0.6274436 -0.5090076 0.5892587
vn -0.4752309 -0.7247864 0.4988390
vn -0.2852029 -0.8845940 0.3689889
vn -0.0716322 -0.9752294 0.2092758
vn -0.4541429 0.8902510 0.0347473
vn -0.6804291 0.7285236 0.0791809
vn -0.8519953 0.5102733 0.1171542
vn -0.9564063 0.2530177 0.1458389
vn -0.9863288 -0.0232866 0.1631356
vn -0.9398394 -0.2975738 0.1677846
vn -0.8204696 -0.5490090 0.1594326
vn -0.6369818 -0.7583066 0.1386556
vn -0.4028858 -0.9089818 0.1069352
vn -0.1357091 -0.9885083 0.0665907
vn -0.4391946 0.8901361 -0.1215146
vn -0.6529753 0.7283126 -0.2078077
vn -0.8142611 0.5099833 -0.2773012
vn -0.9113760 0.2526716 -0.3248858
vn -0.9375151 -0.0236618 -0.3471391
vn -0.8910257 -0.2979490 -0.3424902
vn -0.7754393 -0.5493552 -0.3112921
vn -0.5992475 -0.7585966 -0.2557998
vn -0.3754320 -0.9091928 -0.1800534
vn -0.1207608 -0.9886232 -0.0896712
vn -0.3492266 0.9032160 -0.2494829
vn -0.4877410 0.7523349 -0.4428327
vn -0.5871526 0.5430011 -0.6003346
vn -0.6403553 0.2920735 -0.7103788
vn -0.6437234 0.0190506 -0.7650211
vn -0.5972340 -0.2552365 -0.7603722
vn -0.5044186 -0.5099532 -0.6967852
vn -0.3721390 -0.7255788 -0.5788333
vn -0.2101977 -0.8851705 -0.4150784
vn -0.0307928 -0.9755434 -0.2176395
vn -0.2083456 0.9259859 -0.3148687
vn -0.2290007 0.7941539 -0.5629195
vn -0.2315234 0.6004797 -0.7653895
vn -0.2159640 0.3606658 -0.9073476
vn -0.1836749 0.0934060 -0.9785391
vn -0.1371855 -0.1808811 -0.9738902
vn -0.0800273 -0.4413609 -0.8937540
vn -0.0165098 -0.6681002 -0.7438881
vn 0.0485426 -0.8433516 -0.5351651
vn 0.1100882 -0.9527735 -0.2830253
vn -0.0543006 0.9523446 -0.3001519
vn 0.0539164 0.8425640 -0.5358907
vn 0.1573360 0.6670177 -0.7282395
vn 0.2480826 0.4400692 -0.8630146
vn 0.3193608 0.1794808 -0.9304812
vn 0.3658501 -0.0948063 -0.9258323
vn 0.3840193 -0.3619576 -0.8494209
vn 0.3723495 -0.6015622 -0.7067381
vn 0.3314597 -0.7949414 -0.5081364
vn 0.2641332 -0.9264147 -0.2683085
vn 0.0716322 0.9752294 -0.2092758
vn 0.2852029 0.8845940 -0.3689889
vn 0.4752309 0.7247864 -0.4988390
vn 0.6274436 0.5090076 -0.5892587
vn 0.7305955 0.2542114 -0.6337245
vn 0.7770849 -0.0200757 -0.6290755
vn 0.7633804 -0.2930192 -0.5756650
vn 0.6902445 -0.5437935 -0.4773376
vn 0.5627462 -0.7529115 -0.3412346
vn 0.3900660 -0.9035299 -0.1774324
f 2//2 1//1 13//13
f 2//2 13//13 3//3
f 3//3 13//13 14//14
f 3//3 14//14 4//4
f 4//4 14//14 15//15
f 4//4 15//15 5//5
f 5//5 15//15 16//16
f 5//5 16//16 6//6
f 6//6 16//16 17//17
f 6//6 17//17 7//7
f 7//7 17//17 18//18
f 7//7 18//18 8//8
f 8//8 18//18 19//19
f 8//8 19//19 9//9
f 9//9 19//19 20//20
f 9//9 20//20 10//10
f 10//10 20//20 21//21
f 10//10 21//21 11//11
f 11//11 21//21 22//22
f 11//11 22//22 12//12
f 13//13 1//1 23//23
f 13//13 23//23 14//14
f 14//14 23//23 24//24
f 14//14 24//24 15//15
f 15//15 24//24 25//25
f 15//15 25//25 16//16
f 16//16 25//25 26//26
f 16//16 26//26 17//17
f 17//17 26//26 27//27
f 17//17 27//27 18//18
f 18//18 27//27 28//28
f 18//18 28//28 19//19
f 19//19 28//28 29//29
f 19//19 29//29 20//20
f 20//20 29//29 30//30
f 20//20 30//30 21//21
f 21//21 30//30 31//31
f 21//21 31//31 22//22
f 22//22 31//31 32//32
f 22//22 32//32 12//12
f 23//23 1//1 33//33
f 23//23 33//33 24//24
f 24//24 33//33 34//34
f 24//24 34//34 25//25
f 25//25 34//34 35//35
f 25//25 35//35 26//26
f 26//26 35//35 36//36
f 26//26 36//36 27//27
f 27//27 36//36 37//37
f 27//27 37//37 28//28
f 28//28 37//37 38//38
f 28//28 38//38 29//29
f 29//29 38//38 39//39
f 29//29 39//39 30//30
f 30//30 39//39 40//40
f 30//30 40//40 31//31
f 31//31 40//40 41//41
f 31//31 41//41 32//32
f 32//32 41//41 42//42
f 32//32 42//42 12//12
f 33//33 1//1 43//43
f 33//33 43//43 34//34
f 34//34 43//43 44//44
f 34//34 44//44 35//35
f 35//35 44//44 45//45
f 35//35 45//45 36//36
f 36//36 45//45 46//46
f 36//36 46//46 37//37
f 37//37 46//46 47//47
f 37//37 47//47 38//38
f 38//38 47//47 48//48
f 38//38 48//48 39//39
f 39//39 48//48 49//49
f 39//39 49//49 40//40
f 40//40 49//49 50//50
f 40//40 50//50 41//41
f 41//41 50//50 51//51
f 41//41 51//51 42//42
f 42//42 51//51 52//52
f 42//42 52//52 12//12
f 43//43 1//1 53//53
f 43//43 53//53 44//44
f 44//44 53//53 54//54
f 44//44 54//54 45//45
f 45//45 54//54 55//55
f 45//45 55//55 46//46
f 46//46 55//55 56//56
f 46//46 56//56 47//47
f 47//47 56//56 57//57
f 47//47 57//57 48//48
f 48//48 57//57 58//58
f 48//48 58//58 49//49
f 49//49 58//58 59//59
f 49//49 59//59 50//50
f 50//50 59//59 60//60
f 50//50 60//60 51//51
f 51//51 60//60 61//61
f 51//51 61//61 52//52
f 52//52 61//61 62//62
f 52//52 62//62 12//12
f 53//53 1//1 63//63
f 53//53 63//63 54//54
f 54//54 63//63 64//64
f 54//54 64//64 55//55
f 55//55 64//64 65//65
f 55//55 65//65 56//56
f 56//56 65//65 66//66
f 56//56 66//66 57//57
f 57//57 66//66 67//67
f 57//57 67//67 58//58
f 58//58 67//67 68//68
f 58//58 68//68 59//59
f 59//59 68//68 69//69
f 59//59 69//69 60//60
f 60//60 69//69 70//70
f 60//60 70//70 61//61
f 61//61 70//70 71//71
f 61//61 71//71 62//62
f 62//62 71//71 72//72
f 62//62 72//72 12//12
f 63//63 1//1 73//73
f 63//63 73//73 64//64
f 64//64 73//73 74//74
f 64//64 74//74 65//65
f 65//65 74//74 75//75
f 65//65 75//75 66//66
f 66//66 75//75 76//76
f 66//66 76//76 67//67
f 67//67 76//76 77//77
f 67//67 77//77 68//68
f 68//68 77//77 78//78
f 68//68 78//78 69//69
f 69//69 78//78 79//79
f 69//69 79//79 70//70
f 70//70 79//79 80//80
f 70//70 80//80 71//71
f 71//71 80//80 81//81
f 71//71 81//81 72//72
f 72//72 81//81 82//82
f 72//72 82//82 12//12
f 73//73 1//1 83//83
f 73//73 83//83 74//74
f 74//74 83//83 84//84
f 74//74 84//84 75//75
f 75//75 84//84 85//85
f 75//75 85//85 76//76
f 76//76 85//85 86//86
f 76//76 86//86 77//77
f 77//77 86//86 87//87
f 77//77 87//87 78//78
f 78//78 87//87 88//88
f 78//78 88//88 79//79
f 79//79 88//88 89//89
f 79//79 89//89 80//80
f 80//80 89//89 90//90
f 80//80 90//90 81//81
f 81//81 90//90 91//91
f 81//81 91//91 82//82
f 82//82 91//91 92//92
f 82//82 92//92 12//12
f 83//83 1//1 93//93
f 83//83 93//93 84//84
f 84//84 93//93 94//94
f 84//84 94//94 85//85
f 85//85 94//94 95//95
f 85//85 95//95 86//86
f 86//86 95//95 96//96
f 86//86 96//96 87//87
f 87//87 96//96 97//97
f 87//87 97//97 88//88
f 88//88 97//97 98//98
f 88//88 98//98 89//89
f 89//89 98//98 99//99
f 89//89 99//99 90//90
f 90//90 99//99 100//100
f 90//90 100//100 91//91
f 91//91 100//100 101//101
f 91//91 101//101 92//92
f 92//92 101//101 102//102
f 92//92 102//102 12//12
f 93//93 1//1 103//103
f 93//93 103//103 94//94
f 94//94 103//103 104//104
f 94//94 104//104 95//95
f 95//95 104//104 105//105
f 95//95 105//105 96//96
f 96//96 105//105 106//106
f 96//96 106//106 97//97
f 97//97 106//106 107//107
f 97//97 107//107 98//98
f 98//98 107//107 108//108
f 98//98 108//108 99//99
f 99//99 108//108 109//109
f 99//99 109//109 100//100
f 100//100 109//109 110//110
f 100//100 110//110 101//101
f 101//101 110//110 111//111
f 101//101 111//111 102//102
f 102//102 111//111 112//112
f 102//102 112//112 12//12
f 103//103 1//1 113//113
f 103//103 113//113 104//104
f 104//104 113//113 114//114
f 104//104 114//114 105//105
f 105//105 114//114 115//115
f 105//105 115//115 106//106
f 106//106 115//115 116//116
f 106//106 116//116 107//107
f 107//107 116//116 117//117
f 107//107 117//117 108//108
f 108//108 117//117 118//118
f 108//108 118//118 109//109
f 109//109 118//118 119//119
f 109//109 119//119 110//110
f 110//110 119//119 120//120
f 110//110 120//120 111//111
f 111//111 120//120 121//121
f 111//111 121//121 112//112
f 112//112 121//121 122//122
f 112//112 122//122 12//12
f 113//113 1//1 2//2
f 113//113 2//2 114//114
f 114//114 2//2 3//3
f 114//114 3//3 115//115
f 115//115 3//3 4//4
f 115//115 4//4 116//116
f 116//116 4//4 5//5
f 116//116 5//5 117//117
f 117//117 5//5 6//6
f 117//117 6//6 118//118
f 118//118 6//6 7//7
f 118//118 7//7 119//119
f 119//119 7//7 8//8
f 119//119 8//8 120//120
f 120//120 8//8 9//9
f 120//120 9//9 121//121
f 121//121 9//9 10//10
f 121//121 10//10 122//122
f 122//122 10//10 11//11
f 122//122 11//11 12//12

