# https://github.com/mikedh/trimesh
v -0.1294857 1.0864796 -0.0000000
v -0.1276868 1.0860727 0.0001449
v -0.1260752 1.0851739 0.0002780
v -0.1247816 1.0838558 0.0003886
v -0.1239108 1.0822254 0.0004678
v -0.1235332 1.0804147 0.0005090
v -0.1736796 0.4485704 0.0005090
v -0.1743380 0.4468419 0.0004678
v -0.1754551 0.4453693 0.0003886
v -0.1769405 0.4442718 0.0002780
v -0.1786736 0.4436384 0.0001449
v -0.1805143 0.4435204 0.0000000
v -0.1280028 1.0860978 0.0010382
v -0.1266817 1.0852220 0.0019924
v -0.1256293 1.0839231 0.0027851
v -0.1249311 1.0823064 0.0033521
v -0.1246435 1.0805028 0.0036477
v -0.1747899 0.4486585 0.0036477
v -0.1753584 0.4469229 0.0033521
v -0.1763029 0.4454366 0.0027851
v -0.1775469 0.4443200 0.0019924
v -0.1789896 0.4436635 0.0010382
v -0.1287218 1.0861549 0.0016534
v -0.1280613 1.0853315 0.0031728
v -0.1275579 1.0840762 0.0044352
v -0.1272524 1.0824906 0.0053383
v -0.1271695 1.0807033 0.0058089
v -0.1773158 0.4488590 0.0058089
v -0.1776797 0.4471072 0.0053383
v -0.1782315 0.4455897 0.0044352
v -0.1789266 0.4444295 0.0031728
v -0.1797086 0.4437206 0.0016534
v -0.1296510 1.0862286 0.0018255
v -0.1298445 1.0854730 0.0035031
v -0.1300507 1.0842740 0.0048970
v -0.1302527 1.0827287 0.0058941
v -0.1304342 1.0809624 0.0064137
v -0.1805806 0.4491181 0.0064137
v -0.1806799 0.4473453 0.0058941
v -0.1807242 0.4457875 0.0048970
v -0.1807098 0.4445710 0.0035031
v -0.1806379 0.4437943 0.0018255
v -0.1305416 1.0862993 0.0015085
v -0.1315535 1.0856086 0.0028948
v -0.1324396 1.0844636 0.0040466
v -0.1331280 1.0829569 0.0048705
v -0.1335630 1.0812107 0.0052999
v -0.1837094 0.4493664 0.0052999
v -0.1835553 0.4475735 0.0048705
v -0.1831131 0.4459771 0.0040466
v -0.1824187 0.4447066 0.0028948
v -0.1815284 0.4438650 0.0015085
v -0.1311548 1.0863480 0.0007873
v -0.1327303 1.0857020 0.0015108
v -0.1340846 1.0845942 0.0021119
v -0.1351079 1.0831141 0.0025419
v -0.1357175 1.0813817 0.0027660
v -0.1858639 0.4495374 0.0027660
v -0.1855352 0.4477306 0.0025419
v -0.1847581 0.4461076 0.0021119
v -0.1835955 0.4448000 0.0015108
v -0.1821416 0.4439137 0.0007873
v -0.1313264 1.0863616 -0.0001449
v -0.1330595 1.0857282 -0.0002780
v -0.1345449 1.0846307 -0.0003886
v -0.1356620 1.0831581 -0.0004678
v -0.1363204 1.0814296 -0.0005090
v -0.1864668 0.4495853 -0.0005090
v -0.1860892 0.4477746 -0.0004678
v -0.1852184 0.4461442 -0.0003886
v -0.1839248 0.4448261 -0.0002780
v -0.1823132 0.4439273 -0.0001449
v -0.1310104 1.0863365 -0.0010382
v -0.1324531 1.0856800 -0.0019924
v -0.1336971 1.0845634 -0.0027851
v -0.1346416 1.0830771 -0.0033521
v -0.1352101 1.0813415 -0.0036477
v -0.1853565 0.4494972 -0.0036477
v -0.1850689 0.4476936 -0.0033521
v -0.1843707 0.4460769 -0.0027851
v -0.1833183 0.4447780 -0.0019924
v -0.1819972 0.4439022 -0.0010382
v -0.1302914 1.0862794 -0.0016534
v -0.1310734 1.0855705 -0.0031728
v -0.1317685 1.0844103 -0.0044352
v -0.1323203 1.0828928 -0.0053383
v -0.1326842 1.0811410 -0.0058089
v -0.1828305 0.4492967 -0.0058089
v -0.1827476 0.4475094 -0.0053383
v -0.1824421 0.4459238 -0.0044352
v -0.1819387 0.4446685 -0.0031728
v -0.1812782 0.4438451 -0.0016534
v -0.1293621 1.0862057 -0.0018255
v -0.1292902 1.0854290 -0.0035031
v -0.1292758 1.0842125 -0.0048970
v -0.1293201 1.0826547 -0.0058941
v -0.1294194 1.0808819 -0.0064137
v -0.1795658 0.4490376 -0.0064137
v -0.1797473 0.4472713 -0.0058941
v -0.1799493 0.4457260 -0.0048970
v -0.1801555 0.4445270 -0.0035031
v -0.1803490 0.4437714 -0.0018255
v -0.1284716 1.0861350 -0.0015085
v -0.1275813 1.0852934 -0.0028948
v -0.1268869 1.0840229 -0.0040466
v -0.1264447 1.0824265 -0.0048705
v -0.1262906 1.0806336 -0.0052999
v -0.1764370 0.4487893 -0.0052999
v -0.1768720 0.4470431 -0.0048705
v -0.1775604 0.4455364 -0.0040466
v -0.1784465 0.4443914 -0.0028948
v -0.1794584 0.4437007 -0.0015085
v -0.1278584 1.0860863 -0.0007873
v -0.1264045 1.0852000 -0.0015108
v -0.1252419 1.0838924 -0.0021119
v -0.1244648 1.0822694 -0.0025419
v -0.1241361 1.0804626 -0.0027660
v -0.1742825 0.4486183 -0.0027660
v -0.1748921 0.4468859 -0.0025419
v -0.1759154 0.4454058 -0.0021119
v -0.1772697 0.4442980 -0.0015108
v -0.1788452 0.4436520 -0.0007873
vn 0.0791163 0.9968654 0.0000000
vn 0.3767454 0.9260061 0.0239922
vn 0.6191740 0.7840165 0.0440639
vn 0.8116222 0.5810348 0.0605642
vn 0.9399876 0.3334663 0.0722745
vn 0.9950837 0.0605815 0.0783469
vn 0.9730706 -0.2167842 0.0783469
vn 0.8756202 -0.4775622 0.0722745
vn 0.7098112 -0.7017835 0.0605642
vn 0.4877546 -0.8718680 0.0440639
vn 0.2259640 -0.9738402 0.0239922
vn -0.0791163 -0.9968654 0.0000000
vn 0.3244130 0.9301594 0.1719291
vn 0.5230610 0.7916445 0.3157628
vn 0.6795183 0.5915192 0.4340045
vn 0.7823409 0.3459780 0.5179208
vn 0.8241917 0.0741443 0.5614362
vn 0.8021786 -0.2032214 0.5614362
vn 0.7179736 -0.4650506 0.5179208
vn 0.5777073 -0.6912990 0.4340045
vn 0.3916416 -0.8642400 0.3157628
vn 0.1736316 -0.9696868 0.1719291
vn 0.2053553 0.9396085 0.2737976
vn 0.3044011 0.8089985 0.5028533
vn 0.3789781 0.6153716 0.6911537
vn 0.4236903 0.3744423 0.8247906
vn 0.4354074 0.1050002 0.8940891
vn 0.4133942 -0.1723655 0.8940891
vn 0.3593229 -0.4365862 0.8247906
vn 0.2771671 -0.6674466 0.6911537
vn 0.1729816 -0.8468860 0.5028533
vn 0.0545739 -0.9602378 0.2737976
vn 0.0514737 0.9518213 0.3023023
vn 0.0217840 0.8314284 0.5552047
vn -0.0094689 0.6462007 0.7631087
vn -0.0398643 0.4112324 0.9106584
vn -0.0670948 0.1448814 0.9871716
vn -0.0891079 -0.1324843 0.9871716
vn -0.1042316 -0.3997962 0.9106584
vn -0.1112798 -0.6366175 0.7631087
vn -0.1096354 -0.8244561 0.5552047
vn -0.0993078 -0.9480249 0.3023023
vn -0.0959994 0.9635255 0.2498054
vn -0.2490633 0.8529243 0.4587894
vn -0.3817386 0.6757459 0.6305895
vn -0.4841136 0.4464902 0.7525161
vn -0.5486698 0.1831016 0.8157422
vn -0.5706829 -0.0942641 0.8157422
vn -0.5484809 -0.3645383 0.7525161
vn -0.4835495 -0.6070723 0.6305895
vn -0.3804827 -0.8029603 0.4587894
vn -0.2467808 -0.9363207 0.2498054
vn -0.1975486 0.9715850 0.1303733
vn -0.4355673 0.8677262 0.2394419
vn -0.6380817 0.6960906 0.3291042
vn -0.7900215 0.4707687 0.3927377
vn -0.8802799 0.2094199 0.4257353
vn -0.9022931 -0.0679458 0.4257353
vn -0.8543889 -0.3402599 0.3927377
vn -0.7398926 -0.5867276 0.3291042
vn -0.5669867 -0.7881584 0.2394419
vn -0.3483301 -0.9282613 0.1303733
vn -0.2259640 0.9738402 -0.0239922
vn -0.4877546 0.8718680 -0.0440639
vn -0.7098112 0.7017835 -0.0605642
vn -0.8756202 0.4775622 -0.0722745
vn -0.9730706 0.2167842 -0.0783469
vn -0.9950837 -0.0605815 -0.0783469
vn -0.9399876 -0.3334663 -0.0722745
vn -0.8116222 -0.5810348 -0.0605642
vn -0.6191740 -0.7840165 -0.0440639
vn -0.3767454 -0.9260061 -0.0239922
vn -0.1736316 0.9696868 -0.1719291
vn -0.3916416 0.8642400 -0.3157628
vn -0.5777073 0.6912990 -0.4340045
vn -0.7179736 0.4650506 -0.5179208
vn -0.8021786 0.2032214 -0.5614362
vn -0.8241917 -0.0741443 -0.5614362
vn -0.7823409 -0.3459780 -0.5179208
vn -0.6795183 -0.5915192 -0.4340045
vn -0.5230610 -0.7916445 -0.3157628
vn -0.3244130 -0.9301594 -0.1719291
vn -0.0545739 0.9602378 -0.2737976
vn -0.1729816 0.8468860 -0.5028533
vn -0.2771671 0.6674466 -0.6911537
vn -0.3593229 0.4365862 -0.8247906
vn -0.4133942 0.1723655 -0.8940891
vn -0.4354074 -0.1050002 -0.8940891
vn -0.4236903 -0.3744423 -0.8247906
vn -0.3789781 -0.6153716 -0.6911537
vn -0.3044011 -0.8089985 -0.5028533
vn -0.2053553 -0.9396085 -0.2737976
vn 0.0993078 0.9480249 -0.3023023
vn 0.1096354 0.8244561 -0.5552047
vn 0.1112798 0.6366175 -0.7631087
vn 0.1042316 0.3997962 -0.9106584
vn 0.0891079 0.1324843 -0.9871716
vn 0.0670948 -0.1448814 -0.9871716
vn 0.0398643 -0.4112324 -0.9106584
vn 0.0094689 -0.6462007 -0.7631087
vn -0.0217840 -0.8314284 -0.5552047
vn -0.0514737 -0.9518213 -0.3023023
vn 0.2467808 0.9363207 -0.2498054
vn 0.3804827 0.8029603 -0.4587894
vn 0.4835495 0.6070723 -0.6305895
vn 0.5484809 0.3645383 -0.7525161
vn 0.5706829 0.0942641 -0.8157422
vn 0.5486698 -0.1831016 -0.8157422
vn 0.4841136 -0.4464902 -0.7525161
vn 0.3817386 -0.6757459 -0.6305895
vn 0.2490633 -0.8529243 -0.4587894
vn 0.0959994 -0.9635255 -0.2498054
vn 0.3483301 0.9282613 -0.1303733
vn 0.5669867 0.7881584 -0.2394419
vn 0.7398926 0.5867276 -0.3291042
vn 0.8543889 0.3402599 -0.3927377
vn 0.9022931 0.0679458 -0.4257353
vn 0.8802799 -0.2094199 -0.4257353
vn 0.7900215 -0.4707687 -0.3927377
vn 0.6380817 -0.6960906 -0.3291042
vn 0.4355673 -0.8677262 -0.2394419
vn 0.1975486 -0.9715850 -0.1303733
f 2//2 1//1 13//13
f 2//2 13//13 3//3
f 3//3 13//13 14//14
f 3//3 14//14 4//4
f 4//4 14//14 15//15
f 4//4 15//15 5//5
f 5//5 15//15 16//16
f 5//5 16//16 6//6
f 6//6 16//16 17//17
f 6//6 17//17 7//7
f 7//7 17//17 18//18
f 7//7 18//18 8//8
f 8//8 18//18 19//19
f 8//8 19//19 9//9
f 9//9 19//19 20//20
f 9//9 20//20 10//10
f 10//10 20//20 21//21
f 10//10 21//21 11//11
f 11//11 21//21 22//22
f 11//11 22//22 12//12
f 13//13 1//1 23//23
f 13//13 23//23 14//14
f 14//14 23//23 24//24
f 14//14 24//24 15//15
f 15//15 24//24 25//25
f 15//15 25//25 16//16
f 16//16 25//25 26//26
f 16//16 26//26 17//17
f 17//17 26//26 27//27
f 17//17 27//27 18//18
f 18//18 27//27 28//28
f 18//18 28//28 19//19
f 19//19 28//28 29//29
f 19//19 29//29 20//20
f 20//20 29//29 30//30
f 20//20 30//30 21//21
f 21//21 30//30 31//31
f 21//21 31//31 22//22
f 22//22 31//31 32//32
f 22//22 32//32 12//12
f 23//23 1//1 33//33
f 23//23 33//33 24//24
f 24//24 33//33 34//34
f 24//24 34//34 25//25
f 25//25 34//34 35//35
f 25//25 35//35 26//26
f 26//26 35//35 36//36
f 26//26 36//36 27//27
f 27//27 36//36 37//37
f 27//27 37//37 28//28
f 28//28 37//37 38//38
f 28//28 38//38 29//29
f 29//29 38//38 39//39
f 29//29 39//39 30//30
f 30//30 39//39 40//40
f 30//30 40//40 31//31
f 31//31 40//40 41//41
f 31//31 41//41 32//32
f 32//32 41//41 42//42
f 32//32 42//42 12//12
f 33//33 1//1 43//43
f 33//33 43//43 34//34
f 34//34 43//43 44//44
f 34//34 44//44 35//35
f 35//35 44//44 45//45
f 35//35 45//45 36//36
f 36//36 45//45 46//46
f 36//36 46//46 37//37
f 37//37 46//46 47//47
f 37//37 47//47 38//38
f 38//38 47//47 48//48
f 38//38 48//48 39//39
f 39//39 48//48 49//49
f 39//39 49//49 40//40
f 40//40 49//49 50//50
f 40//40 50//50 41//41
f 41//41 50//50 51//51
f 41//41 51//51 42//42
f 42//42 51//51 52//52
f 42//42 52//52 12//12
f 43//43 1//1 53//53
f 43//43 53//53 44//44
f 44//44 53//53 54//54
f 44//44 54//54 45//45
f 45//45 54//54 55//55
f 45//45 55//55 46//46
f 46//46 55//55 56//56
f 46//46 56//56 47//47
f 47//47 56//56 57//57
f 47//47 57//57 48//48
f 48//48 57//57 58//58
f 48//48 58//58 49//49
f 49//49 58//58 59//59
f 49//49 59//59 50//50
f 50//50 59//59 60//60
f 50//50 60//60 51//51
f 51//51 60//60 61//61
f 51//51 61//61 52//52
f 52//52 61//61 62//62
f 52//52 62//62 12//12
f 53//53 1//1 63//63
f 53//53 63//63 54//54
f 54//54 63//63 64//64
f 54//54 64//64 55//55
f 55//55 64//64 65//65
f 55//55 65//65 56//56
f 56//56 65//65 66//66
f 56//56 66//66 57//57
f 57//57 66//66 67//67
f 57//57 67//67 58//58
f 58//58 67//67 68//68
f 58//58 68//68 59//59
f 59//59 68//68 69//69
f 59//59 69//69 60//60
f 60//60 69//69 70//70
f 60//60 70//70 61//61
f 61//61 70//70 71//71
f 61//61 71//71 62//62
f 62//62 71//71 72//72
f 62//62 72//72 12//12
f 63//63 1//1 73//73
f 63//63 73//73 64//64
f 64//64 73//73 74//74
f 64//64 74//74 65//65
f 65//65 74//74 75//75
f 65//65 75//75 66//66
f 66//66 75//75 76//76
f 66//66 76//76 67//67
f 67//67 76//76 77//77
f 67//67 77//77 68//68
f 68//68 77//77 78//78
f 68//68 78//78 69//69
f 69//69 78//78 79//79
f 69//69 79//79 70//70
f 70//70 79//79 80//80
f 70//70 80//80 71//71
f 71//71 80//80 81//81
f 71//71 81//81 72//72
f 72//72 81//81 82//82
f 72//72 82//82 12//12
f 73//73 1//1 83//83
f 73//73 83//83 74//74
f 74//74 83//83 84//84
f 74//74 84//84 75//75
f 75//75 84//84 85//85
f 75//75 85//85 76//76
f 76//76 85//85 86//86
f 76//76 86//86 77//77
f 77//77 86//86 87//87
f 77//77 87//87 78//78
f 78//78 87//87 88//88
f 78//78 88//88 79//79
f 79//79 88//88 89//89
f 79//79 89//89 80//80
f 80//80 89//89 90//90
f 80//80 90//90 81//81
f 81//81 90//90 91//91
f 81//81 91//91 82//82
f 82//82 91//91 92//92
f 82//82 92//92 12//12
f 83//83 1//1 93//93
f 83//83 93//93 84//84
f 84//84 93//93 94//94
f 84//84 94//94 85//85
f 85//85 94//94 95//95
f 85//85 95//95 86//86
f 86//86 95//95 96//96
f 86//86 96//96 87//87
f 87//87 96//96 97//97
f 87//87 97//97 88//88
f 88//88 97//97 98//98
f 88//88 98//98 89//89
f 89//89 98//98 99//99
f 89//89 99//99 90//90
f 90//90 99//99 100//100
f 90//90 100//100 91//91
f 91//91 100//100 101//101
f 91//91 101//101 92//92
f 92//92 101//101 102//102
f 92//92 102//102 12//12
f 93//93 1//1 103//103
f 93//93 103//103 94//94
f 94//94 103//103 104//104
f 94//94 104//104 95//95
f 95//95 104//104 105//105
f 95//95 105//105 96//96
f 96//96 105//105 106//106
f 96//96 106//106 97//97
f 97//97 106//106 107//107
f 97//97 107//107 98//98
f 98//98 107//107 108//108
f 98//98 108//108 99//99
f 99//99 108//108 109//109
f 99//99 109//109 100//100
f 100//100 109//109 110//110
f 100//100 110//110 101//101
f 101//101 110//110 111//111
f 101//101 111//111 102//102
f 102//102 111//111 112//112
f 102//102 112//112 12//12
f 103//103 1//1 113//113
f 103//103 113//113 104//104
f 104//104 113//113 114//114
f 104//104 114//114 105//105
f 105//105 114//114 115//115
f 105//105 115//115 106//106
f 106//106 115//115 116//116
f 106//106 116//116 107//107
f 107//107 116//116 117//117
f 107//107 117//117 108//108
f 108//108 117//117 118//118
f 108//108 118//118 109//109
f 109//109 118//118 119//119
f 109//109 119//119 110//110
f 110//110 119//119 120//120
f 110//110 120//120 111//111
f 111//111 120//120 121//121
f 111//111 121//121 112//112
f 112//112 121//121 122//122
f 112//112 122//122 12//12
f 113//113 1//1 2//2
f 113//113 2//2 114//114
f 114//114 2//2 3//3
f 114//114 3//3 115//115
f 115//115 3//3 4//4
f 115//115 4//4 116//116
f 116//116 4//4 5//5
f 116//116 5//5 117//117
f 117//117 5//5 6//6
f 117//117 6//6 118//118
f 118//118 6//6 7//7
f 118//118 7//7 119//119
f 119//119 7//7 8//8
f 119//119 8//8 120//120
f 120//120 8//8 9//9
f 120//120 9//9 121//121
f 121//121 9//9 10//10
f 121//121 10//10 122//122
f 122//122 10//10 11//11
f 122//122 11//11 12//12

