# https://github.com/mikedh/trimesh
v 0.1497719 -1.7220163 0.0195438
v 0.1520333 -1.7222790 0.0194980
v 0.1541299 -1.7231672 0.0194929
v 0.1558920 -1.7246090 0.0195289
v 0.1571767 -1.7264875 0.0196030
v 0.1578800 -1.7286506 0.0197093
v 0.1679449 -2.0809230 0.0398391
v 0.1673662 -2.0831207 0.0399820
v 0.1661907 -2.0850655 0.0401264
v 0.1645137 -2.0865999 0.0402605
v 0.1624710 -2.0875997 0.0403735
v 0.1602281 -2.0879837 0.0404562
v 0.1517619 -1.7222220 0.0206312
v 0.1536091 -1.7230578 0.0216676
v 0.1551640 -1.7244561 0.0225688
v 0.1563005 -1.7263035 0.0232619
v 0.1569265 -1.7284504 0.0236908
v 0.1669915 -2.0807228 0.0438206
v 0.1664900 -2.0829366 0.0436409
v 0.1654627 -2.0849126 0.0431663
v 0.1639929 -2.0864905 0.0424352
v 0.1621996 -2.0875426 0.0415067
v 0.1509597 -1.7221965 0.0214781
v 0.1520698 -1.7230090 0.0232926
v 0.1530122 -1.7243878 0.0248404
v 0.1537106 -1.7262213 0.0259960
v 0.1541084 -1.7283609 0.0266659
v 0.1641733 -2.0806333 0.0467958
v 0.1639001 -2.0828544 0.0463751
v 0.1633110 -2.0848442 0.0454379
v 0.1624536 -2.0864416 0.0440602
v 0.1613975 -2.0875172 0.0423535
v 0.1498418 -1.7222094 0.0218115
v 0.1499245 -1.7230337 0.0239325
v 0.1500134 -1.7244223 0.0257349
v 0.1501011 -1.7262629 0.0270727
v 0.1501807 -1.7284061 0.0278375
v 0.1602456 -2.0806785 0.0479674
v 0.1602907 -2.0828960 0.0474518
v 0.1603121 -2.0848788 0.0463325
v 0.1603083 -2.0864664 0.0447001
v 0.1602795 -2.0875301 0.0426870
v 0.1487076 -1.7222572 0.0215423
v 0.1477480 -1.7231254 0.0234159
v 0.1469709 -1.7245505 0.0250128
v 0.1464392 -1.7264172 0.0262035
v 0.1461959 -1.7285740 0.0268917
v 0.1562608 -2.0808464 0.0470215
v 0.1566287 -2.0830503 0.0465826
v 0.1572697 -2.0850070 0.0456103
v 0.1581318 -2.0865581 0.0441835
v 0.1591453 -2.0875779 0.0424178
v 0.1478611 -1.7223271 0.0207426
v 0.1461235 -1.7232595 0.0218812
v 0.1447000 -1.7247380 0.0228674
v 0.1437059 -1.7266428 0.0236213
v 0.1432217 -1.7288196 0.0240818
v 0.1532866 -2.0810920 0.0442117
v 0.1538954 -2.0832759 0.0440003
v 0.1549988 -2.0851945 0.0434649
v 0.1565073 -2.0866922 0.0426488
v 0.1582988 -2.0876477 0.0416180
v 0.1475290 -1.7224003 0.0196265
v 0.1454863 -1.7234001 0.0197395
v 0.1438093 -1.7249345 0.0198736
v 0.1426338 -1.7268793 0.0200180
v 0.1420551 -1.7290770 0.0201609
v 0.1521200 -2.0813494 0.0402907
v 0.1528233 -2.0835125 0.0403970
v 0.1541080 -2.0853910 0.0404711
v 0.1558701 -2.0868328 0.0405071
v 0.1579667 -2.0877210 0.0405020
v 0.1478004 -1.7224574 0.0184933
v 0.1460071 -1.7235095 0.0175648
v 0.1445373 -1.7250874 0.0168337
v 0.1435100 -1.7270634 0.0163591
v 0.1430085 -1.7292772 0.0161794
v 0.1530735 -2.0815496 0.0363092
v 0.1536995 -2.0836965 0.0367381
v 0.1548360 -2.0855439 0.0374312
v 0.1563909 -2.0869422 0.0383324
v 0.1582381 -2.0877780 0.0393688
v 0.1486025 -1.7224828 0.0176465
v 0.1475464 -1.7235584 0.0159398
v 0.1466890 -1.7251558 0.0145621
v 0.1460999 -1.7271456 0.0136249
v 0.1458267 -1.7293667 0.0132042
v 0.1558916 -2.0816391 0.0333341
v 0.1562894 -2.0837787 0.0340040
v 0.1569878 -2.0856122 0.0351596
v 0.1579302 -2.0869910 0.0367074
v 0.1590403 -2.0878035 0.0385219
v 0.1497205 -1.7224699 0.0173130
v 0.1496917 -1.7235336 0.0152999
v 0.1496879 -1.7251212 0.0136675
v 0.1497093 -1.7271040 0.0125482
v 0.1497544 -1.7293215 0.0120326
v 0.1598193 -2.0815939 0.0321625
v 0.1598989 -2.0837371 0.0329273
v 0.1599866 -2.0855777 0.0342651
v 0.1600755 -2.0869663 0.0360675
v 0.1601582 -2.0877906 0.0381885
v 0.1508547 -1.7224221 0.0175822
v 0.1518682 -1.7234419 0.0158165
v 0.1527303 -1.7249930 0.0143897
v 0.1533713 -1.7269497 0.0134174
v 0.1537392 -1.7291536 0.0129785
v 0.1638041 -2.0814260 0.0331083
v 0.1635608 -2.0835828 0.0337965
v 0.1630291 -2.0854495 0.0349872
v 0.1622520 -2.0868746 0.0365841
v 0.1612924 -2.0877428 0.0384577
v 0.1517012 -1.7223523 0.0183820
v 0.1534927 -1.7233078 0.0173512
v 0.1550012 -1.7248055 0.0165351
v 0.1561046 -1.7267241 0.0159997
v 0.1567134 -1.7289080 0.0157883
v 0.1667783 -2.0811804 0.0359182
v 0.1662941 -2.0833572 0.0363787
v 0.1653000 -2.0852620 0.0371326
v 0.1638765 -2.0867405 0.0381188
v 0.1621389 -2.0876729 0.0392574
vn -0.0285133 0.9979654 -0.0570266
vn 0.2758490 0.9591349 -0.0629880
vn 0.5328405 0.8438491 -0.0632437
vn 0.7465733 0.6627245 -0.0585196
vn 0.9012204 0.4305539 -0.0492453
vn 0.9855473 0.1654942 -0.0361695
vn 0.9934808 -0.1121775 -0.0203025
vn 0.9244182 -0.3813696 -0.0028497
vn 0.7832657 -0.6215093 0.0148652
vn 0.5802037 -0.8138627 0.0314827
vn 0.3301903 -0.9428077 0.0456945
vn 0.0285133 -0.9979654 0.0570266
vn 0.2393339 0.9668046 0.0894884
vn 0.4657773 0.8579350 0.2167925
vn 0.6543973 0.6820851 0.3263801
vn 0.7912219 0.4536580 0.4100760
vn 0.8663067 0.1905395 0.4617438
vn 0.8742402 -0.0871322 0.4776108
vn 0.8144197 -0.3582655 0.4564717
vn 0.6910897 -0.6021487 0.3997649
vn 0.5131405 -0.7997767 0.3115189
vn 0.2936751 -0.9351381 0.1981709
vn 0.1314091 0.9702317 0.2034258
vn 0.2675639 0.8642293 0.4260485
vn 0.3819602 0.6907364 0.6139948
vn 0.4661082 0.4639819 0.7533020
vn 0.5138771 0.2017309 0.8338075
vn 0.5218105 -0.0759409 0.8496745
vn 0.4893060 -0.3479416 0.7996977
vn 0.4186526 -0.5934974 0.6873796
vn 0.3149271 -0.7934825 0.5207749
vn 0.1857503 -0.9317109 0.3121082
vn -0.0190070 0.9684981 0.2482947
vn -0.0086884 0.8610453 0.5084541
vn 0.0022614 0.6863600 0.7272584
vn 0.0129932 0.4587594 0.8884655
vn 0.0226916 0.1960696 0.9803274
vn 0.0306251 -0.0816022 0.9961944
vn 0.0361910 -0.3531641 0.9348611
vn 0.0389538 -0.5978738 0.8006432
vn 0.0386748 -0.7966665 0.6031805
vn 0.0353342 -0.9334446 0.3569771
vn -0.1716105 0.9620681 0.2120725
vn -0.2889582 0.8492361 0.4419290
vn -0.3829593 0.6701288 0.6358220
vn -0.4467112 0.4393898 0.7793495
vn -0.4756369 0.1750726 0.8620436
vn -0.4677035 -0.1025992 0.8779105
vn -0.4235134 -0.3725337 0.8257452
vn -0.3462669 -0.6141050 0.7092068
vn -0.2415950 -0.8084757 0.5366554
vn -0.1172693 -0.9398745 0.3207550
vn -0.2855115 0.9526648 0.1044650
vn -0.4981473 0.8319661 0.2442984
vn -0.6704821 0.6463918 0.3641859
vn -0.7898276 0.4110632 0.4551917
vn -0.8475818 0.1443659 0.5106501
vn -0.8396484 -0.1333058 0.5265170
vn -0.7666298 -0.4008603 0.5015873
vn -0.6337898 -0.6378420 0.4375707
vn -0.4507841 -0.8257457 0.3390248
vn -0.2311703 -0.9492779 0.2131475
vn -0.3301903 0.9428077 -0.0456945
vn -0.5802037 0.8138627 -0.0314827
vn -0.7832657 0.6215093 -0.0148652
vn -0.9244182 0.3813696 0.0028497
vn -0.9934808 0.1121775 0.0203025
vn -0.9855473 -0.1654942 0.0361695
vn -0.9012204 -0.4305539 0.0492453
vn -0.7465733 -0.6627245 0.0585196
vn -0.5328405 -0.8438491 0.0632437
vn -0.2758490 -0.9591349 0.0629880
vn -0.2936751 0.9351381 -0.1981709
vn -0.5131405 0.7997767 -0.3115189
vn -0.6910897 0.6021487 -0.3997649
vn -0.8144197 0.3582655 -0.4564717
vn -0.8742402 0.0871322 -0.4776108
vn -0.8663067 -0.1905395 -0.4617438
vn -0.7912219 -0.4536580 -0.4100760
vn -0.6543973 -0.6820851 -0.3263801
vn -0.4657773 -0.8579350 -0.2167925
vn -0.2393339 -0.9668046 -0.0894884
vn -0.1857503 0.9317109 -0.3121082
vn -0.3149271 0.7934825 -0.5207749
vn -0.4186526 0.5934974 -0.6873796
vn -0.4893060 0.3479416 -0.7996977
vn -0.5218105 0.0759409 -0.8496745
vn -0.5138771 -0.2017309 -0.8338075
vn -0.4661082 -0.4639819 -0.7533020
vn -0.3819602 -0.6907364 -0.6139948
vn -0.2675639 -0.8642293 -0.4260485
vn -0.1314091 -0.9702317 -0.2034258
vn -0.0353342 0.9334446 -0.3569771
vn -0.0386748 0.7966665 -0.6031805
vn -0.0389538 0.5978738 -0.8006432
vn -0.0361910 0.3531641 -0.9348611
vn -0.0306251 0.0816022 -0.9961944
vn -0.0226916 -0.1960696 -0.9803274
vn -0.0129932 -0.4587594 -0.8884655
vn -0.0022614 -0.6863600 -0.7272584
vn 0.0086884 -0.8610453 -0.5084541
vn 0.0190070 -0.9684981 -0.2482947
vn 0.1172693 0.9398745 -0.3207550
vn 0.2415950 0.8084757 -0.5366554
vn 0.3462669 0.6141050 -0.7092068
vn 0.4235134 0.3725337 -0.8257452
vn 0.4677035 0.1025992 -0.8779105
vn 0.4756369 -0.1750726 -0.8620436
vn 0.4467112 -0.4393898 -0.7793495
vn 0.3829593 -0.6701288 -0.6358220
vn 0.2889582 -0.8492361 -0.4419290
vn 0.1716105 -0.9620681 -0.2120725
vn 0.2311703 0.9492779 -0.2131475
vn 0.4507841 0.8257457 -0.3390248
vn 0.6337898 0.6378420 -0.4375707
vn 0.7666298 0.4008603 -0.5015873
vn 0.8396484 0.1333058 -0.5265170
vn 0.8475818 -0.1443659 -0.5106501
vn 0.7898276 -0.4110632 -0.4551917
vn 0.6704821 -0.6463918 -0.3641859
vn 0.4981473 -0.8319661 -0.2442984
vn 0.2855115 -0.9526648 -0.1044650
f 2//2 1//1 13//13
f 2//2 13//13 3//3
f 3//3 13//13 14//14
f 3//3 14//14 4//4
f 4//4 14//14 15//15
f 4//4 15//15 5//5
f 5//5 15//15 16//16
f 5//5 16//16 6//6
f 6//6 16//16 17//17
f 6//6 17//17 7//7
f 7//7 17//17 18//18
f 7//7 18//18 8//8
f 8//8 18//18 19//19
f 8//8 19//19 9//9
f 9//9 19//19 20//20
f 9//9 20//20 10//10
f 10//10 20//20 21//21
f 10//10 21//21 11//11
f 11//11 21//21 22//22
f 11//11 22//22 12//12
f 13//13 1//1 23//23
f 13//13 23//23 14//14
f 14//14 23//23 24//24
f 14//14 24//24 15//15
f 15//15 24//24 25//25
f 15//15 25//25 16//16
f 16//16 25//25 26//26
f 16//16 26//26 17//17
f 17//17 26//26 27//27
f 17//17 27//27 18//18
f 18//18 27//27 28//28
f 18//18 28//28 19//19
f 19//19 28//28 29//29
f 19//19 29//29 20//20
f 20//20 29//29 30//30
f 20//20 30//30 21//21
f 21//21 30//30 31//31
f 21//21 31//31 22//22
f 22//22 31//31 32//32
f 22//22 32//32 12//12
f 23//23 1//1 33//33
f 23//23 33//33 24//24
f 24//24 33//33 34//34
f 24//24 34//34 25//25
f 25//25 34//34 35//35
f 25//25 35//35 26//26
f 26//26 35//35 36//36
f 26//26 36//36 27//27
f 27//27 36//36 37//37
f 27//27 37//37 28//28
f 28//28 37//37 38//38
f 28//28 38//38 29//29
f 29//29 38//38 39//39
f 29//29 39//39 30//30
f 30//30 39//39 40//40
f 30//30 40//40 31//31
f 31//31 40//40 41//41
f 31//31 41//41 32//32
f 32//32 41//41 42//42
f 32//32 42//42 12//12
f 33//33 1//1 43//43
f 33//33 43//43 34//34
f 34//34 43//43 44//44
f 34//34 44//44 35//35
f 35//35 44//44 45//45
f 35//35 45//45 36//36
f 36//36 45//45 46//46
f 36//36 46//46 37//37
f 37//37 46//46 47//47
f 37//37 47//47 38//38
f 38//38 47//47 48//48
f 38//38 48//48 39//39
f 39//39 48//48 49//49
f 39//39 49//49 40//40
f 40//40 49//49 50//50
f 40//40 50//50 41//41
f 41//41 50//50 51//51
f 41//41 51//51 42//42
f 42//42 51//51 52//52
f 42//42 52//52 12//12
f 43//43 1//1 53//53
f 43//43 53//53 44//44
f 44//44 53//53 54//54
f 44//44 54//54 45//45
f 45//45 54//54 55//55
f 45//45 55//55 46//46
f 46//46 55//55 56//56
f 46//46 56//56 47//47
f 47//47 56//56 57//57
f 47//47 57//57 48//48
f 48//48 57//57 58//58
f 48//48 58//58 49//49
f 49//49 58//58 59//59
f 49//49 59//59 50//50
f 50//50 59//59 60//60
f 50//50 60//60 51//51
f 51//51 60//60 61//61
f 51//51 61//61 52//52
f 52//52 61//61 62//62
f 52//52 62//62 12//12
f 53//53 1//1 63//63
f 53//53 63//63 54//54
f 54//54 63//63 64//64
f 54//54 64//64 55//55
f 55//55 64//64 65//65
f 55//55 65//65 56//56
f 56//56 65//65 66//66
f 56//56 66//66 57//57
f 57//57 66//66 67//67
f 57//57 67//67 58//58
f 58//58 67//67 68//68
f 58//58 68//68 59//59
f 59//59 68//68 69//69
f 59//59 69//69 60//60
f 60//60 69//69 70//70
f 60//60 70//70 61//61
f 61//61 70//70 71//71
f 61//61 71//71 62//62
f 62//62 71//71 72//72
f 62//62 72//72 12//12
f 63//63 1//1 73//73
f 63//63 73//73 64//64
f 64//64 73//73 74//74
f 64//64 74//74 65//65
f 65//65 74//74 75//75
f 65//65 75//75 66//66
f 66//66 75//75 76//76
f 66//66 76//76 67//67
f 67//67 76//76 77//77
f 67//67 77//77 68//68
f 68//68 77//77 78//78
f 68//68 78//78 69//69
f 69//69 78//78 79//79
f 69//69 79//79 70//70
f 70//70 79//79 80//80
f 70//70 80//80 71//71
f 71//71 80//80 81//81
f 71//71 81//81 72//72
f 72//72 81//81 82//82
f 72//72 82//82 12//12
f 73//73 1//1 83//83
f 73//73 83//83 74//74
f 74//74 83//83 84//84
f 74//74 84//84 75//75
f 75//75 84//84 85//85
f 75//75 85//85 76//76
f 76//76 85//85 86//86
f 76//76 86//86 77//77
f 77//77 86//86 87//87
f 77//77 87//87 78//78
f 78//78 87//87 88//88
f 78//78 88//88 79//79
f 79//79 88//88 89//89
f 79//79 89//89 80//80
f 80//80 89//89 90//90
f 80//80 90//90 81//81
f 81//81 90//90 91//91
f 81//81 91//91 82//82
f 82//82 91//91 92//92
f 82//82 92//92 12//12
f 83//83 1//1 93//93
f 83//83 93//93 84//84
f 84//84 93//93 94//94
f 84//84 94//94 85//85
f 85//85 94//94 95//95
f 85//85 95//95 86//86
f 86//86 95//95 96//96
f 86//86 96//96 87//87
f 87//87 96//96 97//97
f 87//87 97//97 88//88
f 88//88 97//97 98//98
f 88//88 98//98 89//89
f 89//89 98//98 99//99
f 89//89 99//99 90//90
f 90//90 99//99 100//100
f 90//90 100//100 91//91
f 91//91 100//100 101//101
f 91//91 101//101 92//92
f 92//92 101//101 102//102
f 92//92 102//102 12//12
f 93//93 1//1 103//103
f 93//93 103//103 94//94
f 94//94 103//103 104//104
f 94//94 104//104 95//95
f 95//95 104//104 105//105
f 95//95 105//105 96//96
f 96//96 105//105 106//106
f 96//96 106//106 97//97
f 97//97 106//106 107//107
f 97//97 107//107 98//98
f 98//98 107//107 108//108
f 98//98 108//108 99//99
f 99//99 108//108 109//109
f 99//99 109//109 100//100
f 100//100 109//109 110//110
f 100//100 110//110 101//101
f 101//101 110//110 111//111
f 101//101 111//111 102//102
f 102//102 111//111 112//112
f 102//102 112//112 12//12
f 103//103 1//1 113//113
f 103//103 113//113 104//104
f 104//104 113//113 114//114
f 104//104 114//114 105//105
f 105//105 114//114 115//115
f 105//105 115//115 106//106
f 106//106 115//115 116//116
f 106//106 116//116 107//107
f 107//107 116//116 117//117
f 107//107 117//117 108//108
f 108//108 117//117 118//118
f 108//108 118//118 109//109
f 109//109 118//118 119//119
f 109//109 119//119 110//110
f 110//110 119//119 120//120
f 110//110 120//120 111//111
f 111//111 120//120 121//121
f 111//111 121//121 112//112
f 112//112 121//121 122//122
f 112//112 122//122 12//12
f 113//113 1//1 2//2
f 113//113 2//2 114//114
f 114//114 2//2 3//3
f 114//114 3//3 115//115
f 115//115 3//3 4//4
f 115//115 4//4 116//116
f 116//116 4//4 5//5
f 116//116 5//5 117//117
f 117//117 5//5 6//6
f 117//117 6//6 118//118
f 118//118 6//6 7//7
f 118//118 7//7 119//119
f 119//119 7//7 8//8
f 119//119 8//8 120//120
f 120//120 8//8 9//9
f 120//120 9//9 121//121
f 121//121 9//9 10//10
f 121//121 10//10 122//122
f 122//122 10//10 11//11
f 122//122 11//11 12//12

