# https://github.com/mikedh/trimesh
v 0.1832311 1.1116922 -0.0394359
v 0.1834717 1.1121251 -0.0413658
v 0.1842412 1.1123858 -0.0431850
v 0.1854773 1.1124532 -0.0447462
v 0.1870797 1.1123219 -0.0459229
v 0.1889188 1.1120025 -0.0466197
v 0.3108454 1.0815208 -0.0567803
v 0.3127035 1.0809160 -0.0563915
v 0.3143427 1.0802369 -0.0554850
v 0.3156300 1.0795386 -0.0541341
v 0.3164612 1.0788777 -0.0524483
v 0.3167689 1.0783078 -0.0505641
v 0.1837269 1.1129813 -0.0408719
v 0.1847310 1.1140289 -0.0422373
v 0.1861619 1.1147500 -0.0434214
v 0.1879037 1.1150864 -0.0443283
v 0.1898154 1.1150106 -0.0448846
v 0.3117420 1.0845290 -0.0550452
v 0.3135275 1.0836804 -0.0547970
v 0.3150273 1.0825337 -0.0541602
v 0.3161197 1.0811817 -0.0531864
v 0.3167164 1.0797339 -0.0519544
v 0.1839227 1.1134737 -0.0399994
v 0.1851067 1.1149738 -0.0405629
v 0.1866872 1.1160710 -0.0410808
v 0.1885360 1.1166763 -0.0415112
v 0.1905034 1.1167407 -0.0418191
v 0.3124300 1.0862591 -0.0519797
v 0.3141598 1.0852703 -0.0519799
v 0.3155525 1.0838546 -0.0518196
v 0.3164955 1.0821267 -0.0515120
v 0.3169122 1.0802264 -0.0510819
v 0.1840067 1.1134705 -0.0389820
v 0.1852679 1.1149675 -0.0386106
v 0.1869124 1.1160622 -0.0383517
v 0.1888070 1.1166657 -0.0382264
v 0.1907984 1.1167292 -0.0382447
v 0.3127250 1.0862475 -0.0484053
v 0.3144309 1.0852597 -0.0486950
v 0.3157778 1.0838458 -0.0490905
v 0.3166566 1.0821203 -0.0495596
v 0.3169961 1.0802231 -0.0500645
v 0.1839563 1.1129723 -0.0380924
v 0.1851711 1.1140116 -0.0369034
v 0.1867772 1.1147259 -0.0359652
v 0.1886443 1.1150573 -0.0353540
v 0.1906213 1.1149791 -0.0351191
v 0.3125479 1.0844974 -0.0452797
v 0.3142681 1.0836514 -0.0458226
v 0.3156426 1.0825096 -0.0467040
v 0.3165599 1.0811644 -0.0478524
v 0.3169458 1.0797250 -0.0491748
v 0.1837851 1.1121128 -0.0375689
v 0.1848425 1.1123622 -0.0358988
v 0.1863178 1.1124203 -0.0345609
v 0.1880914 1.1122823 -0.0336637
v 0.1900196 1.1119593 -0.0332798
v 0.3119463 1.0814777 -0.0434404
v 0.3137152 1.0808763 -0.0441324
v 0.3151832 1.0802040 -0.0452997
v 0.3162313 1.0795151 -0.0468478
v 0.3167745 1.0788655 -0.0486513
v 0.1835388 1.1111223 -0.0375517
v 0.1843700 1.1104614 -0.0358659
v 0.1856573 1.1097631 -0.0345150
v 0.1872965 1.1090840 -0.0336085
v 0.1891546 1.1084792 -0.0332197
v 0.3110812 1.0779975 -0.0433803
v 0.3129203 1.0776781 -0.0440771
v 0.3145227 1.0775468 -0.0452538
v 0.3157588 1.0776142 -0.0468150
v 0.3165283 1.0778749 -0.0486342
v 0.1832836 1.1102661 -0.0380456
v 0.1838803 1.1088183 -0.0368136
v 0.1849727 1.1074663 -0.0358398
v 0.1864725 1.1063196 -0.0352030
v 0.1882580 1.1054710 -0.0349548
v 0.3101846 1.0749894 -0.0451154
v 0.3120963 1.0749136 -0.0456717
v 0.3138381 1.0752500 -0.0465786
v 0.3152690 1.0759711 -0.0477627
v 0.3162731 1.0770187 -0.0491281
v 0.1830878 1.1097736 -0.0389181
v 0.1835045 1.1078733 -0.0384880
v 0.1844475 1.1061454 -0.0381804
v 0.1858402 1.1047297 -0.0380201
v 0.1875700 1.1037409 -0.0380203
v 0.3094966 1.0732593 -0.0481809
v 0.3114640 1.0733237 -0.0484888
v 0.3133128 1.0739290 -0.0489192
v 0.3148933 1.0750262 -0.0494371
v 0.3160773 1.0765263 -0.0500006
v 0.1830039 1.1097769 -0.0399355
v 0.1833434 1.1078797 -0.0404404
v 0.1842222 1.1061542 -0.0409095
v 0.1855691 1.1047403 -0.0413050
v 0.1872750 1.1037525 -0.0415947
v 0.3092016 1.0732708 -0.0517553
v 0.3111930 1.0733343 -0.0517736
v 0.3130876 1.0739378 -0.0516483
v 0.3147321 1.0750325 -0.0513894
v 0.3159933 1.0765295 -0.0510180
v 0.1830542 1.1102750 -0.0408252
v 0.1834401 1.1088356 -0.0421476
v 0.1843574 1.1074904 -0.0432960
v 0.1857319 1.1063486 -0.0441774
v 0.1874521 1.1055026 -0.0447203
v 0.3093787 1.0750209 -0.0548809
v 0.3113557 1.0749427 -0.0546460
v 0.3132228 1.0752741 -0.0540348
v 0.3148289 1.0759884 -0.0530966
v 0.3160437 1.0770277 -0.0519076
v 0.1832255 1.1111345 -0.0413487
v 0.1837687 1.1104849 -0.0431522
v 0.1848168 1.1097960 -0.0447003
v 0.1862848 1.1091237 -0.0458676
v 0.1880537 1.1085223 -0.0465596
v 0.3099804 1.0780407 -0.0567202
v 0.3119086 1.0777177 -0.0563363
v 0.3136822 1.0775797 -0.0554391
v 0.3151575 1.0776378 -0.0541012
v 0.3162149 1.0778872 -0.0524311
vn -0.9669876 0.2417469 0.0805823
vn -0.9266132 0.3074665 -0.2164541
vn -0.8126059 0.3423891 -0.4716369
vn -0.6352128 0.3501803 -0.6883883
vn -0.4089072 0.3306073 -0.8505844
vn -0.1513794 0.2854138 -0.9463737
vn 0.1176731 0.2181506 -0.9687948
vn 0.3778134 0.1339271 -0.9161444
vn 0.6091570 0.0390878 -0.7920858
vn 0.7936488 -0.0591746 -0.6054915
vn 0.9162913 -0.1532596 -0.3700295
vn 0.9669876 -0.2417469 -0.0805823
vn -0.8873700 0.4391251 -0.1405119
vn -0.7405324 0.5841916 -0.3321625
vn -0.5361504 0.6825292 -0.4966857
vn -0.2906907 0.7272170 -0.6218154
vn -0.0232304 0.7153464 -0.6983837
vn 0.2458221 0.6480833 -0.7208048
vn 0.4960299 0.5305368 -0.6873755
vn 0.7082195 0.3714367 -0.6003832
vn 0.8657223 0.1826280 -0.4660170
vn 0.9555344 -0.0216010 -0.2940873
vn -0.8572591 0.5148461 -0.0063445
vn -0.6852312 0.7232599 -0.0857522
vn -0.4601409 0.8736734 -0.1580037
vn -0.1999844 0.9553196 -0.2176482
vn 0.0750969 0.9626141 -0.2602585
vn 0.3441495 0.8953510 -0.2826796
vn 0.5867361 0.7586394 -0.2832082
vn 0.7842290 0.5625809 -0.2617012
vn 0.9210236 0.3216962 -0.2196068
vn 0.9856453 0.0541200 -0.1599199
vn -0.8443488 0.5143401 0.1500981
vn -0.6615201 0.7223305 0.2015683
vn -0.4275509 0.8723960 0.2369080
vn -0.1610931 0.9537952 0.2536211
vn 0.1172559 0.9609617 0.2506066
vn 0.3863085 0.8936986 0.2281855
vn 0.6256275 0.7571151 0.1880611
vn 0.8168190 0.5613036 0.1332105
vn 0.9447346 0.3207668 0.0677138
vn 0.9985557 0.0536140 -0.0034772
vn -0.8520982 0.4377426 0.2868973
vn -0.6757526 0.5816526 0.4528119
vn -0.4471130 0.6790393 0.5822333
vn -0.1844375 0.7230524 0.6657162
vn 0.0919501 0.7108319 0.6973257
vn 0.3610026 0.6435688 0.6749047
vn 0.6022830 0.5263722 0.6001562
vn 0.7972569 0.3679469 0.4785358
vn 0.9305021 0.1800889 0.3189574
vn 0.9908063 -0.0229835 0.1333219
vn -0.8784310 0.3055780 0.3673977
vn -0.7241151 0.3389207 0.6006581
vn -0.5135854 0.3454131 0.7854424
vn -0.2637627 0.3249183 0.9082166
vn 0.0059601 0.2792468 0.9602009
vn 0.2750126 0.2119837 0.9377798
vn 0.5229579 0.1282382 0.8426565
vn 0.7307845 0.0343206 0.6817449
vn 0.8821396 -0.0626430 0.4668035
vn 0.9644735 -0.1551481 0.2138224
vn -0.9162913 0.1532596 0.3700295
vn -0.7936488 0.0591746 0.6054915
vn -0.6091570 -0.0390878 0.7920858
vn -0.3778134 -0.1339271 0.9161444
vn -0.1176731 -0.2181506 0.9687948
vn 0.1513794 -0.2854138 0.9463737
vn 0.4089072 -0.3306073 0.8505844
vn 0.6352128 -0.3501803 0.6883883
vn 0.8126059 -0.3423891 0.4716369
vn 0.9266132 -0.3074665 0.2164541
vn -0.9555344 0.0216010 0.2940873
vn -0.8657223 -0.1826280 0.4660170
vn -0.7082195 -0.3714367 0.6003832
vn -0.4960299 -0.5305368 0.6873755
vn -0.2458221 -0.6480833 0.7208048
vn 0.0232304 -0.7153464 0.6983837
vn 0.2906907 -0.7272170 0.6218154
vn 0.5361504 -0.6825292 0.4966857
vn 0.7405324 -0.5841916 0.3321625
vn 0.8873700 -0.4391251 0.1405119
vn -0.9856453 -0.0541200 0.1599199
vn -0.9210236 -0.3216962 0.2196068
vn -0.7842290 -0.5625809 0.2617012
vn -0.5867361 -0.7586394 0.2832082
vn -0.3441495 -0.8953510 0.2826796
vn -0.0750969 -0.9626141 0.2602585
vn 0.1999844 -0.9553196 0.2176482
vn 0.4601409 -0.8736734 0.1580037
vn 0.6852312 -0.7232599 0.0857522
vn 0.8572591 -0.5148461 0.0063445
vn -0.9985557 -0.0536140 0.0034772
vn -0.9447346 -0.3207668 -0.0677138
vn -0.8168190 -0.5613036 -0.1332105
vn -0.6256275 -0.7571151 -0.1880611
vn -0.3863085 -0.8936986 -0.2281855
vn -0.1172559 -0.9609617 -0.2506066
vn 0.1610931 -0.9537952 -0.2536211
vn 0.4275509 -0.8723960 -0.2369080
vn 0.6615201 -0.7223305 -0.2015683
vn 0.8443488 -0.5143401 -0.1500981
vn -0.9908063 0.0229835 -0.1333219
vn -0.9305021 -0.1800889 -0.3189574
vn -0.7972569 -0.3679469 -0.4785358
vn -0.6022830 -0.5263722 -0.6001562
vn -0.3610026 -0.6435688 -0.6749047
vn -0.0919501 -0.7108319 -0.6973257
vn 0.1844375 -0.7230524 -0.6657162
vn 0.4471130 -0.6790393 -0.5822333
vn 0.6757526 -0.5816526 -0.4528119
vn 0.8520982 -0.4377426 -0.2868973
vn -0.9644735 0.1551481 -0.2138224
vn -0.8821396 0.0626430 -0.4668035
vn -0.7307845 -0.0343206 -0.6817449
vn -0.5229579 -0.1282382 -0.8426565
vn -0.2750126 -0.2119837 -0.9377798
vn -0.0059601 -0.2792468 -0.9602009
vn 0.2637627 -0.3249183 -0.9082166
vn 0.5135854 -0.3454131 -0.7854424
vn 0.7241151 -0.3389207 -0.6006581
vn 0.8784310 -0.3055780 -0.3673977
f 2//2 1//1 13//13
f 2//2 13//13 3//3
f 3//3 13//13 14//14
f 3//3 14//14 4//4
f 4//4 14//14 15//15
f 4//4 15//15 5//5
f 5//5 15//15 16//16
f 5//5 16//16 6//6
f 6//6 16//16 17//17
f 6//6 17//17 7//7
f 7//7 17//17 18//18
f 7//7 18//18 8//8
f 8//8 18//18 19//19
f 8//8 19//19 9//9
f 9//9 19//19 20//20
f 9//9 20//20 10//10
f 10//10 20//20 21//21
f 10//10 21//21 11//11
f 11//11 21//21 22//22
f 11//11 22//22 12//12
f 13//13 1//1 23//23
f 13//13 23//23 14//14
f 14//14 23//23 24//24
f 14//14 24//24 15//15
f 15//15 24//24 25//25
f 15//15 25//25 16//16
f 16//16 25//25 26//26
f 16//16 26//26 17//17
f 17//17 26//26 27//27
f 17//17 27//27 18//18
f 18//18 27//27 28//28
f 18//18 28//28 19//19
f 19//19 28//28 29//29
f 19//19 29//29 20//20
f 20//20 29//29 30//30
f 20//20 30//30 21//21
f 21//21 30//30 31//31
f 21//21 31//31 22//22
f 22//22 31//31 32//32
f 22//22 32//32 12//12
f 23//23 1//1 33//33
f 23//23 33//33 24//24
f 24//24 33//33 34//34
f 24//24 34//34 25//25
f 25//25 34//34 35//35
f 25//25 35//35 26//26
f 26//26 35//35 36//36
f 26//26 36//36 27//27
f 27//27 36//36 37//37
f 27//27 37//37 28//28
f 28//28 37//37 38//38
f 28//28 38//38 29//29
f 29//29 38//38 39//39
f 29//29 39//39 30//30
f 30//30 39//39 40//40
f 30//30 40//40 31//31
f 31//31 40//40 41//41
f 31//31 41//41 32//32
f 32//32 41//41 42//42
f 32//32 42//42 12//12
f 33//33 1//1 43//43
f 33//33 43//43 34//34
f 34//34 43//43 44//44
f 34//34 44//44 35//35
f 35//35 44//44 45//45
f 35//35 45//45 36//36
f 36//36 45//45 46//46
f 36//36 46//46 37//37
f 37//37 46//46 47//47
f 37//37 47//47 38//38
f 38//38 47//47 48//48
f 38//38 48//48 39//39
f 39//39 48//48 49//49
f 39//39 49//49 40//40
f 40//40 49//49 50//50
f 40//40 50//50 41//41
f 41//41 50//50 51//51
f 41//41 51//51 42//42
f 42//42 51//51 52//52
f 42//42 52//52 12//12
f 43//43 1//1 53//53
f 43//43 53//53 44//44
f 44//44 53//53 54//54
f 44//44 54//54 45//45
f 45//45 54//54 55//55
f 45//45 55//55 46//46
f 46//46 55//55 56//56
f 46//46 56//56 47//47
f 47//47 56//56 57//57
f 47//47 57//57 48//48
f 48//48 57//57 58//58
f 48//48 58//58 49//49
f 49//49 58//58 59//59
f 49//49 59//59 50//50
f 50//50 59//59 60//60
f 50//50 60//60 51//51
f 51//51 60//60 61//61
f 51//51 61//61 52//52
f 52//52 61//61 62//62
f 52//52 62//62 12//12
f 53//53 1//1 63//63
f 53//53 63//63 54//54
f 54//54 63//63 64//64
f 54//54 64//64 55//55
f 55//55 64//64 65//65
f 55//55 65//65 56//56
f 56//56 65//65 66//66
f 56//56 66//66 57//57
f 57//57 66//66 67//67
f 57//57 67//67 58//58
f 58//58 67//67 68//68
f 58//58 68//68 59//59
f 59//59 68//68 69//69
f 59//59 69//69 60//60
f 60//60 69//69 70//70
f 60//60 70//70 61//61
f 61//61 70//70 71//71
f 61//61 71//71 62//62
f 62//62 71//71 72//72
f 62//62 72//72 12//12
f 63//63 1//1 73//73
f 63//63 73//73 64//64
f 64//64 73//73 74//74
f 64//64 74//74 65//65
f 65//65 74//74 75//75
f 65//65 75//75 66//66
f 66//66 75//75 76//76
f 66//66 76//76 67//67
f 67//67 76//76 77//77
f 67//67 77//77 68//68
f 68//68 77//77 78//78
f 68//68 78//78 69//69
f 69//69 78//78 79//79
f 69//69 79//79 70//70
f 70//70 79//79 80//80
f 70//70 80//80 71//71
f 71//71 80//80 81//81
f 71//71 81//81 72//72
f 72//72 81//81 82//82
f 72//72 82//82 12//12
f 73//73 1//1 83//83
f 73//73 83//83 74//74
f 74//74 83//83 84//84
f 74//74 84//84 75//75
f 75//75 84//84 85//85
f 75//75 85//85 76//76
f 76//76 85//85 86//86
f 76//76 86//86 77//77
f 77//77 86//86 87//87
f 77//77 87//87 78//78
f 78//78 87//87 88//88
f 78//78 88//88 79//79
f 79//79 88//88 89//89
f 79//79 89//89 80//80
f 80//80 89//89 90//90
f 80//80 90//90 81//81
f 81//81 90//90 91//91
f 81//81 91//91 82//82
f 82//82 91//91 92//92
f 82//82 92//92 12//12
f 83//83 1//1 93//93
f 83//83 93//93 84//84
f 84//84 93//93 94//94
f 84//84 94//94 85//85
f 85//85 94//94 95//95
f 85//85 95//95 86//86
f 86//86 95//95 96//96
f 86//86 96//96 87//87
f 87//87 96//96 97//97
f 87//87 97//97 88//88
f 88//88 97//97 98//98
f 88//88 98//98 89//89
f 89//89 98//98 99//99
f 89//89 99//99 90//90
f 90//90 99//99 100//100
f 90//90 100//100 91//91
f 91//91 100//100 101//101
f 91//91 101//101 92//92
f 92//92 101//101 102//102
f 92//92 102//102 12//12
f 93//93 1//1 103//103
f 93//93 103//103 94//94
f 94//94 103//103 104//104
f 94//94 104//104 95//95
f 95//95 104//104 105//105
f 95//95 105//105 96//96
f 96//96 105//105 106//106
f 96//96 106//106 97//97
f 97//97 106//106 107//107
f 97//97 107//107 98//98
f 98//98 107//107 108//108
f 98//98 108//108 99//99
f 99//99 108//108 109//109
f 99//99 109//109 100//100
f 100//100 109//109 110//110
f 100//100 110//110 101//101
f 101//101 110//110 111//111
f 101//101 111//111 102//102
f 102//102 111//111 112//112
f 102//102 112//112 12//12
f 103//103 1//1 113//113
f 103//103 113//113 104//104
f 104//104 113//113 114//114
f 104//104 114//114 105//105
f 105//105 114//114 115//115
f 105//105 115//115 106//106
f 106//106 115//115 116//116
f 106//106 116//116 107//107
f 107//107 116//116 117//117
f 107//107 117//117 108//108
f 108//108 117//117 118//118
f 108//108 118//118 109//109
f 109//109 118//118 119//119
f 109//109 119//119 110//110
f 110//110 119//119 120//120
f 110//110 120//120 111//111
f 111//111 120//120 121//121
f 111//111 121//121 112//112
f 112//112 121//121 122//122
f 112//112 122//122 12//12
f 113//113 1//1 2//2
f 113//113 2//2 114//114
f 114//114 2//2 3//3
f 114//114 3//3 115//115
f 115//115 3//3 4//4
f 115//115 4//4 116//116
f 116//116 4//4 5//5
f 116//116 5//5 117//117
f 117//117 5//5 6//6
f 117//117 6//6 118//118
f 118//118 6//6 7//7
f 118//118 7//7 119//119
f 119//119 7//7 8//8
f 119//119 8//8 120//120
f 120//120 8//8 9//9
f 120//120 9//9 121//121
f 121//121 9//9 10//10
f 121//121 10//10 122//122
f 122//122 10//10 11//11
f 122//122 11//11 12//12

