# https://github.com/mikedh/trimesh
v -0.2131325 1.1358110 -0.0197359
v -0.2123961 1.1342886 -0.0178118
v -0.2122757 1.1324188 -0.0160649
v -0.2127811 1.1303530 -0.0146369
v -0.2138713 1.1282586 -0.0136434
v -0.2154581 1.1263053 -0.0131648
v -0.3474128 1.0146513 -0.0182400
v -0.3495771 1.0134307 -0.0188628
v -0.3517756 1.0127422 -0.0199828
v -0.3538303 1.0126418 -0.0215093
v -0.3555747 1.0131374 -0.0233186
v -0.3568675 1.0141890 -0.0252641
v -0.2131755 1.1351843 -0.0172524
v -0.2137714 1.1341376 -0.0149915
v -0.2148719 1.1327558 -0.0131364
v -0.2163879 1.1311506 -0.0118374
v -0.2181965 1.1294523 -0.0111996
v -0.3501512 1.0177983 -0.0162748
v -0.3520936 1.0163227 -0.0170568
v -0.3538665 1.0151450 -0.0184824
v -0.3553261 1.0143606 -0.0204359
v -0.3563542 1.0140331 -0.0227593
v -0.2140179 1.1361849 -0.0173614
v -0.2153880 1.1360577 -0.0152006
v -0.2171318 1.1354398 -0.0134287
v -0.2191079 1.1343812 -0.0121891
v -0.2211562 1.1329676 -0.0115824
v -0.3531109 1.0213136 -0.0166576
v -0.3548136 1.0195532 -0.0174086
v -0.3561263 1.0178290 -0.0187746
v -0.3569427 1.0162807 -0.0206450
v -0.3571966 1.0150337 -0.0228682
v -0.2146977 1.1370222 -0.0181094
v -0.2166924 1.1376645 -0.0166361
v -0.2189551 1.1376859 -0.0154354
v -0.2213025 1.1370846 -0.0146044
v -0.2235443 1.1359093 -0.0142106
v -0.3554990 1.0242554 -0.0192858
v -0.3570082 1.0222566 -0.0198239
v -0.3579497 1.0200751 -0.0207813
v -0.3582471 1.0178875 -0.0220806
v -0.3578763 1.0158710 -0.0236163
v -0.2150325 1.1374719 -0.0192962
v -0.2173350 1.1385274 -0.0189135
v -0.2198534 1.1388922 -0.0186188
v -0.2223837 1.1385365 -0.0184361
v -0.2247208 1.1374893 -0.0183800
v -0.3566755 1.0258353 -0.0234552
v -0.3580894 1.0237086 -0.0236555
v -0.3588480 1.0212814 -0.0239648
v -0.3588897 1.0187504 -0.0243579
v -0.3582112 1.0163207 -0.0248030
v -0.2149328 1.1374135 -0.0206036
v -0.2171437 1.1384154 -0.0214224
v -0.2195859 1.1387355 -0.0221260
v -0.2220617 1.1383479 -0.0226573
v -0.2243705 1.1372841 -0.0229734
v -0.3563252 1.0256301 -0.0280486
v -0.3577675 1.0235200 -0.0278768
v -0.3585805 1.0211247 -0.0274719
v -0.3586983 1.0186383 -0.0268668
v -0.3581115 1.0162623 -0.0261105
v -0.2144253 1.1368626 -0.0216814
v -0.2161697 1.1373582 -0.0234907
v -0.2182244 1.1372578 -0.0250172
v -0.2204229 1.1365693 -0.0261372
v -0.2225872 1.1353487 -0.0267600
v -0.3545419 1.0236947 -0.0318352
v -0.3561287 1.0217414 -0.0313566
v -0.3572189 1.0196470 -0.0303631
v -0.3577243 1.0175812 -0.0289351
v -0.3576039 1.0157114 -0.0271882
v -0.2136458 1.1359669 -0.0222407
v -0.2146739 1.1356394 -0.0245641
v -0.2161335 1.1348550 -0.0265176
v -0.2179064 1.1336773 -0.0279432
v -0.2198488 1.1322017 -0.0287252
v -0.3518035 1.0205477 -0.0338004
v -0.3536121 1.0188494 -0.0331626
v -0.3551281 1.0172442 -0.0318636
v -0.3562286 1.0158624 -0.0300085
v -0.3568245 1.0148157 -0.0277476
v -0.2128034 1.1349663 -0.0221318
v -0.2130573 1.1337193 -0.0243550
v -0.2138737 1.1321710 -0.0262254
v -0.2151864 1.1304468 -0.0275914
v -0.2168891 1.1286864 -0.0283424
v -0.3488438 1.0170324 -0.0334176
v -0.3508921 1.0156188 -0.0328109
v -0.3528682 1.0145602 -0.0315713
v -0.3546120 1.0139423 -0.0297994
v -0.3559821 1.0138151 -0.0276386
v -0.2121237 1.1341290 -0.0213837
v -0.2117529 1.1321125 -0.0229194
v -0.2120503 1.1299249 -0.0242187
v -0.2129918 1.1277434 -0.0251761
v -0.2145010 1.1257446 -0.0257142
v -0.3464557 1.0140907 -0.0307894
v -0.3486975 1.0129154 -0.0303956
v -0.3510449 1.0123141 -0.0295646
v -0.3533076 1.0123355 -0.0283639
v -0.3553023 1.0129778 -0.0268906
v -0.2117888 1.1336793 -0.0201970
v -0.2111103 1.1312496 -0.0206421
v -0.2111520 1.1287186 -0.0210352
v -0.2119106 1.1262914 -0.0213445
v -0.2133245 1.1241647 -0.0215448
v -0.3452792 1.0125107 -0.0266200
v -0.3476163 1.0114635 -0.0265639
v -0.3501466 1.0111078 -0.0263812
v -0.3526650 1.0114726 -0.0260865
v -0.3549675 1.0125281 -0.0257038
v -0.2118885 1.1337377 -0.0188895
v -0.2113017 1.1313617 -0.0181332
v -0.2114195 1.1288753 -0.0175281
v -0.2122325 1.1264800 -0.0171232
v -0.2136748 1.1243699 -0.0169514
v -0.3456295 1.0127159 -0.0220266
v -0.3479383 1.0116521 -0.0223427
v -0.3504141 1.0112645 -0.0228740
v -0.3528563 1.0115846 -0.0235776
v -0.3550672 1.0125865 -0.0243964
vn 0.7630575 0.6456640 0.0293484
vn 0.8484683 0.4613361 0.2593657
vn 0.8566113 0.2535592 0.4493604
vn 0.7972803 0.0268840 0.6030103
vn 0.6759389 -0.2010319 0.7090083
vn 0.5024030 -0.4128153 0.7597202
vn 0.2900916 -0.5924635 0.7515543
vn 0.0551315 -0.7263304 0.6851311
vn -0.1846618 -0.8039901 0.5652433
vn -0.4108968 -0.8189477 0.4006101
vn -0.6057820 -0.7691834 0.2034330
vn -0.7630575 -0.6456640 -0.0293484
vn 0.7552496 0.5684629 0.3262638
vn 0.6854070 0.4503069 0.5722246
vn 0.5619661 0.2973065 0.7718827
vn 0.3951259 0.1216778 0.9105328
vn 0.1979963 -0.0629917 0.9781766
vn -0.0143152 -0.2426399 0.9700108
vn -0.2256815 -0.4036207 0.8866556
vn -0.4199759 -0.5335675 0.7341157
vn -0.5821012 -0.6222001 0.5234743
vn -0.6990008 -0.6620567 0.2703311
vn 0.6544949 0.6881288 0.3132334
vn 0.5003623 0.6700839 0.5482930
vn 0.3076288 0.5993820 0.7389896
vn 0.0916116 0.4821607 0.8712797
vn -0.1310191 0.3277788 0.9356255
vn -0.3433306 0.1481306 0.9274597
vn -0.5291957 -0.0431378 0.8474025
vn -0.6743132 -0.2314920 0.7012226
vn -0.7671459 -0.4024231 0.4995427
vn -0.7997554 -0.5423907 0.2573007
vn 0.5732015 0.7882696 0.2237658
vn 0.3510598 0.8540011 0.3839780
vn 0.1024180 0.8521697 0.5131447
vn -0.1532774 0.7838257 0.6017668
vn -0.3964837 0.6547895 0.6434683
vn -0.6087951 0.4751413 0.6353024
vn -0.7740848 0.2585271 0.5778896
vn -0.8795241 0.0212956 0.4753777
vn -0.9164484 -0.2185058 0.3352277
vn -0.8810488 -0.4422500 0.1678331
vn 0.5331518 0.8420525 0.0818340
vn 0.2775050 0.9527781 0.1233078
vn 0.0013196 0.9879351 0.1548628
vn -0.2739235 0.9458418 0.1742100
vn -0.5272664 0.8304182 0.1799883
vn -0.7395779 0.6507700 0.1718224
vn -0.8947309 0.4205433 0.1503328
vn -0.9806224 0.1570611 0.1170958
vn -0.9900031 -0.1197288 0.0745575
vn -0.9210985 -0.3884670 0.0259013
vn 0.5450771 0.8350664 -0.0745316
vn 0.2994069 0.9399477 -0.1638714
vn 0.0314229 0.9703001 -0.2398546
vn -0.2379996 0.9247971 -0.2968274
vn -0.4883242 0.8076053 -0.3306255
vn -0.7006357 0.6279571 -0.3387913
vn -0.8588070 0.3994986 -0.3207046
vn -0.9505191 0.1394261 -0.2776216
vn -0.9681013 -0.1325592 -0.2126217
vn -0.9091732 -0.3954531 -0.1304644
vn 0.6057820 0.7691834 -0.2034330
vn 0.4108968 0.8189477 -0.4006101
vn 0.1846618 0.8039901 -0.5652433
vn -0.0551315 0.7263304 -0.6851311
vn -0.2900916 0.5924635 -0.7515543
vn -0.5024030 0.4128153 -0.7597202
vn -0.6759389 0.2010319 -0.7090083
vn -0.7972803 -0.0268840 -0.6030103
vn -0.8566113 -0.2535592 -0.4493604
vn -0.8484683 -0.4613361 -0.2593657
vn 0.6990008 0.6620567 -0.2703311
vn 0.5821012 0.6222001 -0.5234743
vn 0.4199759 0.5335675 -0.7341157
vn 0.2256815 0.4036207 -0.8866556
vn 0.0143152 0.2426399 -0.9700108
vn -0.1979963 0.0629917 -0.9781766
vn -0.3951259 -0.1216778 -0.9105328
vn -0.5619661 -0.2973065 -0.7718827
vn -0.6854070 -0.4503069 -0.5722246
vn -0.7552496 -0.5684629 -0.3262638
vn 0.7997554 0.5423907 -0.2573007
vn 0.7671459 0.4024231 -0.4995427
vn 0.6743132 0.2314920 -0.7012226
vn 0.5291957 0.0431378 -0.8474025
vn 0.3433306 -0.1481306 -0.9274597
vn 0.1310191 -0.3277788 -0.9356255
vn -0.0916116 -0.4821607 -0.8712797
vn -0.3076288 -0.5993820 -0.7389896
vn -0.5003623 -0.6700839 -0.5482930
vn -0.6544949 -0.6881288 -0.3132334
vn 0.8810488 0.4422500 -0.1678331
vn 0.9164484 0.2185058 -0.3352277
vn 0.8795241 -0.0212956 -0.4753777
vn 0.7740848 -0.2585271 -0.5778896
vn 0.6087951 -0.4751413 -0.6353024
vn 0.3964837 -0.6547895 -0.6434683
vn 0.1532774 -0.7838257 -0.6017668
vn -0.1024180 -0.8521697 -0.5131447
vn -0.3510598 -0.8540011 -0.3839780
vn -0.5732015 -0.7882696 -0.2237658
vn 0.9210985 0.3884670 -0.0259013
vn 0.9900031 0.1197288 -0.0745575
vn 0.9806224 -0.1570611 -0.1170958
vn 0.8947309 -0.4205433 -0.1503328
vn 0.7395779 -0.6507700 -0.1718224
vn 0.5272664 -0.8304182 -0.1799883
vn 0.2739235 -0.9458418 -0.1742100
vn -0.0013196 -0.9879351 -0.1548628
vn -0.2775050 -0.9527781 -0.1233078
vn -0.5331518 -0.8420525 -0.0818340
vn 0.9091732 0.3954531 0.1304644
vn 0.9681013 0.1325592 0.2126217
vn 0.9505191 -0.1394261 0.2776216
vn 0.8588070 -0.3994986 0.3207046
vn 0.7006357 -0.6279571 0.3387913
vn 0.4883242 -0.8076053 0.3306255
vn 0.2379996 -0.9247971 0.2968274
vn -0.0314229 -0.9703001 0.2398546
vn -0.2994069 -0.9399477 0.1638714
vn -0.5450771 -0.8350664 0.0745316
f 2//2 1//1 13//13
f 2//2 13//13 3//3
f 3//3 13//13 14//14
f 3//3 14//14 4//4
f 4//4 14//14 15//15
f 4//4 15//15 5//5
f 5//5 15//15 16//16
f 5//5 16//16 6//6
f 6//6 16//16 17//17
f 6//6 17//17 7//7
f 7//7 17//17 18//18
f 7//7 18//18 8//8
f 8//8 18//18 19//19
f 8//8 19//19 9//9
f 9//9 19//19 20//20
f 9//9 20//20 10//10
f 10//10 20//20 21//21
f 10//10 21//21 11//11
f 11//11 21//21 22//22
f 11//11 22//22 12//12
f 13//13 1//1 23//23
f 13//13 23//23 14//14
f 14//14 23//23 24//24
f 14//14 24//24 15//15
f 15//15 24//24 25//25
f 15//15 25//25 16//16
f 16//16 25//25 26//26
f 16//16 26//26 17//17
f 17//17 26//26 27//27
f 17//17 27//27 18//18
f 18//18 27//27 28//28
f 18//18 28//28 19//19
f 19//19 28//28 29//29
f 19//19 29//29 20//20
f 20//20 29//29 30//30
f 20//20 30//30 21//21
f 21//21 30//30 31//31
f 21//21 31//31 22//22
f 22//22 31//31 32//32
f 22//22 32//32 12//12
f 23//23 1//1 33//33
f 23//23 33//33 24//24
f 24//24 33//33 34//34
f 24//24 34//34 25//25
f 25//25 34//34 35//35
f 25//25 35//35 26//26
f 26//26 35//35 36//36
f 26//26 36//36 27//27
f 27//27 36//36 37//37
f 27//27 37//37 28//28
f 28//28 37//37 38//38
f 28//28 38//38 29//29
f 29//29 38//38 39//39
f 29//29 39//39 30//30
f 30//30 39//39 40//40
f 30//30 40//40 31//31
f 31//31 40//40 41//41
f 31//31 41//41 32//32
f 32//32 41//41 42//42
f 32//32 42//42 12//12
f 33//33 1//1 43//43
f 33//33 43//43 34//34
f 34//34 43//43 44//44
f 34//34 44//44 35//35
f 35//35 44//44 45//45
f 35//35 45//45 36//36
f 36//36 45//45 46//46
f 36//36 46//46 37//37
f 37//37 46//46 47//47
f 37//37 47//47 38//38
f 38//38 47//47 48//48
f 38//38 48//48 39//39
f 39//39 48//48 49//49
f 39//39 49//49 40//40
f 40//40 49//49 50//50
f 40//40 50//50 41//41
f 41//41 50//50 51//51
f 41//41 51//51 42//42
f 42//42 51//51 52//52
f 42//42 52//52 12//12
f 43//43 1//1 53//53
f 43//43 53//53 44//44
f 44//44 53//53 54//54
f 44//44 54//54 45//45
f 45//45 54//54 55//55
f 45//45 55//55 46//46
f 46//46 55//55 56//56
f 46//46 56//56 47//47
f 47//47 56//56 57//57
f 47//47 57//57 48//48
f 48//48 57//57 58//58
f 48//48 58//58 49//49
f 49//49 58//58 59//59
f 49//49 59//59 50//50
f 50//50 59//59 60//60
f 50//50 60//60 51//51
f 51//51 60//60 61//61
f 51//51 61//61 52//52
f 52//52 61//61 62//62
f 52//52 62//62 12//12
f 53//53 1//1 63//63
f 53//53 63//63 54//54
f 54//54 63//63 64//64
f 54//54 64//64 55//55
f 55//55 64//64 65//65
f 55//55 65//65 56//56
f 56//56 65//65 66//66
f 56//56 66//66 57//57
f 57//57 66//66 67//67
f 57//57 67//67 58//58
f 58//58 67//67 68//68
f 58//58 68//68 59//59
f 59//59 68//68 69//69
f 59//59 69//69 60//60
f 60//60 69//69 70//70
f 60//60 70//70 61//61
f 61//61 70//70 71//71
f 61//61 71//71 62//62
f 62//62 71//71 72//72
f 62//62 72//72 12//12
f 63//63 1//1 73//73
f 63//63 73//73 64//64
f 64//64 73//73 74//74
f 64//64 74//74 65//65
f 65//65 74//74 75//75
f 65//65 75//75 66//66
f 66//66 75//75 76//76
f 66//66 76//76 67//67
f 67//67 76//76 77//77
f 67//67 77//77 68//68
f 68//68 77//77 78//78
f 68//68 78//78 69//69
f 69//69 78//78 79//79
f 69//69 79//79 70//70
f 70//70 79//79 80//80
f 70//70 80//80 71//71
f 71//71 80//80 81//81
f 71//71 81//81 72//72
f 72//72 81//81 82//82
f 72//72 82//82 12//12
f 73//73 1//1 83//83
f 73//73 83//83 74//74
f 74//74 83//83 84//84
f 74//74 84//84 75//75
f 75//75 84//84 85//85
f 75//75 85//85 76//76
f 76//76 85//85 86//86
f 76//76 86//86 77//77
f 77//77 86//86 87//87
f 77//77 87//87 78//78
f 78//78 87//87 88//88
f 78//78 88//88 79//79
f 79//79 88//88 89//89
f 79//79 89//89 80//80
f 80//80 89//89 90//90
f 80//80 90//90 81//81
f 81//81 90//90 91//91
f 81//81 91//91 82//82
f 82//82 91//91 92//92
f 82//82 92//92 12//12
f 83//83 1//1 93//93
f 83//83 93//93 84//84
f 84//84 93//93 94//94
f 84//84 94//94 85//85
f 85//85 94//94 95//95
f 85//85 95//95 86//86
f 86//86 95//95 96//96
f 86//86 96//96 87//87
f 87//87 96//96 97//97
f 87//87 97//97 88//88
f 88//88 97//97 98//98
f 88//88 98//98 89//89
f 89//89 98//98 99//99
f 89//89 99//99 90//90
f 90//90 99//99 100//100
f 90//90 100//100 91//91
f 91//91 100//100 101//101
f 91//91 101//101 92//92
f 92//92 101//101 102//102
f 92//92 102//102 12//12
f 93//93 1//1 103//103
f 93//93 103//103 94//94
f 94//94 103//103 104//104
f 94//94 104//104 95//95
f 95//95 104//104 105//105
f 95//95 105//105 96//96
f 96//96 105//105 106//106
f 96//96 106//106 97//97
f 97//97 106//106 107//107
f 97//97 107//107 98//98
f 98//98 107//107 108//108
f 98//98 108//108 99//99
f 99//99 108//108 109//109
f 99//99 109//109 100//100
f 100//100 109//109 110//110
f 100//100 110//110 101//101
f 101//101 110//110 111//111
f 101//101 111//111 102//102
f 102//102 111//111 112//112
f 102//102 112//112 12//12
f 103//103 1//1 113//113
f 103//103 113//113 104//104
f 104//104 113//113 114//114
f 104//104 114//114 105//105
f 105//105 114//114 115//115
f 105//105 115//115 106//106
f 106//106 115//115 116//116
f 106//106 116//116 107//107
f 107//107 116//116 117//117
f 107//107 117//117 108//108
f 108//108 117//117 118//118
f 108//108 118//118 109//109
f 109//109 118//118 119//119
f 109//109 119//119 110//110
f 110//110 119//119 120//120
f 110//110 120//120 111//111
f 111//111 120//120 121//121
f 111//111 121//121 112//112
f 112//112 121//121 122//122
f 112//112 122//122 12//12
f 113//113 1//1 2//2
f 113//113 2//2 114//114
f 114//114 2//2 3//3
f 114//114 3//3 115//115
f 115//115 3//3 4//4
f 115//115 4//4 116//116
f 116//116 4//4 5//5
f 116//116 5//5 117//117
f 117//117 5//5 6//6
f 117//117 6//6 118//118
f 118//118 6//6 7//7
f 118//118 7//7 119//119
f 119//119 7//7 8//8
f 119//119 8//8 120//120
f 120//120 8//8 9//9
f 120//120 9//9 121//121
f 121//121 9//9 10//10
f 121//121 10//10 122//122
f 122//122 10//10 11//11
f 122//122 11//11 12//12

