# https://github.com/mikedh/trimesh
v -0.0615513 1.4893795 0.1015870
v -0.0602722 1.4893712 0.1012623
v -0.0589603 1.4894389 0.1013883
v -0.0577737 1.4895741 0.1019500
v -0.0568557 1.4897608 0.1028796
v -0.0313169 1.4999763 0.1590649
v -0.0312224 1.5001947 0.1603630
v -0.0315835 1.5003896 0.1616173
v -0.0323567 1.5005375 0.1626765
v -0.0334487 1.5006205 0.1634130
v -0.0605255 1.4901332 0.1012389
v -0.0594362 1.4908708 0.1013443
v -0.0584150 1.4915034 0.1018907
v -0.0575849 1.4919547 0.1028121
v -0.0320461 1.5021702 0.1589975
v -0.0318636 1.5021239 0.1603037
v -0.0320594 1.5018215 0.1615733
v -0.0326099 1.5012994 0.1626531
v -0.0611348 1.4906215 0.1014271
v -0.0605815 1.4917885 0.1016980
v -0.0599579 1.4927399 0.1023673
v -0.0593395 1.4933607 0.1033540
v -0.0338007 1.5035762 0.1595393
v -0.0334066 1.5033604 0.1607802
v -0.0332047 1.5027393 0.1619270
v -0.0332193 1.5017877 0.1628413
v -0.0618676 1.4906497 0.1017550
v -0.0619585 1.4918416 0.1023143
v -0.0618132 1.4928113 0.1031976
v -0.0614493 1.4934420 0.1042983
v -0.0359105 1.5036575 0.1604836
v -0.0352619 1.5034318 0.1616105
v -0.0345817 1.5027923 0.1625433
v -0.0339520 1.5018159 0.1631692
v -0.0624438 1.4902070 0.1020974
v -0.0630414 1.4910096 0.1029578
v -0.0632722 1.4916904 0.1040646
v -0.0631084 1.4921673 0.1052841
v -0.0375696 1.5023828 0.1614694
v -0.0367209 1.5023109 0.1624775
v -0.0356646 1.5019603 0.1631868
v -0.0345282 1.5013732 0.1635116
v -0.0626433 1.4894625 0.1023235
v -0.0634165 1.4896104 0.1033827
v -0.0637776 1.4898053 0.1046370
v -0.0636831 1.4900237 0.1059351
v -0.0381443 1.5002392 0.1621204
v -0.0372263 1.5004259 0.1630500
v -0.0360397 1.5005611 0.1636117
v -0.0347278 1.5006288 0.1637377
v -0.0623901 1.4887006 0.1023469
v -0.0629406 1.4881785 0.1034267
v -0.0631364 1.4878761 0.1046963
v -0.0629539 1.4878298 0.1060025
v -0.0374151 1.4980453 0.1621879
v -0.0365850 1.4984966 0.1631093
v -0.0355638 1.4991292 0.1636557
v -0.0344745 1.4998668 0.1637611
v -0.0617807 1.4882123 0.1021587
v -0.0617953 1.4872607 0.1030730
v -0.0615934 1.4866396 0.1042198
v -0.0611993 1.4864238 0.1054607
v -0.0356605 1.4966393 0.1616460
v -0.0350421 1.4972601 0.1626327
v -0.0344185 1.4982115 0.1633020
v -0.0338652 1.4993785 0.1635729
v -0.0610480 1.4881841 0.1018308
v -0.0604183 1.4872077 0.1024567
v -0.0597381 1.4865682 0.1033895
v -0.0590895 1.4863425 0.1045164
v -0.0335507 1.4965580 0.1607017
v -0.0331868 1.4971887 0.1618024
v -0.0330415 1.4981584 0.1626857
v -0.0331324 1.4993503 0.1632450
v -0.0604718 1.4886268 0.1014884
v -0.0593354 1.4880397 0.1018132
v -0.0582791 1.4876891 0.1025225
v -0.0574304 1.4876172 0.1035306
v -0.0318916 1.4978327 0.1597159
v -0.0317278 1.4983096 0.1609354
v -0.0319586 1.4989904 0.1620422
v -0.0325562 1.4997930 0.1629026
vn -0.4082483 -0.1632993 -0.8981462
vn -0.0397310 -0.1646485 -0.9855518
vn 0.2980934 -0.1456267 -0.9433627
vn 0.5990808 -0.1100165 -0.7930943
vn 0.8306017 -0.0620690 -0.5533971
vn 0.9678348 -0.0071757 -0.2514841
vn 0.9956585 0.0486147 0.0793768
vn 0.9099451 0.0991140 0.4027111
vn 0.7182038 0.1385254 0.6819047
vn 0.4082483 0.1632993 0.8981462
vn -0.1121967 0.0533667 -0.9922519
vn 0.1690662 0.2425550 -0.9552925
vn 0.4287512 0.4024247 -0.8088429
vn 0.6385158 0.5158266 -0.5711572
vn 0.7757489 0.5707198 -0.2692443
vn 0.8253290 0.5610558 0.0636282
vn 0.7809180 0.4872957 0.3907814
vn 0.6457380 0.3565406 0.6752046
vn -0.2865598 0.1930965 -0.9384014
vn -0.1413918 0.4913476 -0.8594102
vn 0.0189136 0.7308574 -0.6822681
vn 0.1763293 0.8862102 -0.4284150
vn 0.3135625 0.9411035 -0.1265020
vn 0.4154914 0.8894885 0.1902030
vn 0.4704600 0.7360883 0.4866636
vn 0.4713750 0.4962704 0.7290551
vn -0.4962194 0.2011690 -0.8445693
vn -0.5146962 0.5057208 -0.6923397
vn -0.4738879 0.7498316 -0.4617173
vn -0.3794181 0.9076080 -0.1796930
vn -0.2421849 0.9625013 0.1222200
vn -0.0773102 0.9084627 0.4107538
vn 0.0971555 0.7504615 0.6537341
vn 0.2617153 0.5043429 0.8228872
vn -0.6610928 0.0745007 -0.7465963
vn -0.8082575 0.2801846 -0.5178962
vn -0.8614200 0.4520997 -0.2314333
vn -0.8164499 0.5718467 0.0800053
vn -0.6792168 0.6267400 0.3819183
vn -0.4648423 0.6107309 0.6410378
vn -0.1964057 0.5249253 0.8281777
vn 0.0968420 0.3776746 0.9208602
vn -0.7182038 -0.1385254 -0.6819047
vn -0.9099451 -0.0991140 -0.4027111
vn -0.9956585 -0.0486147 -0.0793768
vn -0.9678348 0.0071757 0.2514841
vn -0.8306017 0.0620690 0.5533971
vn -0.5990808 0.1100165 0.7930943
vn -0.2980934 0.1456267 0.9433627
vn 0.0397310 0.1646485 0.9855518
vn -0.6457380 -0.3565406 -0.6752046
vn -0.7809180 -0.4872957 -0.3907814
vn -0.8253290 -0.5610558 -0.0636282
vn -0.7757489 -0.5707198 0.2692443
vn -0.6385158 -0.5158266 0.5711572
vn -0.4287512 -0.4024247 0.8088429
vn -0.1690662 -0.2425550 0.9552925
vn 0.1121967 -0.0533667 0.9922519
vn -0.4713750 -0.4962704 -0.7290551
vn -0.4704600 -0.7360883 -0.4866636
vn -0.4154914 -0.8894885 -0.1902030
vn -0.3135625 -0.9411035 0.1265020
vn -0.1763293 -0.8862102 0.4284150
vn -0.0189136 -0.7308574 0.6822681
vn 0.1413918 -0.4913476 0.8594102
vn 0.2865598 -0.1930965 0.9384014
vn -0.2617153 -0.5043429 -0.8228872
vn -0.0971555 -0.7504615 -0.6537341
vn 0.0773102 -0.9084627 -0.4107538
vn 0.2421849 -0.9625013 -0.1222200
vn 0.3794181 -0.9076080 0.1796930
vn 0.4738879 -0.7498316 0.4617173
vn 0.5146962 -0.5057208 0.6923397
vn 0.4962194 -0.2011690 0.8445693
vn -0.0968420 -0.3776746 -0.9208602
vn 0.1964057 -0.5249253 -0.8281777
vn 0.4648423 -0.6107309 -0.6410378
vn 0.6792168 -0.6267400 -0.3819183
vn 0.8164499 -0.5718467 -0.0800053
vn 0.8614200 -0.4520997 0.2314333
vn 0.8082575 -0.2801846 0.5178962
vn 0.6610928 -0.0745007 0.7465963
f 2//2 1//1 11//11
f 2//2 11//11 3//3
f 3//3 11//11 12//12
f 3//3 12//12 4//4
f 4//4 12//12 13//13
f 4//4 13//13 5//5
f 5//5 13//13 14//14
f 5//5 14//14 6//6
f 6//6 14//14 15//15
f 6//6 15//15 7//7
f 7//7 15//15 16//16
f 7//7 16//16 8//8
f 8//8 16//16 17//17
f 8//8 17//17 9//9
f 9//9 17//17 18//18
f 9//9 18//18 10//10
f 11//11 1//1 19//19
f 11//11 19//19 12//12
f 12//12 19//19 20//20
f 12//12 20//20 13//13
f 13//13 20//20 21//21
f 13//13 21//21 14//14
f 14//14 21//21 22//22
f 14//14 22//22 15//15
f 15//15 22//22 23//23
f 15//15 23//23 16//16
f 16//16 23//23 24//24
f 16//16 24//24 17//17
f 17//17 24//24 25//25
f 17//17 25//25 18//18
f 18//18 25//25 26//26
f 18//18 26//26 10//10
f 19//19 1//1 27//27
f 19//19 27//27 20//20
f 20//20 27//27 28//28
f 20//20 28//28 21//21
f 21//21 28//28 29//29
f 21//21 29//29 22//22
f 22//22 29//29 30//30
f 22//22 30//30 23//23
f 23//23 30//30 31//31
f 23//23 31//31 24//24
f 24//24 31//31 32//32
f 24//24 32//32 25//25
f 25//25 32//32 33//33
f 25//25 33//33 26//26
f 26//26 33//33 34//34
f 26//26 34//34 10//10
f 27//27 1//1 35//35
f 27//27 35//35 28//28
f 28//28 35//35 36//36
f 28//28 36//36 29//29
f 29//29 36//36 37//37
f 29//29 37//37 30//30
f 30//30 37//37 38//38
f 30//30 38//38 31//31
f 31//31 38//38 39//39
f 31//31 39//39 32//32
f 32//32 39//39 40//40
f 32//32 40//40 33//33
f 33//33 40//40 41//41
f 33//33 41//41 34//34
f 34//34 41//41 42//42
f 34//34 42//42 10//10
f 35//35 1//1 43//43
f 35//35 43//43 36//36
f 36//36 43//43 44//44
f 36//36 44//44 37//37
f 37//37 44//44 45//45
f 37//37 45//45 38//38
f 38//38 45//45 46//46
f 38//38 46//46 39//39
f 39//39 46//46 47//47
f 39//39 47//47 40//40
f 40//40 47//47 48//48
f 40//40 48//48 41//41
f 41//41 48//48 49//49
f 41//41 49//49 42//42
f 42//42 49//49 50//50
f 42//42 50//50 10//10
f 43//43 1//1 51//51
f 43//43 51//51 44//44
f 44//44 51//51 52//52
f 44//44 52//52 45//45
f 45//45 52//52 53//53
f 45//45 53//53 46//46
f 46//46 53//53 54//54
f 46//46 54//54 47//47
f 47//47 54//54 55//55
f 47//47 55//55 48//48
f 48//48 55//55 56//56
f 48//48 56//56 49//49
f 49//49 56//56 57//57
f 49//49 57//57 50//50
f 50//50 57//57 58//58
f 50//50 58//58 10//10
f 51//51 1//1 59//59
f 51//51 59//59 52//52
f 52//52 59//59 60//60
f 52//52 60//60 53//53
f 53//53 60//60 61//61
f 53//53 61//61 54//54
f 54//54 61//61 62//62
f 54//54 62//62 55//55
f 55//55 62//62 63//63
f 55//55 63//63 56//56
f 56//56 63//63 64//64
f 56//56 64//64 57//57
f 57//57 64//64 65//65
f 57//57 65//65 58//58
f 58//58 65//65 66//66
f 58//58 66//66 10//10
f 59//59 1//1 67//67
f 59//59 67//67 60//60
f 60//60 67//67 68//68
f 60//60 68//68 61//61
f 61//61 68//68 69//69
f 61//61 69//69 62//62
f 62//62 69//69 70//70
f 62//62 70//70 63//63
f 63//63 70//70 71//71
f 63//63 71//71 64//64
f 64//64 71//71 72//72
f 64//64 72//72 65//65
f 65//65 72//72 73//73
f 65//65 73//73 66//66
f 66//66 73//73 74//74
f 66//66 74//74 10//10
f 67//67 1//1 75//75
f 67//67 75//75 68//68
f 68//68 75//75 76//76
f 68//68 76//76 69//69
f 69//69 76//76 77//77
f 69//69 77//77 70//70
f 70//70 77//77 78//78
f 70//70 78//78 71//71
f 71//71 78//78 79//79
f 71//71 79//79 72//72
f 72//72 79//79 80//80
f 72//72 80//80 73//73
f 73//73 80//80 81//81
f 73//73 81//81 74//74
f 74//74 81//81 82//82
f 74//74 82//82 10//10
f 75//75 1//1 2//2
f 75//75 2//2 76//76
f 76//76 2//2 3//3
f 76//76 3//3 77//77
f 77//77 3//3 4//4
f 77//77 4//4 78//78
f 78//78 4//4 5//5
f 78//78 5//5 79//79
f 79//79 5//5 6//6
f 79//79 6//6 80//80
f 80//80 6//6 7//7
f 80//80 7//7 81//81
f 81//81 7//7 8//8
f 81//81 8//8 82//82
f 82//82 8//8 9//9
f 82//82 9//9 10//10

