# https://github.com/mikedh/trimesh
v 0.1185835 -0.4610537 -0.0498229
v 0.1239637 -0.4614195 -0.0502292
v 0.1290229 -0.4632905 -0.0506169
v 0.1333510 -0.4665152 -0.0509546
v 0.1365976 -0.4708324 -0.0512150
v 0.1384995 -0.4758923 -0.0513769
v 0.2189027 -1.5512850 -0.0614273
v 0.2177745 -1.5565736 -0.0613621
v 0.2152063 -1.5613296 -0.0611865
v 0.2114062 -1.5651678 -0.0609148
v 0.2066821 -1.5677771 -0.0605690
v 0.2014165 -1.5689463 -0.0601771
v 0.1234514 -0.4614832 -0.0475068
v 0.1280398 -0.4634128 -0.0453927
v 0.1319768 -0.4666862 -0.0436518
v 0.1349436 -0.4710383 -0.0424253
v 0.1366997 -0.4761163 -0.0418124
v 0.2171029 -1.5515090 -0.0518628
v 0.2161205 -1.5567794 -0.0525724
v 0.2138321 -1.5615006 -0.0538838
v 0.2104232 -1.5652901 -0.0556906
v 0.2061698 -1.5678409 -0.0578466
v 0.1216502 -0.4616375 -0.0454070
v 0.1245832 -0.4637089 -0.0413631
v 0.1271449 -0.4671001 -0.0380190
v 0.1291278 -0.4715364 -0.0356455
v 0.1303712 -0.4766584 -0.0344349
v 0.2107744 -1.5520511 -0.0444853
v 0.2103047 -1.5572776 -0.0457926
v 0.2090002 -1.5619145 -0.0482509
v 0.2069665 -1.5655862 -0.0516611
v 0.2043685 -1.5679952 -0.0557468
v 0.1190425 -0.4618410 -0.0444923
v 0.1195792 -0.4640995 -0.0396079
v 0.1201499 -0.4676461 -0.0355654
v 0.1207085 -0.4721935 -0.0326923
v 0.1212097 -0.4773734 -0.0312214
v 0.2016129 -1.5527661 -0.0412718
v 0.2018854 -1.5579347 -0.0428394
v 0.2020052 -1.5624604 -0.0457973
v 0.2019625 -1.5659767 -0.0499058
v 0.2017609 -1.5681987 -0.0548321
v 0.1163273 -0.4620392 -0.0450079
v 0.1143686 -0.4644798 -0.0405973
v 0.1128662 -0.4681777 -0.0369485
v 0.1119417 -0.4728334 -0.0343570
v 0.1116701 -0.4780697 -0.0330328
v 0.1920733 -1.5534624 -0.0430832
v 0.1931187 -1.5585746 -0.0445041
v 0.1947215 -1.5629921 -0.0471804
v 0.1967520 -1.5663571 -0.0508952
v 0.1990456 -1.5683969 -0.0553477
v 0.1142319 -0.4621790 -0.0468156
v 0.1103477 -0.4647480 -0.0440662
v 0.1072454 -0.4685526 -0.0417976
v 0.1051765 -0.4732847 -0.0401935
v 0.1043084 -0.4785608 -0.0393838
v 0.1847116 -1.5539534 -0.0494342
v 0.1863534 -1.5590258 -0.0503406
v 0.1891007 -1.5633670 -0.0520295
v 0.1927311 -1.5666253 -0.0543642
v 0.1969503 -1.5685366 -0.0571554
v 0.1133179 -0.4622229 -0.0494310
v 0.1085938 -0.4648322 -0.0490852
v 0.1047937 -0.4686704 -0.0488135
v 0.1022255 -0.4734264 -0.0486379
v 0.1010973 -0.4787150 -0.0485727
v 0.1815005 -1.5541077 -0.0586231
v 0.1834024 -1.5591676 -0.0587850
v 0.1866490 -1.5634848 -0.0590454
v 0.1909771 -1.5667095 -0.0593831
v 0.1960363 -1.5685805 -0.0597708
v 0.1138302 -0.4621591 -0.0521534
v 0.1095768 -0.4647099 -0.0543094
v 0.1061679 -0.4684994 -0.0561162
v 0.1038795 -0.4732206 -0.0574276
v 0.1028971 -0.4784910 -0.0581372
v 0.1833003 -1.5538837 -0.0681876
v 0.1850564 -1.5589617 -0.0675747
v 0.1880232 -1.5633138 -0.0663482
v 0.1919602 -1.5665872 -0.0646073
v 0.1965486 -1.5685168 -0.0624932
v 0.1156315 -0.4620048 -0.0542532
v 0.1130335 -0.4644138 -0.0583389
v 0.1109998 -0.4680855 -0.0617491
v 0.1096953 -0.4727224 -0.0642074
v 0.1092256 -0.4779489 -0.0655147
v 0.1896288 -1.5533416 -0.0755651
v 0.1908722 -1.5584636 -0.0743545
v 0.1928551 -1.5628999 -0.0719810
v 0.1954168 -1.5662911 -0.0686369
v 0.1983498 -1.5683625 -0.0645930
v 0.1182391 -0.4618013 -0.0551679
v 0.1180375 -0.4640233 -0.0600942
v 0.1179948 -0.4675396 -0.0642027
v 0.1181146 -0.4720653 -0.0671606
v 0.1183871 -0.4772339 -0.0687282
v 0.1987903 -1.5526266 -0.0787786
v 0.1992915 -1.5578065 -0.0773077
v 0.1998501 -1.5623539 -0.0744346
v 0.2004208 -1.5659005 -0.0703921
v 0.2009575 -1.5681590 -0.0655077
v 0.1209544 -0.4616031 -0.0546523
v 0.1232480 -0.4636429 -0.0591048
v 0.1252785 -0.4670079 -0.0628196
v 0.1268813 -0.4714254 -0.0654959
v 0.1279267 -0.4765376 -0.0669168
v 0.2083299 -1.5519303 -0.0769672
v 0.2080583 -1.5571666 -0.0756430
v 0.2071338 -1.5618223 -0.0730515
v 0.2056314 -1.5655202 -0.0694027
v 0.2036727 -1.5679608 -0.0649921
v 0.1230497 -0.4614634 -0.0528446
v 0.1272689 -0.4633747 -0.0556358
v 0.1308993 -0.4666330 -0.0579705
v 0.1336466 -0.4709742 -0.0596594
v 0.1352884 -0.4760466 -0.0605658
v 0.2156916 -1.5514392 -0.0706162
v 0.2148235 -1.5567153 -0.0698065
v 0.2127546 -1.5614474 -0.0682024
v 0.2096523 -1.5652520 -0.0659338
v 0.2057681 -1.5678210 -0.0631844
vn -0.0745550 0.9971734 0.0093194
vn 0.2305072 0.9729738 -0.0137285
vn 0.4919042 0.8699936 -0.0337833
vn 0.7132426 0.6990538 -0.0510762
vn 0.8780682 0.4741936 -0.0643166
vn 0.9743475 0.2130396 -0.0725335
vn 0.9950915 -0.0644118 -0.0751265
vn 0.9387246 -0.3370855 -0.0718987
vn 0.8091839 -0.5841607 -0.0630688
vn 0.6157469 -0.7864025 -0.0492636
vn 0.3725956 -0.9274594 -0.0314896
vn 0.0745550 -0.9971734 -0.0093194
vn 0.2014856 0.9693626 0.1404984
vn 0.4386035 0.8633613 0.2494679
vn 0.6399826 0.6899379 0.3382424
vn 0.7906432 0.4633151 0.4002780
vn 0.8795770 0.2012471 0.4310961
vn 0.9003211 -0.0762043 0.4285031
vn 0.8512996 -0.3479640 0.3926959
vn 0.7359239 -0.5932766 0.3262497
vn 0.5624462 -0.7930348 0.2339876
vn 0.3435740 -0.9310706 0.1227373
vn 0.0994398 0.9606212 0.2594584
vn 0.2511875 0.8473070 0.4679483
vn 0.3823861 0.6678719 0.6385358
vn 0.4832395 0.4369825 0.7586342
vn 0.5463455 0.1727021 0.8195612
vn 0.5670895 -0.1047493 0.8169682
vn 0.5438959 -0.3742966 0.7510521
vn 0.4783274 -0.6153426 0.6265431
vn 0.3750302 -0.8090891 0.4524680
vn 0.2415283 -0.9398120 0.2416973
vn -0.0482870 0.9490919 0.3112762
vn -0.0201258 0.8261325 0.5631163
vn 0.0094759 0.6387683 0.7693408
vn 0.0382258 0.4022516 0.9147308
vn 0.0639419 0.1350531 0.9887730
vn 0.0846859 -0.1423983 0.9861800
vn 0.0988822 -0.4090275 0.9071487
vn 0.1054172 -0.6444463 0.7573482
vn 0.1037169 -0.8302636 0.5476360
vn 0.0938014 -0.9513412 0.2935152
vn -0.2021116 0.9378640 0.2820674
vn -0.3026381 0.8055115 0.5094718
vn -0.3788271 0.6104254 0.6956083
vn -0.4251569 0.3684285 0.8267418
vn -0.4383741 0.0983882 0.8933913
vn -0.4176300 -0.1790632 0.8907983
vn -0.3645005 -0.4428506 0.8191598
vn -0.2828858 -0.6727892 0.6836156
vn -0.1787954 -0.8508846 0.4939914
vn -0.0600232 -0.9625692 0.2643063
vn -0.3208168 0.9299459 0.1796584
vn -0.5206506 0.7909692 0.3213886
vn -0.6784774 0.5904376 0.4370948
vn -0.7827456 0.3445761 0.5182439
vn -0.8260072 0.0725317 0.5589734
vn -0.8052631 -0.2049197 0.5563804
vn -0.7220892 -0.4667030 0.5106618
vn -0.5825361 -0.6927769 0.4251021
vn -0.3968079 -0.8654269 0.3059083
vn -0.1787284 -0.9704872 0.1618973
vn -0.3725956 0.9274594 0.0314896
vn -0.6157469 0.7864025 0.0492636
vn -0.8091839 0.5841607 0.0630688
vn -0.9387246 0.3370855 0.0718987
vn -0.9950915 0.0644118 0.0751265
vn -0.9743475 -0.2130396 0.0725335
vn -0.8780682 -0.4741936 0.0643166
vn -0.7132426 -0.6990538 0.0510762
vn -0.4919042 -0.8699936 0.0337833
vn -0.2305072 -0.9729738 0.0137285
vn -0.3435740 0.9310706 -0.1227373
vn -0.5624462 0.7930348 -0.2339876
vn -0.7359239 0.5932766 -0.3262497
vn -0.8512996 0.3479640 -0.3926959
vn -0.9003211 0.0762043 -0.4285031
vn -0.8795770 -0.2012471 -0.4310961
vn -0.7906432 -0.4633151 -0.4002780
vn -0.6399826 -0.6899379 -0.3382424
vn -0.4386035 -0.8633613 -0.2494679
vn -0.2014856 -0.9693626 -0.1404984
vn -0.2415283 0.9398120 -0.2416973
vn -0.3750302 0.8090891 -0.4524680
vn -0.4783274 0.6153426 -0.6265431
vn -0.5438959 0.3742966 -0.7510521
vn -0.5670895 0.1047493 -0.8169682
vn -0.5463455 -0.1727021 -0.8195612
vn -0.4832395 -0.4369825 -0.7586342
vn -0.3823861 -0.6678719 -0.6385358
vn -0.2511875 -0.8473070 -0.4679483
vn -0.0994398 -0.9606212 -0.2594584
vn -0.0938014 0.9513412 -0.2935152
vn -0.1037169 0.8302636 -0.5476360
vn -0.1054172 0.6444463 -0.7573482
vn -0.0988822 0.4090275 -0.9071487
vn -0.0846859 0.1423983 -0.9861800
vn -0.0639419 -0.1350531 -0.9887730
vn -0.0382258 -0.4022516 -0.9147308
vn -0.0094759 -0.6387683 -0.7693408
vn 0.0201258 -0.8261325 -0.5631163
vn 0.0482870 -0.9490919 -0.3112762
vn 0.0600232 0.9625692 -0.2643063
vn 0.1787954 0.8508846 -0.4939914
vn 0.2828858 0.6727892 -0.6836156
vn 0.3645005 0.4428506 -0.8191598
vn 0.4176300 0.1790632 -0.8907983
vn 0.4383741 -0.0983882 -0.8933913
vn 0.4251569 -0.3684285 -0.8267418
vn 0.3788271 -0.6104254 -0.6956083
vn 0.3026381 -0.8055115 -0.5094718
vn 0.2021116 -0.9378640 -0.2820674
vn 0.1787284 0.9704872 -0.1618973
vn 0.3968079 0.8654269 -0.3059083
vn 0.5825361 0.6927769 -0.4251021
vn 0.7220892 0.4667030 -0.5106618
vn 0.8052631 0.2049197 -0.5563804
vn 0.8260072 -0.0725317 -0.5589734
vn 0.7827456 -0.3445761 -0.5182439
vn 0.6784774 -0.5904376 -0.4370948
vn 0.5206506 -0.7909692 -0.3213886
vn 0.3208168 -0.9299459 -0.1796584
f 2//2 1//1 13//13
f 2//2 13//13 3//3
f 3//3 13//13 14//14
f 3//3 14//14 4//4
f 4//4 14//14 15//15
f 4//4 15//15 5//5
f 5//5 15//15 16//16
f 5//5 16//16 6//6
f 6//6 16//16 17//17
f 6//6 17//17 7//7
f 7//7 17//17 18//18
f 7//7 18//18 8//8
f 8//8 18//18 19//19
f 8//8 19//19 9//9
f 9//9 19//19 20//20
f 9//9 20//20 10//10
f 10//10 20//20 21//21
f 10//10 21//21 11//11
f 11//11 21//21 22//22
f 11//11 22//22 12//12
f 13//13 1//1 23//23
f 13//13 23//23 14//14
f 14//14 23//23 24//24
f 14//14 24//24 15//15
f 15//15 24//24 25//25
f 15//15 25//25 16//16
f 16//16 25//25 26//26
f 16//16 26//26 17//17
f 17//17 26//26 27//27
f 17//17 27//27 18//18
f 18//18 27//27 28//28
f 18//18 28//28 19//19
f 19//19 28//28 29//29
f 19//19 29//29 20//20
f 20//20 29//29 30//30
f 20//20 30//30 21//21
f 21//21 30//30 31//31
f 21//21 31//31 22//22
f 22//22 31//31 32//32
f 22//22 32//32 12//12
f 23//23 1//1 33//33
f 23//23 33//33 24//24
f 24//24 33//33 34//34
f 24//24 34//34 25//25
f 25//25 34//34 35//35
f 25//25 35//35 26//26
f 26//26 35//35 36//36
f 26//26 36//36 27//27
f 27//27 36//36 37//37
f 27//27 37//37 28//28
f 28//28 37//37 38//38
f 28//28 38//38 29//29
f 29//29 38//38 39//39
f 29//29 39//39 30//30
f 30//30 39//39 40//40
f 30//30 40//40 31//31
f 31//31 40//40 41//41
f 31//31 41//41 32//32
f 32//32 41//41 42//42
f 32//32 42//42 12//12
f 33//33 1//1 43//43
f 33//33 43//43 34//34
f 34//34 43//43 44//44
f 34//34 44//44 35//35
f 35//35 44//44 45//45
f 35//35 45//45 36//36
f 36//36 45//45 46//46
f 36//36 46//46 37//37
f 37//37 46//46 47//47
f 37//37 47//47 38//38
f 38//38 47//47 48//48
f 38//38 48//48 39//39
f 39//39 48//48 49//49
f 39//39 49//49 40//40
f 40//40 49//49 50//50
f 40//40 50//50 41//41
f 41//41 50//50 51//51
f 41//41 51//51 42//42
f 42//42 51//51 52//52
f 42//42 52//52 12//12
f 43//43 1//1 53//53
f 43//43 53//53 44//44
f 44//44 53//53 54//54
f 44//44 54//54 45//45
f 45//45 54//54 55//55
f 45//45 55//55 46//46
f 46//46 55//55 56//56
f 46//46 56//56 47//47
f 47//47 56//56 57//57
f 47//47 57//57 48//48
f 48//48 57//57 58//58
f 48//48 58//58 49//49
f 49//49 58//58 59//59
f 49//49 59//59 50//50
f 50//50 59//59 60//60
f 50//50 60//60 51//51
f 51//51 60//60 61//61
f 51//51 61//61 52//52
f 52//52 61//61 62//62
f 52//52 62//62 12//12
f 53//53 1//1 63//63
f 53//53 63//63 54//54
f 54//54 63//63 64//64
f 54//54 64//64 55//55
f 55//55 64//64 65//65
f 55//55 65//65 56//56
f 56//56 65//65 66//66
f 56//56 66//66 57//57
f 57//57 66//66 67//67
f 57//57 67//67 58//58
f 58//58 67//67 68//68
f 58//58 68//68 59//59
f 59//59 68//68 69//69
f 59//59 69//69 60//60
f 60//60 69//69 70//70
f 60//60 70//70 61//61
f 61//61 70//70 71//71
f 61//61 71//71 62//62
f 62//62 71//71 72//72
f 62//62 72//72 12//12
f 63//63 1//1 73//73
f 63//63 73//73 64//64
f 64//64 73//73 74//74
f 64//64 74//74 65//65
f 65//65 74//74 75//75
f 65//65 75//75 66//66
f 66//66 75//75 76//76
f 66//66 76//76 67//67
f 67//67 76//76 77//77
f 67//67 77//77 68//68
f 68//68 77//77 78//78
f 68//68 78//78 69//69
f 69//69 78//78 79//79
f 69//69 79//79 70//70
f 70//70 79//79 80//80
f 70//70 80//80 71//71
f 71//71 80//80 81//81
f 71//71 81//81 72//72
f 72//72 81//81 82//82
f 72//72 82//82 12//12
f 73//73 1//1 83//83
f 73//73 83//83 74//74
f 74//74 83//83 84//84
f 74//74 84//84 75//75
f 75//75 84//84 85//85
f 75//75 85//85 76//76
f 76//76 85//85 86//86
f 76//76 86//86 77//77
f 77//77 86//86 87//87
f 77//77 87//87 78//78
f 78//78 87//87 88//88
f 78//78 88//88 79//79
f 79//79 88//88 89//89
f 79//79 89//89 80//80
f 80//80 89//89 90//90
f 80//80 90//90 81//81
f 81//81 90//90 91//91
f 81//81 91//91 82//82
f 82//82 91//91 92//92
f 82//82 92//92 12//12
f 83//83 1//1 93//93
f 83//83 93//93 84//84
f 84//84 93//93 94//94
f 84//84 94//94 85//85
f 85//85 94//94 95//95
f 85//85 95//95 86//86
f 86//86 95//95 96//96
f 86//86 96//96 87//87
f 87//87 96//96 97//97
f 87//87 97//97 88//88
f 88//88 97//97 98//98
f 88//88 98//98 89//89
f 89//89 98//98 99//99
f 89//89 99//99 90//90
f 90//90 99//99 100//100
f 90//90 100//100 91//91
f 91//91 100//100 101//101
f 91//91 101//101 92//92
f 92//92 101//101 102//102
f 92//92 102//102 12//12
f 93//93 1//1 103//103
f 93//93 103//103 94//94
f 94//94 103//103 104//104
f 94//94 104//104 95//95
f 95//95 104//104 105//105
f 95//95 105//105 96//96
f 96//96 105//105 106//106
f 96//96 106//106 97//97
f 97//97 106//106 107//107
f 97//97 107//107 98//98
f 98//98 107//107 108//108
f 98//98 108//108 99//99
f 99//99 108//108 109//109
f 99//99 109//109 100//100
f 100//100 109//109 110//110
f 100//100 110//110 101//101
f 101//101 110//110 111//111
f 101//101 111//111 102//102
f 102//102 111//111 112//112
f 102//102 112//112 12//12
f 103//103 1//1 113//113
f 103//103 113//113 104//104
f 104//104 113//113 114//114
f 104//104 114//114 105//105
f 105//105 114//114 115//115
f 105//105 115//115 106//106
f 106//106 115//115 116//116
f 106//106 116//116 107//107
f 107//107 116//116 117//117
f 107//107 117//117 108//108
f 108//108 117//117 118//118
f 108//108 118//118 109//109
f 109//109 118//118 119//119
f 109//109 119//119 110//110
f 110//110 119//119 120//120
f 110//110 120//120 111//111
f 111//111 120//120 121//121
f 111//111 121//121 112//112
f 112//112 121//121 122//122
f 112//112 122//122 12//12
f 113//113 1//1 2//2
f 113//113 2//2 114//114
f 114//114 2//2 3//3
f 114//114 3//3 115//115
f 115//115 3//3 4//4
f 115//115 4//4 116//116
f 116//116 4//4 5//5
f 116//116 5//5 117//117
f 117//117 5//5 6//6
f 117//117 6//6 118//118
f 118//118 6//6 7//7
f 118//118 7//7 119//119
f 119//119 7//7 8//8
f 119//119 8//8 120//120
f 120//120 8//8 9//9
f 120//120 9//9 121//121
f 121//121 9//9 10//10
f 121//121 10//10 122//122
f 122//122 10//10 11//11
f 122//122 11//11 12//12

