# https://github.com/mikedh/trimesh
v 0.1898000 -1.4680017 -0.0400000
v 0.1931880 -1.4684314 -0.0400563
v 0.1963177 -1.4697983 -0.0401081
v 0.1989355 -1.4719917 -0.0401511
v 0.2008295 -1.4748338 -0.0401819
v 0.2018461 -1.4780945 -0.0401979
v 0.2119030 -2.0815096 -0.0401979
v 0.2109956 -2.0848024 -0.0401819
v 0.2091974 -2.0877061 -0.0401511
v 0.2066541 -2.0899855 -0.0401081
v 0.2035717 -2.0914560 -0.0400563
v 0.2002000 -2.0919983 -0.0400000
v 0.1927633 -1.4684384 -0.0383586
v 0.1955028 -1.4698118 -0.0368502
v 0.1977964 -1.4720106 -0.0355970
v 0.1994584 -1.4748567 -0.0347005
v 0.2003542 -1.4781194 -0.0342333
v 0.2104111 -2.0815345 -0.0342333
v 0.2096246 -2.0848253 -0.0347005
v 0.2080583 -2.0877251 -0.0355970
v 0.2058392 -2.0899991 -0.0368502
v 0.2031471 -2.0914631 -0.0383586
v 0.1915468 -1.4684587 -0.0371007
v 0.1931683 -1.4698508 -0.0344363
v 0.1945331 -1.4720650 -0.0322227
v 0.1955307 -1.4749221 -0.0306391
v 0.1960802 -1.4781906 -0.0298139
v 0.2061371 -2.0816057 -0.0298139
v 0.2056969 -2.0848907 -0.0306391
v 0.2047951 -2.0877795 -0.0322227
v 0.2035048 -2.0900380 -0.0344363
v 0.2019306 -2.0914833 -0.0371007
v 0.1898645 -1.4684867 -0.0366197
v 0.1899399 -1.4699046 -0.0335132
v 0.1900202 -1.4721402 -0.0309323
v 0.1900988 -1.4750127 -0.0290859
v 0.1901695 -1.4782892 -0.0281238
v 0.2002264 -2.0817042 -0.0281238
v 0.2002649 -2.0849813 -0.0290859
v 0.2002821 -2.0878547 -0.0309323
v 0.2002763 -2.0900918 -0.0335132
v 0.2002482 -2.0915114 -0.0366197
v 0.1881670 -1.4685150 -0.0370444
v 0.1866824 -1.4699588 -0.0343282
v 0.1854667 -1.4722161 -0.0320715
v 0.1846182 -1.4751040 -0.0304572
v 0.1842057 -1.4783886 -0.0296159
v 0.1942626 -2.0818036 -0.0296159
v 0.1947843 -2.0850726 -0.0304572
v 0.1957286 -2.0879306 -0.0320715
v 0.1970189 -2.0901461 -0.0343282
v 0.1985507 -2.0915397 -0.0370444
v 0.1869093 -1.4685360 -0.0382610
v 0.1842689 -1.4699991 -0.0366630
v 0.1820928 -1.4722724 -0.0353353
v 0.1805573 -1.4751717 -0.0343854
v 0.1797868 -1.4784622 -0.0338905
v 0.1898437 -2.0818773 -0.0338905
v 0.1907235 -2.0851403 -0.0343854
v 0.1923547 -2.0879868 -0.0353353
v 0.1946053 -2.0901864 -0.0366630
v 0.1972930 -2.0915606 -0.0382610
v 0.1864283 -1.4685440 -0.0399437
v 0.1833459 -1.4700145 -0.0398919
v 0.1808026 -1.4722939 -0.0398489
v 0.1790044 -1.4751976 -0.0398181
v 0.1780970 -1.4784904 -0.0398021
v 0.1881539 -2.0819055 -0.0398021
v 0.1891705 -2.0851662 -0.0398181
v 0.1910645 -2.0880083 -0.0398489
v 0.1936823 -2.0902017 -0.0398919
v 0.1968120 -2.0915686 -0.0399437
v 0.1868529 -1.4685369 -0.0416414
v 0.1841608 -1.4700009 -0.0431498
v 0.1819417 -1.4722749 -0.0444030
v 0.1803754 -1.4751747 -0.0452995
v 0.1795889 -1.4784655 -0.0457667
v 0.1896458 -2.0818806 -0.0457667
v 0.1905416 -2.0851433 -0.0452995
v 0.1922036 -2.0879894 -0.0444030
v 0.1944972 -2.0901882 -0.0431498
v 0.1972367 -2.0915616 -0.0416414
v 0.1880694 -1.4685167 -0.0428993
v 0.1864952 -1.4699620 -0.0455637
v 0.1852049 -1.4722205 -0.0477773
v 0.1843031 -1.4751093 -0.0493609
v 0.1838629 -1.4783943 -0.0501861
v 0.1939198 -2.0818094 -0.0501861
v 0.1944693 -2.0850779 -0.0493609
v 0.1954669 -2.0879350 -0.0477773
v 0.1968317 -2.0901492 -0.0455637
v 0.1984532 -2.0915413 -0.0428993
v 0.1897518 -1.4684886 -0.0433803
v 0.1897237 -1.4699082 -0.0464868
v 0.1897179 -1.4721453 -0.0490677
v 0.1897351 -1.4750187 -0.0509141
v 0.1897736 -1.4782958 -0.0518762
v 0.1998305 -2.0817108 -0.0518762
v 0.1999012 -2.0849873 -0.0509141
v 0.1999798 -2.0878598 -0.0490677
v 0.2000601 -2.0900954 -0.0464868
v 0.2001355 -2.0915133 -0.0433803
v 0.1914493 -1.4684603 -0.0429556
v 0.1929811 -1.4698539 -0.0456718
v 0.1942714 -1.4720694 -0.0479285
v 0.1952157 -1.4749274 -0.0495428
v 0.1957374 -1.4781964 -0.0503841
v 0.2057943 -2.0816114 -0.0503841
v 0.2053818 -2.0848960 -0.0495428
v 0.2045333 -2.0877839 -0.0479285
v 0.2033176 -2.0900412 -0.0456718
v 0.2018330 -2.0914850 -0.0429556
v 0.1927070 -1.4684394 -0.0417390
v 0.1953947 -1.4698136 -0.0433370
v 0.1976453 -1.4720132 -0.0446647
v 0.1992765 -1.4748597 -0.0456146
v 0.2001563 -1.4781227 -0.0461095
v 0.2102132 -2.0815378 -0.0461095
v 0.2094427 -2.0848283 -0.0456146
v 0.2079072 -2.0877276 -0.0446647
v 0.2057311 -2.0900009 -0.0433370
v 0.2030907 -2.0914640 -0.0417390
vn -0.0166644 0.9998611 0.0000000
vn 0.2872890 0.9578306 -0.0050535
vn 0.5429553 0.8397103 -0.0092812
vn 0.7545735 0.6560916 -0.0127567
vn 0.9064894 0.4219541 -0.0152233
vn 0.9876824 0.1555996 -0.0165023
vn 0.9923190 -0.1225996 -0.0165023
vn 0.9200472 -0.3915118 -0.0152233
vn 0.7760180 -0.6305817 -0.0127567
vn 0.5706363 -0.8211504 -0.0092812
vn 0.3190483 -0.9477250 -0.0050535
vn 0.0166644 -0.9998611 -0.0000000
vn 0.2491985 0.9571958 0.1472289
vn 0.4729988 0.8385444 0.2703988
vn 0.6584207 0.6544890 0.3716534
vn 0.7917452 0.4200416 0.4435138
vn 0.8632974 0.1535265 0.4807777
vn 0.8679341 -0.1246727 0.4807777
vn 0.8053030 -0.3934242 0.4435138
vn 0.6798653 -0.6321843 0.3716534
vn 0.5006798 -0.8223164 0.2703988
vn 0.2809578 -0.9483598 0.1472289
vn 0.1400806 0.9553771 0.2600615
vn 0.2725941 0.8352043 0.4776257
vn 0.3829717 0.6498982 0.6564792
vn 0.4630372 0.4145632 0.7834117
vn 0.5069714 0.1475878 0.8492337
vn 0.5116081 -0.1306115 0.8492337
vn 0.4765949 -0.3989026 0.7834117
vn 0.4044162 -0.6367751 0.6564792
vn 0.3002751 -0.8256565 0.4776257
vn 0.1718398 -0.9501785 0.2600615
vn -0.0108268 0.9528620 0.3032108
vn -0.0045606 0.8305850 0.5568731
vn 0.0020327 0.6435492 0.7654020
vn 0.0084423 0.4069866 0.9133951
vn 0.0141817 0.1393746 0.9901382
vn 0.0188183 -0.1388246 0.9901382
vn 0.0220000 -0.4064792 0.9133951
vn 0.0234772 -0.6431241 0.7654020
vn 0.0231204 -0.8302757 0.5568731
vn 0.0209324 -0.9526936 0.3032108
vn -0.1630881 0.9503243 0.2651150
vn -0.2842018 0.8259244 0.4869069
vn -0.3823240 0.6371433 0.6692359
vn -0.4502311 0.3993420 0.7986350
vn -0.4830292 0.1310878 0.8657360
vn -0.4783926 -0.1471115 0.8657360
vn -0.4366734 -0.4141238 0.7986350
vn -0.3608795 -0.6495300 0.6692359
vn -0.2565207 -0.8349364 0.4869069
vn -0.1313288 -0.9552313 0.2651150
vn -0.2759050 0.9484440 0.1559819
vn -0.4913999 0.8224711 0.2864743
vn -0.6671104 0.6323969 0.3937486
vn -0.7900818 0.3936779 0.4698813
vn -0.8514341 0.1249477 0.5093605
vn -0.8467974 -0.1532515 0.5093605
vn -0.7765241 -0.4197880 0.4698813
vn -0.6456658 -0.6542765 0.3937486
vn -0.4637188 -0.8383897 0.2864743
vn -0.2441457 -0.9571115 0.1559819
vn -0.3190483 0.9477250 0.0050535
vn -0.5706363 0.8211504 0.0092812
vn -0.7760180 0.6305817 0.0127567
vn -0.9200472 0.3915118 0.0152233
vn -0.9923190 0.1225996 0.0165023
vn -0.9876824 -0.1555996 0.0165023
vn -0.9064894 -0.4219541 0.0152233
vn -0.7545735 -0.6560916 0.0127567
vn -0.5429553 -0.8397103 0.0092812
vn -0.2872890 -0.9578306 0.0050535
vn -0.2809578 0.9483598 -0.1472289
vn -0.5006798 0.8223164 -0.2703988
vn -0.6798653 0.6321843 -0.3716534
vn -0.8053030 0.3934242 -0.4435138
vn -0.8679341 0.1246727 -0.4807777
vn -0.8632974 -0.1535265 -0.4807777
vn -0.7917452 -0.4200416 -0.4435138
vn -0.6584207 -0.6544890 -0.3716534
vn -0.4729988 -0.8385444 -0.2703988
vn -0.2491985 -0.9571958 -0.1472289
vn -0.1718398 0.9501785 -0.2600615
vn -0.3002751 0.8256565 -0.4776257
vn -0.4044162 0.6367751 -0.6564792
vn -0.4765949 0.3989026 -0.7834117
vn -0.5116081 0.1306115 -0.8492337
vn -0.5069714 -0.1475878 -0.8492337
vn -0.4630372 -0.4145632 -0.7834117
vn -0.3829717 -0.6498982 -0.6564792
vn -0.2725941 -0.8352043 -0.4776257
vn -0.1400806 -0.9553771 -0.2600615
vn -0.0209324 0.9526936 -0.3032108
vn -0.0231204 0.8302757 -0.5568731
vn -0.0234772 0.6431241 -0.7654020
vn -0.0220000 0.4064792 -0.9133951
vn -0.0188183 0.1388246 -0.9901382
vn -0.0141817 -0.1393746 -0.9901382
vn -0.0084423 -0.4069866 -0.9133951
vn -0.0020327 -0.6435492 -0.7654020
vn 0.0045606 -0.8305850 -0.5568731
vn 0.0108268 -0.9528620 -0.3032108
vn 0.1313288 0.9552313 -0.2651150
vn 0.2565207 0.8349364 -0.4869069
vn 0.3608795 0.6495300 -0.6692359
vn 0.4366734 0.4141238 -0.7986350
vn 0.4783926 0.1471115 -0.8657360
vn 0.4830292 -0.1310878 -0.8657360
vn 0.4502311 -0.3993420 -0.7986350
vn 0.3823240 -0.6371433 -0.6692359
vn 0.2842018 -0.8259244 -0.4869069
vn 0.1630881 -0.9503243 -0.2651150
vn 0.2441457 0.9571115 -0.1559819
vn 0.4637188 0.8383897 -0.2864743
vn 0.6456658 0.6542765 -0.3937486
vn 0.7765241 0.4197880 -0.4698813
vn 0.8467974 0.1532515 -0.5093605
vn 0.8514341 -0.1249477 -0.5093605
vn 0.7900818 -0.3936779 -0.4698813
vn 0.6671104 -0.6323969 -0.3937486
vn 0.4913999 -0.8224711 -0.2864743
vn 0.2759050 -0.9484440 -0.1559819
f 2//2 1//1 13//13
f 2//2 13//13 3//3
f 3//3 13//13 14//14
f 3//3 14//14 4//4
f 4//4 14//14 15//15
f 4//4 15//15 5//5
f 5//5 15//15 16//16
f 5//5 16//16 6//6
f 6//6 16//16 17//17
f 6//6 17//17 7//7
f 7//7 17//17 18//18
f 7//7 18//18 8//8
f 8//8 18//18 19//19
f 8//8 19//19 9//9
f 9//9 19//19 20//20
f 9//9 20//20 10//10
f 10//10 20//20 21//21
f 10//10 21//21 11//11
f 11//11 21//21 22//22
f 11//11 22//22 12//12
f 13//13 1//1 23//23
f 13//13 23//23 14//14
f 14//14 23//23 24//24
f 14//14 24//24 15//15
f 15//15 24//24 25//25
f 15//15 25//25 16//16
f 16//16 25//25 26//26
f 16//16 26//26 17//17
f 17//17 26//26 27//27
f 17//17 27//27 18//18
f 18//18 27//27 28//28
f 18//18 28//28 19//19
f 19//19 28//28 29//29
f 19//19 29//29 20//20
f 20//20 29//29 30//30
f 20//20 30//30 21//21
f 21//21 30//30 31//31
f 21//21 31//31 22//22
f 22//22 31//31 32//32
f 22//22 32//32 12//12
f 23//23 1//1 33//33
f 23//23 33//33 24//24
f 24//24 33//33 34//34
f 24//24 34//34 25//25
f 25//25 34//34 35//35
f 25//25 35//35 26//26
f 26//26 35//35 36//36
f 26//26 36//36 27//27
f 27//27 36//36 37//37
f 27//27 37//37 28//28
f 28//28 37//37 38//38
f 28//28 38//38 29//29
f 29//29 38//38 39//39
f 29//29 39//39 30//30
f 30//30 39//39 40//40
f 30//30 40//40 31//31
f 31//31 40//40 41//41
f 31//31 41//41 32//32
f 32//32 41//41 42//42
f 32//32 42//42 12//12
f 33//33 1//1 43//43
f 33//33 43//43 34//34
f 34//34 43//43 44//44
f 34//34 44//44 35//35
f 35//35 44//44 45//45
f 35//35 45//45 36//36
f 36//36 45//45 46//46
f 36//36 46//46 37//37
f 37//37 46//46 47//47
f 37//37 47//47 38//38
f 38//38 47//47 48//48
f 38//38 48//48 39//39
f 39//39 48//48 49//49
f 39//39 49//49 40//40
f 40//40 49//49 50//50
f 40//40 50//50 41//41
f 41//41 50//50 51//51
f 41//41 51//51 42//42
f 42//42 51//51 52//52
f 42//42 52//52 12//12
f 43//43 1//1 53//53
f 43//43 53//53 44//44
f 44//44 53//53 54//54
f 44//44 54//54 45//45
f 45//45 54//54 55//55
f 45//45 55//55 46//46
f 46//46 55//55 56//56
f 46//46 56//56 47//47
f 47//47 56//56 57//57
f 47//47 57//57 48//48
f 48//48 57//57 58//58
f 48//48 58//58 49//49
f 49//49 58//58 59//59
f 49//49 59//59 50//50
f 50//50 59//59 60//60
f 50//50 60//60 51//51
f 51//51 60//60 61//61
f 51//51 61//61 52//52
f 52//52 61//61 62//62
f 52//52 62//62 12//12
f 53//53 1//1 63//63
f 53//53 63//63 54//54
f 54//54 63//63 64//64
f 54//54 64//64 55//55
f 55//55 64//64 65//65
f 55//55 65//65 56//56
f 56//56 65//65 66//66
f 56//56 66//66 57//57
f 57//57 66//66 67//67
f 57//57 67//67 58//58
f 58//58 67//67 68//68
f 58//58 68//68 59//59
f 59//59 68//68 69//69
f 59//59 69//69 60//60
f 60//60 69//69 70//70
f 60//60 70//70 61//61
f 61//61 70//70 71//71
f 61//61 71//71 62//62
f 62//62 71//71 72//72
f 62//62 72//72 12//12
f 63//63 1//1 73//73
f 63//63 73//73 64//64
f 64//64 73//73 74//74
f 64//64 74//74 65//65
f 65//65 74//74 75//75
f 65//65 75//75 66//66
f 66//66 75//75 76//76
f 66//66 76//76 67//67
f 67//67 76//76 77//77
f 67//67 77//77 68//68
f 68//68 77//77 78//78
f 68//68 78//78 69//69
f 69//69 78//78 79//79
f 69//69 79//79 70//70
f 70//70 79//79 80//80
f 70//70 80//80 71//71
f 71//71 80//80 81//81
f 71//71 81//81 72//72
f 72//72 81//81 82//82
f 72//72 82//82 12//12
f 73//73 1//1 83//83
f 73//73 83//83 74//74
f 74//74 83//83 84//84
f 74//74 84//84 75//75
f 75//75 84//84 85//85
f 75//75 85//85 76//76
f 76//76 85//85 86//86
f 76//76 86//86 77//77
f 77//77 86//86 87//87
f 77//77 87//87 78//78
f 78//78 87//87 88//88
f 78//78 88//88 79//79
f 79//79 88//88 89//89
f 79//79 89//89 80//80
f 80//80 89//89 90//90
f 80//80 90//90 81//81
f 81//81 90//90 91//91
f 81//81 91//91 82//82
f 82//82 91//91 92//92
f 82//82 92//92 12//12
f 83//83 1//1 93//93
f 83//83 93//93 84//84
f 84//84 93//93 94//94
f 84//84 94//94 85//85
f 85//85 94//94 95//95
f 85//85 95//95 86//86
f 86//86 95//95 96//96
f 86//86 96//96 87//87
f 87//87 96//96 97//97
f 87//87 97//97 88//88
f 88//88 97//97 98//98
f 88//88 98//98 89//89
f 89//89 98//98 99//99
f 89//89 99//99 90//90
f 90//90 99//99 100//100
f 90//90 100//100 91//91
f 91//91 100//100 101//101
f 91//91 101//101 92//92
f 92//92 101//101 102//102
f 92//92 102//102 12//12
f 93//93 1//1 103//103
f 93//93 103//103 94//94
f 94//94 103//103 104//104
f 94//94 104//104 95//95
f 95//95 104//104 105//105
f 95//95 105//105 96//96
f 96//96 105//105 106//106
f 96//96 106//106 97//97
f 97//97 106//106 107//107
f 97//97 107//107 98//98
f 98//98 107//107 108//108
f 98//98 108//108 99//99
f 99//99 108//108 109//109
f 99//99 109//109 100//100
f 100//100 109//109 110//110
f 100//100 110//110 101//101
f 101//101 110//110 111//111
f 101//101 111//111 102//102
f 102//102 111//111 112//112
f 102//102 112//112 12//12
f 103//103 1//1 113//113
f 103//103 113//113 104//104
f 104//104 113//113 114//114
f 104//104 114//114 105//105
f 105//105 114//114 115//115
f 105//105 115//115 106//106
f 106//106 115//115 116//116
f 106//106 116//116 107//107
f 107//107 116//116 117//117
f 107//107 117//117 108//108
f 108//108 117//117 118//118
f 108//108 118//118 109//109
f 109//109 118//118 119//119
f 109//109 119//119 110//110
f 110//110 119//119 120//120
f 110//110 120//120 111//111
f 111//111 120//120 121//121
f 111//111 121//121 112//112
f 112//112 121//121 122//122
f 112//112 122//122 12//12
f 113//113 1//1 2//2
f 113//113 2//2 114//114
f 114//114 2//2 3//3
f 114//114 3//3 115//115
f 115//115 3//3 4//4
f 115//115 4//4 116//116
f 116//116 4//4 5//5
f 116//116 5//5 117//117
f 117//117 5//5 6//6
f 117//117 6//6 118//118
f 118//118 6//6 7//7
f 118//118 7//7 119//119
f 119//119 7//7 8//8
f 119//119 8//8 120//120
f 120//120 8//8 9//9
f 120//120 9//9 121//121
f 121//121 9//9 10//10
f 121//121 10//10 122//122
f 122//122 10//10 11//11
f 122//122 11//11 12//12

