# https://github.com/mikedh/trimesh
v -0.1988865 0.9864024 -0.0498608
v -0.1971553 0.9858273 -0.0495528
v -0.1956545 0.9847801 -0.0492809
v -0.1945058 0.9833457 -0.0490674
v -0.1938021 0.9816402 -0.0489293
v -0.1936006 0.9798018 -0.0488781
v -0.2739176 0.5179795 -0.0589177
v -0.2747272 0.5163209 -0.0590450
v -0.2759641 0.5149603 -0.0592496
v -0.2775279 0.5140080 -0.0595151
v -0.2792920 0.5135412 -0.0598198
v -0.2811135 0.5135976 -0.0601392
v -0.1975512 0.9858775 -0.0486929
v -0.1964142 0.9848764 -0.0476309
v -0.1955677 0.9834802 -0.0467608
v -0.1950803 0.9818021 -0.0461531
v -0.1949914 0.9799780 -0.0458571
v -0.2753083 0.5181557 -0.0558967
v -0.2760054 0.5164828 -0.0562688
v -0.2770260 0.5150948 -0.0569431
v -0.2782876 0.5141043 -0.0578651
v -0.2796879 0.5135913 -0.0589600
v -0.1983169 0.9859988 -0.0481475
v -0.1978836 0.9851092 -0.0465843
v -0.1976218 0.9838057 -0.0452977
v -0.1975527 0.9821938 -0.0443922
v -0.1976818 0.9804043 -0.0439409
v -0.2779987 0.5185819 -0.0539805
v -0.2784778 0.5168745 -0.0545078
v -0.2790802 0.5154203 -0.0554800
v -0.2797571 0.5143371 -0.0568184
v -0.2804536 0.5137127 -0.0584146
v -0.1992474 0.9861588 -0.0480627
v -0.1996692 0.9854162 -0.0464215
v -0.2001178 0.9842348 -0.0450702
v -0.2005569 0.9827103 -0.0441183
v -0.2009509 0.9809663 -0.0436430
v -0.2812678 0.5191440 -0.0536826
v -0.2814820 0.5173910 -0.0542340
v -0.2815762 0.5158494 -0.0552525
v -0.2815426 0.5146441 -0.0566557
v -0.2813841 0.5138726 -0.0583298
v -0.2000933 0.9863145 -0.0484612
v -0.2012924 0.9857151 -0.0471862
v -0.2023869 0.9846527 -0.0461392
v -0.2032880 0.9832133 -0.0454050
v -0.2039227 0.9815136 -0.0450430
v -0.2842396 0.5196913 -0.0550827
v -0.2842131 0.5178940 -0.0555206
v -0.2838452 0.5162673 -0.0563215
v -0.2831658 0.5149430 -0.0574204
v -0.2822300 0.5140284 -0.0587283
v -0.2006279 0.9864244 -0.0492362
v -0.2023184 0.9859259 -0.0486735
v -0.2038210 0.9849473 -0.0482183
v -0.2050141 0.9835679 -0.0479074
v -0.2058010 0.9818995 -0.0477660
v -0.2861179 0.5200771 -0.0578057
v -0.2859392 0.5182486 -0.0580230
v -0.2852793 0.5165619 -0.0584006
v -0.2841918 0.5151538 -0.0589077
v -0.2827646 0.5141382 -0.0595033
v -0.2007080 0.9864588 -0.0501802
v -0.2024721 0.9859920 -0.0504849
v -0.2040359 0.9850397 -0.0507504
v -0.2052728 0.9836791 -0.0509550
v -0.2060824 0.9820205 -0.0510823
v -0.2863994 0.5201982 -0.0611219
v -0.2861979 0.5183598 -0.0610707
v -0.2854942 0.5166543 -0.0609326
v -0.2843455 0.5152199 -0.0607191
v -0.2828447 0.5141727 -0.0604472
v -0.2003121 0.9864087 -0.0510400
v -0.2017124 0.9858957 -0.0521349
v -0.2029740 0.9849052 -0.0530569
v -0.2039946 0.9835172 -0.0537312
v -0.2046917 0.9818443 -0.0541033
v -0.2850086 0.5200220 -0.0641429
v -0.2849197 0.5181979 -0.0638469
v -0.2844323 0.5165198 -0.0632392
v -0.2835858 0.5151236 -0.0623691
v -0.2824488 0.5141225 -0.0613071
v -0.1995464 0.9862873 -0.0515854
v -0.2002429 0.9856629 -0.0531816
v -0.2009198 0.9845797 -0.0545200
v -0.2015222 0.9831255 -0.0554922
v -0.2020013 0.9814181 -0.0560195
v -0.2823182 0.5195957 -0.0660591
v -0.2824473 0.5178062 -0.0656078
v -0.2823782 0.5161943 -0.0647023
v -0.2821164 0.5148908 -0.0634157
v -0.2816831 0.5140012 -0.0618525
v -0.1986159 0.9861274 -0.0516702
v -0.1984574 0.9853559 -0.0533443
v -0.1984238 0.9841506 -0.0547475
v -0.1985180 0.9826090 -0.0557660
v -0.1987322 0.9808560 -0.0563174
v -0.2790491 0.5190337 -0.0663570
v -0.2794431 0.5172897 -0.0658817
v -0.2798822 0.5157652 -0.0649298
v -0.2803308 0.5145838 -0.0635785
v -0.2807526 0.5138412 -0.0619373
v -0.1977700 0.9859716 -0.0512717
v -0.1968342 0.9850570 -0.0525796
v -0.1961548 0.9837327 -0.0536785
v -0.1957869 0.9821060 -0.0544794
v -0.1957604 0.9803087 -0.0549173
v -0.2760773 0.5184864 -0.0649570
v -0.2767120 0.5167867 -0.0645950
v -0.2776131 0.5153473 -0.0638608
v -0.2787076 0.5142849 -0.0628138
v -0.2799067 0.5136855 -0.0615388
v -0.1972354 0.9858618 -0.0504967
v -0.1958082 0.9848462 -0.0510923
v -0.1947207 0.9834381 -0.0515994
v -0.1940608 0.9817514 -0.0519770
v -0.1938821 0.9799229 -0.0521943
v -0.2741990 0.5181005 -0.0622340
v -0.2749859 0.5164321 -0.0620926
v -0.2761790 0.5150527 -0.0617817
v -0.2776816 0.5140741 -0.0613265
v -0.2793721 0.5135756 -0.0607638
vn 0.1713019 0.9849859 0.0214127
vn 0.4573947 0.8863155 0.0723522
vn 0.6825236 0.7220453 0.1131909
vn 0.8527735 0.5017751 0.1449105
vn 0.9558125 0.2431706 0.1651985
vn 0.9844122 -0.0337151 0.1726150
vn 0.9367495 -0.3077755 0.1666572
vn 0.8164449 -0.5581931 0.1477776
vn 0.6323334 -0.7657560 0.1173555
vn 0.3979755 -0.9141063 0.0776224
vn 0.1309241 -0.9908905 0.0315434
vn -0.1713019 -0.9849859 -0.0214127
vn 0.3918411 0.8946207 0.2147424
vn 0.5621286 0.7372985 0.3747030
vn 0.6872950 0.5227401 0.5043495
vn 0.7583381 0.2681892 0.5941362
vn 0.7703461 -0.0065944 0.6375919
vn 0.7226834 -0.2806548 0.6316340
vn 0.6189706 -0.5331744 0.5767153
vn 0.4668548 -0.7447910 0.4767944
vn 0.2775805 -0.8988531 0.3391345
vn 0.0653705 -0.9825853 0.1739336
vn 0.2650327 0.9147109 0.3050599
vn 0.3292340 0.7741959 0.5405790
vn 0.3671897 0.5734542 0.7323401
vn 0.3763394 0.3287091 0.8662095
vn 0.3562520 0.0590104 0.9325247
vn 0.3085893 -0.2150500 0.9265668
vn 0.2369718 -0.4726545 0.8487886
vn 0.1467496 -0.6940768 0.7047850
vn 0.0446859 -0.8619557 0.5050105
vn -0.0614379 -0.9624951 0.2642511
vn 0.1109478 0.9412030 0.3191042
vn 0.0462436 0.8228509 0.5663726
vn -0.0217704 0.6403288 0.7677924
vn -0.0878275 0.4085141 0.9085167
vn -0.1469139 0.1455205 0.9783865
vn -0.1945766 -0.1285399 0.9724286
vn -0.2271950 -0.3928496 0.8910958
vn -0.2422105 -0.6272023 0.7402374
vn -0.2383045 -0.8133007 0.5308041
vn -0.2155228 -0.9360030 0.2782954
vn -0.0291267 0.9669984 0.2531121
vn -0.2110156 0.8702264 0.4451724
vn -0.3753637 0.7054447 0.6012070
vn -0.5097893 0.4862204 0.7097215
vn -0.6043288 0.2297557 0.7628886
vn -0.6519915 -0.0443047 0.7569308
vn -0.6491569 -0.3151432 0.6923006
vn -0.5958039 -0.5620864 0.5736520
vn -0.4955637 -0.7659252 0.4096039
vn -0.3555973 -0.9102076 0.2123033
vn -0.1176580 0.9851853 0.1247662
vn -0.3736110 0.9036282 0.2094538
vn -0.5988453 0.7513542 0.2772204
vn -0.7764818 0.5410067 0.3230910
vn -0.8934287 0.2891451 0.3437735
vn -0.9410914 0.0150847 0.3378157
vn -0.9158494 -0.2603569 0.3056700
vn -0.8192855 -0.5161768 0.2496654
vn -0.6581591 -0.7325234 0.1738853
vn -0.4441286 -0.8920207 0.0839574
vn -0.1309241 0.9908905 -0.0315434
vn -0.3979755 0.9141063 -0.0776224
vn -0.6323334 0.7657560 -0.1173555
vn -0.8164449 0.5581931 -0.1477776
vn -0.9367495 0.3077755 -0.1666572
vn -0.9844122 0.0337151 -0.1726150
vn -0.9558125 -0.2431706 -0.1651985
vn -0.8527735 -0.5017751 -0.1449105
vn -0.6825236 -0.7220453 -0.1131909
vn -0.4573947 -0.8863155 -0.0723522
vn -0.0653705 0.9825853 -0.1739336
vn -0.2775805 0.8988531 -0.3391345
vn -0.4668548 0.7447910 -0.4767944
vn -0.6189706 0.5331744 -0.5767153
vn -0.7226834 0.2806548 -0.6316340
vn -0.7703461 0.0065944 -0.6375919
vn -0.7583381 -0.2681892 -0.5941362
vn -0.6872950 -0.5227401 -0.5043495
vn -0.5621286 -0.7372985 -0.3747030
vn -0.3918411 -0.8946207 -0.2147424
vn 0.0614379 0.9624951 -0.2642511
vn -0.0446859 0.8619557 -0.5050105
vn -0.1467496 0.6940768 -0.7047850
vn -0.2369718 0.4726545 -0.8487886
vn -0.3085893 0.2150500 -0.9265668
vn -0.3562520 -0.0590104 -0.9325247
vn -0.3763394 -0.3287091 -0.8662095
vn -0.3671897 -0.5734542 -0.7323401
vn -0.3292340 -0.7741959 -0.5405790
vn -0.2650327 -0.9147109 -0.3050599
vn 0.2155228 0.9360030 -0.2782954
vn 0.2383045 0.8133007 -0.5308041
vn 0.2422105 0.6272023 -0.7402374
vn 0.2271950 0.3928496 -0.8910958
vn 0.1945766 0.1285399 -0.9724286
vn 0.1469139 -0.1455205 -0.9783865
vn 0.0878275 -0.4085141 -0.9085167
vn 0.0217704 -0.6403288 -0.7677924
vn -0.0462436 -0.8228509 -0.5663726
vn -0.1109478 -0.9412030 -0.3191042
vn 0.3555973 0.9102076 -0.2123033
vn 0.4955637 0.7659252 -0.4096039
vn 0.5958039 0.5620864 -0.5736520
vn 0.6491569 0.3151432 -0.6923006
vn 0.6519915 0.0443047 -0.7569308
vn 0.6043288 -0.2297557 -0.7628886
vn 0.5097893 -0.4862204 -0.7097215
vn 0.3753637 -0.7054447 -0.6012070
vn 0.2110156 -0.8702264 -0.4451724
vn 0.0291267 -0.9669984 -0.2531121
vn 0.4441286 0.8920207 -0.0839574
vn 0.6581591 0.7325234 -0.1738853
vn 0.8192855 0.5161768 -0.2496654
vn 0.9158494 0.2603569 -0.3056700
vn 0.9410914 -0.0150847 -0.3378157
vn 0.8934287 -0.2891451 -0.3437735
vn 0.7764818 -0.5410067 -0.3230910
vn 0.5988453 -0.7513542 -0.2772204
vn 0.3736110 -0.9036282 -0.2094538
vn 0.1176580 -0.9851853 -0.1247662
f 2//2 1//1 13//13
f 2//2 13//13 3//3
f 3//3 13//13 14//14
f 3//3 14//14 4//4
f 4//4 14//14 15//15
f 4//4 15//15 5//5
f 5//5 15//15 16//16
f 5//5 16//16 6//6
f 6//6 16//16 17//17
f 6//6 17//17 7//7
f 7//7 17//17 18//18
f 7//7 18//18 8//8
f 8//8 18//18 19//19
f 8//8 19//19 9//9
f 9//9 19//19 20//20
f 9//9 20//20 10//10
f 10//10 20//20 21//21
f 10//10 21//21 11//11
f 11//11 21//21 22//22
f 11//11 22//22 12//12
f 13//13 1//1 23//23
f 13//13 23//23 14//14
f 14//14 23//23 24//24
f 14//14 24//24 15//15
f 15//15 24//24 25//25
f 15//15 25//25 16//16
f 16//16 25//25 26//26
f 16//16 26//26 17//17
f 17//17 26//26 27//27
f 17//17 27//27 18//18
f 18//18 27//27 28//28
f 18//18 28//28 19//19
f 19//19 28//28 29//29
f 19//19 29//29 20//20
f 20//20 29//29 30//30
f 20//20 30//30 21//21
f 21//21 30//30 31//31
f 21//21 31//31 22//22
f 22//22 31//31 32//32
f 22//22 32//32 12//12
f 23//23 1//1 33//33
f 23//23 33//33 24//24
f 24//24 33//33 34//34
f 24//24 34//34 25//25
f 25//25 34//34 35//35
f 25//25 35//35 26//26
f 26//26 35//35 36//36
f 26//26 36//36 27//27
f 27//27 36//36 37//37
f 27//27 37//37 28//28
f 28//28 37//37 38//38
f 28//28 38//38 29//29
f 29//29 38//38 39//39
f 29//29 39//39 30//30
f 30//30 39//39 40//40
f 30//30 40//40 31//31
f 31//31 40//40 41//41
f 31//31 41//41 32//32
f 32//32 41//41 42//42
f 32//32 42//42 12//12
f 33//33 1//1 43//43
f 33//33 43//43 34//34
f 34//34 43//43 44//44
f 34//34 44//44 35//35
f 35//35 44//44 45//45
f 35//35 45//45 36//36
f 36//36 45//45 46//46
f 36//36 46//46 37//37
f 37//37 46//46 47//47
f 37//37 47//47 38//38
f 38//38 47//47 48//48
f 38//38 48//48 39//39
f 39//39 48//48 49//49
f 39//39 49//49 40//40
f 40//40 49//49 50//50
f 40//40 50//50 41//41
f 41//41 50//50 51//51
f 41//41 51//51 42//42
f 42//42 51//51 52//52
f 42//42 52//52 12//12
f 43//43 1//1 53//53
f 43//43 53//53 44//44
f 44//44 53//53 54//54
f 44//44 54//54 45//45
f 45//45 54//54 55//55
f 45//45 55//55 46//46
f 46//46 55//55 56//56
f 46//46 56//56 47//47
f 47//47 56//56 57//57
f 47//47 57//57 48//48
f 48//48 57//57 58//58
f 48//48 58//58 49//49
f 49//49 58//58 59//59
f 49//49 59//59 50//50
f 50//50 59//59 60//60
f 50//50 60//60 51//51
f 51//51 60//60 61//61
f 51//51 61//61 52//52
f 52//52 61//61 62//62
f 52//52 62//62 12//12
f 53//53 1//1 63//63
f 53//53 63//63 54//54
f 54//54 63//63 64//64
f 54//54 64//64 55//55
f 55//55 64//64 65//65
f 55//55 65//65 56//56
f 56//56 65//65 66//66
f 56//56 66//66 57//57
f 57//57 66//66 67//67
f 57//57 67//67 58//58
f 58//58 67//67 68//68
f 58//58 68//68 59//59
f 59//59 68//68 69//69
f 59//59 69//69 60//60
f 60//60 69//69 70//70
f 60//60 70//70 61//61
f 61//61 70//70 71//71
f 61//61 71//71 62//62
f 62//62 71//71 72//72
f 62//62 72//72 12//12
f 63//63 1//1 73//73
f 63//63 73//73 64//64
f 64//64 73//73 74//74
f 64//64 74//74 65//65
f 65//65 74//74 75//75
f 65//65 75//75 66//66
f 66//66 75//75 76//76
f 66//66 76//76 67//67
f 67//67 76//76 77//77
f 67//67 77//77 68//68
f 68//68 77//77 78//78
f 68//68 78//78 69//69
f 69//69 78//78 79//79
f 69//69 79//79 70//70
f 70//70 79//79 80//80
f 70//70 80//80 71//71
f 71//71 80//80 81//81
f 71//71 81//81 72//72
f 72//72 81//81 82//82
f 72//72 82//82 12//12
f 73//73 1//1 83//83
f 73//73 83//83 74//74
f 74//74 83//83 84//84
f 74//74 84//84 75//75
f 75//75 84//84 85//85
f 75//75 85//85 76//76
f 76//76 85//85 86//86
f 76//76 86//86 77//77
f 77//77 86//86 87//87
f 77//77 87//87 78//78
f 78//78 87//87 88//88
f 78//78 88//88 79//79
f 79//79 88//88 89//89
f 79//79 89//89 80//80
f 80//80 89//89 90//90
f 80//80 90//90 81//81
f 81//81 90//90 91//91
f 81//81 91//91 82//82
f 82//82 91//91 92//92
f 82//82 92//92 12//12
f 83//83 1//1 93//93
f 83//83 93//93 84//84
f 84//84 93//93 94//94
f 84//84 94//94 85//85
f 85//85 94//94 95//95
f 85//85 95//95 86//86
f 86//86 95//95 96//96
f 86//86 96//96 87//87
f 87//87 96//96 97//97
f 87//87 97//97 88//88
f 88//88 97//97 98//98
f 88//88 98//98 89//89
f 89//89 98//98 99//99
f 89//89 99//99 90//90
f 90//90 99//99 100//100
f 90//90 100//100 91//91
f 91//91 100//100 101//101
f 91//91 101//101 92//92
f 92//92 101//101 102//102
f 92//92 102//102 12//12
f 93//93 1//1 103//103
f 93//93 103//103 94//94
f 94//94 103//103 104//104
f 94//94 104//104 95//95
f 95//95 104//104 105//105
f 95//95 105//105 96//96
f 96//96 105//105 106//106
f 96//96 106//106 97//97
f 97//97 106//106 107//107
f 97//97 107//107 98//98
f 98//98 107//107 108//108
f 98//98 108//108 99//99
f 99//99 108//108 109//109
f 99//99 109//109 100//100
f 100//100 109//109 110//110
f 100//100 110//110 101//101
f 101//101 110//110 111//111
f 101//101 111//111 102//102
f 102//102 111//111 112//112
f 102//102 112//112 12//12
f 103//103 1//1 113//113
f 103//103 113//113 104//104
f 104//104 113//113 114//114
f 104//104 114//114 105//105
f 105//105 114//114 115//115
f 105//105 115//115 106//106
f 106//106 115//115 116//116
f 106//106 116//116 107//107
f 107//107 116//116 117//117
f 107//107 117//117 108//108
f 108//108 117//117 118//118
f 108//108 118//118 109//109
f 109//109 118//118 119//119
f 109//109 119//119 110//110
f 110//110 119//119 120//120
f 110//110 120//120 111//111
f 111//111 120//120 121//121
f 111//111 121//121 112//112
f 112//112 121//121 122//122
f 112//112 122//122 12//12
f 113//113 1//1 2//2
f 113//113 2//2 114//114
f 114//114 2//2 3//3
f 114//114 3//3 115//115
f 115//115 3//3 4//4
f 115//115 4//4 116//116
f 116//116 4//4 5//5
f 116//116 5//5 117//117
f 117//117 5//5 6//6
f 117//117 6//6 118//118
f 118//118 6//6 7//7
f 118//118 7//7 119//119
f 119//119 7//7 8//8
f 119//119 8//8 120//120
f 120//120 8//8 9//9
f 120//120 9//9 121//121
f 121//121 9//9 10//10
f 121//121 10//10 122//122
f 122//122 10//10 11//11
f 122//122 11//11 12//12

