# https://github.com/mikedh/trimesh
v 0.3886044 0.9509109 -0.0550634
v 0.3917104 0.9508567 -0.0554540
v 0.3946778 0.9499230 -0.0558079
v 0.3972663 0.9481853 -0.0560963
v 0.3992661 0.9457845 -0.0562958
v 0.4005152 0.9429151 -0.0563904
v 0.5109124 0.0798095 -0.0513724
v 0.5104256 0.0767194 -0.0512431
v 0.5090941 0.0738950 -0.0510132
v 0.5070259 0.0715653 -0.0507011
v 0.5043885 0.0699188 -0.0503323
v 0.5013956 0.0690891 -0.0499366
v 0.3914957 0.9508385 -0.0538644
v 0.3942659 0.9498880 -0.0527573
v 0.3966904 0.9481364 -0.0518320
v 0.3985730 0.9457257 -0.0511633
v 0.3997610 0.9428511 -0.0508054
v 0.5101582 0.0797456 -0.0457873
v 0.5097325 0.0766606 -0.0461106
v 0.5085183 0.0738462 -0.0467489
v 0.5066140 0.0715303 -0.0476506
v 0.5041738 0.0699006 -0.0487427
v 0.3905215 0.9507213 -0.0525953
v 0.3923963 0.9496630 -0.0503220
v 0.3940770 0.9478220 -0.0484277
v 0.3954274 0.9453472 -0.0470658
v 0.3963381 0.9424392 -0.0463468
v 0.5067353 0.0793337 -0.0413287
v 0.5065869 0.0762821 -0.0420131
v 0.5059048 0.0735317 -0.0433446
v 0.5047444 0.0713053 -0.0452153
v 0.5031996 0.0697834 -0.0474736
v 0.3890487 0.9505364 -0.0519869
v 0.3895701 0.9493083 -0.0491545
v 0.3901263 0.9473261 -0.0467956
v 0.3906722 0.9447504 -0.0451014
v 0.3911637 0.9417898 -0.0442092
v 0.5015609 0.0786843 -0.0391911
v 0.5018317 0.0756853 -0.0400487
v 0.5019541 0.0730358 -0.0417125
v 0.5019181 0.0709506 -0.0440477
v 0.5017268 0.0695985 -0.0468652
v 0.3874720 0.9503335 -0.0522021
v 0.3865444 0.9489189 -0.0495675
v 0.3858968 0.9467818 -0.0473730
v 0.3855816 0.9440952 -0.0457964
v 0.3856243 0.9410769 -0.0449654
v 0.4960215 0.0779713 -0.0399473
v 0.4967411 0.0750301 -0.0407437
v 0.4977246 0.0724915 -0.0422899
v 0.4988925 0.0705612 -0.0444608
v 0.5001501 0.0693956 -0.0470804
v 0.3862139 0.9501669 -0.0531834
v 0.3841301 0.9485992 -0.0514505
v 0.3825219 0.9463348 -0.0500052
v 0.3815195 0.9435572 -0.0489645
v 0.3812041 0.9404915 -0.0484128
v 0.4916014 0.0773859 -0.0433947
v 0.4926790 0.0744921 -0.0439118
v 0.4943497 0.0720445 -0.0449221
v 0.4964782 0.0702415 -0.0463438
v 0.4988920 0.0692290 -0.0480616
v 0.3856115 0.9500812 -0.0546677
v 0.3829741 0.9484347 -0.0542989
v 0.3809059 0.9461050 -0.0539868
v 0.3795744 0.9432806 -0.0537569
v 0.3790876 0.9401905 -0.0536276
v 0.4894848 0.0770849 -0.0486096
v 0.4907339 0.0742155 -0.0487042
v 0.4927337 0.0718147 -0.0489037
v 0.4953222 0.0700770 -0.0491921
v 0.4982896 0.0691433 -0.0495460
v 0.3858262 0.9500994 -0.0562573
v 0.3833860 0.9484697 -0.0573494
v 0.3814817 0.9461538 -0.0582511
v 0.3802675 0.9433394 -0.0588894
v 0.3798418 0.9402544 -0.0592127
v 0.4902390 0.0771489 -0.0541946
v 0.4914270 0.0742743 -0.0538367
v 0.4933096 0.0718636 -0.0531680
v 0.4957341 0.0701120 -0.0522427
v 0.4985043 0.0691615 -0.0511356
v 0.3868004 0.9502166 -0.0575264
v 0.3852556 0.9486947 -0.0597847
v 0.3840952 0.9464683 -0.0616554
v 0.3834131 0.9437179 -0.0629869
v 0.3832647 0.9406663 -0.0636713
v 0.4936619 0.0775608 -0.0586532
v 0.4945726 0.0746528 -0.0579342
v 0.4959230 0.0721780 -0.0565723
v 0.4976037 0.0703370 -0.0546780
v 0.4994785 0.0692787 -0.0524047
v 0.3882732 0.9504015 -0.0581348
v 0.3880819 0.9490494 -0.0609523
v 0.3880459 0.9469642 -0.0632875
v 0.3881683 0.9443147 -0.0649513
v 0.3884391 0.9413157 -0.0658089
v 0.4988363 0.0782102 -0.0607908
v 0.4993278 0.0752496 -0.0598986
v 0.4998737 0.0726739 -0.0582044
v 0.5004299 0.0706917 -0.0558455
v 0.5009513 0.0694636 -0.0530131
v 0.3898499 0.9506044 -0.0579196
v 0.3911075 0.9494388 -0.0605392
v 0.3922754 0.9475085 -0.0627101
v 0.3932589 0.9449699 -0.0642563
v 0.3939785 0.9420287 -0.0650527
v 0.5043757 0.0789231 -0.0600346
v 0.5044184 0.0759048 -0.0592036
v 0.5041032 0.0732182 -0.0576270
v 0.5034556 0.0710811 -0.0554325
v 0.5025280 0.0696665 -0.0527979
v 0.3911080 0.9507710 -0.0569384
v 0.3935218 0.9497585 -0.0586562
v 0.3956503 0.9479555 -0.0600779
v 0.3973210 0.9455079 -0.0610882
v 0.3983986 0.9426141 -0.0616053
v 0.5087959 0.0795085 -0.0565872
v 0.5084805 0.0764428 -0.0560355
v 0.5074781 0.0736652 -0.0549948
v 0.5058699 0.0714008 -0.0535495
v 0.5037861 0.0698331 -0.0518166
vn -0.1268712 0.9919024 -0.0057669
vn 0.1775027 0.9831376 -0.0439694
vn 0.4426647 0.8935072 -0.0754507
vn 0.6716248 0.7339980 -0.1008315
vn 0.8472921 0.5177974 -0.1182456
vn 0.9567771 0.2618980 -0.1264398
vn 0.9920775 -0.0140868 -0.1248352
vn 0.9505118 -0.2891934 -0.1135538
vn 0.8348894 -0.5424336 -0.0934104
vn 0.6534094 -0.7541334 -0.0658713
vn 0.4192965 -0.9072502 -0.0329788
vn 0.1268712 -0.9919024 0.0057669
vn 0.1564966 0.9813551 0.1115838
vn 0.4040851 0.8902336 0.2102364
vn 0.6185986 0.7294985 0.2918350
vn 0.7840130 0.5124279 0.3503444
vn 0.8881814 0.2560774 0.3815209
vn 0.9234818 -0.0199074 0.3831254
vn 0.8872328 -0.2945629 0.3550362
vn 0.7818631 -0.5469331 0.2992561
vn 0.6148298 -0.7574070 0.2198157
vn 0.3982904 -0.9090326 0.1225744
vn 0.0611631 0.9698833 0.2357657
vn 0.2289968 0.8691646 0.4383074
vn 0.3779461 0.7005399 0.6053103
vn 0.4968295 0.4778701 0.7244312
vn 0.5768688 0.2186160 0.7870384
vn 0.6121692 -0.0573688 0.7886429
vn 0.6000493 -0.3291207 0.7291230
vn 0.5412106 -0.5758917 0.6127314
vn 0.4397415 -0.7784760 0.4478867
vn 0.3029569 -0.9205044 0.2467564
vn -0.0829532 0.9517959 0.2953020
vn -0.0356854 0.8359456 0.5476509
vn 0.0141499 0.6548816 0.7555990
vn 0.0626921 0.4233836 0.9037788
vn 0.1062554 0.1595516 0.9814546
vn 0.1415558 -0.1164332 0.9830591
vn 0.1659119 -0.3836072 0.9084706
vn 0.1774144 -0.6215500 0.7630201
vn 0.1750593 -0.8116950 0.5572302
vn 0.1588406 -0.9385918 0.3062926
vn -0.2372365 0.9319396 0.2742398
vn -0.3190402 0.7994777 0.5089684
vn -0.3753110 0.6047577 0.7024313
vn -0.4020724 0.3635681 0.8403309
vn -0.3975584 0.0947104 0.9126759
vn -0.3622581 -0.1812744 0.9142804
vn -0.2988527 -0.4434227 0.8450227
vn -0.2120465 -0.6716739 0.7098524
vn -0.1082955 -0.8481629 0.5185477
vn 0.0045573 -0.9584481 0.2852304
vn -0.3603467 0.9156347 0.1782228
vn -0.5451429 0.7695323 0.3326248
vn -0.6860810 0.5635989 0.4600535
vn -0.7729308 0.3144511 0.5510885
vn -0.7995762 0.0414666 0.5991314
vn -0.7642758 -0.2345182 0.6007360
vn -0.6697110 -0.4925397 0.5557803
vn -0.5228164 -0.7128327 0.4674746
vn -0.3343982 -0.8781083 0.3422041
vn -0.1185529 -0.9747530 0.1892135
vn -0.4192965 0.9072502 0.0329788
vn -0.6534094 0.7541334 0.0658713
vn -0.8348894 0.5424336 0.0934104
vn -0.9505118 0.2891934 0.1135538
vn -0.9920775 0.0140868 0.1248352
vn -0.9567771 -0.2618980 0.1264398
vn -0.8472921 -0.5177974 0.1182456
vn -0.6716248 -0.7339980 0.1008315
vn -0.4426647 -0.8935072 0.0754507
vn -0.1775027 -0.9831376 0.0439694
vn -0.3982904 0.9090326 -0.1225744
vn -0.6148298 0.7574070 -0.2198157
vn -0.7818631 0.5469331 -0.2992561
vn -0.8872328 0.2945629 -0.3550362
vn -0.9234818 0.0199074 -0.3831254
vn -0.8881814 -0.2560774 -0.3815209
vn -0.7840130 -0.5124279 -0.3503444
vn -0.6185986 -0.7294985 -0.2918350
vn -0.4040851 -0.8902336 -0.2102364
vn -0.1564966 -0.9813551 -0.1115838
vn -0.3029569 0.9205044 -0.2467564
vn -0.4397415 0.7784760 -0.4478867
vn -0.5412106 0.5758917 -0.6127314
vn -0.6000493 0.3291207 -0.7291230
vn -0.6121692 0.0573688 -0.7886429
vn -0.5768688 -0.2186160 -0.7870384
vn -0.4968295 -0.4778701 -0.7244312
vn -0.3779461 -0.7005399 -0.6053103
vn -0.2289968 -0.8691646 -0.4383074
vn -0.0611631 -0.9698833 -0.2357657
vn -0.1588406 0.9385918 -0.3062926
vn -0.1750593 0.8116950 -0.5572302
vn -0.1774144 0.6215500 -0.7630201
vn -0.1659119 0.3836072 -0.9084706
vn -0.1415558 0.1164332 -0.9830591
vn -0.1062554 -0.1595516 -0.9814546
vn -0.0626921 -0.4233836 -0.9037788
vn -0.0141499 -0.6548816 -0.7555990
vn 0.0356854 -0.8359456 -0.5476509
vn 0.0829532 -0.9517959 -0.2953020
vn -0.0045573 0.9584481 -0.2852304
vn 0.1082955 0.8481629 -0.5185477
vn 0.2120465 0.6716739 -0.7098524
vn 0.2988527 0.4434227 -0.8450227
vn 0.3622581 0.1812744 -0.9142804
vn 0.3975584 -0.0947104 -0.9126759
vn 0.4020724 -0.3635681 -0.8403309
vn 0.3753110 -0.6047577 -0.7024313
vn 0.3190402 -0.7994777 -0.5089684
vn 0.2372365 -0.9319396 -0.2742398
vn 0.1185529 0.9747530 -0.1892135
vn 0.3343982 0.8781083 -0.3422041
vn 0.5228164 0.7128327 -0.4674746
vn 0.6697110 0.4925397 -0.5557803
vn 0.7642758 0.2345182 -0.6007360
vn 0.7995762 -0.0414666 -0.5991314
vn 0.7729308 -0.3144511 -0.5510885
vn 0.6860810 -0.5635989 -0.4600535
vn 0.5451429 -0.7695323 -0.3326248
vn 0.3603467 -0.9156347 -0.1782228
f 2//2 1//1 13//13
f 2//2 13//13 3//3
f 3//3 13//13 14//14
f 3//3 14//14 4//4
f 4//4 14//14 15//15
f 4//4 15//15 5//5
f 5//5 15//15 16//16
f 5//5 16//16 6//6
f 6//6 16//16 17//17
f 6//6 17//17 7//7
f 7//7 17//17 18//18
f 7//7 18//18 8//8
f 8//8 18//18 19//19
f 8//8 19//19 9//9
f 9//9 19//19 20//20
f 9//9 20//20 10//10
f 10//10 20//20 21//21
f 10//10 21//21 11//11
f 11//11 21//21 22//22
f 11//11 22//22 12//12
f 13//13 1//1 23//23
f 13//13 23//23 14//14
f 14//14 23//23 24//24
f 14//14 24//24 15//15
f 15//15 24//24 25//25
f 15//15 25//25 16//16
f 16//16 25//25 26//26
f 16//16 26//26 17//17
f 17//17 26//26 27//27
f 17//17 27//27 18//18
f 18//18 27//27 28//28
f 18//18 28//28 19//19
f 19//19 28//28 29//29
f 19//19 29//29 20//20
f 20//20 29//29 30//30
f 20//20 30//30 21//21
f 21//21 30//30 31//31
f 21//21 31//31 22//22
f 22//22 31//31 32//32
f 22//22 32//32 12//12
f 23//23 1//1 33//33
f 23//23 33//33 24//24
f 24//24 33//33 34//34
f 24//24 34//34 25//25
f 25//25 34//34 35//35
f 25//25 35//35 26//26
f 26//26 35//35 36//36
f 26//26 36//36 27//27
f 27//27 36//36 37//37
f 27//27 37//37 28//28
f 28//28 37//37 38//38
f 28//28 38//38 29//29
f 29//29 38//38 39//39
f 29//29 39//39 30//30
f 30//30 39//39 40//40
f 30//30 40//40 31//31
f 31//31 40//40 41//41
f 31//31 41//41 32//32
f 32//32 41//41 42//42
f 32//32 42//42 12//12
f 33//33 1//1 43//43
f 33//33 43//43 34//34
f 34//34 43//43 44//44
f 34//34 44//44 35//35
f 35//35 44//44 45//45
f 35//35 45//45 36//36
f 36//36 45//45 46//46
f 36//36 46//46 37//37
f 37//37 46//46 47//47
f 37//37 47//47 38//38
f 38//38 47//47 48//48
f 38//38 48//48 39//39
f 39//39 48//48 49//49
f 39//39 49//49 40//40
f 40//40 49//49 50//50
f 40//40 50//50 41//41
f 41//41 50//50 51//51
f 41//41 51//51 42//42
f 42//42 51//51 52//52
f 42//42 52//52 12//12
f 43//43 1//1 53//53
f 43//43 53//53 44//44
f 44//44 53//53 54//54
f 44//44 54//54 45//45
f 45//45 54//54 55//55
f 45//45 55//55 46//46
f 46//46 55//55 56//56
f 46//46 56//56 47//47
f 47//47 56//56 57//57
f 47//47 57//57 48//48
f 48//48 57//57 58//58
f 48//48 58//58 49//49
f 49//49 58//58 59//59
f 49//49 59//59 50//50
f 50//50 59//59 60//60
f 50//50 60//60 51//51
f 51//51 60//60 61//61
f 51//51 61//61 52//52
f 52//52 61//61 62//62
f 52//52 62//62 12//12
f 53//53 1//1 63//63
f 53//53 63//63 54//54
f 54//54 63//63 64//64
f 54//54 64//64 55//55
f 55//55 64//64 65//65
f 55//55 65//65 56//56
f 56//56 65//65 66//66
f 56//56 66//66 57//57
f 57//57 66//66 67//67
f 57//57 67//67 58//58
f 58//58 67//67 68//68
f 58//58 68//68 59//59
f 59//59 68//68 69//69
f 59//59 69//69 60//60
f 60//60 69//69 70//70
f 60//60 70//70 61//61
f 61//61 70//70 71//71
f 61//61 71//71 62//62
f 62//62 71//71 72//72
f 62//62 72//72 12//12
f 63//63 1//1 73//73
f 63//63 73//73 64//64
f 64//64 73//73 74//74
f 64//64 74//74 65//65
f 65//65 74//74 75//75
f 65//65 75//75 66//66
f 66//66 75//75 76//76
f 66//66 76//76 67//67
f 67//67 76//76 77//77
f 67//67 77//77 68//68
f 68//68 77//77 78//78
f 68//68 78//78 69//69
f 69//69 78//78 79//79
f 69//69 79//79 70//70
f 70//70 79//79 80//80
f 70//70 80//80 71//71
f 71//71 80//80 81//81
f 71//71 81//81 72//72
f 72//72 81//81 82//82
f 72//72 82//82 12//12
f 73//73 1//1 83//83
f 73//73 83//83 74//74
f 74//74 83//83 84//84
f 74//74 84//84 75//75
f 75//75 84//84 85//85
f 75//75 85//85 76//76
f 76//76 85//85 86//86
f 76//76 86//86 77//77
f 77//77 86//86 87//87
f 77//77 87//87 78//78
f 78//78 87//87 88//88
f 78//78 88//88 79//79
f 79//79 88//88 89//89
f 79//79 89//89 80//80
f 80//80 89//89 90//90
f 80//80 90//90 81//81
f 81//81 90//90 91//91
f 81//81 91//91 82//82
f 82//82 91//91 92//92
f 82//82 92//92 12//12
f 83//83 1//1 93//93
f 83//83 93//93 84//84
f 84//84 93//93 94//94
f 84//84 94//94 85//85
f 85//85 94//94 95//95
f 85//85 95//95 86//86
f 86//86 95//95 96//96
f 86//86 96//96 87//87
f 87//87 96//96 97//97
f 87//87 97//97 88//88
f 88//88 97//97 98//98
f 88//88 98//98 89//89
f 89//89 98//98 99//99
f 89//89 99//99 90//90
f 90//90 99//99 100//100
f 90//90 100//100 91//91
f 91//91 100//100 101//101
f 91//91 101//101 92//92
f 92//92 101//101 102//102
f 92//92 102//102 12//12
f 93//93 1//1 103//103
f 93//93 103//103 94//94
f 94//94 103//103 104//104
f 94//94 104//104 95//95
f 95//95 104//104 105//105
f 95//95 105//105 96//96
f 96//96 105//105 106//106
f 96//96 106//106 97//97
f 97//97 106//106 107//107
f 97//97 107//107 98//98
f 98//98 107//107 108//108
f 98//98 108//108 99//99
f 99//99 108//108 109//109
f 99//99 109//109 100//100
f 100//100 109//109 110//110
f 100//100 110//110 101//101
f 101//101 110//110 111//111
f 101//101 111//111 102//102
f 102//102 111//111 112//112
f 102//102 112//112 12//12
f 103//103 1//1 113//113
f 103//103 113//113 104//104
f 104//104 113//113 114//114
f 104//104 114//114 105//105
f 105//105 114//114 115//115
f 105//105 115//115 106//106
f 106//106 115//115 116//116
f 106//106 116//116 107//107
f 107//107 116//116 117//117
f 107//107 117//117 108//108
f 108//108 117//117 118//118
f 108//108 118//118 109//109
f 109//109 118//118 119//119
f 109//109 119//119 110//110
f 110//110 119//119 120//120
f 110//110 120//120 111//111
f 111//111 120//120 121//121
f 111//111 121//121 112//112
f 112//112 121//121 122//122
f 112//112 122//122 12//12
f 113//113 1//1 2//2
f 113//113 2//2 114//114
f 114//114 2//2 3//3
f 114//114 3//3 115//115
f 115//115 3//3 4//4
f 115//115 4//4 116//116
f 116//116 4//4 5//5
f 116//116 5//5 117//117
f 117//117 5//5 6//6
f 117//117 6//6 118//118
f 118//118 6//6 7//7
f 118//118 7//7 119//119
f 119//119 7//7 8//8
f 119//119 8//8 120//120
f 120//120 8//8 9//9
f 120//120 9//9 121//121
f 121//121 9//9 10//10
f 121//121 10//10 122//122
f 122//122 10//10 11//11
f 122//122 11//11 12//12

