# https://github.com/mikedh/trimesh
v 0.0287015 1.6177520 -0.0095155
v 0.0305994 1.6188837 -0.0113096
v 0.0328538 1.6192956 -0.0129976
v 0.0352820 1.6189544 -0.0144428
v 0.0376874 1.6178878 -0.0155281
v 0.0398751 1.6161822 -0.0161655
v 0.1066679 1.5339758 -0.0213034
v 0.1079204 1.5314472 -0.0209306
v 0.1085313 1.5288014 -0.0200774
v 0.1084511 1.5262527 -0.0188128
v 0.1076861 1.5240076 -0.0172394
v 0.1062985 1.5222480 -0.0154845
v 0.0311021 1.6192090 -0.0099799
v 0.0338185 1.6199199 -0.0104459
v 0.0366306 1.6198272 -0.0108758
v 0.0393106 1.6189383 -0.0112347
v 0.0416414 1.6173253 -0.0114936
v 0.1084342 1.5351189 -0.0166315
v 0.1095436 1.5324977 -0.0166373
v 0.1098799 1.5296742 -0.0165104
v 0.1094158 1.5268771 -0.0162611
v 0.1081889 1.5243330 -0.0159096
v 0.0310299 1.6190598 -0.0085310
v 0.0336800 1.6196337 -0.0076655
v 0.0364371 1.6194270 -0.0069891
v 0.0390777 1.6184567 -0.0065566
v 0.0413879 1.6168012 -0.0064031
v 0.1081807 1.5345948 -0.0115410
v 0.1093107 1.5320161 -0.0119592
v 0.1096864 1.5292741 -0.0126236
v 0.1092773 1.5265908 -0.0134806
v 0.1081167 1.5241838 -0.0144607
v 0.0304023 1.6184761 -0.0073511
v 0.0324755 1.6185135 -0.0054014
v 0.0347533 1.6178612 -0.0038241
v 0.0370510 1.6165720 -0.0027472
v 0.0391826 1.6147504 -0.0022579
v 0.1059754 1.5325439 -0.0073958
v 0.1072840 1.5301313 -0.0081498
v 0.1080026 1.5277082 -0.0094587
v 0.1080728 1.5254706 -0.0112165
v 0.1074890 1.5236001 -0.0132809
v 0.0293872 1.6176142 -0.0067565
v 0.0305276 1.6168595 -0.0042602
v 0.0320304 1.6155491 -0.0022290
v 0.0337737 1.6137892 -0.0008273
v 0.0356164 1.6117222 -0.0001687
v 0.1024092 1.5295158 -0.0053066
v 0.1040067 1.5273485 -0.0062298
v 0.1052797 1.5253961 -0.0078635
v 0.1061249 1.5238167 -0.0100754
v 0.1064740 1.5227382 -0.0126862
v 0.0282568 1.6167051 -0.0069064
v 0.0283584 1.6151150 -0.0045479
v 0.0289980 1.6131104 -0.0026311
v 0.0301239 1.6108539 -0.0013112
v 0.0316448 1.6085282 -0.0006953
v 0.0984376 1.5263218 -0.0058332
v 0.1003569 1.5244133 -0.0067138
v 0.1022473 1.5229574 -0.0082656
v 0.1039557 1.5220721 -0.0103630
v 0.1053435 1.5218291 -0.0128361
v 0.0273139 1.6159924 -0.0077606
v 0.0265489 1.6137473 -0.0061872
v 0.0264687 1.6111986 -0.0049226
v 0.0270796 1.6085528 -0.0040694
v 0.0283321 1.6060242 -0.0036966
v 0.0951249 1.5238178 -0.0088345
v 0.0973126 1.5221122 -0.0094719
v 0.0997180 1.5210456 -0.0105572
v 0.1021462 1.5207044 -0.0120024
v 0.1044006 1.5211163 -0.0136904
v 0.0268111 1.6156670 -0.0090904
v 0.0255842 1.6131229 -0.0087389
v 0.0251201 1.6103258 -0.0084896
v 0.0254564 1.6075023 -0.0083627
v 0.0265658 1.6048811 -0.0083685
v 0.0933586 1.5226747 -0.0135064
v 0.0956894 1.5210617 -0.0137653
v 0.0983694 1.5201728 -0.0141242
v 0.1011815 1.5200801 -0.0145541
v 0.1038979 1.5207910 -0.0150201
v 0.0268833 1.6158162 -0.0105393
v 0.0257227 1.6134092 -0.0115194
v 0.0253136 1.6107259 -0.0123764
v 0.0256893 1.6079839 -0.0130408
v 0.0268193 1.6054052 -0.0134590
v 0.0936121 1.5231988 -0.0185969
v 0.0959223 1.5215433 -0.0184434
v 0.0985629 1.5205730 -0.0180109
v 0.1013200 1.5203663 -0.0173345
v 0.1039701 1.5209402 -0.0164690
v 0.0275110 1.6163999 -0.0117191
v 0.0269272 1.6145294 -0.0137835
v 0.0269974 1.6122918 -0.0155413
v 0.0277160 1.6098687 -0.0168502
v 0.0290246 1.6074561 -0.0176042
v 0.0958174 1.5252496 -0.0227421
v 0.0979490 1.5234280 -0.0222528
v 0.1002467 1.5221388 -0.0211759
v 0.1025245 1.5214865 -0.0195986
v 0.1045977 1.5215239 -0.0176489
v 0.0285260 1.6172618 -0.0123138
v 0.0288751 1.6161833 -0.0149246
v 0.0297203 1.6146039 -0.0171365
v 0.0309933 1.6126515 -0.0187702
v 0.0325908 1.6104842 -0.0196934
v 0.0993836 1.5282778 -0.0248313
v 0.1012263 1.5262108 -0.0241727
v 0.1029696 1.5244509 -0.0227710
v 0.1044724 1.5231405 -0.0207398
v 0.1056128 1.5223858 -0.0182435
v 0.0296565 1.6181709 -0.0121639
v 0.0310443 1.6179279 -0.0146370
v 0.0327527 1.6170426 -0.0167344
v 0.0346431 1.6155867 -0.0182862
v 0.0365624 1.6136782 -0.0191668
v 0.1033552 1.5314718 -0.0243047
v 0.1048761 1.5291461 -0.0236888
v 0.1060020 1.5268896 -0.0223689
v 0.1066416 1.5248850 -0.0204521
v 0.1067432 1.5232949 -0.0180936
vn -0.6298521 0.7752025 0.0484502
vn -0.4233696 0.8943046 -0.1448358
vn -0.1983704 0.9296257 -0.3105563
vn 0.0410947 0.8915860 -0.4509829
vn 0.2764455 0.7840941 -0.5556747
vn 0.4897924 0.6159794 -0.6169868
vn 0.6650411 0.4002887 -0.6304675
vn 0.7888798 0.1534057 -0.5950927
vn 0.8516210 -0.1059849 -0.5133311
vn 0.8478714 -0.3580566 -0.3910365
vn 0.7770152 -0.5830920 -0.2371731
vn 0.6298521 -0.7752025 -0.0484502
vn -0.3692562 0.9293261 -0.0017049
vn -0.0989864 0.9939456 -0.0476838
vn 0.1776943 0.9799915 -0.0896741
vn 0.4394572 0.8895930 -0.1245056
vn 0.6665003 0.7303423 -0.1495911
vn 0.8417490 0.5146516 -0.1630718
vn 0.9518915 0.2589047 -0.1639236
vn 0.9882207 -0.0175795 -0.1520223
vn 0.9472554 -0.2937366 -0.1281640
vn 0.8311286 -0.5480706 -0.0940422
vn -0.3770220 0.9132690 0.1542538
vn -0.1132490 0.9644554 0.2387478
vn 0.1580910 0.9394581 0.3040158
vn 0.4160635 0.8412224 0.3453056
vn 0.6411410 0.6779077 0.3596935
vn 0.8163897 0.4622170 0.3462128
vn 0.9284978 0.2105341 0.3058876
vn 0.9686174 -0.0581128 0.2416677
vn 0.9329929 -0.3232269 0.1582677
vn 0.8233628 -0.5641277 0.0619165
vn -0.4445861 0.8504358 0.2812511
vn -0.2373364 0.8490568 0.4719895
vn -0.0124626 0.7808469 0.6245981
vn 0.2125328 0.6519432 0.7278736
vn 0.4205097 0.4727253 0.7744045
vn 0.5957584 0.2570346 0.7609239
vn 0.7249670 0.0212548 0.6884555
vn 0.7980638 -0.2167240 0.5622499
vn 0.8089055 -0.4386255 0.3915093
vn 0.7557987 -0.6269609 0.1889138
vn -0.5538448 0.7576627 0.3452582
vn -0.4379995 0.6786708 0.5895442
vn -0.2882669 0.5466576 0.7861728
vn -0.1165992 0.3724725 0.9206893
vn 0.0637243 0.1697736 0.9834206
vn 0.2389730 -0.0459171 0.9699400
vn 0.3958351 -0.2582158 0.8812713
vn 0.5222595 -0.4509134 0.7238246
vn 0.6082424 -0.6090115 0.5090641
vn 0.6465400 -0.7197340 0.2529209
vn -0.6755223 0.6598081 0.3291246
vn -0.6614708 0.4989522 0.5599134
vn -0.5954202 0.2996409 0.7454463
vn -0.4831416 0.0776944 0.8720882
vn -0.3336149 -0.1497717 0.9307360
vn -0.1583662 -0.3654624 0.9172554
vn 0.0292927 -0.5529940 0.8326702
vn 0.2151062 -0.6979300 0.6830981
vn 0.3847710 -0.7887300 0.4794332
vn 0.5248625 -0.8175886 0.2367873
vn -0.7770152 0.5830920 0.2371731
vn -0.8478714 0.3580566 0.3910365
vn -0.8516210 0.1059849 0.5133311
vn -0.7888798 -0.1534057 0.5950927
vn -0.6650411 -0.4002887 0.6304675
vn -0.4897924 -0.6159794 0.6169868
vn -0.2764455 -0.7840941 0.5556747
vn -0.0410947 -0.8915860 0.4509829
vn 0.1983704 -0.9296257 0.3105563
vn 0.4233696 -0.8943046 0.1448358
vn -0.8311286 0.5480706 0.0940422
vn -0.9472554 0.2937366 0.1281640
vn -0.9882207 0.0175795 0.1520223
vn -0.9518915 -0.2589047 0.1639236
vn -0.8417490 -0.5146516 0.1630718
vn -0.6665003 -0.7303423 0.1495911
vn -0.4394572 -0.8895930 0.1245056
vn -0.1776943 -0.9799915 0.0896741
vn 0.0989864 -0.9939456 0.0476838
vn 0.3692562 -0.9293261 0.0017049
vn -0.8233628 0.5641277 -0.0619165
vn -0.9329929 0.3232269 -0.1582677
vn -0.9686174 0.0581128 -0.2416677
vn -0.9284978 -0.2105341 -0.3058876
vn -0.8163897 -0.4622170 -0.3462128
vn -0.6411410 -0.6779077 -0.3596935
vn -0.4160635 -0.8412224 -0.3453056
vn -0.1580910 -0.9394581 -0.3040158
vn 0.1132490 -0.9644554 -0.2387478
vn 0.3770220 -0.9132690 -0.1542538
vn -0.7557987 0.6269609 -0.1889138
vn -0.8089055 0.4386255 -0.3915093
vn -0.7980638 0.2167240 -0.5622499
vn -0.7249670 -0.0212548 -0.6884555
vn -0.5957584 -0.2570346 -0.7609239
vn -0.4205097 -0.4727253 -0.7744045
vn -0.2125328 -0.6519432 -0.7278736
vn 0.0124626 -0.7808469 -0.6245981
vn 0.2373364 -0.8490568 -0.4719895
vn 0.4445861 -0.8504358 -0.2812511
vn -0.6465400 0.7197340 -0.2529209
vn -0.6082424 0.6090115 -0.5090641
vn -0.5222595 0.4509134 -0.7238246
vn -0.3958351 0.2582158 -0.8812713
vn -0.2389730 0.0459171 -0.9699400
vn -0.0637243 -0.1697736 -0.9834206
vn 0.1165992 -0.3724725 -0.9206893
vn 0.2882669 -0.5466576 -0.7861728
vn 0.4379995 -0.6786708 -0.5895442
vn 0.5538448 -0.7576627 -0.3452582
vn -0.5248625 0.8175886 -0.2367873
vn -0.3847710 0.7887300 -0.4794332
vn -0.2151062 0.6979300 -0.6830981
vn -0.0292927 0.5529940 -0.8326702
vn 0.1583662 0.3654624 -0.9172554
vn 0.3336149 0.1497717 -0.9307360
vn 0.4831416 -0.0776944 -0.8720882
vn 0.5954202 -0.2996409 -0.7454463
vn 0.6614708 -0.4989522 -0.5599134
vn 0.6755223 -0.6598081 -0.3291246
f 2//2 1//1 13//13
f 2//2 13//13 3//3
f 3//3 13//13 14//14
f 3//3 14//14 4//4
f 4//4 14//14 15//15
f 4//4 15//15 5//5
f 5//5 15//15 16//16
f 5//5 16//16 6//6
f 6//6 16//16 17//17
f 6//6 17//17 7//7
f 7//7 17//17 18//18
f 7//7 18//18 8//8
f 8//8 18//18 19//19
f 8//8 19//19 9//9
f 9//9 19//19 20//20
f 9//9 20//20 10//10
f 10//10 20//20 21//21
f 10//10 21//21 11//11
f 11//11 21//21 22//22
f 11//11 22//22 12//12
f 13//13 1//1 23//23
f 13//13 23//23 14//14
f 14//14 23//23 24//24
f 14//14 24//24 15//15
f 15//15 24//24 25//25
f 15//15 25//25 16//16
f 16//16 25//25 26//26
f 16//16 26//26 17//17
f 17//17 26//26 27//27
f 17//17 27//27 18//18
f 18//18 27//27 28//28
f 18//18 28//28 19//19
f 19//19 28//28 29//29
f 19//19 29//29 20//20
f 20//20 29//29 30//30
f 20//20 30//30 21//21
f 21//21 30//30 31//31
f 21//21 31//31 22//22
f 22//22 31//31 32//32
f 22//22 32//32 12//12
f 23//23 1//1 33//33
f 23//23 33//33 24//24
f 24//24 33//33 34//34
f 24//24 34//34 25//25
f 25//25 34//34 35//35
f 25//25 35//35 26//26
f 26//26 35//35 36//36
f 26//26 36//36 27//27
f 27//27 36//36 37//37
f 27//27 37//37 28//28
f 28//28 37//37 38//38
f 28//28 38//38 29//29
f 29//29 38//38 39//39
f 29//29 39//39 30//30
f 30//30 39//39 40//40
f 30//30 40//40 31//31
f 31//31 40//40 41//41
f 31//31 41//41 32//32
f 32//32 41//41 42//42
f 32//32 42//42 12//12
f 33//33 1//1 43//43
f 33//33 43//43 34//34
f 34//34 43//43 44//44
f 34//34 44//44 35//35
f 35//35 44//44 45//45
f 35//35 45//45 36//36
f 36//36 45//45 46//46
f 36//36 46//46 37//37
f 37//37 46//46 47//47
f 37//37 47//47 38//38
f 38//38 47//47 48//48
f 38//38 48//48 39//39
f 39//39 48//48 49//49
f 39//39 49//49 40//40
f 40//40 49//49 50//50
f 40//40 50//50 41//41
f 41//41 50//50 51//51
f 41//41 51//51 42//42
f 42//42 51//51 52//52
f 42//42 52//52 12//12
f 43//43 1//1 53//53
f 43//43 53//53 44//44
f 44//44 53//53 54//54
f 44//44 54//54 45//45
f 45//45 54//54 55//55
f 45//45 55//55 46//46
f 46//46 55//55 56//56
f 46//46 56//56 47//47
f 47//47 56//56 57//57
f 47//47 57//57 48//48
f 48//48 57//57 58//58
f 48//48 58//58 49//49
f 49//49 58//58 59//59
f 49//49 59//59 50//50
f 50//50 59//59 60//60
f 50//50 60//60 51//51
f 51//51 60//60 61//61
f 51//51 61//61 52//52
f 52//52 61//61 62//62
f 52//52 62//62 12//12
f 53//53 1//1 63//63
f 53//53 63//63 54//54
f 54//54 63//63 64//64
f 54//54 64//64 55//55
f 55//55 64//64 65//65
f 55//55 65//65 56//56
f 56//56 65//65 66//66
f 56//56 66//66 57//57
f 57//57 66//66 67//67
f 57//57 67//67 58//58
f 58//58 67//67 68//68
f 58//58 68//68 59//59
f 59//59 68//68 69//69
f 59//59 69//69 60//60
f 60//60 69//69 70//70
f 60//60 70//70 61//61
f 61//61 70//70 71//71
f 61//61 71//71 62//62
f 62//62 71//71 72//72
f 62//62 72//72 12//12
f 63//63 1//1 73//73
f 63//63 73//73 64//64
f 64//64 73//73 74//74
f 64//64 74//74 65//65
f 65//65 74//74 75//75
f 65//65 75//75 66//66
f 66//66 75//75 76//76
f 66//66 76//76 67//67
f 67//67 76//76 77//77
f 67//67 77//77 68//68
f 68//68 77//77 78//78
f 68//68 78//78 69//69
f 69//69 78//78 79//79
f 69//69 79//79 70//70
f 70//70 79//79 80//80
f 70//70 80//80 71//71
f 71//71 80//80 81//81
f 71//71 81//81 72//72
f 72//72 81//81 82//82
f 72//72 82//82 12//12
f 73//73 1//1 83//83
f 73//73 83//83 74//74
f 74//74 83//83 84//84
f 74//74 84//84 75//75
f 75//75 84//84 85//85
f 75//75 85//85 76//76
f 76//76 85//85 86//86
f 76//76 86//86 77//77
f 77//77 86//86 87//87
f 77//77 87//87 78//78
f 78//78 87//87 88//88
f 78//78 88//88 79//79
f 79//79 88//88 89//89
f 79//79 89//89 80//80
f 80//80 89//89 90//90
f 80//80 90//90 81//81
f 81//81 90//90 91//91
f 81//81 91//91 82//82
f 82//82 91//91 92//92
f 82//82 92//92 12//12
f 83//83 1//1 93//93
f 83//83 93//93 84//84
f 84//84 93//93 94//94
f 84//84 94//94 85//85
f 85//85 94//94 95//95
f 85//85 95//95 86//86
f 86//86 95//95 96//96
f 86//86 96//96 87//87
f 87//87 96//96 97//97
f 87//87 97//97 88//88
f 88//88 97//97 98//98
f 88//88 98//98 89//89
f 89//89 98//98 99//99
f 89//89 99//99 90//90
f 90//90 99//99 100//100
f 90//90 100//100 91//91
f 91//91 100//100 101//101
f 91//91 101//101 92//92
f 92//92 101//101 102//102
f 92//92 102//102 12//12
f 93//93 1//1 103//103
f 93//93 103//103 94//94
f 94//94 103//103 104//104
f 94//94 104//104 95//95
f 95//95 104//104 105//105
f 95//95 105//105 96//96
f 96//96 105//105 106//106
f 96//96 106//106 97//97
f 97//97 106//106 107//107
f 97//97 107//107 98//98
f 98//98 107//107 108//108
f 98//98 108//108 99//99
f 99//99 108//108 109//109
f 99//99 109//109 100//100
f 100//100 109//109 110//110
f 100//100 110//110 101//101
f 101//101 110//110 111//111
f 101//101 111//111 102//102
f 102//102 111//111 112//112
f 102//102 112//112 12//12
f 103//103 1//1 113//113
f 103//103 113//113 104//104
f 104//104 113//113 114//114
f 104//104 114//114 105//105
f 105//105 114//114 115//115
f 105//105 115//115 106//106
f 106//106 115//115 116//116
f 106//106 116//116 107//107
f 107//107 116//116 117//117
f 107//107 117//117 108//108
f 108//108 117//117 118//118
f 108//108 118//118 109//109
f 109//109 118//118 119//119
f 109//109 119//119 110//110
f 110//110 119//119 120//120
f 110//110 120//120 111//111
f 111//111 120//120 121//121
f 111//111 121//121 112//112
f 112//112 121//121 122//122
f 112//112 122//122 12//12
f 113//113 1//1 2//2
f 113//113 2//2 114//114
f 114//114 2//2 3//3
f 114//114 3//3 115//115
f 115//115 3//3 4//4
f 115//115 4//4 116//116
f 116//116 4//4 5//5
f 116//116 5//5 117//117
f 117//117 5//5 6//6
f 117//117 6//6 118//118
f 118//118 6//6 7//7
f 118//118 7//7 119//119
f 119//119 7//7 8//8
f 119//119 8//8 120//120
f 120//120 8//8 9//9
f 120//120 9//9 121//121
f 121//121 9//9 10//10
f 121//121 10//10 122//122
f 122//122 10//10 11//11
f 122//122 11//11 12//12

