# https://github.com/mikedh/trimesh
v -0.0222218 1.6477782 0.0400000
v -0.0209874 1.6459136 0.0421914
v -0.0204831 1.6435699 0.0442052
v -0.0207498 1.6409370 0.0458784
v -0.0217659 1.6382282 0.0470753
v -0.0234490 1.6356629 0.0476990
v -0.1156629 1.5434490 0.0476990
v -0.1182282 1.5417659 0.0470753
v -0.1209370 1.5407498 0.0458784
v -0.1235699 1.5404831 0.0442052
v -0.1259136 1.5409874 0.0421914
v -0.1277782 1.5422218 0.0400000
v -0.0219697 1.6468959 0.0429935
v -0.0223682 1.6454550 0.0457444
v -0.0233849 1.6435722 0.0480300
v -0.0249376 1.6414000 0.0496650
v -0.0269004 1.6391143 0.0505170
v -0.1191143 1.5469004 0.0505170
v -0.1214000 1.5449376 0.0496650
v -0.1235722 1.5433849 0.0480300
v -0.1254550 1.5423682 0.0457444
v -0.1268959 1.5419697 0.0429935
v -0.0231041 1.6480303 0.0429935
v -0.0245450 1.6476318 0.0457444
v -0.0264278 1.6466151 0.0480300
v -0.0286000 1.6450624 0.0496650
v -0.0308857 1.6430996 0.0505170
v -0.1230996 1.5508857 0.0505170
v -0.1250624 1.5486000 0.0496650
v -0.1266151 1.5464278 0.0480300
v -0.1276318 1.5445450 0.0457444
v -0.1280303 1.5431041 0.0429935
v -0.0240864 1.6490126 0.0421914
v -0.0264301 1.6495169 0.0442052
v -0.0290630 1.6492502 0.0458784
v -0.0317718 1.6482341 0.0470753
v -0.0343371 1.6465510 0.0476990
v -0.1265510 1.5543371 0.0476990
v -0.1282341 1.5517718 0.0470753
v -0.1292502 1.5490630 0.0458784
v -0.1295169 1.5464301 0.0442052
v -0.1290126 1.5440864 0.0421914
v -0.0246536 1.6495798 0.0408021
v -0.0275185 1.6506053 0.0415392
v -0.0305844 1.6507717 0.0421516
v -0.0336030 1.6500654 0.0425897
v -0.0363297 1.6485436 0.0428180
v -0.1285436 1.5563297 0.0428180
v -0.1300654 1.5536030 0.0425897
v -0.1307717 1.5505844 0.0421516
v -0.1306053 1.5475185 0.0415392
v -0.1295798 1.5446536 0.0408021
v -0.0246536 1.6495798 0.0391979
v -0.0275185 1.6506053 0.0384608
v -0.0305844 1.6507717 0.0378484
v -0.0336030 1.6500654 0.0374103
v -0.0363297 1.6485436 0.0371820
v -0.1285436 1.5563297 0.0371820
v -0.1300654 1.5536030 0.0374103
v -0.1307717 1.5505844 0.0378484
v -0.1306053 1.5475185 0.0384608
v -0.1295798 1.5446536 0.0391979
v -0.0240864 1.6490126 0.0378086
v -0.0264301 1.6495169 0.0357948
v -0.0290630 1.6492502 0.0341216
v -0.0317718 1.6482341 0.0329247
v -0.0343371 1.6465510 0.0323010
v -0.1265510 1.5543371 0.0323010
v -0.1282341 1.5517718 0.0329247
v -0.1292502 1.5490630 0.0341216
v -0.1295169 1.5464301 0.0357948
v -0.1290126 1.5440864 0.0378086
v -0.0231041 1.6480303 0.0370065
v -0.0245450 1.6476318 0.0342556
v -0.0264278 1.6466151 0.0319700
v -0.0286000 1.6450624 0.0303350
v -0.0308857 1.6430996 0.0294830
v -0.1230996 1.5508857 0.0294830
v -0.1250624 1.5486000 0.0303350
v -0.1266151 1.5464278 0.0319700
v -0.1276318 1.5445450 0.0342556
v -0.1280303 1.5431041 0.0370065
v -0.0219697 1.6468959 0.0370065
v -0.0223682 1.6454550 0.0342556
v -0.0233849 1.6435722 0.0319700
v -0.0249376 1.6414000 0.0303350
v -0.0269004 1.6391143 0.0294830
v -0.1191143 1.5469004 0.0294830
v -0.1214000 1.5449376 0.0303350
v -0.1235722 1.5433849 0.0319700
v -0.1254550 1.5423682 0.0342556
v -0.1268959 1.5419697 0.0370065
v -0.0209874 1.6459136 0.0378086
v -0.0204831 1.6435699 0.0357948
v -0.0207498 1.6409370 0.0341216
v -0.0217659 1.6382282 0.0329247
v -0.0234490 1.6356629 0.0323010
v -0.1156629 1.5434490 0.0323010
v -0.1182282 1.5417659 0.0329247
v -0.1209370 1.5407498 0.0341216
v -0.1235699 1.5404831 0.0357948
v -0.1259136 1.5409874 0.0378086
v -0.0204202 1.6453464 0.0391979
v -0.0193947 1.6424815 0.0384608
v -0.0192283 1.6394156 0.0378484
v -0.0199346 1.6363970 0.0374103
v -0.0214564 1.6336703 0.0371820
v -0.1136703 1.5414564 0.0371820
v -0.1163970 1.5399346 0.0374103
v -0.1194156 1.5392283 0.0378484
v -0.1224815 1.5393947 0.0384608
v -0.1253464 1.5404202 0.0391979
v -0.0204202 1.6453464 0.0408021
v -0.0193947 1.6424815 0.0415392
v -0.0192283 1.6394156 0.0421516
v -0.0199346 1.6363970 0.0425897
v -0.0214564 1.6336703 0.0428180
v -0.1136703 1.5414564 0.0428180
v -0.1163970 1.5399346 0.0425897
v -0.1194156 1.5392283 0.0421516
v -0.1224815 1.5393947 0.0415392
v -0.1253464 1.5404202 0.0408021
vn 0.7071068 0.7071068 0.0000000
vn 0.8254356 0.5221828 0.2144322
vn 0.8657597 0.3088093 0.3938235
vn 0.8377250 0.0722167 0.5412961
vn 0.7444045 -0.1691174 0.6459576
vn 0.5935098 -0.3967659 0.7002306
vn 0.3967659 -0.5935098 0.7002306
vn 0.1691174 -0.7444045 0.6459576
vn -0.0722167 -0.8377250 0.5412961
vn -0.3088093 -0.8657597 0.3938235
vn -0.5221828 -0.8254356 0.2144322
vn -0.7071068 -0.7071068 -0.0000000
vn 0.7293083 0.6183101 0.2929198
vn 0.6892135 0.4853555 0.5379728
vn 0.5950686 0.3148731 0.7394242
vn 0.4548297 0.1204574 0.8823945
vn 0.2796050 -0.0828611 0.9565329
vn 0.0828611 -0.2796050 0.9565329
vn -0.1204574 -0.4548297 0.8823945
vn -0.3148731 -0.5950686 0.7394242
vn -0.4853555 -0.6892135 0.5379728
vn -0.6183101 -0.7293083 0.2929198
vn 0.6183101 0.7293083 0.2929198
vn 0.4853555 0.6892135 0.5379728
vn 0.3148731 0.5950686 0.7394242
vn 0.1204574 0.4548297 0.8823945
vn -0.0828611 0.2796050 0.9565329
vn -0.2796050 0.0828611 0.9565329
vn -0.4548297 -0.1204574 0.8823945
vn -0.5950686 -0.3148731 0.7394242
vn -0.6892135 -0.4853555 0.5379728
vn -0.7293083 -0.6183101 0.2929198
vn 0.5221828 0.8254356 0.2144322
vn 0.3088093 0.8657597 0.3938235
vn 0.0722167 0.8377250 0.5412961
vn -0.1691174 0.7444045 0.6459576
vn -0.3967659 0.5935098 0.7002306
vn -0.5935098 0.3967659 0.7002306
vn -0.7444045 0.1691174 0.6459576
vn -0.8377250 -0.0722167 0.5412961
vn -0.8657597 -0.3088093 0.3938235
vn -0.8254356 -0.5221828 0.2144322
vn 0.4666836 0.8809348 0.0784876
vn 0.2068803 0.9676887 0.1441494
vn -0.0678810 0.9778228 0.1981281
vn -0.3363036 0.9115906 0.2364369
vn -0.5779989 0.7747428 0.2563022
vn -0.7747428 0.5779989 0.2563022
vn -0.9115906 0.3363036 0.2364369
vn -0.9778228 0.0678810 0.1981281
vn -0.9676887 -0.2068803 0.1441494
vn -0.8809348 -0.4666836 0.0784876
vn 0.4666836 0.8809348 -0.0784876
vn 0.2068803 0.9676887 -0.1441494
vn -0.0678810 0.9778228 -0.1981281
vn -0.3363036 0.9115906 -0.2364369
vn -0.5779989 0.7747428 -0.2563022
vn -0.7747428 0.5779989 -0.2563022
vn -0.9115906 0.3363036 -0.2364369
vn -0.9778228 0.0678810 -0.1981281
vn -0.9676887 -0.2068803 -0.1441494
vn -0.8809348 -0.4666836 -0.0784876
vn 0.5221828 0.8254356 -0.2144322
vn 0.3088093 0.8657597 -0.3938235
vn 0.0722167 0.8377250 -0.5412961
vn -0.1691174 0.7444045 -0.6459576
vn -0.3967659 0.5935098 -0.7002306
vn -0.5935098 0.3967659 -0.7002306
vn -0.7444045 0.1691174 -0.6459576
vn -0.8377250 -0.0722167 -0.5412961
vn -0.8657597 -0.3088093 -0.3938235
vn -0.8254356 -0.5221828 -0.2144322
vn 0.6183101 0.7293083 -0.2929198
vn 0.4853555 0.6892135 -0.5379728
vn 0.3148731 0.5950686 -0.7394242
vn 0.1204574 0.4548297 -0.8823945
vn -0.0828611 0.2796050 -0.9565329
vn -0.2796050 0.0828611 -0.9565329
vn -0.4548297 -0.1204574 -0.8823945
vn -0.5950686 -0.3148731 -0.7394242
vn -0.6892135 -0.4853555 -0.5379728
vn -0.7293083 -0.6183101 -0.2929198
vn 0.7293083 0.6183101 -0.2929198
vn 0.6892135 0.4853555 -0.5379728
vn 0.5950686 0.3148731 -0.7394242
vn 0.4548297 0.1204574 -0.8823945
vn 0.2796050 -0.0828611 -0.9565329
vn 0.0828611 -0.2796050 -0.9565329
vn -0.1204574 -0.4548297 -0.8823945
vn -0.3148731 -0.5950686 -0.7394242
vn -0.4853555 -0.6892135 -0.5379728
vn -0.6183101 -0.7293083 -0.2929198
vn 0.8254356 0.5221828 -0.2144322
vn 0.8657597 0.3088093 -0.3938235
vn 0.8377250 0.0722167 -0.5412961
vn 0.7444045 -0.1691174 -0.6459576
vn 0.5935098 -0.3967659 -0.7002306
vn 0.3967659 -0.5935098 -0.7002306
vn 0.1691174 -0.7444045 -0.6459576
vn -0.0722167 -0.8377250 -0.5412961
vn -0.3088093 -0.8657597 -0.3938235
vn -0.5221828 -0.8254356 -0.2144322
vn 0.8809348 0.4666836 -0.0784876
vn 0.9676887 0.2068803 -0.1441494
vn 0.9778228 -0.0678810 -0.1981281
vn 0.9115906 -0.3363036 -0.2364369
vn 0.7747428 -0.5779989 -0.2563022
vn 0.5779989 -0.7747428 -0.2563022
vn 0.3363036 -0.9115906 -0.2364369
vn 0.0678810 -0.9778228 -0.1981281
vn -0.2068803 -0.9676887 -0.1441494
vn -0.4666836 -0.8809348 -0.0784876
vn 0.8809348 0.4666836 0.0784876
vn 0.9676887 0.2068803 0.1441494
vn 0.9778228 -0.0678810 0.1981281
vn 0.9115906 -0.3363036 0.2364369
vn 0.7747428 -0.5779989 0.2563022
vn 0.5779989 -0.7747428 0.2563022
vn 0.3363036 -0.9115906 0.2364369
vn 0.0678810 -0.9778228 0.1981281
vn -0.2068803 -0.9676887 0.1441494
vn -0.4666836 -0.8809348 0.0784876
f 2//2 1//1 13//13
f 2//2 13//13 3//3
f 3//3 13//13 14//14
f 3//3 14//14 4//4
f 4//4 14//14 15//15
f 4//4 15//15 5//5
f 5//5 15//15 16//16
f 5//5 16//16 6//6
f 6//6 16//16 17//17
f 6//6 17//17 7//7
f 7//7 17//17 18//18
f 7//7 18//18 8//8
f 8//8 18//18 19//19
f 8//8 19//19 9//9
f 9//9 19//19 20//20
f 9//9 20//20 10//10
f 10//10 20//20 21//21
f 10//10 21//21 11//11
f 11//11 21//21 22//22
f 11//11 22//22 12//12
f 13//13 1//1 23//23
f 13//13 23//23 14//14
f 14//14 23//23 24//24
f 14//14 24//24 15//15
f 15//15 24//24 25//25
f 15//15 25//25 16//16
f 16//16 25//25 26//26
f 16//16 26//26 17//17
f 17//17 26//26 27//27
f 17//17 27//27 18//18
f 18//18 27//27 28//28
f 18//18 28//28 19//19
f 19//19 28//28 29//29
f 19//19 29//29 20//20
f 20//20 29//29 30//30
f 20//20 30//30 21//21
f 21//21 30//30 31//31
f 21//21 31//31 22//22
f 22//22 31//31 32//32
f 22//22 32//32 12//12
f 23//23 1//1 33//33
f 23//23 33//33 24//24
f 24//24 33//33 34//34
f 24//24 34//34 25//25
f 25//25 34//34 35//35
f 25//25 35//35 26//26
f 26//26 35//35 36//36
f 26//26 36//36 27//27
f 27//27 36//36 37//37
f 27//27 37//37 28//28
f 28//28 37//37 38//38
f 28//28 38//38 29//29
f 29//29 38//38 39//39
f 29//29 39//39 30//30
f 30//30 39//39 40//40
f 30//30 40//40 31//31
f 31//31 40//40 41//41
f 31//31 41//41 32//32
f 32//32 41//41 42//42
f 32//32 42//42 12//12
f 33//33 1//1 43//43
f 33//33 43//43 34//34
f 34//34 43//43 44//44
f 34//34 44//44 35//35
f 35//35 44//44 45//45
f 35//35 45//45 36//36
f 36//36 45//45 46//46
f 36//36 46//46 37//37
f 37//37 46//46 47//47
f 37//37 47//47 38//38
f 38//38 47//47 48//48
f 38//38 48//48 39//39
f 39//39 48//48 49//49
f 39//39 49//49 40//40
f 40//40 49//49 50//50
f 40//40 50//50 41//41
f 41//41 50//50 51//51
f 41//41 51//51 42//42
f 42//42 51//51 52//52
f 42//42 52//52 12//12
f 43//43 1//1 53//53
f 43//43 53//53 44//44
f 44//44 53//53 54//54
f 44//44 54//54 45//45
f 45//45 54//54 55//55
f 45//45 55//55 46//46
f 46//46 55//55 56//56
f 46//46 56//56 47//47
f 47//47 56//56 57//57
f 47//47 57//57 48//48
f 48//48 57//57 58//58
f 48//48 58//58 49//49
f 49//49 58//58 59//59
f 49//49 59//59 50//50
f 50//50 59//59 60//60
f 50//50 60//60 51//51
f 51//51 60//60 61//61
f 51//51 61//61 52//52
f 52//52 61//61 62//62
f 52//52 62//62 12//12
f 53//53 1//1 63//63
f 53//53 63//63 54//54
f 54//54 63//63 64//64
f 54//54 64//64 55//55
f 55//55 64//64 65//65
f 55//55 65//65 56//56
f 56//56 65//65 66//66
f 56//56 66//66 57//57
f 57//57 66//66 67//67
f 57//57 67//67 58//58
f 58//58 67//67 68//68
f 58//58 68//68 59//59
f 59//59 68//68 69//69
f 59//59 69//69 60//60
f 60//60 69//69 70//70
f 60//60 70//70 61//61
f 61//61 70//70 71//71
f 61//61 71//71 62//62
f 62//62 71//71 72//72
f 62//62 72//72 12//12
f 63//63 1//1 73//73
f 63//63 73//73 64//64
f 64//64 73//73 74//74
f 64//64 74//74 65//65
f 65//65 74//74 75//75
f 65//65 75//75 66//66
f 66//66 75//75 76//76
f 66//66 76//76 67//67
f 67//67 76//76 77//77
f 67//67 77//77 68//68
f 68//68 77//77 78//78
f 68//68 78//78 69//69
f 69//69 78//78 79//79
f 69//69 79//79 70//70
f 70//70 79//79 80//80
f 70//70 80//80 71//71
f 71//71 80//80 81//81
f 71//71 81//81 72//72
f 72//72 81//81 82//82
f 72//72 82//82 12//12
f 73//73 1//1 83//83
f 73//73 83//83 74//74
f 74//74 83//83 84//84
f 74//74 84//84 75//75
f 75//75 84//84 85//85
f 75//75 85//85 76//76
f 76//76 85//85 86//86
f 76//76 86//86 77//77
f 77//77 86//86 87//87
f 77//77 87//87 78//78
f 78//78 87//87 88//88
f 78//78 88//88 79//79
f 79//79 88//88 89//89
f 79//79 89//89 80//80
f 80//80 89//89 90//90
f 80//80 90//90 81//81
f 81//81 90//90 91//91
f 81//81 91//91 82//82
f 82//82 91//91 92//92
f 82//82 92//92 12//12
f 83//83 1//1 93//93
f 83//83 93//93 84//84
f 84//84 93//93 94//94
f 84//84 94//94 85//85
f 85//85 94//94 95//95
f 85//85 95//95 86//86
f 86//86 95//95 96//96
f 86//86 96//96 87//87
f 87//87 96//96 97//97
f 87//87 97//97 88//88
f 88//88 97//97 98//98
f 88//88 98//98 89//89
f 89//89 98//98 99//99
f 89//89 99//99 90//90
f 90//90 99//99 100//100
f 90//90 100//100 91//91
f 91//91 100//100 101//101
f 91//91 101//101 92//92
f 92//92 101//101 102//102
f 92//92 102//102 12//12
f 93//93 1//1 103//103
f 93//93 103//103 94//94
f 94//94 103//103 104//104
f 94//94 104//104 95//95
f 95//95 104//104 105//105
f 95//95 105//105 96//96
f 96//96 105//105 106//106
f 96//96 106//106 97//97
f 97//97 106//106 107//107
f 97//97 107//107 98//98
f 98//98 107//107 108//108
f 98//98 108//108 99//99
f 99//99 108//108 109//109
f 99//99 109//109 100//100
f 100//100 109//109 110//110
f 100//100 110//110 101//101
f 101//101 110//110 111//111
f 101//101 111//111 102//102
f 102//102 111//111 112//112
f 102//102 112//112 12//12
f 103//103 1//1 113//113
f 103//103 113//113 104//104
f 104//104 113//113 114//114
f 104//104 114//114 105//105
f 105//105 114//114 115//115
f 105//105 115//115 106//106
f 106//106 115//115 116//116
f 106//106 116//116 107//107
f 107//107 116//116 117//117
f 107//107 117//117 108//108
f 108//108 117//117 118//118
f 108//108 118//118 109//109
f 109//109 118//118 119//119
f 109//109 119//119 110//110
f 110//110 119//119 120//120
f 110//110 120//120 111//111
f 111//111 120//120 121//121
f 111//111 121//121 112//112
f 112//112 121//121 122//122
f 112//112 122//122 12//12
f 113//113 1//1 2//2
f 113//113 2//2 114//114
f 114//114 2//2 3//3
f 114//114 3//3 115//115
f 115//115 3//3 4//4
f 115//115 4//4 116//116
f 116//116 4//4 5//5
f 116//116 5//5 117//117
f 117//117 5//5 6//6
f 117//117 6//6 118//118
f 118//118 6//6 7//7
f 118//118 7//7 119//119
f 119//119 7//7 8//8
f 119//119 8//8 120//120
f 120//120 8//8 9//9
f 120//120 9//9 121//121
f 121//121 9//9 10//10
f 121//121 10//10 122//122
f 122//122 10//10 11//11
f 122//122 11//11 12//12

