# https://github.com/mikedh/trimesh
v 0.0430807 1.6130709 0.1038484
v 0.0442417 1.6132928 0.1032614
v 0.0454941 1.6131175 0.1028841
v 0.0466870 1.6125663 0.1027621
v 0.0476764 1.6117055 0.1029099
v 0.0733429 1.5706390 0.1183098
v 0.0736063 1.5694954 0.1189136
v 0.0734347 1.5684127 0.1196485
v 0.0728488 1.5675214 0.1204257
v 0.0719193 1.5669291 0.1211516
v 0.0442814 1.6135961 0.1040042
v 0.0455687 1.6136876 0.1042800
v 0.0467874 1.6133343 0.1046427
v 0.0477906 1.6125788 0.1050485
v 0.0734571 1.5715123 0.1204484
v 0.0737067 1.5702634 0.1207943
v 0.0735092 1.5689827 0.1210443
v 0.0728884 1.5678248 0.1211684
v 0.0439066 1.6136280 0.1047139
v 0.0448644 1.6137476 0.1056139
v 0.0458386 1.6134152 0.1064399
v 0.0467116 1.6126708 0.1070921
v 0.0723782 1.5716043 0.1224921
v 0.0727579 1.5703443 0.1225914
v 0.0728050 1.5690428 0.1223782
v 0.0725137 1.5678567 0.1218782
v 0.0432606 1.6133764 0.1051196
v 0.0436504 1.6132748 0.1063764
v 0.0442029 1.6127781 0.1074671
v 0.0448515 1.6119464 0.1082603
v 0.0705181 1.5708799 0.1236602
v 0.0711222 1.5697072 0.1236187
v 0.0715909 1.5685699 0.1231407
v 0.0718677 1.5676051 0.1222839
v 0.0425901 1.6129374 0.1050663
v 0.0423902 1.6124496 0.1062762
v 0.0425051 1.6116664 0.1073321
v 0.0429209 1.6106821 0.1081068
v 0.0685875 1.5696156 0.1235067
v 0.0694244 1.5685955 0.1234837
v 0.0703308 1.5677448 0.1230405
v 0.0711972 1.5671660 0.1222305
v 0.0421512 1.6124786 0.1045743
v 0.0415653 1.6115873 0.1053515
v 0.0413937 1.6105046 0.1060864
v 0.0416571 1.6093610 0.1066902
v 0.0673236 1.5682945 0.1220901
v 0.0683130 1.5674337 0.1222379
v 0.0695059 1.5668825 0.1221159
v 0.0707583 1.5667072 0.1217386
v 0.0421116 1.6121752 0.1038316
v 0.0414908 1.6110173 0.1039557
v 0.0412933 1.6097366 0.1042057
v 0.0415429 1.6084877 0.1045516
v 0.0672094 1.5674212 0.1199515
v 0.0682126 1.5666657 0.1203573
v 0.0694313 1.5663124 0.1207200
v 0.0707186 1.5664039 0.1209958
v 0.0424863 1.6121433 0.1031218
v 0.0421950 1.6109572 0.1026218
v 0.0422421 1.6096557 0.1024086
v 0.0426218 1.6083957 0.1025079
v 0.0682884 1.5673292 0.1179079
v 0.0691614 1.5665848 0.1185601
v 0.0701356 1.5662524 0.1193861
v 0.0710934 1.5663720 0.1202861
v 0.0431323 1.6123949 0.1027161
v 0.0434091 1.6114301 0.1018593
v 0.0438778 1.6102928 0.1013813
v 0.0444819 1.6091201 0.1013398
v 0.0701485 1.5680536 0.1167397
v 0.0707971 1.5672219 0.1175329
v 0.0713496 1.5667252 0.1186236
v 0.0717394 1.5666236 0.1198804
v 0.0438028 1.6128340 0.1027695
v 0.0446692 1.6122552 0.1019595
v 0.0455756 1.6114045 0.1015163
v 0.0464125 1.6103844 0.1014933
v 0.0720791 1.5693179 0.1168932
v 0.0724949 1.5683336 0.1176679
v 0.0726098 1.5675504 0.1187238
v 0.0724099 1.5670626 0.1199337
vn -0.5050763 0.8081220 -0.3030458
vn -0.1697666 0.8666510 -0.4691432
vn 0.1540416 0.8129898 -0.5615325
vn 0.4576730 0.6663183 -0.5886896
vn 0.7078945 0.4446074 -0.5488257
vn 0.8776765 0.1729562 -0.4469565
vn 0.9483107 -0.1187021 -0.2943069
vn 0.9110118 -0.3981625 -0.1073504
vn 0.7679344 -0.6336708 0.0934774
vn 0.5050763 -0.8081220 0.3030458
vn -0.1584154 0.9534411 -0.2566217
vn 0.1742527 0.9675219 -0.1831323
vn 0.4843538 0.8703170 -0.0891611
vn 0.7379833 0.6746630 0.0145079
vn 0.9077653 0.4030118 0.1163771
vn 0.9749916 0.0852966 0.2052216
vn 0.9312229 -0.2436305 0.2710498
vn 0.7792857 -0.5468807 0.3059990
vn -0.2656399 0.9625850 -0.0535303
vn -0.0166632 0.9838029 0.1784772
vn 0.2323245 0.8918098 0.3882019
vn 0.4537621 0.6989010 0.5528447
vn 0.6235441 0.4272498 0.6547139
vn 0.7229623 0.1067894 0.6825845
vn 0.7403070 -0.2273494 0.6326593
vn 0.6720612 -0.5377367 0.5090903
vn -0.4504839 0.8905902 0.0625568
vn -0.3457828 0.8556143 0.3851733
vn -0.2021484 0.7225871 0.6610628
vn -0.0362063 0.5080634 0.8605583
vn 0.1335757 0.2364122 0.9624276
vn 0.2884894 -0.0624333 0.9554454
vn 0.4111874 -0.3555381 0.8393555
vn 0.4872172 -0.6097315 0.6251775
vn -0.6423433 0.7649561 0.0472984
vn -0.6873936 0.6319195 0.3580053
vn -0.6531109 0.4272862 0.6251981
vn -0.5447706 0.1750436 0.8201127
vn -0.3749886 -0.0966076 0.9219819
vn -0.1624731 -0.3577342 0.9195807
vn 0.0695766 -0.5792328 0.8121874
vn 0.2953577 -0.7353656 0.6099190
vn -0.7679344 0.6336708 -0.0934774
vn -0.9110118 0.3981625 0.1073504
vn -0.9483107 0.1187021 0.2943069
vn -0.8776765 -0.1729562 0.4469565
vn -0.7078945 -0.4446074 0.5488257
vn -0.4576730 -0.6663183 0.5886896
vn -0.1540416 -0.8129898 0.5615325
vn 0.1697666 -0.8666510 0.4691432
vn -0.7792857 0.5468807 -0.3059990
vn -0.9312229 0.2436305 -0.2710498
vn -0.9749916 -0.0852966 -0.2052216
vn -0.9077653 -0.4030118 -0.1163771
vn -0.7379833 -0.6746630 -0.0145079
vn -0.4843538 -0.8703170 0.0891611
vn -0.1742527 -0.9675219 0.1831323
vn 0.1584154 -0.9534411 0.2566217
vn -0.6720612 0.5377367 -0.5090903
vn -0.7403070 0.2273494 -0.6326593
vn -0.7229623 -0.1067894 -0.6825845
vn -0.6235441 -0.4272498 -0.6547139
vn -0.4537621 -0.6989010 -0.5528447
vn -0.2323245 -0.8918098 -0.3882019
vn 0.0166632 -0.9838029 -0.1784772
vn 0.2656399 -0.9625850 0.0535303
vn -0.4872172 0.6097315 -0.6251775
vn -0.4111874 0.3555381 -0.8393555
vn -0.2884894 0.0624333 -0.9554454
vn -0.1335757 -0.2364122 -0.9624276
vn 0.0362063 -0.5080634 -0.8605583
vn 0.2021484 -0.7225871 -0.6610628
vn 0.3457828 -0.8556143 -0.3851733
vn 0.4504839 -0.8905902 -0.0625568
vn -0.2953577 0.7353656 -0.6099190
vn -0.0695766 0.5792328 -0.8121874
vn 0.1624731 0.3577342 -0.9195807
vn 0.3749886 0.0966076 -0.9219819
vn 0.5447706 -0.1750436 -0.8201127
vn 0.6531109 -0.4272862 -0.6251981
vn 0.6873936 -0.6319195 -0.3580053
vn 0.6423433 -0.7649561 -0.0472984
f 2//2 1//1 11//11
f 2//2 11//11 3//3
f 3//3 11//11 12//12
f 3//3 12//12 4//4
f 4//4 12//12 13//13
f 4//4 13//13 5//5
f 5//5 13//13 14//14
f 5//5 14//14 6//6
f 6//6 14//14 15//15
f 6//6 15//15 7//7
f 7//7 15//15 16//16
f 7//7 16//16 8//8
f 8//8 16//16 17//17
f 8//8 17//17 9//9
f 9//9 17//17 18//18
f 9//9 18//18 10//10
f 11//11 1//1 19//19
f 11//11 19//19 12//12
f 12//12 19//19 20//20
f 12//12 20//20 13//13
f 13//13 20//20 21//21
f 13//13 21//21 14//14
f 14//14 21//21 22//22
f 14//14 22//22 15//15
f 15//15 22//22 23//23
f 15//15 23//23 16//16
f 16//16 23//23 24//24
f 16//16 24//24 17//17
f 17//17 24//24 25//25
f 17//17 25//25 18//18
f 18//18 25//25 26//26
f 18//18 26//26 10//10
f 19//19 1//1 27//27
f 19//19 27//27 20//20
f 20//20 27//27 28//28
f 20//20 28//28 21//21
f 21//21 28//28 29//29
f 21//21 29//29 22//22
f 22//22 29//29 30//30
f 22//22 30//30 23//23
f 23//23 30//30 31//31
f 23//23 31//31 24//24
f 24//24 31//31 32//32
f 24//24 32//32 25//25
f 25//25 32//32 33//33
f 25//25 33//33 26//26
f 26//26 33//33 34//34
f 26//26 34//34 10//10
f 27//27 1//1 35//35
f 27//27 35//35 28//28
f 28//28 35//35 36//36
f 28//28 36//36 29//29
f 29//29 36//36 37//37
f 29//29 37//37 30//30
f 30//30 37//37 38//38
f 30//30 38//38 31//31
f 31//31 38//38 39//39
f 31//31 39//39 32//32
f 32//32 39//39 40//40
f 32//32 40//40 33//33
f 33//33 40//40 41//41
f 33//33 41//41 34//34
f 34//34 41//41 42//42
f 34//34 42//42 10//10
f 35//35 1//1 43//43
f 35//35 43//43 36//36
f 36//36 43//43 44//44
f 36//36 44//44 37//37
f 37//37 44//44 45//45
f 37//37 45//45 38//38
f 38//38 45//45 46//46
f 38//38 46//46 39//39
f 39//39 46//46 47//47
f 39//39 47//47 40//40
f 40//40 47//47 48//48
f 40//40 48//48 41//41
f 41//41 48//48 49//49
f 41//41 49//49 42//42
f 42//42 49//49 50//50
f 42//42 50//50 10//10
f 43//43 1//1 51//51
f 43//43 51//51 44//44
f 44//44 51//51 52//52
f 44//44 52//52 45//45
f 45//45 52//52 53//53
f 45//45 53//53 46//46
f 46//46 53//53 54//54
f 46//46 54//54 47//47
f 47//47 54//54 55//55
f 47//47 55//55 48//48
f 48//48 55//55 56//56
f 48//48 56//56 49//49
f 49//49 56//56 57//57
f 49//49 57//57 50//50
f 50//50 57//57 58//58
f 50//50 58//58 10//10
f 51//51 1//1 59//59
f 51//51 59//59 52//52
f 52//52 59//59 60//60
f 52//52 60//60 53//53
f 53//53 60//60 61//61
f 53//53 61//61 54//54
f 54//54 61//61 62//62
f 54//54 62//62 55//55
f 55//55 62//62 63//63
f 55//55 63//63 56//56
f 56//56 63//63 64//64
f 56//56 64//64 57//57
f 57//57 64//64 65//65
f 57//57 65//65 58//58
f 58//58 65//65 66//66
f 58//58 66//66 10//10
f 59//59 1//1 67//67
f 59//59 67//67 60//60
f 60//60 67//67 68//68
f 60//60 68//68 61//61
f 61//61 68//68 69//69
f 61//61 69//69 62//62
f 62//62 69//69 70//70
f 62//62 70//70 63//63
f 63//63 70//70 71//71
f 63//63 71//71 64//64
f 64//64 71//71 72//72
f 64//64 72//72 65//65
f 65//65 72//72 73//73
f 65//65 73//73 66//66
f 66//66 73//73 74//74
f 66//66 74//74 10//10
f 67//67 1//1 75//75
f 67//67 75//75 68//68
f 68//68 75//75 76//76
f 68//68 76//76 69//69
f 69//69 76//76 77//77
f 69//69 77//77 70//70
f 70//70 77//77 78//78
f 70//70 78//78 71//71
f 71//71 78//78 79//79
f 71//71 79//79 72//72
f 72//72 79//79 80//80
f 72//72 80//80 73//73
f 73//73 80//80 81//81
f 73//73 81//81 74//74
f 74//74 81//81 82//82
f 74//74 82//82 10//10
f 75//75 1//1 2//2
f 75//75 2//2 76//76
f 76//76 2//2 3//3
f 76//76 3//3 77//77
f 77//77 3//3 4//4
f 77//77 4//4 78//78
f 78//78 4//4 5//5
f 78//78 5//5 79//79
f 79//79 5//5 6//6
f 79//79 6//6 80//80
f 80//80 6//6 7//7
f 80//80 7//7 81//81
f 81//81 7//7 8//8
f 81//81 8//8 82//82
f 82//82 8//8 9//9
f 82//82 9//9 10//10

