# https://github.com/mikedh/trimesh
v 0.1340000 -2.3345585 0.1191998
v 0.1358811 -2.3348867 0.1192480
v 0.1375353 -2.3358316 0.1193870
v 0.1387631 -2.3372793 0.1195999
v 0.1394164 -2.3390551 0.1198610
v 0.1394164 -2.3749449 0.1251390
v 0.1387631 -2.3767207 0.1254001
v 0.1375353 -2.3781684 0.1256130
v 0.1358811 -2.3791133 0.1257520
v 0.1340000 -2.3794415 0.1258002
v 0.1355219 -2.3347258 0.1203420
v 0.1368601 -2.3355292 0.1214429
v 0.1378535 -2.3368719 0.1223698
v 0.1383820 -2.3385919 0.1230109
v 0.1383820 -2.3744817 0.1282888
v 0.1378535 -2.3763134 0.1281700
v 0.1368601 -2.3778661 0.1276689
v 0.1355219 -2.3789524 0.1268459
v 0.1345813 -2.3346264 0.1210180
v 0.1350925 -2.3353424 0.1227135
v 0.1354719 -2.3366202 0.1240817
v 0.1356738 -2.3383056 0.1249576
v 0.1356738 -2.3741954 0.1302355
v 0.1354719 -2.3760616 0.1298819
v 0.1350925 -2.3776792 0.1289395
v 0.1345813 -2.3788530 0.1275220
v 0.1334187 -2.3346264 0.1210180
v 0.1329075 -2.3353424 0.1227135
v 0.1325281 -2.3366202 0.1240817
v 0.1323262 -2.3383056 0.1249576
v 0.1323262 -2.3741954 0.1302355
v 0.1325281 -2.3760616 0.1298819
v 0.1329075 -2.3776792 0.1289395
v 0.1334187 -2.3788530 0.1275220
v 0.1324781 -2.3347258 0.1203420
v 0.1311399 -2.3355292 0.1214429
v 0.1301465 -2.3368719 0.1223698
v 0.1296180 -2.3385919 0.1230109
v 0.1296180 -2.3744817 0.1282888
v 0.1301465 -2.3763134 0.1281700
v 0.1311399 -2.3778661 0.1276689
v 0.1324781 -2.3789524 0.1268459
v 0.1321189 -2.3348867 0.1192480
v 0.1304647 -2.3358316 0.1193870
v 0.1292369 -2.3372793 0.1195999
v 0.1285836 -2.3390551 0.1198610
v 0.1285836 -2.3749449 0.1251390
v 0.1292369 -2.3767207 0.1254001
v 0.1304647 -2.3781684 0.1256130
v 0.1321189 -2.3791133 0.1257520
v 0.1324781 -2.3350476 0.1181541
v 0.1311399 -2.3361339 0.1173311
v 0.1301465 -2.3376866 0.1168300
v 0.1296180 -2.3395183 0.1167112
v 0.1296180 -2.3754081 0.1219891
v 0.1301465 -2.3771281 0.1226302
v 0.1311399 -2.3784708 0.1235571
v 0.1324781 -2.3792742 0.1246580
v 0.1334187 -2.3351470 0.1174780
v 0.1329075 -2.3363208 0.1160605
v 0.1325281 -2.3379384 0.1151181
v 0.1323262 -2.3398046 0.1147645
v 0.1323262 -2.3756944 0.1200424
v 0.1325281 -2.3773798 0.1209183
v 0.1329075 -2.3786576 0.1222865
v 0.1334187 -2.3793736 0.1239820
v 0.1345813 -2.3351470 0.1174780
v 0.1350925 -2.3363208 0.1160605
v 0.1354719 -2.3379384 0.1151181
v 0.1356738 -2.3398046 0.1147645
v 0.1356738 -2.3756944 0.1200424
v 0.1354719 -2.3773798 0.1209183
v 0.1350925 -2.3786576 0.1222865
v 0.1345813 -2.3793736 0.1239820
v 0.1355219 -2.3350476 0.1181541
v 0.1368601 -2.3361339 0.1173311
v 0.1378535 -2.3376866 0.1168300
v 0.1383820 -2.3395183 0.1167112
v 0.1383820 -2.3754081 0.1219891
v 0.1378535 -2.3771281 0.1226302
v 0.1368601 -2.3784708 0.1235571
v 0.1355219 -2.3792742 0.1246580
vn -0.0000000 0.9893591 -0.1454940
vn 0.3718902 0.9183991 -0.1350587
vn 0.6621602 0.7413884 -0.1090277
vn 0.8741219 0.4805382 -0.0706674
vn 0.9857741 0.1662871 -0.0244540
vn 0.9857741 -0.1662871 0.0244540
vn 0.8741219 -0.4805382 0.0706674
vn 0.6621602 -0.7413884 0.1090277
vn 0.3718902 -0.9183991 0.1350587
vn 0.0000000 -0.9893591 0.1454940
vn 0.3008655 0.9502028 0.0812069
vn 0.5356989 0.7980158 0.2760388
vn 0.7071795 0.5552925 0.4376613
vn 0.7975080 0.2505898 0.5488039
vn 0.7975080 -0.0819845 0.5977119
vn 0.7071795 -0.4057840 0.5789961
vn 0.5356989 -0.6847610 0.4940942
vn 0.3008655 -0.8865953 0.3513243
vn 0.1149204 0.9698586 0.2148664
vn 0.2046188 0.8330135 0.5140230
vn 0.2701185 0.6014931 0.7518258
vn 0.3046210 0.3026917 0.9030968
vn 0.3046210 -0.0298826 0.9520048
vn 0.2701185 -0.3595834 0.8931606
vn 0.2046188 -0.6497633 0.7320784
vn 0.1149204 -0.8669395 0.4849837
vn -0.1149204 0.9698586 0.2148664
vn -0.2046188 0.8330135 0.5140230
vn -0.2701185 0.6014931 0.7518258
vn -0.3046210 0.3026917 0.9030968
vn -0.3046210 -0.0298826 0.9520048
vn -0.2701185 -0.3595834 0.8931606
vn -0.2046188 -0.6497633 0.7320784
vn -0.1149204 -0.8669395 0.4849837
vn -0.3008655 0.9502028 0.0812069
vn -0.5356989 0.7980158 0.2760388
vn -0.7071795 0.5552925 0.4376613
vn -0.7975080 0.2505898 0.5488039
vn -0.7975080 -0.0819845 0.5977119
vn -0.7071795 -0.4057840 0.5789961
vn -0.5356989 -0.6847610 0.4940942
vn -0.3008655 -0.8865953 0.3513243
vn -0.3718902 0.9183991 -0.1350587
vn -0.6621602 0.7413884 -0.1090277
vn -0.8741219 0.4805382 -0.0706674
vn -0.9857741 0.1662871 -0.0244540
vn -0.9857741 -0.1662871 0.0244540
vn -0.8741219 -0.4805382 0.0706674
vn -0.6621602 -0.7413884 0.1090277
vn -0.3718902 -0.9183991 0.1350587
vn -0.3008655 0.8865953 -0.3513243
vn -0.5356989 0.6847610 -0.4940942
vn -0.7071795 0.4057840 -0.5789961
vn -0.7975080 0.0819845 -0.5977119
vn -0.7975080 -0.2505898 -0.5488039
vn -0.7071795 -0.5552925 -0.4376613
vn -0.5356989 -0.7980158 -0.2760388
vn -0.3008655 -0.9502028 -0.0812069
vn -0.1149204 0.8669395 -0.4849837
vn -0.2046188 0.6497633 -0.7320784
vn -0.2701185 0.3595834 -0.8931606
vn -0.3046210 0.0298826 -0.9520048
vn -0.3046210 -0.3026917 -0.9030968
vn -0.2701185 -0.6014931 -0.7518258
vn -0.2046188 -0.8330135 -0.5140230
vn -0.1149204 -0.9698586 -0.2148664
vn 0.1149204 0.8669395 -0.4849837
vn 0.2046188 0.6497633 -0.7320784
vn 0.2701185 0.3595834 -0.8931606
vn 0.3046210 0.0298826 -0.9520048
vn 0.3046210 -0.3026917 -0.9030968
vn 0.2701185 -0.6014931 -0.7518258
vn 0.2046188 -0.8330135 -0.5140230
vn 0.1149204 -0.9698586 -0.2148664
vn 0.3008655 0.8865953 -0.3513243
vn 0.5356989 0.6847610 -0.4940942
vn 0.7071795 0.4057840 -0.5789961
vn 0.7975080 0.0819845 -0.5977119
vn 0.7975080 -0.2505898 -0.5488039
vn 0.7071795 -0.5552925 -0.4376613
vn 0.5356989 -0.7980158 -0.2760388
vn 0.3008655 -0.9502028 -0.0812069
f 2//2 1//1 11//11
f 2//2 11//11 3//3
f 3//3 11//11 12//12
f 3//3 12//12 4//4
f 4//4 12//12 13//13
f 4//4 13//13 5//5
f 5//5 13//13 14//14
f 5//5 14//14 6//6
f 6//6 14//14 15//15
f 6//6 15//15 7//7
f 7//7 15//15 16//16
f 7//7 16//16 8//8
f 8//8 16//16 17//17
f 8//8 17//17 9//9
f 9//9 17//17 18//18
f 9//9 18//18 10//10
f 11//11 1//1 19//19
f 11//11 19//19 12//12
f 12//12 19//19 20//20
f 12//12 20//20 13//13
f 13//13 20//20 21//21
f 13//13 21//21 14//14
f 14//14 21//21 22//22
f 14//14 22//22 15//15
f 15//15 22//22 23//23
f 15//15 23//23 16//16
f 16//16 23//23 24//24
f 16//16 24//24 17//17
f 17//17 24//24 25//25
f 17//17 25//25 18//18
f 18//18 25//25 26//26
f 18//18 26//26 10//10
f 19//19 1//1 27//27
f 19//19 27//27 20//20
f 20//20 27//27 28//28
f 20//20 28//28 21//21
f 21//21 28//28 29//29
f 21//21 29//29 22//22
f 22//22 29//29 30//30
f 22//22 30//30 23//23
f 23//23 30//30 31//31
f 23//23 31//31 24//24
f 24//24 31//31 32//32
f 24//24 32//32 25//25
f 25//25 32//32 33//33
f 25//25 33//33 26//26
f 26//26 33//33 34//34
f 26//26 34//34 10//10
f 27//27 1//1 35//35
f 27//27 35//35 28//28
f 28//28 35//35 36//36
f 28//28 36//36 29//29
f 29//29 36//36 37//37
f 29//29 37//37 30//30
f 30//30 37//37 38//38
f 30//30 38//38 31//31
f 31//31 38//38 39//39
f 31//31 39//39 32//32
f 32//32 39//39 40//40
f 32//32 40//40 33//33
f 33//33 40//40 41//41
f 33//33 41//41 34//34
f 34//34 41//41 42//42
f 34//34 42//42 10//10
f 35//35 1//1 43//43
f 35//35 43//43 36//36
f 36//36 43//43 44//44
f 36//36 44//44 37//37
f 37//37 44//44 45//45
f 37//37 45//45 38//38
f 38//38 45//45 46//46
f 38//38 46//46 39//39
f 39//39 46//46 47//47
f 39//39 47//47 40//40
f 40//40 47//47 48//48
f 40//40 48//48 41//41
f 41//41 48//48 49//49
f 41//41 49//49 42//42
f 42//42 49//49 50//50
f 42//42 50//50 10//10
f 43//43 1//1 51//51
f 43//43 51//51 44//44
f 44//44 51//51 52//52
f 44//44 52//52 45//45
f 45//45 52//52 53//53
f 45//45 53//53 46//46
f 46//46 53//53 54//54
f 46//46 54//54 47//47
f 47//47 54//54 55//55
f 47//47 55//55 48//48
f 48//48 55//55 56//56
f 48//48 56//56 49//49
f 49//49 56//56 57//57
f 49//49 57//57 50//50
f 50//50 57//57 58//58
f 50//50 58//58 10//10
f 51//51 1//1 59//59
f 51//51 59//59 52//52
f 52//52 59//59 60//60
f 52//52 60//60 53//53
f 53//53 60//60 61//61
f 53//53 61//61 54//54
f 54//54 61//61 62//62
f 54//54 62//62 55//55
f 55//55 62//62 63//63
f 55//55 63//63 56//56
f 56//56 63//63 64//64
f 56//56 64//64 57//57
f 57//57 64//64 65//65
f 57//57 65//65 58//58
f 58//58 65//65 66//66
f 58//58 66//66 10//10
f 59//59 1//1 67//67
f 59//59 67//67 60//60
f 60//60 67//67 68//68
f 60//60 68//68 61//61
f 61//61 68//68 69//69
f 61//61 69//69 62//62
f 62//62 69//69 70//70
f 62//62 70//70 63//63
f 63//63 70//70 71//71
f 63//63 71//71 64//64
f 64//64 71//71 72//72
f 64//64 72//72 65//65
f 65//65 72//72 73//73
f 65//65 73//73 66//66
f 66//66 73//73 74//74
f 66//66 74//74 10//10
f 67//67 1//1 75//75
f 67//67 75//75 68//68
f 68//68 75//75 76//76
f 68//68 76//76 69//69
f 69//69 76//76 77//77
f 69//69 77//77 70//70
f 70//70 77//77 78//78
f 70//70 78//78 71//71
f 71//71 78//78 79//79
f 71//71 79//79 72//72
f 72//72 79//79 80//80
f 72//72 80//80 73//73
f 73//73 80//80 81//81
f 73//73 81//81 74//74
f 74//74 81//81 82//82
f 74//74 82//82 10//10
f 75//75 1//1 2//2
f 75//75 2//2 76//76
f 76//76 2//2 3//3
f 76//76 3//3 77//77
f 77//77 3//3 4//4
f 77//77 4//4 78//78
f 78//78 4//4 5//5
f 78//78 5//5 79//79
f 79//79 5//5 6//6
f 79//79 6//6 80//80
f 80//80 6//6 7//7
f 80//80 7//7 81//81
f 81//81 7//7 8//8
f 81//81 8//8 82//82
f 82//82 8//8 9//9
f 82//82 9//9 10//10

