# https://github.com/mikedh/trimesh
v 0.6150000 -0.0270489 0.0241165
v 0.6172539 -0.0273710 0.0241523
v 0.6193251 -0.0283111 0.0242568
v 0.6210460 -0.0297932 0.0244215
v 0.6222771 -0.0316970 0.0246330
v 0.6229186 -0.0338684 0.0248743
v 0.6229186 -0.1261316 0.0351257
v 0.6222771 -0.1283030 0.0353670
v 0.6210460 -0.1302068 0.0355785
v 0.6193251 -0.1316889 0.0357432
v 0.6172539 -0.1326290 0.0358477
v 0.6150000 -0.1329511 0.0358835
v 0.6169519 -0.0272466 0.0252724
v 0.6187457 -0.0280723 0.0264061
v 0.6202360 -0.0294593 0.0274260
v 0.6213021 -0.0312952 0.0282493
v 0.6218577 -0.0334312 0.0288093
v 0.6218577 -0.1256943 0.0390608
v 0.6213021 -0.1279012 0.0389833
v 0.6202360 -0.1298730 0.0385830
v 0.6187457 -0.1314501 0.0378925
v 0.6169519 -0.1325045 0.0369677
v 0.6161269 -0.0271555 0.0260923
v 0.6171626 -0.0278975 0.0279796
v 0.6180230 -0.0292149 0.0296254
v 0.6186385 -0.0310011 0.0308966
v 0.6189593 -0.0331111 0.0316900
v 0.6189593 -0.1253743 0.0419415
v 0.6186385 -0.1276070 0.0416306
v 0.6180230 -0.1296286 0.0407825
v 0.6171626 -0.1312752 0.0394660
v 0.6161269 -0.1324134 0.0377876
v 0.6150000 -0.0271221 0.0263924
v 0.6150000 -0.0278335 0.0285555
v 0.6150000 -0.0291255 0.0304305
v 0.6150000 -0.0308934 0.0318655
v 0.6150000 -0.0329940 0.0327444
v 0.6150000 -0.1252571 0.0429959
v 0.6150000 -0.1274994 0.0425995
v 0.6150000 -0.1295392 0.0415876
v 0.6150000 -0.1312112 0.0400419
v 0.6150000 -0.1323801 0.0380877
v 0.6138731 -0.0271555 0.0260923
v 0.6128374 -0.0278975 0.0279796
v 0.6119770 -0.0292149 0.0296254
v 0.6113615 -0.0310011 0.0308966
v 0.6110407 -0.0331111 0.0316900
v 0.6110407 -0.1253743 0.0419415
v 0.6113615 -0.1276070 0.0416306
v 0.6119770 -0.1296286 0.0407825
v 0.6128374 -0.1312752 0.0394660
v 0.6138731 -0.1324134 0.0377876
v 0.6130481 -0.0272466 0.0252724
v 0.6112543 -0.0280723 0.0264061
v 0.6097640 -0.0294593 0.0274260
v 0.6086979 -0.0312952 0.0282493
v 0.6081423 -0.0334312 0.0288093
v 0.6081423 -0.1256943 0.0390608
v 0.6086979 -0.1279012 0.0389833
v 0.6097640 -0.1298730 0.0385830
v 0.6112543 -0.1314501 0.0378925
v 0.6130481 -0.1325045 0.0369677
v 0.6127461 -0.0273710 0.0241523
v 0.6106749 -0.0283111 0.0242568
v 0.6089540 -0.0297932 0.0244215
v 0.6077229 -0.0316970 0.0246330
v 0.6070814 -0.0338684 0.0248743
v 0.6070814 -0.1261316 0.0351257
v 0.6077229 -0.1283030 0.0353670
v 0.6089540 -0.1302068 0.0355785
v 0.6106749 -0.1316889 0.0357432
v 0.6127461 -0.1326290 0.0358477
v 0.6130481 -0.0274955 0.0230323
v 0.6112543 -0.0285499 0.0221075
v 0.6097640 -0.0301270 0.0214170
v 0.6086979 -0.0320988 0.0210167
v 0.6081423 -0.0343057 0.0209392
v 0.6081423 -0.1265688 0.0311907
v 0.6086979 -0.1287048 0.0317507
v 0.6097640 -0.1305407 0.0325740
v 0.6112543 -0.1319277 0.0335939
v 0.6130481 -0.1327534 0.0347276
v 0.6138731 -0.0275866 0.0222124
v 0.6128374 -0.0287248 0.0205340
v 0.6119770 -0.0303714 0.0192175
v 0.6113615 -0.0323930 0.0183694
v 0.6110407 -0.0346257 0.0180585
v 0.6110407 -0.1268889 0.0283100
v 0.6113615 -0.1289989 0.0291034
v 0.6119770 -0.1307851 0.0303746
v 0.6128374 -0.1321025 0.0320204
v 0.6138731 -0.1328445 0.0339077
v 0.6150000 -0.0276199 0.0219123
v 0.6150000 -0.0287888 0.0199581
v 0.6150000 -0.0304608 0.0184124
v 0.6150000 -0.0325006 0.0174005
v 0.6150000 -0.0347429 0.0170041
v 0.6150000 -0.1270060 0.0272556
v 0.6150000 -0.1291066 0.0281345
v 0.6150000 -0.1308745 0.0295695
v 0.6150000 -0.1321665 0.0314445
v 0.6150000 -0.1328779 0.0336076
v 0.6161269 -0.0275866 0.0222124
v 0.6171626 -0.0287248 0.0205340
v 0.6180230 -0.0303714 0.0192175
v 0.6186385 -0.0323930 0.0183694
v 0.6189593 -0.0346257 0.0180585
v 0.6189593 -0.1268889 0.0283100
v 0.6186385 -0.1289989 0.0291034
v 0.6180230 -0.1307851 0.0303746
v 0.6171626 -0.1321025 0.0320204
v 0.6161269 -0.1328445 0.0339077
v 0.6169519 -0.0274955 0.0230323
v 0.6187457 -0.0285499 0.0221075
v 0.6202360 -0.0301270 0.0214170
v 0.6213021 -0.0320988 0.0210167
v 0.6218577 -0.0343057 0.0209392
v 0.6218577 -0.1265688 0.0311907
v 0.6213021 -0.1287048 0.0317507
v 0.6202360 -0.1305407 0.0325740
v 0.6187457 -0.1319277 0.0335939
v 0.6169519 -0.1327534 0.0347276
vn -0.0000000 0.9938837 -0.1104315
vn 0.3032529 0.9470819 -0.1052313
vn 0.5569505 0.8254659 -0.0917184
vn 0.7655083 0.6394906 -0.0710545
vn 0.9135220 0.4043014 -0.0449224
vn 0.9902757 0.1382680 -0.0153631
vn 0.9902757 -0.1382680 0.0153631
vn 0.9135220 -0.4043014 0.0449224
vn 0.7655083 -0.6394906 0.0710545
vn 0.5569505 -0.8254659 0.0917184
vn 0.3032529 -0.9470819 0.1052313
vn 0.0000000 -0.9938837 0.1104315
vn 0.2626247 0.9638262 0.0454677
vn 0.4823333 0.8562183 0.1850536
vn 0.6629496 0.6817588 0.3093586
vn 0.7911332 0.4547422 0.4090449
vn 0.8576039 0.1929469 0.4767463
vn 0.8576039 -0.0835892 0.5074726
vn 0.7911332 -0.3538606 0.4988897
vn 0.6629496 -0.5972225 0.4514676
vn 0.4823333 -0.7947134 0.3684904
vn 0.2626247 -0.9303375 0.2559304
vn 0.1516264 0.9760839 0.1557871
vn 0.2784752 0.8787307 0.3876648
vn 0.3827542 0.7127012 0.5878404
vn 0.4567610 0.4916674 0.7413721
vn 0.4951378 0.2329746 0.8369954
vn 0.4951378 -0.0435615 0.8677217
vn 0.4567610 -0.3169353 0.8312168
vn 0.3827542 -0.5662801 0.7299494
vn 0.2784752 -0.7722011 0.5711016
vn 0.1516264 -0.9180798 0.3662497
vn 0.0000000 0.9805705 0.1961668
vn -0.0000000 0.8869708 0.4618256
vn -0.0000000 0.7240269 0.6897717
vn 0.0000000 0.5051830 0.8630123
vn 0.0000000 0.2476257 0.9688558
vn -0.0000000 -0.0289104 0.9995820
vn -0.0000000 -0.3034197 0.9528570
vn -0.0000000 -0.5549544 0.8318808
vn -0.0000000 -0.7639610 0.6452624
vn -0.0000000 -0.9135932 0.4066294
vn -0.1516264 0.9760839 0.1557871
vn -0.2784752 0.8787307 0.3876648
vn -0.3827542 0.7127012 0.5878404
vn -0.4567610 0.4916674 0.7413721
vn -0.4951378 0.2329746 0.8369954
vn -0.4951378 -0.0435615 0.8677217
vn -0.4567610 -0.3169353 0.8312168
vn -0.3827542 -0.5662801 0.7299494
vn -0.2784752 -0.7722011 0.5711016
vn -0.1516264 -0.9180798 0.3662497
vn -0.2626247 0.9638262 0.0454677
vn -0.4823333 0.8562183 0.1850536
vn -0.6629496 0.6817588 0.3093586
vn -0.7911332 0.4547422 0.4090449
vn -0.8576039 0.1929469 0.4767463
vn -0.8576039 -0.0835892 0.5074726
vn -0.7911332 -0.3538606 0.4988897
vn -0.6629496 -0.5972225 0.4514676
vn -0.4823333 -0.7947134 0.3684904
vn -0.2626247 -0.9303375 0.2559304
vn -0.3032529 0.9470819 -0.1052313
vn -0.5569505 0.8254659 -0.0917184
vn -0.7655083 0.6394906 -0.0710545
vn -0.9135220 0.4043014 -0.0449224
vn -0.9902757 0.1382680 -0.0153631
vn -0.9902757 -0.1382680 0.0153631
vn -0.9135220 -0.4043014 0.0449224
vn -0.7655083 -0.6394906 0.0710545
vn -0.5569505 -0.8254659 0.0917184
vn -0.3032529 -0.9470819 0.1052313
vn -0.2626247 0.9303375 -0.2559304
vn -0.4823333 0.7947134 -0.3684904
vn -0.6629496 0.5972225 -0.4514676
vn -0.7911332 0.3538606 -0.4988897
vn -0.8576039 0.0835892 -0.5074726
vn -0.8576039 -0.1929469 -0.4767463
vn -0.7911332 -0.4547422 -0.4090449
vn -0.6629496 -0.6817588 -0.3093586
vn -0.4823333 -0.8562183 -0.1850536
vn -0.2626247 -0.9638262 -0.0454677
vn -0.1516264 0.9180798 -0.3662497
vn -0.2784752 0.7722011 -0.5711016
vn -0.3827542 0.5662801 -0.7299494
vn -0.4567610 0.3169353 -0.8312168
vn -0.4951378 0.0435615 -0.8677217
vn -0.4951378 -0.2329746 -0.8369954
vn -0.4567610 -0.4916674 -0.7413721
vn -0.3827542 -0.7127012 -0.5878404
vn -0.2784752 -0.8787307 -0.3876648
vn -0.1516264 -0.9760839 -0.1557871
vn -0.0000000 0.9135932 -0.4066294
vn 0.0000000 0.7639610 -0.6452624
vn -0.0000000 0.5549544 -0.8318808
vn -0.0000000 0.3034197 -0.9528570
vn -0.0000000 0.0289104 -0.9995820
vn -0.0000000 -0.2476257 -0.9688558
vn -0.0000000 -0.5051830 -0.8630123
vn -0.0000000 -0.7240269 -0.6897717
vn -0.0000000 -0.8869708 -0.4618256
vn -0.0000000 -0.9805705 -0.1961668
vn 0.1516264 0.9180798 -0.3662497
vn 0.2784752 0.7722011 -0.5711016
vn 0.3827542 0.5662801 -0.7299494
vn 0.4567610 0.3169353 -0.8312168
vn 0.4951378 0.0435615 -0.8677217
vn 0.4951378 -0.2329746 -0.8369954
vn 0.4567610 -0.4916674 -0.7413721
vn 0.3827542 -0.7127012 -0.5878404
vn 0.2784752 -0.8787307 -0.3876648
vn 0.1516264 -0.9760839 -0.1557871
vn 0.2626247 0.9303375 -0.2559304
vn 0.4823333 0.7947134 -0.3684904
vn 0.6629496 0.5972225 -0.4514676
vn 0.7911332 0.3538606 -0.4988897
vn 0.8576039 0.0835892 -0.5074726
vn 0.8576039 -0.1929469 -0.4767463
vn 0.7911332 -0.4547422 -0.4090449
vn 0.6629496 -0.6817588 -0.3093586
vn 0.4823333 -0.8562183 -0.1850536
vn 0.2626247 -0.9638262 -0.0454677
f 2//2 1//1 13//13
f 2//2 13//13 3//3
f 3//3 13//13 14//14
f 3//3 14//14 4//4
f 4//4 14//14 15//15
f 4//4 15//15 5//5
f 5//5 15//15 16//16
f 5//5 16//16 6//6
f 6//6 16//16 17//17
f 6//6 17//17 7//7
f 7//7 17//17 18//18
f 7//7 18//18 8//8
f 8//8 18//18 19//19
f 8//8 19//19 9//9
f 9//9 19//19 20//20
f 9//9 20//20 10//10
f 10//10 20//20 21//21
f 10//10 21//21 11//11
f 11//11 21//21 22//22
f 11//11 22//22 12//12
f 13//13 1//1 23//23
f 13//13 23//23 14//14
f 14//14 23//23 24//24
f 14//14 24//24 15//15
f 15//15 24//24 25//25
f 15//15 25//25 16//16
f 16//16 25//25 26//26
f 16//16 26//26 17//17
f 17//17 26//26 27//27
f 17//17 27//27 18//18
f 18//18 27//27 28//28
f 18//18 28//28 19//19
f 19//19 28//28 29//29
f 19//19 29//29 20//20
f 20//20 29//29 30//30
f 20//20 30//30 21//21
f 21//21 30//30 31//31
f 21//21 31//31 22//22
f 22//22 31//31 32//32
f 22//22 32//32 12//12
f 23//23 1//1 33//33
f 23//23 33//33 24//24
f 24//24 33//33 34//34
f 24//24 34//34 25//25
f 25//25 34//34 35//35
f 25//25 35//35 26//26
f 26//26 35//35 36//36
f 26//26 36//36 27//27
f 27//27 36//36 37//37
f 27//27 37//37 28//28
f 28//28 37//37 38//38
f 28//28 38//38 29//29
f 29//29 38//38 39//39
f 29//29 39//39 30//30
f 30//30 39//39 40//40
f 30//30 40//40 31//31
f 31//31 40//40 41//41
f 31//31 41//41 32//32
f 32//32 41//41 42//42
f 32//32 42//42 12//12
f 33//33 1//1 43//43
f 33//33 43//43 34//34
f 34//34 43//43 44//44
f 34//34 44//44 35//35
f 35//35 44//44 45//45
f 35//35 45//45 36//36
f 36//36 45//45 46//46
f 36//36 46//46 37//37
f 37//37 46//46 47//47
f 37//37 47//47 38//38
f 38//38 47//47 48//48
f 38//38 48//48 39//39
f 39//39 48//48 49//49
f 39//39 49//49 40//40
f 40//40 49//49 50//50
f 40//40 50//50 41//41
f 41//41 50//50 51//51
f 41//41 51//51 42//42
f 42//42 51//51 52//52
f 42//42 52//52 12//12
f 43//43 1//1 53//53
f 43//43 53//53 44//44
f 44//44 53//53 54//54
f 44//44 54//54 45//45
f 45//45 54//54 55//55
f 45//45 55//55 46//46
f 46//46 55//55 56//56
f 46//46 56//56 47//47
f 47//47 56//56 57//57
f 47//47 57//57 48//48
f 48//48 57//57 58//58
f 48//48 58//58 49//49
f 49//49 58//58 59//59
f 49//49 59//59 50//50
f 50//50 59//59 60//60
f 50//50 60//60 51//51
f 51//51 60//60 61//61
f 51//51 61//61 52//52
f 52//52 61//61 62//62
f 52//52 62//62 12//12
f 53//53 1//1 63//63
f 53//53 63//63 54//54
f 54//54 63//63 64//64
f 54//54 64//64 55//55
f 55//55 64//64 65//65
f 55//55 65//65 56//56
f 56//56 65//65 66//66
f 56//56 66//66 57//57
f 57//57 66//66 67//67
f 57//57 67//67 58//58
f 58//58 67//67 68//68
f 58//58 68//68 59//59
f 59//59 68//68 69//69
f 59//59 69//69 60//60
f 60//60 69//69 70//70
f 60//60 70//70 61//61
f 61//61 70//70 71//71
f 61//61 71//71 62//62
f 62//62 71//71 72//72
f 62//62 72//72 12//12
f 63//63 1//1 73//73
f 63//63 73//73 64//64
f 64//64 73//73 74//74
f 64//64 74//74 65//65
f 65//65 74//74 75//75
f 65//65 75//75 66//66
f 66//66 75//75 76//76
f 66//66 76//76 67//67
f 67//67 76//76 77//77
f 67//67 77//77 68//68
f 68//68 77//77 78//78
f 68//68 78//78 69//69
f 69//69 78//78 79//79
f 69//69 79//79 70//70
f 70//70 79//79 80//80
f 70//70 80//80 71//71
f 71//71 80//80 81//81
f 71//71 81//81 72//72
f 72//72 81//81 82//82
f 72//72 82//82 12//12
f 73//73 1//1 83//83
f 73//73 83//83 74//74
f 74//74 83//83 84//84
f 74//74 84//84 75//75
f 75//75 84//84 85//85
f 75//75 85//85 76//76
f 76//76 85//85 86//86
f 76//76 86//86 77//77
f 77//77 86//86 87//87
f 77//77 87//87 78//78
f 78//78 87//87 88//88
f 78//78 88//88 79//79
f 79//79 88//88 89//89
f 79//79 89//89 80//80
f 80//80 89//89 90//90
f 80//80 90//90 81//81
f 81//81 90//90 91//91
f 81//81 91//91 82//82
f 82//82 91//91 92//92
f 82//82 92//92 12//12
f 83//83 1//1 93//93
f 83//83 93//93 84//84
f 84//84 93//93 94//94
f 84//84 94//94 85//85
f 85//85 94//94 95//95
f 85//85 95//95 86//86
f 86//86 95//95 96//96
f 86//86 96//96 87//87
f 87//87 96//96 97//97
f 87//87 97//97 88//88
f 88//88 97//97 98//98
f 88//88 98//98 89//89
f 89//89 98//98 99//99
f 89//89 99//99 90//90
f 90//90 99//99 100//100
f 90//90 100//100 91//91
f 91//91 100//100 101//101
f 91//91 101//101 92//92
f 92//92 101//101 102//102
f 92//92 102//102 12//12
f 93//93 1//1 103//103
f 93//93 103//103 94//94
f 94//94 103//103 104//104
f 94//94 104//104 95//95
f 95//95 104//104 105//105
f 95//95 105//105 96//96
f 96//96 105//105 106//106
f 96//96 106//106 97//97
f 97//97 106//106 107//107
f 97//97 107//107 98//98
f 98//98 107//107 108//108
f 98//98 108//108 99//99
f 99//99 108//108 109//109
f 99//99 109//109 100//100
f 100//100 109//109 110//110
f 100//100 110//110 101//101
f 101//101 110//110 111//111
f 101//101 111//111 102//102
f 102//102 111//111 112//112
f 102//102 112//112 12//12
f 103//103 1//1 113//113
f 103//103 113//113 104//104
f 104//104 113//113 114//114
f 104//104 114//114 105//105
f 105//105 114//114 115//115
f 105//105 115//115 106//106
f 106//106 115//115 116//116
f 106//106 116//116 107//107
f 107//107 116//116 117//117
f 107//107 117//117 108//108
f 108//108 117//117 118//118
f 108//108 118//118 109//109
f 109//109 118//118 119//119
f 109//109 119//119 110//110
f 110//110 119//119 120//120
f 110//110 120//120 111//111
f 111//111 120//120 121//121
f 111//111 121//121 112//112
f 112//112 121//121 122//122
f 112//112 122//122 12//12
f 113//113 1//1 2//2
f 113//113 2//2 114//114
f 114//114 2//2 3//3
f 114//114 3//3 115//115
f 115//115 3//3 4//4
f 115//115 4//4 116//116
f 116//116 4//4 5//5
f 116//116 5//5 117//117
f 117//117 5//5 6//6
f 117//117 6//6 118//118
f 118//118 6//6 7//7
f 118//118 7//7 119//119
f 119//119 7//7 8//8
f 119//119 8//8 120//120
f 120//120 8//8 9//9
f 120//120 9//9 121//121
f 121//121 9//9 10//10
f 121//121 10//10 122//122
f 122//122 10//10 11//11
f 122//122 11//11 12//12

