# https://github.com/mikedh/trimesh
v -0.0289152 1.3395456 0.0000000
v 0.0289152 1.3395456 0.0000000
v -0.0289152 1.2204544 0.0000000
v 0.0289152 1.2204544 0.0000000
v 0.0000000 1.2431988 0.0467858
v 0.0000000 1.3168012 0.0467858
v 0.0000000 1.2431988 -0.0467858
v 0.0000000 1.3168012 -0.0467858
v 0.0467858 1.2800000 -0.0289152
v 0.0467858 1.2800000 0.0289152
v -0.0467858 1.2800000 -0.0289152
v -0.0467858 1.2800000 0.0289152
v 0.0000000 1.3500000 0.0000000
v 0.0000000 1.2100000 0.0000000
v -0.0169959 1.2233688 0.0275000
v 0.0169959 1.2233688 0.0275000
v -0.0169959 1.3366312 0.0275000
v 0.0169959 1.3366312 0.0275000
v 0.0000000 1.2800000 0.0550000
v -0.0169959 1.2233688 -0.0275000
v 0.0169959 1.2233688 -0.0275000
v -0.0169959 1.3366312 -0.0275000
v 0.0169959 1.3366312 -0.0275000
v 0.0000000 1.2800000 -0.0550000
v 0.0444959 1.3150000 -0.0169959
v 0.0444959 1.2450000 -0.0169959
v 0.0275000 1.2583688 -0.0444959
v 0.0275000 1.3016312 -0.0444959
v 0.0444959 1.3150000 0.0169959
v 0.0444959 1.2450000 0.0169959
v 0.0275000 1.2583688 0.0444959
v 0.0275000 1.3016312 0.0444959
v 0.0550000 1.2800000 0.0000000
v -0.0444959 1.3150000 -0.0169959
v -0.0444959 1.2450000 -0.0169959
v -0.0275000 1.2583688 -0.0444959
v -0.0275000 1.3016312 -0.0444959
v -0.0444959 1.3150000 0.0169959
v -0.0444959 1.2450000 0.0169959
v -0.0275000 1.2583688 0.0444959
v -0.0275000 1.3016312 0.0444959
v -0.0550000 1.2800000 0.0000000
v -0.0289152 1.2395456 0.0000000
v 0.0289152 1.2395456 0.0000000
v -0.0289152 1.1204544 0.0000000
v 0.0289152 1.1204544 0.0000000
v 0.0000000 1.1431988 0.0467858
v 0.0000000 1.2168012 0.0467858
v 0.0000000 1.1431988 -0.0467858
v 0.0000000 1.2168012 -0.0467858
v 0.0467858 1.1800000 -0.0289152
v 0.0467858 1.1800000 0.0289152
v -0.0467858 1.1800000 -0.0289152
v -0.0467858 1.1800000 0.0289152
v 0.0000000 1.2500000 0.0000000
v 0.0000000 1.1100000 0.0000000
v -0.0169959 1.1233688 0.0275000
v 0.0169959 1.1233688 0.0275000
v -0.0169959 1.2366312 0.0275000
v 0.0169959 1.2366312 0.0275000
v 0.0000000 1.1800000 0.0550000
v -0.0169959 1.1233688 -0.0275000
v 0.0169959 1.1233688 -0.0275000
v -0.0169959 1.2366312 -0.0275000
v 0.0169959 1.2366312 -0.0275000
v 0.0000000 1.1800000 -0.0550000
v 0.0444959 1.2150000 -0.0169959
v 0.0444959 1.1450000 -0.0169959
v 0.0275000 1.1583688 -0.0444959
v 0.0275000 1.2016312 -0.0444959
v 0.0444959 1.2150000 0.0169959
v 0.0444959 1.1450000 0.0169959
v 0.0275000 1.1583688 0.0444959
v 0.0275000 1.2016312 0.0444959
v 0.0550000 1.1800000 0.0000000
v -0.0444959 1.2150000 -0.0169959
v -0.0444959 1.1450000 -0.0169959
v -0.0275000 1.1583688 -0.0444959
v -0.0275000 1.2016312 -0.0444959
v -0.0444959 1.2150000 0.0169959
v -0.0444959 1.1450000 0.0169959
v -0.0275000 1.1583688 0.0444959
v -0.0275000 1.2016312 0.0444959
v -0.0550000 1.1800000 0.0000000
v -0.0289152 1.1395456 0.0000000
v 0.0289152 1.1395456 0.0000000
v -0.0289152 1.0204544 0.0000000
v 0.0289152 1.0204544 0.0000000
v 0.0000000 1.0431988 0.0467858
v 0.0000000 1.1168012 0.0467858
v 0.0000000 1.0431988 -0.0467858
v 0.0000000 1.1168012 -0.0467858
v 0.0467858 1.0800000 -0.0289152
v 0.0467858 1.0800000 0.0289152
v -0.0467858 1.0800000 -0.0289152
v -0.0467858 1.0800000 0.0289152
v 0.0000000 1.1500000 0.0000000
v 0.0000000 1.0100000 0.0000000
v -0.0169959 1.0233688 0.0275000
v 0.0169959 1.0233688 0.0275000
v -0.0169959 1.1366312 0.0275000
v 0.0169959 1.1366312 0.0275000
v 0.0000000 1.0800000 0.0550000
v -0.0169959 1.0233688 -0.0275000
v 0.0169959 1.0233688 -0.0275000
v -0.0169959 1.1366312 -0.0275000
v 0.0169959 1.1366312 -0.0275000
v 0.0000000 1.0800000 -0.0550000
v 0.0444959 1.1150000 -0.0169959
v 0.0444959 1.0450000 -0.0169959
v 0.0275000 1.0583688 -0.0444959
v 0.0275000 1.1016312 -0.0444959
v 0.0444959 1.1150000 0.0169959
v 0.0444959 1.0450000 0.0169959
v 0.0275000 1.0583688 0.0444959
v 0.0275000 1.1016312 0.0444959
v 0.0550000 1.0800000 0.0000000
v -0.0444959 1.1150000 -0.0169959
v -0.0444959 1.0450000 -0.0169959
v -0.0275000 1.0583688 -0.0444959
v -0.0275000 1.1016312 -0.0444959
v -0.0444959 1.1150000 0.0169959
v -0.0444959 1.0450000 0.0169959
v -0.0275000 1.0583688 0.0444959
v -0.0275000 1.1016312 0.0444959
v -0.0550000 1.0800000 0.0000000
v -0.0289152 1.0395456 0.0000000
v 0.0289152 1.0395456 0.0000000
v -0.0289152 0.9204544 0.0000000
v 0.0289152 0.9204544 0.0000000
v 0.0000000 0.9431988 0.0467858
v 0.0000000 1.0168012 0.0467858
v 0.0000000 0.9431988 -0.0467858
v 0.0000000 1.0168012 -0.0467858
v 0.0467858 0.9800000 -0.0289152
v 0.0467858 0.9800000 0.0289152
v -0.0467858 0.9800000 -0.0289152
v -0.0467858 0.9800000 0.0289152
v 0.0000000 1.0500000 0.0000000
v 0.0000000 0.9100000 0.0000000
v -0.0169959 0.9233688 0.0275000
v 0.0169959 0.9233688 0.0275000
v -0.0169959 1.0366312 0.0275000
v 0.0169959 1.0366312 0.0275000
v 0.0000000 0.9800000 0.0550000
v -0.0169959 0.9233688 -0.0275000
v 0.0169959 0.9233688 -0.0275000
v -0.0169959 1.0366312 -0.0275000
v 0.0169959 1.0366312 -0.0275000
v 0.0000000 0.9800000 -0.0550000
v 0.0444959 1.0150000 -0.0169959
v 0.0444959 0.9450000 -0.0169959
v 0.0275000 0.9583688 -0.0444959
v 0.0275000 1.0016312 -0.0444959
v 0.0444959 1.0150000 0.0169959
v 0.0444959 0.9450000 0.0169959
v 0.0275000 0.9583688 0.0444959
v 0.0275000 1.0016312 0.0444959
v 0.0550000 0.9800000 0.0000000
v -0.0444959 1.0150000 -0.0169959
v -0.0444959 0.9450000 -0.0169959
v -0.0275000 0.9583688 -0.0444959
v -0.0275000 1.0016312 -0.0444959
v -0.0444959 1.0150000 0.0169959
v -0.0444959 0.9450000 0.0169959
v -0.0275000 0.9583688 0.0444959
v -0.0275000 1.0016312 0.0444959
v -0.0550000 0.9800000 0.0000000
v -0.0289152 0.9395456 0.0000000
v 0.0289152 0.9395456 0.0000000
v -0.0289152 0.8204544 0.0000000
v 0.0289152 0.8204544 0.0000000
v 0.0000000 0.8431988 0.0467858
v 0.0000000 0.9168012 0.0467858
v 0.0000000 0.8431988 -0.0467858
v 0.0000000 0.9168012 -0.0467858
v 0.0467858 0.8800000 -0.0289152
v 0.0467858 0.8800000 0.0289152
v -0.0467858 0.8800000 -0.0289152
v -0.0467858 0.8800000 0.0289152
v 0.0000000 0.9500000 0.0000000
v 0.0000000 0.8100000 0.0000000
v -0.0169959 0.8233688 0.0275000
v 0.0169959 0.8233688 0.0275000
v -0.0169959 0.9366312 0.0275000
v 0.0169959 0.9366312 0.0275000
v 0.0000000 0.8800000 0.0550000
v -0.0169959 0.8233688 -0.0275000
v 0.0169959 0.8233688 -0.0275000
v -0.0169959 0.9366312 -0.0275000
v 0.0169959 0.9366312 -0.0275000
v 0.0000000 0.8800000 -0.0550000
v 0.0444959 0.9150000 -0.0169959
v 0.0444959 0.8450000 -0.0169959
v 0.0275000 0.8583688 -0.0444959
v 0.0275000 0.9016312 -0.0444959
v 0.0444959 0.9150000 0.0169959
v 0.0444959 0.8450000 0.0169959
v 0.0275000 0.8583688 0.0444959
v 0.0275000 0.9016312 0.0444959
v 0.0550000 0.8800000 0.0000000
v -0.0444959 0.9150000 -0.0169959
v -0.0444959 0.8450000 -0.0169959
v -0.0275000 0.8583688 -0.0444959
v -0.0275000 0.9016312 -0.0444959
v -0.0444959 0.9150000 0.0169959
v -0.0444959 0.8450000 0.0169959
v -0.0275000 0.8583688 0.0444959
v -0.0275000 0.9016312 0.0444959
v -0.0550000 0.8800000 0.0000000
v -0.0289152 0.8395456 0.0000000
v 0.0289152 0.8395456 0.0000000
v -0.0289152 0.7204544 0.0000000
v 0.0289152 0.7204544 0.0000000
v 0.0000000 0.7431988 0.0467858
v 0.0000000 0.8168012 0.0467858
v 0.0000000 0.7431988 -0.0467858
v 0.0000000 0.8168012 -0.0467858
v 0.0467858 0.7800000 -0.0289152
v 0.0467858 0.7800000 0.0289152
v -0.0467858 0.7800000 -0.0289152
v -0.0467858 0.7800000 0.0289152
v 0.0000000 0.8500000 0.0000000
v 0.0000000 0.7100000 0.0000000
v -0.0169959 0.7233688 0.0275000
v 0.0169959 0.7233688 0.0275000
v -0.0169959 0.8366312 0.0275000
v 0.0169959 0.8366312 0.0275000
v 0.0000000 0.7800000 0.0550000
v -0.0169959 0.7233688 -0.0275000
v 0.0169959 0.7233688 -0.0275000
v -0.0169959 0.8366312 -0.0275000
v 0.0169959 0.8366312 -0.0275000
v 0.0000000 0.7800000 -0.0550000
v 0.0444959 0.8150000 -0.0169959
v 0.0444959 0.7450000 -0.0169959
v 0.0275000 0.7583688 -0.0444959
v 0.0275000 0.8016312 -0.0444959
v 0.0444959 0.8150000 0.0169959
v 0.0444959 0.7450000 0.0169959
v 0.0275000 0.7583688 0.0444959
v 0.0275000 0.8016312 0.0444959
v 0.0550000 0.7800000 0.0000000
v -0.0444959 0.8150000 -0.0169959
v -0.0444959 0.7450000 -0.0169959
v -0.0275000 0.7583688 -0.0444959
v -0.0275000 0.8016312 -0.0444959
v -0.0444959 0.8150000 0.0169959
v -0.0444959 0.7450000 0.0169959
v -0.0275000 0.7583688 0.0444959
v -0.0275000 0.8016312 0.0444959
v -0.0550000 0.7800000 0.0000000
v -0.0289152 0.7395456 0.0000000
v 0.0289152 0.7395456 0.0000000
v -0.0289152 0.6204544 0.0000000
v 0.0289152 0.6204544 0.0000000
v 0.0000000 0.6431988 0.0467858
v 0.0000000 0.7168012 0.0467858
v 0.0000000 0.6431988 -0.0467858
v 0.0000000 0.7168012 -0.0467858
v 0.0467858 0.6800000 -0.0289152
v 0.0467858 0.6800000 0.0289152
v -0.0467858 0.6800000 -0.0289152
v -0.0467858 0.6800000 0.0289152
v 0.0000000 0.7500000 0.0000000
v 0.0000000 0.6100000 0.0000000
v -0.0169959 0.6233688 0.0275000
v 0.0169959 0.6233688 0.0275000
v -0.0169959 0.7366312 0.0275000
v 0.0169959 0.7366312 0.0275000
v 0.0000000 0.6800000 0.0550000
v -0.0169959 0.6233688 -0.0275000
v 0.0169959 0.6233688 -0.0275000
v -0.0169959 0.7366312 -0.0275000
v 0.0169959 0.7366312 -0.0275000
v 0.0000000 0.6800000 -0.0550000
v 0.0444959 0.7150000 -0.0169959
v 0.0444959 0.6450000 -0.0169959
v 0.0275000 0.6583688 -0.0444959
v 0.0275000 0.7016312 -0.0444959
v 0.0444959 0.7150000 0.0169959
v 0.0444959 0.6450000 0.0169959
v 0.0275000 0.6583688 0.0444959
v 0.0275000 0.7016312 0.0444959
v 0.0550000 0.6800000 0.0000000
v -0.0444959 0.7150000 -0.0169959
v -0.0444959 0.6450000 -0.0169959
v -0.0275000 0.6583688 -0.0444959
v -0.0275000 0.7016312 -0.0444959
v -0.0444959 0.7150000 0.0169959
v -0.0444959 0.6450000 0.0169959
v -0.0275000 0.6583688 0.0444959
v -0.0275000 0.7016312 0.0444959
v -0.0550000 0.6800000 0.0000000
v -0.0289152 0.6395456 0.0000000
v 0.0289152 0.6395456 0.0000000
v -0.0289152 0.5204544 0.0000000
v 0.0289152 0.5204544 0.0000000
v 0.0000000 0.5431988 0.0467858
v 0.0000000 0.6168012 0.0467858
v 0.0000000 0.5431988 -0.0467858
v 0.0000000 0.6168012 -0.0467858
v 0.0467858 0.5800000 -0.0289152
v 0.0467858 0.5800000 0.0289152
v -0.0467858 0.5800000 -0.0289152
v -0.0467858 0.5800000 0.0289152
v 0.0000000 0.6500000 0.0000000
v 0.0000000 0.5100000 0.0000000
v -0.0169959 0.5233688 0.0275000
v 0.0169959 0.5233688 0.0275000
v -0.0169959 0.6366312 0.0275000
v 0.0169959 0.6366312 0.0275000
v 0.0000000 0.5800000 0.0550000
v -0.0169959 0.5233688 -0.0275000
v 0.0169959 0.5233688 -0.0275000
v -0.0169959 0.6366312 -0.0275000
v 0.0169959 0.6366312 -0.0275000
v 0.0000000 0.5800000 -0.0550000
v 0.0444959 0.6150000 -0.0169959
v 0.0444959 0.5450000 -0.0169959
v 0.0275000 0.5583688 -0.0444959
v 0.0275000 0.6016312 -0.0444959
v 0.0444959 0.6150000 0.0169959
v 0.0444959 0.5450000 0.0169959
v 0.0275000 0.5583688 0.0444959
v 0.0275000 0.6016312 0.0444959
v 0.0550000 0.5800000 0.0000000
v -0.0444959 0.6150000 -0.0169959
v -0.0444959 0.5450000 -0.0169959
v -0.0275000 0.5583688 -0.0444959
v -0.0275000 0.6016312 -0.0444959
v -0.0444959 0.6150000 0.0169959
v -0.0444959 0.5450000 0.0169959
v -0.0275000 0.5583688 0.0444959
v -0.0275000 0.6016312 0.0444959
v -0.0550000 0.5800000 0.0000000
v -0.0289152 0.5395456 0.0000000
v 0.0289152 0.5395456 0.0000000
v -0.0289152 0.4204544 0.0000000
v 0.0289152 0.4204544 0.0000000
v 0.0000000 0.4431988 0.0467858
v 0.0000000 0.5168012 0.0467858
v 0.0000000 0.4431988 -0.0467858
v 0.0000000 0.5168012 -0.0467858
v 0.0467858 0.4800000 -0.0289152
v 0.0467858 0.4800000 0.0289152
v -0.0467858 0.4800000 -0.0289152
v -0.0467858 0.4800000 0.0289152
v 0.0000000 0.5500000 0.0000000
v 0.0000000 0.4100000 0.0000000
v -0.0169959 0.4233688 0.0275000
v 0.0169959 0.4233688 0.0275000
v -0.0169959 0.5366312 0.0275000
v 0.0169959 0.5366312 0.0275000
v 0.0000000 0.4800000 0.0550000
v -0.0169959 0.4233688 -0.0275000
v 0.0169959 0.4233688 -0.0275000
v -0.0169959 0.5366312 -0.0275000
v 0.0169959 0.5366312 -0.0275000
v 0.0000000 0.4800000 -0.0550000
v 0.0444959 0.5150000 -0.0169959
v 0.0444959 0.4450000 -0.0169959
v 0.0275000 0.4583688 -0.0444959
v 0.0275000 0.5016312 -0.0444959
v 0.0444959 0.5150000 0.0169959
v 0.0444959 0.4450000 0.0169959
v 0.0275000 0.4583688 0.0444959
v 0.0275000 0.5016312 0.0444959
v 0.0550000 0.4800000 0.0000000
v -0.0444959 0.5150000 -0.0169959
v -0.0444959 0.4450000 -0.0169959
v -0.0275000 0.4583688 -0.0444959
v -0.0275000 0.5016312 -0.0444959
v -0.0444959 0.5150000 0.0169959
v -0.0444959 0.4450000 0.0169959
v -0.0275000 0.4583688 0.0444959
v -0.0275000 0.5016312 0.0444959
v -0.0550000 0.4800000 0.0000000
v -0.0289152 0.4395456 0.0000000
v 0.0289152 0.4395456 0.0000000
v -0.0289152 0.3204544 0.0000000
v 0.0289152 0.3204544 0.0000000
v 0.0000000 0.3431988 0.0467858
v 0.0000000 0.4168012 0.0467858
v 0.0000000 0.3431988 -0.0467858
v 0.0000000 0.4168012 -0.0467858
v 0.0467858 0.3800000 -0.0289152
v 0.0467858 0.3800000 0.0289152
v -0.0467858 0.3800000 -0.0289152
v -0.0467858 0.3800000 0.0289152
v 0.0000000 0.4500000 0.0000000
v 0.0000000 0.3100000 0.0000000
v -0.0169959 0.3233688 0.0275000
v 0.0169959 0.3233688 0.0275000
v -0.0169959 0.4366312 0.0275000
v 0.0169959 0.4366312 0.0275000
v 0.0000000 0.3800000 0.0550000
v -0.0169959 0.3233688 -0.0275000
v 0.0169959 0.3233688 -0.0275000
v -0.0169959 0.4366312 -0.0275000
v 0.0169959 0.4366312 -0.0275000
v 0.0000000 0.3800000 -0.0550000
v 0.0444959 0.4150000 -0.0169959
v 0.0444959 0.3450000 -0.0169959
v 0.0275000 0.3583688 -0.0444959
v 0.0275000 0.4016312 -0.0444959
v 0.0444959 0.4150000 0.0169959
v 0.0444959 0.3450000 0.0169959
v 0.0275000 0.3583688 0.0444959
v 0.0275000 0.4016312 0.0444959
v 0.0550000 0.3800000 0.0000000
v -0.0444959 0.4150000 -0.0169959
v -0.0444959 0.3450000 -0.0169959
v -0.0275000 0.3583688 -0.0444959
v -0.0275000 0.4016312 -0.0444959
v -0.0444959 0.4150000 0.0169959
v -0.0444959 0.3450000 0.0169959
v -0.0275000 0.3583688 0.0444959
v -0.0275000 0.4016312 0.0444959
v -0.0550000 0.3800000 0.0000000
v -0.0289152 0.3395456 0.0000000
v 0.0289152 0.3395456 0.0000000
v -0.0289152 0.2204544 0.0000000
v 0.0289152 0.2204544 0.0000000
v 0.0000000 0.2431988 0.0467858
v 0.0000000 0.3168012 0.0467858
v 0.0000000 0.2431988 -0.0467858
v 0.0000000 0.3168012 -0.0467858
v 0.0467858 0.2800000 -0.0289152
v 0.0467858 0.2800000 0.0289152
v -0.0467858 0.2800000 -0.0289152
v -0.0467858 0.2800000 0.0289152
v 0.0000000 0.3500000 0.0000000
v 0.0000000 0.2100000 0.0000000
v -0.0169959 0.2233688 0.0275000
v 0.0169959 0.2233688 0.0275000
v -0.0169959 0.3366312 0.0275000
v 0.0169959 0.3366312 0.0275000
v 0.0000000 0.2800000 0.0550000
v -0.0169959 0.2233688 -0.0275000
v 0.0169959 0.2233688 -0.0275000
v -0.0169959 0.3366312 -0.0275000
v 0.0169959 0.3366312 -0.0275000
v 0.0000000 0.2800000 -0.0550000
v 0.0444959 0.3150000 -0.0169959
v 0.0444959 0.2450000 -0.0169959
v 0.0275000 0.2583688 -0.0444959
v 0.0275000 0.3016312 -0.0444959
v 0.0444959 0.3150000 0.0169959
v 0.0444959 0.2450000 0.0169959
v 0.0275000 0.2583688 0.0444959
v 0.0275000 0.3016312 0.0444959
v 0.0550000 0.2800000 0.0000000
v -0.0444959 0.3150000 -0.0169959
v -0.0444959 0.2450000 -0.0169959
v -0.0275000 0.2583688 -0.0444959
v -0.0275000 0.3016312 -0.0444959
v -0.0444959 0.3150000 0.0169959
v -0.0444959 0.2450000 0.0169959
v -0.0275000 0.2583688 0.0444959
v -0.0275000 0.3016312 0.0444959
v -0.0550000 0.2800000 0.0000000
v -0.0289152 0.2395456 0.0000000
v 0.0289152 0.2395456 0.0000000
v -0.0289152 0.1204544 0.0000000
v 0.0289152 0.1204544 0.0000000
v 0.0000000 0.1431988 0.0467858
v 0.0000000 0.2168012 0.0467858
v 0.0000000 0.1431988 -0.0467858
v 0.0000000 0.2168012 -0.0467858
v 0.0467858 0.1800000 -0.0289152
v 0.0467858 0.1800000 0.0289152
v -0.0467858 0.1800000 -0.0289152
v -0.0467858 0.1800000 0.0289152
v 0.0000000 0.2500000 0.0000000
v 0.0000000 0.1100000 0.0000000
v -0.0169959 0.1233688 0.0275000
v 0.0169959 0.1233688 0.0275000
v -0.0169959 0.2366312 0.0275000
v 0.0169959 0.2366312 0.0275000
v 0.0000000 0.1800000 0.0550000
v -0.0169959 0.1233688 -0.0275000
v 0.0169959 0.1233688 -0.0275000
v -0.0169959 0.2366312 -0.0275000
v 0.0169959 0.2366312 -0.0275000
v 0.0000000 0.1800000 -0.0550000
v 0.0444959 0.2150000 -0.0169959
v 0.0444959 0.1450000 -0.0169959
v 0.0275000 0.1583688 -0.0444959
v 0.0275000 0.2016312 -0.0444959
v 0.0444959 0.2150000 0.0169959
v 0.0444959 0.1450000 0.0169959
v 0.0275000 0.1583688 0.0444959
v 0.0275000 0.2016312 0.0444959
v 0.0550000 0.1800000 0.0000000
v -0.0444959 0.2150000 -0.0169959
v -0.0444959 0.1450000 -0.0169959
v -0.0275000 0.1583688 -0.0444959
v -0.0275000 0.2016312 -0.0444959
v -0.0444959 0.2150000 0.0169959
v -0.0444959 0.1450000 0.0169959
v -0.0275000 0.1583688 0.0444959
v -0.0275000 0.2016312 0.0444959
v -0.0550000 0.1800000 0.0000000
v -0.0289152 0.1395456 0.0000000
v 0.0289152 0.1395456 0.0000000
v -0.0289152 0.0204544 0.0000000
v 0.0289152 0.0204544 0.0000000
v 0.0000000 0.0431988 0.0467858
v 0.0000000 0.1168012 0.0467858
v 0.0000000 0.0431988 -0.0467858
v 0.0000000 0.1168012 -0.0467858
v 0.0467858 0.0800000 -0.0289152
v 0.0467858 0.0800000 0.0289152
v -0.0467858 0.0800000 -0.0289152
v -0.0467858 0.0800000 0.0289152
v 0.0000000 0.1500000 0.0000000
v 0.0000000 0.0100000 0.0000000
v -0.0169959 0.0233688 0.0275000
v 0.0169959 0.0233688 0.0275000
v -0.0169959 0.1366312 0.0275000
v 0.0169959 0.1366312 0.0275000
v 0.0000000 0.0800000 0.0550000
v -0.0169959 0.0233688 -0.0275000
v 0.0169959 0.0233688 -0.0275000
v -0.0169959 0.1366312 -0.0275000
v 0.0169959 0.1366312 -0.0275000
v 0.0000000 0.0800000 -0.0550000
v 0.0444959 0.1150000 -0.0169959
v 0.0444959 0.0450000 -0.0169959
v 0.0275000 0.0583688 -0.0444959
v 0.0275000 0.1016312 -0.0444959
v 0.0444959 0.1150000 0.0169959
v 0.0444959 0.0450000 0.0169959
v 0.0275000 0.0583688 0.0444959
v 0.0275000 0.1016312 0.0444959
v 0.0550000 0.0800000 0.0000000
v -0.0444959 0.1150000 -0.0169959
v -0.0444959 0.0450000 -0.0169959
v -0.0275000 0.0583688 -0.0444959
v -0.0275000 0.1016312 -0.0444959
v -0.0444959 0.1150000 0.0169959
v -0.0444959 0.0450000 0.0169959
v -0.0275000 0.0583688 0.0444959
v -0.0275000 0.1016312 0.0444959
v -0.0550000 0.0800000 0.0000000
v -0.0289152 0.0395456 0.0000000
v 0.0289152 0.0395456 0.0000000
v -0.0289152 -0.0795456 0.0000000
v 0.0289152 -0.0795456 0.0000000
v 0.0000000 -0.0568012 0.0467858
v 0.0000000 0.0168012 0.0467858
v 0.0000000 -0.0568012 -0.0467858
v 0.0000000 0.0168012 -0.0467858
v 0.0467858 -0.0200000 -0.0289152
v 0.0467858 -0.0200000 0.0289152
v -0.0467858 -0.0200000 -0.0289152
v -0.0467858 -0.0200000 0.0289152
v 0.0000000 0.0500000 0.0000000
v 0.0000000 -0.0900000 0.0000000
v -0.0169959 -0.0766312 0.0275000
v 0.0169959 -0.0766312 0.0275000
v -0.0169959 0.0366312 0.0275000
v 0.0169959 0.0366312 0.0275000
v 0.0000000 -0.0200000 0.0550000
v -0.0169959 -0.0766312 -0.0275000
v 0.0169959 -0.0766312 -0.0275000
v -0.0169959 0.0366312 -0.0275000
v 0.0169959 0.0366312 -0.0275000
v 0.0000000 -0.0200000 -0.0550000
v 0.0444959 0.0150000 -0.0169959
v 0.0444959 -0.0550000 -0.0169959
v 0.0275000 -0.0416312 -0.0444959
v 0.0275000 0.0016312 -0.0444959
v 0.0444959 0.0150000 0.0169959
v 0.0444959 -0.0550000 0.0169959
v 0.0275000 -0.0416312 0.0444959
v 0.0275000 0.0016312 0.0444959
v 0.0550000 -0.0200000 0.0000000
v -0.0444959 0.0150000 -0.0169959
v -0.0444959 -0.0550000 -0.0169959
v -0.0275000 -0.0416312 -0.0444959
v -0.0275000 0.0016312 -0.0444959
v -0.0444959 0.0150000 0.0169959
v -0.0444959 -0.0550000 0.0169959
v -0.0275000 -0.0416312 0.0444959
v -0.0275000 0.0016312 0.0444959
v -0.0550000 -0.0200000 0.0000000
v -0.0289152 -0.0604544 0.0000000
v 0.0289152 -0.0604544 0.0000000
v -0.0289152 -0.1795456 0.0000000
v 0.0289152 -0.1795456 0.0000000
v 0.0000000 -0.1568012 0.0467858
v 0.0000000 -0.0831988 0.0467858
v 0.0000000 -0.1568012 -0.0467858
v 0.0000000 -0.0831988 -0.0467858
v 0.0467858 -0.1200000 -0.0289152
v 0.0467858 -0.1200000 0.0289152
v -0.0467858 -0.1200000 -0.0289152
v -0.0467858 -0.1200000 0.0289152
v 0.0000000 -0.0500000 0.0000000
v 0.0000000 -0.1900000 0.0000000
v -0.0169959 -0.1766312 0.0275000
v 0.0169959 -0.1766312 0.0275000
v -0.0169959 -0.0633688 0.0275000
v 0.0169959 -0.0633688 0.0275000
v 0.0000000 -0.1200000 0.0550000
v -0.0169959 -0.1766312 -0.0275000
v 0.0169959 -0.1766312 -0.0275000
v -0.0169959 -0.0633688 -0.0275000
v 0.0169959 -0.0633688 -0.0275000
v 0.0000000 -0.1200000 -0.0550000
v 0.0444959 -0.0850000 -0.0169959
v 0.0444959 -0.1550000 -0.0169959
v 0.0275000 -0.1416312 -0.0444959
v 0.0275000 -0.0983688 -0.0444959
v 0.0444959 -0.0850000 0.0169959
v 0.0444959 -0.1550000 0.0169959
v 0.0275000 -0.1416312 0.0444959
v 0.0275000 -0.0983688 0.0444959
v 0.0550000 -0.1200000 0.0000000
v -0.0444959 -0.0850000 -0.0169959
v -0.0444959 -0.1550000 -0.0169959
v -0.0275000 -0.1416312 -0.0444959
v -0.0275000 -0.0983688 -0.0444959
v -0.0444959 -0.0850000 0.0169959
v -0.0444959 -0.1550000 0.0169959
v -0.0275000 -0.1416312 0.0444959
v -0.0275000 -0.0983688 0.0444959
v -0.0550000 -0.1200000 0.0000000
v -0.0289152 -0.1604544 0.0000000
v 0.0289152 -0.1604544 0.0000000
v -0.0289152 -0.2795456 0.0000000
v 0.0289152 -0.2795456 0.0000000
v 0.0000000 -0.2568012 0.0467858
v 0.0000000 -0.1831988 0.0467858
v 0.0000000 -0.2568012 -0.0467858
v 0.0000000 -0.1831988 -0.0467858
v 0.0467858 -0.2200000 -0.0289152
v 0.0467858 -0.2200000 0.0289152
v -0.0467858 -0.2200000 -0.0289152
v -0.0467858 -0.2200000 0.0289152
v 0.0000000 -0.1500000 0.0000000
v 0.0000000 -0.2900000 0.0000000
v -0.0169959 -0.2766312 0.0275000
v 0.0169959 -0.2766312 0.0275000
v -0.0169959 -0.1633688 0.0275000
v 0.0169959 -0.1633688 0.0275000
v 0.0000000 -0.2200000 0.0550000
v -0.0169959 -0.2766312 -0.0275000
v 0.0169959 -0.2766312 -0.0275000
v -0.0169959 -0.1633688 -0.0275000
v 0.0169959 -0.1633688 -0.0275000
v 0.0000000 -0.2200000 -0.0550000
v 0.0444959 -0.1850000 -0.0169959
v 0.0444959 -0.2550000 -0.0169959
v 0.0275000 -0.2416312 -0.0444959
v 0.0275000 -0.1983688 -0.0444959
v 0.0444959 -0.1850000 0.0169959
v 0.0444959 -0.2550000 0.0169959
v 0.0275000 -0.2416312 0.0444959
v 0.0275000 -0.1983688 0.0444959
v 0.0550000 -0.2200000 0.0000000
v -0.0444959 -0.1850000 -0.0169959
v -0.0444959 -0.2550000 -0.0169959
v -0.0275000 -0.2416312 -0.0444959
v -0.0275000 -0.1983688 -0.0444959
v -0.0444959 -0.1850000 0.0169959
v -0.0444959 -0.2550000 0.0169959
v -0.0275000 -0.2416312 0.0444959
v -0.0275000 -0.1983688 0.0444959
v -0.0550000 -0.2200000 0.0000000
v -0.0289152 -0.2604544 0.0000000
v 0.0289152 -0.2604544 0.0000000
v -0.0289152 -0.3795456 0.0000000
v 0.0289152 -0.3795456 0.0000000
v 0.0000000 -0.3568012 0.0467858
v 0.0000000 -0.2831988 0.0467858
v 0.0000000 -0.3568012 -0.0467858
v 0.0000000 -0.2831988 -0.0467858
v 0.0467858 -0.3200000 -0.0289152
v 0.0467858 -0.3200000 0.0289152
v -0.0467858 -0.3200000 -0.0289152
v -0.0467858 -0.3200000 0.0289152
v 0.0000000 -0.2500000 0.0000000
v 0.0000000 -0.3900000 0.0000000
v -0.0169959 -0.3766312 0.0275000
v 0.0169959 -0.3766312 0.0275000
v -0.0169959 -0.2633688 0.0275000
v 0.0169959 -0.2633688 0.0275000
v 0.0000000 -0.3200000 0.0550000
v -0.0169959 -0.3766312 -0.0275000
v 0.0169959 -0.3766312 -0.0275000
v -0.0169959 -0.2633688 -0.0275000
v 0.0169959 -0.2633688 -0.0275000
v 0.0000000 -0.3200000 -0.0550000
v 0.0444959 -0.2850000 -0.0169959
v 0.0444959 -0.3550000 -0.0169959
v 0.0275000 -0.3416312 -0.0444959
v 0.0275000 -0.2983688 -0.0444959
v 0.0444959 -0.2850000 0.0169959
v 0.0444959 -0.3550000 0.0169959
v 0.0275000 -0.3416312 0.0444959
v 0.0275000 -0.2983688 0.0444959
v 0.0550000 -0.3200000 0.0000000
v -0.0444959 -0.2850000 -0.0169959
v -0.0444959 -0.3550000 -0.0169959
v -0.0275000 -0.3416312 -0.0444959
v -0.0275000 -0.2983688 -0.0444959
v -0.0444959 -0.2850000 0.0169959
v -0.0444959 -0.3550000 0.0169959
v -0.0275000 -0.3416312 0.0444959
v -0.0275000 -0.2983688 0.0444959
v -0.0550000 -0.3200000 0.0000000
v -0.0289152 -0.3604544 0.0000000
v 0.0289152 -0.3604544 0.0000000
v -0.0289152 -0.4795456 0.0000000
v 0.0289152 -0.4795456 0.0000000
v 0.0000000 -0.4568012 0.0467858
v 0.0000000 -0.3831988 0.0467858
v 0.0000000 -0.4568012 -0.0467858
v 0.0000000 -0.3831988 -0.0467858
v 0.0467858 -0.4200000 -0.0289152
v 0.0467858 -0.4200000 0.0289152
v -0.0467858 -0.4200000 -0.0289152
v -0.0467858 -0.4200000 0.0289152
v 0.0000000 -0.3500000 0.0000000
v 0.0000000 -0.4900000 0.0000000
v -0.0169959 -0.4766312 0.0275000
v 0.0169959 -0.4766312 0.0275000
v -0.0169959 -0.3633688 0.0275000
v 0.0169959 -0.3633688 0.0275000
v 0.0000000 -0.4200000 0.0550000
v -0.0169959 -0.4766312 -0.0275000
v 0.0169959 -0.4766312 -0.0275000
v -0.0169959 -0.3633688 -0.0275000
v 0.0169959 -0.3633688 -0.0275000
v 0.0000000 -0.4200000 -0.0550000
v 0.0444959 -0.3850000 -0.0169959
v 0.0444959 -0.4550000 -0.0169959
v 0.0275000 -0.4416312 -0.0444959
v 0.0275000 -0.3983688 -0.0444959
v 0.0444959 -0.3850000 0.0169959
v 0.0444959 -0.4550000 0.0169959
v 0.0275000 -0.4416312 0.0444959
v 0.0275000 -0.3983688 0.0444959
v 0.0550000 -0.4200000 0.0000000
v -0.0444959 -0.3850000 -0.0169959
v -0.0444959 -0.4550000 -0.0169959
v -0.0275000 -0.4416312 -0.0444959
v -0.0275000 -0.3983688 -0.0444959
v -0.0444959 -0.3850000 0.0169959
v -0.0444959 -0.4550000 0.0169959
v -0.0275000 -0.4416312 0.0444959
v -0.0275000 -0.3983688 0.0444959
v -0.0550000 -0.4200000 0.0000000
vn -0.5986586 0.8010043 -0.0000000
vn 0.5986586 0.8010043 0.0000000
vn -0.5986586 -0.8010043 0.0000000
vn 0.5986586 -0.8010043 -0.0000000
vn 0.0000000 -0.4522619 0.8918852
vn -0.0000000 0.4522619 0.8918852
vn 0.0000000 -0.4522619 -0.8918852
vn -0.0000000 0.4522619 -0.8918852
vn 0.8502053 0.0000000 -0.5264512
vn 0.8502053 -0.0000000 0.5264512
vn -0.8502053 -0.0000000 -0.5264512
vn -0.8502053 0.0000000 0.5264512
vn -0.0000000 1.0000000 0.0000000
vn 0.0000000 -1.0000000 0.0000000
vn -0.3431601 -0.7530964 0.5613260
vn 0.3431601 -0.7530964 0.5613260
vn -0.3431601 0.7530964 0.5613260
vn 0.3431601 0.7530964 0.5613260
vn 0.0000000 0.0000000 1.0000000
vn -0.3431601 -0.7530964 -0.5613260
vn 0.3431601 -0.7530964 -0.5613260
vn -0.3431601 0.7530964 -0.5613260
vn 0.3431601 0.7530964 -0.5613260
vn 0.0000000 0.0000000 -1.0000000
vn 0.8439071 0.4273995 -0.3242691
vn 0.8439071 -0.4273995 -0.3242691
vn 0.5091599 -0.2580074 -0.8210898
vn 0.5091599 0.2580074 -0.8210898
vn 0.8439071 0.4273995 0.3242691
vn 0.8439071 -0.4273995 0.3242691
vn 0.5091599 -0.2580074 0.8210898
vn 0.5091599 0.2580074 0.8210898
vn 1.0000000 0.0000000 0.0000000
vn -0.8439071 0.4273995 -0.3242691
vn -0.8439071 -0.4273995 -0.3242691
vn -0.5091599 -0.2580074 -0.8210898
vn -0.5091599 0.2580074 -0.8210898
vn -0.8439071 0.4273995 0.3242691
vn -0.8439071 -0.4273995 0.3242691
vn -0.5091599 -0.2580074 0.8210898
vn -0.5091599 0.2580074 0.8210898
vn -1.0000000 0.0000000 0.0000000
vn -0.5986586 0.8010043 -0.0000000
vn 0.5986586 0.8010043 0.0000000
vn -0.5986586 -0.8010043 0.0000000
vn 0.5986586 -0.8010043 -0.0000000
vn 0.0000000 -0.4522619 0.8918852
vn -0.0000000 0.4522619 0.8918852
vn 0.0000000 -0.4522619 -0.8918852
vn -0.0000000 0.4522619 -0.8918852
vn 0.8502053 0.0000000 -0.5264512
vn 0.8502053 -0.0000000 0.5264512
vn -0.8502053 -0.0000000 -0.5264512
vn -0.8502053 0.0000000 0.5264512
vn -0.0000000 1.0000000 0.0000000
vn 0.0000000 -1.0000000 0.0000000
vn -0.3431601 -0.7530964 0.5613260
vn 0.3431601 -0.7530964 0.5613260
vn -0.3431601 0.7530964 0.5613260
vn 0.3431601 0.7530964 0.5613260
vn 0.0000000 0.0000000 1.0000000
vn -0.3431601 -0.7530964 -0.5613260
vn 0.3431601 -0.7530964 -0.5613260
vn -0.3431601 0.7530964 -0.5613260
vn 0.3431601 0.7530964 -0.5613260
vn 0.0000000 0.0000000 -1.0000000
vn 0.8439071 0.4273995 -0.3242691
vn 0.8439071 -0.4273995 -0.3242691
vn 0.5091599 -0.2580074 -0.8210898
vn 0.5091599 0.2580074 -0.8210898
vn 0.8439071 0.4273995 0.3242691
vn 0.8439071 -0.4273995 0.3242691
vn 0.5091599 -0.2580074 0.8210898
vn 0.5091599 0.2580074 0.8210898
vn 1.0000000 0.0000000 0.0000000
vn -0.8439071 0.4273995 -0.3242691
vn -0.8439071 -0.4273995 -0.3242691
vn -0.5091599 -0.2580074 -0.8210898
vn -0.5091599 0.2580074 -0.8210898
vn -0.8439071 0.4273995 0.3242691
vn -0.8439071 -0.4273995 0.3242691
vn -0.5091599 -0.2580074 0.8210898
vn -0.5091599 0.2580074 0.8210898
vn -1.0000000 0.0000000 0.0000000
vn -0.5986586 0.8010043 -0.0000000
vn 0.5986586 0.8010043 0.0000000
vn -0.5986586 -0.8010043 0.0000000
vn 0.5986586 -0.8010043 -0.0000000
vn 0.0000000 -0.4522619 0.8918852
vn -0.0000000 0.4522619 0.8918852
vn 0.0000000 -0.4522619 -0.8918852
vn -0.0000000 0.4522619 -0.8918852
vn 0.8502053 0.0000000 -0.5264512
vn 0.8502053 -0.0000000 0.5264512
vn -0.8502053 -0.0000000 -0.5264512
vn -0.8502053 0.0000000 0.5264512
vn -0.0000000 1.0000000 0.0000000
vn 0.0000000 -1.0000000 0.0000000
vn -0.3431601 -0.7530964 0.5613260
vn 0.3431601 -0.7530964 0.5613260
vn -0.3431601 0.7530964 0.5613260
vn 0.3431601 0.7530964 0.5613260
vn 0.0000000 0.0000000 1.0000000
vn -0.3431601 -0.7530964 -0.5613260
vn 0.3431601 -0.7530964 -0.5613260
vn -0.3431601 0.7530964 -0.5613260
vn 0.3431601 0.7530964 -0.5613260
vn 0.0000000 0.0000000 -1.0000000
vn 0.8439071 0.4273995 -0.3242691
vn 0.8439071 -0.4273995 -0.3242691
vn 0.5091599 -0.2580074 -0.8210898
vn 0.5091599 0.2580074 -0.8210898
vn 0.8439071 0.4273995 0.3242691
vn 0.8439071 -0.4273995 0.3242691
vn 0.5091599 -0.2580074 0.8210898
vn 0.5091599 0.2580074 0.8210898
vn 1.0000000 0.0000000 0.0000000
vn -0.8439071 0.4273995 -0.3242691
vn -0.8439071 -0.4273995 -0.3242691
vn -0.5091599 -0.2580074 -0.8210898
vn -0.5091599 0.2580074 -0.8210898
vn -0.8439071 0.4273995 0.3242691
vn -0.8439071 -0.4273995 0.3242691
vn -0.5091599 -0.2580074 0.8210898
vn -0.5091599 0.2580074 0.8210898
vn -1.0000000 0.0000000 0.0000000
vn -0.5986586 0.8010043 -0.0000000
vn 0.5986586 0.8010043 0.0000000
vn -0.5986586 -0.8010043 0.0000000
vn 0.5986586 -0.8010043 -0.0000000
vn 0.0000000 -0.4522619 0.8918852
vn -0.0000000 0.4522619 0.8918852
vn 0.0000000 -0.4522619 -0.8918852
vn -0.0000000 0.4522619 -0.8918852
vn 0.8502053 0.0000000 -0.5264512
vn 0.8502053 0.0000000 0.5264512
vn -0.8502053 0.0000000 -0.5264512
vn -0.8502053 0.0000000 0.5264512
vn -0.0000000 1.0000000 0.0000000
vn 0.0000000 -1.0000000 0.0000000
vn -0.3431601 -0.7530964 0.5613260
vn 0.3431601 -0.7530964 0.5613260
vn -0.3431601 0.7530964 0.5613260
vn 0.3431601 0.7530964 0.5613260
vn -0.0000000 0.0000000 1.0000000
vn -0.3431601 -0.7530964 -0.5613260
vn 0.3431601 -0.7530964 -0.5613260
vn -0.3431601 0.7530964 -0.5613260
vn 0.3431601 0.7530964 -0.5613260
vn 0.0000000 0.0000000 -1.0000000
vn 0.8439071 0.4273995 -0.3242691
vn 0.8439071 -0.4273995 -0.3242691
vn 0.5091599 -0.2580074 -0.8210898
vn 0.5091599 0.2580074 -0.8210898
vn 0.8439071 0.4273995 0.3242691
vn 0.8439071 -0.4273995 0.3242691
vn 0.5091599 -0.2580074 0.8210898
vn 0.5091599 0.2580074 0.8210898
vn 1.0000000 0.0000000 0.0000000
vn -0.8439071 0.4273995 -0.3242691
vn -0.8439071 -0.4273995 -0.3242691
vn -0.5091599 -0.2580074 -0.8210898
vn -0.5091599 0.2580074 -0.8210898
vn -0.8439071 0.4273995 0.3242691
vn -0.8439071 -0.4273995 0.3242691
vn -0.5091599 -0.2580074 0.8210898
vn -0.5091599 0.2580074 0.8210898
vn -1.0000000 0.0000000 0.0000000
vn -0.5986586 0.8010043 -0.0000000
vn 0.5986586 0.8010043 0.0000000
vn -0.5986586 -0.8010043 0.0000000
vn 0.5986586 -0.8010043 -0.0000000
vn 0.0000000 -0.4522619 0.8918852
vn -0.0000000 0.4522619 0.8918852
vn 0.0000000 -0.4522619 -0.8918852
vn -0.0000000 0.4522619 -0.8918852
vn 0.8502053 0.0000000 -0.5264512
vn 0.8502053 -0.0000000 0.5264512
vn -0.8502053 -0.0000000 -0.5264512
vn -0.8502053 0.0000000 0.5264512
vn -0.0000000 1.0000000 0.0000000
vn 0.0000000 -1.0000000 0.0000000
vn -0.3431601 -0.7530964 0.5613260
vn 0.3431601 -0.7530964 0.5613260
vn -0.3431601 0.7530964 0.5613260
vn 0.3431601 0.7530964 0.5613260
vn -0.0000000 0.0000000 1.0000000
vn -0.3431601 -0.7530964 -0.5613260
vn 0.3431601 -0.7530964 -0.5613260
vn -0.3431601 0.7530964 -0.5613260
vn 0.3431601 0.7530964 -0.5613260
vn 0.0000000 0.0000000 -1.0000000
vn 0.8439071 0.4273995 -0.3242691
vn 0.8439071 -0.4273995 -0.3242691
vn 0.5091599 -0.2580074 -0.8210898
vn 0.5091599 0.2580074 -0.8210898
vn 0.8439071 0.4273995 0.3242691
vn 0.8439071 -0.4273995 0.3242691
vn 0.5091599 -0.2580074 0.8210898
vn 0.5091599 0.2580074 0.8210898
vn 1.0000000 0.0000000 0.0000000
vn -0.8439071 0.4273995 -0.3242691
vn -0.8439071 -0.4273995 -0.3242691
vn -0.5091599 -0.2580074 -0.8210898
vn -0.5091599 0.2580074 -0.8210898
vn -0.8439071 0.4273995 0.3242691
vn -0.8439071 -0.4273995 0.3242691
vn -0.5091599 -0.2580074 0.8210898
vn -0.5091599 0.2580074 0.8210898
vn -1.0000000 0.0000000 0.0000000
vn -0.5986586 0.8010043 -0.0000000
vn 0.5986586 0.8010043 0.0000000
vn -0.5986586 -0.8010043 0.0000000
vn 0.5986586 -0.8010043 -0.0000000
vn 0.0000000 -0.4522619 0.8918852
vn -0.0000000 0.4522619 0.8918852
vn 0.0000000 -0.4522619 -0.8918852
vn -0.0000000 0.4522619 -0.8918852
vn 0.8502053 0.0000000 -0.5264512
vn 0.8502053 -0.0000000 0.5264512
vn -0.8502053 -0.0000000 -0.5264512
vn -0.8502053 0.0000000 0.5264512
vn -0.0000000 1.0000000 0.0000000
vn 0.0000000 -1.0000000 0.0000000
vn -0.3431601 -0.7530964 0.5613260
vn 0.3431601 -0.7530964 0.5613260
vn -0.3431601 0.7530964 0.5613260
vn 0.3431601 0.7530964 0.5613260
vn -0.0000000 0.0000000 1.0000000
vn -0.3431601 -0.7530964 -0.5613260
vn 0.3431601 -0.7530964 -0.5613260
vn -0.3431601 0.7530964 -0.5613260
vn 0.3431601 0.7530964 -0.5613260
vn 0.0000000 0.0000000 -1.0000000
vn 0.8439071 0.4273995 -0.3242691
vn 0.8439071 -0.4273995 -0.3242691
vn 0.5091599 -0.2580074 -0.8210898
vn 0.5091599 0.2580074 -0.8210898
vn 0.8439071 0.4273995 0.3242691
vn 0.8439071 -0.4273995 0.3242691
vn 0.5091599 -0.2580074 0.8210898
vn 0.5091599 0.2580074 0.8210898
vn 1.0000000 0.0000000 0.0000000
vn -0.8439071 0.4273995 -0.3242691
vn -0.8439071 -0.4273995 -0.3242691
vn -0.5091599 -0.2580074 -0.8210898
vn -0.5091599 0.2580074 -0.8210898
vn -0.8439071 0.4273995 0.3242691
vn -0.8439071 -0.4273995 0.3242691
vn -0.5091599 -0.2580074 0.8210898
vn -0.5091599 0.2580074 0.8210898
vn -1.0000000 0.0000000 0.0000000
vn -0.5986586 0.8010043 0.0000000
vn 0.5986586 0.8010043 0.0000000
vn -0.5986586 -0.8010043 0.0000000
vn 0.5986586 -0.8010043 0.0000000
vn 0.0000000 -0.4522619 0.8918852
vn -0.0000000 0.4522619 0.8918852
vn 0.0000000 -0.4522619 -0.8918852
vn -0.0000000 0.4522619 -0.8918852
vn 0.8502053 0.0000000 -0.5264512
vn 0.8502053 -0.0000000 0.5264512
vn -0.8502053 -0.0000000 -0.5264512
vn -0.8502053 0.0000000 0.5264512
vn 0.0000000 1.0000000 -0.0000000
vn 0.0000000 -1.0000000 -0.0000000
vn -0.3431601 -0.7530964 0.5613260
vn 0.3431601 -0.7530964 0.5613260
vn -0.3431601 0.7530964 0.5613260
vn 0.3431601 0.7530964 0.5613260
vn -0.0000000 0.0000000 1.0000000
vn -0.3431601 -0.7530964 -0.5613260
vn 0.3431601 -0.7530964 -0.5613260
vn -0.3431601 0.7530964 -0.5613260
vn 0.3431601 0.7530964 -0.5613260
vn 0.0000000 0.0000000 -1.0000000
vn 0.8439071 0.4273995 -0.3242691
vn 0.8439071 -0.4273995 -0.3242691
vn 0.5091599 -0.2580074 -0.8210898
vn 0.5091599 0.2580074 -0.8210898
vn 0.8439071 0.4273995 0.3242691
vn 0.8439071 -0.4273995 0.3242691
vn 0.5091599 -0.2580074 0.8210898
vn 0.5091599 0.2580074 0.8210898
vn 1.0000000 0.0000000 0.0000000
vn -0.8439071 0.4273995 -0.3242691
vn -0.8439071 -0.4273995 -0.3242691
vn -0.5091599 -0.2580074 -0.8210898
vn -0.5091599 0.2580074 -0.8210898
vn -0.8439071 0.4273995 0.3242691
vn -0.8439071 -0.4273995 0.3242691
vn -0.5091599 -0.2580074 0.8210898
vn -0.5091599 0.2580074 0.8210898
vn -1.0000000 0.0000000 0.0000000
vn -0.5986586 0.8010043 -0.0000000
vn 0.5986586 0.8010043 0.0000000
vn -0.5986586 -0.8010043 0.0000000
vn 0.5986586 -0.8010043 -0.0000000
vn 0.0000000 -0.4522619 0.8918852
vn -0.0000000 0.4522619 0.8918852
vn 0.0000000 -0.4522619 -0.8918852
vn -0.0000000 0.4522619 -0.8918852
vn 0.8502053 0.0000000 -0.5264512
vn 0.8502053 -0.0000000 0.5264512
vn -0.8502053 -0.0000000 -0.5264512
vn -0.8502053 0.0000000 0.5264512
vn -0.0000000 1.0000000 0.0000000
vn 0.0000000 -1.0000000 0.0000000
vn -0.3431601 -0.7530964 0.5613260
vn 0.3431601 -0.7530964 0.5613260
vn -0.3431601 0.7530964 0.5613260
vn 0.3431601 0.7530964 0.5613260
vn -0.0000000 0.0000000 1.0000000
vn -0.3431601 -0.7530964 -0.5613260
vn 0.3431601 -0.7530964 -0.5613260
vn -0.3431601 0.7530964 -0.5613260
vn 0.3431601 0.7530964 -0.5613260
vn 0.0000000 0.0000000 -1.0000000
vn 0.8439071 0.4273995 -0.3242691
vn 0.8439071 -0.4273995 -0.3242691
vn 0.5091599 -0.2580074 -0.8210898
vn 0.5091599 0.2580074 -0.8210898
vn 0.8439071 0.4273995 0.3242691
vn 0.8439071 -0.4273995 0.3242691
vn 0.5091599 -0.2580074 0.8210898
vn 0.5091599 0.2580074 0.8210898
vn 1.0000000 0.0000000 0.0000000
vn -0.8439071 0.4273995 -0.3242691
vn -0.8439071 -0.4273995 -0.3242691
vn -0.5091599 -0.2580074 -0.8210898
vn -0.5091599 0.2580074 -0.8210898
vn -0.8439071 0.4273995 0.3242691
vn -0.8439071 -0.4273995 0.3242691
vn -0.5091599 -0.2580074 0.8210898
vn -0.5091599 0.2580074 0.8210898
vn -1.0000000 0.0000000 0.0000000
vn -0.5986586 0.8010043 0.0000000
vn 0.5986586 0.8010043 0.0000000
vn -0.5986586 -0.8010043 -0.0000000
vn 0.5986586 -0.8010043 -0.0000000
vn -0.0000000 -0.4522619 0.8918852
vn -0.0000000 0.4522619 0.8918852
vn 0.0000000 -0.4522619 -0.8918852
vn -0.0000000 0.4522619 -0.8918852
vn 0.8502053 0.0000000 -0.5264512
vn 0.8502053 -0.0000000 0.5264512
vn -0.8502053 -0.0000000 -0.5264512
vn -0.8502053 0.0000000 0.5264512
vn 0.0000000 1.0000000 -0.0000000
vn 0.0000000 -1.0000000 0.0000000
vn -0.3431601 -0.7530964 0.5613260
vn 0.3431601 -0.7530964 0.5613260
vn -0.3431601 0.7530964 0.5613260
vn 0.3431601 0.7530964 0.5613260
vn -0.0000000 0.0000000 1.0000000
vn -0.3431601 -0.7530964 -0.5613260
vn 0.3431601 -0.7530964 -0.5613260
vn -0.3431601 0.7530964 -0.5613260
vn 0.3431601 0.7530964 -0.5613260
vn 0.0000000 0.0000000 -1.0000000
vn 0.8439071 0.4273995 -0.3242691
vn 0.8439071 -0.4273995 -0.3242691
vn 0.5091599 -0.2580074 -0.8210898
vn 0.5091599 0.2580074 -0.8210898
vn 0.8439071 0.4273995 0.3242691
vn 0.8439071 -0.4273995 0.3242691
vn 0.5091599 -0.2580074 0.8210898
vn 0.5091599 0.2580074 0.8210898
vn 1.0000000 0.0000000 0.0000000
vn -0.8439071 0.4273995 -0.3242691
vn -0.8439071 -0.4273995 -0.3242691
vn -0.5091599 -0.2580074 -0.8210898
vn -0.5091599 0.2580074 -0.8210898
vn -0.8439071 0.4273995 0.3242691
vn -0.8439071 -0.4273995 0.3242691
vn -0.5091599 -0.2580074 0.8210898
vn -0.5091599 0.2580074 0.8210898
vn -1.0000000 0.0000000 0.0000000
vn -0.5986586 0.8010043 -0.0000000
vn 0.5986586 0.8010043 -0.0000000
vn -0.5986586 -0.8010043 -0.0000000
vn 0.5986586 -0.8010043 -0.0000000
vn -0.0000000 -0.4522619 0.8918852
vn 0.0000000 0.4522619 0.8918852
vn 0.0000000 -0.4522619 -0.8918852
vn -0.0000000 0.4522619 -0.8918852
vn 0.8502053 0.0000000 -0.5264512
vn 0.8502053 -0.0000000 0.5264512
vn -0.8502053 -0.0000000 -0.5264512
vn -0.8502053 0.0000000 0.5264512
vn 0.0000000 1.0000000 0.0000000
vn 0.0000000 -1.0000000 0.0000000
vn -0.3431601 -0.7530964 0.5613260
vn 0.3431601 -0.7530964 0.5613260
vn -0.3431601 0.7530964 0.5613260
vn 0.3431601 0.7530964 0.5613260
vn -0.0000000 0.0000000 1.0000000
vn -0.3431601 -0.7530964 -0.5613260
vn 0.3431601 -0.7530964 -0.5613260
vn -0.3431601 0.7530964 -0.5613260
vn 0.3431601 0.7530964 -0.5613260
vn 0.0000000 0.0000000 -1.0000000
vn 0.8439071 0.4273995 -0.3242691
vn 0.8439071 -0.4273995 -0.3242691
vn 0.5091599 -0.2580074 -0.8210898
vn 0.5091599 0.2580074 -0.8210898
vn 0.8439071 0.4273995 0.3242691
vn 0.8439071 -0.4273995 0.3242691
vn 0.5091599 -0.2580074 0.8210898
vn 0.5091599 0.2580074 0.8210898
vn 1.0000000 0.0000000 0.0000000
vn -0.8439071 0.4273995 -0.3242691
vn -0.8439071 -0.4273995 -0.3242691
vn -0.5091599 -0.2580074 -0.8210898
vn -0.5091599 0.2580074 -0.8210898
vn -0.8439071 0.4273995 0.3242691
vn -0.8439071 -0.4273995 0.3242691
vn -0.5091599 -0.2580074 0.8210898
vn -0.5091599 0.2580074 0.8210898
vn -1.0000000 0.0000000 0.0000000
vn -0.5986586 0.8010043 -0.0000000
vn 0.5986586 0.8010043 -0.0000000
vn -0.5986586 -0.8010043 -0.0000000
vn 0.5986586 -0.8010043 -0.0000000
vn 0.0000000 -0.4522619 0.8918852
vn 0.0000000 0.4522619 0.8918852
vn 0.0000000 -0.4522619 -0.8918852
vn -0.0000000 0.4522619 -0.8918852
vn 0.8502053 -0.0000000 -0.5264512
vn 0.8502053 -0.0000000 0.5264512
vn -0.8502053 -0.0000000 -0.5264512
vn -0.8502053 -0.0000000 0.5264512
vn 0.0000000 1.0000000 0.0000000
vn -0.0000000 -1.0000000 -0.0000000
vn -0.3431601 -0.7530964 0.5613260
vn 0.3431601 -0.7530964 0.5613260
vn -0.3431601 0.7530964 0.5613260
vn 0.3431601 0.7530964 0.5613260
vn -0.0000000 0.0000000 1.0000000
vn -0.3431601 -0.7530964 -0.5613260
vn 0.3431601 -0.7530964 -0.5613260
vn -0.3431601 0.7530964 -0.5613260
vn 0.3431601 0.7530964 -0.5613260
vn 0.0000000 0.0000000 -1.0000000
vn 0.8439071 0.4273995 -0.3242691
vn 0.8439071 -0.4273995 -0.3242691
vn 0.5091599 -0.2580074 -0.8210898
vn 0.5091599 0.2580074 -0.8210898
vn 0.8439071 0.4273995 0.3242691
vn 0.8439071 -0.4273995 0.3242691
vn 0.5091599 -0.2580074 0.8210898
vn 0.5091599 0.2580074 0.8210898
vn 1.0000000 -0.0000000 0.0000000
vn -0.8439071 0.4273995 -0.3242691
vn -0.8439071 -0.4273995 -0.3242691
vn -0.5091599 -0.2580074 -0.8210898
vn -0.5091599 0.2580074 -0.8210898
vn -0.8439071 0.4273995 0.3242691
vn -0.8439071 -0.4273995 0.3242691
vn -0.5091599 -0.2580074 0.8210898
vn -0.5091599 0.2580074 0.8210898
vn -1.0000000 -0.0000000 0.0000000
vn -0.5986586 0.8010043 -0.0000000
vn 0.5986586 0.8010043 -0.0000000
vn -0.5986586 -0.8010043 -0.0000000
vn 0.5986586 -0.8010043 -0.0000000
vn 0.0000000 -0.4522619 0.8918852
vn -0.0000000 0.4522619 0.8918852
vn 0.0000000 -0.4522619 -0.8918852
vn -0.0000000 0.4522619 -0.8918852
vn 0.8502053 0.0000000 -0.5264512
vn 0.8502053 -0.0000000 0.5264512
vn -0.8502053 -0.0000000 -0.5264512
vn -0.8502053 0.0000000 0.5264512
vn 0.0000000 1.0000000 -0.0000000
vn -0.0000000 -1.0000000 -0.0000000
vn -0.3431601 -0.7530964 0.5613260
vn 0.3431601 -0.7530964 0.5613260
vn -0.3431601 0.7530964 0.5613260
vn 0.3431601 0.7530964 0.5613260
vn -0.0000000 0.0000000 1.0000000
vn -0.3431601 -0.7530964 -0.5613260
vn 0.3431601 -0.7530964 -0.5613260
vn -0.3431601 0.7530964 -0.5613260
vn 0.3431601 0.7530964 -0.5613260
vn 0.0000000 0.0000000 -1.0000000
vn 0.8439071 0.4273995 -0.3242691
vn 0.8439071 -0.4273995 -0.3242691
vn 0.5091599 -0.2580074 -0.8210898
vn 0.5091599 0.2580074 -0.8210898
vn 0.8439071 0.4273995 0.3242691
vn 0.8439071 -0.4273995 0.3242691
vn 0.5091599 -0.2580074 0.8210898
vn 0.5091599 0.2580074 0.8210898
vn 1.0000000 0.0000000 0.0000000
vn -0.8439071 0.4273995 -0.3242691
vn -0.8439071 -0.4273995 -0.3242691
vn -0.5091599 -0.2580074 -0.8210898
vn -0.5091599 0.2580074 -0.8210898
vn -0.8439071 0.4273995 0.3242691
vn -0.8439071 -0.4273995 0.3242691
vn -0.5091599 -0.2580074 0.8210898
vn -0.5091599 0.2580074 0.8210898
vn -1.0000000 -0.0000000 0.0000000
vn -0.5986586 0.8010043 -0.0000000
vn 0.5986586 0.8010043 -0.0000000
vn -0.5986586 -0.8010043 0.0000000
vn 0.5986586 -0.8010043 0.0000000
vn -0.0000000 -0.4522619 0.8918852
vn -0.0000000 0.4522619 0.8918852
vn 0.0000000 -0.4522619 -0.8918852
vn -0.0000000 0.4522619 -0.8918852
vn 0.8502053 0.0000000 -0.5264512
vn 0.8502053 -0.0000000 0.5264512
vn -0.8502053 0.0000000 -0.5264512
vn -0.8502053 0.0000000 0.5264512
vn 0.0000000 1.0000000 -0.0000000
vn 0.0000000 -1.0000000 0.0000000
vn -0.3431601 -0.7530964 0.5613260
vn 0.3431601 -0.7530964 0.5613260
vn -0.3431601 0.7530964 0.5613260
vn 0.3431601 0.7530964 0.5613260
vn 0.0000000 -0.0000000 1.0000000
vn -0.3431601 -0.7530964 -0.5613260
vn 0.3431601 -0.7530964 -0.5613260
vn -0.3431601 0.7530964 -0.5613260
vn 0.3431601 0.7530964 -0.5613260
vn 0.0000000 0.0000000 -1.0000000
vn 0.8439071 0.4273995 -0.3242691
vn 0.8439071 -0.4273995 -0.3242691
vn 0.5091599 -0.2580074 -0.8210898
vn 0.5091599 0.2580074 -0.8210898
vn 0.8439071 0.4273995 0.3242691
vn 0.8439071 -0.4273995 0.3242691
vn 0.5091599 -0.2580074 0.8210898
vn 0.5091599 0.2580074 0.8210898
vn 1.0000000 0.0000000 0.0000000
vn -0.8439071 0.4273995 -0.3242691
vn -0.8439071 -0.4273995 -0.3242691
vn -0.5091599 -0.2580074 -0.8210898
vn -0.5091599 0.2580074 -0.8210898
vn -0.8439071 0.4273995 0.3242691
vn -0.8439071 -0.4273995 0.3242691
vn -0.5091599 -0.2580074 0.8210898
vn -0.5091599 0.2580074 0.8210898
vn -1.0000000 0.0000000 0.0000000
vn -0.5986586 0.8010043 0.0000000
vn 0.5986586 0.8010043 0.0000000
vn -0.5986586 -0.8010043 -0.0000000
vn 0.5986586 -0.8010043 0.0000000
vn -0.0000000 -0.4522619 0.8918852
vn 0.0000000 0.4522619 0.8918852
vn 0.0000000 -0.4522619 -0.8918852
vn -0.0000000 0.4522619 -0.8918852
vn 0.8502053 0.0000000 -0.5264512
vn 0.8502053 -0.0000000 0.5264512
vn -0.8502053 0.0000000 -0.5264512
vn -0.8502053 0.0000000 0.5264512
vn -0.0000000 1.0000000 0.0000000
vn -0.0000000 -1.0000000 -0.0000000
vn -0.3431601 -0.7530964 0.5613260
vn 0.3431601 -0.7530964 0.5613260
vn -0.3431601 0.7530964 0.5613260
vn 0.3431601 0.7530964 0.5613260
vn 0.0000000 0.0000000 1.0000000
vn -0.3431601 -0.7530964 -0.5613260
vn 0.3431601 -0.7530964 -0.5613260
vn -0.3431601 0.7530964 -0.5613260
vn 0.3431601 0.7530964 -0.5613260
vn 0.0000000 0.0000000 -1.0000000
vn 0.8439071 0.4273995 -0.3242691
vn 0.8439071 -0.4273995 -0.3242691
vn 0.5091599 -0.2580074 -0.8210898
vn 0.5091599 0.2580074 -0.8210898
vn 0.8439071 0.4273995 0.3242691
vn 0.8439071 -0.4273995 0.3242691
vn 0.5091599 -0.2580074 0.8210898
vn 0.5091599 0.2580074 0.8210898
vn 1.0000000 0.0000000 0.0000000
vn -0.8439071 0.4273995 -0.3242691
vn -0.8439071 -0.4273995 -0.3242691
vn -0.5091599 -0.2580074 -0.8210898
vn -0.5091599 0.2580074 -0.8210898
vn -0.8439071 0.4273995 0.3242691
vn -0.8439071 -0.4273995 0.3242691
vn -0.5091599 -0.2580074 0.8210898
vn -0.5091599 0.2580074 0.8210898
vn -1.0000000 -0.0000000 0.0000000
vn -0.5986586 0.8010043 -0.0000000
vn 0.5986586 0.8010043 -0.0000000
vn -0.5986586 -0.8010043 -0.0000000
vn 0.5986586 -0.8010043 -0.0000000
vn 0.0000000 -0.4522619 0.8918852
vn -0.0000000 0.4522619 0.8918852
vn 0.0000000 -0.4522619 -0.8918852
vn -0.0000000 0.4522619 -0.8918852
vn 0.8502053 0.0000000 -0.5264512
vn 0.8502053 -0.0000000 0.5264512
vn -0.8502053 -0.0000000 -0.5264512
vn -0.8502053 0.0000000 0.5264512
vn 0.0000000 1.0000000 -0.0000000
vn -0.0000000 -1.0000000 -0.0000000
vn -0.3431601 -0.7530964 0.5613260
vn 0.3431601 -0.7530964 0.5613260
vn -0.3431601 0.7530964 0.5613260
vn 0.3431601 0.7530964 0.5613260
vn -0.0000000 0.0000000 1.0000000
vn -0.3431601 -0.7530964 -0.5613260
vn 0.3431601 -0.7530964 -0.5613260
vn -0.3431601 0.7530964 -0.5613260
vn 0.3431601 0.7530964 -0.5613260
vn 0.0000000 0.0000000 -1.0000000
vn 0.8439071 0.4273995 -0.3242691
vn 0.8439071 -0.4273995 -0.3242691
vn 0.5091599 -0.2580074 -0.8210898
vn 0.5091599 0.2580074 -0.8210898
vn 0.8439071 0.4273995 0.3242691
vn 0.8439071 -0.4273995 0.3242691
vn 0.5091599 -0.2580074 0.8210898
vn 0.5091599 0.2580074 0.8210898
vn 1.0000000 0.0000000 0.0000000
vn -0.8439071 0.4273995 -0.3242691
vn -0.8439071 -0.4273995 -0.3242691
vn -0.5091599 -0.2580074 -0.8210898
vn -0.5091599 0.2580074 -0.8210898
vn -0.8439071 0.4273995 0.3242691
vn -0.8439071 -0.4273995 0.3242691
vn -0.5091599 -0.2580074 0.8210898
vn -0.5091599 0.2580074 0.8210898
vn -1.0000000 -0.0000000 0.0000000
vn -0.5986586 0.8010043 -0.0000000
vn 0.5986586 0.8010043 -0.0000000
vn -0.5986586 -0.8010043 -0.0000000
vn 0.5986586 -0.8010043 -0.0000000
vn -0.0000000 -0.4522619 0.8918852
vn -0.0000000 0.4522619 0.8918852
vn 0.0000000 -0.4522619 -0.8918852
vn -0.0000000 0.4522619 -0.8918852
vn 0.8502053 0.0000000 -0.5264512
vn 0.8502053 0.0000000 0.5264512
vn -0.8502053 0.0000000 -0.5264512
vn -0.8502053 0.0000000 0.5264512
vn 0.0000000 1.0000000 -0.0000000
vn 0.0000000 -1.0000000 0.0000000
vn -0.3431601 -0.7530964 0.5613260
vn 0.3431601 -0.7530964 0.5613260
vn -0.3431601 0.7530964 0.5613260
vn 0.3431601 0.7530964 0.5613260
vn -0.0000000 0.0000000 1.0000000
vn -0.3431601 -0.7530964 -0.5613260
vn 0.3431601 -0.7530964 -0.5613260
vn -0.3431601 0.7530964 -0.5613260
vn 0.3431601 0.7530964 -0.5613260
vn 0.0000000 0.0000000 -1.0000000
vn 0.8439071 0.4273995 -0.3242691
vn 0.8439071 -0.4273995 -0.3242691
vn 0.5091599 -0.2580074 -0.8210898
vn 0.5091599 0.2580074 -0.8210898
vn 0.8439071 0.4273995 0.3242691
vn 0.8439071 -0.4273995 0.3242691
vn 0.5091599 -0.2580074 0.8210898
vn 0.5091599 0.2580074 0.8210898
vn 1.0000000 0.0000000 0.0000000
vn -0.8439071 0.4273995 -0.3242691
vn -0.8439071 -0.4273995 -0.3242691
vn -0.5091599 -0.2580074 -0.8210898
vn -0.5091599 0.2580074 -0.8210898
vn -0.8439071 0.4273995 0.3242691
vn -0.8439071 -0.4273995 0.3242691
vn -0.5091599 -0.2580074 0.8210898
vn -0.5091599 0.2580074 0.8210898
vn -1.0000000 0.0000000 0.0000000
vn -0.5986586 0.8010043 -0.0000000
vn 0.5986586 0.8010043 -0.0000000
vn -0.5986586 -0.8010043 -0.0000000
vn 0.5986586 -0.8010043 -0.0000000
vn -0.0000000 -0.4522619 0.8918852
vn 0.0000000 0.4522619 0.8918852
vn 0.0000000 -0.4522619 -0.8918852
vn -0.0000000 0.4522619 -0.8918852
vn 0.8502053 0.0000000 -0.5264512
vn 0.8502053 -0.0000000 0.5264512
vn -0.8502053 -0.0000000 -0.5264512
vn -0.8502053 0.0000000 0.5264512
vn 0.0000000 1.0000000 0.0000000
vn 0.0000000 -1.0000000 0.0000000
vn -0.3431601 -0.7530964 0.5613260
vn 0.3431601 -0.7530964 0.5613260
vn -0.3431601 0.7530964 0.5613260
vn 0.3431601 0.7530964 0.5613260
vn -0.0000000 0.0000000 1.0000000
vn -0.3431601 -0.7530964 -0.5613260
vn 0.3431601 -0.7530964 -0.5613260
vn -0.3431601 0.7530964 -0.5613260
vn 0.3431601 0.7530964 -0.5613260
vn 0.0000000 0.0000000 -1.0000000
vn 0.8439071 0.4273995 -0.3242691
vn 0.8439071 -0.4273995 -0.3242691
vn 0.5091599 -0.2580074 -0.8210898
vn 0.5091599 0.2580074 -0.8210898
vn 0.8439071 0.4273995 0.3242691
vn 0.8439071 -0.4273995 0.3242691
vn 0.5091599 -0.2580074 0.8210898
vn 0.5091599 0.2580074 0.8210898
vn 1.0000000 0.0000000 0.0000000
vn -0.8439071 0.4273995 -0.3242691
vn -0.8439071 -0.4273995 -0.3242691
vn -0.5091599 -0.2580074 -0.8210898
vn -0.5091599 0.2580074 -0.8210898
vn -0.8439071 0.4273995 0.3242691
vn -0.8439071 -0.4273995 0.3242691
vn -0.5091599 -0.2580074 0.8210898
vn -0.5091599 0.2580074 0.8210898
vn -1.0000000 0.0000000 0.0000000
vn -0.5986586 0.8010043 -0.0000000
vn 0.5986586 0.8010043 0.0000000
vn -0.5986586 -0.8010043 0.0000000
vn 0.5986586 -0.8010043 -0.0000000
vn -0.0000000 -0.4522619 0.8918852
vn 0.0000000 0.4522619 0.8918852
vn 0.0000000 -0.4522619 -0.8918852
vn -0.0000000 0.4522619 -0.8918852
vn 0.8502053 0.0000000 -0.5264512
vn 0.8502053 -0.0000000 0.5264512
vn -0.8502053 -0.0000000 -0.5264512
vn -0.8502053 0.0000000 0.5264512
vn 0.0000000 1.0000000 0.0000000
vn 0.0000000 -1.0000000 0.0000000
vn -0.3431601 -0.7530964 0.5613260
vn 0.3431601 -0.7530964 0.5613260
vn -0.3431601 0.7530964 0.5613260
vn 0.3431601 0.7530964 0.5613260
vn -0.0000000 0.0000000 1.0000000
vn -0.3431601 -0.7530964 -0.5613260
vn 0.3431601 -0.7530964 -0.5613260
vn -0.3431601 0.7530964 -0.5613260
vn 0.3431601 0.7530964 -0.5613260
vn 0.0000000 0.0000000 -1.0000000
vn 0.8439071 0.4273995 -0.3242691
vn 0.8439071 -0.4273995 -0.3242691
vn 0.5091599 -0.2580074 -0.8210898
vn 0.5091599 0.2580074 -0.8210898
vn 0.8439071 0.4273995 0.3242691
vn 0.8439071 -0.4273995 0.3242691
vn 0.5091599 -0.2580074 0.8210898
vn 0.5091599 0.2580074 0.8210898
vn 1.0000000 0.0000000 0.0000000
vn -0.8439071 0.4273995 -0.3242691
vn -0.8439071 -0.4273995 -0.3242691
vn -0.5091599 -0.2580074 -0.8210898
vn -0.5091599 0.2580074 -0.8210898
vn -0.8439071 0.4273995 0.3242691
vn -0.8439071 -0.4273995 0.3242691
vn -0.5091599 -0.2580074 0.8210898
vn -0.5091599 0.2580074 0.8210898
vn -1.0000000 0.0000000 0.0000000
f 1//1 38//38 17//17
f 38//38 12//12 41//41
f 17//17 41//41 6//6
f 38//38 41//41 17//17
f 1//1 17//17 13//13
f 17//17 6//6 18//18
f 13//13 18//18 2//2
f 17//17 18//18 13//13
f 1//1 13//13 22//22
f 13//13 2//2 23//23
f 22//22 23//23 8//8
f 13//13 23//23 22//22
f 1//1 22//22 34//34
f 22//22 8//8 37//37
f 34//34 37//37 11//11
f 22//22 37//37 34//34
f 1//1 34//34 38//38
f 34//34 11//11 42//42
f 38//38 42//42 12//12
f 34//34 42//42 38//38
f 2//2 18//18 29//29
f 18//18 6//6 32//32
f 29//29 32//32 10//10
f 18//18 32//32 29//29
f 6//6 41//41 19//19
f 41//41 12//12 40//40
f 19//19 40//40 5//5
f 41//41 40//40 19//19
f 12//12 42//42 39//39
f 42//42 11//11 35//35
f 39//39 35//35 3//3
f 42//42 35//35 39//39
f 11//11 37//37 36//36
f 37//37 8//8 24//24
f 36//36 24//24 7//7
f 37//37 24//24 36//36
f 8//8 23//23 28//28
f 23//23 2//2 25//25
f 28//28 25//25 9//9
f 23//23 25//25 28//28
f 4//4 30//30 16//16
f 30//30 10//10 31//31
f 16//16 31//31 5//5
f 30//30 31//31 16//16
f 4//4 16//16 14//14
f 16//16 5//5 15//15
f 14//14 15//15 3//3
f 16//16 15//15 14//14
f 4//4 14//14 21//21
f 14//14 3//3 20//20
f 21//21 20//20 7//7
f 14//14 20//20 21//21
f 4//4 21//21 26//26
f 21//21 7//7 27//27
f 26//26 27//27 9//9
f 21//21 27//27 26//26
f 4//4 26//26 30//30
f 26//26 9//9 33//33
f 30//30 33//33 10//10
f 26//26 33//33 30//30
f 5//5 31//31 19//19
f 31//31 10//10 32//32
f 19//19 32//32 6//6
f 31//31 32//32 19//19
f 3//3 15//15 39//39
f 15//15 5//5 40//40
f 39//39 40//40 12//12
f 15//15 40//40 39//39
f 7//7 20//20 36//36
f 20//20 3//3 35//35
f 36//36 35//35 11//11
f 20//20 35//35 36//36
f 9//9 27//27 28//28
f 27//27 7//7 24//24
f 28//28 24//24 8//8
f 27//27 24//24 28//28
f 10//10 33//33 29//29
f 33//33 9//9 25//25
f 29//29 25//25 2//2
f 33//33 25//25 29//29
f 43//43 80//80 59//59
f 80//80 54//54 83//83
f 59//59 83//83 48//48
f 80//80 83//83 59//59
f 43//43 59//59 55//55
f 59//59 48//48 60//60
f 55//55 60//60 44//44
f 59//59 60//60 55//55
f 43//43 55//55 64//64
f 55//55 44//44 65//65
f 64//64 65//65 50//50
f 55//55 65//65 64//64
f 43//43 64//64 76//76
f 64//64 50//50 79//79
f 76//76 79//79 53//53
f 64//64 79//79 76//76
f 43//43 76//76 80//80
f 76//76 53//53 84//84
f 80//80 84//84 54//54
f 76//76 84//84 80//80
f 44//44 60//60 71//71
f 60//60 48//48 74//74
f 71//71 74//74 52//52
f 60//60 74//74 71//71
f 48//48 83//83 61//61
f 83//83 54//54 82//82
f 61//61 82//82 47//47
f 83//83 82//82 61//61
f 54//54 84//84 81//81
f 84//84 53//53 77//77
f 81//81 77//77 45//45
f 84//84 77//77 81//81
f 53//53 79//79 78//78
f 79//79 50//50 66//66
f 78//78 66//66 49//49
f 79//79 66//66 78//78
f 50//50 65//65 70//70
f 65//65 44//44 67//67
f 70//70 67//67 51//51
f 65//65 67//67 70//70
f 46//46 72//72 58//58
f 72//72 52//52 73//73
f 58//58 73//73 47//47
f 72//72 73//73 58//58
f 46//46 58//58 56//56
f 58//58 47//47 57//57
f 56//56 57//57 45//45
f 58//58 57//57 56//56
f 46//46 56//56 63//63
f 56//56 45//45 62//62
f 63//63 62//62 49//49
f 56//56 62//62 63//63
f 46//46 63//63 68//68
f 63//63 49//49 69//69
f 68//68 69//69 51//51
f 63//63 69//69 68//68
f 46//46 68//68 72//72
f 68//68 51//51 75//75
f 72//72 75//75 52//52
f 68//68 75//75 72//72
f 47//47 73//73 61//61
f 73//73 52//52 74//74
f 61//61 74//74 48//48
f 73//73 74//74 61//61
f 45//45 57//57 81//81
f 57//57 47//47 82//82
f 81//81 82//82 54//54
f 57//57 82//82 81//81
f 49//49 62//62 78//78
f 62//62 45//45 77//77
f 78//78 77//77 53//53
f 62//62 77//77 78//78
f 51//51 69//69 70//70
f 69//69 49//49 66//66
f 70//70 66//66 50//50
f 69//69 66//66 70//70
f 52//52 75//75 71//71
f 75//75 51//51 67//67
f 71//71 67//67 44//44
f 75//75 67//67 71//71
f 85//85 122//122 101//101
f 122//122 96//96 125//125
f 101//101 125//125 90//90
f 122//122 125//125 101//101
f 85//85 101//101 97//97
f 101//101 90//90 102//102
f 97//97 102//102 86//86
f 101//101 102//102 97//97
f 85//85 97//97 106//106
f 97//97 86//86 107//107
f 106//106 107//107 92//92
f 97//97 107//107 106//106
f 85//85 106//106 118//118
f 106//106 92//92 121//121
f 118//118 121//121 95//95
f 106//106 121//121 118//118
f 85//85 118//118 122//122
f 118//118 95//95 126//126
f 122//122 126//126 96//96
f 118//118 126//126 122//122
f 86//86 102//102 113//113
f 102//102 90//90 116//116
f 113//113 116//116 94//94
f 102//102 116//116 113//113
f 90//90 125//125 103//103
f 125//125 96//96 124//124
f 103//103 124//124 89//89
f 125//125 124//124 103//103
f 96//96 126//126 123//123
f 126//126 95//95 119//119
f 123//123 119//119 87//87
f 126//126 119//119 123//123
f 95//95 121//121 120//120
f 121//121 92//92 108//108
f 120//120 108//108 91//91
f 121//121 108//108 120//120
f 92//92 107//107 112//112
f 107//107 86//86 109//109
f 112//112 109//109 93//93
f 107//107 109//109 112//112
f 88//88 114//114 100//100
f 114//114 94//94 115//115
f 100//100 115//115 89//89
f 114//114 115//115 100//100
f 88//88 100//100 98//98
f 100//100 89//89 99//99
f 98//98 99//99 87//87
f 100//100 99//99 98//98
f 88//88 98//98 105//105
f 98//98 87//87 104//104
f 105//105 104//104 91//91
f 98//98 104//104 105//105
f 88//88 105//105 110//110
f 105//105 91//91 111//111
f 110//110 111//111 93//93
f 105//105 111//111 110//110
f 88//88 110//110 114//114
f 110//110 93//93 117//117
f 114//114 117//117 94//94
f 110//110 117//117 114//114
f 89//89 115//115 103//103
f 115//115 94//94 116//116
f 103//103 116//116 90//90
f 115//115 116//116 103//103
f 87//87 99//99 123//123
f 99//99 89//89 124//124
f 123//123 124//124 96//96
f 99//99 124//124 123//123
f 91//91 104//104 120//120
f 104//104 87//87 119//119
f 120//120 119//119 95//95
f 104//104 119//119 120//120
f 93//93 111//111 112//112
f 111//111 91//91 108//108
f 112//112 108//108 92//92
f 111//111 108//108 112//112
f 94//94 117//117 113//113
f 117//117 93//93 109//109
f 113//113 109//109 86//86
f 117//117 109//109 113//113
f 127//127 164//164 143//143
f 164//164 138//138 167//167
f 143//143 167//167 132//132
f 164//164 167//167 143//143
f 127//127 143//143 139//139
f 143//143 132//132 144//144
f 139//139 144//144 128//128
f 143//143 144//144 139//139
f 127//127 139//139 148//148
f 139//139 128//128 149//149
f 148//148 149//149 134//134
f 139//139 149//149 148//148
f 127//127 148//148 160//160
f 148//148 134//134 163//163
f 160//160 163//163 137//137
f 148//148 163//163 160//160
f 127//127 160//160 164//164
f 160//160 137//137 168//168
f 164//164 168//168 138//138
f 160//160 168//168 164//164
f 128//128 144//144 155//155
f 144//144 132//132 158//158
f 155//155 158//158 136//136
f 144//144 158//158 155//155
f 132//132 167//167 145//145
f 167//167 138//138 166//166
f 145//145 166//166 131//131
f 167//167 166//166 145//145
f 138//138 168//168 165//165
f 168//168 137//137 161//161
f 165//165 161//161 129//129
f 168//168 161//161 165//165
f 137//137 163//163 162//162
f 163//163 134//134 150//150
f 162//162 150//150 133//133
f 163//163 150//150 162//162
f 134//134 149//149 154//154
f 149//149 128//128 151//151
f 154//154 151//151 135//135
f 149//149 151//151 154//154
f 130//130 156//156 142//142
f 156//156 136//136 157//157
f 142//142 157//157 131//131
f 156//156 157//157 142//142
f 130//130 142//142 140//140
f 142//142 131//131 141//141
f 140//140 141//141 129//129
f 142//142 141//141 140//140
f 130//130 140//140 147//147
f 140//140 129//129 146//146
f 147//147 146//146 133//133
f 140//140 146//146 147//147
f 130//130 147//147 152//152
f 147//147 133//133 153//153
f 152//152 153//153 135//135
f 147//147 153//153 152//152
f 130//130 152//152 156//156
f 152//152 135//135 159//159
f 156//156 159//159 136//136
f 152//152 159//159 156//156
f 131//131 157//157 145//145
f 157//157 136//136 158//158
f 145//145 158//158 132//132
f 157//157 158//158 145//145
f 129//129 141//141 165//165
f 141//141 131//131 166//166
f 165//165 166//166 138//138
f 141//141 166//166 165//165
f 133//133 146//146 162//162
f 146//146 129//129 161//161
f 162//162 161//161 137//137
f 146//146 161//161 162//162
f 135//135 153//153 154//154
f 153//153 133//133 150//150
f 154//154 150//150 134//134
f 153//153 150//150 154//154
f 136//136 159//159 155//155
f 159//159 135//135 151//151
f 155//155 151//151 128//128
f 159//159 151//151 155//155
f 169//169 206//206 185//185
f 206//206 180//180 209//209
f 185//185 209//209 174//174
f 206//206 209//209 185//185
f 169//169 185//185 181//181
f 185//185 174//174 186//186
f 181//181 186//186 170//170
f 185//185 186//186 181//181
f 169//169 181//181 190//190
f 181//181 170//170 191//191
f 190//190 191//191 176//176
f 181//181 191//191 190//190
f 169//169 190//190 202//202
f 190//190 176//176 205//205
f 202//202 205//205 179//179
f 190//190 205//205 202//202
f 169//169 202//202 206//206
f 202//202 179//179 210//210
f 206//206 210//210 180//180
f 202//202 210//210 206//206
f 170//170 186//186 197//197
f 186//186 174//174 200//200
f 197//197 200//200 178//178
f 186//186 200//200 197//197
f 174//174 209//209 187//187
f 209//209 180//180 208//208
f 187//187 208//208 173//173
f 209//209 208//208 187//187
f 180//180 210//210 207//207
f 210//210 179//179 203//203
f 207//207 203//203 171//171
f 210//210 203//203 207//207
f 179//179 205//205 204//204
f 205//205 176//176 192//192
f 204//204 192//192 175//175
f 205//205 192//192 204//204
f 176//176 191//191 196//196
f 191//191 170//170 193//193
f 196//196 193//193 177//177
f 191//191 193//193 196//196
f 172//172 198//198 184//184
f 198//198 178//178 199//199
f 184//184 199//199 173//173
f 198//198 199//199 184//184
f 172//172 184//184 182//182
f 184//184 173//173 183//183
f 182//182 183//183 171//171
f 184//184 183//183 182//182
f 172//172 182//182 189//189
f 182//182 171//171 188//188
f 189//189 188//188 175//175
f 182//182 188//188 189//189
f 172//172 189//189 194//194
f 189//189 175//175 195//195
f 194//194 195//195 177//177
f 189//189 195//195 194//194
f 172//172 194//194 198//198
f 194//194 177//177 201//201
f 198//198 201//201 178//178
f 194//194 201//201 198//198
f 173//173 199//199 187//187
f 199//199 178//178 200//200
f 187//187 200//200 174//174
f 199//199 200//200 187//187
f 171//171 183//183 207//207
f 183//183 173//173 208//208
f 207//207 208//208 180//180
f 183//183 208//208 207//207
f 175//175 188//188 204//204
f 188//188 171//171 203//203
f 204//204 203//203 179//179
f 188//188 203//203 204//204
f 177//177 195//195 196//196
f 195//195 175//175 192//192
f 196//196 192//192 176//176
f 195//195 192//192 196//196
f 178//178 201//201 197//197
f 201//201 177//177 193//193
f 197//197 193//193 170//170
f 201//201 193//193 197//197
f 211//211 248//248 227//227
f 248//248 222//222 251//251
f 227//227 251//251 216//216
f 248//248 251//251 227//227
f 211//211 227//227 223//223
f 227//227 216//216 228//228
f 223//223 228//228 212//212
f 227//227 228//228 223//223
f 211//211 223//223 232//232
f 223//223 212//212 233//233
f 232//232 233//233 218//218
f 223//223 233//233 232//232
f 211//211 232//232 244//244
f 232//232 218//218 247//247
f 244//244 247//247 221//221
f 232//232 247//247 244//244
f 211//211 244//244 248//248
f 244//244 221//221 252//252
f 248//248 252//252 222//222
f 244//244 252//252 248//248
f 212//212 228//228 239//239
f 228//228 216//216 242//242
f 239//239 242//242 220//220
f 228//228 242//242 239//239
f 216//216 251//251 229//229
f 251//251 222//222 250//250
f 229//229 250//250 215//215
f 251//251 250//250 229//229
f 222//222 252//252 249//249
f 252//252 221//221 245//245
f 249//249 245//245 213//213
f 252//252 245//245 249//249
f 221//221 247//247 246//246
f 247//247 218//218 234//234
f 246//246 234//234 217//217
f 247//247 234//234 246//246
f 218//218 233//233 238//238
f 233//233 212//212 235//235
f 238//238 235//235 219//219
f 233//233 235//235 238//238
f 214//214 240//240 226//226
f 240//240 220//220 241//241
f 226//226 241//241 215//215
f 240//240 241//241 226//226
f 214//214 226//226 224//224
f 226//226 215//215 225//225
f 224//224 225//225 213//213
f 226//226 225//225 224//224
f 214//214 224//224 231//231
f 224//224 213//213 230//230
f 231//231 230//230 217//217
f 224//224 230//230 231//231
f 214//214 231//231 236//236
f 231//231 217//217 237//237
f 236//236 237//237 219//219
f 231//231 237//237 236//236
f 214//214 236//236 240//240
f 236//236 219//219 243//243
f 240//240 243//243 220//220
f 236//236 243//243 240//240
f 215//215 241//241 229//229
f 241//241 220//220 242//242
f 229//229 242//242 216//216
f 241//241 242//242 229//229
f 213//213 225//225 249//249
f 225//225 215//215 250//250
f 249//249 250//250 222//222
f 225//225 250//250 249//249
f 217//217 230//230 246//246
f 230//230 213//213 245//245
f 246//246 245//245 221//221
f 230//230 245//245 246//246
f 219//219 237//237 238//238
f 237//237 217//217 234//234
f 238//238 234//234 218//218
f 237//237 234//234 238//238
f 220//220 243//243 239//239
f 243//243 219//219 235//235
f 239//239 235//235 212//212
f 243//243 235//235 239//239
f 253//253 290//290 269//269
f 290//290 264//264 293//293
f 269//269 293//293 258//258
f 290//290 293//293 269//269
f 253//253 269//269 265//265
f 269//269 258//258 270//270
f 265//265 270//270 254//254
f 269//269 270//270 265//265
f 253//253 265//265 274//274
f 265//265 254//254 275//275
f 274//274 275//275 260//260
f 265//265 275//275 274//274
f 253//253 274//274 286//286
f 274//274 260//260 289//289
f 286//286 289//289 263//263
f 274//274 289//289 286//286
f 253//253 286//286 290//290
f 286//286 263//263 294//294
f 290//290 294//294 264//264
f 286//286 294//294 290//290
f 254//254 270//270 281//281
f 270//270 258//258 284//284
f 281//281 284//284 262//262
f 270//270 284//284 281//281
f 258//258 293//293 271//271
f 293//293 264//264 292//292
f 271//271 292//292 257//257
f 293//293 292//292 271//271
f 264//264 294//294 291//291
f 294//294 263//263 287//287
f 291//291 287//287 255//255
f 294//294 287//287 291//291
f 263//263 289//289 288//288
f 289//289 260//260 276//276
f 288//288 276//276 259//259
f 289//289 276//276 288//288
f 260//260 275//275 280//280
f 275//275 254//254 277//277
f 280//280 277//277 261//261
f 275//275 277//277 280//280
f 256//256 282//282 268//268
f 282//282 262//262 283//283
f 268//268 283//283 257//257
f 282//282 283//283 268//268
f 256//256 268//268 266//266
f 268//268 257//257 267//267
f 266//266 267//267 255//255
f 268//268 267//267 266//266
f 256//256 266//266 273//273
f 266//266 255//255 272//272
f 273//273 272//272 259//259
f 266//266 272//272 273//273
f 256//256 273//273 278//278
f 273//273 259//259 279//279
f 278//278 279//279 261//261
f 273//273 279//279 278//278
f 256//256 278//278 282//282
f 278//278 261//261 285//285
f 282//282 285//285 262//262
f 278//278 285//285 282//282
f 257//257 283//283 271//271
f 283//283 262//262 284//284
f 271//271 284//284 258//258
f 283//283 284//284 271//271
f 255//255 267//267 291//291
f 267//267 257//257 292//292
f 291//291 292//292 264//264
f 267//267 292//292 291//291
f 259//259 272//272 288//288
f 272//272 255//255 287//287
f 288//288 287//287 263//263
f 272//272 287//287 288//288
f 261//261 279//279 280//280
f 279//279 259//259 276//276
f 280//280 276//276 260//260
f 279//279 276//276 280//280
f 262//262 285//285 281//281
f 285//285 261//261 277//277
f 281//281 277//277 254//254
f 285//285 277//277 281//281
f 295//295 332//332 311//311
f 332//332 306//306 335//335
f 311//311 335//335 300//300
f 332//332 335//335 311//311
f 295//295 311//311 307//307
f 311//311 300//300 312//312
f 307//307 312//312 296//296
f 311//311 312//312 307//307
f 295//295 307//307 316//316
f 307//307 296//296 317//317
f 316//316 317//317 302//302
f 307//307 317//317 316//316
f 295//295 316//316 328//328
f 316//316 302//302 331//331
f 328//328 331//331 305//305
f 316//316 331//331 328//328
f 295//295 328//328 332//332
f 328//328 305//305 336//336
f 332//332 336//336 306//306
f 328//328 336//336 332//332
f 296//296 312//312 323//323
f 312//312 300//300 326//326
f 323//323 326//326 304//304
f 312//312 326//326 323//323
f 300//300 335//335 313//313
f 335//335 306//306 334//334
f 313//313 334//334 299//299
f 335//335 334//334 313//313
f 306//306 336//336 333//333
f 336//336 305//305 329//329
f 333//333 329//329 297//297
f 336//336 329//329 333//333
f 305//305 331//331 330//330
f 331//331 302//302 318//318
f 330//330 318//318 301//301
f 331//331 318//318 330//330
f 302//302 317//317 322//322
f 317//317 296//296 319//319
f 322//322 319//319 303//303
f 317//317 319//319 322//322
f 298//298 324//324 310//310
f 324//324 304//304 325//325
f 310//310 325//325 299//299
f 324//324 325//325 310//310
f 298//298 310//310 308//308
f 310//310 299//299 309//309
f 308//308 309//309 297//297
f 310//310 309//309 308//308
f 298//298 308//308 315//315
f 308//308 297//297 314//314
f 315//315 314//314 301//301
f 308//308 314//314 315//315
f 298//298 315//315 320//320
f 315//315 301//301 321//321
f 320//320 321//321 303//303
f 315//315 321//321 320//320
f 298//298 320//320 324//324
f 320//320 303//303 327//327
f 324//324 327//327 304//304
f 320//320 327//327 324//324
f 299//299 325//325 313//313
f 325//325 304//304 326//326
f 313//313 326//326 300//300
f 325//325 326//326 313//313
f 297//297 309//309 333//333
f 309//309 299//299 334//334
f 333//333 334//334 306//306
f 309//309 334//334 333//333
f 301//301 314//314 330//330
f 314//314 297//297 329//329
f 330//330 329//329 305//305
f 314//314 329//329 330//330
f 303//303 321//321 322//322
f 321//321 301//301 318//318
f 322//322 318//318 302//302
f 321//321 318//318 322//322
f 304//304 327//327 323//323
f 327//327 303//303 319//319
f 323//323 319//319 296//296
f 327//327 319//319 323//323
f 337//337 374//374 353//353
f 374//374 348//348 377//377
f 353//353 377//377 342//342
f 374//374 377//377 353//353
f 337//337 353//353 349//349
f 353//353 342//342 354//354
f 349//349 354//354 338//338
f 353//353 354//354 349//349
f 337//337 349//349 358//358
f 349//349 338//338 359//359
f 358//358 359//359 344//344
f 349//349 359//359 358//358
f 337//337 358//358 370//370
f 358//358 344//344 373//373
f 370//370 373//373 347//347
f 358//358 373//373 370//370
f 337//337 370//370 374//374
f 370//370 347//347 378//378
f 374//374 378//378 348//348
f 370//370 378//378 374//374
f 338//338 354//354 365//365
f 354//354 342//342 368//368
f 365//365 368//368 346//346
f 354//354 368//368 365//365
f 342//342 377//377 355//355
f 377//377 348//348 376//376
f 355//355 376//376 341//341
f 377//377 376//376 355//355
f 348//348 378//378 375//375
f 378//378 347//347 371//371
f 375//375 371//371 339//339
f 378//378 371//371 375//375
f 347//347 373//373 372//372
f 373//373 344//344 360//360
f 372//372 360//360 343//343
f 373//373 360//360 372//372
f 344//344 359//359 364//364
f 359//359 338//338 361//361
f 364//364 361//361 345//345
f 359//359 361//361 364//364
f 340//340 366//366 352//352
f 366//366 346//346 367//367
f 352//352 367//367 341//341
f 366//366 367//367 352//352
f 340//340 352//352 350//350
f 352//352 341//341 351//351
f 350//350 351//351 339//339
f 352//352 351//351 350//350
f 340//340 350//350 357//357
f 350//350 339//339 356//356
f 357//357 356//356 343//343
f 350//350 356//356 357//357
f 340//340 357//357 362//362
f 357//357 343//343 363//363
f 362//362 363//363 345//345
f 357//357 363//363 362//362
f 340//340 362//362 366//366
f 362//362 345//345 369//369
f 366//366 369//369 346//346
f 362//362 369//369 366//366
f 341//341 367//367 355//355
f 367//367 346//346 368//368
f 355//355 368//368 342//342
f 367//367 368//368 355//355
f 339//339 351//351 375//375
f 351//351 341//341 376//376
f 375//375 376//376 348//348
f 351//351 376//376 375//375
f 343//343 356//356 372//372
f 356//356 339//339 371//371
f 372//372 371//371 347//347
f 356//356 371//371 372//372
f 345//345 363//363 364//364
f 363//363 343//343 360//360
f 364//364 360//360 344//344
f 363//363 360//360 364//364
f 346//346 369//369 365//365
f 369//369 345//345 361//361
f 365//365 361//361 338//338
f 369//369 361//361 365//365
f 379//379 416//416 395//395
f 416//416 390//390 419//419
f 395//395 419//419 384//384
f 416//416 419//419 395//395
f 379//379 395//395 391//391
f 395//395 384//384 396//396
f 391//391 396//396 380//380
f 395//395 396//396 391//391
f 379//379 391//391 400//400
f 391//391 380//380 401//401
f 400//400 401//401 386//386
f 391//391 401//401 400//400
f 379//379 400//400 412//412
f 400//400 386//386 415//415
f 412//412 415//415 389//389
f 400//400 415//415 412//412
f 379//379 412//412 416//416
f 412//412 389//389 420//420
f 416//416 420//420 390//390
f 412//412 420//420 416//416
f 380//380 396//396 407//407
f 396//396 384//384 410//410
f 407//407 410//410 388//388
f 396//396 410//410 407//407
f 384//384 419//419 397//397
f 419//419 390//390 418//418
f 397//397 418//418 383//383
f 419//419 418//418 397//397
f 390//390 420//420 417//417
f 420//420 389//389 413//413
f 417//417 413//413 381//381
f 420//420 413//413 417//417
f 389//389 415//415 414//414
f 415//415 386//386 402//402
f 414//414 402//402 385//385
f 415//415 402//402 414//414
f 386//386 401//401 406//406
f 401//401 380//380 403//403
f 406//406 403//403 387//387
f 401//401 403//403 406//406
f 382//382 408//408 394//394
f 408//408 388//388 409//409
f 394//394 409//409 383//383
f 408//408 409//409 394//394
f 382//382 394//394 392//392
f 394//394 383//383 393//393
f 392//392 393//393 381//381
f 394//394 393//393 392//392
f 382//382 392//392 399//399
f 392//392 381//381 398//398
f 399//399 398//398 385//385
f 392//392 398//398 399//399
f 382//382 399//399 404//404
f 399//399 385//385 405//405
f 404//404 405//405 387//387
f 399//399 405//405 404//404
f 382//382 404//404 408//408
f 404//404 387//387 411//411
f 408//408 411//411 388//388
f 404//404 411//411 408//408
f 383//383 409//409 397//397
f 409//409 388//388 410//410
f 397//397 410//410 384//384
f 409//409 410//410 397//397
f 381//381 393//393 417//417
f 393//393 383//383 418//418
f 417//417 418//418 390//390
f 393//393 418//418 417//417
f 385//385 398//398 414//414
f 398//398 381//381 413//413
f 414//414 413//413 389//389
f 398//398 413//413 414//414
f 387//387 405//405 406//406
f 405//405 385//385 402//402
f 406//406 402//402 386//386
f 405//405 402//402 406//406
f 388//388 411//411 407//407
f 411//411 387//387 403//403
f 407//407 403//403 380//380
f 411//411 403//403 407//407
f 421//421 458//458 437//437
f 458//458 432//432 461//461
f 437//437 461//461 426//426
f 458//458 461//461 437//437
f 421//421 437//437 433//433
f 437//437 426//426 438//438
f 433//433 438//438 422//422
f 437//437 438//438 433//433
f 421//421 433//433 442//442
f 433//433 422//422 443//443
f 442//442 443//443 428//428
f 433//433 443//443 442//442
f 421//421 442//442 454//454
f 442//442 428//428 457//457
f 454//454 457//457 431//431
f 442//442 457//457 454//454
f 421//421 454//454 458//458
f 454//454 431//431 462//462
f 458//458 462//462 432//432
f 454//454 462//462 458//458
f 422//422 438//438 449//449
f 438//438 426//426 452//452
f 449//449 452//452 430//430
f 438//438 452//452 449//449
f 426//426 461//461 439//439
f 461//461 432//432 460//460
f 439//439 460//460 425//425
f 461//461 460//460 439//439
f 432//432 462//462 459//459
f 462//462 431//431 455//455
f 459//459 455//455 423//423
f 462//462 455//455 459//459
f 431//431 457//457 456//456
f 457//457 428//428 444//444
f 456//456 444//444 427//427
f 457//457 444//444 456//456
f 428//428 443//443 448//448
f 443//443 422//422 445//445
f 448//448 445//445 429//429
f 443//443 445//445 448//448
f 424//424 450//450 436//436
f 450//450 430//430 451//451
f 436//436 451//451 425//425
f 450//450 451//451 436//436
f 424//424 436//436 434//434
f 436//436 425//425 435//435
f 434//434 435//435 423//423
f 436//436 435//435 434//434
f 424//424 434//434 441//441
f 434//434 423//423 440//440
f 441//441 440//440 427//427
f 434//434 440//440 441//441
f 424//424 441//441 446//446
f 441//441 427//427 447//447
f 446//446 447//447 429//429
f 441//441 447//447 446//446
f 424//424 446//446 450//450
f 446//446 429//429 453//453
f 450//450 453//453 430//430
f 446//446 453//453 450//450
f 425//425 451//451 439//439
f 451//451 430//430 452//452
f 439//439 452//452 426//426
f 451//451 452//452 439//439
f 423//423 435//435 459//459
f 435//435 425//425 460//460
f 459//459 460//460 432//432
f 435//435 460//460 459//459
f 427//427 440//440 456//456
f 440//440 423//423 455//455
f 456//456 455//455 431//431
f 440//440 455//455 456//456
f 429//429 447//447 448//448
f 447//447 427//427 444//444
f 448//448 444//444 428//428
f 447//447 444//444 448//448
f 430//430 453//453 449//449
f 453//453 429//429 445//445
f 449//449 445//445 422//422
f 453//453 445//445 449//449
f 463//463 500//500 479//479
f 500//500 474//474 503//503
f 479//479 503//503 468//468
f 500//500 503//503 479//479
f 463//463 479//479 475//475
f 479//479 468//468 480//480
f 475//475 480//480 464//464
f 479//479 480//480 475//475
f 463//463 475//475 484//484
f 475//475 464//464 485//485
f 484//484 485//485 470//470
f 475//475 485//485 484//484
f 463//463 484//484 496//496
f 484//484 470//470 499//499
f 496//496 499//499 473//473
f 484//484 499//499 496//496
f 463//463 496//496 500//500
f 496//496 473//473 504//504
f 500//500 504//504 474//474
f 496//496 504//504 500//500
f 464//464 480//480 491//491
f 480//480 468//468 494//494
f 491//491 494//494 472//472
f 480//480 494//494 491//491
f 468//468 503//503 481//481
f 503//503 474//474 502//502
f 481//481 502//502 467//467
f 503//503 502//502 481//481
f 474//474 504//504 501//501
f 504//504 473//473 497//497
f 501//501 497//497 465//465
f 504//504 497//497 501//501
f 473//473 499//499 498//498
f 499//499 470//470 486//486
f 498//498 486//486 469//469
f 499//499 486//486 498//498
f 470//470 485//485 490//490
f 485//485 464//464 487//487
f 490//490 487//487 471//471
f 485//485 487//487 490//490
f 466//466 492//492 478//478
f 492//492 472//472 493//493
f 478//478 493//493 467//467
f 492//492 493//493 478//478
f 466//466 478//478 476//476
f 478//478 467//467 477//477
f 476//476 477//477 465//465
f 478//478 477//477 476//476
f 466//466 476//476 483//483
f 476//476 465//465 482//482
f 483//483 482//482 469//469
f 476//476 482//482 483//483
f 466//466 483//483 488//488
f 483//483 469//469 489//489
f 488//488 489//489 471//471
f 483//483 489//489 488//488
f 466//466 488//488 492//492
f 488//488 471//471 495//495
f 492//492 495//495 472//472
f 488//488 495//495 492//492
f 467//467 493//493 481//481
f 493//493 472//472 494//494
f 481//481 494//494 468//468
f 493//493 494//494 481//481
f 465//465 477//477 501//501
f 477//477 467//467 502//502
f 501//501 502//502 474//474
f 477//477 502//502 501//501
f 469//469 482//482 498//498
f 482//482 465//465 497//497
f 498//498 497//497 473//473
f 482//482 497//497 498//498
f 471//471 489//489 490//490
f 489//489 469//469 486//486
f 490//490 486//486 470//470
f 489//489 486//486 490//490
f 472//472 495//495 491//491
f 495//495 471//471 487//487
f 491//491 487//487 464//464
f 495//495 487//487 491//491
f 505//505 542//542 521//521
f 542//542 516//516 545//545
f 521//521 545//545 510//510
f 542//542 545//545 521//521
f 505//505 521//521 517//517
f 521//521 510//510 522//522
f 517//517 522//522 506//506
f 521//521 522//522 517//517
f 505//505 517//517 526//526
f 517//517 506//506 527//527
f 526//526 527//527 512//512
f 517//517 527//527 526//526
f 505//505 526//526 538//538
f 526//526 512//512 541//541
f 538//538 541//541 515//515
f 526//526 541//541 538//538
f 505//505 538//538 542//542
f 538//538 515//515 546//546
f 542//542 546//546 516//516
f 538//538 546//546 542//542
f 506//506 522//522 533//533
f 522//522 510//510 536//536
f 533//533 536//536 514//514
f 522//522 536//536 533//533
f 510//510 545//545 523//523
f 545//545 516//516 544//544
f 523//523 544//544 509//509
f 545//545 544//544 523//523
f 516//516 546//546 543//543
f 546//546 515//515 539//539
f 543//543 539//539 507//507
f 546//546 539//539 543//543
f 515//515 541//541 540//540
f 541//541 512//512 528//528
f 540//540 528//528 511//511
f 541//541 528//528 540//540
f 512//512 527//527 532//532
f 527//527 506//506 529//529
f 532//532 529//529 513//513
f 527//527 529//529 532//532
f 508//508 534//534 520//520
f 534//534 514//514 535//535
f 520//520 535//535 509//509
f 534//534 535//535 520//520
f 508//508 520//520 518//518
f 520//520 509//509 519//519
f 518//518 519//519 507//507
f 520//520 519//519 518//518
f 508//508 518//518 525//525
f 518//518 507//507 524//524
f 525//525 524//524 511//511
f 518//518 524//524 525//525
f 508//508 525//525 530//530
f 525//525 511//511 531//531
f 530//530 531//531 513//513
f 525//525 531//531 530//530
f 508//508 530//530 534//534
f 530//530 513//513 537//537
f 534//534 537//537 514//514
f 530//530 537//537 534//534
f 509//509 535//535 523//523
f 535//535 514//514 536//536
f 523//523 536//536 510//510
f 535//535 536//536 523//523
f 507//507 519//519 543//543
f 519//519 509//509 544//544
f 543//543 544//544 516//516
f 519//519 544//544 543//543
f 511//511 524//524 540//540
f 524//524 507//507 539//539
f 540//540 539//539 515//515
f 524//524 539//539 540//540
f 513//513 531//531 532//532
f 531//531 511//511 528//528
f 532//532 528//528 512//512
f 531//531 528//528 532//532
f 514//514 537//537 533//533
f 537//537 513//513 529//529
f 533//533 529//529 506//506
f 537//537 529//529 533//533
f 547//547 584//584 563//563
f 584//584 558//558 587//587
f 563//563 587//587 552//552
f 584//584 587//587 563//563
f 547//547 563//563 559//559
f 563//563 552//552 564//564
f 559//559 564//564 548//548
f 563//563 564//564 559//559
f 547//547 559//559 568//568
f 559//559 548//548 569//569
f 568//568 569//569 554//554
f 559//559 569//569 568//568
f 547//547 568//568 580//580
f 568//568 554//554 583//583
f 580//580 583//583 557//557
f 568//568 583//583 580//580
f 547//547 580//580 584//584
f 580//580 557//557 588//588
f 584//584 588//588 558//558
f 580//580 588//588 584//584
f 548//548 564//564 575//575
f 564//564 552//552 578//578
f 575//575 578//578 556//556
f 564//564 578//578 575//575
f 552//552 587//587 565//565
f 587//587 558//558 586//586
f 565//565 586//586 551//551
f 587//587 586//586 565//565
f 558//558 588//588 585//585
f 588//588 557//557 581//581
f 585//585 581//581 549//549
f 588//588 581//581 585//585
f 557//557 583//583 582//582
f 583//583 554//554 570//570
f 582//582 570//570 553//553
f 583//583 570//570 582//582
f 554//554 569//569 574//574
f 569//569 548//548 571//571
f 574//574 571//571 555//555
f 569//569 571//571 574//574
f 550//550 576//576 562//562
f 576//576 556//556 577//577
f 562//562 577//577 551//551
f 576//576 577//577 562//562
f 550//550 562//562 560//560
f 562//562 551//551 561//561
f 560//560 561//561 549//549
f 562//562 561//561 560//560
f 550//550 560//560 567//567
f 560//560 549//549 566//566
f 567//567 566//566 553//553
f 560//560 566//566 567//567
f 550//550 567//567 572//572
f 567//567 553//553 573//573
f 572//572 573//573 555//555
f 567//567 573//573 572//572
f 550//550 572//572 576//576
f 572//572 555//555 579//579
f 576//576 579//579 556//556
f 572//572 579//579 576//576
f 551//551 577//577 565//565
f 577//577 556//556 578//578
f 565//565 578//578 552//552
f 577//577 578//578 565//565
f 549//549 561//561 585//585
f 561//561 551//551 586//586
f 585//585 586//586 558//558
f 561//561 586//586 585//585
f 553//553 566//566 582//582
f 566//566 549//549 581//581
f 582//582 581//581 557//557
f 566//566 581//581 582//582
f 555//555 573//573 574//574
f 573//573 553//553 570//570
f 574//574 570//570 554//554
f 573//573 570//570 574//574
f 556//556 579//579 575//575
f 579//579 555//555 571//571
f 575//575 571//571 548//548
f 579//579 571//571 575//575
f 589//589 626//626 605//605
f 626//626 600//600 629//629
f 605//605 629//629 594//594
f 626//626 629//629 605//605
f 589//589 605//605 601//601
f 605//605 594//594 606//606
f 601//601 606//606 590//590
f 605//605 606//606 601//601
f 589//589 601//601 610//610
f 601//601 590//590 611//611
f 610//610 611//611 596//596
f 601//601 611//611 610//610
f 589//589 610//610 622//622
f 610//610 596//596 625//625
f 622//622 625//625 599//599
f 610//610 625//625 622//622
f 589//589 622//622 626//626
f 622//622 599//599 630//630
f 626//626 630//630 600//600
f 622//622 630//630 626//626
f 590//590 606//606 617//617
f 606//606 594//594 620//620
f 617//617 620//620 598//598
f 606//606 620//620 617//617
f 594//594 629//629 607//607
f 629//629 600//600 628//628
f 607//607 628//628 593//593
f 629//629 628//628 607//607
f 600//600 630//630 627//627
f 630//630 599//599 623//623
f 627//627 623//623 591//591
f 630//630 623//623 627//627
f 599//599 625//625 624//624
f 625//625 596//596 612//612
f 624//624 612//612 595//595
f 625//625 612//612 624//624
f 596//596 611//611 616//616
f 611//611 590//590 613//613
f 616//616 613//613 597//597
f 611//611 613//613 616//616
f 592//592 618//618 604//604
f 618//618 598//598 619//619
f 604//604 619//619 593//593
f 618//618 619//619 604//604
f 592//592 604//604 602//602
f 604//604 593//593 603//603
f 602//602 603//603 591//591
f 604//604 603//603 602//602
f 592//592 602//602 609//609
f 602//602 591//591 608//608
f 609//609 608//608 595//595
f 602//602 608//608 609//609
f 592//592 609//609 614//614
f 609//609 595//595 615//615
f 614//614 615//615 597//597
f 609//609 615//615 614//614
f 592//592 614//614 618//618
f 614//614 597//597 621//621
f 618//618 621//621 598//598
f 614//614 621//621 618//618
f 593//593 619//619 607//607
f 619//619 598//598 620//620
f 607//607 620//620 594//594
f 619//619 620//620 607//607
f 591//591 603//603 627//627
f 603//603 593//593 628//628
f 627//627 628//628 600//600
f 603//603 628//628 627//627
f 595//595 608//608 624//624
f 608//608 591//591 623//623
f 624//624 623//623 599//599
f 608//608 623//623 624//624
f 597//597 615//615 616//616
f 615//615 595//595 612//612
f 616//616 612//612 596//596
f 615//615 612//612 616//616
f 598//598 621//621 617//617
f 621//621 597//597 613//613
f 617//617 613//613 590//590
f 621//621 613//613 617//617
f 631//631 668//668 647//647
f 668//668 642//642 671//671
f 647//647 671//671 636//636
f 668//668 671//671 647//647
f 631//631 647//647 643//643
f 647//647 636//636 648//648
f 643//643 648//648 632//632
f 647//647 648//648 643//643
f 631//631 643//643 652//652
f 643//643 632//632 653//653
f 652//652 653//653 638//638
f 643//643 653//653 652//652
f 631//631 652//652 664//664
f 652//652 638//638 667//667
f 664//664 667//667 641//641
f 652//652 667//667 664//664
f 631//631 664//664 668//668
f 664//664 641//641 672//672
f 668//668 672//672 642//642
f 664//664 672//672 668//668
f 632//632 648//648 659//659
f 648//648 636//636 662//662
f 659//659 662//662 640//640
f 648//648 662//662 659//659
f 636//636 671//671 649//649
f 671//671 642//642 670//670
f 649//649 670//670 635//635
f 671//671 670//670 649//649
f 642//642 672//672 669//669
f 672//672 641//641 665//665
f 669//669 665//665 633//633
f 672//672 665//665 669//669
f 641//641 667//667 666//666
f 667//667 638//638 654//654
f 666//666 654//654 637//637
f 667//667 654//654 666//666
f 638//638 653//653 658//658
f 653//653 632//632 655//655
f 658//658 655//655 639//639
f 653//653 655//655 658//658
f 634//634 660//660 646//646
f 660//660 640//640 661//661
f 646//646 661//661 635//635
f 660//660 661//661 646//646
f 634//634 646//646 644//644
f 646//646 635//635 645//645
f 644//644 645//645 633//633
f 646//646 645//645 644//644
f 634//634 644//644 651//651
f 644//644 633//633 650//650
f 651//651 650//650 637//637
f 644//644 650//650 651//651
f 634//634 651//651 656//656
f 651//651 637//637 657//657
f 656//656 657//657 639//639
f 651//651 657//657 656//656
f 634//634 656//656 660//660
f 656//656 639//639 663//663
f 660//660 663//663 640//640
f 656//656 663//663 660//660
f 635//635 661//661 649//649
f 661//661 640//640 662//662
f 649//649 662//662 636//636
f 661//661 662//662 649//649
f 633//633 645//645 669//669
f 645//645 635//635 670//670
f 669//669 670//670 642//642
f 645//645 670//670 669//669
f 637//637 650//650 666//666
f 650//650 633//633 665//665
f 666//666 665//665 641//641
f 650//650 665//665 666//666
f 639//639 657//657 658//658
f 657//657 637//637 654//654
f 658//658 654//654 638//638
f 657//657 654//654 658//658
f 640//640 663//663 659//659
f 663//663 639//639 655//655
f 659//659 655//655 632//632
f 663//663 655//655 659//659
f 673//673 710//710 689//689
f 710//710 684//684 713//713
f 689//689 713//713 678//678
f 710//710 713//713 689//689
f 673//673 689//689 685//685
f 689//689 678//678 690//690
f 685//685 690//690 674//674
f 689//689 690//690 685//685
f 673//673 685//685 694//694
f 685//685 674//674 695//695
f 694//694 695//695 680//680
f 685//685 695//695 694//694
f 673//673 694//694 706//706
f 694//694 680//680 709//709
f 706//706 709//709 683//683
f 694//694 709//709 706//706
f 673//673 706//706 710//710
f 706//706 683//683 714//714
f 710//710 714//714 684//684
f 706//706 714//714 710//710
f 674//674 690//690 701//701
f 690//690 678//678 704//704
f 701//701 704//704 682//682
f 690//690 704//704 701//701
f 678//678 713//713 691//691
f 713//713 684//684 712//712
f 691//691 712//712 677//677
f 713//713 712//712 691//691
f 684//684 714//714 711//711
f 714//714 683//683 707//707
f 711//711 707//707 675//675
f 714//714 707//707 711//711
f 683//683 709//709 708//708
f 709//709 680//680 696//696
f 708//708 696//696 679//679
f 709//709 696//696 708//708
f 680//680 695//695 700//700
f 695//695 674//674 697//697
f 700//700 697//697 681//681
f 695//695 697//697 700//700
f 676//676 702//702 688//688
f 702//702 682//682 703//703
f 688//688 703//703 677//677
f 702//702 703//703 688//688
f 676//676 688//688 686//686
f 688//688 677//677 687//687
f 686//686 687//687 675//675
f 688//688 687//687 686//686
f 676//676 686//686 693//693
f 686//686 675//675 692//692
f 693//693 692//692 679//679
f 686//686 692//692 693//693
f 676//676 693//693 698//698
f 693//693 679//679 699//699
f 698//698 699//699 681//681
f 693//693 699//699 698//698
f 676//676 698//698 702//702
f 698//698 681//681 705//705
f 702//702 705//705 682//682
f 698//698 705//705 702//702
f 677//677 703//703 691//691
f 703//703 682//682 704//704
f 691//691 704//704 678//678
f 703//703 704//704 691//691
f 675//675 687//687 711//711
f 687//687 677//677 712//712
f 711//711 712//712 684//684
f 687//687 712//712 711//711
f 679//679 692//692 708//708
f 692//692 675//675 707//707
f 708//708 707//707 683//683
f 692//692 707//707 708//708
f 681//681 699//699 700//700
f 699//699 679//679 696//696
f 700//700 696//696 680//680
f 699//699 696//696 700//700
f 682//682 705//705 701//701
f 705//705 681//681 697//697
f 701//701 697//697 674//674
f 705//705 697//697 701//701
f 715//715 752//752 731//731
f 752//752 726//726 755//755
f 731//731 755//755 720//720
f 752//752 755//755 731//731
f 715//715 731//731 727//727
f 731//731 720//720 732//732
f 727//727 732//732 716//716
f 731//731 732//732 727//727
f 715//715 727//727 736//736
f 727//727 716//716 737//737
f 736//736 737//737 722//722
f 727//727 737//737 736//736
f 715//715 736//736 748//748
f 736//736 722//722 751//751
f 748//748 751//751 725//725
f 736//736 751//751 748//748
f 715//715 748//748 752//752
f 748//748 725//725 756//756
f 752//752 756//756 726//726
f 748//748 756//756 752//752
f 716//716 732//732 743//743
f 732//732 720//720 746//746
f 743//743 746//746 724//724
f 732//732 746//746 743//743
f 720//720 755//755 733//733
f 755//755 726//726 754//754
f 733//733 754//754 719//719
f 755//755 754//754 733//733
f 726//726 756//756 753//753
f 756//756 725//725 749//749
f 753//753 749//749 717//717
f 756//756 749//749 753//753
f 725//725 751//751 750//750
f 751//751 722//722 738//738
f 750//750 738//738 721//721
f 751//751 738//738 750//750
f 722//722 737//737 742//742
f 737//737 716//716 739//739
f 742//742 739//739 723//723
f 737//737 739//739 742//742
f 718//718 744//744 730//730
f 744//744 724//724 745//745
f 730//730 745//745 719//719
f 744//744 745//745 730//730
f 718//718 730//730 728//728
f 730//730 719//719 729//729
f 728//728 729//729 717//717
f 730//730 729//729 728//728
f 718//718 728//728 735//735
f 728//728 717//717 734//734
f 735//735 734//734 721//721
f 728//728 734//734 735//735
f 718//718 735//735 740//740
f 735//735 721//721 741//741
f 740//740 741//741 723//723
f 735//735 741//741 740//740
f 718//718 740//740 744//744
f 740//740 723//723 747//747
f 744//744 747//747 724//724
f 740//740 747//747 744//744
f 719//719 745//745 733//733
f 745//745 724//724 746//746
f 733//733 746//746 720//720
f 745//745 746//746 733//733
f 717//717 729//729 753//753
f 729//729 719//719 754//754
f 753//753 754//754 726//726
f 729//729 754//754 753//753
f 721//721 734//734 750//750
f 734//734 717//717 749//749
f 750//750 749//749 725//725
f 734//734 749//749 750//750
f 723//723 741//741 742//742
f 741//741 721//721 738//738
f 742//742 738//738 722//722
f 741//741 738//738 742//742
f 724//724 747//747 743//743
f 747//747 723//723 739//739
f 743//743 739//739 716//716
f 747//747 739//739 743//743

