# https://github.com/mikedh/trimesh
v -0.4880096 0.6868702 0.0217416
v -0.4831111 0.6860236 0.0220777
v -0.4784472 0.6842908 0.0223430
v -0.4741766 0.6817308 0.0225285
v -0.4704450 0.6784308 0.0226280
v -0.4673792 0.6745032 0.0226379
v -0.4650838 0.6700817 0.0225580
v -0.4636369 0.6653168 0.0223910
v -0.4630877 0.6603709 0.0221426
v -0.5034550 0.1154124 -0.0131788
v -0.5047263 0.1106101 -0.0135622
v -0.5068582 0.1061275 -0.0139946
v -0.5097782 0.1021174 -0.0144612
v -0.5133868 0.0987162 -0.0149461
v -0.5175612 0.0960399 -0.0154329
v -0.5221591 0.0941794 -0.0159050
v -0.5270241 0.0931983 -0.0163462
v -0.5319904 0.0931298 -0.0167416
v -0.4835416 0.6859474 0.0237443
v -0.4792936 0.6841411 0.0256195
v -0.4754101 0.6815127 0.0273033
v -0.4720235 0.6781517 0.0287384
v -0.4692490 0.6741725 0.0298760
v -0.4671812 0.6697108 0.0306772
v -0.4658905 0.6649183 0.0311149
v -0.4654207 0.6599584 0.0311740
v -0.5057880 0.1149998 -0.0041474
v -0.5069798 0.1102116 -0.0048384
v -0.5089556 0.1057566 -0.0058754
v -0.5116479 0.1017868 -0.0072231
v -0.5149653 0.0984371 -0.0088356
v -0.5187946 0.0958218 -0.0106581
v -0.5230055 0.0940298 -0.0126285
v -0.5274546 0.0931222 -0.0146796
v -0.4845151 0.6859274 0.0251658
v -0.4812075 0.6841018 0.0284141
v -0.4781992 0.6814553 0.0313758
v -0.4755928 0.6780783 0.0339502
v -0.4734770 0.6740856 0.0360495
v -0.4719239 0.6696132 0.0376022
v -0.4709863 0.6648135 0.0385556
v -0.4706962 0.6598499 0.0388770
v -0.5110635 0.1148913 0.0035556
v -0.5120757 0.1101068 0.0026024
v -0.5136982 0.1056591 0.0010497
v -0.5158759 0.1016998 -0.0010496
v -0.5185346 0.0983637 -0.0036239
v -0.5215837 0.0957644 -0.0065856
v -0.5249194 0.0939904 -0.0098339
v -0.5284281 0.0931021 -0.0132581
v -0.4859142 0.6859659 0.0261707
v -0.4839580 0.6841775 0.0303897
v -0.4822075 0.6815656 0.0342548
v -0.4807224 0.6782194 0.0376346
v -0.4795532 0.6742528 0.0404138
v -0.4787398 0.6698008 0.0424978
v -0.4783098 0.6650151 0.0438157
v -0.4782779 0.6600585 0.0443226
v -0.5186452 0.1151000 0.0090012
v -0.5193992 0.1103083 0.0078625
v -0.5205142 0.1058467 0.0059452
v -0.5219522 0.1018670 0.0033147
v -0.5236642 0.0985049 0.0000605
v -0.5255920 0.0958747 -0.0037066
v -0.5276700 0.0940661 -0.0078583
v -0.5298272 0.0931406 -0.0122532
v -0.4875702 0.6860583 0.0266378
v -0.4872134 0.6843591 0.0313080
v -0.4869516 0.6818303 0.0355931
v -0.4867936 0.6785582 0.0393472
v -0.4867448 0.6746540 0.0424424
v -0.4868068 0.6702509 0.0447734
v -0.4869776 0.6654986 0.0462608
v -0.4872513 0.6605591 0.0468539
v -0.5276186 0.1156006 0.0115325
v -0.5280670 0.1107919 0.0103076
v -0.5285812 0.1062968 0.0082209
v -0.5291437 0.1022683 0.0053434
v -0.5297354 0.0988436 0.0017731
v -0.5303361 0.0961394 -0.0023684
v -0.5309254 0.0942477 -0.0069400
v -0.5314831 0.0932330 -0.0117861
v -0.4892832 0.6861934 0.0265108
v -0.4905811 0.6846247 0.0310583
v -0.4918593 0.6822174 0.0352292
v -0.4930742 0.6790536 0.0388815
v -0.4941843 0.6752409 0.0418908
v -0.4951520 0.6709091 0.0441547
v -0.4959442 0.6662059 0.0455959
v -0.4965341 0.6612914 0.0461656
v -0.5369014 0.1163328 0.0108442
v -0.5370336 0.1114992 0.0096427
v -0.5369264 0.1069550 0.0076021
v -0.5365833 0.1028551 0.0047917
v -0.5360160 0.0993390 0.0013074
v -0.5352438 0.0965265 -0.0027323
v -0.5342931 0.0945134 -0.0071897
v -0.5331962 0.0933681 -0.0119131
v -0.4908467 0.6863550 0.0258050
v -0.4936549 0.6849423 0.0296707
v -0.4963386 0.6826803 0.0332070
v -0.4988065 0.6796459 0.0362936
v -0.5009745 0.6759425 0.0388254
v -0.5027688 0.6716962 0.0407161
v -0.5041282 0.6670516 0.0419013
v -0.5050066 0.6621669 0.0423407
v -0.5453739 0.1172083 0.0070193
v -0.5452176 0.1123449 0.0059481
v -0.5445432 0.1077421 0.0041635
v -0.5433735 0.1035568 0.0017263
v -0.5417483 0.0999314 -0.0012804
v -0.5397231 0.0969894 -0.0047544
v -0.5373668 0.0948310 -0.0085773
v -0.5347596 0.0935297 -0.0126189
v -0.4920720 0.6865235 0.0246054
v -0.4960639 0.6852736 0.0273125
v -0.4998493 0.6831631 0.0297705
v -0.5032992 0.6802638 0.0318958
v -0.5062963 0.6766744 0.0336160
v -0.5087384 0.6725172 0.0348725
v -0.5105425 0.6679337 0.0356226
v -0.5116469 0.6630801 0.0358406
v -0.5520142 0.1181215 0.0005192
v -0.5516318 0.1132270 -0.0003307
v -0.5505128 0.1085630 -0.0016801
v -0.5486953 0.1042886 -0.0034831
v -0.5462411 0.1005492 -0.0056783
v -0.5432338 0.0974722 -0.0081910
v -0.5397759 0.0951623 -0.0109355
v -0.5359850 0.0936982 -0.0138184
v -0.4928115 0.6866787 0.0230569
v -0.4975177 0.6855786 0.0242682
v -0.5019679 0.6836076 0.0253341
v -0.5060105 0.6808326 0.0262184
v -0.5095079 0.6773482 0.0268909
v -0.5123410 0.6732730 0.0273287
v -0.5144132 0.6687458 0.0275170
v -0.5156542 0.6639208 0.0274493
v -0.5560215 0.1189622 -0.0078721
v -0.5555026 0.1140390 -0.0084362
v -0.5541153 0.1093189 -0.0092239
v -0.5519068 0.1049624 -0.0102082
v -0.5489523 0.1011180 -0.0113557
v -0.5453524 0.0979166 -0.0126274
v -0.5412297 0.0954673 -0.0139798
v -0.5367245 0.0938534 -0.0153669
v -0.4929759 0.6868017 0.0213462
v -0.4978409 0.6858206 0.0209050
v -0.5024388 0.6839601 0.0204329
v -0.5066132 0.6812838 0.0199461
v -0.5102218 0.6778826 0.0194612
v -0.5131418 0.6738725 0.0189946
v -0.5152737 0.6693899 0.0185622
v -0.5165450 0.6645876 0.0181788
v -0.5569123 0.1196291 -0.0171426
v -0.5563631 0.1146832 -0.0173910
v -0.5549162 0.1099183 -0.0175580
v -0.5526208 0.1054968 -0.0176379
v -0.5495550 0.1015692 -0.0176280
v -0.5458234 0.0982692 -0.0175285
v -0.5415528 0.0957092 -0.0173430
v -0.5368889 0.0939764 -0.0170777
v -0.4925454 0.6868778 0.0196796
v -0.4969945 0.6859702 0.0176285
v -0.5012054 0.6841782 0.0156581
v -0.5050347 0.6815629 0.0138356
v -0.5083521 0.6782132 0.0122231
v -0.5110444 0.6742434 0.0108754
v -0.5130202 0.6697884 0.0098384
v -0.5142120 0.6650002 0.0091474
v -0.5545793 0.1200416 -0.0261740
v -0.5541095 0.1150817 -0.0261149
v -0.5528188 0.1102892 -0.0256772
v -0.5507510 0.1058275 -0.0248760
v -0.5479765 0.1018483 -0.0237384
v -0.5445899 0.0984873 -0.0223033
v -0.5407064 0.0958589 -0.0206195
v -0.5364584 0.0940526 -0.0187443
v -0.4915719 0.6868979 0.0182581
v -0.4950806 0.6860096 0.0148339
v -0.4984163 0.6842356 0.0115856
v -0.5014654 0.6816363 0.0086239
v -0.5041241 0.6783002 0.0060496
v -0.5063018 0.6743409 0.0039503
v -0.5079243 0.6698932 0.0023976
v -0.5089365 0.6651087 0.0014444
v -0.5493038 0.1201501 -0.0338770
v -0.5490137 0.1151865 -0.0335556
v -0.5480761 0.1103868 -0.0326022
v -0.5465230 0.1059144 -0.0310495
v -0.5444072 0.1019217 -0.0289502
v -0.5418008 0.0985447 -0.0263758
v -0.5387925 0.0958982 -0.0234141
v -0.5354849 0.0940726 -0.0201658
v -0.4901728 0.6868594 0.0172532
v -0.4923300 0.6859339 0.0128583
v -0.4944080 0.6841253 0.0087066
v -0.4963358 0.6814951 0.0049395
v -0.4980478 0.6781330 0.0016853
v -0.4994858 0.6741533 -0.0009452
v -0.5006008 0.6696917 -0.0028625
v -0.5013548 0.6649000 -0.0040012
v -0.5417221 0.1199415 -0.0393226
v -0.5416902 0.1149849 -0.0388157
v -0.5412602 0.1101992 -0.0374978
v -0.5404468 0.1057472 -0.0354138
v -0.5392776 0.1017806 -0.0326346
v -0.5377925 0.0984344 -0.0292548
v -0.5360420 0.0958225 -0.0253897
v -0.5340858 0.0940341 -0.0211707
v -0.4885169 0.6867670 0.0167861
v -0.4890746 0.6857523 0.0119400
v -0.4896639 0.6838606 0.0073684
v -0.4902646 0.6811564 0.0032269
v -0.4908563 0.6777317 -0.0003434
v -0.4914188 0.6737032 -0.0032209
v -0.4919330 0.6692081 -0.0053076
v -0.4923814 0.6643994 -0.0065325
v -0.5327487 0.1194409 -0.0418539
v -0.5330224 0.1145014 -0.0412608
v -0.5331932 0.1097491 -0.0397734
v -0.5332552 0.1053460 -0.0374424
v -0.5332064 0.1014418 -0.0343472
v -0.5330484 0.0981697 -0.0305931
v -0.5327866 0.0956409 -0.0263080
v -0.5324298 0.0939417 -0.0216378
v -0.4868038 0.6866319 0.0169131
v -0.4857069 0.6854866 0.0121897
v -0.4847562 0.6834735 0.0077323
v -0.4839840 0.6806610 0.0036926
v -0.4834167 0.6771449 0.0002083
v -0.4830736 0.6730450 -0.0026021
v -0.4829664 0.6685008 -0.0046427
v -0.4830986 0.6636672 -0.0058442
v -0.5234659 0.1187086 -0.0411656
v -0.5240558 0.1137941 -0.0405959
v -0.5248480 0.1090909 -0.0391547
v -0.5258157 0.1047591 -0.0368908
v -0.5269258 0.1009464 -0.0338815
v -0.5281407 0.0977826 -0.0302292
v -0.5294189 0.0953753 -0.0260583
v -0.5307168 0.0938066 -0.0215108
v -0.4852404 0.6864703 0.0176189
v -0.4826332 0.6851690 0.0135773
v -0.4802769 0.6830106 0.0097544
v -0.4782517 0.6800686 0.0062804
v -0.4766265 0.6764432 0.0032737
v -0.4754568 0.6722579 0.0008365
v -0.4747824 0.6676551 -0.0009481
v -0.4746261 0.6627917 -0.0020193
v -0.5149934 0.1178331 -0.0373407
v -0.5158718 0.1129484 -0.0369013
v -0.5172312 0.1083038 -0.0357161
v -0.5190255 0.1040575 -0.0338254
v -0.5211935 0.1003541 -0.0312936
v -0.5236614 0.0973197 -0.0282070
v -0.5263451 0.0950577 -0.0246707
v -0.5291533 0.0936450 -0.0208050
v -0.4840150 0.6863018 0.0188184
v -0.4802241 0.6848377 0.0159355
v -0.4767662 0.6825278 0.0131910
v -0.4737589 0.6794508 0.0106783
v -0.4713047 0.6757114 0.0084831
v -0.4694872 0.6714370 0.0066801
v -0.4683682 0.6667730 0.0053307
v -0.4679858 0.6618785 0.0044808
v -0.5083531 0.1169199 -0.0308406
v -0.5094575 0.1120663 -0.0306226
v -0.5112616 0.1074828 -0.0298725
v -0.5137037 0.1033256 -0.0286160
v -0.5167008 0.0997362 -0.0268958
v -0.5201507 0.0968369 -0.0247705
v -0.5239361 0.0947264 -0.0223125
v -0.5279280 0.0934765 -0.0196054
v -0.4832755 0.6861466 0.0203669
v -0.4787703 0.6845327 0.0189798
v -0.4746476 0.6820834 0.0176274
v -0.4710477 0.6788820 0.0163557
v -0.4680932 0.6750376 0.0152082
v -0.4658847 0.6706811 0.0142239
v -0.4644974 0.6659610 0.0134362
v -0.4639785 0.6610378 0.0128721
v -0.5043458 0.1160792 -0.0224493
v -0.5055868 0.1112542 -0.0225170
v -0.5076590 0.1067270 -0.0223287
v -0.5104921 0.1026518 -0.0218909
v -0.5139895 0.0991674 -0.0212184
v -0.5180321 0.0963924 -0.0203341
v -0.5224823 0.0944214 -0.0192682
v -0.5271885 0.0933213 -0.0180569
vn 0.0737178 0.9951909 0.0645031
vn 0.2648142 0.9611756 0.0775555
vn 0.4364184 0.8955078 0.0872051
vn 0.5929922 0.7997151 0.0938936
vn 0.7293659 0.6771531 0.0974115
vn 0.8410787 0.5320245 0.0976552
vn 0.9245066 0.3692331 0.0946283
vn 0.9769623 0.1942241 0.0884402
vn 0.9967683 0.0128117 0.0793017
vn 0.9833008 -0.1689996 0.0675176
vn 0.9370051 -0.3451978 0.0534777
vn 0.8593822 -0.5099462 0.0376445
vn 0.7529465 -0.6577612 0.0205395
vn 0.6211559 -0.7836823 0.0027277
vn 0.4683148 -0.8834310 -0.0151992
vn 0.2994509 -0.9535532 -0.0326414
vn 0.1201684 -0.9915430 -0.0490096
vn -0.0737178 -0.9951909 -0.0645031
vn 0.2480124 0.9582045 0.1425969
vn 0.4043029 0.8898288 0.2115274
vn 0.5466737 0.7915245 0.2731974
vn 0.6704251 0.6667306 0.3255771
vn 0.7715107 0.5197227 0.3669598
vn 0.8466524 0.3554661 0.3960096
vn 0.8934311 0.1794532 0.4117978
vn 0.9103522 -0.0024693 0.4138269
vn 0.8968847 -0.1842806 0.4020428
vn 0.8534739 -0.3599687 0.3768353
vn 0.7815280 -0.5237132 0.3390257
vn 0.6833785 -0.6700629 0.2898440
vn 0.5622151 -0.7941048 0.2308933
vn 0.4219962 -0.8916215 0.1641046
vn 0.2673354 -0.9592322 0.0916809
vn 0.1033666 -0.9945141 0.0160318
vn 0.2100199 0.9574232 0.1980718
vn 0.3316826 0.8883354 0.3175641
vn 0.4419371 0.7893706 0.4261287
vn 0.5371471 0.6639897 0.5201834
vn 0.6142022 0.5164876 0.5966542
vn 0.6706069 0.3518457 0.6530628
vn 0.7045486 0.1755688 0.6875950
vn 0.7149464 -0.0064879 0.6991491
vn 0.7014789 -0.1882992 0.6873651
vn 0.6645914 -0.3638531 0.6526325
vn 0.6054825 -0.5273337 0.5960790
vn 0.5260699 -0.6732980 0.5195384
vn 0.4289370 -0.7968457 0.4254996
vn 0.3172597 -0.8937755 0.3170359
vn 0.1947151 -0.9607257 0.1977175
vn 0.0653741 -0.9952954 0.0715067
vn 0.1554191 0.9589259 0.2372891
vn 0.2273167 0.8912076 0.3925254
vn 0.2914154 0.7935130 0.5342416
vn 0.3456070 0.6692610 0.6577580
vn 0.3881268 0.5227093 0.7590339
vn 0.4176038 0.3588084 0.8347835
vn 0.4330969 0.1830392 0.8825666
vn 0.4341197 0.0012406 0.9008543
vn 0.4206522 -0.1805707 0.8890703
vn 0.3931397 -0.3563826 0.8476040
vn 0.3524794 -0.5203709 0.7777997
vn 0.2999946 -0.6670763 0.6819182
vn 0.2373970 -0.7915745 0.5630742
vn 0.1667380 -0.8896330 0.4251488
vn 0.0903492 -0.9578535 0.2726789
vn 0.0107733 -0.9937928 0.1107240
vn 0.0907956 0.9625312 0.2555186
vn 0.1037932 0.8980990 0.4273701
vn 0.1132637 0.8034522 0.5844963
vn 0.1189075 0.6819086 0.7217074
vn 0.1205527 0.5376374 0.8345137
vn 0.1181590 0.3755146 0.9192536
vn 0.1118170 0.2009636 0.9731961
vn 0.1017439 0.0197840 0.9946139
vn 0.0882764 -0.1620272 0.9828298
vn 0.0718598 -0.3384583 0.9382335
vn 0.0530346 -0.5036647 0.8622698
vn 0.0324204 -0.6521482 0.7573979
vn 0.0106974 -0.7789268 0.6270236
vn -0.0114138 -0.8796938 0.4754035
vn -0.0331743 -0.9509620 0.3075235
vn -0.0538502 -0.9901874 0.1289535
vn 0.0239441 0.9678045 0.2505617
vn -0.0239892 0.9081785 0.4178952
vn -0.0710303 0.8179893 0.5708311
vn -0.1156082 0.7004072 0.7043184
vn -0.1562469 0.5594714 0.8139894
vn -0.1916100 0.3999492 0.8962847
vn -0.2205399 0.2271799 0.9485523
vn -0.2420915 0.0469057 0.9691190
vn -0.2555590 -0.1349055 0.9573349
vn -0.2604971 -0.3122420 0.9135897
vn -0.2567344 -0.4792302 0.8393008
vn -0.2443792 -0.6303143 0.7368736
vn -0.2238182 -0.7604282 0.6096346
vn -0.1957078 -0.8651567 0.4617383
vn -0.1609567 -0.9408825 0.2980486
vn -0.1207017 -0.9849142 0.1239966
vn -0.0370722 0.9741096 0.2230161
vn -0.1406180 0.9202302 0.3652436
vn -0.2392381 0.8353710 0.4948944
vn -0.3296539 0.7225255 0.6076884
vn -0.4088857 0.5855777 0.6999366
vn -0.4743406 0.4291650 0.7686471
vn -0.5238868 0.2585261 0.8116076
vn -0.5559149 0.0793345 0.8274447
vn -0.5693824 -0.1024767 0.8156606
vn -0.5638440 -0.2808958 0.7766450
vn -0.5394650 -0.4500143 0.7116633
vn -0.4970180 -0.6042080 0.6228209
vn -0.4378639 -0.7383099 0.5130046
vn -0.3639155 -0.8477751 0.3858016
vn -0.2775854 -0.9288308 0.2453971
vn -0.1817181 -0.9786091 0.0964510
vn -0.0848939 0.9806860 0.1762043
vn -0.2320260 0.9328007 0.2757659
vn -0.3710712 0.8535007 0.3658453
vn -0.4974127 0.7455958 0.4434722
vn -0.6068919 0.6128075 0.5061118
vn -0.6959312 0.4596382 0.5517359
vn -0.7616355 0.2912214 0.5788795
vn -0.8018745 0.1131589 0.5866790
vn -0.8153420 -0.0686523 0.5748950
vn -0.8015927 -0.2482005 0.5439170
vn -0.7610556 -0.4195412 0.4947521
vn -0.6950242 -0.5769781 0.4289960
vn -0.6056227 -0.7152397 0.3487885
vn -0.4957487 -0.8296454 0.2567525
vn -0.3689935 -0.9162603 0.1559193
vn -0.2295397 -0.9720326 0.0496392
vn -0.1137529 0.9867406 0.1157725
vn -0.2871881 0.9443736 0.1602544
vn -0.4506287 0.8701917 0.1992489
vn -0.5986502 0.7668353 0.2314769
vn -0.7263830 0.6378766 0.2558931
vn -0.8296547 0.4876932 0.2717138
vn -0.9051100 0.3213221 0.2784385
vn -0.9503041 0.1442993 0.2758619
vn -0.9637716 -0.0375120 0.2640778
vn -0.9450672 -0.2180998 0.2434760
vn -0.8947791 -0.3914861 0.2147300
vn -0.8145152 -0.5519091 0.1787773
vn -0.7068603 -0.6940001 0.1367932
vn -0.5753062 -0.8129543 0.0901561
vn -0.4241556 -0.9046874 0.0404078
vn -0.2583987 -0.9659781 -0.0107926
vn -0.1201684 0.9915430 0.0490096
vn -0.2994509 0.9535532 0.0326414
vn -0.4683148 0.8834310 0.0151992
vn -0.6211559 0.7836823 -0.0027277
vn -0.7529465 0.6577612 -0.0205395
vn -0.8593822 0.5099462 -0.0376445
vn -0.9370051 0.3451978 -0.0534777
vn -0.9833008 0.1689996 -0.0675176
vn -0.9967683 -0.0128117 -0.0793017
vn -0.9769623 -0.1942241 -0.0884402
vn -0.9245066 -0.3692331 -0.0946283
vn -0.8410787 -0.5320245 -0.0976552
vn -0.7293659 -0.6771531 -0.0974115
vn -0.5929922 -0.7997151 -0.0938936
vn -0.4364184 -0.8955078 -0.0872051
vn -0.2648142 -0.9611756 -0.0775555
vn -0.1033666 0.9945141 -0.0160318
vn -0.2673354 0.9592322 -0.0916809
vn -0.4219962 0.8916215 -0.1641046
vn -0.5622151 0.7941048 -0.2308933
vn -0.6833785 0.6700629 -0.2898440
vn -0.7815280 0.5237132 -0.3390257
vn -0.8534739 0.3599687 -0.3768353
vn -0.8968847 0.1842806 -0.4020428
vn -0.9103522 0.0024693 -0.4138269
vn -0.8934311 -0.1794532 -0.4117978
vn -0.8466524 -0.3554661 -0.3960096
vn -0.7715107 -0.5197227 -0.3669598
vn -0.6704251 -0.6667306 -0.3255771
vn -0.5466737 -0.7915245 -0.2731974
vn -0.4043029 -0.8898288 -0.2115274
vn -0.2480124 -0.9582045 -0.1425969
vn -0.0653741 0.9952954 -0.0715067
vn -0.1947151 0.9607257 -0.1977175
vn -0.3172597 0.8937755 -0.3170359
vn -0.4289370 0.7968457 -0.4254996
vn -0.5260699 0.6732980 -0.5195384
vn -0.6054825 0.5273337 -0.5960790
vn -0.6645914 0.3638531 -0.6526325
vn -0.7014789 0.1882992 -0.6873651
vn -0.7149464 0.0064879 -0.6991491
vn -0.7045486 -0.1755688 -0.6875950
vn -0.6706069 -0.3518457 -0.6530628
vn -0.6142022 -0.5164876 -0.5966542
vn -0.5371471 -0.6639897 -0.5201834
vn -0.4419371 -0.7893706 -0.4261287
vn -0.3316826 -0.8883354 -0.3175641
vn -0.2100199 -0.9574232 -0.1980718
vn -0.0107733 0.9937928 -0.1107240
vn -0.0903492 0.9578535 -0.2726789
vn -0.1667380 0.8896330 -0.4251488
vn -0.2373970 0.7915745 -0.5630742
vn -0.2999946 0.6670763 -0.6819182
vn -0.3524794 0.5203709 -0.7777997
vn -0.3931397 0.3563826 -0.8476040
vn -0.4206522 0.1805707 -0.8890703
vn -0.4341197 -0.0012406 -0.9008543
vn -0.4330969 -0.1830392 -0.8825666
vn -0.4176038 -0.3588084 -0.8347835
vn -0.3881268 -0.5227093 -0.7590339
vn -0.3456070 -0.6692610 -0.6577580
vn -0.2914154 -0.7935130 -0.5342416
vn -0.2273167 -0.8912076 -0.3925254
vn -0.1554191 -0.9589259 -0.2372891
vn 0.0538502 0.9901874 -0.1289535
vn 0.0331743 0.9509620 -0.3075235
vn 0.0114138 0.8796938 -0.4754035
vn -0.0106974 0.7789268 -0.6270236
vn -0.0324204 0.6521482 -0.7573979
vn -0.0530346 0.5036647 -0.8622698
vn -0.0718598 0.3384583 -0.9382335
vn -0.0882764 0.1620272 -0.9828298
vn -0.1017439 -0.0197840 -0.9946139
vn -0.1118170 -0.2009636 -0.9731961
vn -0.1181590 -0.3755146 -0.9192536
vn -0.1205527 -0.5376374 -0.8345137
vn -0.1189075 -0.6819086 -0.7217074
vn -0.1132637 -0.8034522 -0.5844963
vn -0.1037932 -0.8980990 -0.4273701
vn -0.0907956 -0.9625312 -0.2555186
vn 0.1207017 0.9849142 -0.1239966
vn 0.1609567 0.9408825 -0.2980486
vn 0.1957078 0.8651567 -0.4617383
vn 0.2238182 0.7604282 -0.6096346
vn 0.2443792 0.6303143 -0.7368736
vn 0.2567344 0.4792302 -0.8393008
vn 0.2604971 0.3122420 -0.9135897
vn 0.2555590 0.1349055 -0.9573349
vn 0.2420915 -0.0469057 -0.9691190
vn 0.2205399 -0.2271799 -0.9485523
vn 0.1916100 -0.3999492 -0.8962847
vn 0.1562469 -0.5594714 -0.8139894
vn 0.1156082 -0.7004072 -0.7043184
vn 0.0710303 -0.8179893 -0.5708311
vn 0.0239892 -0.9081785 -0.4178952
vn -0.0239441 -0.9678045 -0.2505617
vn 0.1817181 0.9786091 -0.0964510
vn 0.2775854 0.9288308 -0.2453971
vn 0.3639155 0.8477751 -0.3858016
vn 0.4378639 0.7383099 -0.5130046
vn 0.4970180 0.6042080 -0.6228209
vn 0.5394650 0.4500143 -0.7116633
vn 0.5638440 0.2808958 -0.7766450
vn 0.5693824 0.1024767 -0.8156606
vn 0.5559149 -0.0793345 -0.8274447
vn 0.5238868 -0.2585261 -0.8116076
vn 0.4743406 -0.4291650 -0.7686471
vn 0.4088857 -0.5855777 -0.6999366
vn 0.3296539 -0.7225255 -0.6076884
vn 0.2392381 -0.8353710 -0.4948944
vn 0.1406180 -0.9202302 -0.3652436
vn 0.0370722 -0.9741096 -0.2230161
vn 0.2295397 0.9720326 -0.0496392
vn 0.3689935 0.9162603 -0.1559193
vn 0.4957487 0.8296454 -0.2567525
vn 0.6056227 0.7152397 -0.3487885
vn 0.6950242 0.5769781 -0.4289960
vn 0.7610556 0.4195412 -0.4947521
vn 0.8015927 0.2482005 -0.5439170
vn 0.8153420 0.0686523 -0.5748950
vn 0.8018745 -0.1131589 -0.5866790
vn 0.7616355 -0.2912214 -0.5788795
vn 0.6959312 -0.4596382 -0.5517359
vn 0.6068919 -0.6128075 -0.5061118
vn 0.4974127 -0.7455958 -0.4434722
vn 0.3710712 -0.8535007 -0.3658453
vn 0.2320260 -0.9328007 -0.2757659
vn 0.0848939 -0.9806860 -0.1762043
vn 0.2583987 0.9659781 0.0107926
vn 0.4241556 0.9046874 -0.0404078
vn 0.5753062 0.8129543 -0.0901561
vn 0.7068603 0.6940001 -0.1367932
vn 0.8145152 0.5519091 -0.1787773
vn 0.8947791 0.3914861 -0.2147300
vn 0.9450672 0.2180998 -0.2434760
vn 0.9637716 0.0375120 -0.2640778
vn 0.9503041 -0.1442993 -0.2758619
vn 0.9051100 -0.3213221 -0.2784385
vn 0.8296547 -0.4876932 -0.2717138
vn 0.7263830 -0.6378766 -0.2558931
vn 0.5986502 -0.7668353 -0.2314769
vn 0.4506287 -0.8701917 -0.1992489
vn 0.2871881 -0.9443736 -0.1602544
vn 0.1137529 -0.9867406 -0.1157725
f 2//2 1//1 19//19
f 2//2 19//19 3//3
f 3//3 19//19 20//20
f 3//3 20//20 4//4
f 4//4 20//20 21//21
f 4//4 21//21 5//5
f 5//5 21//21 22//22
f 5//5 22//22 6//6
f 6//6 22//22 23//23
f 6//6 23//23 7//7
f 7//7 23//23 24//24
f 7//7 24//24 8//8
f 8//8 24//24 25//25
f 8//8 25//25 9//9
f 9//9 25//25 26//26
f 9//9 26//26 10//10
f 10//10 26//26 27//27
f 10//10 27//27 11//11
f 11//11 27//27 28//28
f 11//11 28//28 12//12
f 12//12 28//28 29//29
f 12//12 29//29 13//13
f 13//13 29//29 30//30
f 13//13 30//30 14//14
f 14//14 30//30 31//31
f 14//14 31//31 15//15
f 15//15 31//31 32//32
f 15//15 32//32 16//16
f 16//16 32//32 33//33
f 16//16 33//33 17//17
f 17//17 33//33 34//34
f 17//17 34//34 18//18
f 19//19 1//1 35//35
f 19//19 35//35 20//20
f 20//20 35//35 36//36
f 20//20 36//36 21//21
f 21//21 36//36 37//37
f 21//21 37//37 22//22
f 22//22 37//37 38//38
f 22//22 38//38 23//23
f 23//23 38//38 39//39
f 23//23 39//39 24//24
f 24//24 39//39 40//40
f 24//24 40//40 25//25
f 25//25 40//40 41//41
f 25//25 41//41 26//26
f 26//26 41//41 42//42
f 26//26 42//42 27//27
f 27//27 42//42 43//43
f 27//27 43//43 28//28
f 28//28 43//43 44//44
f 28//28 44//44 29//29
f 29//29 44//44 45//45
f 29//29 45//45 30//30
f 30//30 45//45 46//46
f 30//30 46//46 31//31
f 31//31 46//46 47//47
f 31//31 47//47 32//32
f 32//32 47//47 48//48
f 32//32 48//48 33//33
f 33//33 48//48 49//49
f 33//33 49//49 34//34
f 34//34 49//49 50//50
f 34//34 50//50 18//18
f 35//35 1//1 51//51
f 35//35 51//51 36//36
f 36//36 51//51 52//52
f 36//36 52//52 37//37
f 37//37 52//52 53//53
f 37//37 53//53 38//38
f 38//38 53//53 54//54
f 38//38 54//54 39//39
f 39//39 54//54 55//55
f 39//39 55//55 40//40
f 40//40 55//55 56//56
f 40//40 56//56 41//41
f 41//41 56//56 57//57
f 41//41 57//57 42//42
f 42//42 57//57 58//58
f 42//42 58//58 43//43
f 43//43 58//58 59//59
f 43//43 59//59 44//44
f 44//44 59//59 60//60
f 44//44 60//60 45//45
f 45//45 60//60 61//61
f 45//45 61//61 46//46
f 46//46 61//61 62//62
f 46//46 62//62 47//47
f 47//47 62//62 63//63
f 47//47 63//63 48//48
f 48//48 63//63 64//64
f 48//48 64//64 49//49
f 49//49 64//64 65//65
f 49//49 65//65 50//50
f 50//50 65//65 66//66
f 50//50 66//66 18//18
f 51//51 1//1 67//67
f 51//51 67//67 52//52
f 52//52 67//67 68//68
f 52//52 68//68 53//53
f 53//53 68//68 69//69
f 53//53 69//69 54//54
f 54//54 69//69 70//70
f 54//54 70//70 55//55
f 55//55 70//70 71//71
f 55//55 71//71 56//56
f 56//56 71//71 72//72
f 56//56 72//72 57//57
f 57//57 72//72 73//73
f 57//57 73//73 58//58
f 58//58 73//73 74//74
f 58//58 74//74 59//59
f 59//59 74//74 75//75
f 59//59 75//75 60//60
f 60//60 75//75 76//76
f 60//60 76//76 61//61
f 61//61 76//76 77//77
f 61//61 77//77 62//62
f 62//62 77//77 78//78
f 62//62 78//78 63//63
f 63//63 78//78 79//79
f 63//63 79//79 64//64
f 64//64 79//79 80//80
f 64//64 80//80 65//65
f 65//65 80//80 81//81
f 65//65 81//81 66//66
f 66//66 81//81 82//82
f 66//66 82//82 18//18
f 67//67 1//1 83//83
f 67//67 83//83 68//68
f 68//68 83//83 84//84
f 68//68 84//84 69//69
f 69//69 84//84 85//85
f 69//69 85//85 70//70
f 70//70 85//85 86//86
f 70//70 86//86 71//71
f 71//71 86//86 87//87
f 71//71 87//87 72//72
f 72//72 87//87 88//88
f 72//72 88//88 73//73
f 73//73 88//88 89//89
f 73//73 89//89 74//74
f 74//74 89//89 90//90
f 74//74 90//90 75//75
f 75//75 90//90 91//91
f 75//75 91//91 76//76
f 76//76 91//91 92//92
f 76//76 92//92 77//77
f 77//77 92//92 93//93
f 77//77 93//93 78//78
f 78//78 93//93 94//94
f 78//78 94//94 79//79
f 79//79 94//94 95//95
f 79//79 95//95 80//80
f 80//80 95//95 96//96
f 80//80 96//96 81//81
f 81//81 96//96 97//97
f 81//81 97//97 82//82
f 82//82 97//97 98//98
f 82//82 98//98 18//18
f 83//83 1//1 99//99
f 83//83 99//99 84//84
f 84//84 99//99 100//100
f 84//84 100//100 85//85
f 85//85 100//100 101//101
f 85//85 101//101 86//86
f 86//86 101//101 102//102
f 86//86 102//102 87//87
f 87//87 102//102 103//103
f 87//87 103//103 88//88
f 88//88 103//103 104//104
f 88//88 104//104 89//89
f 89//89 104//104 105//105
f 89//89 105//105 90//90
f 90//90 105//105 106//106
f 90//90 106//106 91//91
f 91//91 106//106 107//107
f 91//91 107//107 92//92
f 92//92 107//107 108//108
f 92//92 108//108 93//93
f 93//93 108//108 109//109
f 93//93 109//109 94//94
f 94//94 109//109 110//110
f 94//94 110//110 95//95
f 95//95 110//110 111//111
f 95//95 111//111 96//96
f 96//96 111//111 112//112
f 96//96 112//112 97//97
f 97//97 112//112 113//113
f 97//97 113//113 98//98
f 98//98 113//113 114//114
f 98//98 114//114 18//18
f 99//99 1//1 115//115
f 99//99 115//115 100//100
f 100//100 115//115 116//116
f 100//100 116//116 101//101
f 101//101 116//116 117//117
f 101//101 117//117 102//102
f 102//102 117//117 118//118
f 102//102 118//118 103//103
f 103//103 118//118 119//119
f 103//103 119//119 104//104
f 104//104 119//119 120//120
f 104//104 120//120 105//105
f 105//105 120//120 121//121
f 105//105 121//121 106//106
f 106//106 121//121 122//122
f 106//106 122//122 107//107
f 107//107 122//122 123//123
f 107//107 123//123 108//108
f 108//108 123//123 124//124
f 108//108 124//124 109//109
f 109//109 124//124 125//125
f 109//109 125//125 110//110
f 110//110 125//125 126//126
f 110//110 126//126 111//111
f 111//111 126//126 127//127
f 111//111 127//127 112//112
f 112//112 127//127 128//128
f 112//112 128//128 113//113
f 113//113 128//128 129//129
f 113//113 129//129 114//114
f 114//114 129//129 130//130
f 114//114 130//130 18//18
f 115//115 1//1 131//131
f 115//115 131//131 116//116
f 116//116 131//131 132//132
f 116//116 132//132 117//117
f 117//117 132//132 133//133
f 117//117 133//133 118//118
f 118//118 133//133 134//134
f 118//118 134//134 119//119
f 119//119 134//134 135//135
f 119//119 135//135 120//120
f 120//120 135//135 136//136
f 120//120 136//136 121//121
f 121//121 136//136 137//137
f 121//121 137//137 122//122
f 122//122 137//137 138//138
f 122//122 138//138 123//123
f 123//123 138//138 139//139
f 123//123 139//139 124//124
f 124//124 139//139 140//140
f 124//124 140//140 125//125
f 125//125 140//140 141//141
f 125//125 141//141 126//126
f 126//126 141//141 142//142
f 126//126 142//142 127//127
f 127//127 142//142 143//143
f 127//127 143//143 128//128
f 128//128 143//143 144//144
f 128//128 144//144 129//129
f 129//129 144//144 145//145
f 129//129 145//145 130//130
f 130//130 145//145 146//146
f 130//130 146//146 18//18
f 131//131 1//1 147//147
f 131//131 147//147 132//132
f 132//132 147//147 148//148
f 132//132 148//148 133//133
f 133//133 148//148 149//149
f 133//133 149//149 134//134
f 134//134 149//149 150//150
f 134//134 150//150 135//135
f 135//135 150//150 151//151
f 135//135 151//151 136//136
f 136//136 151//151 152//152
f 136//136 152//152 137//137
f 137//137 152//152 153//153
f 137//137 153//153 138//138
f 138//138 153//153 154//154
f 138//138 154//154 139//139
f 139//139 154//154 155//155
f 139//139 155//155 140//140
f 140//140 155//155 156//156
f 140//140 156//156 141//141
f 141//141 156//156 157//157
f 141//141 157//157 142//142
f 142//142 157//157 158//158
f 142//142 158//158 143//143
f 143//143 158//158 159//159
f 143//143 159//159 144//144
f 144//144 159//159 160//160
f 144//144 160//160 145//145
f 145//145 160//160 161//161
f 145//145 161//161 146//146
f 146//146 161//161 162//162
f 146//146 162//162 18//18
f 147//147 1//1 163//163
f 147//147 163//163 148//148
f 148//148 163//163 164//164
f 148//148 164//164 149//149
f 149//149 164//164 165//165
f 149//149 165//165 150//150
f 150//150 165//165 166//166
f 150//150 166//166 151//151
f 151//151 166//166 167//167
f 151//151 167//167 152//152
f 152//152 167//167 168//168
f 152//152 168//168 153//153
f 153//153 168//168 169//169
f 153//153 169//169 154//154
f 154//154 169//169 170//170
f 154//154 170//170 155//155
f 155//155 170//170 171//171
f 155//155 171//171 156//156
f 156//156 171//171 172//172
f 156//156 172//172 157//157
f 157//157 172//172 173//173
f 157//157 173//173 158//158
f 158//158 173//173 174//174
f 158//158 174//174 159//159
f 159//159 174//174 175//175
f 159//159 175//175 160//160
f 160//160 175//175 176//176
f 160//160 176//176 161//161
f 161//161 176//176 177//177
f 161//161 177//177 162//162
f 162//162 177//177 178//178
f 162//162 178//178 18//18
f 163//163 1//1 179//179
f 163//163 179//179 164//164
f 164//164 179//179 180//180
f 164//164 180//180 165//165
f 165//165 180//180 181//181
f 165//165 181//181 166//166
f 166//166 181//181 182//182
f 166//166 182//182 167//167
f 167//167 182//182 183//183
f 167//167 183//183 168//168
f 168//168 183//183 184//184
f 168//168 184//184 169//169
f 169//169 184//184 185//185
f 169//169 185//185 170//170
f 170//170 185//185 186//186
f 170//170 186//186 171//171
f 171//171 186//186 187//187
f 171//171 187//187 172//172
f 172//172 187//187 188//188
f 172//172 188//188 173//173
f 173//173 188//188 189//189
f 173//173 189//189 174//174
f 174//174 189//189 190//190
f 174//174 190//190 175//175
f 175//175 190//190 191//191
f 175//175 191//191 176//176
f 176//176 191//191 192//192
f 176//176 192//192 177//177
f 177//177 192//192 193//193
f 177//177 193//193 178//178
f 178//178 193//193 194//194
f 178//178 194//194 18//18
f 179//179 1//1 195//195
f 179//179 195//195 180//180
f 180//180 195//195 196//196
f 180//180 196//196 181//181
f 181//181 196//196 197//197
f 181//181 197//197 182//182
f 182//182 197//197 198//198
f 182//182 198//198 183//183
f 183//183 198//198 199//199
f 183//183 199//199 184//184
f 184//184 199//199 200//200
f 184//184 200//200 185//185
f 185//185 200//200 201//201
f 185//185 201//201 186//186
f 186//186 201//201 202//202
f 186//186 202//202 187//187
f 187//187 202//202 203//203
f 187//187 203//203 188//188
f 188//188 203//203 204//204
f 188//188 204//204 189//189
f 189//189 204//204 205//205
f 189//189 205//205 190//190
f 190//190 205//205 206//206
f 190//190 206//206 191//191
f 191//191 206//206 207//207
f 191//191 207//207 192//192
f 192//192 207//207 208//208
f 192//192 208//208 193//193
f 193//193 208//208 209//209
f 193//193 209//209 194//194
f 194//194 209//209 210//210
f 194//194 210//210 18//18
f 195//195 1//1 211//211
f 195//195 211//211 196//196
f 196//196 211//211 212//212
f 196//196 212//212 197//197
f 197//197 212//212 213//213
f 197//197 213//213 198//198
f 198//198 213//213 214//214
f 198//198 214//214 199//199
f 199//199 214//214 215//215
f 199//199 215//215 200//200
f 200//200 215//215 216//216
f 200//200 216//216 201//201
f 201//201 216//216 217//217
f 201//201 217//217 202//202
f 202//202 217//217 218//218
f 202//202 218//218 203//203
f 203//203 218//218 219//219
f 203//203 219//219 204//204
f 204//204 219//219 220//220
f 204//204 220//220 205//205
f 205//205 220//220 221//221
f 205//205 221//221 206//206
f 206//206 221//221 222//222
f 206//206 222//222 207//207
f 207//207 222//222 223//223
f 207//207 223//223 208//208
f 208//208 223//223 224//224
f 208//208 224//224 209//209
f 209//209 224//224 225//225
f 209//209 225//225 210//210
f 210//210 225//225 226//226
f 210//210 226//226 18//18
f 211//211 1//1 227//227
f 211//211 227//227 212//212
f 212//212 227//227 228//228
f 212//212 228//228 213//213
f 213//213 228//228 229//229
f 213//213 229//229 214//214
f 214//214 229//229 230//230
f 214//214 230//230 215//215
f 215//215 230//230 231//231
f 215//215 231//231 216//216
f 216//216 231//231 232//232
f 216//216 232//232 217//217
f 217//217 232//232 233//233
f 217//217 233//233 218//218
f 218//218 233//233 234//234
f 218//218 234//234 219//219
f 219//219 234//234 235//235
f 219//219 235//235 220//220
f 220//220 235//235 236//236
f 220//220 236//236 221//221
f 221//221 236//236 237//237
f 221//221 237//237 222//222
f 222//222 237//237 238//238
f 222//222 238//238 223//223
f 223//223 238//238 239//239
f 223//223 239//239 224//224
f 224//224 239//239 240//240
f 224//224 240//240 225//225
f 225//225 240//240 241//241
f 225//225 241//241 226//226
f 226//226 241//241 242//242
f 226//226 242//242 18//18
f 227//227 1//1 243//243
f 227//227 243//243 228//228
f 228//228 243//243 244//244
f 228//228 244//244 229//229
f 229//229 244//244 245//245
f 229//229 245//245 230//230
f 230//230 245//245 246//246
f 230//230 246//246 231//231
f 231//231 246//246 247//247
f 231//231 247//247 232//232
f 232//232 247//247 248//248
f 232//232 248//248 233//233
f 233//233 248//248 249//249
f 233//233 249//249 234//234
f 234//234 249//249 250//250
f 234//234 250//250 235//235
f 235//235 250//250 251//251
f 235//235 251//251 236//236
f 236//236 251//251 252//252
f 236//236 252//252 237//237
f 237//237 252//252 253//253
f 237//237 253//253 238//238
f 238//238 253//253 254//254
f 238//238 254//254 239//239
f 239//239 254//254 255//255
f 239//239 255//255 240//240
f 240//240 255//255 256//256
f 240//240 256//256 241//241
f 241//241 256//256 257//257
f 241//241 257//257 242//242
f 242//242 257//257 258//258
f 242//242 258//258 18//18
f 243//243 1//1 259//259
f 243//243 259//259 244//244
f 244//244 259//259 260//260
f 244//244 260//260 245//245
f 245//245 260//260 261//261
f 245//245 261//261 246//246
f 246//246 261//261 262//262
f 246//246 262//262 247//247
f 247//247 262//262 263//263
f 247//247 263//263 248//248
f 248//248 263//263 264//264
f 248//248 264//264 249//249
f 249//249 264//264 265//265
f 249//249 265//265 250//250
f 250//250 265//265 266//266
f 250//250 266//266 251//251
f 251//251 266//266 267//267
f 251//251 267//267 252//252
f 252//252 267//267 268//268
f 252//252 268//268 253//253
f 253//253 268//268 269//269
f 253//253 269//269 254//254
f 254//254 269//269 270//270
f 254//254 270//270 255//255
f 255//255 270//270 271//271
f 255//255 271//271 256//256
f 256//256 271//271 272//272
f 256//256 272//272 257//257
f 257//257 272//272 273//273
f 257//257 273//273 258//258
f 258//258 273//273 274//274
f 258//258 274//274 18//18
f 259//259 1//1 275//275
f 259//259 275//275 260//260
f 260//260 275//275 276//276
f 260//260 276//276 261//261
f 261//261 276//276 277//277
f 261//261 277//277 262//262
f 262//262 277//277 278//278
f 262//262 278//278 263//263
f 263//263 278//278 279//279
f 263//263 279//279 264//264
f 264//264 279//279 280//280
f 264//264 280//280 265//265
f 265//265 280//280 281//281
f 265//265 281//281 266//266
f 266//266 281//281 282//282
f 266//266 282//282 267//267
f 267//267 282//282 283//283
f 267//267 283//283 268//268
f 268//268 283//283 284//284
f 268//268 284//284 269//269
f 269//269 284//284 285//285
f 269//269 285//285 270//270
f 270//270 285//285 286//286
f 270//270 286//286 271//271
f 271//271 286//286 287//287
f 271//271 287//287 272//272
f 272//272 287//287 288//288
f 272//272 288//288 273//273
f 273//273 288//288 289//289
f 273//273 289//289 274//274
f 274//274 289//289 290//290
f 274//274 290//290 18//18
f 275//275 1//1 2//2
f 275//275 2//2 276//276
f 276//276 2//2 3//3
f 276//276 3//3 277//277
f 277//277 3//3 4//4
f 277//277 4//4 278//278
f 278//278 4//4 5//5
f 278//278 5//5 279//279
f 279//279 5//5 6//6
f 279//279 6//6 280//280
f 280//280 6//6 7//7
f 280//280 7//7 281//281
f 281//281 7//7 8//8
f 281//281 8//8 282//282
f 282//282 8//8 9//9
f 282//282 9//9 283//283
f 283//283 9//9 10//10
f 283//283 10//10 284//284
f 284//284 10//10 11//11
f 284//284 11//11 285//285
f 285//285 11//11 12//12
f 285//285 12//12 286//286
f 286//286 12//12 13//13
f 286//286 13//13 287//287
f 287//287 13//13 14//14
f 287//287 14//14 288//288
f 288//288 14//14 15//15
f 288//288 15//15 289//289
f 289//289 15//15 16//16
f 289//289 16//16 290//290
f 290//290 16//16 17//17
f 290//290 17//17 18//18

