# https://github.com/mikedh/trimesh
v -0.0762310 1.8793183 0.1150000
v 0.0762310 1.8793183 0.1150000
v -0.0762310 1.7006817 0.1150000
v 0.0762310 1.7006817 0.1150000
v 0.0000000 1.7347982 0.1532793
v 0.0000000 1.8452018 0.1532793
v 0.0000000 1.7347982 0.0767207
v 0.0000000 1.8452018 0.0767207
v 0.1233444 1.7900000 0.0913421
v 0.1233444 1.7900000 0.1386579
v -0.1233444 1.7900000 0.0913421
v -0.1233444 1.7900000 0.1386579
v 0.0000000 1.8950000 0.1150000
v 0.0000000 1.6850000 0.1150000
v -0.0448075 1.7050532 0.1375000
v 0.0448075 1.7050532 0.1375000
v -0.0448075 1.8749468 0.1375000
v 0.0448075 1.8749468 0.1375000
v 0.0000000 1.7900000 0.1600000
v -0.0448075 1.7050532 0.0925000
v 0.0448075 1.7050532 0.0925000
v -0.0448075 1.8749468 0.0925000
v 0.0448075 1.8749468 0.0925000
v 0.0000000 1.7900000 0.0700000
v 0.1173075 1.8425000 0.1010942
v 0.1173075 1.7375000 0.1010942
v 0.0725000 1.7575532 0.0785942
v 0.0725000 1.8224468 0.0785942
v 0.1173075 1.8425000 0.1289058
v 0.1173075 1.7375000 0.1289058
v 0.0725000 1.7575532 0.1514058
v 0.0725000 1.8224468 0.1514058
v 0.1450000 1.7900000 0.1150000
v -0.1173075 1.8425000 0.1010942
v -0.1173075 1.7375000 0.1010942
v -0.0725000 1.7575532 0.0785942
v -0.0725000 1.8224468 0.0785942
v -0.1173075 1.8425000 0.1289058
v -0.1173075 1.7375000 0.1289058
v -0.0725000 1.7575532 0.1514058
v -0.0725000 1.8224468 0.1514058
v -0.1450000 1.7900000 0.1150000
v -0.0396236 1.8910035 0.1150000
v 0.0396236 1.8910035 0.1150000
v -0.0396236 1.6889965 0.1150000
v 0.0396236 1.6889965 0.1150000
v -0.0629138 1.6994198 0.1266951
v -0.0232902 1.7171530 0.1465921
v -0.0235567 1.6901391 0.1268290
v 0.0629138 1.6994198 0.1266951
v 0.0232902 1.7171530 0.1465921
v 0.0235567 1.6901391 0.1268290
v 0.0000000 1.7006817 0.1386579
v -0.0629138 1.8805802 0.1266951
v -0.0232902 1.8628470 0.1465921
v -0.0235567 1.8898609 0.1268290
v 0.0629138 1.8805802 0.1266951
v 0.0232902 1.8628470 0.1465921
v 0.0235567 1.8898609 0.1268290
v 0.0000000 1.8793183 0.1386579
v 0.0000000 1.7613070 0.1582872
v 0.0000000 1.8186930 0.1582872
v -0.0629138 1.6994198 0.1033049
v -0.0232902 1.7171530 0.0834079
v -0.0235567 1.6901391 0.1031710
v 0.0629138 1.6994198 0.1033049
v 0.0232902 1.7171530 0.0834079
v 0.0235567 1.6901391 0.1031710
v 0.0000000 1.7006817 0.0913421
v -0.0629138 1.8805802 0.1033049
v -0.0232902 1.8628470 0.0834079
v -0.0235567 1.8898609 0.1031710
v 0.0629138 1.8805802 0.1033049
v 0.0232902 1.8628470 0.0834079
v 0.0235567 1.8898609 0.1031710
v 0.0000000 1.8793183 0.0913421
v 0.0000000 1.7613070 0.0717128
v 0.0000000 1.8186930 0.0717128
v 0.1005982 1.8637149 0.1077720
v 0.1250869 1.8172887 0.0954750
v 0.0852289 1.8622601 0.0958604
v 0.1005982 1.7162851 0.1077720
v 0.1250869 1.7627113 0.0954750
v 0.0852289 1.7177399 0.0958604
v 0.0376843 1.7444417 0.0761799
v 0.1017967 1.7731347 0.0837799
v 0.0616722 1.7282825 0.0840314
v 0.0381155 1.7729417 0.0722025
v 0.0997877 1.7453408 0.0885497
v 0.0376843 1.8355583 0.0761799
v 0.1017967 1.8068653 0.0837799
v 0.0616722 1.8517175 0.0840314
v 0.0381155 1.8070583 0.0722025
v 0.0997877 1.8346592 0.0885497
v 0.0762310 1.7900000 0.0767207
v 0.1005982 1.8637149 0.1222280
v 0.1250869 1.8172887 0.1345250
v 0.0852289 1.8622601 0.1341396
v 0.1233444 1.8452018 0.1150000
v 0.1005982 1.7162851 0.1222280
v 0.1250869 1.7627113 0.1345250
v 0.0852289 1.7177399 0.1341396
v 0.1233444 1.7347982 0.1150000
v 0.0376843 1.7444417 0.1538201
v 0.1017967 1.7731347 0.1462201
v 0.0616722 1.7282825 0.1459686
v 0.0381155 1.7729417 0.1577975
v 0.0997877 1.7453408 0.1414503
v 0.0376843 1.8355583 0.1538201
v 0.1017967 1.8068653 0.1462201
v 0.0616722 1.8517175 0.1459686
v 0.0381155 1.8070583 0.1577975
v 0.0997877 1.8346592 0.1414503
v 0.0762310 1.7900000 0.1532793
v 0.1394811 1.7900000 0.1027030
v 0.1394811 1.7900000 0.1272970
v 0.1379032 1.8176009 0.1076893
v 0.1379032 1.7623991 0.1076893
v 0.1379032 1.8176009 0.1223107
v 0.1379032 1.7623991 0.1223107
v -0.1005982 1.8637149 0.1077720
v -0.1250869 1.8172887 0.0954750
v -0.0852289 1.8622601 0.0958604
v -0.1005982 1.7162851 0.1077720
v -0.1250869 1.7627113 0.0954750
v -0.0852289 1.7177399 0.0958604
v -0.0376843 1.7444417 0.0761799
v -0.1017967 1.7731347 0.0837799
v -0.0616722 1.7282825 0.0840314
v -0.0381155 1.7729417 0.0722025
v -0.0997877 1.7453408 0.0885497
v -0.0376843 1.8355583 0.0761799
v -0.1017967 1.8068653 0.0837799
v -0.0616722 1.8517175 0.0840314
v -0.0381155 1.8070583 0.0722025
v -0.0997877 1.8346592 0.0885497
v -0.0762310 1.7900000 0.0767207
v -0.1005982 1.8637149 0.1222280
v -0.1250869 1.8172887 0.1345250
v -0.0852289 1.8622601 0.1341396
v -0.1233444 1.8452018 0.1150000
v -0.1005982 1.7162851 0.1222280
v -0.1250869 1.7627113 0.1345250
v -0.0852289 1.7177399 0.1341396
v -0.1233444 1.7347982 0.1150000
v -0.0376843 1.7444417 0.1538201
v -0.1017967 1.7731347 0.1462201
v -0.0616722 1.7282825 0.1459686
v -0.0381155 1.7729417 0.1577975
v -0.0997877 1.7453408 0.1414503
v -0.0376843 1.8355583 0.1538201
v -0.1017967 1.8068653 0.1462201
v -0.0616722 1.8517175 0.1459686
v -0.0381155 1.8070583 0.1577975
v -0.0997877 1.8346592 0.1414503
v -0.0762310 1.7900000 0.1532793
v -0.1394811 1.7900000 0.1027030
v -0.1394811 1.7900000 0.1272970
v -0.1379032 1.8176009 0.1076893
v -0.1379032 1.7623991 0.1076893
v -0.1379032 1.8176009 0.1223107
v -0.1379032 1.7623991 0.1223107
vn -0.4217381 0.9067177 -0.0000000
vn 0.4217381 0.9067177 -0.0000000
vn -0.4217381 -0.9067177 -0.0000000
vn 0.4217381 -0.9067177 -0.0000000
vn -0.0000000 -0.2635426 0.9646477
vn 0.0000000 0.2635426 0.9646477
vn 0.0000000 -0.2635426 -0.9646477
vn -0.0000000 0.2635426 -0.9646477
vn 0.4725466 0.0000000 -0.8813057
vn 0.4725466 -0.0000000 0.8813057
vn -0.4725466 -0.0000000 -0.8813057
vn -0.4725466 0.0000000 0.8813057
vn -0.0000000 1.0000000 -0.0000000
vn 0.0000000 -1.0000000 -0.0000000
vn -0.1607967 -0.5841317 0.7955718
vn 0.1607967 -0.5841317 0.7955718
vn -0.1607967 0.5841317 0.7955718
vn 0.1607967 0.5841317 0.7955718
vn -0.0000000 0.0000000 1.0000000
vn -0.1607967 -0.5841317 -0.7955718
vn 0.1607967 -0.5841317 -0.7955718
vn -0.1607967 0.5841317 -0.7955718
vn 0.1607967 0.5841317 -0.7955718
vn 0.0000000 0.0000000 -1.0000000
vn 0.5895089 0.4935817 -0.6394188
vn 0.5895089 -0.4935817 -0.6394188
vn 0.1923812 -0.1649742 -0.9673536
vn 0.1923812 0.1649742 -0.9673536
vn 0.5895089 0.4935817 0.6394188
vn 0.5895089 -0.4935817 0.6394188
vn 0.1923812 -0.1649742 0.9673536
vn 0.1923812 0.1649742 0.9673536
vn 1.0000000 0.0000000 0.0000000
vn -0.5895089 0.4935817 -0.6394188
vn -0.5895089 -0.4935817 -0.6394188
vn -0.1923812 -0.1649742 -0.9673536
vn -0.1923812 0.1649742 -0.9673536
vn -0.5895089 0.4935817 0.6394188
vn -0.5895089 -0.4935817 0.6394188
vn -0.1923812 -0.1649742 0.9673536
vn -0.1923812 0.1649742 0.9673536
vn -1.0000000 -0.0000000 0.0000000
vn -0.2135606 0.9769298 -0.0000000
vn 0.2135606 0.9769298 -0.0000000
vn -0.2135606 -0.9769298 -0.0000000
vn 0.2135606 -0.9769298 -0.0000000
vn -0.2923712 -0.8056073 0.5152824
vn -0.0673652 -0.4008881 0.9136469
vn -0.0993677 -0.8526391 0.5129645
vn 0.2923712 -0.8056073 0.5152824
vn 0.0673652 -0.4008881 0.9136469
vn 0.0993677 -0.8526391 0.5129645
vn 0.0000000 -0.6016262 0.7987778
vn -0.2923712 0.8056073 0.5152824
vn -0.0673652 0.4008881 0.9136469
vn -0.0993677 0.8526391 0.5129645
vn 0.2923712 0.8056073 0.5152824
vn 0.0673652 0.4008881 0.9136469
vn 0.0993677 0.8526391 0.5129645
vn -0.0000000 0.6016262 0.7987778
vn -0.0000000 -0.1238197 0.9923047
vn -0.0000000 0.1238197 0.9923047
vn -0.2923712 -0.8056073 -0.5152824
vn -0.0673652 -0.4008881 -0.9136469
vn -0.0993677 -0.8526391 -0.5129645
vn 0.2923712 -0.8056073 -0.5152824
vn 0.0673652 -0.4008881 -0.9136469
vn 0.0993677 -0.8526391 -0.5129645
vn 0.0000000 -0.6016262 -0.7987778
vn -0.2923712 0.8056073 -0.5152824
vn -0.0673652 0.4008881 -0.9136469
vn -0.0993677 0.8526391 -0.5129645
vn 0.2923712 0.8056073 -0.5152824
vn 0.0673652 0.4008881 -0.9136469
vn 0.0993677 0.8526391 -0.5129645
vn -0.0000000 0.6016262 -0.7987778
vn -0.0000000 -0.1238197 -0.9923047
vn -0.0000000 0.1238197 -0.9923047
vn 0.5521465 0.7569302 -0.3495580
vn 0.5426007 0.2232220 -0.8097879
vn 0.3451715 0.5556653 -0.7563681
vn 0.5521465 -0.7569302 -0.3495580
vn 0.5426007 -0.2232220 -0.8097879
vn 0.3451715 -0.5556653 -0.7563681
vn 0.0925189 -0.2168211 -0.9718173
vn 0.3120231 -0.0977279 -0.9450348
vn 0.1899024 -0.3541344 -0.9157106
vn 0.0892038 -0.0703697 -0.9935244
vn 0.3415686 -0.2993603 -0.8909065
vn 0.0925189 0.2168211 -0.9718173
vn 0.3120231 0.0977279 -0.9450348
vn 0.1899024 0.3541344 -0.9157106
vn 0.0892038 0.0703697 -0.9935244
vn 0.3415686 0.2993603 -0.8909065
vn 0.1903157 0.0000000 -0.9817230
vn 0.5521465 0.7569302 0.3495580
vn 0.5426007 0.2232220 0.8097879
vn 0.3451715 0.5556653 0.7563681
vn 0.7772085 0.6292431 -0.0000000
vn 0.5521465 -0.7569302 0.3495580
vn 0.5426007 -0.2232220 0.8097879
vn 0.3451715 -0.5556653 0.7563681
vn 0.7772085 -0.6292431 -0.0000000
vn 0.0925189 -0.2168211 0.9718173
vn 0.3120231 -0.0977279 0.9450348
vn 0.1899024 -0.3541344 0.9157106
vn 0.0892038 -0.0703697 0.9935244
vn 0.3415686 -0.2993603 0.8909065
vn 0.0925189 0.2168211 0.9718173
vn 0.3120231 0.0977279 0.9450348
vn 0.1899024 0.3541344 0.9157106
vn 0.0892038 0.0703697 0.9935244
vn 0.3415686 0.2993603 0.8909065
vn 0.1903157 0.0000000 0.9817230
vn 0.7777824 0.0000000 -0.6285336
vn 0.7777824 0.0000000 0.6285336
vn 0.8672313 0.3279348 -0.3746580
vn 0.8672313 -0.3279348 -0.3746580
vn 0.8672313 0.3279348 0.3746580
vn 0.8672313 -0.3279348 0.3746580
vn -0.5521465 0.7569302 -0.3495580
vn -0.5426007 0.2232220 -0.8097879
vn -0.3451715 0.5556653 -0.7563681
vn -0.5521465 -0.7569302 -0.3495580
vn -0.5426007 -0.2232220 -0.8097879
vn -0.3451715 -0.5556653 -0.7563681
vn -0.0925189 -0.2168211 -0.9718173
vn -0.3120231 -0.0977279 -0.9450348
vn -0.1899024 -0.3541344 -0.9157106
vn -0.0892038 -0.0703697 -0.9935244
vn -0.3415686 -0.2993603 -0.8909065
vn -0.0925189 0.2168211 -0.9718173
vn -0.3120231 0.0977279 -0.9450348
vn -0.1899024 0.3541344 -0.9157106
vn -0.0892038 0.0703697 -0.9935244
vn -0.3415686 0.2993603 -0.8909065
vn -0.1903157 -0.0000000 -0.9817230
vn -0.5521465 0.7569302 0.3495580
vn -0.5426007 0.2232220 0.8097879
vn -0.3451715 0.5556653 0.7563681
vn -0.7772085 0.6292431 -0.0000000
vn -0.5521465 -0.7569302 0.3495580
vn -0.5426007 -0.2232220 0.8097879
vn -0.3451715 -0.5556653 0.7563681
vn -0.7772085 -0.6292431 -0.0000000
vn -0.0925189 -0.2168211 0.9718173
vn -0.3120231 -0.0977279 0.9450348
vn -0.1899024 -0.3541344 0.9157106
vn -0.0892038 -0.0703697 0.9935244
vn -0.3415686 -0.2993603 0.8909065
vn -0.0925189 0.2168211 0.9718173
vn -0.3120231 0.0977279 0.9450348
vn -0.1899024 0.3541344 0.9157106
vn -0.0892038 0.0703697 0.9935244
vn -0.3415686 0.2993603 0.8909065
vn -0.1903157 0.0000000 0.9817230
vn -0.7777824 -0.0000000 -0.6285336
vn -0.7777824 -0.0000000 0.6285336
vn -0.8672313 0.3279348 -0.3746580
vn -0.8672313 -0.3279348 -0.3746580
vn -0.8672313 0.3279348 0.3746580
vn -0.8672313 -0.3279348 0.3746580
f 1//1 138//138 54//54
f 138//138 38//38 140//140
f 54//54 140//140 17//17
f 138//138 140//140 54//54
f 38//38 139//139 155//155
f 139//139 12//12 152//152
f 155//155 152//152 41//41
f 139//139 152//152 155//155
f 17//17 153//153 55//55
f 153//153 41//41 151//151
f 55//55 151//151 6//6
f 153//153 151//151 55//55
f 38//38 155//155 140//140
f 155//155 41//41 153//153
f 140//140 153//153 17//17
f 155//155 153//153 140//140
f 1//1 54//54 43//43
f 54//54 17//17 56//56
f 43//43 56//56 13//13
f 54//54 56//56 43//43
f 17//17 55//55 60//60
f 55//55 6//6 58//58
f 60//60 58//58 18//18
f 55//55 58//58 60//60
f 13//13 59//59 44//44
f 59//59 18//18 57//57
f 44//44 57//57 2//2
f 59//59 57//57 44//44
f 17//17 60//60 56//56
f 60//60 18//18 59//59
f 56//56 59//59 13//13
f 60//60 59//59 56//56
f 1//1 43//43 70//70
f 43//43 13//13 72//72
f 70//70 72//72 22//22
f 43//43 72//72 70//70
f 13//13 44//44 75//75
f 44//44 2//2 73//73
f 75//75 73//73 23//23
f 44//44 73//73 75//75
f 22//22 76//76 71//71
f 76//76 23//23 74//74
f 71//71 74//74 8//8
f 76//76 74//74 71//71
f 13//13 75//75 72//72
f 75//75 23//23 76//76
f 72//72 76//76 22//22
f 75//75 76//76 72//72
f 1//1 70//70 121//121
f 70//70 22//22 123//123
f 121//121 123//123 34//34
f 70//70 123//123 121//121
f 22//22 71//71 134//134
f 71//71 8//8 132//132
f 134//134 132//132 37//37
f 71//71 132//132 134//134
f 34//34 136//136 122//122
f 136//136 37//37 133//133
f 122//122 133//133 11//11
f 136//136 133//133 122//122
f 22//22 134//134 123//123
f 134//134 37//37 136//136
f 123//123 136//136 34//34
f 134//134 136//136 123//123
f 1//1 121//121 138//138
f 121//121 34//34 141//141
f 138//138 141//141 38//38
f 121//121 141//141 138//138
f 34//34 122//122 159//159
f 122//122 11//11 157//157
f 159//159 157//157 42//42
f 122//122 157//157 159//159
f 38//38 161//161 139//139
f 161//161 42//42 158//158
f 139//139 158//158 12//12
f 161//161 158//158 139//139
f 34//34 159//159 141//141
f 159//159 42//42 161//161
f 141//141 161//161 38//38
f 159//159 161//161 141//141
f 2//2 57//57 96//96
f 57//57 18//18 98//98
f 96//96 98//98 29//29
f 57//57 98//98 96//96
f 18//18 58//58 111//111
f 58//58 6//6 109//109
f 111//111 109//109 32//32
f 58//58 109//109 111//111
f 29//29 113//113 97//97
f 113//113 32//32 110//110
f 97//97 110//110 10//10
f 113//113 110//110 97//97
f 18//18 111//111 98//98
f 111//111 32//32 113//113
f 98//98 113//113 29//29
f 111//111 113//113 98//98
f 6//6 151//151 62//62
f 151//151 41//41 154//154
f 62//62 154//154 19//19
f 151//151 154//154 62//62
f 41//41 152//152 156//156
f 152//152 12//12 147//147
f 156//156 147//147 40//40
f 152//152 147//147 156//156
f 19//19 149//149 61//61
f 149//149 40//40 146//146
f 61//61 146//146 5//5
f 149//149 146//146 61//61
f 41//41 156//156 154//154
f 156//156 40//40 149//149
f 154//154 149//149 19//19
f 156//156 149//149 154//154
f 12//12 158//158 143//143
f 158//158 42//42 162//162
f 143//143 162//162 39//39
f 158//158 162//162 143//143
f 42//42 157//157 160//160
f 157//157 11//11 125//125
f 160//160 125//125 35//35
f 157//157 125//125 160//160
f 39//39 145//145 142//142
f 145//145 35//35 124//124
f 142//142 124//124 3//3
f 145//145 124//124 142//142
f 42//42 160//160 162//162
f 160//160 35//35 145//145
f 162//162 145//145 39//39
f 160//160 145//145 162//162
f 11//11 133//133 128//128
f 133//133 37//37 137//137
f 128//128 137//137 36//36
f 133//133 137//137 128//128
f 37//37 132//132 135//135
f 132//132 8//8 78//78
f 135//135 78//78 24//24
f 132//132 78//78 135//135
f 36//36 130//130 127//127
f 130//130 24//24 77//77
f 127//127 77//77 7//7
f 130//130 77//77 127//127
f 37//37 135//135 137//137
f 135//135 24//24 130//130
f 137//137 130//130 36//36
f 135//135 130//130 137//137
f 8//8 74//74 90//90
f 74//74 23//23 92//92
f 90//90 92//92 28//28
f 74//74 92//92 90//90
f 23//23 73//73 81//81
f 73//73 2//2 79//79
f 81//81 79//79 25//25
f 73//73 79//79 81//81
f 28//28 94//94 91//91
f 94//94 25//25 80//80
f 91//91 80//80 9//9
f 94//94 80//80 91//91
f 23//23 81//81 92//92
f 81//81 25//25 94//94
f 92//92 94//94 28//28
f 81//81 94//94 92//92
f 4//4 100//100 50//50
f 100//100 30//30 102//102
f 50//50 102//102 16//16
f 100//100 102//102 50//50
f 30//30 101//101 108//108
f 101//101 10//10 105//105
f 108//108 105//105 31//31
f 101//101 105//105 108//108
f 16//16 106//106 51//51
f 106//106 31//31 104//104
f 51//51 104//104 5//5
f 106//106 104//104 51//51
f 30//30 108//108 102//102
f 108//108 31//31 106//106
f 102//102 106//106 16//16
f 108//108 106//106 102//102
f 4//4 50//50 46//46
f 50//50 16//16 52//52
f 46//46 52//52 14//14
f 50//50 52//52 46//46
f 16//16 51//51 53//53
f 51//51 5//5 48//48
f 53//53 48//48 15//15
f 51//51 48//48 53//53
f 14//14 49//49 45//45
f 49//49 15//15 47//47
f 45//45 47//47 3//3
f 49//49 47//47 45//45
f 16//16 53//53 52//52
f 53//53 15//15 49//49
f 52//52 49//49 14//14
f 53//53 49//49 52//52
f 4//4 46//46 66//66
f 46//46 14//14 68//68
f 66//66 68//68 21//21
f 46//46 68//68 66//66
f 14//14 45//45 65//65
f 45//45 3//3 63//63
f 65//65 63//63 20//20
f 45//45 63//63 65//65
f 21//21 69//69 67//67
f 69//69 20//20 64//64
f 67//67 64//64 7//7
f 69//69 64//64 67//67
f 14//14 65//65 68//68
f 65//65 20//20 69//69
f 68//68 69//69 21//21
f 65//65 69//69 68//68
f 4//4 66//66 82//82
f 66//66 21//21 84//84
f 82//82 84//84 26//26
f 66//66 84//84 82//82
f 21//21 67//67 87//87
f 67//67 7//7 85//85
f 87//87 85//85 27//27
f 67//67 85//85 87//87
f 26//26 89//89 83//83
f 89//89 27//27 86//86
f 83//83 86//86 9//9
f 89//89 86//86 83//83
f 21//21 87//87 84//84
f 87//87 27//27 89//89
f 84//84 89//89 26//26
f 87//87 89//89 84//84
f 4//4 82//82 100//100
f 82//82 26//26 103//103
f 100//100 103//103 30//30
f 82//82 103//103 100//100
f 26//26 83//83 118//118
f 83//83 9//9 115//115
f 118//118 115//115 33//33
f 83//83 115//115 118//118
f 30//30 120//120 101//101
f 120//120 33//33 116//116
f 101//101 116//116 10//10
f 120//120 116//116 101//101
f 26//26 118//118 103//103
f 118//118 33//33 120//120
f 103//103 120//120 30//30
f 118//118 120//120 103//103
f 5//5 104//104 61//61
f 104//104 31//31 107//107
f 61//61 107//107 19//19
f 104//104 107//107 61//61
f 31//31 105//105 114//114
f 105//105 10//10 110//110
f 114//114 110//110 32//32
f 105//105 110//110 114//114
f 19//19 112//112 62//62
f 112//112 32//32 109//109
f 62//62 109//109 6//6
f 112//112 109//109 62//62
f 31//31 114//114 107//107
f 114//114 32//32 112//112
f 107//107 112//112 19//19
f 114//114 112//112 107//107
f 3//3 47//47 142//142
f 47//47 15//15 144//144
f 142//142 144//144 39//39
f 47//47 144//144 142//142
f 15//15 48//48 148//148
f 48//48 5//5 146//146
f 148//148 146//146 40//40
f 48//48 146//146 148//148
f 39//39 150//150 143//143
f 150//150 40//40 147//147
f 143//143 147//147 12//12
f 150//150 147//147 143//143
f 15//15 148//148 144//144
f 148//148 40//40 150//150
f 144//144 150//150 39//39
f 148//148 150//150 144//144
f 7//7 64//64 127//127
f 64//64 20//20 129//129
f 127//127 129//129 36//36
f 64//64 129//129 127//127
f 20//20 63//63 126//126
f 63//63 3//3 124//124
f 126//126 124//124 35//35
f 63//63 124//124 126//126
f 36//36 131//131 128//128
f 131//131 35//35 125//125
f 128//128 125//125 11//11
f 131//131 125//125 128//128
f 20//20 126//126 129//129
f 126//126 35//35 131//131
f 129//129 131//131 36//36
f 126//126 131//131 129//129
f 9//9 86//86 91//91
f 86//86 27//27 95//95
f 91//91 95//95 28//28
f 86//86 95//95 91//91
f 27//27 85//85 88//88
f 85//85 7//7 77//77
f 88//88 77//77 24//24
f 85//85 77//77 88//88
f 28//28 93//93 90//90
f 93//93 24//24 78//78
f 90//90 78//78 8//8
f 93//93 78//78 90//90
f 27//27 88//88 95//95
f 88//88 24//24 93//93
f 95//95 93//93 28//28
f 88//88 93//93 95//95
f 10//10 116//116 97//97
f 116//116 33//33 119//119
f 97//97 119//119 29//29
f 116//116 119//119 97//97
f 33//33 115//115 117//117
f 115//115 9//9 80//80
f 117//117 80//80 25//25
f 115//115 80//80 117//117
f 29//29 99//99 96//96
f 99//99 25//25 79//79
f 96//96 79//79 2//2
f 99//99 79//79 96//96
f 33//33 117//117 119//119
f 117//117 25//25 99//99
f 119//119 99//99 29//29
f 117//117 99//99 119//119

