# https://github.com/mikedh/trimesh
v -0.5269595 0.6928371 -0.0012162
v -0.5209972 0.6917418 -0.0006368
v -0.5153415 0.6895656 -0.0000357
v -0.5101849 0.6863826 0.0005666
v -0.5057031 0.6823011 0.0011496
v -0.5020487 0.6774602 0.0016934
v -0.4993462 0.6720247 0.0021796
v -0.4976876 0.6661798 0.0025916
v -0.4971293 0.6601243 0.0029153
v -0.5476903 0.1140647 0.0231397
v -0.5493517 0.1082072 0.0232572
v -0.5520567 0.1027512 0.0232638
v -0.5557133 0.0978827 0.0231593
v -0.5601970 0.0937673 0.0229471
v -0.5653550 0.0905452 0.0226346
v -0.5710118 0.0883262 0.0222324
v -0.5769746 0.0871858 0.0217542
v -0.5830405 0.0871629 0.0212162
v -0.5215433 0.6918676 0.0013932
v -0.5164150 0.6898128 0.0039551
v -0.5117494 0.6867428 0.0063824
v -0.5077052 0.6827622 0.0085923
v -0.5044203 0.6780063 0.0105096
v -0.5020065 0.6726373 0.0120690
v -0.5005459 0.6668380 0.0132174
v -0.5000884 0.6608058 0.0139158
v -0.5506495 0.1147461 0.0341402
v -0.5522101 0.1088654 0.0338831
v -0.5547170 0.1033638 0.0331532
v -0.5580849 0.0984288 0.0319754
v -0.5621991 0.0942283 0.0303898
v -0.5669195 0.0909055 0.0284504
v -0.5720853 0.0885734 0.0262233
v -0.5775207 0.0873116 0.0237842
v -0.5227489 0.6920428 0.0031110
v -0.5187852 0.6901574 0.0073322
v -0.5152033 0.6872449 0.0113037
v -0.5121254 0.6834047 0.0148902
v -0.5096562 0.6787674 0.0179698
v -0.5078797 0.6734911 0.0204373
v -0.5068566 0.6677553 0.0222089
v -0.5066215 0.6617554 0.0232242
v -0.5571826 0.1156958 0.0434487
v -0.5585207 0.1097827 0.0428746
v -0.5605903 0.1042176 0.0415215
v -0.5633208 0.0991899 0.0394356
v -0.5666193 0.0948709 0.0366878
v -0.5703735 0.0914076 0.0333717
v -0.5744555 0.0889180 0.0296003
v -0.5787263 0.0874868 0.0255019
v -0.5244686 0.6922464 0.0043093
v -0.5221660 0.6905577 0.0096880
v -0.5201302 0.6878283 0.0147368
v -0.5184305 0.6841512 0.0192838
v -0.5171248 0.6796517 0.0231741
v -0.5162576 0.6744830 0.0262752
v -0.5158583 0.6688211 0.0284816
v -0.5159406 0.6628588 0.0297180
v -0.5665017 0.1167992 0.0499424
v -0.5675224 0.1108485 0.0491472
v -0.5689681 0.1052095 0.0473594
v -0.5707894 0.1000742 0.0446399
v -0.5729244 0.0956174 0.0410814
v -0.5753003 0.0919909 0.0368049
v -0.5778363 0.0893183 0.0319561
v -0.5804460 0.0876904 0.0267003
v -0.5264950 0.6924539 0.0048437
v -0.5261498 0.6909654 0.0107386
v -0.5259357 0.6884225 0.0162678
v -0.5258601 0.6849117 0.0212431
v -0.5259254 0.6805526 0.0254949
v -0.5261294 0.6754935 0.0288785
v -0.5264653 0.6699069 0.0312787
v -0.5269216 0.6639828 0.0326138
v -0.5774827 0.1179232 0.0528382
v -0.5781295 0.1119343 0.0519444
v -0.5788400 0.1062200 0.0499627
v -0.5795900 0.1009750 0.0469607
v -0.5803539 0.0963779 0.0430406
v -0.5811059 0.0925852 0.0383359
v -0.5818201 0.0897260 0.0330067
v -0.5824724 0.0878979 0.0272346
v -0.5285837 0.6926401 0.0046496
v -0.5302560 0.6913315 0.0103571
v -0.5319197 0.6889560 0.0157119
v -0.5335179 0.6855944 0.0205317
v -0.5349964 0.6813613 0.0246522
v -0.5363047 0.6764007 0.0279333
v -0.5373983 0.6708816 0.0302631
v -0.5382400 0.6649919 0.0315624
v -0.5888011 0.1189322 0.0517868
v -0.5890625 0.1129090 0.0509288
v -0.5890152 0.1071271 0.0490175
v -0.5886610 0.1017837 0.0461181
v -0.5880118 0.0970606 0.0423292
v -0.5870898 0.0931186 0.0377800
v -0.5859263 0.0900921 0.0326253
v -0.5845611 0.0880841 0.0270406
v -0.5304827 0.6927826 0.0037506
v -0.5339894 0.6916117 0.0085897
v -0.5373602 0.6893644 0.0131362
v -0.5404805 0.6861170 0.0172355
v -0.5432438 0.6819803 0.0207477
v -0.5455561 0.6770951 0.0235535
v -0.5473387 0.6716277 0.0255572
v -0.5485308 0.6657643 0.0266905
v -0.5990919 0.1197047 0.0469149
v -0.5990028 0.1136551 0.0462228
v -0.5982666 0.1078215 0.0446377
v -0.5969084 0.1024027 0.0422136
v -0.5949743 0.0975832 0.0390330
v -0.5925304 0.0935270 0.0352043
v -0.5896597 0.0903723 0.0308578
v -0.5864601 0.0882266 0.0261416
v -0.5319630 0.6928643 0.0022550
v -0.5368996 0.6917723 0.0056494
v -0.5416013 0.6895984 0.0088514
v -0.5459079 0.6864165 0.0117520
v -0.5496728 0.6823350 0.0142524
v -0.5527677 0.6774929 0.0162674
v -0.5550873 0.6720552 0.0177285
v -0.5565526 0.6662069 0.0185858
v -0.6071137 0.1201472 0.0388103
v -0.6067514 0.1140826 0.0383941
v -0.6054782 0.1082194 0.0373516
v -0.6033373 0.1027574 0.0357182
v -0.6004018 0.0978826 0.0335495
v -0.5967714 0.0937610 0.0309195
v -0.5925699 0.0905329 0.0279175
v -0.5879404 0.0883083 0.0246460
v -0.5328461 0.6928753 0.0003432
v -0.5386357 0.6917939 0.0018909
v -0.5441312 0.6896298 0.0033742
v -0.5491456 0.6864567 0.0047426
v -0.5535079 0.6823826 0.0059496
v -0.5570697 0.6775463 0.0069539
v -0.5597097 0.6721125 0.0077214
v -0.5613380 0.6662663 0.0082259
v -0.6118990 0.1202066 0.0284503
v -0.6113738 0.1141399 0.0283870
v -0.6097802 0.1082728 0.0280381
v -0.6071725 0.1028050 0.0274154
v -0.6036394 0.0979228 0.0265402
v -0.5993014 0.0937924 0.0254423
v -0.5943060 0.0905545 0.0241590
v -0.5888235 0.0883192 0.0227342
v -0.5330254 0.6928142 -0.0017542
v -0.5389882 0.6916738 -0.0022324
v -0.5446450 0.6894548 -0.0026346
v -0.5498030 0.6862327 -0.0029471
v -0.5542867 0.6821173 -0.0031593
v -0.5579433 0.6772488 -0.0032638
v -0.5606483 0.6717928 -0.0032572
v -0.5623097 0.6659353 -0.0031397
v -0.6128707 0.1198757 0.0170847
v -0.6123124 0.1138202 0.0174084
v -0.6106538 0.1079753 0.0178204
v -0.6079513 0.1025398 0.0183066
v -0.6042969 0.0976989 0.0188504
v -0.5998151 0.0936174 0.0194334
v -0.5946585 0.0904344 0.0200357
v -0.5890028 0.0882582 0.0206368
v -0.5324793 0.6926884 -0.0037842
v -0.5379147 0.6914266 -0.0062233
v -0.5430805 0.6890945 -0.0084504
v -0.5478009 0.6857717 -0.0103898
v -0.5519151 0.6815712 -0.0119754
v -0.5552830 0.6766362 -0.0131532
v -0.5577899 0.6711346 -0.0138831
v -0.5593505 0.6652539 -0.0141402
v -0.6099116 0.1191942 0.0060842
v -0.6094541 0.1131620 0.0067826
v -0.6079935 0.1073627 0.0079310
v -0.6055797 0.1019937 0.0094904
v -0.6022948 0.0972378 0.0114077
v -0.5982506 0.0932572 0.0136176
v -0.5935850 0.0901872 0.0160449
v -0.5884567 0.0881324 0.0186068
v -0.5312737 0.6925132 -0.0055019
v -0.5355445 0.6910820 -0.0096003
v -0.5396265 0.6885924 -0.0133717
v -0.5433807 0.6851291 -0.0166878
v -0.5466792 0.6808101 -0.0194356
v -0.5494097 0.6757824 -0.0215215
v -0.5514793 0.6702173 -0.0228746
v -0.5528174 0.6643042 -0.0234487
v -0.6033785 0.1182446 -0.0032242
v -0.6031434 0.1122447 -0.0022089
v -0.6021203 0.1065089 -0.0004373
v -0.6003438 0.1012326 0.0020302
v -0.5978746 0.0965953 0.0051098
v -0.5947967 0.0927551 0.0086963
v -0.5912148 0.0898426 0.0126678
v -0.5872511 0.0879572 0.0168890
v -0.5295540 0.6923096 -0.0067003
v -0.5321637 0.6906817 -0.0119561
v -0.5346997 0.6880091 -0.0168049
v -0.5370756 0.6843826 -0.0210814
v -0.5392106 0.6799258 -0.0246399
v -0.5410319 0.6747905 -0.0273594
v -0.5424776 0.6691515 -0.0291472
v -0.5434983 0.6632008 -0.0299424
v -0.5940594 0.1171412 -0.0097180
v -0.5941417 0.1111789 -0.0084816
v -0.5937424 0.1055170 -0.0062752
v -0.5928752 0.1003483 -0.0031741
v -0.5915695 0.0958488 0.0007162
v -0.5898698 0.0921717 0.0052632
v -0.5878340 0.0894423 0.0103120
v -0.5855314 0.0877536 0.0156907
v -0.5275276 0.6921021 -0.0072346
v -0.5281799 0.6902740 -0.0130067
v -0.5288941 0.6874148 -0.0183359
v -0.5296461 0.6836221 -0.0230406
v -0.5304100 0.6790250 -0.0269607
v -0.5311600 0.6737800 -0.0299627
v -0.5318705 0.6680657 -0.0319444
v -0.5325173 0.6620768 -0.0328382
v -0.5830784 0.1160172 -0.0126138
v -0.5835347 0.1100931 -0.0112787
v -0.5838706 0.1045065 -0.0088785
v -0.5840746 0.0994474 -0.0054949
v -0.5841399 0.0950883 -0.0012431
v -0.5840643 0.0915775 0.0037322
v -0.5838502 0.0890346 0.0092614
v -0.5835050 0.0875461 0.0151563
v -0.5254389 0.6919159 -0.0070406
v -0.5240737 0.6899079 -0.0126253
v -0.5229102 0.6868814 -0.0177800
v -0.5219882 0.6829394 -0.0223292
v -0.5213390 0.6782163 -0.0261181
v -0.5209848 0.6728729 -0.0290175
v -0.5209375 0.6670910 -0.0309288
v -0.5211989 0.6610678 -0.0317868
v -0.5717600 0.1150081 -0.0115624
v -0.5726017 0.1091184 -0.0102631
v -0.5736953 0.1035993 -0.0079333
v -0.5750036 0.0986387 -0.0046522
v -0.5764821 0.0944056 -0.0005317
v -0.5780803 0.0910440 0.0042881
v -0.5797440 0.0886685 0.0096429
v -0.5814163 0.0873599 0.0153504
v -0.5235399 0.6917734 -0.0061416
v -0.5203403 0.6896277 -0.0108578
v -0.5174696 0.6864730 -0.0152043
v -0.5150257 0.6824168 -0.0190330
v -0.5130916 0.6775973 -0.0222136
v -0.5117334 0.6721785 -0.0246377
v -0.5109972 0.6663449 -0.0262228
v -0.5109081 0.6602953 -0.0269149
v -0.5614692 0.1142357 -0.0066905
v -0.5626613 0.1083723 -0.0055572
v -0.5644439 0.1029049 -0.0035535
v -0.5667562 0.0980197 -0.0007477
v -0.5695195 0.0938830 0.0027645
v -0.5726398 0.0906356 0.0068638
v -0.5760106 0.0883883 0.0114103
v -0.5795173 0.0872174 0.0162494
v -0.5220596 0.6916917 -0.0046460
v -0.5174301 0.6894671 -0.0079175
v -0.5132286 0.6862390 -0.0109195
v -0.5095982 0.6821174 -0.0135495
v -0.5066627 0.6772426 -0.0157182
v -0.5045218 0.6717806 -0.0173516
v -0.5032486 0.6659174 -0.0183941
v -0.5028863 0.6598528 -0.0188103
v -0.5534474 0.1137931 0.0014142
v -0.5549127 0.1079448 0.0022715
v -0.5572323 0.1025071 0.0037326
v -0.5603272 0.0976650 0.0057476
v -0.5640921 0.0935835 0.0082480
v -0.5683987 0.0904016 0.0111486
v -0.5731004 0.0882277 0.0143506
v -0.5780370 0.0871357 0.0177450
v -0.5211765 0.6916808 -0.0027342
v -0.5156940 0.6894455 -0.0041590
v -0.5106986 0.6862076 -0.0054423
v -0.5063606 0.6820772 -0.0065402
v -0.5028275 0.6771950 -0.0074154
v -0.5002198 0.6717272 -0.0080381
v -0.4986262 0.6658601 -0.0083870
v -0.4981010 0.6597934 -0.0084503
v -0.5486620 0.1137337 0.0117741
v -0.5502903 0.1078875 0.0122786
v -0.5529303 0.1024537 0.0130461
v -0.5564921 0.0976174 0.0140504
v -0.5608544 0.0935433 0.0152574
v -0.5658688 0.0903702 0.0166258
v -0.5713643 0.0882061 0.0181091
v -0.5771539 0.0871247 0.0196568
vn 0.0921356 0.9950642 -0.0368542
vn 0.2824230 0.9591151 -0.0183179
vn 0.4526483 0.8916891 -0.0001396
vn 0.6072976 0.7942702 0.0180123
vn 0.7412683 0.6702678 0.0355300
vn 0.8501817 0.5239318 0.0518320
vn 0.9305083 0.3602053 0.0663810
vn 0.9796646 0.1845637 0.0786994
vn 0.9960824 0.0028416 0.0883839
vn 0.9792502 -0.1789465 0.0951168
vn 0.9297244 -0.3547895 0.0986755
vn 0.8491132 -0.5188621 0.0989390
vn 0.7400304 -0.6657024 0.0958925
vn 0.6060229 -0.7903815 0.0896281
vn 0.4514706 -0.8886615 0.0803431
vn 0.2814607 -0.9571364 0.0683355
vn 0.1016387 -0.9933549 0.0539958
vn -0.0921356 -0.9950642 0.0368542
vn 0.2649867 0.9631302 0.0465000
vn 0.4193200 0.8993638 0.1237557
vn 0.5592300 0.8053390 0.1967002
vn 0.6801018 0.6843530 0.2629117
vn 0.7779867 0.5405565 0.3202114
vn 0.8497142 0.3788101 0.3667268
vn 0.8929791 0.2045252 0.4009461
vn 0.9064032 0.0234925 0.4217599
vn 0.8895709 -0.1582956 0.4284928
vn 0.8430390 -0.3348280 0.4209221
vn 0.7683191 -0.5002572 0.3992849
vn 0.6678354 -0.6490777 0.3642719
vn 0.5448565 -0.7762964 0.3170098
vn 0.4034030 -0.8775927 0.2590310
vn 0.2481325 -0.9494618 0.1922307
vn 0.0842025 -0.9893398 0.1188137
vn 0.2264918 0.9687260 0.1013483
vn 0.3457395 0.9100597 0.2285946
vn 0.4531085 0.8207652 0.3479040
vn 0.5450613 0.7039829 0.4553199
vn 0.6185980 0.5637258 0.5473113
vn 0.6713408 0.4047392 0.6208766
vn 0.7015989 0.2323449 0.6736281
vn 0.7084134 0.0522730 0.7038593
vn 0.6915812 -0.1295151 0.7105922
vn 0.6516588 -0.3070083 0.6936041
vn 0.5899457 -0.4743282 0.6534346
vn 0.5084467 -0.6259083 0.5913719
vn 0.4098160 -0.7566665 0.5094180
vn 0.2972815 -0.8621665 0.4102348
vn 0.1745519 -0.9387658 0.2970696
vn 0.0457076 -0.9837440 0.1736620
vn 0.1715813 0.9752274 0.1396114
vn 0.2407815 0.9224869 0.3017321
vn 0.3017329 0.8386882 0.4533865
vn 0.3524347 0.7267901 0.5895472
vn 0.3912402 0.5906452 0.7057403
vn 0.4169025 0.4348649 0.7981759
vn 0.4286074 0.2646674 0.8638558
vn 0.4259936 0.0857118 0.9006569
vn 0.4091614 -0.0960763 0.9073898
vn 0.3786672 -0.2746858 0.8838319
vn 0.3355074 -0.4442025 0.8307340
vn 0.2810889 -0.5989890 0.7498008
vn 0.2171894 -0.7338593 0.6436453
vn 0.1459059 -0.8442435 0.5157173
vn 0.0695940 -0.9263387 0.3702071
vn -0.0092030 -0.9772426 0.2119251
vn 0.1068781 0.9818504 0.1566743
vn 0.1171056 0.9351463 0.3343467
vn 0.1233615 0.8569462 0.5004249
vn 0.1254555 0.7500236 0.6494039
vn 0.1233360 0.6180678 0.7763894
vn 0.1170884 0.4655538 0.8772400
vn 0.1069312 0.2975940 0.9486852
vn 0.0932079 0.1197756 0.9884159
vn 0.0763756 -0.0620125 0.9951488
vn 0.0569910 -0.2417592 0.9686612
vn 0.0356932 -0.4135136 0.9097980
vn 0.0131847 -0.5715664 0.8204499
vn -0.0097898 -0.7106258 0.7035021
vn -0.0324656 -0.8259855 0.5627557
vn -0.0540819 -0.9136793 0.4028217
vn -0.0739062 -0.9706196 0.2289880
vn 0.0401865 0.9877961 0.1504789
vn -0.0103711 0.9465111 0.3225046
vn -0.0604917 0.8733371 0.4833457
vn -0.1084991 0.7708811 0.6276705
vn -0.1528014 0.6426860 0.7507373
vn -0.1919397 0.4931042 0.8485325
vn -0.2246308 0.3271534 0.9178843
vn -0.2498050 0.1503559 0.9565514
vn -0.2666373 -0.0314322 0.9632843
vn -0.2745709 -0.2121998 0.9378604
vn -0.2733348 -0.3859632 0.8810905
vn -0.2629528 -0.5469482 0.7947978
vn -0.2437444 -0.6897683 0.6817686
vn -0.2163187 -0.8095946 0.5456765
vn -0.1815586 -0.9023145 0.3909796
vn -0.1405978 -0.9646739 0.2227926
vn -0.0204496 0.9923474 0.1217725
vn -0.1262730 0.9552105 0.2676341
vn -0.2276512 0.8858838 0.4042088
vn -0.3212109 0.7868470 0.5269681
vn -0.4038658 0.6615305 0.6318780
vn -0.4729082 0.5141933 0.7155159
vn -0.5260871 0.3497803 0.7751684
vn -0.5616727 0.1737642 0.8089065
vn -0.5785049 -0.0080239 0.8156394
vn -0.5760273 -0.1895729 0.7951445
vn -0.5543033 -0.3648741 0.7480740
vn -0.5140171 -0.5281037 0.6759385
vn -0.4564562 -0.6738024 0.5810663
vn -0.3834782 -0.7970479 0.4665396
vn -0.2974605 -0.8936150 0.3361092
vn -0.2012339 -0.9601226 0.1940862
vn -0.0677165 0.9949552 0.0740175
vn -0.2166206 0.9601953 0.1763535
vn -0.3579550 0.8930731 0.2725594
vn -0.4870236 0.7959954 0.3594432
vn -0.5995751 0.6723284 0.4341477
vn -0.6919283 0.5262773 0.4942341
vn -0.7610779 0.3627454 0.5377510
vn -0.8047792 0.1871772 0.5632896
vn -0.8216114 0.0053891 0.5700225
vn -0.8110180 -0.1766078 0.5577271
vn -0.7733235 -0.3527901 0.5267922
vn -0.7097264 -0.5173058 0.4782083
vn -0.6222689 -0.6646540 0.4135413
vn -0.5137820 -0.7898586 0.3348902
vn -0.3878082 -0.8886303 0.2448285
vn -0.2485008 -0.9575148 0.1463312
vn -0.0959132 0.9953051 0.0129738
vn -0.2705168 0.9608641 0.0596725
vn -0.4356867 0.8940378 0.1042762
vn -0.5859378 0.7972229 0.1453015
vn -0.7163238 0.6737772 0.1813957
vn -0.8225829 0.5278988 0.2113769
vn -0.9012597 0.3644851 0.2342682
vn -0.9498023 0.1889769 0.2493256
vn -0.9666346 0.0071888 0.2560585
vn -0.9511998 -0.1748681 0.2542443
vn -0.9039781 -0.3511686 0.2439349
vn -0.8264751 -0.5158569 0.2254562
vn -0.7211831 -0.6634265 0.1993997
vn -0.5915137 -0.7888939 0.1666070
vn -0.4417043 -0.8879614 0.1281475
vn -0.2766975 -0.9571649 0.0852875
vn -0.1016387 0.9933549 -0.0539958
vn -0.2814607 0.9571364 -0.0683355
vn -0.4514706 0.8886615 -0.0803431
vn -0.6060229 0.7903815 -0.0896281
vn -0.7400304 0.6657024 -0.0958925
vn -0.8491132 0.5188621 -0.0989390
vn -0.9297244 0.3547895 -0.0986755
vn -0.9792502 0.1789465 -0.0951168
vn -0.9960824 -0.0028416 -0.0883839
vn -0.9796646 -0.1845637 -0.0786994
vn -0.9305083 -0.3602053 -0.0663810
vn -0.8501817 -0.5239318 -0.0518320
vn -0.7412683 -0.6702678 -0.0355300
vn -0.6072976 -0.7942702 -0.0180123
vn -0.4526483 -0.8916891 0.0001396
vn -0.2824230 -0.9591151 0.0183179
vn -0.0842025 0.9893398 -0.1188137
vn -0.2481325 0.9494618 -0.1922307
vn -0.4034030 0.8775927 -0.2590310
vn -0.5448565 0.7762964 -0.3170098
vn -0.6678354 0.6490777 -0.3642719
vn -0.7683191 0.5002572 -0.3992849
vn -0.8430390 0.3348280 -0.4209221
vn -0.8895709 0.1582956 -0.4284928
vn -0.9064032 -0.0234925 -0.4217599
vn -0.8929791 -0.2045252 -0.4009461
vn -0.8497142 -0.3788101 -0.3667268
vn -0.7779867 -0.5405565 -0.3202114
vn -0.6801018 -0.6843530 -0.2629117
vn -0.5592300 -0.8053390 -0.1967002
vn -0.4193200 -0.8993638 -0.1237557
vn -0.2649867 -0.9631302 -0.0465000
vn -0.0457076 0.9837440 -0.1736620
vn -0.1745519 0.9387658 -0.2970696
vn -0.2972815 0.8621665 -0.4102348
vn -0.4098160 0.7566665 -0.5094180
vn -0.5084467 0.6259083 -0.5913719
vn -0.5899457 0.4743282 -0.6534346
vn -0.6516588 0.3070083 -0.6936041
vn -0.6915812 0.1295151 -0.7105922
vn -0.7084134 -0.0522730 -0.7038593
vn -0.7015989 -0.2323449 -0.6736281
vn -0.6713408 -0.4047392 -0.6208766
vn -0.6185980 -0.5637258 -0.5473113
vn -0.5450613 -0.7039829 -0.4553199
vn -0.4531085 -0.8207652 -0.3479040
vn -0.3457395 -0.9100597 -0.2285946
vn -0.2264918 -0.9687260 -0.1013483
vn 0.0092030 0.9772426 -0.2119251
vn -0.0695940 0.9263387 -0.3702071
vn -0.1459059 0.8442435 -0.5157173
vn -0.2171894 0.7338593 -0.6436453
vn -0.2810889 0.5989890 -0.7498008
vn -0.3355074 0.4442025 -0.8307340
vn -0.3786672 0.2746858 -0.8838319
vn -0.4091614 0.0960763 -0.9073898
vn -0.4259936 -0.0857118 -0.9006569
vn -0.4286074 -0.2646674 -0.8638558
vn -0.4169025 -0.4348649 -0.7981759
vn -0.3912402 -0.5906452 -0.7057403
vn -0.3524347 -0.7267901 -0.5895472
vn -0.3017329 -0.8386882 -0.4533865
vn -0.2407815 -0.9224869 -0.3017321
vn -0.1715813 -0.9752274 -0.1396114
vn 0.0739062 0.9706196 -0.2289880
vn 0.0540819 0.9136793 -0.4028217
vn 0.0324656 0.8259855 -0.5627557
vn 0.0097898 0.7106258 -0.7035021
vn -0.0131847 0.5715664 -0.8204499
vn -0.0356932 0.4135136 -0.9097980
vn -0.0569910 0.2417592 -0.9686612
vn -0.0763756 0.0620125 -0.9951488
vn -0.0932079 -0.1197756 -0.9884159
vn -0.1069312 -0.2975940 -0.9486852
vn -0.1170884 -0.4655538 -0.8772400
vn -0.1233360 -0.6180678 -0.7763894
vn -0.1254555 -0.7500236 -0.6494039
vn -0.1233615 -0.8569462 -0.5004249
vn -0.1171056 -0.9351463 -0.3343467
vn -0.1068781 -0.9818504 -0.1566743
vn 0.1405978 0.9646739 -0.2227926
vn 0.1815586 0.9023145 -0.3909796
vn 0.2163187 0.8095946 -0.5456765
vn 0.2437444 0.6897683 -0.6817686
vn 0.2629528 0.5469482 -0.7947978
vn 0.2733348 0.3859632 -0.8810905
vn 0.2745709 0.2121998 -0.9378604
vn 0.2666373 0.0314322 -0.9632843
vn 0.2498050 -0.1503559 -0.9565514
vn 0.2246308 -0.3271534 -0.9178843
vn 0.1919397 -0.4931042 -0.8485325
vn 0.1528014 -0.6426860 -0.7507373
vn 0.1084991 -0.7708811 -0.6276705
vn 0.0604917 -0.8733371 -0.4833457
vn 0.0103711 -0.9465111 -0.3225046
vn -0.0401865 -0.9877961 -0.1504789
vn 0.2012339 0.9601226 -0.1940862
vn 0.2974605 0.8936150 -0.3361092
vn 0.3834782 0.7970479 -0.4665396
vn 0.4564562 0.6738024 -0.5810663
vn 0.5140171 0.5281037 -0.6759385
vn 0.5543033 0.3648741 -0.7480740
vn 0.5760273 0.1895729 -0.7951445
vn 0.5785049 0.0080239 -0.8156394
vn 0.5616727 -0.1737642 -0.8089065
vn 0.5260871 -0.3497803 -0.7751684
vn 0.4729082 -0.5141933 -0.7155159
vn 0.4038658 -0.6615305 -0.6318780
vn 0.3212109 -0.7868470 -0.5269681
vn 0.2276512 -0.8858838 -0.4042088
vn 0.1262730 -0.9552105 -0.2676341
vn 0.0204496 -0.9923474 -0.1217725
vn 0.2485008 0.9575148 -0.1463312
vn 0.3878082 0.8886303 -0.2448285
vn 0.5137820 0.7898586 -0.3348902
vn 0.6222689 0.6646540 -0.4135413
vn 0.7097264 0.5173058 -0.4782083
vn 0.7733235 0.3527901 -0.5267922
vn 0.8110180 0.1766078 -0.5577271
vn 0.8216114 -0.0053891 -0.5700225
vn 0.8047792 -0.1871772 -0.5632896
vn 0.7610779 -0.3627454 -0.5377510
vn 0.6919283 -0.5262773 -0.4942341
vn 0.5995751 -0.6723284 -0.4341477
vn 0.4870236 -0.7959954 -0.3594432
vn 0.3579550 -0.8930731 -0.2725594
vn 0.2166206 -0.9601953 -0.1763535
vn 0.0677165 -0.9949552 -0.0740175
vn 0.2766975 0.9571649 -0.0852875
vn 0.4417043 0.8879614 -0.1281475
vn 0.5915137 0.7888939 -0.1666070
vn 0.7211831 0.6634265 -0.1993997
vn 0.8264751 0.5158569 -0.2254562
vn 0.9039781 0.3511686 -0.2439349
vn 0.9511998 0.1748681 -0.2542443
vn 0.9666346 -0.0071888 -0.2560585
vn 0.9498023 -0.1889769 -0.2493256
vn 0.9012597 -0.3644851 -0.2342682
vn 0.8225829 -0.5278988 -0.2113769
vn 0.7163238 -0.6737772 -0.1813957
vn 0.5859378 -0.7972229 -0.1453015
vn 0.4356867 -0.8940378 -0.1042762
vn 0.2705168 -0.9608641 -0.0596725
vn 0.0959132 -0.9953051 -0.0129738
f 2//2 1//1 19//19
f 2//2 19//19 3//3
f 3//3 19//19 20//20
f 3//3 20//20 4//4
f 4//4 20//20 21//21
f 4//4 21//21 5//5
f 5//5 21//21 22//22
f 5//5 22//22 6//6
f 6//6 22//22 23//23
f 6//6 23//23 7//7
f 7//7 23//23 24//24
f 7//7 24//24 8//8
f 8//8 24//24 25//25
f 8//8 25//25 9//9
f 9//9 25//25 26//26
f 9//9 26//26 10//10
f 10//10 26//26 27//27
f 10//10 27//27 11//11
f 11//11 27//27 28//28
f 11//11 28//28 12//12
f 12//12 28//28 29//29
f 12//12 29//29 13//13
f 13//13 29//29 30//30
f 13//13 30//30 14//14
f 14//14 30//30 31//31
f 14//14 31//31 15//15
f 15//15 31//31 32//32
f 15//15 32//32 16//16
f 16//16 32//32 33//33
f 16//16 33//33 17//17
f 17//17 33//33 34//34
f 17//17 34//34 18//18
f 19//19 1//1 35//35
f 19//19 35//35 20//20
f 20//20 35//35 36//36
f 20//20 36//36 21//21
f 21//21 36//36 37//37
f 21//21 37//37 22//22
f 22//22 37//37 38//38
f 22//22 38//38 23//23
f 23//23 38//38 39//39
f 23//23 39//39 24//24
f 24//24 39//39 40//40
f 24//24 40//40 25//25
f 25//25 40//40 41//41
f 25//25 41//41 26//26
f 26//26 41//41 42//42
f 26//26 42//42 27//27
f 27//27 42//42 43//43
f 27//27 43//43 28//28
f 28//28 43//43 44//44
f 28//28 44//44 29//29
f 29//29 44//44 45//45
f 29//29 45//45 30//30
f 30//30 45//45 46//46
f 30//30 46//46 31//31
f 31//31 46//46 47//47
f 31//31 47//47 32//32
f 32//32 47//47 48//48
f 32//32 48//48 33//33
f 33//33 48//48 49//49
f 33//33 49//49 34//34
f 34//34 49//49 50//50
f 34//34 50//50 18//18
f 35//35 1//1 51//51
f 35//35 51//51 36//36
f 36//36 51//51 52//52
f 36//36 52//52 37//37
f 37//37 52//52 53//53
f 37//37 53//53 38//38
f 38//38 53//53 54//54
f 38//38 54//54 39//39
f 39//39 54//54 55//55
f 39//39 55//55 40//40
f 40//40 55//55 56//56
f 40//40 56//56 41//41
f 41//41 56//56 57//57
f 41//41 57//57 42//42
f 42//42 57//57 58//58
f 42//42 58//58 43//43
f 43//43 58//58 59//59
f 43//43 59//59 44//44
f 44//44 59//59 60//60
f 44//44 60//60 45//45
f 45//45 60//60 61//61
f 45//45 61//61 46//46
f 46//46 61//61 62//62
f 46//46 62//62 47//47
f 47//47 62//62 63//63
f 47//47 63//63 48//48
f 48//48 63//63 64//64
f 48//48 64//64 49//49
f 49//49 64//64 65//65
f 49//49 65//65 50//50
f 50//50 65//65 66//66
f 50//50 66//66 18//18
f 51//51 1//1 67//67
f 51//51 67//67 52//52
f 52//52 67//67 68//68
f 52//52 68//68 53//53
f 53//53 68//68 69//69
f 53//53 69//69 54//54
f 54//54 69//69 70//70
f 54//54 70//70 55//55
f 55//55 70//70 71//71
f 55//55 71//71 56//56
f 56//56 71//71 72//72
f 56//56 72//72 57//57
f 57//57 72//72 73//73
f 57//57 73//73 58//58
f 58//58 73//73 74//74
f 58//58 74//74 59//59
f 59//59 74//74 75//75
f 59//59 75//75 60//60
f 60//60 75//75 76//76
f 60//60 76//76 61//61
f 61//61 76//76 77//77
f 61//61 77//77 62//62
f 62//62 77//77 78//78
f 62//62 78//78 63//63
f 63//63 78//78 79//79
f 63//63 79//79 64//64
f 64//64 79//79 80//80
f 64//64 80//80 65//65
f 65//65 80//80 81//81
f 65//65 81//81 66//66
f 66//66 81//81 82//82
f 66//66 82//82 18//18
f 67//67 1//1 83//83
f 67//67 83//83 68//68
f 68//68 83//83 84//84
f 68//68 84//84 69//69
f 69//69 84//84 85//85
f 69//69 85//85 70//70
f 70//70 85//85 86//86
f 70//70 86//86 71//71
f 71//71 86//86 87//87
f 71//71 87//87 72//72
f 72//72 87//87 88//88
f 72//72 88//88 73//73
f 73//73 88//88 89//89
f 73//73 89//89 74//74
f 74//74 89//89 90//90
f 74//74 90//90 75//75
f 75//75 90//90 91//91
f 75//75 91//91 76//76
f 76//76 91//91 92//92
f 76//76 92//92 77//77
f 77//77 92//92 93//93
f 77//77 93//93 78//78
f 78//78 93//93 94//94
f 78//78 94//94 79//79
f 79//79 94//94 95//95
f 79//79 95//95 80//80
f 80//80 95//95 96//96
f 80//80 96//96 81//81
f 81//81 96//96 97//97
f 81//81 97//97 82//82
f 82//82 97//97 98//98
f 82//82 98//98 18//18
f 83//83 1//1 99//99
f 83//83 99//99 84//84
f 84//84 99//99 100//100
f 84//84 100//100 85//85
f 85//85 100//100 101//101
f 85//85 101//101 86//86
f 86//86 101//101 102//102
f 86//86 102//102 87//87
f 87//87 102//102 103//103
f 87//87 103//103 88//88
f 88//88 103//103 104//104
f 88//88 104//104 89//89
f 89//89 104//104 105//105
f 89//89 105//105 90//90
f 90//90 105//105 106//106
f 90//90 106//106 91//91
f 91//91 106//106 107//107
f 91//91 107//107 92//92
f 92//92 107//107 108//108
f 92//92 108//108 93//93
f 93//93 108//108 109//109
f 93//93 109//109 94//94
f 94//94 109//109 110//110
f 94//94 110//110 95//95
f 95//95 110//110 111//111
f 95//95 111//111 96//96
f 96//96 111//111 112//112
f 96//96 112//112 97//97
f 97//97 112//112 113//113
f 97//97 113//113 98//98
f 98//98 113//113 114//114
f 98//98 114//114 18//18
f 99//99 1//1 115//115
f 99//99 115//115 100//100
f 100//100 115//115 116//116
f 100//100 116//116 101//101
f 101//101 116//116 117//117
f 101//101 117//117 102//102
f 102//102 117//117 118//118
f 102//102 118//118 103//103
f 103//103 118//118 119//119
f 103//103 119//119 104//104
f 104//104 119//119 120//120
f 104//104 120//120 105//105
f 105//105 120//120 121//121
f 105//105 121//121 106//106
f 106//106 121//121 122//122
f 106//106 122//122 107//107
f 107//107 122//122 123//123
f 107//107 123//123 108//108
f 108//108 123//123 124//124
f 108//108 124//124 109//109
f 109//109 124//124 125//125
f 109//109 125//125 110//110
f 110//110 125//125 126//126
f 110//110 126//126 111//111
f 111//111 126//126 127//127
f 111//111 127//127 112//112
f 112//112 127//127 128//128
f 112//112 128//128 113//113
f 113//113 128//128 129//129
f 113//113 129//129 114//114
f 114//114 129//129 130//130
f 114//114 130//130 18//18
f 115//115 1//1 131//131
f 115//115 131//131 116//116
f 116//116 131//131 132//132
f 116//116 132//132 117//117
f 117//117 132//132 133//133
f 117//117 133//133 118//118
f 118//118 133//133 134//134
f 118//118 134//134 119//119
f 119//119 134//134 135//135
f 119//119 135//135 120//120
f 120//120 135//135 136//136
f 120//120 136//136 121//121
f 121//121 136//136 137//137
f 121//121 137//137 122//122
f 122//122 137//137 138//138
f 122//122 138//138 123//123
f 123//123 138//138 139//139
f 123//123 139//139 124//124
f 124//124 139//139 140//140
f 124//124 140//140 125//125
f 125//125 140//140 141//141
f 125//125 141//141 126//126
f 126//126 141//141 142//142
f 126//126 142//142 127//127
f 127//127 142//142 143//143
f 127//127 143//143 128//128
f 128//128 143//143 144//144
f 128//128 144//144 129//129
f 129//129 144//144 145//145
f 129//129 145//145 130//130
f 130//130 145//145 146//146
f 130//130 146//146 18//18
f 131//131 1//1 147//147
f 131//131 147//147 132//132
f 132//132 147//147 148//148
f 132//132 148//148 133//133
f 133//133 148//148 149//149
f 133//133 149//149 134//134
f 134//134 149//149 150//150
f 134//134 150//150 135//135
f 135//135 150//150 151//151
f 135//135 151//151 136//136
f 136//136 151//151 152//152
f 136//136 152//152 137//137
f 137//137 152//152 153//153
f 137//137 153//153 138//138
f 138//138 153//153 154//154
f 138//138 154//154 139//139
f 139//139 154//154 155//155
f 139//139 155//155 140//140
f 140//140 155//155 156//156
f 140//140 156//156 141//141
f 141//141 156//156 157//157
f 141//141 157//157 142//142
f 142//142 157//157 158//158
f 142//142 158//158 143//143
f 143//143 158//158 159//159
f 143//143 159//159 144//144
f 144//144 159//159 160//160
f 144//144 160//160 145//145
f 145//145 160//160 161//161
f 145//145 161//161 146//146
f 146//146 161//161 162//162
f 146//146 162//162 18//18
f 147//147 1//1 163//163
f 147//147 163//163 148//148
f 148//148 163//163 164//164
f 148//148 164//164 149//149
f 149//149 164//164 165//165
f 149//149 165//165 150//150
f 150//150 165//165 166//166
f 150//150 166//166 151//151
f 151//151 166//166 167//167
f 151//151 167//167 152//152
f 152//152 167//167 168//168
f 152//152 168//168 153//153
f 153//153 168//168 169//169
f 153//153 169//169 154//154
f 154//154 169//169 170//170
f 154//154 170//170 155//155
f 155//155 170//170 171//171
f 155//155 171//171 156//156
f 156//156 171//171 172//172
f 156//156 172//172 157//157
f 157//157 172//172 173//173
f 157//157 173//173 158//158
f 158//158 173//173 174//174
f 158//158 174//174 159//159
f 159//159 174//174 175//175
f 159//159 175//175 160//160
f 160//160 175//175 176//176
f 160//160 176//176 161//161
f 161//161 176//176 177//177
f 161//161 177//177 162//162
f 162//162 177//177 178//178
f 162//162 178//178 18//18
f 163//163 1//1 179//179
f 163//163 179//179 164//164
f 164//164 179//179 180//180
f 164//164 180//180 165//165
f 165//165 180//180 181//181
f 165//165 181//181 166//166
f 166//166 181//181 182//182
f 166//166 182//182 167//167
f 167//167 182//182 183//183
f 167//167 183//183 168//168
f 168//168 183//183 184//184
f 168//168 184//184 169//169
f 169//169 184//184 185//185
f 169//169 185//185 170//170
f 170//170 185//185 186//186
f 170//170 186//186 171//171
f 171//171 186//186 187//187
f 171//171 187//187 172//172
f 172//172 187//187 188//188
f 172//172 188//188 173//173
f 173//173 188//188 189//189
f 173//173 189//189 174//174
f 174//174 189//189 190//190
f 174//174 190//190 175//175
f 175//175 190//190 191//191
f 175//175 191//191 176//176
f 176//176 191//191 192//192
f 176//176 192//192 177//177
f 177//177 192//192 193//193
f 177//177 193//193 178//178
f 178//178 193//193 194//194
f 178//178 194//194 18//18
f 179//179 1//1 195//195
f 179//179 195//195 180//180
f 180//180 195//195 196//196
f 180//180 196//196 181//181
f 181//181 196//196 197//197
f 181//181 197//197 182//182
f 182//182 197//197 198//198
f 182//182 198//198 183//183
f 183//183 198//198 199//199
f 183//183 199//199 184//184
f 184//184 199//199 200//200
f 184//184 200//200 185//185
f 185//185 200//200 201//201
f 185//185 201//201 186//186
f 186//186 201//201 202//202
f 186//186 202//202 187//187
f 187//187 202//202 203//203
f 187//187 203//203 188//188
f 188//188 203//203 204//204
f 188//188 204//204 189//189
f 189//189 204//204 205//205
f 189//189 205//205 190//190
f 190//190 205//205 206//206
f 190//190 206//206 191//191
f 191//191 206//206 207//207
f 191//191 207//207 192//192
f 192//192 207//207 208//208
f 192//192 208//208 193//193
f 193//193 208//208 209//209
f 193//193 209//209 194//194
f 194//194 209//209 210//210
f 194//194 210//210 18//18
f 195//195 1//1 211//211
f 195//195 211//211 196//196
f 196//196 211//211 212//212
f 196//196 212//212 197//197
f 197//197 212//212 213//213
f 197//197 213//213 198//198
f 198//198 213//213 214//214
f 198//198 214//214 199//199
f 199//199 214//214 215//215
f 199//199 215//215 200//200
f 200//200 215//215 216//216
f 200//200 216//216 201//201
f 201//201 216//216 217//217
f 201//201 217//217 202//202
f 202//202 217//217 218//218
f 202//202 218//218 203//203
f 203//203 218//218 219//219
f 203//203 219//219 204//204
f 204//204 219//219 220//220
f 204//204 220//220 205//205
f 205//205 220//220 221//221
f 205//205 221//221 206//206
f 206//206 221//221 222//222
f 206//206 222//222 207//207
f 207//207 222//222 223//223
f 207//207 223//223 208//208
f 208//208 223//223 224//224
f 208//208 224//224 209//209
f 209//209 224//224 225//225
f 209//209 225//225 210//210
f 210//210 225//225 226//226
f 210//210 226//226 18//18
f 211//211 1//1 227//227
f 211//211 227//227 212//212
f 212//212 227//227 228//228
f 212//212 228//228 213//213
f 213//213 228//228 229//229
f 213//213 229//229 214//214
f 214//214 229//229 230//230
f 214//214 230//230 215//215
f 215//215 230//230 231//231
f 215//215 231//231 216//216
f 216//216 231//231 232//232
f 216//216 232//232 217//217
f 217//217 232//232 233//233
f 217//217 233//233 218//218
f 218//218 233//233 234//234
f 218//218 234//234 219//219
f 219//219 234//234 235//235
f 219//219 235//235 220//220
f 220//220 235//235 236//236
f 220//220 236//236 221//221
f 221//221 236//236 237//237
f 221//221 237//237 222//222
f 222//222 237//237 238//238
f 222//222 238//238 223//223
f 223//223 238//238 239//239
f 223//223 239//239 224//224
f 224//224 239//239 240//240
f 224//224 240//240 225//225
f 225//225 240//240 241//241
f 225//225 241//241 226//226
f 226//226 241//241 242//242
f 226//226 242//242 18//18
f 227//227 1//1 243//243
f 227//227 243//243 228//228
f 228//228 243//243 244//244
f 228//228 244//244 229//229
f 229//229 244//244 245//245
f 229//229 245//245 230//230
f 230//230 245//245 246//246
f 230//230 246//246 231//231
f 231//231 246//246 247//247
f 231//231 247//247 232//232
f 232//232 247//247 248//248
f 232//232 248//248 233//233
f 233//233 248//248 249//249
f 233//233 249//249 234//234
f 234//234 249//249 250//250
f 234//234 250//250 235//235
f 235//235 250//250 251//251
f 235//235 251//251 236//236
f 236//236 251//251 252//252
f 236//236 252//252 237//237
f 237//237 252//252 253//253
f 237//237 253//253 238//238
f 238//238 253//253 254//254
f 238//238 254//254 239//239
f 239//239 254//254 255//255
f 239//239 255//255 240//240
f 240//240 255//255 256//256
f 240//240 256//256 241//241
f 241//241 256//256 257//257
f 241//241 257//257 242//242
f 242//242 257//257 258//258
f 242//242 258//258 18//18
f 243//243 1//1 259//259
f 243//243 259//259 244//244
f 244//244 259//259 260//260
f 244//244 260//260 245//245
f 245//245 260//260 261//261
f 245//245 261//261 246//246
f 246//246 261//261 262//262
f 246//246 262//262 247//247
f 247//247 262//262 263//263
f 247//247 263//263 248//248
f 248//248 263//263 264//264
f 248//248 264//264 249//249
f 249//249 264//264 265//265
f 249//249 265//265 250//250
f 250//250 265//265 266//266
f 250//250 266//266 251//251
f 251//251 266//266 267//267
f 251//251 267//267 252//252
f 252//252 267//267 268//268
f 252//252 268//268 253//253
f 253//253 268//268 269//269
f 253//253 269//269 254//254
f 254//254 269//269 270//270
f 254//254 270//270 255//255
f 255//255 270//270 271//271
f 255//255 271//271 256//256
f 256//256 271//271 272//272
f 256//256 272//272 257//257
f 257//257 272//272 273//273
f 257//257 273//273 258//258
f 258//258 273//273 274//274
f 258//258 274//274 18//18
f 259//259 1//1 275//275
f 259//259 275//275 260//260
f 260//260 275//275 276//276
f 260//260 276//276 261//261
f 261//261 276//276 277//277
f 261//261 277//277 262//262
f 262//262 277//277 278//278
f 262//262 278//278 263//263
f 263//263 278//278 279//279
f 263//263 279//279 264//264
f 264//264 279//279 280//280
f 264//264 280//280 265//265
f 265//265 280//280 281//281
f 265//265 281//281 266//266
f 266//266 281//281 282//282
f 266//266 282//282 267//267
f 267//267 282//282 283//283
f 267//267 283//283 268//268
f 268//268 283//283 284//284
f 268//268 284//284 269//269
f 269//269 284//284 285//285
f 269//269 285//285 270//270
f 270//270 285//285 286//286
f 270//270 286//286 271//271
f 271//271 286//286 287//287
f 271//271 287//287 272//272
f 272//272 287//287 288//288
f 272//272 288//288 273//273
f 273//273 288//288 289//289
f 273//273 289//289 274//274
f 274//274 289//289 290//290
f 274//274 290//290 18//18
f 275//275 1//1 2//2
f 275//275 2//2 276//276
f 276//276 2//2 3//3
f 276//276 3//3 277//277
f 277//277 3//3 4//4
f 277//277 4//4 278//278
f 278//278 4//4 5//5
f 278//278 5//5 279//279
f 279//279 5//5 6//6
f 279//279 6//6 280//280
f 280//280 6//6 7//7
f 280//280 7//7 281//281
f 281//281 7//7 8//8
f 281//281 8//8 282//282
f 282//282 8//8 9//9
f 282//282 9//9 283//283
f 283//283 9//9 10//10
f 283//283 10//10 284//284
f 284//284 10//10 11//11
f 284//284 11//11 285//285
f 285//285 11//11 12//12
f 285//285 12//12 286//286
f 286//286 12//12 13//13
f 286//286 13//13 287//287
f 287//287 13//13 14//14
f 287//287 14//14 288//288
f 288//288 14//14 15//15
f 288//288 15//15 289//289
f 289//289 15//15 16//16
f 289//289 16//16 290//290
f 290//290 16//16 17//17
f 290//290 17//17 18//18

