# https://github.com/mikedh/trimesh
v 0.6510000 -0.1780913 0.0369573
v 0.6530521 -0.1784476 0.0370202
v 0.6548567 -0.1794737 0.0372012
v 0.6561962 -0.1810456 0.0374786
v 0.6569088 -0.1829740 0.0378189
v 0.6569088 -0.2190260 0.0441811
v 0.6561962 -0.2209544 0.0445214
v 0.6548567 -0.2225263 0.0447988
v 0.6530521 -0.2235524 0.0449798
v 0.6510000 -0.2239087 0.0450427
v 0.6526602 -0.1782380 0.0382080
v 0.6541202 -0.1790797 0.0394337
v 0.6552038 -0.1805149 0.0404864
v 0.6557804 -0.1823704 0.0412392
v 0.6557804 -0.2184225 0.0476013
v 0.6552038 -0.2204236 0.0475291
v 0.6541202 -0.2221324 0.0470312
v 0.6526602 -0.2233427 0.0461677
v 0.6516341 -0.1781085 0.0389422
v 0.6521918 -0.1788362 0.0408134
v 0.6526057 -0.1801868 0.0423453
v 0.6528259 -0.1819974 0.0433531
v 0.6528259 -0.2180494 0.0497152
v 0.6526057 -0.2200955 0.0493880
v 0.6521918 -0.2218889 0.0484109
v 0.6516341 -0.2232132 0.0469018
v 0.6503659 -0.1781085 0.0389422
v 0.6498082 -0.1788362 0.0408134
v 0.6493943 -0.1801868 0.0423453
v 0.6491741 -0.1819974 0.0433531
v 0.6491741 -0.2180494 0.0497152
v 0.6493943 -0.2200955 0.0493880
v 0.6498082 -0.2218889 0.0484109
v 0.6503659 -0.2232132 0.0469018
v 0.6493398 -0.1782380 0.0382080
v 0.6478798 -0.1790797 0.0394337
v 0.6467962 -0.1805149 0.0404864
v 0.6462196 -0.1823704 0.0412392
v 0.6462196 -0.2184225 0.0476013
v 0.6467962 -0.2204236 0.0475291
v 0.6478798 -0.2221324 0.0470312
v 0.6493398 -0.2233427 0.0461677
v 0.6489479 -0.1784476 0.0370202
v 0.6471433 -0.1794737 0.0372012
v 0.6458038 -0.1810456 0.0374786
v 0.6450912 -0.1829740 0.0378189
v 0.6450912 -0.2190260 0.0441811
v 0.6458038 -0.2209544 0.0445214
v 0.6471433 -0.2225263 0.0447988
v 0.6489479 -0.2235524 0.0449798
v 0.6493398 -0.1786573 0.0358323
v 0.6478798 -0.1798676 0.0349688
v 0.6467962 -0.1815764 0.0344709
v 0.6462196 -0.1835775 0.0343987
v 0.6462196 -0.2196296 0.0407608
v 0.6467962 -0.2214851 0.0415136
v 0.6478798 -0.2229203 0.0425663
v 0.6493398 -0.2237620 0.0437920
v 0.6503659 -0.1787868 0.0350982
v 0.6498082 -0.1801111 0.0335891
v 0.6493943 -0.1819045 0.0326120
v 0.6491741 -0.1839506 0.0322848
v 0.6491741 -0.2200026 0.0386469
v 0.6493943 -0.2218132 0.0396547
v 0.6498082 -0.2231638 0.0411866
v 0.6503659 -0.2238915 0.0430578
v 0.6516341 -0.1787868 0.0350982
v 0.6521918 -0.1801111 0.0335891
v 0.6526057 -0.1819045 0.0326120
v 0.6528259 -0.1839506 0.0322848
v 0.6528259 -0.2200026 0.0386469
v 0.6526057 -0.2218132 0.0396547
v 0.6521918 -0.2231638 0.0411866
v 0.6516341 -0.2238915 0.0430578
v 0.6526602 -0.1786573 0.0358323
v 0.6541202 -0.1798676 0.0349688
v 0.6552038 -0.1815764 0.0344709
v 0.6557804 -0.1835775 0.0343987
v 0.6557804 -0.2196296 0.0407608
v 0.6552038 -0.2214851 0.0415136
v 0.6541202 -0.2229203 0.0425663
v 0.6526602 -0.2237620 0.0437920
vn 0.0000000 0.9847836 -0.1737853
vn 0.3718902 0.9141517 -0.1613209
vn 0.6621602 0.7379597 -0.1302282
vn 0.8741219 0.4783159 -0.0844087
vn 0.9857741 0.1655181 -0.0292091
vn 0.9857741 -0.1655181 0.0292091
vn 0.8741219 -0.4783159 0.0844087
vn 0.6621602 -0.7379597 0.1302282
vn 0.3718902 -0.9141517 0.1613209
vn -0.0000000 -0.9847836 0.1737853
vn 0.3008655 0.9521397 0.0539445
vn 0.5356989 0.8055983 0.2530575
vn 0.7071795 0.5676061 0.4215691
vn 0.7975080 0.2662134 0.5413976
vn 0.7975080 -0.0648228 0.5998158
vn 0.7071795 -0.3890257 0.5903865
vn 0.5356989 -0.6703210 0.5135138
vn 0.3008655 -0.8761636 0.3765863
vn 0.1149204 0.9756175 0.1869858
vn 0.2046188 0.8474013 0.4899410
vn 0.2701185 0.6227904 0.7342806
vn 0.3046210 0.3284465 0.8940520
vn 0.3046210 -0.0025897 0.9524701
vn 0.2701185 -0.3338413 0.9030980
vn 0.2046188 -0.6285180 0.7503974
vn 0.1149204 -0.8526858 0.5096276
vn -0.1149204 0.9756175 0.1869858
vn -0.2046188 0.8474013 0.4899410
vn -0.2701185 0.6227904 0.7342806
vn -0.3046210 0.3284465 0.8940520
vn -0.3046210 -0.0025897 0.9524701
vn -0.2701185 -0.3338413 0.9030980
vn -0.2046188 -0.6285180 0.7503974
vn -0.1149204 -0.8526858 0.5096276
vn -0.3008655 0.9521397 0.0539445
vn -0.5356989 0.8055983 0.2530575
vn -0.7071795 0.5676061 0.4215691
vn -0.7975080 0.2662134 0.5413976
vn -0.7975080 -0.0648228 0.5998158
vn -0.7071795 -0.3890257 0.5903865
vn -0.5356989 -0.6703210 0.5135138
vn -0.3008655 -0.8761636 0.3765863
vn -0.3718902 0.9141517 -0.1613209
vn -0.6621602 0.7379597 -0.1302282
vn -0.8741219 0.4783159 -0.0844087
vn -0.9857741 0.1655181 -0.0292091
vn -0.9857741 -0.1655181 0.0292091
vn -0.8741219 -0.4783159 0.0844087
vn -0.6621602 -0.7379597 0.1302282
vn -0.3718902 -0.9141517 0.1613209
vn -0.3008655 0.8761636 -0.3765863
vn -0.5356989 0.6703210 -0.5135138
vn -0.7071795 0.3890257 -0.5903865
vn -0.7975080 0.0648228 -0.5998158
vn -0.7975080 -0.2662134 -0.5413976
vn -0.7071795 -0.5676061 -0.4215691
vn -0.5356989 -0.8055983 -0.2530575
vn -0.3008655 -0.9521397 -0.0539445
vn -0.1149204 0.8526858 -0.5096276
vn -0.2046188 0.6285180 -0.7503974
vn -0.2701185 0.3338413 -0.9030980
vn -0.3046210 0.0025897 -0.9524701
vn -0.3046210 -0.3284465 -0.8940520
vn -0.2701185 -0.6227904 -0.7342806
vn -0.2046188 -0.8474013 -0.4899410
vn -0.1149204 -0.9756175 -0.1869858
vn 0.1149204 0.8526858 -0.5096276
vn 0.2046188 0.6285180 -0.7503974
vn 0.2701185 0.3338413 -0.9030980
vn 0.3046210 0.0025897 -0.9524701
vn 0.3046210 -0.3284465 -0.8940520
vn 0.2701185 -0.6227904 -0.7342806
vn 0.2046188 -0.8474013 -0.4899410
vn 0.1149204 -0.9756175 -0.1869858
vn 0.3008655 0.8761636 -0.3765863
vn 0.5356989 0.6703210 -0.5135138
vn 0.7071795 0.3890257 -0.5903865
vn 0.7975080 0.0648228 -0.5998158
vn 0.7975080 -0.2662134 -0.5413976
vn 0.7071795 -0.5676061 -0.4215691
vn 0.5356989 -0.8055983 -0.2530575
vn 0.3008655 -0.9521397 -0.0539445
f 2//2 1//1 11//11
f 2//2 11//11 3//3
f 3//3 11//11 12//12
f 3//3 12//12 4//4
f 4//4 12//12 13//13
f 4//4 13//13 5//5
f 5//5 13//13 14//14
f 5//5 14//14 6//6
f 6//6 14//14 15//15
f 6//6 15//15 7//7
f 7//7 15//15 16//16
f 7//7 16//16 8//8
f 8//8 16//16 17//17
f 8//8 17//17 9//9
f 9//9 17//17 18//18
f 9//9 18//18 10//10
f 11//11 1//1 19//19
f 11//11 19//19 12//12
f 12//12 19//19 20//20
f 12//12 20//20 13//13
f 13//13 20//20 21//21
f 13//13 21//21 14//14
f 14//14 21//21 22//22
f 14//14 22//22 15//15
f 15//15 22//22 23//23
f 15//15 23//23 16//16
f 16//16 23//23 24//24
f 16//16 24//24 17//17
f 17//17 24//24 25//25
f 17//17 25//25 18//18
f 18//18 25//25 26//26
f 18//18 26//26 10//10
f 19//19 1//1 27//27
f 19//19 27//27 20//20
f 20//20 27//27 28//28
f 20//20 28//28 21//21
f 21//21 28//28 29//29
f 21//21 29//29 22//22
f 22//22 29//29 30//30
f 22//22 30//30 23//23
f 23//23 30//30 31//31
f 23//23 31//31 24//24
f 24//24 31//31 32//32
f 24//24 32//32 25//25
f 25//25 32//32 33//33
f 25//25 33//33 26//26
f 26//26 33//33 34//34
f 26//26 34//34 10//10
f 27//27 1//1 35//35
f 27//27 35//35 28//28
f 28//28 35//35 36//36
f 28//28 36//36 29//29
f 29//29 36//36 37//37
f 29//29 37//37 30//30
f 30//30 37//37 38//38
f 30//30 38//38 31//31
f 31//31 38//38 39//39
f 31//31 39//39 32//32
f 32//32 39//39 40//40
f 32//32 40//40 33//33
f 33//33 40//40 41//41
f 33//33 41//41 34//34
f 34//34 41//41 42//42
f 34//34 42//42 10//10
f 35//35 1//1 43//43
f 35//35 43//43 36//36
f 36//36 43//43 44//44
f 36//36 44//44 37//37
f 37//37 44//44 45//45
f 37//37 45//45 38//38
f 38//38 45//45 46//46
f 38//38 46//46 39//39
f 39//39 46//46 47//47
f 39//39 47//47 40//40
f 40//40 47//47 48//48
f 40//40 48//48 41//41
f 41//41 48//48 49//49
f 41//41 49//49 42//42
f 42//42 49//49 50//50
f 42//42 50//50 10//10
f 43//43 1//1 51//51
f 43//43 51//51 44//44
f 44//44 51//51 52//52
f 44//44 52//52 45//45
f 45//45 52//52 53//53
f 45//45 53//53 46//46
f 46//46 53//53 54//54
f 46//46 54//54 47//47
f 47//47 54//54 55//55
f 47//47 55//55 48//48
f 48//48 55//55 56//56
f 48//48 56//56 49//49
f 49//49 56//56 57//57
f 49//49 57//57 50//50
f 50//50 57//57 58//58
f 50//50 58//58 10//10
f 51//51 1//1 59//59
f 51//51 59//59 52//52
f 52//52 59//59 60//60
f 52//52 60//60 53//53
f 53//53 60//60 61//61
f 53//53 61//61 54//54
f 54//54 61//61 62//62
f 54//54 62//62 55//55
f 55//55 62//62 63//63
f 55//55 63//63 56//56
f 56//56 63//63 64//64
f 56//56 64//64 57//57
f 57//57 64//64 65//65
f 57//57 65//65 58//58
f 58//58 65//65 66//66
f 58//58 66//66 10//10
f 59//59 1//1 67//67
f 59//59 67//67 60//60
f 60//60 67//67 68//68
f 60//60 68//68 61//61
f 61//61 68//68 69//69
f 61//61 69//69 62//62
f 62//62 69//69 70//70
f 62//62 70//70 63//63
f 63//63 70//70 71//71
f 63//63 71//71 64//64
f 64//64 71//71 72//72
f 64//64 72//72 65//65
f 65//65 72//72 73//73
f 65//65 73//73 66//66
f 66//66 73//73 74//74
f 66//66 74//74 10//10
f 67//67 1//1 75//75
f 67//67 75//75 68//68
f 68//68 75//75 76//76
f 68//68 76//76 69//69
f 69//69 76//76 77//77
f 69//69 77//77 70//70
f 70//70 77//77 78//78
f 70//70 78//78 71//71
f 71//71 78//78 79//79
f 71//71 79//79 72//72
f 72//72 79//79 80//80
f 72//72 80//80 73//73
f 73//73 80//80 81//81
f 73//73 81//81 74//74
f 74//74 81//81 82//82
f 74//74 82//82 10//10
f 75//75 1//1 2//2
f 75//75 2//2 76//76
f 76//76 2//2 3//3
f 76//76 3//3 77//77
f 77//77 3//3 4//4
f 77//77 4//4 78//78
f 78//78 4//4 5//5
f 78//78 5//5 79//79
f 79//79 5//5 6//6
f 79//79 6//6 80//80
f 80//80 6//6 7//7
f 80//80 7//7 81//81
f 81//81 7//7 8//8
f 81//81 8//8 82//82
f 82//82 8//8 9//9
f 82//82 9//9 10//10

