# https://github.com/mikedh/trimesh
v 0.1700000 -2.1628446 0.0464223
v 0.1722539 -2.1631344 0.0465672
v 0.1743251 -2.1639805 0.0469902
v 0.1760460 -2.1653142 0.0476571
v 0.1772771 -2.1670275 0.0485138
v 0.1779186 -2.1689817 0.0494908
v 0.1779186 -2.3110183 0.1205092
v 0.1772771 -2.3129725 0.1214862
v 0.1760460 -2.3146858 0.1223429
v 0.1743251 -2.3160195 0.1230098
v 0.1722539 -2.3168656 0.1234328
v 0.1700000 -2.3171554 0.1235777
v 0.1719519 -2.1626304 0.0475752
v 0.1737457 -2.1630134 0.0489245
v 0.1752360 -2.1639623 0.0503610
v 0.1763021 -2.1654003 0.0517682
v 0.1768577 -2.1672110 0.0530321
v 0.1768577 -2.3092477 0.1240505
v 0.1763021 -2.3113453 0.1247406
v 0.1752360 -2.3133339 0.1250468
v 0.1737457 -2.3150524 0.1249440
v 0.1719519 -2.3163616 0.1244407
v 0.1711269 -2.1622615 0.0483130
v 0.1721626 -2.1623054 0.0503405
v 0.1730230 -2.1629726 0.0523403
v 0.1736385 -2.1642091 0.0541505
v 0.1739593 -2.1659148 0.0556245
v 0.1739593 -2.3079515 0.1266429
v 0.1736385 -2.3101541 0.1271230
v 0.1730230 -2.3123442 0.1270261
v 0.1721626 -2.3143444 0.1263600
v 0.1711269 -2.3159927 0.1251786
v 0.1700000 -2.1621265 0.0485831
v 0.1700000 -2.1620462 0.0508588
v 0.1700000 -2.1626103 0.0530648
v 0.1700000 -2.1637731 0.0550226
v 0.1700000 -2.1654404 0.0565734
v 0.1700000 -2.3074770 0.1275917
v 0.1700000 -2.3097181 0.1279950
v 0.1700000 -2.3119820 0.1277506
v 0.1700000 -2.3140853 0.1268783
v 0.1700000 -2.3158576 0.1254487
v 0.1688731 -2.1622615 0.0483130
v 0.1678374 -2.1623054 0.0503405
v 0.1669770 -2.1629726 0.0523403
v 0.1663615 -2.1642091 0.0541505
v 0.1660407 -2.1659148 0.0556245
v 0.1660407 -2.3079515 0.1266429
v 0.1663615 -2.3101541 0.1271230
v 0.1669770 -2.3123442 0.1270261
v 0.1678374 -2.3143444 0.1263600
v 0.1688731 -2.3159927 0.1251786
v 0.1680481 -2.1626304 0.0475752
v 0.1662543 -2.1630134 0.0489245
v 0.1647640 -2.1639623 0.0503610
v 0.1636979 -2.1654003 0.0517682
v 0.1631423 -2.1672110 0.0530321
v 0.1631423 -2.3092477 0.1240505
v 0.1636979 -2.3113453 0.1247406
v 0.1647640 -2.3133339 0.1250468
v 0.1662543 -2.3150524 0.1249440
v 0.1680481 -2.3163616 0.1244407
v 0.1677461 -2.1631344 0.0465672
v 0.1656749 -2.1639805 0.0469902
v 0.1639540 -2.1653142 0.0476571
v 0.1627229 -2.1670275 0.0485138
v 0.1620814 -2.1689817 0.0494908
v 0.1620814 -2.3110183 0.1205092
v 0.1627229 -2.3129725 0.1214862
v 0.1639540 -2.3146858 0.1223429
v 0.1656749 -2.3160195 0.1230098
v 0.1677461 -2.3168656 0.1234328
v 0.1680481 -2.1636384 0.0455593
v 0.1662543 -2.1649476 0.0450560
v 0.1647640 -2.1666661 0.0449532
v 0.1636979 -2.1686547 0.0452594
v 0.1631423 -2.1707523 0.0459495
v 0.1631423 -2.3127890 0.1169679
v 0.1636979 -2.3145997 0.1182318
v 0.1647640 -2.3160377 0.1196390
v 0.1662543 -2.3169866 0.1210755
v 0.1680481 -2.3173696 0.1224248
v 0.1688731 -2.1640073 0.0448214
v 0.1678374 -2.1656556 0.0436400
v 0.1669770 -2.1676558 0.0429739
v 0.1663615 -2.1698459 0.0428770
v 0.1660407 -2.1720485 0.0433571
v 0.1660407 -2.3140852 0.1143755
v 0.1663615 -2.3157909 0.1158495
v 0.1669770 -2.3170274 0.1176597
v 0.1678374 -2.3176946 0.1196595
v 0.1688731 -2.3177385 0.1216870
v 0.1700000 -2.1641424 0.0445513
v 0.1700000 -2.1659147 0.0431217
v 0.1700000 -2.1680180 0.0422494
v 0.1700000 -2.1702819 0.0420050
v 0.1700000 -2.1725230 0.0424083
v 0.1700000 -2.3145596 0.1134266
v 0.1700000 -2.3162269 0.1149774
v 0.1700000 -2.3173897 0.1169352
v 0.1700000 -2.3179538 0.1191412
v 0.1700000 -2.3178735 0.1214169
v 0.1711269 -2.1640073 0.0448214
v 0.1721626 -2.1656556 0.0436400
v 0.1730230 -2.1676558 0.0429739
v 0.1736385 -2.1698459 0.0428770
v 0.1739593 -2.1720485 0.0433571
v 0.1739593 -2.3140852 0.1143755
v 0.1736385 -2.3157909 0.1158495
v 0.1730230 -2.3170274 0.1176597
v 0.1721626 -2.3176946 0.1196595
v 0.1711269 -2.3177385 0.1216870
v 0.1719519 -2.1636384 0.0455593
v 0.1737457 -2.1649476 0.0450560
v 0.1752360 -2.1666661 0.0449532
v 0.1763021 -2.1686547 0.0452594
v 0.1768577 -2.1707523 0.0459495
v 0.1768577 -2.3127890 0.1169679
v 0.1763021 -2.3145997 0.1182318
v 0.1752360 -2.3160377 0.1196390
v 0.1737457 -2.3169866 0.1210755
v 0.1719519 -2.3173696 0.1224248
vn -0.0000000 0.8944272 -0.4472136
vn 0.3032529 0.8523087 -0.4261544
vn 0.5569505 0.7428627 -0.3714313
vn 0.7655083 0.5754977 -0.2877489
vn 0.9135220 0.3638435 -0.1819217
vn 0.9902757 0.1244318 -0.0622159
vn 0.9902757 -0.1244318 0.0622159
vn 0.9135220 -0.3638435 0.1819217
vn 0.7655083 -0.5754977 0.2877489
vn 0.5569505 -0.7428627 0.3714313
vn 0.3032529 -0.8523087 0.4261544
vn 0.0000000 -0.8944272 0.4472136
vn 0.2626247 0.9201181 -0.2905355
vn 0.4823333 0.8674006 -0.1223555
vn 0.6629496 0.7466706 0.0545969
vn 0.7911332 0.5681132 0.2266177
vn 0.8576039 0.3458641 0.3806489
vn 0.8576039 0.0970006 0.5050806
vn 0.7911332 -0.1595738 0.5904612
vn 0.6629496 -0.4043249 0.6300946
vn 0.4823333 -0.6183247 0.6205072
vn 0.2626247 -0.7844993 0.5617732
vn 0.1516264 0.9697581 -0.1912557
vn 0.2784752 0.9585687 0.0599807
vn 0.3827542 0.8719778 0.3052113
vn 0.4567610 0.7176490 0.5256893
vn 0.4951378 0.5079639 0.7048484
vn 0.4951378 0.2591004 0.8292801
vn 0.4567610 -0.0100380 0.8895328
vn 0.3827542 -0.2790176 0.8807090
vn 0.2784752 -0.5271567 0.8028433
vn 0.1516264 -0.7348594 0.6610530
vn 0.0000000 0.9879275 -0.1549167
vn 0.0000000 0.9919385 0.1267203
vn -0.0000000 0.9178434 0.3969426
vn 0.0000000 0.7723829 0.6351571
vn 0.0000000 0.5672965 0.8235136
vn -0.0000000 0.3184330 0.9479454
vn -0.0000000 0.0446959 0.9990006
vn -0.0000000 -0.2331520 0.9724403
vn 0.0000000 -0.4937868 0.8695830
vn 0.0000000 -0.7166899 0.6973920
vn -0.1516264 0.9697581 -0.1912557
vn -0.2784752 0.9585687 0.0599807
vn -0.3827542 0.8719778 0.3052113
vn -0.4567610 0.7176490 0.5256893
vn -0.4951378 0.5079639 0.7048484
vn -0.4951378 0.2591004 0.8292801
vn -0.4567610 -0.0100380 0.8895328
vn -0.3827542 -0.2790176 0.8807090
vn -0.2784752 -0.5271567 0.8028433
vn -0.1516264 -0.7348594 0.6610530
vn -0.2626247 0.9201181 -0.2905355
vn -0.4823333 0.8674006 -0.1223555
vn -0.6629496 0.7466706 0.0545969
vn -0.7911332 0.5681132 0.2266177
vn -0.8576039 0.3458641 0.3806489
vn -0.8576039 0.0970006 0.5050806
vn -0.7911332 -0.1595738 0.5904612
vn -0.6629496 -0.4043249 0.6300946
vn -0.4823333 -0.6183247 0.6205072
vn -0.2626247 -0.7844993 0.5617732
vn -0.3032529 0.8523087 -0.4261544
vn -0.5569505 0.7428627 -0.3714313
vn -0.7655083 0.5754977 -0.2877489
vn -0.9135220 0.3638435 -0.1819217
vn -0.9902757 0.1244318 -0.0622159
vn -0.9902757 -0.1244318 0.0622159
vn -0.9135220 -0.3638435 0.1819217
vn -0.7655083 -0.5754977 0.2877489
vn -0.5569505 -0.7428627 0.3714313
vn -0.3032529 -0.8523087 0.4261544
vn -0.2626247 0.7844993 -0.5617732
vn -0.4823333 0.6183247 -0.6205072
vn -0.6629496 0.4043249 -0.6300946
vn -0.7911332 0.1595738 -0.5904612
vn -0.8576039 -0.0970006 -0.5050806
vn -0.8576039 -0.3458641 -0.3806489
vn -0.7911332 -0.5681132 -0.2266177
vn -0.6629496 -0.7466706 -0.0545969
vn -0.4823333 -0.8674006 0.1223555
vn -0.2626247 -0.9201181 0.2905355
vn -0.1516264 0.7348594 -0.6610530
vn -0.2784752 0.5271567 -0.8028433
vn -0.3827542 0.2790176 -0.8807090
vn -0.4567610 0.0100380 -0.8895328
vn -0.4951378 -0.2591004 -0.8292801
vn -0.4951378 -0.5079639 -0.7048484
vn -0.4567610 -0.7176490 -0.5256893
vn -0.3827542 -0.8719778 -0.3052113
vn -0.2784752 -0.9585687 -0.0599807
vn -0.1516264 -0.9697581 0.1912557
vn 0.0000000 0.7166899 -0.6973920
vn 0.0000000 0.4937868 -0.8695830
vn -0.0000000 0.2331520 -0.9724403
vn 0.0000000 -0.0446959 -0.9990006
vn 0.0000000 -0.3184330 -0.9479454
vn 0.0000000 -0.5672965 -0.8235136
vn 0.0000000 -0.7723829 -0.6351571
vn -0.0000000 -0.9178434 -0.3969426
vn 0.0000000 -0.9919385 -0.1267203
vn 0.0000000 -0.9879275 0.1549167
vn 0.1516264 0.7348594 -0.6610530
vn 0.2784752 0.5271567 -0.8028433
vn 0.3827542 0.2790176 -0.8807090
vn 0.4567610 0.0100380 -0.8895328
vn 0.4951378 -0.2591004 -0.8292801
vn 0.4951378 -0.5079639 -0.7048484
vn 0.4567610 -0.7176490 -0.5256893
vn 0.3827542 -0.8719778 -0.3052113
vn 0.2784752 -0.9585687 -0.0599807
vn 0.1516264 -0.9697581 0.1912557
vn 0.2626247 0.7844993 -0.5617732
vn 0.4823333 0.6183247 -0.6205072
vn 0.6629496 0.4043249 -0.6300946
vn 0.7911332 0.1595738 -0.5904612
vn 0.8576039 -0.0970006 -0.5050806
vn 0.8576039 -0.3458641 -0.3806489
vn 0.7911332 -0.5681132 -0.2266177
vn 0.6629496 -0.7466706 -0.0545969
vn 0.4823333 -0.8674006 0.1223555
vn 0.2626247 -0.9201181 0.2905355
f 2//2 1//1 13//13
f 2//2 13//13 3//3
f 3//3 13//13 14//14
f 3//3 14//14 4//4
f 4//4 14//14 15//15
f 4//4 15//15 5//5
f 5//5 15//15 16//16
f 5//5 16//16 6//6
f 6//6 16//16 17//17
f 6//6 17//17 7//7
f 7//7 17//17 18//18
f 7//7 18//18 8//8
f 8//8 18//18 19//19
f 8//8 19//19 9//9
f 9//9 19//19 20//20
f 9//9 20//20 10//10
f 10//10 20//20 21//21
f 10//10 21//21 11//11
f 11//11 21//21 22//22
f 11//11 22//22 12//12
f 13//13 1//1 23//23
f 13//13 23//23 14//14
f 14//14 23//23 24//24
f 14//14 24//24 15//15
f 15//15 24//24 25//25
f 15//15 25//25 16//16
f 16//16 25//25 26//26
f 16//16 26//26 17//17
f 17//17 26//26 27//27
f 17//17 27//27 18//18
f 18//18 27//27 28//28
f 18//18 28//28 19//19
f 19//19 28//28 29//29
f 19//19 29//29 20//20
f 20//20 29//29 30//30
f 20//20 30//30 21//21
f 21//21 30//30 31//31
f 21//21 31//31 22//22
f 22//22 31//31 32//32
f 22//22 32//32 12//12
f 23//23 1//1 33//33
f 23//23 33//33 24//24
f 24//24 33//33 34//34
f 24//24 34//34 25//25
f 25//25 34//34 35//35
f 25//25 35//35 26//26
f 26//26 35//35 36//36
f 26//26 36//36 27//27
f 27//27 36//36 37//37
f 27//27 37//37 28//28
f 28//28 37//37 38//38
f 28//28 38//38 29//29
f 29//29 38//38 39//39
f 29//29 39//39 30//30
f 30//30 39//39 40//40
f 30//30 40//40 31//31
f 31//31 40//40 41//41
f 31//31 41//41 32//32
f 32//32 41//41 42//42
f 32//32 42//42 12//12
f 33//33 1//1 43//43
f 33//33 43//43 34//34
f 34//34 43//43 44//44
f 34//34 44//44 35//35
f 35//35 44//44 45//45
f 35//35 45//45 36//36
f 36//36 45//45 46//46
f 36//36 46//46 37//37
f 37//37 46//46 47//47
f 37//37 47//47 38//38
f 38//38 47//47 48//48
f 38//38 48//48 39//39
f 39//39 48//48 49//49
f 39//39 49//49 40//40
f 40//40 49//49 50//50
f 40//40 50//50 41//41
f 41//41 50//50 51//51
f 41//41 51//51 42//42
f 42//42 51//51 52//52
f 42//42 52//52 12//12
f 43//43 1//1 53//53
f 43//43 53//53 44//44
f 44//44 53//53 54//54
f 44//44 54//54 45//45
f 45//45 54//54 55//55
f 45//45 55//55 46//46
f 46//46 55//55 56//56
f 46//46 56//56 47//47
f 47//47 56//56 57//57
f 47//47 57//57 48//48
f 48//48 57//57 58//58
f 48//48 58//58 49//49
f 49//49 58//58 59//59
f 49//49 59//59 50//50
f 50//50 59//59 60//60
f 50//50 60//60 51//51
f 51//51 60//60 61//61
f 51//51 61//61 52//52
f 52//52 61//61 62//62
f 52//52 62//62 12//12
f 53//53 1//1 63//63
f 53//53 63//63 54//54
f 54//54 63//63 64//64
f 54//54 64//64 55//55
f 55//55 64//64 65//65
f 55//55 65//65 56//56
f 56//56 65//65 66//66
f 56//56 66//66 57//57
f 57//57 66//66 67//67
f 57//57 67//67 58//58
f 58//58 67//67 68//68
f 58//58 68//68 59//59
f 59//59 68//68 69//69
f 59//59 69//69 60//60
f 60//60 69//69 70//70
f 60//60 70//70 61//61
f 61//61 70//70 71//71
f 61//61 71//71 62//62
f 62//62 71//71 72//72
f 62//62 72//72 12//12
f 63//63 1//1 73//73
f 63//63 73//73 64//64
f 64//64 73//73 74//74
f 64//64 74//74 65//65
f 65//65 74//74 75//75
f 65//65 75//75 66//66
f 66//66 75//75 76//76
f 66//66 76//76 67//67
f 67//67 76//76 77//77
f 67//67 77//77 68//68
f 68//68 77//77 78//78
f 68//68 78//78 69//69
f 69//69 78//78 79//79
f 69//69 79//79 70//70
f 70//70 79//79 80//80
f 70//70 80//80 71//71
f 71//71 80//80 81//81
f 71//71 81//81 72//72
f 72//72 81//81 82//82
f 72//72 82//82 12//12
f 73//73 1//1 83//83
f 73//73 83//83 74//74
f 74//74 83//83 84//84
f 74//74 84//84 75//75
f 75//75 84//84 85//85
f 75//75 85//85 76//76
f 76//76 85//85 86//86
f 76//76 86//86 77//77
f 77//77 86//86 87//87
f 77//77 87//87 78//78
f 78//78 87//87 88//88
f 78//78 88//88 79//79
f 79//79 88//88 89//89
f 79//79 89//89 80//80
f 80//80 89//89 90//90
f 80//80 90//90 81//81
f 81//81 90//90 91//91
f 81//81 91//91 82//82
f 82//82 91//91 92//92
f 82//82 92//92 12//12
f 83//83 1//1 93//93
f 83//83 93//93 84//84
f 84//84 93//93 94//94
f 84//84 94//94 85//85
f 85//85 94//94 95//95
f 85//85 95//95 86//86
f 86//86 95//95 96//96
f 86//86 96//96 87//87
f 87//87 96//96 97//97
f 87//87 97//97 88//88
f 88//88 97//97 98//98
f 88//88 98//98 89//89
f 89//89 98//98 99//99
f 89//89 99//99 90//90
f 90//90 99//99 100//100
f 90//90 100//100 91//91
f 91//91 100//100 101//101
f 91//91 101//101 92//92
f 92//92 101//101 102//102
f 92//92 102//102 12//12
f 93//93 1//1 103//103
f 93//93 103//103 94//94
f 94//94 103//103 104//104
f 94//94 104//104 95//95
f 95//95 104//104 105//105
f 95//95 105//105 96//96
f 96//96 105//105 106//106
f 96//96 106//106 97//97
f 97//97 106//106 107//107
f 97//97 107//107 98//98
f 98//98 107//107 108//108
f 98//98 108//108 99//99
f 99//99 108//108 109//109
f 99//99 109//109 100//100
f 100//100 109//109 110//110
f 100//100 110//110 101//101
f 101//101 110//110 111//111
f 101//101 111//111 102//102
f 102//102 111//111 112//112
f 102//102 112//112 12//12
f 103//103 1//1 113//113
f 103//103 113//113 104//104
f 104//104 113//113 114//114
f 104//104 114//114 105//105
f 105//105 114//114 115//115
f 105//105 115//115 106//106
f 106//106 115//115 116//116
f 106//106 116//116 107//107
f 107//107 116//116 117//117
f 107//107 117//117 108//108
f 108//108 117//117 118//118
f 108//108 118//118 109//109
f 109//109 118//118 119//119
f 109//109 119//119 110//110
f 110//110 119//119 120//120
f 110//110 120//120 111//111
f 111//111 120//120 121//121
f 111//111 121//121 112//112
f 112//112 121//121 122//122
f 112//112 122//122 12//12
f 113//113 1//1 2//2
f 113//113 2//2 114//114
f 114//114 2//2 3//3
f 114//114 3//3 115//115
f 115//115 3//3 4//4
f 115//115 4//4 116//116
f 116//116 4//4 5//5
f 116//116 5//5 117//117
f 117//117 5//5 6//6
f 117//117 6//6 118//118
f 118//118 6//6 7//7
f 118//118 7//7 119//119
f 119//119 7//7 8//8
f 119//119 8//8 120//120
f 120//120 8//8 9//9
f 120//120 9//9 121//121
f 121//121 9//9 10//10
f 121//121 10//10 122//122
f 122//122 10//10 11//11
f 122//122 11//11 12//12

