# https://github.com/mikedh/trimesh
v -0.0788597 1.5180521 0.0300000
v 0.0788597 1.5180521 0.0300000
v -0.0788597 1.3819479 0.0300000
v 0.0788597 1.3819479 0.0300000
v 0.0000000 1.4079415 0.1320781
v 0.0000000 1.4920585 0.1320781
v 0.0000000 1.4079415 -0.0720781
v 0.0000000 1.4920585 -0.0720781
v 0.1275976 1.4500000 -0.0330877
v 0.1275976 1.4500000 0.0930877
v -0.1275976 1.4500000 -0.0330877
v -0.1275976 1.4500000 0.0930877
v 0.0000000 1.5300000 0.0300000
v 0.0000000 1.3700000 0.0300000
v -0.0463525 1.3852786 0.0900000
v 0.0463525 1.3852786 0.0900000
v -0.0463525 1.5147214 0.0900000
v 0.0463525 1.5147214 0.0900000
v 0.0000000 1.4500000 0.1500000
v -0.0463525 1.3852786 -0.0300000
v 0.0463525 1.3852786 -0.0300000
v -0.0463525 1.5147214 -0.0300000
v 0.0463525 1.5147214 -0.0300000
v 0.0000000 1.4500000 -0.0900000
v 0.1213525 1.4900000 -0.0070820
v 0.1213525 1.4100000 -0.0070820
v 0.0750000 1.4252786 -0.0670820
v 0.0750000 1.4747214 -0.0670820
v 0.1213525 1.4900000 0.0670820
v 0.1213525 1.4100000 0.0670820
v 0.0750000 1.4252786 0.1270820
v 0.0750000 1.4747214 0.1270820
v 0.1500000 1.4500000 0.0300000
v -0.1213525 1.4900000 -0.0070820
v -0.1213525 1.4100000 -0.0070820
v -0.0750000 1.4252786 -0.0670820
v -0.0750000 1.4747214 -0.0670820
v -0.1213525 1.4900000 0.0670820
v -0.1213525 1.4100000 0.0670820
v -0.0750000 1.4252786 0.1270820
v -0.0750000 1.4747214 0.1270820
v -0.1500000 1.4500000 0.0300000
v -0.0409900 1.5269551 0.0300000
v 0.0409900 1.5269551 0.0300000
v -0.0409900 1.3730449 0.0300000
v 0.0409900 1.3730449 0.0300000
v -0.0650833 1.3809865 0.0611870
v -0.0240933 1.3944976 0.1142456
v -0.0243690 1.3739155 0.0615439
v 0.0650833 1.3809865 0.0611870
v 0.0240933 1.3944976 0.1142456
v 0.0243690 1.3739155 0.0615439
v 0.0000000 1.3819479 0.0930877
v -0.0650833 1.5190135 0.0611870
v -0.0240933 1.5055024 0.1142456
v -0.0243690 1.5260845 0.0615439
v 0.0650833 1.5190135 0.0611870
v 0.0240933 1.5055024 0.1142456
v 0.0243690 1.5260845 0.0615439
v 0.0000000 1.5180521 0.0930877
v 0.0000000 1.4281387 0.1454326
v 0.0000000 1.4718613 0.1454326
v -0.0650833 1.3809865 -0.0011870
v -0.0240933 1.3944976 -0.0542456
v -0.0243690 1.3739155 -0.0015439
v 0.0650833 1.3809865 -0.0011870
v 0.0240933 1.3944976 -0.0542456
v 0.0243690 1.3739155 -0.0015439
v 0.0000000 1.3819479 -0.0330877
v -0.0650833 1.5190135 -0.0011870
v -0.0240933 1.5055024 -0.0542456
v -0.0243690 1.5260845 -0.0015439
v 0.0650833 1.5190135 -0.0011870
v 0.0240933 1.5055024 -0.0542456
v 0.0243690 1.5260845 -0.0015439
v 0.0000000 1.5180521 -0.0330877
v 0.0000000 1.4281387 -0.0854326
v 0.0000000 1.4718613 -0.0854326
v 0.1040671 1.5061637 0.0107254
v 0.1294003 1.4707914 -0.0220666
v 0.0881678 1.5050553 -0.0210390
v 0.1040671 1.3938363 0.0107254
v 0.1294003 1.4292086 -0.0220666
v 0.0881678 1.3949447 -0.0210390
v 0.0389838 1.4152889 -0.0735202
v 0.1053070 1.4371502 -0.0532537
v 0.0637988 1.4029772 -0.0525829
v 0.0394298 1.4370032 -0.0841268
v 0.1032286 1.4159740 -0.0405342
v 0.0389838 1.4847111 -0.0735202
v 0.1053070 1.4628498 -0.0532537
v 0.0637988 1.4970228 -0.0525829
v 0.0394298 1.4629968 -0.0841268
v 0.1032286 1.4840260 -0.0405342
v 0.0788597 1.4500000 -0.0720781
v 0.1040671 1.5061637 0.0492746
v 0.1294003 1.4707914 0.0820666
v 0.0881678 1.5050553 0.0810390
v 0.1275976 1.4920585 0.0300000
v 0.1040671 1.3938363 0.0492746
v 0.1294003 1.4292086 0.0820666
v 0.0881678 1.3949447 0.0810390
v 0.1275976 1.4079415 0.0300000
v 0.0389838 1.4152889 0.1335202
v 0.1053070 1.4371502 0.1132537
v 0.0637988 1.4029772 0.1125829
v 0.0394298 1.4370032 0.1441268
v 0.1032286 1.4159740 0.1005342
v 0.0389838 1.4847111 0.1335202
v 0.1053070 1.4628498 0.1132537
v 0.0637988 1.4970228 0.1125829
v 0.0394298 1.4629968 0.1441268
v 0.1032286 1.4840260 0.1005342
v 0.0788597 1.4500000 0.1320781
v 0.1442908 1.4500000 -0.0027920
v 0.1442908 1.4500000 0.0627920
v 0.1426585 1.4710292 0.0105048
v 0.1426585 1.4289708 0.0105048
v 0.1426585 1.4710292 0.0494952
v 0.1426585 1.4289708 0.0494952
v -0.1040671 1.5061637 0.0107254
v -0.1294003 1.4707914 -0.0220666
v -0.0881678 1.5050553 -0.0210390
v -0.1040671 1.3938363 0.0107254
v -0.1294003 1.4292086 -0.0220666
v -0.0881678 1.3949447 -0.0210390
v -0.0389838 1.4152889 -0.0735202
v -0.1053070 1.4371502 -0.0532537
v -0.0637988 1.4029772 -0.0525829
v -0.0394298 1.4370032 -0.0841268
v -0.1032286 1.4159740 -0.0405342
v -0.0389838 1.4847111 -0.0735202
v -0.1053070 1.4628498 -0.0532537
v -0.0637988 1.4970228 -0.0525829
v -0.0394298 1.4629968 -0.0841268
v -0.1032286 1.4840260 -0.0405342
v -0.0788597 1.4500000 -0.0720781
v -0.1040671 1.5061637 0.0492746
v -0.1294003 1.4707914 0.0820666
v -0.0881678 1.5050553 0.0810390
v -0.1275976 1.4920585 0.0300000
v -0.1040671 1.3938363 0.0492746
v -0.1294003 1.4292086 0.0820666
v -0.0881678 1.3949447 0.0810390
v -0.1275976 1.4079415 0.0300000
v -0.0389838 1.4152889 0.1335202
v -0.1053070 1.4371502 0.1132537
v -0.0637988 1.4029772 0.1125829
v -0.0394298 1.4370032 0.1441268
v -0.1032286 1.4159740 0.1005342
v -0.0389838 1.4847111 0.1335202
v -0.1053070 1.4628498 0.1132537
v -0.0637988 1.4970228 0.1125829
v -0.0394298 1.4629968 0.1441268
v -0.1032286 1.4840260 0.1005342
v -0.0788597 1.4500000 0.1320781
v -0.1442908 1.4500000 -0.0027920
v -0.1442908 1.4500000 0.0627920
v -0.1426585 1.4710292 0.0105048
v -0.1426585 1.4289708 0.0105048
v -0.1426585 1.4710292 0.0494952
v -0.1426585 1.4289708 0.0494952
vn -0.3196079 0.9475499 -0.0000000
vn 0.3196079 0.9475499 0.0000000
vn -0.3196079 -0.9475499 0.0000000
vn 0.3196079 -0.9475499 -0.0000000
vn -0.0000000 -0.6727619 0.7398591
vn 0.0000000 0.6727619 0.7398591
vn 0.0000000 -0.6727619 -0.7398591
vn 0.0000000 0.6727619 -0.7398591
vn 0.7935295 -0.0000000 -0.6085318
vn 0.7935295 0.0000000 0.6085318
vn -0.7935295 0.0000000 -0.6085318
vn -0.7935295 -0.0000000 0.6085318
vn 0.0000000 1.0000000 -0.0000000
vn 0.0000000 -1.0000000 -0.0000000
vn -0.1898539 -0.9051147 0.3804246
vn 0.1898539 -0.9051147 0.3804246
vn -0.1898539 0.9051147 0.3804246
vn 0.1898539 0.9051147 0.3804246
vn -0.0000000 0.0000000 1.0000000
vn -0.1898539 -0.9051147 -0.3804246
vn 0.1898539 -0.9051147 -0.3804246
vn -0.1898539 0.9051147 -0.3804246
vn 0.1898539 0.9051147 -0.3804246
vn 0.0000000 0.0000000 -1.0000000
vn 0.6371140 0.7102572 -0.2993668
vn 0.6371140 -0.7102572 -0.2993668
vn 0.3991338 -0.4444764 -0.8019557
vn 0.3991338 0.4444764 -0.8019557
vn 0.6371140 0.7102572 0.2993668
vn 0.6371140 -0.7102572 0.2993668
vn 0.3991338 -0.4444764 0.8019557
vn 0.3991338 0.4444764 0.8019557
vn 1.0000000 -0.0000000 -0.0000000
vn -0.6371140 0.7102572 -0.2993668
vn -0.6371140 -0.7102572 -0.2993668
vn -0.3991338 -0.4444764 -0.8019557
vn -0.3991338 0.4444764 -0.8019557
vn -0.6371140 0.7102572 0.2993668
vn -0.6371140 -0.7102572 0.2993668
vn -0.3991338 -0.4444764 0.8019557
vn -0.3991338 0.4444764 0.8019557
vn -1.0000000 0.0000000 -0.0000000
vn -0.1544019 0.9880081 0.0000000
vn 0.1544019 0.9880081 0.0000000
vn -0.1544019 -0.9880081 0.0000000
vn 0.1544019 -0.9880081 0.0000000
vn -0.2598690 -0.9463056 0.1922859
vn -0.1045958 -0.8179183 0.5657468
vn -0.0861319 -0.9784455 0.1876853
vn 0.2598690 -0.9463056 0.1922859
vn 0.1045958 -0.8179183 0.5657468
vn 0.0861319 -0.9784455 0.1876853
vn 0.0000000 -0.9247997 0.3804544
vn -0.2598690 0.9463056 0.1922859
vn -0.1045958 0.8179183 0.5657468
vn -0.0861319 0.9784455 0.1876853
vn 0.2598690 0.9463056 0.1922859
vn 0.1045958 0.8179183 0.5657468
vn 0.0861319 0.9784455 0.1876853
vn 0.0000000 0.9247997 0.3804544
vn -0.0000000 -0.3840382 0.9233172
vn -0.0000000 0.3840382 0.9233172
vn -0.2598690 -0.9463056 -0.1922859
vn -0.1045958 -0.8179183 -0.5657468
vn -0.0861319 -0.9784455 -0.1876853
vn 0.2598690 -0.9463056 -0.1922859
vn 0.1045958 -0.8179183 -0.5657468
vn 0.0861319 -0.9784455 -0.1876853
vn -0.0000000 -0.9247997 -0.3804544
vn -0.2598690 0.9463056 -0.1922859
vn -0.1045958 0.8179183 -0.5657468
vn -0.0861319 0.9784455 -0.1876853
vn 0.2598690 0.9463056 -0.1922859
vn 0.1045958 0.8179183 -0.5657468
vn 0.0861319 0.9784455 -0.1876853
vn 0.0000000 0.9247997 -0.3804544
vn 0.0000000 -0.3840382 -0.9233172
vn -0.0000000 0.3840382 -0.9233172
vn 0.4714812 0.8715893 -0.1343037
vn 0.7740164 0.4138161 -0.4792231
vn 0.3987822 0.8412538 -0.3650545
vn 0.4714812 -0.8715893 -0.1343037
vn 0.7740164 -0.4138161 -0.4792231
vn 0.3987822 -0.8412538 -0.3650545
vn 0.1899954 -0.5839939 -0.7892103
vn 0.6141783 -0.2458297 -0.7499018
vn 0.3044723 -0.7461457 -0.5920837
vn 0.2153196 -0.2222062 -0.9509268
vn 0.5406151 -0.6155495 -0.5734406
vn 0.1899954 0.5839939 -0.7892103
vn 0.6141783 0.2458297 -0.7499018
vn 0.3044723 0.7461457 -0.5920837
vn 0.2153196 0.2222062 -0.9509268
vn 0.5406151 0.6155495 -0.5734406
vn 0.4377909 -0.0000000 -0.8990768
vn 0.4714812 0.8715893 0.1343037
vn 0.7740164 0.4138161 0.4792231
vn 0.3987822 0.8412538 0.3650545
vn 0.6779957 0.7350659 -0.0000000
vn 0.4714812 -0.8715893 0.1343037
vn 0.7740164 -0.4138161 0.4792231
vn 0.3987822 -0.8412538 0.3650545
vn 0.6779957 -0.7350659 -0.0000000
vn 0.1899954 -0.5839939 0.7892103
vn 0.6141783 -0.2458297 0.7499018
vn 0.3044723 -0.7461457 0.5920837
vn 0.2153196 -0.2222062 0.9509268
vn 0.5406151 -0.6155495 0.5734406
vn 0.1899954 0.5839939 0.7892103
vn 0.6141783 0.2458297 0.7499018
vn 0.3044723 0.7461457 0.5920837
vn 0.2153196 0.2222062 0.9509268
vn 0.5406151 0.6155495 0.5734406
vn 0.4377909 -0.0000000 0.8990768
vn 0.9419291 0.0000000 -0.3358118
vn 0.9419291 0.0000000 0.3358118
vn 0.8803738 0.4406356 -0.1754486
vn 0.8803738 -0.4406356 -0.1754486
vn 0.8803738 0.4406356 0.1754486
vn 0.8803738 -0.4406356 0.1754486
vn -0.4714812 0.8715893 -0.1343037
vn -0.7740164 0.4138161 -0.4792231
vn -0.3987822 0.8412538 -0.3650545
vn -0.4714812 -0.8715893 -0.1343037
vn -0.7740164 -0.4138161 -0.4792231
vn -0.3987822 -0.8412538 -0.3650545
vn -0.1899954 -0.5839939 -0.7892103
vn -0.6141783 -0.2458297 -0.7499018
vn -0.3044723 -0.7461457 -0.5920837
vn -0.2153196 -0.2222062 -0.9509268
vn -0.5406151 -0.6155495 -0.5734406
vn -0.1899954 0.5839939 -0.7892103
vn -0.6141783 0.2458297 -0.7499018
vn -0.3044723 0.7461457 -0.5920837
vn -0.2153196 0.2222062 -0.9509268
vn -0.5406151 0.6155495 -0.5734406
vn -0.4377909 0.0000000 -0.8990768
vn -0.4714812 0.8715893 0.1343037
vn -0.7740164 0.4138161 0.4792231
vn -0.3987822 0.8412538 0.3650545
vn -0.6779957 0.7350659 -0.0000000
vn -0.4714812 -0.8715893 0.1343037
vn -0.7740164 -0.4138161 0.4792231
vn -0.3987822 -0.8412538 0.3650545
vn -0.6779957 -0.7350659 -0.0000000
vn -0.1899954 -0.5839939 0.7892103
vn -0.6141783 -0.2458297 0.7499018
vn -0.3044723 -0.7461457 0.5920837
vn -0.2153196 -0.2222062 0.9509268
vn -0.5406151 -0.6155495 0.5734406
vn -0.1899954 0.5839939 0.7892103
vn -0.6141783 0.2458297 0.7499018
vn -0.3044723 0.7461457 0.5920837
vn -0.2153196 0.2222062 0.9509268
vn -0.5406151 0.6155495 0.5734406
vn -0.4377909 0.0000000 0.8990768
vn -0.9419291 -0.0000000 -0.3358118
vn -0.9419291 0.0000000 0.3358118
vn -0.8803738 0.4406356 -0.1754486
vn -0.8803738 -0.4406356 -0.1754486
vn -0.8803738 0.4406356 0.1754486
vn -0.8803738 -0.4406356 0.1754486
f 1//1 138//138 54//54
f 138//138 38//38 140//140
f 54//54 140//140 17//17
f 138//138 140//140 54//54
f 38//38 139//139 155//155
f 139//139 12//12 152//152
f 155//155 152//152 41//41
f 139//139 152//152 155//155
f 17//17 153//153 55//55
f 153//153 41//41 151//151
f 55//55 151//151 6//6
f 153//153 151//151 55//55
f 38//38 155//155 140//140
f 155//155 41//41 153//153
f 140//140 153//153 17//17
f 155//155 153//153 140//140
f 1//1 54//54 43//43
f 54//54 17//17 56//56
f 43//43 56//56 13//13
f 54//54 56//56 43//43
f 17//17 55//55 60//60
f 55//55 6//6 58//58
f 60//60 58//58 18//18
f 55//55 58//58 60//60
f 13//13 59//59 44//44
f 59//59 18//18 57//57
f 44//44 57//57 2//2
f 59//59 57//57 44//44
f 17//17 60//60 56//56
f 60//60 18//18 59//59
f 56//56 59//59 13//13
f 60//60 59//59 56//56
f 1//1 43//43 70//70
f 43//43 13//13 72//72
f 70//70 72//72 22//22
f 43//43 72//72 70//70
f 13//13 44//44 75//75
f 44//44 2//2 73//73
f 75//75 73//73 23//23
f 44//44 73//73 75//75
f 22//22 76//76 71//71
f 76//76 23//23 74//74
f 71//71 74//74 8//8
f 76//76 74//74 71//71
f 13//13 75//75 72//72
f 75//75 23//23 76//76
f 72//72 76//76 22//22
f 75//75 76//76 72//72
f 1//1 70//70 121//121
f 70//70 22//22 123//123
f 121//121 123//123 34//34
f 70//70 123//123 121//121
f 22//22 71//71 134//134
f 71//71 8//8 132//132
f 134//134 132//132 37//37
f 71//71 132//132 134//134
f 34//34 136//136 122//122
f 136//136 37//37 133//133
f 122//122 133//133 11//11
f 136//136 133//133 122//122
f 22//22 134//134 123//123
f 134//134 37//37 136//136
f 123//123 136//136 34//34
f 134//134 136//136 123//123
f 1//1 121//121 138//138
f 121//121 34//34 141//141
f 138//138 141//141 38//38
f 121//121 141//141 138//138
f 34//34 122//122 159//159
f 122//122 11//11 157//157
f 159//159 157//157 42//42
f 122//122 157//157 159//159
f 38//38 161//161 139//139
f 161//161 42//42 158//158
f 139//139 158//158 12//12
f 161//161 158//158 139//139
f 34//34 159//159 141//141
f 159//159 42//42 161//161
f 141//141 161//161 38//38
f 159//159 161//161 141//141
f 2//2 57//57 96//96
f 57//57 18//18 98//98
f 96//96 98//98 29//29
f 57//57 98//98 96//96
f 18//18 58//58 111//111
f 58//58 6//6 109//109
f 111//111 109//109 32//32
f 58//58 109//109 111//111
f 29//29 113//113 97//97
f 113//113 32//32 110//110
f 97//97 110//110 10//10
f 113//113 110//110 97//97
f 18//18 111//111 98//98
f 111//111 32//32 113//113
f 98//98 113//113 29//29
f 111//111 113//113 98//98
f 6//6 151//151 62//62
f 151//151 41//41 154//154
f 62//62 154//154 19//19
f 151//151 154//154 62//62
f 41//41 152//152 156//156
f 152//152 12//12 147//147
f 156//156 147//147 40//40
f 152//152 147//147 156//156
f 19//19 149//149 61//61
f 149//149 40//40 146//146
f 61//61 146//146 5//5
f 149//149 146//146 61//61
f 41//41 156//156 154//154
f 156//156 40//40 149//149
f 154//154 149//149 19//19
f 156//156 149//149 154//154
f 12//12 158//158 143//143
f 158//158 42//42 162//162
f 143//143 162//162 39//39
f 158//158 162//162 143//143
f 42//42 157//157 160//160
f 157//157 11//11 125//125
f 160//160 125//125 35//35
f 157//157 125//125 160//160
f 39//39 145//145 142//142
f 145//145 35//35 124//124
f 142//142 124//124 3//3
f 145//145 124//124 142//142
f 42//42 160//160 162//162
f 160//160 35//35 145//145
f 162//162 145//145 39//39
f 160//160 145//145 162//162
f 11//11 133//133 128//128
f 133//133 37//37 137//137
f 128//128 137//137 36//36
f 133//133 137//137 128//128
f 37//37 132//132 135//135
f 132//132 8//8 78//78
f 135//135 78//78 24//24
f 132//132 78//78 135//135
f 36//36 130//130 127//127
f 130//130 24//24 77//77
f 127//127 77//77 7//7
f 130//130 77//77 127//127
f 37//37 135//135 137//137
f 135//135 24//24 130//130
f 137//137 130//130 36//36
f 135//135 130//130 137//137
f 8//8 74//74 90//90
f 74//74 23//23 92//92
f 90//90 92//92 28//28
f 74//74 92//92 90//90
f 23//23 73//73 81//81
f 73//73 2//2 79//79
f 81//81 79//79 25//25
f 73//73 79//79 81//81
f 28//28 94//94 91//91
f 94//94 25//25 80//80
f 91//91 80//80 9//9
f 94//94 80//80 91//91
f 23//23 81//81 92//92
f 81//81 25//25 94//94
f 92//92 94//94 28//28
f 81//81 94//94 92//92
f 4//4 100//100 50//50
f 100//100 30//30 102//102
f 50//50 102//102 16//16
f 100//100 102//102 50//50
f 30//30 101//101 108//108
f 101//101 10//10 105//105
f 108//108 105//105 31//31
f 101//101 105//105 108//108
f 16//16 106//106 51//51
f 106//106 31//31 104//104
f 51//51 104//104 5//5
f 106//106 104//104 51//51
f 30//30 108//108 102//102
f 108//108 31//31 106//106
f 102//102 106//106 16//16
f 108//108 106//106 102//102
f 4//4 50//50 46//46
f 50//50 16//16 52//52
f 46//46 52//52 14//14
f 50//50 52//52 46//46
f 16//16 51//51 53//53
f 51//51 5//5 48//48
f 53//53 48//48 15//15
f 51//51 48//48 53//53
f 14//14 49//49 45//45
f 49//49 15//15 47//47
f 45//45 47//47 3//3
f 49//49 47//47 45//45
f 16//16 53//53 52//52
f 53//53 15//15 49//49
f 52//52 49//49 14//14
f 53//53 49//49 52//52
f 4//4 46//46 66//66
f 46//46 14//14 68//68
f 66//66 68//68 21//21
f 46//46 68//68 66//66
f 14//14 45//45 65//65
f 45//45 3//3 63//63
f 65//65 63//63 20//20
f 45//45 63//63 65//65
f 21//21 69//69 67//67
f 69//69 20//20 64//64
f 67//67 64//64 7//7
f 69//69 64//64 67//67
f 14//14 65//65 68//68
f 65//65 20//20 69//69
f 68//68 69//69 21//21
f 65//65 69//69 68//68
f 4//4 66//66 82//82
f 66//66 21//21 84//84
f 82//82 84//84 26//26
f 66//66 84//84 82//82
f 21//21 67//67 87//87
f 67//67 7//7 85//85
f 87//87 85//85 27//27
f 67//67 85//85 87//87
f 26//26 89//89 83//83
f 89//89 27//27 86//86
f 83//83 86//86 9//9
f 89//89 86//86 83//83
f 21//21 87//87 84//84
f 87//87 27//27 89//89
f 84//84 89//89 26//26
f 87//87 89//89 84//84
f 4//4 82//82 100//100
f 82//82 26//26 103//103
f 100//100 103//103 30//30
f 82//82 103//103 100//100
f 26//26 83//83 118//118
f 83//83 9//9 115//115
f 118//118 115//115 33//33
f 83//83 115//115 118//118
f 30//30 120//120 101//101
f 120//120 33//33 116//116
f 101//101 116//116 10//10
f 120//120 116//116 101//101
f 26//26 118//118 103//103
f 118//118 33//33 120//120
f 103//103 120//120 30//30
f 118//118 120//120 103//103
f 5//5 104//104 61//61
f 104//104 31//31 107//107
f 61//61 107//107 19//19
f 104//104 107//107 61//61
f 31//31 105//105 114//114
f 105//105 10//10 110//110
f 114//114 110//110 32//32
f 105//105 110//110 114//114
f 19//19 112//112 62//62
f 112//112 32//32 109//109
f 62//62 109//109 6//6
f 112//112 109//109 62//62
f 31//31 114//114 107//107
f 114//114 32//32 112//112
f 107//107 112//112 19//19
f 114//114 112//112 107//107
f 3//3 47//47 142//142
f 47//47 15//15 144//144
f 142//142 144//144 39//39
f 47//47 144//144 142//142
f 15//15 48//48 148//148
f 48//48 5//5 146//146
f 148//148 146//146 40//40
f 48//48 146//146 148//148
f 39//39 150//150 143//143
f 150//150 40//40 147//147
f 143//143 147//147 12//12
f 150//150 147//147 143//143
f 15//15 148//148 144//144
f 148//148 40//40 150//150
f 144//144 150//150 39//39
f 148//148 150//150 144//144
f 7//7 64//64 127//127
f 64//64 20//20 129//129
f 127//127 129//129 36//36
f 64//64 129//129 127//127
f 20//20 63//63 126//126
f 63//63 3//3 124//124
f 126//126 124//124 35//35
f 63//63 124//124 126//126
f 36//36 131//131 128//128
f 131//131 35//35 125//125
f 128//128 125//125 11//11
f 131//131 125//125 128//128
f 20//20 126//126 129//129
f 126//126 35//35 131//131
f 129//129 131//131 36//36
f 126//126 131//131 129//129
f 9//9 86//86 91//91
f 86//86 27//27 95//95
f 91//91 95//95 28//28
f 86//86 95//95 91//91
f 27//27 85//85 88//88
f 85//85 7//7 77//77
f 88//88 77//77 24//24
f 85//85 77//77 88//88
f 28//28 93//93 90//90
f 93//93 24//24 78//78
f 90//90 78//78 8//8
f 93//93 78//78 90//90
f 27//27 88//88 95//95
f 88//88 24//24 93//93
f 95//95 93//93 28//28
f 88//88 93//93 95//95
f 10//10 116//116 97//97
f 116//116 33//33 119//119
f 97//97 119//119 29//29
f 116//116 119//119 97//97
f 33//33 115//115 117//117
f 115//115 9//9 80//80
f 117//117 80//80 25//25
f 115//115 80//80 117//117
f 29//29 99//99 96//96
f 99//99 25//25 79//79
f 96//96 79//79 2//2
f 99//99 79//79 96//96
f 33//33 117//117 119//119
f 117//117 25//25 99//99
f 119//119 99//99 29//29
f 117//117 99//99 119//119

