# https://github.com/mikedh/trimesh
v -0.5790000 -0.1780734 0.0370642
v -0.5769479 -0.1784308 0.0371207
v -0.5751433 -0.1794600 0.0372832
v -0.5738038 -0.1810367 0.0375321
v -0.5730912 -0.1829709 0.0378375
v -0.5730912 -0.2230291 0.0441625
v -0.5738038 -0.2249633 0.0444679
v -0.5751433 -0.2265400 0.0447168
v -0.5769479 -0.2275692 0.0448793
v -0.5790000 -0.2279266 0.0449358
v -0.5773398 -0.1782427 0.0383121
v -0.5758798 -0.1791064 0.0395223
v -0.5747962 -0.1805604 0.0405490
v -0.5742196 -0.1824292 0.0412681
v -0.5742196 -0.2224875 0.0475931
v -0.5747962 -0.2244869 0.0474847
v -0.5758798 -0.2261865 0.0469560
v -0.5773398 -0.2273810 0.0460708
v -0.5783659 -0.1781264 0.0390485
v -0.5778082 -0.1788879 0.0409062
v -0.5773943 -0.1802660 0.0424135
v -0.5771741 -0.1820944 0.0433884
v -0.5771741 -0.2221527 0.0497134
v -0.5773943 -0.2241925 0.0493492
v -0.5778082 -0.2259680 0.0483399
v -0.5783659 -0.2272648 0.0468071
v -0.5796341 -0.1781264 0.0390485
v -0.5801918 -0.1788879 0.0409062
v -0.5806057 -0.1802660 0.0424135
v -0.5808259 -0.1820944 0.0433884
v -0.5808259 -0.2221527 0.0497134
v -0.5806057 -0.2241925 0.0493492
v -0.5801918 -0.2259680 0.0483399
v -0.5796341 -0.2272648 0.0468071
v -0.5806602 -0.1782427 0.0383121
v -0.5821202 -0.1791064 0.0395223
v -0.5832038 -0.1805604 0.0405490
v -0.5837804 -0.1824292 0.0412681
v -0.5837804 -0.2224875 0.0475931
v -0.5832038 -0.2244869 0.0474847
v -0.5821202 -0.2261865 0.0469560
v -0.5806602 -0.2273810 0.0460708
v -0.5810521 -0.1784308 0.0371207
v -0.5828567 -0.1794600 0.0372832
v -0.5841962 -0.1810367 0.0375321
v -0.5849088 -0.1829709 0.0378375
v -0.5849088 -0.2230291 0.0441625
v -0.5841962 -0.2249633 0.0444679
v -0.5828567 -0.2265400 0.0447168
v -0.5810521 -0.2275692 0.0448793
v -0.5806602 -0.1786190 0.0359292
v -0.5821202 -0.1798135 0.0350440
v -0.5832038 -0.1815131 0.0345153
v -0.5837804 -0.1835125 0.0344069
v -0.5837804 -0.2235708 0.0407319
v -0.5832038 -0.2254396 0.0414510
v -0.5821202 -0.2268936 0.0424777
v -0.5806602 -0.2277573 0.0436879
v -0.5796341 -0.1787352 0.0351929
v -0.5801918 -0.1800320 0.0336601
v -0.5806057 -0.1818075 0.0326508
v -0.5808259 -0.1838473 0.0322866
v -0.5808259 -0.2239056 0.0386116
v -0.5806057 -0.2257340 0.0395865
v -0.5801918 -0.2271121 0.0410938
v -0.5796341 -0.2278736 0.0429515
v -0.5783659 -0.1787352 0.0351929
v -0.5778082 -0.1800320 0.0336601
v -0.5773943 -0.1818075 0.0326508
v -0.5771741 -0.1838473 0.0322866
v -0.5771741 -0.2239056 0.0386116
v -0.5773943 -0.2257340 0.0395865
v -0.5778082 -0.2271121 0.0410938
v -0.5783659 -0.2278736 0.0429515
v -0.5773398 -0.1786190 0.0359292
v -0.5758798 -0.1798135 0.0350440
v -0.5747962 -0.1815131 0.0345153
v -0.5742196 -0.1835125 0.0344069
v -0.5742196 -0.2235708 0.0407319
v -0.5747962 -0.2254396 0.0414510
v -0.5758798 -0.2268936 0.0424777
v -0.5773398 -0.2277573 0.0436879
vn -0.0000000 0.9877630 -0.1559626
vn 0.3718902 0.9169174 -0.1447764
vn 0.6621602 0.7401923 -0.1168725
vn 0.8741219 0.4797630 -0.0757520
vn 0.9857741 0.1660189 -0.0262135
vn 0.9857741 -0.1660189 0.0262135
vn 0.8741219 -0.4797630 0.0757520
vn 0.6621602 -0.7401923 0.1168725
vn 0.3718902 -0.9169174 0.1447764
vn -0.0000000 -0.9877630 0.1559626
vn 0.3008655 0.9510095 0.0711402
vn 0.5356989 0.8008942 0.2675728
vn 0.7071795 0.5598959 0.4317566
vn 0.7975080 0.2563872 0.5461196
vn 0.7975080 -0.0756505 0.5985466
vn 0.7071795 -0.3996300 0.5832607
vn 0.5356989 -0.6794904 0.5013177
vn 0.3008655 -0.8828253 0.3606931
vn 0.1149204 0.9720796 0.2045841
vn 0.2046188 0.8384100 0.5051730
vn 0.2701185 0.6094208 0.7454142
vn 0.3046210 0.3122380 0.8998408
vn 0.3046210 -0.0197998 0.9522678
vn 0.2701185 -0.3501052 0.8969183
vn 0.2046188 -0.6419746 0.7389180
vn 0.1149204 -0.8617552 0.4941369
vn -0.1149204 0.9720796 0.2045841
vn -0.2046188 0.8384100 0.5051730
vn -0.2701185 0.6094208 0.7454142
vn -0.3046210 0.3122380 0.8998408
vn -0.3046210 -0.0197998 0.9522678
vn -0.2701185 -0.3501052 0.8969183
vn -0.2046188 -0.6419746 0.7389180
vn -0.1149204 -0.8617552 0.4941369
vn -0.3008655 0.9510095 0.0711402
vn -0.5356989 0.8008942 0.2675728
vn -0.7071795 0.5598959 0.4317566
vn -0.7975080 0.2563872 0.5461196
vn -0.7975080 -0.0756505 0.5985466
vn -0.7071795 -0.3996300 0.5832607
vn -0.5356989 -0.6794904 0.5013177
vn -0.3008655 -0.8828253 0.3606931
vn -0.3718902 0.9169174 -0.1447764
vn -0.6621602 0.7401923 -0.1168725
vn -0.8741219 0.4797630 -0.0757520
vn -0.9857741 0.1660189 -0.0262135
vn -0.9857741 -0.1660189 0.0262135
vn -0.8741219 -0.4797630 0.0757520
vn -0.6621602 -0.7401923 0.1168725
vn -0.3718902 -0.9169174 0.1447764
vn -0.3008655 0.8828253 -0.3606931
vn -0.5356989 0.6794904 -0.5013177
vn -0.7071795 0.3996300 -0.5832607
vn -0.7975080 0.0756505 -0.5985466
vn -0.7975080 -0.2563872 -0.5461196
vn -0.7071795 -0.5598959 -0.4317566
vn -0.5356989 -0.8008942 -0.2675728
vn -0.3008655 -0.9510095 -0.0711402
vn -0.1149204 0.8617552 -0.4941369
vn -0.2046188 0.6419746 -0.7389180
vn -0.2701185 0.3501052 -0.8969183
vn -0.3046210 0.0197998 -0.9522678
vn -0.3046210 -0.3122380 -0.8998408
vn -0.2701185 -0.6094208 -0.7454142
vn -0.2046188 -0.8384100 -0.5051730
vn -0.1149204 -0.9720796 -0.2045841
vn 0.1149204 0.8617552 -0.4941369
vn 0.2046188 0.6419746 -0.7389180
vn 0.2701185 0.3501052 -0.8969183
vn 0.3046210 0.0197998 -0.9522678
vn 0.3046210 -0.3122380 -0.8998408
vn 0.2701185 -0.6094208 -0.7454142
vn 0.2046188 -0.8384100 -0.5051730
vn 0.1149204 -0.9720796 -0.2045841
vn 0.3008655 0.8828253 -0.3606931
vn 0.5356989 0.6794904 -0.5013177
vn 0.7071795 0.3996300 -0.5832607
vn 0.7975080 0.0756505 -0.5985466
vn 0.7975080 -0.2563872 -0.5461196
vn 0.7071795 -0.5598959 -0.4317566
vn 0.5356989 -0.8008942 -0.2675728
vn 0.3008655 -0.9510095 -0.0711402
f 2//2 1//1 11//11
f 2//2 11//11 3//3
f 3//3 11//11 12//12
f 3//3 12//12 4//4
f 4//4 12//12 13//13
f 4//4 13//13 5//5
f 5//5 13//13 14//14
f 5//5 14//14 6//6
f 6//6 14//14 15//15
f 6//6 15//15 7//7
f 7//7 15//15 16//16
f 7//7 16//16 8//8
f 8//8 16//16 17//17
f 8//8 17//17 9//9
f 9//9 17//17 18//18
f 9//9 18//18 10//10
f 11//11 1//1 19//19
f 11//11 19//19 12//12
f 12//12 19//19 20//20
f 12//12 20//20 13//13
f 13//13 20//20 21//21
f 13//13 21//21 14//14
f 14//14 21//21 22//22
f 14//14 22//22 15//15
f 15//15 22//22 23//23
f 15//15 23//23 16//16
f 16//16 23//23 24//24
f 16//16 24//24 17//17
f 17//17 24//24 25//25
f 17//17 25//25 18//18
f 18//18 25//25 26//26
f 18//18 26//26 10//10
f 19//19 1//1 27//27
f 19//19 27//27 20//20
f 20//20 27//27 28//28
f 20//20 28//28 21//21
f 21//21 28//28 29//29
f 21//21 29//29 22//22
f 22//22 29//29 30//30
f 22//22 30//30 23//23
f 23//23 30//30 31//31
f 23//23 31//31 24//24
f 24//24 31//31 32//32
f 24//24 32//32 25//25
f 25//25 32//32 33//33
f 25//25 33//33 26//26
f 26//26 33//33 34//34
f 26//26 34//34 10//10
f 27//27 1//1 35//35
f 27//27 35//35 28//28
f 28//28 35//35 36//36
f 28//28 36//36 29//29
f 29//29 36//36 37//37
f 29//29 37//37 30//30
f 30//30 37//37 38//38
f 30//30 38//38 31//31
f 31//31 38//38 39//39
f 31//31 39//39 32//32
f 32//32 39//39 40//40
f 32//32 40//40 33//33
f 33//33 40//40 41//41
f 33//33 41//41 34//34
f 34//34 41//41 42//42
f 34//34 42//42 10//10
f 35//35 1//1 43//43
f 35//35 43//43 36//36
f 36//36 43//43 44//44
f 36//36 44//44 37//37
f 37//37 44//44 45//45
f 37//37 45//45 38//38
f 38//38 45//45 46//46
f 38//38 46//46 39//39
f 39//39 46//46 47//47
f 39//39 47//47 40//40
f 40//40 47//47 48//48
f 40//40 48//48 41//41
f 41//41 48//48 49//49
f 41//41 49//49 42//42
f 42//42 49//49 50//50
f 42//42 50//50 10//10
f 43//43 1//1 51//51
f 43//43 51//51 44//44
f 44//44 51//51 52//52
f 44//44 52//52 45//45
f 45//45 52//52 53//53
f 45//45 53//53 46//46
f 46//46 53//53 54//54
f 46//46 54//54 47//47
f 47//47 54//54 55//55
f 47//47 55//55 48//48
f 48//48 55//55 56//56
f 48//48 56//56 49//49
f 49//49 56//56 57//57
f 49//49 57//57 50//50
f 50//50 57//57 58//58
f 50//50 58//58 10//10
f 51//51 1//1 59//59
f 51//51 59//59 52//52
f 52//52 59//59 60//60
f 52//52 60//60 53//53
f 53//53 60//60 61//61
f 53//53 61//61 54//54
f 54//54 61//61 62//62
f 54//54 62//62 55//55
f 55//55 62//62 63//63
f 55//55 63//63 56//56
f 56//56 63//63 64//64
f 56//56 64//64 57//57
f 57//57 64//64 65//65
f 57//57 65//65 58//58
f 58//58 65//65 66//66
f 58//58 66//66 10//10
f 59//59 1//1 67//67
f 59//59 67//67 60//60
f 60//60 67//67 68//68
f 60//60 68//68 61//61
f 61//61 68//68 69//69
f 61//61 69//69 62//62
f 62//62 69//69 70//70
f 62//62 70//70 63//63
f 63//63 70//70 71//71
f 63//63 71//71 64//64
f 64//64 71//71 72//72
f 64//64 72//72 65//65
f 65//65 72//72 73//73
f 65//65 73//73 66//66
f 66//66 73//73 74//74
f 66//66 74//74 10//10
f 67//67 1//1 75//75
f 67//67 75//75 68//68
f 68//68 75//75 76//76
f 68//68 76//76 69//69
f 69//69 76//76 77//77
f 69//69 77//77 70//70
f 70//70 77//77 78//78
f 70//70 78//78 71//71
f 71//71 78//78 79//79
f 71//71 79//79 72//72
f 72//72 79//79 80//80
f 72//72 80//80 73//73
f 73//73 80//80 81//81
f 73//73 81//81 74//74
f 74//74 81//81 82//82
f 74//74 82//82 10//10
f 75//75 1//1 2//2
f 75//75 2//2 76//76
f 76//76 2//2 3//3
f 76//76 3//3 77//77
f 77//77 3//3 4//4
f 77//77 4//4 78//78
f 78//78 4//4 5//5
f 78//78 5//5 79//79
f 79//79 5//5 6//6
f 79//79 6//6 80//80
f 80//80 6//6 7//7
f 80//80 7//7 81//81
f 81//81 7//7 8//8
f 81//81 8//8 82//82
f 82//82 8//8 9//9
f 82//82 9//9 10//10

