# https://github.com/mikedh/trimesh
v 0.0464667 1.6400000 0.1118446
v 0.0440373 1.6400000 0.1119335
v 0.0417239 1.6400000 0.1111861
v 0.0398057 1.6400000 0.1096925
v 0.0385141 1.6400000 0.1076330
v 0.0230047 1.6400000 0.0352559
v 0.0233390 1.6400000 0.0328479
v 0.0244768 1.6400000 0.0306995
v 0.0262808 1.6400000 0.0290698
v 0.0285333 1.6400000 0.0281554
v 0.0444843 1.6414072 0.1118377
v 0.0425642 1.6426447 0.1110060
v 0.0409378 1.6435633 0.1094499
v 0.0398014 1.6440520 0.1073571
v 0.0242920 1.6440520 0.0349800
v 0.0244711 1.6435633 0.0326053
v 0.0253171 1.6426447 0.0305194
v 0.0267278 1.6414072 0.0289740
v 0.0456548 1.6422770 0.1115869
v 0.0447640 1.6442793 0.1105346
v 0.0439016 1.6457655 0.1088148
v 0.0431717 1.6465563 0.1066349
v 0.0276623 1.6465563 0.0342578
v 0.0274349 1.6457655 0.0319702
v 0.0275169 1.6442793 0.0300481
v 0.0278983 1.6422770 0.0287232
v 0.0471017 1.6422770 0.1112768
v 0.0474831 1.6442793 0.1099519
v 0.0475651 1.6457655 0.1080298
v 0.0473377 1.6465563 0.1057422
v 0.0318283 1.6465563 0.0333651
v 0.0310984 1.6457655 0.0311852
v 0.0302360 1.6442793 0.0294654
v 0.0293452 1.6422770 0.0284131
v 0.0482722 1.6414072 0.1110260
v 0.0496829 1.6426447 0.1094806
v 0.0505289 1.6435633 0.1073947
v 0.0507080 1.6440520 0.1050200
v 0.0351986 1.6440520 0.0326429
v 0.0340622 1.6435633 0.0305501
v 0.0324358 1.6426447 0.0289940
v 0.0305157 1.6414072 0.0281623
v 0.0487192 1.6400000 0.1109302
v 0.0505232 1.6400000 0.1093005
v 0.0516610 1.6400000 0.1071521
v 0.0519953 1.6400000 0.1047441
v 0.0364859 1.6400000 0.0323670
v 0.0351943 1.6400000 0.0303075
v 0.0332761 1.6400000 0.0288139
v 0.0309627 1.6400000 0.0280665
v 0.0482722 1.6385928 0.1110260
v 0.0496829 1.6373553 0.1094806
v 0.0505289 1.6364367 0.1073947
v 0.0507080 1.6359480 0.1050200
v 0.0351986 1.6359480 0.0326429
v 0.0340622 1.6364367 0.0305501
v 0.0324358 1.6373553 0.0289940
v 0.0305157 1.6385928 0.0281623
v 0.0471017 1.6377230 0.1112768
v 0.0474831 1.6357207 0.1099519
v 0.0475651 1.6342345 0.1080298
v 0.0473377 1.6334437 0.1057422
v 0.0318283 1.6334437 0.0333651
v 0.0310984 1.6342345 0.0311852
v 0.0302360 1.6357207 0.0294654
v 0.0293452 1.6377230 0.0284131
v 0.0456548 1.6377230 0.1115869
v 0.0447640 1.6357207 0.1105346
v 0.0439016 1.6342345 0.1088148
v 0.0431717 1.6334437 0.1066349
v 0.0276623 1.6334437 0.0342578
v 0.0274349 1.6342345 0.0319702
v 0.0275169 1.6357207 0.0300481
v 0.0278983 1.6377230 0.0287232
v 0.0444843 1.6385928 0.1118377
v 0.0425642 1.6373553 0.1110060
v 0.0409378 1.6364367 0.1094499
v 0.0398014 1.6359480 0.1073571
v 0.0242920 1.6359480 0.0349800
v 0.0244711 1.6364367 0.0326053
v 0.0253171 1.6373553 0.0305194
v 0.0267278 1.6385928 0.0289740
vn 0.2095291 0.0000000 0.9778024
vn -0.1691342 0.0000000 0.9855930
vn -0.4904487 0.0000000 0.8714701
vn -0.7529489 -0.0000000 0.6580790
vn -0.9286756 -0.0000000 0.3708931
vn -0.9991090 0.0000000 0.0422036
vn -0.9564882 0.0000000 -0.2917711
vn -0.8044751 -0.0000000 -0.5939864
vn -0.5581361 0.0000000 -0.8297494
vn -0.2095291 0.0000000 -0.9778024
vn -0.0996860 0.2185916 0.9707113
vn -0.3667945 0.3892080 0.8449727
vn -0.5897121 0.5137960 0.6230997
vn -0.7445885 0.5794235 0.3314459
vn -0.8150220 0.5794235 0.0027564
vn -0.7932515 0.5137960 -0.3267504
vn -0.6808209 0.3892080 -0.6204837
vn -0.4886880 0.2185916 -0.8446311
vn 0.0821315 0.3536886 0.9317504
vn -0.0430635 0.6297518 0.7756018
vn -0.1623529 0.8313393 0.5315228
vn -0.2626424 0.9375269 0.2281717
vn -0.3330758 0.9375269 -0.1005178
vn -0.3658922 0.8313393 -0.4183274
vn -0.3570899 0.6297518 -0.6898547
vn -0.3068704 0.3536886 -0.8835921
vn 0.3068704 0.3536886 0.8835921
vn 0.3570899 0.6297518 0.6898547
vn 0.3658922 0.8313393 0.4183274
vn 0.3330758 0.9375269 0.1005178
vn 0.2626424 0.9375269 -0.2281717
vn 0.1623529 0.8313393 -0.5315228
vn 0.0430635 0.6297518 -0.7756018
vn -0.0821315 0.3536886 -0.9317504
vn 0.4886880 0.2185916 0.8446311
vn 0.6808209 0.3892080 0.6204837
vn 0.7932515 0.5137960 0.3267504
vn 0.8150220 0.5794235 -0.0027564
vn 0.7445885 0.5794235 -0.3314459
vn 0.5897121 0.5137960 -0.6230997
vn 0.3667945 0.3892080 -0.8449727
vn 0.0996860 0.2185916 -0.9707113
vn 0.5581361 0.0000000 0.8297494
vn 0.8044751 -0.0000000 0.5939864
vn 0.9564882 0.0000000 0.2917711
vn 0.9991090 0.0000000 -0.0422036
vn 0.9286756 -0.0000000 -0.3708931
vn 0.7529489 -0.0000000 -0.6580790
vn 0.4904487 0.0000000 -0.8714701
vn 0.1691342 -0.0000000 -0.9855930
vn 0.4886880 -0.2185916 0.8446311
vn 0.6808209 -0.3892080 0.6204837
vn 0.7932515 -0.5137960 0.3267504
vn 0.8150220 -0.5794235 -0.0027564
vn 0.7445885 -0.5794235 -0.3314459
vn 0.5897121 -0.5137960 -0.6230997
vn 0.3667945 -0.3892080 -0.8449727
vn 0.0996860 -0.2185916 -0.9707113
vn 0.3068704 -0.3536886 0.8835921
vn 0.3570899 -0.6297518 0.6898547
vn 0.3658922 -0.8313393 0.4183274
vn 0.3330758 -0.9375269 0.1005178
vn 0.2626424 -0.9375269 -0.2281717
vn 0.1623529 -0.8313393 -0.5315228
vn 0.0430635 -0.6297518 -0.7756018
vn -0.0821315 -0.3536886 -0.9317504
vn 0.0821315 -0.3536886 0.9317504
vn -0.0430635 -0.6297518 0.7756018
vn -0.1623529 -0.8313393 0.5315228
vn -0.2626424 -0.9375269 0.2281717
vn -0.3330758 -0.9375269 -0.1005178
vn -0.3658922 -0.8313393 -0.4183274
vn -0.3570899 -0.6297518 -0.6898547
vn -0.3068704 -0.3536886 -0.8835921
vn -0.0996860 -0.2185916 0.9707113
vn -0.3667945 -0.3892080 0.8449727
vn -0.5897121 -0.5137960 0.6230997
vn -0.7445885 -0.5794235 0.3314459
vn -0.8150220 -0.5794235 0.0027564
vn -0.7932515 -0.5137960 -0.3267504
vn -0.6808209 -0.3892080 -0.6204837
vn -0.4886880 -0.2185916 -0.8446311
f 2//2 1//1 11//11
f 2//2 11//11 3//3
f 3//3 11//11 12//12
f 3//3 12//12 4//4
f 4//4 12//12 13//13
f 4//4 13//13 5//5
f 5//5 13//13 14//14
f 5//5 14//14 6//6
f 6//6 14//14 15//15
f 6//6 15//15 7//7
f 7//7 15//15 16//16
f 7//7 16//16 8//8
f 8//8 16//16 17//17
f 8//8 17//17 9//9
f 9//9 17//17 18//18
f 9//9 18//18 10//10
f 11//11 1//1 19//19
f 11//11 19//19 12//12
f 12//12 19//19 20//20
f 12//12 20//20 13//13
f 13//13 20//20 21//21
f 13//13 21//21 14//14
f 14//14 21//21 22//22
f 14//14 22//22 15//15
f 15//15 22//22 23//23
f 15//15 23//23 16//16
f 16//16 23//23 24//24
f 16//16 24//24 17//17
f 17//17 24//24 25//25
f 17//17 25//25 18//18
f 18//18 25//25 26//26
f 18//18 26//26 10//10
f 19//19 1//1 27//27
f 19//19 27//27 20//20
f 20//20 27//27 28//28
f 20//20 28//28 21//21
f 21//21 28//28 29//29
f 21//21 29//29 22//22
f 22//22 29//29 30//30
f 22//22 30//30 23//23
f 23//23 30//30 31//31
f 23//23 31//31 24//24
f 24//24 31//31 32//32
f 24//24 32//32 25//25
f 25//25 32//32 33//33
f 25//25 33//33 26//26
f 26//26 33//33 34//34
f 26//26 34//34 10//10
f 27//27 1//1 35//35
f 27//27 35//35 28//28
f 28//28 35//35 36//36
f 28//28 36//36 29//29
f 29//29 36//36 37//37
f 29//29 37//37 30//30
f 30//30 37//37 38//38
f 30//30 38//38 31//31
f 31//31 38//38 39//39
f 31//31 39//39 32//32
f 32//32 39//39 40//40
f 32//32 40//40 33//33
f 33//33 40//40 41//41
f 33//33 41//41 34//34
f 34//34 41//41 42//42
f 34//34 42//42 10//10
f 35//35 1//1 43//43
f 35//35 43//43 36//36
f 36//36 43//43 44//44
f 36//36 44//44 37//37
f 37//37 44//44 45//45
f 37//37 45//45 38//38
f 38//38 45//45 46//46
f 38//38 46//46 39//39
f 39//39 46//46 47//47
f 39//39 47//47 40//40
f 40//40 47//47 48//48
f 40//40 48//48 41//41
f 41//41 48//48 49//49
f 41//41 49//49 42//42
f 42//42 49//49 50//50
f 42//42 50//50 10//10
f 43//43 1//1 51//51
f 43//43 51//51 44//44
f 44//44 51//51 52//52
f 44//44 52//52 45//45
f 45//45 52//52 53//53
f 45//45 53//53 46//46
f 46//46 53//53 54//54
f 46//46 54//54 47//47
f 47//47 54//54 55//55
f 47//47 55//55 48//48
f 48//48 55//55 56//56
f 48//48 56//56 49//49
f 49//49 56//56 57//57
f 49//49 57//57 50//50
f 50//50 57//57 58//58
f 50//50 58//58 10//10
f 51//51 1//1 59//59
f 51//51 59//59 52//52
f 52//52 59//59 60//60
f 52//52 60//60 53//53
f 53//53 60//60 61//61
f 53//53 61//61 54//54
f 54//54 61//61 62//62
f 54//54 62//62 55//55
f 55//55 62//62 63//63
f 55//55 63//63 56//56
f 56//56 63//63 64//64
f 56//56 64//64 57//57
f 57//57 64//64 65//65
f 57//57 65//65 58//58
f 58//58 65//65 66//66
f 58//58 66//66 10//10
f 59//59 1//1 67//67
f 59//59 67//67 60//60
f 60//60 67//67 68//68
f 60//60 68//68 61//61
f 61//61 68//68 69//69
f 61//61 69//69 62//62
f 62//62 69//69 70//70
f 62//62 70//70 63//63
f 63//63 70//70 71//71
f 63//63 71//71 64//64
f 64//64 71//71 72//72
f 64//64 72//72 65//65
f 65//65 72//72 73//73
f 65//65 73//73 66//66
f 66//66 73//73 74//74
f 66//66 74//74 10//10
f 67//67 1//1 75//75
f 67//67 75//75 68//68
f 68//68 75//75 76//76
f 68//68 76//76 69//69
f 69//69 76//76 77//77
f 69//69 77//77 70//70
f 70//70 77//77 78//78
f 70//70 78//78 71//71
f 71//71 78//78 79//79
f 71//71 79//79 72//72
f 72//72 79//79 80//80
f 72//72 80//80 73//73
f 73//73 80//80 81//81
f 73//73 81//81 74//74
f 74//74 81//81 82//82
f 74//74 82//82 10//10
f 75//75 1//1 2//2
f 75//75 2//2 76//76
f 76//76 2//2 3//3
f 76//76 3//3 77//77
f 77//77 3//3 4//4
f 77//77 4//4 78//78
f 78//78 4//4 5//5
f 78//78 5//5 79//79
f 79//79 5//5 6//6
f 79//79 6//6 80//80
f 80//80 6//6 7//7
f 80//80 7//7 81//81
f 81//81 7//7 8//8
f 81//81 8//8 82//82
f 82//82 8//8 9//9
f 82//82 9//9 10//10

