# https://github.com/mikedh/trimesh
v -0.2060000 -2.3345702 0.1191242
v -0.2041189 -2.3348976 0.1191770
v -0.2024647 -2.3358405 0.1193291
v -0.2012369 -2.3372851 0.1195621
v -0.2005836 -2.3390571 0.1198479
v -0.2005836 -2.3719429 0.1251521
v -0.2012369 -2.3737149 0.1254379
v -0.2024647 -2.3751595 0.1256709
v -0.2041189 -2.3761024 0.1258230
v -0.2060000 -2.3764298 0.1258758
v -0.2044781 -2.3347216 0.1202686
v -0.2031399 -2.3355096 0.1213806
v -0.2021465 -2.3368393 0.1223261
v -0.2016180 -2.3385502 0.1229910
v -0.2016180 -2.3714359 0.1282952
v -0.2021465 -2.3732691 0.1282019
v -0.2031399 -2.3748286 0.1277224
v -0.2044781 -2.3759263 0.1269145
v -0.2054187 -2.3346128 0.1209433
v -0.2049075 -2.3353051 0.1226485
v -0.2045281 -2.3365638 0.1240343
v -0.2043262 -2.3382369 0.1249335
v -0.2043262 -2.3711226 0.1302377
v -0.2045281 -2.3729936 0.1299101
v -0.2049075 -2.3746241 0.1289903
v -0.2054187 -2.3758175 0.1275892
v -0.2065813 -2.3346128 0.1209433
v -0.2070925 -2.3353051 0.1226485
v -0.2074719 -2.3365638 0.1240343
v -0.2076738 -2.3382369 0.1249335
v -0.2076738 -2.3711226 0.1302377
v -0.2074719 -2.3729936 0.1299101
v -0.2070925 -2.3746241 0.1289903
v -0.2065813 -2.3758175 0.1275892
v -0.2075219 -2.3347216 0.1202686
v -0.2088601 -2.3355096 0.1213806
v -0.2098535 -2.3368393 0.1223261
v -0.2103820 -2.3385502 0.1229910
v -0.2103820 -2.3714359 0.1282952
v -0.2098535 -2.3732691 0.1282019
v -0.2088601 -2.3748286 0.1277224
v -0.2075219 -2.3759263 0.1269145
v -0.2078811 -2.3348976 0.1191770
v -0.2095353 -2.3358405 0.1193291
v -0.2107631 -2.3372851 0.1195621
v -0.2114164 -2.3390571 0.1198479
v -0.2114164 -2.3719429 0.1251521
v -0.2107631 -2.3737149 0.1254379
v -0.2095353 -2.3751595 0.1256709
v -0.2078811 -2.3761024 0.1258230
v -0.2075219 -2.3350737 0.1180855
v -0.2088601 -2.3361714 0.1172776
v -0.2098535 -2.3377309 0.1167981
v -0.2103820 -2.3395641 0.1167048
v -0.2103820 -2.3724498 0.1220090
v -0.2098535 -2.3741607 0.1226739
v -0.2088601 -2.3754904 0.1236194
v -0.2075219 -2.3762784 0.1247314
v -0.2065813 -2.3351825 0.1174108
v -0.2070925 -2.3363759 0.1160097
v -0.2074719 -2.3380064 0.1150899
v -0.2076738 -2.3398774 0.1147623
v -0.2076738 -2.3727631 0.1200665
v -0.2074719 -2.3744362 0.1209657
v -0.2070925 -2.3756949 0.1223515
v -0.2065813 -2.3763872 0.1240567
v -0.2054187 -2.3351825 0.1174108
v -0.2049075 -2.3363759 0.1160097
v -0.2045281 -2.3380064 0.1150899
v -0.2043262 -2.3398774 0.1147623
v -0.2043262 -2.3727631 0.1200665
v -0.2045281 -2.3744362 0.1209657
v -0.2049075 -2.3756949 0.1223515
v -0.2054187 -2.3763872 0.1240567
v -0.2044781 -2.3350737 0.1180855
v -0.2031399 -2.3361714 0.1172776
v -0.2021465 -2.3377309 0.1167981
v -0.2016180 -2.3395641 0.1167048
v -0.2016180 -2.3724498 0.1220090
v -0.2021465 -2.3741607 0.1226739
v -0.2031399 -2.3754904 0.1236194
v -0.2044781 -2.3762784 0.1247314
vn 0.0000000 0.9872411 -0.1592324
vn 0.3718902 0.9164330 -0.1478118
vn 0.6621602 0.7398013 -0.1193228
vn 0.8741219 0.4795095 -0.0773402
vn 0.9857741 0.1659312 -0.0267631
vn 0.9857741 -0.1659312 0.0267631
vn 0.8741219 -0.4795095 0.0773402
vn 0.6621602 -0.7398013 0.1193228
vn 0.3718902 -0.9164330 0.1478118
vn 0.0000000 -0.9872411 0.1592324
vn 0.3008655 0.9512398 0.0679908
vn 0.5356989 0.8017758 0.2649194
vn 0.7071795 0.5613225 0.4299003
vn 0.7975080 0.2581942 0.5452676
vn 0.7975080 -0.0736681 0.5987938
vn 0.7071795 -0.3976965 0.5845808
vn 0.5356989 -0.6778267 0.5035649
vn 0.3008655 -0.8816261 0.3636144
vn 0.1149204 0.9727517 0.2013642
vn 0.2046188 0.8400782 0.5023941
vn 0.2701185 0.6118857 0.7433921
vn 0.3046210 0.3152159 0.8988020
vn 0.3046210 -0.0166465 0.9523282
vn 0.2701185 -0.3471333 0.8980726
vn 0.2046188 -0.6395243 0.7410397
vn 0.1149204 -0.8601143 0.4969877
vn -0.1149204 0.9727517 0.2013642
vn -0.2046188 0.8400782 0.5023941
vn -0.2701185 0.6118857 0.7433921
vn -0.3046210 0.3152159 0.8988020
vn -0.3046210 -0.0166465 0.9523282
vn -0.2701185 -0.3471333 0.8980726
vn -0.2046188 -0.6395243 0.7410397
vn -0.1149204 -0.8601143 0.4969877
vn -0.3008655 0.9512398 0.0679908
vn -0.5356989 0.8017758 0.2649194
vn -0.7071795 0.5613225 0.4299003
vn -0.7975080 0.2581942 0.5452676
vn -0.7975080 -0.0736681 0.5987938
vn -0.7071795 -0.3976965 0.5845808
vn -0.5356989 -0.6778267 0.5035649
vn -0.3008655 -0.8816261 0.3636144
vn -0.3718902 0.9164330 -0.1478118
vn -0.6621602 0.7398013 -0.1193228
vn -0.8741219 0.4795095 -0.0773402
vn -0.9857741 0.1659312 -0.0267631
vn -0.9857741 -0.1659312 0.0267631
vn -0.8741219 -0.4795095 0.0773402
vn -0.6621602 -0.7398013 0.1193228
vn -0.3718902 -0.9164330 0.1478118
vn -0.3008655 0.8816261 -0.3636144
vn -0.5356989 0.6778267 -0.5035649
vn -0.7071795 0.3976965 -0.5845808
vn -0.7975080 0.0736681 -0.5987938
vn -0.7975080 -0.2581942 -0.5452676
vn -0.7071795 -0.5613225 -0.4299003
vn -0.5356989 -0.8017758 -0.2649194
vn -0.3008655 -0.9512398 -0.0679908
vn -0.1149204 0.8601143 -0.4969877
vn -0.2046188 0.6395243 -0.7410397
vn -0.2701185 0.3471333 -0.8980726
vn -0.3046210 0.0166465 -0.9523282
vn -0.3046210 -0.3152159 -0.8988020
vn -0.2701185 -0.6118857 -0.7433921
vn -0.2046188 -0.8400782 -0.5023941
vn -0.1149204 -0.9727517 -0.2013642
vn 0.1149204 0.8601143 -0.4969877
vn 0.2046188 0.6395243 -0.7410397
vn 0.2701185 0.3471333 -0.8980726
vn 0.3046210 0.0166465 -0.9523282
vn 0.3046210 -0.3152159 -0.8988020
vn 0.2701185 -0.6118857 -0.7433921
vn 0.2046188 -0.8400782 -0.5023941
vn 0.1149204 -0.9727517 -0.2013642
vn 0.3008655 0.8816261 -0.3636144
vn 0.5356989 0.6778267 -0.5035649
vn 0.7071795 0.3976965 -0.5845808
vn 0.7975080 0.0736681 -0.5987938
vn 0.7975080 -0.2581942 -0.5452676
vn 0.7071795 -0.5613225 -0.4299003
vn 0.5356989 -0.8017758 -0.2649194
vn 0.3008655 -0.9512398 -0.0679908
f 2//2 1//1 11//11
f 2//2 11//11 3//3
f 3//3 11//11 12//12
f 3//3 12//12 4//4
f 4//4 12//12 13//13
f 4//4 13//13 5//5
f 5//5 13//13 14//14
f 5//5 14//14 6//6
f 6//6 14//14 15//15
f 6//6 15//15 7//7
f 7//7 15//15 16//16
f 7//7 16//16 8//8
f 8//8 16//16 17//17
f 8//8 17//17 9//9
f 9//9 17//17 18//18
f 9//9 18//18 10//10
f 11//11 1//1 19//19
f 11//11 19//19 12//12
f 12//12 19//19 20//20
f 12//12 20//20 13//13
f 13//13 20//20 21//21
f 13//13 21//21 14//14
f 14//14 21//21 22//22
f 14//14 22//22 15//15
f 15//15 22//22 23//23
f 15//15 23//23 16//16
f 16//16 23//23 24//24
f 16//16 24//24 17//17
f 17//17 24//24 25//25
f 17//17 25//25 18//18
f 18//18 25//25 26//26
f 18//18 26//26 10//10
f 19//19 1//1 27//27
f 19//19 27//27 20//20
f 20//20 27//27 28//28
f 20//20 28//28 21//21
f 21//21 28//28 29//29
f 21//21 29//29 22//22
f 22//22 29//29 30//30
f 22//22 30//30 23//23
f 23//23 30//30 31//31
f 23//23 31//31 24//24
f 24//24 31//31 32//32
f 24//24 32//32 25//25
f 25//25 32//32 33//33
f 25//25 33//33 26//26
f 26//26 33//33 34//34
f 26//26 34//34 10//10
f 27//27 1//1 35//35
f 27//27 35//35 28//28
f 28//28 35//35 36//36
f 28//28 36//36 29//29
f 29//29 36//36 37//37
f 29//29 37//37 30//30
f 30//30 37//37 38//38
f 30//30 38//38 31//31
f 31//31 38//38 39//39
f 31//31 39//39 32//32
f 32//32 39//39 40//40
f 32//32 40//40 33//33
f 33//33 40//40 41//41
f 33//33 41//41 34//34
f 34//34 41//41 42//42
f 34//34 42//42 10//10
f 35//35 1//1 43//43
f 35//35 43//43 36//36
f 36//36 43//43 44//44
f 36//36 44//44 37//37
f 37//37 44//44 45//45
f 37//37 45//45 38//38
f 38//38 45//45 46//46
f 38//38 46//46 39//39
f 39//39 46//46 47//47
f 39//39 47//47 40//40
f 40//40 47//47 48//48
f 40//40 48//48 41//41
f 41//41 48//48 49//49
f 41//41 49//49 42//42
f 42//42 49//49 50//50
f 42//42 50//50 10//10
f 43//43 1//1 51//51
f 43//43 51//51 44//44
f 44//44 51//51 52//52
f 44//44 52//52 45//45
f 45//45 52//52 53//53
f 45//45 53//53 46//46
f 46//46 53//53 54//54
f 46//46 54//54 47//47
f 47//47 54//54 55//55
f 47//47 55//55 48//48
f 48//48 55//55 56//56
f 48//48 56//56 49//49
f 49//49 56//56 57//57
f 49//49 57//57 50//50
f 50//50 57//57 58//58
f 50//50 58//58 10//10
f 51//51 1//1 59//59
f 51//51 59//59 52//52
f 52//52 59//59 60//60
f 52//52 60//60 53//53
f 53//53 60//60 61//61
f 53//53 61//61 54//54
f 54//54 61//61 62//62
f 54//54 62//62 55//55
f 55//55 62//62 63//63
f 55//55 63//63 56//56
f 56//56 63//63 64//64
f 56//56 64//64 57//57
f 57//57 64//64 65//65
f 57//57 65//65 58//58
f 58//58 65//65 66//66
f 58//58 66//66 10//10
f 59//59 1//1 67//67
f 59//59 67//67 60//60
f 60//60 67//67 68//68
f 60//60 68//68 61//61
f 61//61 68//68 69//69
f 61//61 69//69 62//62
f 62//62 69//69 70//70
f 62//62 70//70 63//63
f 63//63 70//70 71//71
f 63//63 71//71 64//64
f 64//64 71//71 72//72
f 64//64 72//72 65//65
f 65//65 72//72 73//73
f 65//65 73//73 66//66
f 66//66 73//73 74//74
f 66//66 74//74 10//10
f 67//67 1//1 75//75
f 67//67 75//75 68//68
f 68//68 75//75 76//76
f 68//68 76//76 69//69
f 69//69 76//76 77//77
f 69//69 77//77 70//70
f 70//70 77//77 78//78
f 70//70 78//78 71//71
f 71//71 78//78 79//79
f 71//71 79//79 72//72
f 72//72 79//79 80//80
f 72//72 80//80 73//73
f 73//73 80//80 81//81
f 73//73 81//81 74//74
f 74//74 81//81 82//82
f 74//74 82//82 10//10
f 75//75 1//1 2//2
f 75//75 2//2 76//76
f 76//76 2//2 3//3
f 76//76 3//3 77//77
f 77//77 3//3 4//4
f 77//77 4//4 78//78
f 78//78 4//4 5//5
f 78//78 5//5 79//79
f 79//79 5//5 6//6
f 79//79 6//6 80//80
f 80//80 6//6 7//7
f 80//80 7//7 81//81
f 81//81 7//7 8//8
f 81//81 8//8 82//82
f 82//82 8//8 9//9
f 82//82 9//9 10//10

