# https://github.com/mikedh/trimesh
v 0.0350000 1.5515730 0.1268399
v 0.0380782 1.5520812 0.1270305
v 0.0407851 1.5535446 0.1275792
v 0.0427942 1.5557865 0.1284199
v 0.0438633 1.5585367 0.1294513
v 0.0438633 1.6014633 0.1455487
v 0.0427942 1.6042135 0.1465801
v 0.0407851 1.6064554 0.1474208
v 0.0380782 1.6079188 0.1479695
v 0.0350000 1.6084270 0.1481601
v 0.0374903 1.5527165 0.1253364
v 0.0396802 1.5547385 0.1243953
v 0.0413057 1.5573951 0.1241303
v 0.0421705 1.5603659 0.1245733
v 0.0421705 1.6032926 0.1406708
v 0.0413057 1.6058221 0.1422904
v 0.0396802 1.6076494 0.1442369
v 0.0374903 1.6085540 0.1462754
v 0.0359512 1.5531092 0.1242893
v 0.0367877 1.5554764 0.1224276
v 0.0374085 1.5583893 0.1214792
v 0.0377389 1.5614965 0.1215585
v 0.0377389 1.6044231 0.1376560
v 0.0374085 1.6068163 0.1396393
v 0.0367877 1.6083873 0.1422692
v 0.0359512 1.6089467 0.1452284
v 0.0340488 1.5531092 0.1242893
v 0.0332123 1.5554764 0.1224276
v 0.0325915 1.5583893 0.1214792
v 0.0322611 1.5614965 0.1215585
v 0.0322611 1.6044231 0.1376560
v 0.0325915 1.6068163 0.1396393
v 0.0332123 1.6083873 0.1422692
v 0.0340488 1.6089467 0.1452284
v 0.0325097 1.5527165 0.1253364
v 0.0303198 1.5547385 0.1243953
v 0.0286943 1.5573951 0.1241303
v 0.0278295 1.5603659 0.1245733
v 0.0278295 1.6032926 0.1406708
v 0.0286943 1.6058221 0.1422904
v 0.0303198 1.6076494 0.1442369
v 0.0325097 1.6085540 0.1462754
v 0.0319218 1.5520812 0.1270305
v 0.0292149 1.5535446 0.1275792
v 0.0272058 1.5557865 0.1284199
v 0.0261367 1.5585367 0.1294513
v 0.0261367 1.6014633 0.1455487
v 0.0272058 1.6042135 0.1465801
v 0.0292149 1.6064554 0.1474208
v 0.0319218 1.6079188 0.1479695
v 0.0325097 1.5514460 0.1287246
v 0.0303198 1.5523506 0.1307631
v 0.0286943 1.5541779 0.1327096
v 0.0278295 1.5567074 0.1343292
v 0.0278295 1.5996341 0.1504267
v 0.0286943 1.6026049 0.1508697
v 0.0303198 1.6052615 0.1506047
v 0.0325097 1.6072835 0.1496636
v 0.0340488 1.5510533 0.1297716
v 0.0332123 1.5516127 0.1327308
v 0.0325915 1.5531837 0.1353607
v 0.0322611 1.5555769 0.1373440
v 0.0322611 1.5985035 0.1534415
v 0.0325915 1.6016107 0.1535208
v 0.0332123 1.6045236 0.1525724
v 0.0340488 1.6068908 0.1507107
v 0.0359512 1.5510533 0.1297716
v 0.0367877 1.5516127 0.1327308
v 0.0374085 1.5531837 0.1353607
v 0.0377389 1.5555769 0.1373440
v 0.0377389 1.5985035 0.1534415
v 0.0374085 1.6016107 0.1535208
v 0.0367877 1.6045236 0.1525724
v 0.0359512 1.6068908 0.1507107
v 0.0374903 1.5514460 0.1287246
v 0.0396802 1.5523506 0.1307631
v 0.0413057 1.5541779 0.1327096
v 0.0421705 1.5567074 0.1343292
v 0.0421705 1.5996341 0.1504267
v 0.0413057 1.6026049 0.1508697
v 0.0396802 1.6052615 0.1506047
v 0.0374903 1.6072835 0.1496636
vn 0.0000000 -0.9363292 -0.3511234
vn 0.3718902 -0.8691726 -0.3259397
vn 0.6621602 -0.7016498 -0.2631187
vn 0.8741219 -0.4547812 -0.1705430
vn 0.9857741 -0.1573741 -0.0590153
vn 0.9857741 0.1573741 0.0590153
vn 0.8741219 0.4547812 0.1705430
vn 0.6621602 0.7016498 0.2631187
vn 0.3718902 0.8691726 0.3259397
vn 0.0000000 0.9363292 0.3511234
vn 0.3008655 -0.7924200 -0.5306134
vn 0.5356989 -0.5649897 -0.6275455
vn 0.7071795 -0.2743754 -0.6516251
vn 0.7975080 0.0460751 -0.6015464
vn 0.7975080 0.3608233 -0.4835158
vn 0.7071795 0.6351871 -0.3105392
vn 0.5356989 0.8383098 -0.1013082
vn 0.3008655 0.9459252 0.1212660
vn 0.1149204 -0.7449842 -0.6571087
vn 0.2046188 -0.4805291 -0.8527737
vn 0.2701185 -0.1628785 -0.9489502
vn 0.3046210 0.1718136 -0.9368491
vn 0.3046210 0.4865618 -0.8188185
vn 0.2701185 0.7466840 -0.6078643
vn 0.2046188 0.9227704 -0.3265363
vn 0.1149204 0.9933609 -0.0052292
vn -0.1149204 -0.7449842 -0.6571087
vn -0.2046188 -0.4805291 -0.8527737
vn -0.2701185 -0.1628785 -0.9489502
vn -0.3046210 0.1718136 -0.9368491
vn -0.3046210 0.4865618 -0.8188185
vn -0.2701185 0.7466840 -0.6078643
vn -0.2046188 0.9227704 -0.3265363
vn -0.1149204 0.9933609 -0.0052292
vn -0.3008655 -0.7924200 -0.5306134
vn -0.5356989 -0.5649897 -0.6275455
vn -0.7071795 -0.2743754 -0.6516251
vn -0.7975080 0.0460751 -0.6015464
vn -0.7975080 0.3608233 -0.4835158
vn -0.7071795 0.6351871 -0.3105392
vn -0.5356989 0.8383098 -0.1013082
vn -0.3008655 0.9459252 0.1212660
vn -0.3718902 -0.8691726 -0.3259397
vn -0.6621602 -0.7016498 -0.2631187
vn -0.8741219 -0.4547812 -0.1705430
vn -0.9857741 -0.1573741 -0.0590153
vn -0.9857741 0.1573741 0.0590153
vn -0.8741219 0.4547812 0.1705430
vn -0.6621602 0.7016498 0.2631187
vn -0.3718902 0.8691726 0.3259397
vn -0.3008655 -0.9459252 -0.1212660
vn -0.5356989 -0.8383098 0.1013082
vn -0.7071795 -0.6351871 0.3105392
vn -0.7975080 -0.3608233 0.4835158
vn -0.7975080 -0.0460751 0.6015464
vn -0.7071795 0.2743754 0.6516251
vn -0.5356989 0.5649897 0.6275455
vn -0.3008655 0.7924200 0.5306134
vn -0.1149204 -0.9933609 0.0052292
vn -0.2046188 -0.9227704 0.3265363
vn -0.2701185 -0.7466840 0.6078643
vn -0.3046210 -0.4865618 0.8188185
vn -0.3046210 -0.1718136 0.9368491
vn -0.2701185 0.1628785 0.9489502
vn -0.2046188 0.4805291 0.8527737
vn -0.1149204 0.7449842 0.6571087
vn 0.1149204 -0.9933609 0.0052292
vn 0.2046188 -0.9227704 0.3265363
vn 0.2701185 -0.7466840 0.6078643
vn 0.3046210 -0.4865618 0.8188185
vn 0.3046210 -0.1718136 0.9368491
vn 0.2701185 0.1628785 0.9489502
vn 0.2046188 0.4805291 0.8527737
vn 0.1149204 0.7449842 0.6571087
vn 0.3008655 -0.9459252 -0.1212660
vn 0.5356989 -0.8383098 0.1013082
vn 0.7071795 -0.6351871 0.3105392
vn 0.7975080 -0.3608233 0.4835158
vn 0.7975080 -0.0460751 0.6015464
vn 0.7071795 0.2743754 0.6516251
vn 0.5356989 0.5649897 0.6275455
vn 0.3008655 0.7924200 0.5306134
f 2//2 1//1 11//11
f 2//2 11//11 3//3
f 3//3 11//11 12//12
f 3//3 12//12 4//4
f 4//4 12//12 13//13
f 4//4 13//13 5//5
f 5//5 13//13 14//14
f 5//5 14//14 6//6
f 6//6 14//14 15//15
f 6//6 15//15 7//7
f 7//7 15//15 16//16
f 7//7 16//16 8//8
f 8//8 16//16 17//17
f 8//8 17//17 9//9
f 9//9 17//17 18//18
f 9//9 18//18 10//10
f 11//11 1//1 19//19
f 11//11 19//19 12//12
f 12//12 19//19 20//20
f 12//12 20//20 13//13
f 13//13 20//20 21//21
f 13//13 21//21 14//14
f 14//14 21//21 22//22
f 14//14 22//22 15//15
f 15//15 22//22 23//23
f 15//15 23//23 16//16
f 16//16 23//23 24//24
f 16//16 24//24 17//17
f 17//17 24//24 25//25
f 17//17 25//25 18//18
f 18//18 25//25 26//26
f 18//18 26//26 10//10
f 19//19 1//1 27//27
f 19//19 27//27 20//20
f 20//20 27//27 28//28
f 20//20 28//28 21//21
f 21//21 28//28 29//29
f 21//21 29//29 22//22
f 22//22 29//29 30//30
f 22//22 30//30 23//23
f 23//23 30//30 31//31
f 23//23 31//31 24//24
f 24//24 31//31 32//32
f 24//24 32//32 25//25
f 25//25 32//32 33//33
f 25//25 33//33 26//26
f 26//26 33//33 34//34
f 26//26 34//34 10//10
f 27//27 1//1 35//35
f 27//27 35//35 28//28
f 28//28 35//35 36//36
f 28//28 36//36 29//29
f 29//29 36//36 37//37
f 29//29 37//37 30//30
f 30//30 37//37 38//38
f 30//30 38//38 31//31
f 31//31 38//38 39//39
f 31//31 39//39 32//32
f 32//32 39//39 40//40
f 32//32 40//40 33//33
f 33//33 40//40 41//41
f 33//33 41//41 34//34
f 34//34 41//41 42//42
f 34//34 42//42 10//10
f 35//35 1//1 43//43
f 35//35 43//43 36//36
f 36//36 43//43 44//44
f 36//36 44//44 37//37
f 37//37 44//44 45//45
f 37//37 45//45 38//38
f 38//38 45//45 46//46
f 38//38 46//46 39//39
f 39//39 46//46 47//47
f 39//39 47//47 40//40
f 40//40 47//47 48//48
f 40//40 48//48 41//41
f 41//41 48//48 49//49
f 41//41 49//49 42//42
f 42//42 49//49 50//50
f 42//42 50//50 10//10
f 43//43 1//1 51//51
f 43//43 51//51 44//44
f 44//44 51//51 52//52
f 44//44 52//52 45//45
f 45//45 52//52 53//53
f 45//45 53//53 46//46
f 46//46 53//53 54//54
f 46//46 54//54 47//47
f 47//47 54//54 55//55
f 47//47 55//55 48//48
f 48//48 55//55 56//56
f 48//48 56//56 49//49
f 49//49 56//56 57//57
f 49//49 57//57 50//50
f 50//50 57//57 58//58
f 50//50 58//58 10//10
f 51//51 1//1 59//59
f 51//51 59//59 52//52
f 52//52 59//59 60//60
f 52//52 60//60 53//53
f 53//53 60//60 61//61
f 53//53 61//61 54//54
f 54//54 61//61 62//62
f 54//54 62//62 55//55
f 55//55 62//62 63//63
f 55//55 63//63 56//56
f 56//56 63//63 64//64
f 56//56 64//64 57//57
f 57//57 64//64 65//65
f 57//57 65//65 58//58
f 58//58 65//65 66//66
f 58//58 66//66 10//10
f 59//59 1//1 67//67
f 59//59 67//67 60//60
f 60//60 67//67 68//68
f 60//60 68//68 61//61
f 61//61 68//68 69//69
f 61//61 69//69 62//62
f 62//62 69//69 70//70
f 62//62 70//70 63//63
f 63//63 70//70 71//71
f 63//63 71//71 64//64
f 64//64 71//71 72//72
f 64//64 72//72 65//65
f 65//65 72//72 73//73
f 65//65 73//73 66//66
f 66//66 73//73 74//74
f 66//66 74//74 10//10
f 67//67 1//1 75//75
f 67//67 75//75 68//68
f 68//68 75//75 76//76
f 68//68 76//76 69//69
f 69//69 76//76 77//77
f 69//69 77//77 70//70
f 70//70 77//77 78//78
f 70//70 78//78 71//71
f 71//71 78//78 79//79
f 71//71 79//79 72//72
f 72//72 79//79 80//80
f 72//72 80//80 73//73
f 73//73 80//80 81//81
f 73//73 81//81 74//74
f 74//74 81//81 82//82
f 74//74 82//82 10//10
f 75//75 1//1 2//2
f 75//75 2//2 76//76
f 76//76 2//2 3//3
f 76//76 3//3 77//77
f 77//77 3//3 4//4
f 77//77 4//4 78//78
f 78//78 4//4 5//5
f 78//78 5//5 79//79
f 79//79 5//5 6//6
f 79//79 6//6 80//80
f 80//80 6//6 7//7
f 80//80 7//7 81//81
f 81//81 7//7 8//8
f 81//81 8//8 82//82
f 82//82 8//8 9//9
f 82//82 9//9 10//10

