# https://github.com/mikedh/trimesh
v 0.1153582 -0.5107164 -0.0293302
v 0.1178080 -0.5088545 -0.0278478
v 0.1196253 -0.5062753 -0.0265397
v 0.1206628 -0.5031877 -0.0255119
v 0.1208365 -0.4998418 -0.0248478
v 0.1201322 -0.4965088 -0.0246010
v 0.0386071 -0.3334586 -0.0347917
v 0.0363847 -0.3309383 -0.0354042
v 0.0336451 -0.3291522 -0.0363892
v 0.0306101 -0.3282449 -0.0376666
v 0.0275257 -0.3282899 -0.0391331
v 0.0246418 -0.3292836 -0.0406698
v 0.1181646 -0.5087832 -0.0295596
v 0.1203096 -0.5061384 -0.0298247
v 0.1216194 -0.5029964 -0.0301039
v 0.1219879 -0.4996116 -0.0303748
v 0.1213851 -0.4962582 -0.0306152
v 0.0398600 -0.3332080 -0.0408059
v 0.0375361 -0.3307081 -0.0409312
v 0.0346017 -0.3289609 -0.0409811
v 0.0312944 -0.3281080 -0.0409516
v 0.0278823 -0.3282186 -0.0408449
v 0.1177111 -0.5091136 -0.0312172
v 0.1194393 -0.5067724 -0.0330056
v 0.1204028 -0.5038826 -0.0345505
v 0.1205235 -0.5006783 -0.0357268
v 0.1197917 -0.4974189 -0.0364391
v 0.0382666 -0.3343687 -0.0466297
v 0.0360718 -0.3317747 -0.0462832
v 0.0333850 -0.3298471 -0.0454277
v 0.0304241 -0.3287420 -0.0441325
v 0.0274288 -0.3285490 -0.0425025
v 0.1165689 -0.5097571 -0.0323765
v 0.1172475 -0.5080074 -0.0352303
v 0.1173389 -0.5056089 -0.0376603
v 0.1168358 -0.5027560 -0.0394697
v 0.1157789 -0.4996799 -0.0405120
v 0.0342538 -0.3366297 -0.0507026
v 0.0323841 -0.3338525 -0.0500262
v 0.0303212 -0.3315734 -0.0485375
v 0.0282323 -0.3299769 -0.0463572
v 0.0262866 -0.3291925 -0.0436618
v 0.1150442 -0.5105414 -0.0327268
v 0.1143216 -0.5095123 -0.0359025
v 0.1132488 -0.5077127 -0.0386000
v 0.1119129 -0.5052882 -0.0406008
v 0.1104220 -0.5024353 -0.0417427
v 0.0288969 -0.3393851 -0.0519334
v 0.0274611 -0.3363847 -0.0511572
v 0.0262311 -0.3336772 -0.0494772
v 0.0253064 -0.3314819 -0.0470294
v 0.0247619 -0.3299768 -0.0440121
v 0.1135455 -0.5112562 -0.0321743
v 0.1114455 -0.5108841 -0.0348422
v 0.1092284 -0.5096303 -0.0371178
v 0.1070738 -0.5075962 -0.0388168
v 0.1051563 -0.5049468 -0.0398014
v 0.0236312 -0.3418966 -0.0499921
v 0.0226221 -0.3386927 -0.0493732
v 0.0222107 -0.3355948 -0.0479950
v 0.0224303 -0.3328537 -0.0459691
v 0.0232631 -0.3306916 -0.0434596
v 0.1124743 -0.5117101 -0.0308669
v 0.1093899 -0.5117551 -0.0323334
v 0.1063549 -0.5108478 -0.0336108
v 0.1036153 -0.5090617 -0.0345958
v 0.1013929 -0.5065414 -0.0352083
v 0.0198678 -0.3434912 -0.0453990
v 0.0191635 -0.3401582 -0.0451522
v 0.0193372 -0.3368123 -0.0444881
v 0.0203747 -0.3337247 -0.0434603
v 0.0221920 -0.3311455 -0.0421522
v 0.1121177 -0.5117814 -0.0291551
v 0.1087056 -0.5118920 -0.0290484
v 0.1053983 -0.5110391 -0.0290189
v 0.1024639 -0.5092919 -0.0290688
v 0.1001400 -0.5067920 -0.0291941
v 0.0186149 -0.3437418 -0.0393848
v 0.0180121 -0.3403884 -0.0396252
v 0.0183806 -0.3370036 -0.0398961
v 0.0196904 -0.3338616 -0.0401753
v 0.0218354 -0.3312168 -0.0404404
v 0.1125712 -0.5114510 -0.0274975
v 0.1095759 -0.5112580 -0.0258675
v 0.1066150 -0.5101529 -0.0245723
v 0.1039282 -0.5082253 -0.0237168
v 0.1017334 -0.5056313 -0.0233703
v 0.0202083 -0.3425811 -0.0335609
v 0.0194765 -0.3393217 -0.0342732
v 0.0195972 -0.3361174 -0.0354495
v 0.0205607 -0.3332276 -0.0369944
v 0.0222889 -0.3308864 -0.0387828
v 0.1137134 -0.5108075 -0.0263382
v 0.1117677 -0.5100231 -0.0236428
v 0.1096788 -0.5084266 -0.0214625
v 0.1076159 -0.5061475 -0.0199738
v 0.1057462 -0.5033703 -0.0192974
v 0.0242211 -0.3403201 -0.0294880
v 0.0231642 -0.3372440 -0.0305303
v 0.0226611 -0.3343911 -0.0323397
v 0.0227525 -0.3319926 -0.0347697
v 0.0234311 -0.3302429 -0.0376235
v 0.1152381 -0.5100232 -0.0259879
v 0.1146936 -0.5085181 -0.0229706
v 0.1137689 -0.5063228 -0.0205228
v 0.1125389 -0.5036153 -0.0188428
v 0.1111031 -0.5006149 -0.0180666
v 0.0295780 -0.3375647 -0.0282573
v 0.0280871 -0.3347118 -0.0293992
v 0.0267512 -0.3322873 -0.0314000
v 0.0256784 -0.3304877 -0.0340975
v 0.0249558 -0.3294586 -0.0372732
v 0.1167369 -0.5093084 -0.0265404
v 0.1175697 -0.5071463 -0.0240309
v 0.1177893 -0.5044052 -0.0220050
v 0.1173779 -0.5013073 -0.0206268
v 0.1163688 -0.4981034 -0.0200079
v 0.0348437 -0.3350532 -0.0301986
v 0.0329262 -0.3324038 -0.0311832
v 0.0307716 -0.3303697 -0.0328822
v 0.0285545 -0.3291159 -0.0351578
v 0.0264545 -0.3287438 -0.0378257
vn 0.4465165 -0.8930329 0.0558146
vn 0.6647072 -0.7229086 0.1885937
vn 0.8101955 -0.5064901 0.2950441
vn 0.8911616 -0.2513067 0.3777246
vn 0.9022582 0.0225276 0.4306074
vn 0.8432851 0.2939812 0.4499393
vn 0.7190473 0.5424568 0.4344095
vn 0.5389818 0.7490802 0.3851978
vn 0.3165610 0.8978945 0.3058995
vn 0.0684909 0.9769192 0.2023310
vn -0.1862729 0.9790516 0.0822211
vn -0.4465165 0.8930329 -0.0558146
vn 0.6966939 -0.7165120 0.0350451
vn 0.8689420 -0.4947422 0.0130387
vn 0.9719065 -0.2351596 -0.0098816
vn 0.9986154 0.0417967 -0.0319438
vn 0.9477381 0.3148693 -0.0514753
vn 0.8235004 0.5633449 -0.0670050
vn 0.6353390 0.7683494 -0.0773534
vn 0.3973059 0.9140416 -0.0817067
vn 0.1272373 0.9886671 -0.0796744
vn -0.1542862 0.9854482 -0.0713274
vn 0.6560118 -0.7461460 -0.1136425
vn 0.7942257 -0.5491677 -0.2600392
vn 0.8692117 -0.3099655 -0.3852173
vn 0.8760642 -0.0474731 -0.4798519
vn 0.8148903 0.2180991 -0.5370165
vn 0.6906525 0.4665746 -0.5525462
vn 0.5127878 0.6790795 -0.5252615
vn 0.2946111 0.8392357 -0.4570424
vn 0.0525211 0.9342416 -0.3527522
vn -0.1949683 0.9558142 -0.2200151
vn 0.5535616 -0.8038703 -0.2176286
vn 0.6060669 -0.6551833 -0.4510186
vn 0.6105942 -0.4556801 -0.6477116
vn 0.5674421 -0.2213622 -0.7931004
vn 0.4803379 0.0295999 -0.8765839
vn 0.3561001 0.2780755 -0.8921136
vn 0.2041658 0.5051905 -0.8385100
vn 0.0359936 0.6935211 -0.7195367
vn -0.1356378 0.8282260 -0.5437316
vn -0.2974185 0.8980899 -0.3240011
vn 0.4167947 -0.8742175 -0.2490500
vn 0.3548825 -0.7843823 -0.5087267
vn 0.2653504 -0.6332594 -0.7270293
vn 0.1554441 -0.4332770 -0.8877545
vn 0.0337241 -0.2001199 -0.9791908
vn -0.0905137 0.0483556 -0.9947206
vn -0.2078322 0.2932756 -0.9331641
vn -0.3092502 0.5159418 -0.7988544
vn -0.3868221 0.6990270 -0.6014398
vn -0.4341854 0.8277427 -0.3554225
vn 0.2823577 -0.9383384 -0.1994874
vn 0.1079772 -0.9021458 -0.4177008
vn -0.0740120 -0.7951211 -0.6019174
vn -0.2495351 -0.6264352 -0.7384518
vn -0.4052814 -0.4095072 -0.8173438
vn -0.5295192 -0.1610316 -0.8328735
vn -0.6128114 0.1001174 -0.7838614
vn -0.6486126 0.3540801 -0.6737425
vn -0.6337274 0.5812635 -0.5104138
vn -0.5686224 0.7636218 -0.3058599
vn 0.1862729 -0.9790516 -0.0822211
vn -0.0684909 -0.9769192 -0.2023310
vn -0.3165610 -0.8978945 -0.3058995
vn -0.5389818 -0.7490802 -0.3851978
vn -0.7190473 -0.5424568 -0.4344095
vn -0.8432851 -0.2939812 -0.4499393
vn -0.9022582 -0.0225276 -0.4306074
vn -0.8911616 0.2513067 -0.3777246
vn -0.8101955 0.5064901 -0.2950441
vn -0.6647072 0.7229086 -0.1885937
vn 0.1542862 -0.9854482 0.0713274
vn -0.1272373 -0.9886671 0.0796744
vn -0.3973059 -0.9140416 0.0817067
vn -0.6353390 -0.7683494 0.0773534
vn -0.8235004 -0.5633449 0.0670050
vn -0.9477381 -0.3148693 0.0514753
vn -0.9986154 -0.0417967 0.0319438
vn -0.9719065 0.2351596 0.0098816
vn -0.8689420 0.4947422 -0.0130387
vn -0.6966939 0.7165120 -0.0350451
vn 0.1949683 -0.9558142 0.2200151
vn -0.0525211 -0.9342416 0.3527522
vn -0.2946111 -0.8392357 0.4570424
vn -0.5127878 -0.6790795 0.5252615
vn -0.6906525 -0.4665746 0.5525462
vn -0.8148903 -0.2180991 0.5370165
vn -0.8760642 0.0474731 0.4798519
vn -0.8692117 0.3099655 0.3852173
vn -0.7942257 0.5491677 0.2600392
vn -0.6560118 0.7461460 0.1136425
vn 0.2974185 -0.8980899 0.3240011
vn 0.1356378 -0.8282260 0.5437316
vn -0.0359936 -0.6935211 0.7195367
vn -0.2041658 -0.5051905 0.8385100
vn -0.3561001 -0.2780755 0.8921136
vn -0.4803379 -0.0295999 0.8765839
vn -0.5674421 0.2213622 0.7931004
vn -0.6105942 0.4556801 0.6477116
vn -0.6060669 0.6551833 0.4510186
vn -0.5535616 0.8038703 0.2176286
vn 0.4341854 -0.8277427 0.3554225
vn 0.3868221 -0.6990270 0.6014398
vn 0.3092502 -0.5159418 0.7988544
vn 0.2078322 -0.2932756 0.9331641
vn 0.0905137 -0.0483556 0.9947206
vn -0.0337241 0.2001199 0.9791908
vn -0.1554441 0.4332770 0.8877545
vn -0.2653504 0.6332594 0.7270293
vn -0.3548825 0.7843823 0.5087267
vn -0.4167947 0.8742175 0.2490500
vn 0.5686224 -0.7636218 0.3058599
vn 0.6337274 -0.5812635 0.5104138
vn 0.6486126 -0.3540801 0.6737425
vn 0.6128114 -0.1001174 0.7838614
vn 0.5295192 0.1610316 0.8328735
vn 0.4052814 0.4095072 0.8173438
vn 0.2495351 0.6264352 0.7384518
vn 0.0740120 0.7951211 0.6019174
vn -0.1079772 0.9021458 0.4177008
vn -0.2823577 0.9383384 0.1994874
f 2//2 1//1 13//13
f 2//2 13//13 3//3
f 3//3 13//13 14//14
f 3//3 14//14 4//4
f 4//4 14//14 15//15
f 4//4 15//15 5//5
f 5//5 15//15 16//16
f 5//5 16//16 6//6
f 6//6 16//16 17//17
f 6//6 17//17 7//7
f 7//7 17//17 18//18
f 7//7 18//18 8//8
f 8//8 18//18 19//19
f 8//8 19//19 9//9
f 9//9 19//19 20//20
f 9//9 20//20 10//10
f 10//10 20//20 21//21
f 10//10 21//21 11//11
f 11//11 21//21 22//22
f 11//11 22//22 12//12
f 13//13 1//1 23//23
f 13//13 23//23 14//14
f 14//14 23//23 24//24
f 14//14 24//24 15//15
f 15//15 24//24 25//25
f 15//15 25//25 16//16
f 16//16 25//25 26//26
f 16//16 26//26 17//17
f 17//17 26//26 27//27
f 17//17 27//27 18//18
f 18//18 27//27 28//28
f 18//18 28//28 19//19
f 19//19 28//28 29//29
f 19//19 29//29 20//20
f 20//20 29//29 30//30
f 20//20 30//30 21//21
f 21//21 30//30 31//31
f 21//21 31//31 22//22
f 22//22 31//31 32//32
f 22//22 32//32 12//12
f 23//23 1//1 33//33
f 23//23 33//33 24//24
f 24//24 33//33 34//34
f 24//24 34//34 25//25
f 25//25 34//34 35//35
f 25//25 35//35 26//26
f 26//26 35//35 36//36
f 26//26 36//36 27//27
f 27//27 36//36 37//37
f 27//27 37//37 28//28
f 28//28 37//37 38//38
f 28//28 38//38 29//29
f 29//29 38//38 39//39
f 29//29 39//39 30//30
f 30//30 39//39 40//40
f 30//30 40//40 31//31
f 31//31 40//40 41//41
f 31//31 41//41 32//32
f 32//32 41//41 42//42
f 32//32 42//42 12//12
f 33//33 1//1 43//43
f 33//33 43//43 34//34
f 34//34 43//43 44//44
f 34//34 44//44 35//35
f 35//35 44//44 45//45
f 35//35 45//45 36//36
f 36//36 45//45 46//46
f 36//36 46//46 37//37
f 37//37 46//46 47//47
f 37//37 47//47 38//38
f 38//38 47//47 48//48
f 38//38 48//48 39//39
f 39//39 48//48 49//49
f 39//39 49//49 40//40
f 40//40 49//49 50//50
f 40//40 50//50 41//41
f 41//41 50//50 51//51
f 41//41 51//51 42//42
f 42//42 51//51 52//52
f 42//42 52//52 12//12
f 43//43 1//1 53//53
f 43//43 53//53 44//44
f 44//44 53//53 54//54
f 44//44 54//54 45//45
f 45//45 54//54 55//55
f 45//45 55//55 46//46
f 46//46 55//55 56//56
f 46//46 56//56 47//47
f 47//47 56//56 57//57
f 47//47 57//57 48//48
f 48//48 57//57 58//58
f 48//48 58//58 49//49
f 49//49 58//58 59//59
f 49//49 59//59 50//50
f 50//50 59//59 60//60
f 50//50 60//60 51//51
f 51//51 60//60 61//61
f 51//51 61//61 52//52
f 52//52 61//61 62//62
f 52//52 62//62 12//12
f 53//53 1//1 63//63
f 53//53 63//63 54//54
f 54//54 63//63 64//64
f 54//54 64//64 55//55
f 55//55 64//64 65//65
f 55//55 65//65 56//56
f 56//56 65//65 66//66
f 56//56 66//66 57//57
f 57//57 66//66 67//67
f 57//57 67//67 58//58
f 58//58 67//67 68//68
f 58//58 68//68 59//59
f 59//59 68//68 69//69
f 59//59 69//69 60//60
f 60//60 69//69 70//70
f 60//60 70//70 61//61
f 61//61 70//70 71//71
f 61//61 71//71 62//62
f 62//62 71//71 72//72
f 62//62 72//72 12//12
f 63//63 1//1 73//73
f 63//63 73//73 64//64
f 64//64 73//73 74//74
f 64//64 74//74 65//65
f 65//65 74//74 75//75
f 65//65 75//75 66//66
f 66//66 75//75 76//76
f 66//66 76//76 67//67
f 67//67 76//76 77//77
f 67//67 77//77 68//68
f 68//68 77//77 78//78
f 68//68 78//78 69//69
f 69//69 78//78 79//79
f 69//69 79//79 70//70
f 70//70 79//79 80//80
f 70//70 80//80 71//71
f 71//71 80//80 81//81
f 71//71 81//81 72//72
f 72//72 81//81 82//82
f 72//72 82//82 12//12
f 73//73 1//1 83//83
f 73//73 83//83 74//74
f 74//74 83//83 84//84
f 74//74 84//84 75//75
f 75//75 84//84 85//85
f 75//75 85//85 76//76
f 76//76 85//85 86//86
f 76//76 86//86 77//77
f 77//77 86//86 87//87
f 77//77 87//87 78//78
f 78//78 87//87 88//88
f 78//78 88//88 79//79
f 79//79 88//88 89//89
f 79//79 89//89 80//80
f 80//80 89//89 90//90
f 80//80 90//90 81//81
f 81//81 90//90 91//91
f 81//81 91//91 82//82
f 82//82 91//91 92//92
f 82//82 92//92 12//12
f 83//83 1//1 93//93
f 83//83 93//93 84//84
f 84//84 93//93 94//94
f 84//84 94//94 85//85
f 85//85 94//94 95//95
f 85//85 95//95 86//86
f 86//86 95//95 96//96
f 86//86 96//96 87//87
f 87//87 96//96 97//97
f 87//87 97//97 88//88
f 88//88 97//97 98//98
f 88//88 98//98 89//89
f 89//89 98//98 99//99
f 89//89 99//99 90//90
f 90//90 99//99 100//100
f 90//90 100//100 91//91
f 91//91 100//100 101//101
f 91//91 101//101 92//92
f 92//92 101//101 102//102
f 92//92 102//102 12//12
f 93//93 1//1 103//103
f 93//93 103//103 94//94
f 94//94 103//103 104//104
f 94//94 104//104 95//95
f 95//95 104//104 105//105
f 95//95 105//105 96//96
f 96//96 105//105 106//106
f 96//96 106//106 97//97
f 97//97 106//106 107//107
f 97//97 107//107 98//98
f 98//98 107//107 108//108
f 98//98 108//108 99//99
f 99//99 108//108 109//109
f 99//99 109//109 100//100
f 100//100 109//109 110//110
f 100//100 110//110 101//101
f 101//101 110//110 111//111
f 101//101 111//111 102//102
f 102//102 111//111 112//112
f 102//102 112//112 12//12
f 103//103 1//1 113//113
f 103//103 113//113 104//104
f 104//104 113//113 114//114
f 104//104 114//114 105//105
f 105//105 114//114 115//115
f 105//105 115//115 106//106
f 106//106 115//115 116//116
f 106//106 116//116 107//107
f 107//107 116//116 117//117
f 107//107 117//117 108//108
f 108//108 117//117 118//118
f 108//108 118//118 109//109
f 109//109 118//118 119//119
f 109//109 119//119 110//110
f 110//110 119//119 120//120
f 110//110 120//120 111//111
f 111//111 120//120 121//121
f 111//111 121//121 112//112
f 112//112 121//121 122//122
f 112//112 122//122 12//12
f 113//113 1//1 2//2
f 113//113 2//2 114//114
f 114//114 2//2 3//3
f 114//114 3//3 115//115
f 115//115 3//3 4//4
f 115//115 4//4 116//116
f 116//116 4//4 5//5
f 116//116 5//5 117//117
f 117//117 5//5 6//6
f 117//117 6//6 118//118
f 118//118 6//6 7//7
f 118//118 7//7 119//119
f 119//119 7//7 8//8
f 119//119 8//8 120//120
f 120//120 8//8 9//9
f 120//120 9//9 121//121
f 121//121 9//9 10//10
f 121//121 10//10 122//122
f 122//122 10//10 11//11
f 122//122 11//11 12//12

