# https://github.com/mikedh/trimesh
v 0.1691155 -2.0138082 0.0382309
v 0.1709559 -2.0138724 0.0380534
v 0.1727189 -2.0144331 0.0380335
v 0.1742616 -2.0154447 0.0381730
v 0.1754591 -2.0168254 0.0384605
v 0.1762143 -2.0184632 0.0388727
v 0.2064661 -2.2302256 0.0993762
v 0.2061940 -2.2319697 0.0999303
v 0.2054201 -2.2335542 0.1004900
v 0.2042071 -2.2348508 0.1010100
v 0.2026533 -2.2357544 0.1014482
v 0.2008845 -2.2361918 0.1017691
v 0.1708074 -2.0136349 0.0389590
v 0.1724340 -2.0139773 0.0397714
v 0.1738633 -2.0148075 0.0406023
v 0.1749797 -2.0160585 0.0413844
v 0.1756927 -2.0176287 0.0420544
v 0.2059444 -2.2293911 0.1025579
v 0.2057146 -2.2312028 0.1028542
v 0.2050218 -2.2329170 0.1029193
v 0.2039222 -2.2343949 0.1027479
v 0.2025048 -2.2355168 0.1023538
v 0.1702152 -2.0135110 0.0396887
v 0.1712975 -2.0137395 0.0411717
v 0.1722747 -2.0144752 0.0425598
v 0.1730676 -2.0156585 0.0437405
v 0.1736120 -2.0171934 0.0446181
v 0.2038637 -2.2289558 0.1051216
v 0.2038025 -2.2308028 0.1052103
v 0.2034332 -2.2325847 0.1048768
v 0.2027857 -2.2341572 0.1041482
v 0.2019126 -2.2353929 0.1030835
v 0.1693379 -2.0135340 0.0400470
v 0.1696140 -2.0137836 0.0418593
v 0.1699213 -2.0145368 0.0435209
v 0.1702350 -2.0157326 0.0448973
v 0.1705297 -2.0172741 0.0458770
v 0.2007815 -2.2290365 0.1063805
v 0.2009699 -2.2308769 0.1063671
v 0.2010798 -2.2326463 0.1058379
v 0.2011022 -2.2342013 0.1048358
v 0.2010353 -2.2354159 0.1034418
v 0.1684106 -2.0136976 0.0399379
v 0.1678345 -2.0140976 0.0416499
v 0.1674338 -2.0149757 0.0432282
v 0.1672410 -2.0162609 0.0445451
v 0.1672718 -2.0178490 0.0454936
v 0.1975235 -2.2296114 0.1059972
v 0.1979759 -2.2314052 0.1060149
v 0.1985923 -2.2330852 0.1055452
v 0.1993227 -2.2345153 0.1046264
v 0.2001080 -2.2355795 0.1033327
v 0.1676818 -2.0139581 0.0393906
v 0.1664359 -2.0145975 0.0405997
v 0.1654787 -2.0156745 0.0417601
v 0.1648879 -2.0171020 0.0427780
v 0.1647112 -2.0187642 0.0435708
v 0.1949629 -2.2305266 0.1040744
v 0.1956228 -2.2322463 0.1042478
v 0.1966372 -2.2337840 0.1040771
v 0.1979241 -2.2350152 0.1035762
v 0.1993792 -2.2358400 0.1027854
v 0.1673467 -2.0142456 0.0385518
v 0.1657929 -2.0151492 0.0389900
v 0.1645799 -2.0164458 0.0395100
v 0.1638060 -2.0180303 0.0400697
v 0.1635339 -2.0197744 0.0406238
v 0.1937857 -2.2315368 0.1011273
v 0.1945409 -2.2331746 0.1015395
v 0.1957384 -2.2345553 0.1018270
v 0.1972811 -2.2355669 0.1019665
v 0.1990441 -2.2361276 0.1019466
v 0.1674952 -2.0144832 0.0376462
v 0.1660778 -2.0156051 0.0372521
v 0.1649782 -2.0170830 0.0370807
v 0.1642854 -2.0187972 0.0371458
v 0.1640556 -2.0206089 0.0374421
v 0.1943073 -2.2323713 0.0979456
v 0.1950203 -2.2339415 0.0986156
v 0.1961367 -2.2351925 0.0993977
v 0.1975660 -2.2360227 0.1002286
v 0.1991926 -2.2363651 0.1010410
v 0.1680874 -2.0146071 0.0369165
v 0.1672143 -2.0158428 0.0358518
v 0.1665668 -2.0174153 0.0351232
v 0.1661975 -2.0191972 0.0347897
v 0.1661363 -2.0210442 0.0348784
v 0.1963880 -2.2328066 0.0953819
v 0.1969324 -2.2343415 0.0962595
v 0.1977253 -2.2355248 0.0974402
v 0.1987025 -2.2362605 0.0988283
v 0.1997848 -2.2364890 0.1003113
v 0.1689647 -2.0145841 0.0365582
v 0.1688978 -2.0157987 0.0351642
v 0.1689202 -2.0173537 0.0341621
v 0.1690301 -2.0191231 0.0336329
v 0.1692185 -2.0209635 0.0336195
v 0.1994703 -2.2327259 0.0941230
v 0.1997650 -2.2342674 0.0951027
v 0.2000787 -2.2354632 0.0964791
v 0.2003860 -2.2362164 0.0981407
v 0.2006621 -2.2364660 0.0999530
v 0.1698920 -2.0144205 0.0366673
v 0.1706773 -2.0154847 0.0353736
v 0.1714077 -2.0169148 0.0344548
v 0.1720241 -2.0185948 0.0339851
v 0.1724765 -2.0203886 0.0340028
v 0.2027282 -2.2321510 0.0945064
v 0.2027590 -2.2337391 0.0954549
v 0.2025662 -2.2350243 0.0967718
v 0.2021655 -2.2359024 0.0983501
v 0.2015894 -2.2363024 0.1000621
v 0.1706208 -2.0141600 0.0372146
v 0.1720759 -2.0149848 0.0364238
v 0.1733628 -2.0162160 0.0359229
v 0.1743772 -2.0177537 0.0357522
v 0.1750371 -2.0194734 0.0359256
v 0.2052888 -2.2312358 0.0964292
v 0.2051121 -2.2328980 0.0972220
v 0.2045213 -2.2343255 0.0982399
v 0.2035641 -2.2354025 0.0994003
v 0.2023182 -2.2360419 0.1006094
vn -0.1360828 0.9525793 -0.2721655
vn 0.1691639 0.9386230 -0.3006168
vn 0.4358202 0.8479122 -0.3018373
vn 0.6668059 0.6909172 -0.2792909
vn 0.8448671 0.4805842 -0.2350286
vn 0.9569289 0.2334278 -0.1726228
vn 0.9947922 -0.0316159 -0.0968961
vn 0.9555811 -0.2944142 -0.0136005
vn 0.8419242 -0.5349115 0.0709459
vn 0.6618661 -0.7344092 0.1502545
vn 0.4285132 -0.8768220 0.2180818
vn 0.1360828 -0.9525793 0.2721655
vn 0.1445774 0.9779578 -0.1506518
vn 0.3906649 0.9201539 -0.0264134
vn 0.6047415 0.7902109 0.0992693
vn 0.7708024 0.5990767 0.2167274
vn 0.8766413 0.3618760 0.3170896
vn 0.9145047 0.0968323 0.3928163
vn 0.8815165 -0.1759217 0.4381555
vn 0.7798599 -0.4356177 0.4495061
vn 0.6167108 -0.6621674 0.4256784
vn 0.4039267 -0.8374872 0.3680468
vn 0.0465052 0.9984731 -0.0298122
vn 0.2105468 0.9578321 0.1955191
vn 0.3571758 0.8419981 0.4043075
vn 0.4753690 0.6608771 0.5807458
vn 0.5563857 0.4288689 0.7116927
vn 0.5942491 0.1638252 0.7874194
vn 0.5860830 -0.1141212 0.8021739
vn 0.5322942 -0.3838305 0.7545443
vn 0.4365927 -0.6244893 0.6476109
vn 0.3058545 -0.8169719 0.4888864
vn -0.0987741 0.9946718 0.0295232
vn -0.0562715 0.9508508 0.3044936
vn -0.0095563 0.8324026 0.5540890
vn 0.0377280 0.6494262 0.7594881
vn 0.0819743 0.4164559 0.9054528
vn 0.1198376 0.1514122 0.9811795
vn 0.1484420 -0.1255721 0.9809162
vn 0.1655621 -0.3934261 0.9043258
vn 0.1697744 -0.6314706 0.7565854
vn 0.1605751 -0.8207732 0.5482217
vn -0.2523333 0.9675726 0.0114553
vn -0.3382963 0.9010806 0.2713105
vn -0.3971892 0.7639953 0.5084800
vn -0.4248551 0.5677922 0.7050604
vn -0.4194748 0.3279629 0.8464521
vn -0.3816115 0.0629193 0.9221789
vn -0.3141411 -0.2072062 0.9264885
vn -0.2220709 -0.4618334 0.8587168
vn -0.1122504 -0.6812408 0.7234023
vn 0.0070160 -0.8478724 0.5301539
vn -0.3730261 0.9244365 -0.0791744
vn -0.5599593 0.8218575 0.1048611
vn -0.7018570 0.6551060 0.2797013
vn -0.7884315 0.4378487 0.4320466
vn -0.8135987 0.1871017 0.5504998
vn -0.7757354 -0.0779419 0.6262266
vn -0.6777174 -0.3371496 0.6534747
vn -0.5267387 -0.5707227 0.6299381
vn -0.3339134 -0.7604639 0.5569529
vn -0.1136769 -0.8910084 0.4395242
vn -0.4285132 0.8768220 -0.2180818
vn -0.6618661 0.7344092 -0.1502545
vn -0.8419242 0.5349115 -0.0709459
vn -0.9555811 0.2944142 0.0136005
vn -0.9947922 0.0316159 0.0968961
vn -0.9569289 -0.2334278 0.1726228
vn -0.8448671 -0.4805842 0.2350286
vn -0.6668059 -0.6909172 0.2792909
vn -0.4358202 -0.8479122 0.3018373
vn -0.1691639 -0.9386230 0.3006168
vn -0.4039267 0.8374872 -0.3680468
vn -0.6167108 0.6621674 -0.4256784
vn -0.7798599 0.4356177 -0.4495061
vn -0.8815165 0.1759217 -0.4381555
vn -0.9145047 -0.0968323 -0.3928163
vn -0.8766413 -0.3618760 -0.3170896
vn -0.7708024 -0.5990767 -0.2167274
vn -0.6047415 -0.7902109 -0.0992693
vn -0.3906649 -0.9201539 0.0264134
vn -0.1445774 -0.9779578 0.1506518
vn -0.3058545 0.8169719 -0.4888864
vn -0.4365927 0.6244893 -0.6476109
vn -0.5322942 0.3838305 -0.7545443
vn -0.5860830 0.1141212 -0.8021739
vn -0.5942491 -0.1638252 -0.7874194
vn -0.5563857 -0.4288689 -0.7116927
vn -0.4753690 -0.6608771 -0.5807458
vn -0.3571758 -0.8419981 -0.4043075
vn -0.2105468 -0.9578321 -0.1955191
vn -0.0465052 -0.9984731 0.0298122
vn -0.1605751 0.8207732 -0.5482217
vn -0.1697744 0.6314706 -0.7565854
vn -0.1655621 0.3934261 -0.9043258
vn -0.1484420 0.1255721 -0.9809162
vn -0.1198376 -0.1514122 -0.9811795
vn -0.0819743 -0.4164559 -0.9054528
vn -0.0377280 -0.6494262 -0.7594881
vn 0.0095563 -0.8324026 -0.5540890
vn 0.0562715 -0.9508508 -0.3044936
vn 0.0987741 -0.9946718 -0.0295232
vn -0.0070160 0.8478724 -0.5301539
vn 0.1122504 0.6812408 -0.7234023
vn 0.2220709 0.4618334 -0.8587168
vn 0.3141411 0.2072062 -0.9264885
vn 0.3816115 -0.0629193 -0.9221789
vn 0.4194748 -0.3279629 -0.8464521
vn 0.4248551 -0.5677922 -0.7050604
vn 0.3971892 -0.7639953 -0.5084800
vn 0.3382963 -0.9010806 -0.2713105
vn 0.2523333 -0.9675726 -0.0114553
vn 0.1136769 0.8910084 -0.4395242
vn 0.3339134 0.7604639 -0.5569529
vn 0.5267387 0.5707227 -0.6299381
vn 0.6777174 0.3371496 -0.6534747
vn 0.7757354 0.0779419 -0.6262266
vn 0.8135987 -0.1871017 -0.5504998
vn 0.7884315 -0.4378487 -0.4320466
vn 0.7018570 -0.6551060 -0.2797013
vn 0.5599593 -0.8218575 -0.1048611
vn 0.3730261 -0.9244365 0.0791744
f 2//2 1//1 13//13
f 2//2 13//13 3//3
f 3//3 13//13 14//14
f 3//3 14//14 4//4
f 4//4 14//14 15//15
f 4//4 15//15 5//5
f 5//5 15//15 16//16
f 5//5 16//16 6//6
f 6//6 16//16 17//17
f 6//6 17//17 7//7
f 7//7 17//17 18//18
f 7//7 18//18 8//8
f 8//8 18//18 19//19
f 8//8 19//19 9//9
f 9//9 19//19 20//20
f 9//9 20//20 10//10
f 10//10 20//20 21//21
f 10//10 21//21 11//11
f 11//11 21//21 22//22
f 11//11 22//22 12//12
f 13//13 1//1 23//23
f 13//13 23//23 14//14
f 14//14 23//23 24//24
f 14//14 24//24 15//15
f 15//15 24//24 25//25
f 15//15 25//25 16//16
f 16//16 25//25 26//26
f 16//16 26//26 17//17
f 17//17 26//26 27//27
f 17//17 27//27 18//18
f 18//18 27//27 28//28
f 18//18 28//28 19//19
f 19//19 28//28 29//29
f 19//19 29//29 20//20
f 20//20 29//29 30//30
f 20//20 30//30 21//21
f 21//21 30//30 31//31
f 21//21 31//31 22//22
f 22//22 31//31 32//32
f 22//22 32//32 12//12
f 23//23 1//1 33//33
f 23//23 33//33 24//24
f 24//24 33//33 34//34
f 24//24 34//34 25//25
f 25//25 34//34 35//35
f 25//25 35//35 26//26
f 26//26 35//35 36//36
f 26//26 36//36 27//27
f 27//27 36//36 37//37
f 27//27 37//37 28//28
f 28//28 37//37 38//38
f 28//28 38//38 29//29
f 29//29 38//38 39//39
f 29//29 39//39 30//30
f 30//30 39//39 40//40
f 30//30 40//40 31//31
f 31//31 40//40 41//41
f 31//31 41//41 32//32
f 32//32 41//41 42//42
f 32//32 42//42 12//12
f 33//33 1//1 43//43
f 33//33 43//43 34//34
f 34//34 43//43 44//44
f 34//34 44//44 35//35
f 35//35 44//44 45//45
f 35//35 45//45 36//36
f 36//36 45//45 46//46
f 36//36 46//46 37//37
f 37//37 46//46 47//47
f 37//37 47//47 38//38
f 38//38 47//47 48//48
f 38//38 48//48 39//39
f 39//39 48//48 49//49
f 39//39 49//49 40//40
f 40//40 49//49 50//50
f 40//40 50//50 41//41
f 41//41 50//50 51//51
f 41//41 51//51 42//42
f 42//42 51//51 52//52
f 42//42 52//52 12//12
f 43//43 1//1 53//53
f 43//43 53//53 44//44
f 44//44 53//53 54//54
f 44//44 54//54 45//45
f 45//45 54//54 55//55
f 45//45 55//55 46//46
f 46//46 55//55 56//56
f 46//46 56//56 47//47
f 47//47 56//56 57//57
f 47//47 57//57 48//48
f 48//48 57//57 58//58
f 48//48 58//58 49//49
f 49//49 58//58 59//59
f 49//49 59//59 50//50
f 50//50 59//59 60//60
f 50//50 60//60 51//51
f 51//51 60//60 61//61
f 51//51 61//61 52//52
f 52//52 61//61 62//62
f 52//52 62//62 12//12
f 53//53 1//1 63//63
f 53//53 63//63 54//54
f 54//54 63//63 64//64
f 54//54 64//64 55//55
f 55//55 64//64 65//65
f 55//55 65//65 56//56
f 56//56 65//65 66//66
f 56//56 66//66 57//57
f 57//57 66//66 67//67
f 57//57 67//67 58//58
f 58//58 67//67 68//68
f 58//58 68//68 59//59
f 59//59 68//68 69//69
f 59//59 69//69 60//60
f 60//60 69//69 70//70
f 60//60 70//70 61//61
f 61//61 70//70 71//71
f 61//61 71//71 62//62
f 62//62 71//71 72//72
f 62//62 72//72 12//12
f 63//63 1//1 73//73
f 63//63 73//73 64//64
f 64//64 73//73 74//74
f 64//64 74//74 65//65
f 65//65 74//74 75//75
f 65//65 75//75 66//66
f 66//66 75//75 76//76
f 66//66 76//76 67//67
f 67//67 76//76 77//77
f 67//67 77//77 68//68
f 68//68 77//77 78//78
f 68//68 78//78 69//69
f 69//69 78//78 79//79
f 69//69 79//79 70//70
f 70//70 79//79 80//80
f 70//70 80//80 71//71
f 71//71 80//80 81//81
f 71//71 81//81 72//72
f 72//72 81//81 82//82
f 72//72 82//82 12//12
f 73//73 1//1 83//83
f 73//73 83//83 74//74
f 74//74 83//83 84//84
f 74//74 84//84 75//75
f 75//75 84//84 85//85
f 75//75 85//85 76//76
f 76//76 85//85 86//86
f 76//76 86//86 77//77
f 77//77 86//86 87//87
f 77//77 87//87 78//78
f 78//78 87//87 88//88
f 78//78 88//88 79//79
f 79//79 88//88 89//89
f 79//79 89//89 80//80
f 80//80 89//89 90//90
f 80//80 90//90 81//81
f 81//81 90//90 91//91
f 81//81 91//91 82//82
f 82//82 91//91 92//92
f 82//82 92//92 12//12
f 83//83 1//1 93//93
f 83//83 93//93 84//84
f 84//84 93//93 94//94
f 84//84 94//94 85//85
f 85//85 94//94 95//95
f 85//85 95//95 86//86
f 86//86 95//95 96//96
f 86//86 96//96 87//87
f 87//87 96//96 97//97
f 87//87 97//97 88//88
f 88//88 97//97 98//98
f 88//88 98//98 89//89
f 89//89 98//98 99//99
f 89//89 99//99 90//90
f 90//90 99//99 100//100
f 90//90 100//100 91//91
f 91//91 100//100 101//101
f 91//91 101//101 92//92
f 92//92 101//101 102//102
f 92//92 102//102 12//12
f 93//93 1//1 103//103
f 93//93 103//103 94//94
f 94//94 103//103 104//104
f 94//94 104//104 95//95
f 95//95 104//104 105//105
f 95//95 105//105 96//96
f 96//96 105//105 106//106
f 96//96 106//106 97//97
f 97//97 106//106 107//107
f 97//97 107//107 98//98
f 98//98 107//107 108//108
f 98//98 108//108 99//99
f 99//99 108//108 109//109
f 99//99 109//109 100//100
f 100//100 109//109 110//110
f 100//100 110//110 101//101
f 101//101 110//110 111//111
f 101//101 111//111 102//102
f 102//102 111//111 112//112
f 102//102 112//112 12//12
f 103//103 1//1 113//113
f 103//103 113//113 104//104
f 104//104 113//113 114//114
f 104//104 114//114 105//105
f 105//105 114//114 115//115
f 105//105 115//115 106//106
f 106//106 115//115 116//116
f 106//106 116//116 107//107
f 107//107 116//116 117//117
f 107//107 117//117 108//108
f 108//108 117//117 118//118
f 108//108 118//118 109//109
f 109//109 118//118 119//119
f 109//109 119//119 110//110
f 110//110 119//119 120//120
f 110//110 120//120 111//111
f 111//111 120//120 121//121
f 111//111 121//121 112//112
f 112//112 121//121 122//122
f 112//112 122//122 12//12
f 113//113 1//1 2//2
f 113//113 2//2 114//114
f 114//114 2//2 3//3
f 114//114 3//3 115//115
f 115//115 3//3 4//4
f 115//115 4//4 116//116
f 116//116 4//4 5//5
f 116//116 5//5 117//117
f 117//117 5//5 6//6
f 117//117 6//6 118//118
f 118//118 6//6 7//7
f 118//118 7//7 119//119
f 119//119 7//7 8//8
f 119//119 8//8 120//120
f 120//120 8//8 9//9
f 120//120 9//9 121//121
f 121//121 9//9 10//10
f 121//121 10//10 122//122
f 122//122 10//10 11//11
f 122//122 11//11 12//12

