# https://github.com/mikedh/trimesh
v -0.5094816 0.5489851 0.0400000
v -0.5069754 0.5484753 0.0401460
v -0.5047143 0.5472789 0.0402803
v -0.5028814 0.5454929 0.0403918
v -0.5016251 0.5432618 0.0404715
v -0.5010474 0.5407665 0.0405131
v -0.5311949 0.0182091 0.0405131
v -0.5320558 0.0157967 0.0404715
v -0.5335603 0.0137249 0.0403918
v -0.5355865 0.0121615 0.0402803
v -0.5379702 0.0112331 0.0401460
v -0.5405184 0.0110149 0.0400000
v -0.5073869 0.5484990 0.0413922
v -0.5055039 0.5473245 0.0426715
v -0.5039851 0.5455565 0.0437345
v -0.5029537 0.5433384 0.0444949
v -0.5024930 0.5408499 0.0448912
v -0.5326406 0.0182925 0.0448912
v -0.5333843 0.0158734 0.0444949
v -0.5346641 0.0137886 0.0437345
v -0.5363761 0.0122071 0.0426715
v -0.5383817 0.0112568 0.0413922
v -0.5083653 0.5485555 0.0422653
v -0.5073814 0.5474328 0.0443470
v -0.5066097 0.5457080 0.0460766
v -0.5061126 0.5435207 0.0473139
v -0.5059304 0.5410482 0.0479586
v -0.5360780 0.0184908 0.0479586
v -0.5365432 0.0160556 0.0473139
v -0.5372886 0.0139400 0.0460766
v -0.5382536 0.0123154 0.0443470
v -0.5393600 0.0113133 0.0422653
v -0.5096484 0.5486295 0.0425314
v -0.5098437 0.5475749 0.0448577
v -0.5100516 0.5459065 0.0467905
v -0.5102554 0.5437597 0.0481731
v -0.5104385 0.5413083 0.0488936
v -0.5405860 0.0187508 0.0488936
v -0.5406861 0.0162946 0.0481731
v -0.5407306 0.0141386 0.0467905
v -0.5407159 0.0124574 0.0448577
v -0.5406432 0.0113873 0.0425314
v -0.5108925 0.5487013 0.0421192
v -0.5122310 0.5477126 0.0440668
v -0.5133888 0.5460991 0.0456848
v -0.5142721 0.5439914 0.0468423
v -0.5148093 0.5415604 0.0474455
v -0.5449568 0.0190030 0.0474455
v -0.5447028 0.0165264 0.0468423
v -0.5440678 0.0143311 0.0456848
v -0.5431032 0.0125952 0.0440668
v -0.5418872 0.0114591 0.0421192
v -0.5117641 0.5487516 0.0411392
v -0.5139037 0.5478091 0.0421861
v -0.5157270 0.5462340 0.0430560
v -0.5170864 0.5441538 0.0436782
v -0.5178717 0.5417371 0.0440025
v -0.5480192 0.0191797 0.0440025
v -0.5475171 0.0166887 0.0436782
v -0.5464060 0.0144660 0.0430560
v -0.5447759 0.0126917 0.0421861
v -0.5427589 0.0115094 0.0411392
v -0.5120298 0.5487669 0.0398540
v -0.5144135 0.5478385 0.0397197
v -0.5164397 0.5462751 0.0396082
v -0.5179442 0.5442033 0.0395285
v -0.5188051 0.5417909 0.0394869
v -0.5489526 0.0192335 0.0394869
v -0.5483749 0.0167382 0.0395285
v -0.5471186 0.0145071 0.0396082
v -0.5452857 0.0127211 0.0397197
v -0.5430246 0.0115247 0.0398540
v -0.5116183 0.5487432 0.0386078
v -0.5136239 0.5477929 0.0373285
v -0.5153359 0.5462114 0.0362655
v -0.5166157 0.5441266 0.0355051
v -0.5173594 0.5417075 0.0351088
v -0.5475070 0.0191501 0.0351088
v -0.5470463 0.0166616 0.0355051
v -0.5460149 0.0144435 0.0362655
v -0.5444961 0.0126755 0.0373285
v -0.5426131 0.0115010 0.0386078
v -0.5106400 0.5486867 0.0377347
v -0.5117464 0.5476846 0.0356530
v -0.5127114 0.5460600 0.0339234
v -0.5134568 0.5439444 0.0326861
v -0.5139220 0.5415092 0.0320414
v -0.5440696 0.0189518 0.0320414
v -0.5438874 0.0164793 0.0326861
v -0.5433903 0.0142920 0.0339234
v -0.5426186 0.0125672 0.0356530
v -0.5416347 0.0114445 0.0377347
v -0.5093568 0.5486127 0.0374686
v -0.5092841 0.5475426 0.0351423
v -0.5092694 0.5458614 0.0332095
v -0.5093139 0.5437054 0.0318269
v -0.5094140 0.5412492 0.0311064
v -0.5395615 0.0186917 0.0311064
v -0.5397446 0.0162403 0.0318269
v -0.5399484 0.0140935 0.0332095
v -0.5401563 0.0124251 0.0351423
v -0.5403516 0.0113705 0.0374686
v -0.5081128 0.5485409 0.0378808
v -0.5068968 0.5474048 0.0359332
v -0.5059322 0.5456689 0.0343152
v -0.5052972 0.5434736 0.0331577
v -0.5050432 0.5409970 0.0325545
v -0.5351907 0.0184396 0.0325545
v -0.5357279 0.0160086 0.0331577
v -0.5366112 0.0139009 0.0343152
v -0.5377690 0.0122874 0.0359332
v -0.5391075 0.0112987 0.0378808
v -0.5072411 0.5484906 0.0388608
v -0.5052241 0.5473083 0.0378139
v -0.5035940 0.5455340 0.0369440
v -0.5024829 0.5433113 0.0363218
v -0.5019808 0.5408203 0.0359975
v -0.5321283 0.0182629 0.0359975
v -0.5329136 0.0158462 0.0363218
v -0.5342730 0.0137660 0.0369440
v -0.5360963 0.0121909 0.0378139
v -0.5382359 0.0112484 0.0388608
vn 0.0575965 0.9983399 -0.0000000
vn 0.3571312 0.9338909 0.0174663
vn 0.6029394 0.7971418 0.0320784
vn 0.8000280 0.5983404 0.0440906
vn 0.9339211 0.3535858 0.0526157
vn 0.9950033 0.0819462 0.0570364
vn 0.9789778 -0.1958298 0.0570364
vn 0.8870618 -0.4586425 0.0526157
vn 0.7259097 -0.6863753 0.0440906
vn 0.5072663 -0.8611921 0.0320784
vn 0.2473626 -0.9687655 0.0174663
vn -0.0575965 -0.9983399 0.0000000
vn 0.3079191 0.9367301 0.1665010
vn 0.5125572 0.8023561 0.3057937
vn 0.6758008 0.6055074 0.4203024
vn 0.7856742 0.3621385 0.5015693
vn 0.8343008 0.0912175 0.5437109
vn 0.8182753 -0.1865585 0.5437109
vn 0.7388149 -0.4500898 0.5015693
vn 0.6016826 -0.6792084 0.4203024
vn 0.4168840 -0.8559778 0.3057937
vn 0.1981505 -0.9659264 0.1665010
vn 0.1909066 0.9434808 0.2709219
vn 0.2976534 0.8147544 0.4975718
vn 0.3804233 0.6225484 0.6838944
vn 0.4331845 0.3824744 0.8161278
vn 0.4521950 0.1132621 0.8846984
vn 0.4361695 -0.1645139 0.8846984
vn 0.3863252 -0.4297538 0.8161278
vn 0.3063051 -0.6621674 0.6838944
vn 0.2019803 -0.8435795 0.4975718
vn 0.0811380 -0.9591757 0.2709219
vn 0.0374470 0.9523342 0.3027495
vn 0.0158114 0.8310146 0.5560259
vn -0.0069583 0.6448973 0.7642375
vn -0.0290987 0.4091446 0.9120055
vn -0.0489290 0.1421731 0.9886318
vn -0.0649545 -0.1356029 0.9886318
vn -0.0759580 -0.4030836 0.9120055
vn -0.0810765 -0.6398184 0.7642375
vn -0.0798617 -0.8273193 0.5560259
vn -0.0723216 -0.9503222 0.3027495
vn -0.1113403 0.9609181 0.2534556
vn -0.2574495 0.8467796 0.4654934
vn -0.3825455 0.6665658 0.6398038
vn -0.4773070 0.4350028 0.7635121
vn -0.5347955 0.1702039 0.8276620
vn -0.5508211 -0.1075721 0.8276620
vn -0.5241663 -0.3772255 0.7635121
vn -0.4566637 -0.6181499 0.6398038
vn -0.3531226 -0.8115543 0.4654934
vn -0.2211089 -0.9417383 0.2534556
vn -0.2155878 0.9669324 0.1362485
vn -0.4489092 0.8578254 0.2502322
vn -0.6457000 0.6817478 0.3439352
vn -0.7913433 0.4531202 0.4104362
vn -0.8752170 0.1898436 0.4449209
vn -0.8912426 -0.0879324 0.4449209
vn -0.8382026 -0.3591080 0.4104362
vn -0.7198182 -0.6029679 0.3439352
vn -0.5445823 -0.8005085 0.2502322
vn -0.3253565 -0.9357241 0.1362485
vn -0.2473626 0.9687655 -0.0174663
vn -0.5072663 0.8611921 -0.0320784
vn -0.7259097 0.6863753 -0.0440906
vn -0.8870618 0.4586425 -0.0526157
vn -0.9789778 0.1958298 -0.0570364
vn -0.9950033 -0.0819462 -0.0570364
vn -0.9339211 -0.3535858 -0.0526157
vn -0.8000280 -0.5983404 -0.0440906
vn -0.6029394 -0.7971418 -0.0320784
vn -0.3571312 -0.9338909 -0.0174663
vn -0.1981505 0.9659264 -0.1665010
vn -0.4168840 0.8559778 -0.3057937
vn -0.6016826 0.6792084 -0.4203024
vn -0.7388149 0.4500898 -0.5015693
vn -0.8182753 0.1865585 -0.5437109
vn -0.8343008 -0.0912175 -0.5437109
vn -0.7856742 -0.3621385 -0.5015693
vn -0.6758008 -0.6055074 -0.4203024
vn -0.5125572 -0.8023561 -0.3057937
vn -0.3079191 -0.9367301 -0.1665010
vn -0.0811380 0.9591757 -0.2709219
vn -0.2019803 0.8435795 -0.4975718
vn -0.3063051 0.6621674 -0.6838944
vn -0.3863252 0.4297538 -0.8161278
vn -0.4361695 0.1645139 -0.8846984
vn -0.4521950 -0.1132621 -0.8846984
vn -0.4331845 -0.3824744 -0.8161278
vn -0.3804233 -0.6225484 -0.6838944
vn -0.2976534 -0.8147544 -0.4975718
vn -0.1909066 -0.9434808 -0.2709219
vn 0.0723216 0.9503222 -0.3027495
vn 0.0798617 0.8273193 -0.5560259
vn 0.0810765 0.6398184 -0.7642375
vn 0.0759580 0.4030836 -0.9120055
vn 0.0649545 0.1356029 -0.9886318
vn 0.0489290 -0.1421731 -0.9886318
vn 0.0290987 -0.4091446 -0.9120055
vn 0.0069583 -0.6448973 -0.7642375
vn -0.0158114 -0.8310146 -0.5560259
vn -0.0374470 -0.9523342 -0.3027495
vn 0.2211089 0.9417383 -0.2534556
vn 0.3531226 0.8115543 -0.4654934
vn 0.4566637 0.6181499 -0.6398038
vn 0.5241663 0.3772255 -0.7635121
vn 0.5508211 0.1075721 -0.8276620
vn 0.5347955 -0.1702039 -0.8276620
vn 0.4773070 -0.4350028 -0.7635121
vn 0.3825455 -0.6665658 -0.6398038
vn 0.2574495 -0.8467796 -0.4654934
vn 0.1113403 -0.9609181 -0.2534556
vn 0.3253565 0.9357241 -0.1362485
vn 0.5445823 0.8005085 -0.2502322
vn 0.7198182 0.6029679 -0.3439352
vn 0.8382026 0.3591080 -0.4104362
vn 0.8912426 0.0879324 -0.4449209
vn 0.8752170 -0.1898436 -0.4449209
vn 0.7913433 -0.4531202 -0.4104362
vn 0.6457000 -0.6817478 -0.3439352
vn 0.4489092 -0.8578254 -0.2502322
vn 0.2155878 -0.9669324 -0.1362485
f 2//2 1//1 13//13
f 2//2 13//13 3//3
f 3//3 13//13 14//14
f 3//3 14//14 4//4
f 4//4 14//14 15//15
f 4//4 15//15 5//5
f 5//5 15//15 16//16
f 5//5 16//16 6//6
f 6//6 16//16 17//17
f 6//6 17//17 7//7
f 7//7 17//17 18//18
f 7//7 18//18 8//8
f 8//8 18//18 19//19
f 8//8 19//19 9//9
f 9//9 19//19 20//20
f 9//9 20//20 10//10
f 10//10 20//20 21//21
f 10//10 21//21 11//11
f 11//11 21//21 22//22
f 11//11 22//22 12//12
f 13//13 1//1 23//23
f 13//13 23//23 14//14
f 14//14 23//23 24//24
f 14//14 24//24 15//15
f 15//15 24//24 25//25
f 15//15 25//25 16//16
f 16//16 25//25 26//26
f 16//16 26//26 17//17
f 17//17 26//26 27//27
f 17//17 27//27 18//18
f 18//18 27//27 28//28
f 18//18 28//28 19//19
f 19//19 28//28 29//29
f 19//19 29//29 20//20
f 20//20 29//29 30//30
f 20//20 30//30 21//21
f 21//21 30//30 31//31
f 21//21 31//31 22//22
f 22//22 31//31 32//32
f 22//22 32//32 12//12
f 23//23 1//1 33//33
f 23//23 33//33 24//24
f 24//24 33//33 34//34
f 24//24 34//34 25//25
f 25//25 34//34 35//35
f 25//25 35//35 26//26
f 26//26 35//35 36//36
f 26//26 36//36 27//27
f 27//27 36//36 37//37
f 27//27 37//37 28//28
f 28//28 37//37 38//38
f 28//28 38//38 29//29
f 29//29 38//38 39//39
f 29//29 39//39 30//30
f 30//30 39//39 40//40
f 30//30 40//40 31//31
f 31//31 40//40 41//41
f 31//31 41//41 32//32
f 32//32 41//41 42//42
f 32//32 42//42 12//12
f 33//33 1//1 43//43
f 33//33 43//43 34//34
f 34//34 43//43 44//44
f 34//34 44//44 35//35
f 35//35 44//44 45//45
f 35//35 45//45 36//36
f 36//36 45//45 46//46
f 36//36 46//46 37//37
f 37//37 46//46 47//47
f 37//37 47//47 38//38
f 38//38 47//47 48//48
f 38//38 48//48 39//39
f 39//39 48//48 49//49
f 39//39 49//49 40//40
f 40//40 49//49 50//50
f 40//40 50//50 41//41
f 41//41 50//50 51//51
f 41//41 51//51 42//42
f 42//42 51//51 52//52
f 42//42 52//52 12//12
f 43//43 1//1 53//53
f 43//43 53//53 44//44
f 44//44 53//53 54//54
f 44//44 54//54 45//45
f 45//45 54//54 55//55
f 45//45 55//55 46//46
f 46//46 55//55 56//56
f 46//46 56//56 47//47
f 47//47 56//56 57//57
f 47//47 57//57 48//48
f 48//48 57//57 58//58
f 48//48 58//58 49//49
f 49//49 58//58 59//59
f 49//49 59//59 50//50
f 50//50 59//59 60//60
f 50//50 60//60 51//51
f 51//51 60//60 61//61
f 51//51 61//61 52//52
f 52//52 61//61 62//62
f 52//52 62//62 12//12
f 53//53 1//1 63//63
f 53//53 63//63 54//54
f 54//54 63//63 64//64
f 54//54 64//64 55//55
f 55//55 64//64 65//65
f 55//55 65//65 56//56
f 56//56 65//65 66//66
f 56//56 66//66 57//57
f 57//57 66//66 67//67
f 57//57 67//67 58//58
f 58//58 67//67 68//68
f 58//58 68//68 59//59
f 59//59 68//68 69//69
f 59//59 69//69 60//60
f 60//60 69//69 70//70
f 60//60 70//70 61//61
f 61//61 70//70 71//71
f 61//61 71//71 62//62
f 62//62 71//71 72//72
f 62//62 72//72 12//12
f 63//63 1//1 73//73
f 63//63 73//73 64//64
f 64//64 73//73 74//74
f 64//64 74//74 65//65
f 65//65 74//74 75//75
f 65//65 75//75 66//66
f 66//66 75//75 76//76
f 66//66 76//76 67//67
f 67//67 76//76 77//77
f 67//67 77//77 68//68
f 68//68 77//77 78//78
f 68//68 78//78 69//69
f 69//69 78//78 79//79
f 69//69 79//79 70//70
f 70//70 79//79 80//80
f 70//70 80//80 71//71
f 71//71 80//80 81//81
f 71//71 81//81 72//72
f 72//72 81//81 82//82
f 72//72 82//82 12//12
f 73//73 1//1 83//83
f 73//73 83//83 74//74
f 74//74 83//83 84//84
f 74//74 84//84 75//75
f 75//75 84//84 85//85
f 75//75 85//85 76//76
f 76//76 85//85 86//86
f 76//76 86//86 77//77
f 77//77 86//86 87//87
f 77//77 87//87 78//78
f 78//78 87//87 88//88
f 78//78 88//88 79//79
f 79//79 88//88 89//89
f 79//79 89//89 80//80
f 80//80 89//89 90//90
f 80//80 90//90 81//81
f 81//81 90//90 91//91
f 81//81 91//91 82//82
f 82//82 91//91 92//92
f 82//82 92//92 12//12
f 83//83 1//1 93//93
f 83//83 93//93 84//84
f 84//84 93//93 94//94
f 84//84 94//94 85//85
f 85//85 94//94 95//95
f 85//85 95//95 86//86
f 86//86 95//95 96//96
f 86//86 96//96 87//87
f 87//87 96//96 97//97
f 87//87 97//97 88//88
f 88//88 97//97 98//98
f 88//88 98//98 89//89
f 89//89 98//98 99//99
f 89//89 99//99 90//90
f 90//90 99//99 100//100
f 90//90 100//100 91//91
f 91//91 100//100 101//101
f 91//91 101//101 92//92
f 92//92 101//101 102//102
f 92//92 102//102 12//12
f 93//93 1//1 103//103
f 93//93 103//103 94//94
f 94//94 103//103 104//104
f 94//94 104//104 95//95
f 95//95 104//104 105//105
f 95//95 105//105 96//96
f 96//96 105//105 106//106
f 96//96 106//106 97//97
f 97//97 106//106 107//107
f 97//97 107//107 98//98
f 98//98 107//107 108//108
f 98//98 108//108 99//99
f 99//99 108//108 109//109
f 99//99 109//109 100//100
f 100//100 109//109 110//110
f 100//100 110//110 101//101
f 101//101 110//110 111//111
f 101//101 111//111 102//102
f 102//102 111//111 112//112
f 102//102 112//112 12//12
f 103//103 1//1 113//113
f 103//103 113//113 104//104
f 104//104 113//113 114//114
f 104//104 114//114 105//105
f 105//105 114//114 115//115
f 105//105 115//115 106//106
f 106//106 115//115 116//116
f 106//106 116//116 107//107
f 107//107 116//116 117//117
f 107//107 117//117 108//108
f 108//108 117//117 118//118
f 108//108 118//118 109//109
f 109//109 118//118 119//119
f 109//109 119//119 110//110
f 110//110 119//119 120//120
f 110//110 120//120 111//111
f 111//111 120//120 121//121
f 111//111 121//121 112//112
f 112//112 121//121 122//122
f 112//112 122//122 12//12
f 113//113 1//1 2//2
f 113//113 2//2 114//114
f 114//114 2//2 3//3
f 114//114 3//3 115//115
f 115//115 3//3 4//4
f 115//115 4//4 116//116
f 116//116 4//4 5//5
f 116//116 5//5 117//117
f 117//117 5//5 6//6
f 117//117 6//6 118//118
f 118//118 6//6 7//7
f 118//118 7//7 119//119
f 119//119 7//7 8//8
f 119//119 8//8 120//120
f 120//120 8//8 9//9
f 120//120 9//9 121//121
f 121//121 9//9 10//10
f 121//121 10//10 122//122
f 122//122 10//10 11//11
f 122//122 11//11 12//12

