# https://github.com/mikedh/trimesh
v -0.1497226 -1.4725103 0.0197226
v -0.1476236 -1.4728889 0.0198120
v -0.1457172 -1.4738437 0.0199166
v -0.1441577 -1.4752972 0.0200280
v -0.1430715 -1.4771316 0.0201371
v -0.1425467 -1.4791985 0.0202351
v -0.1626256 -2.0213303 0.0403141
v -0.1633020 -2.0233543 0.0403676
v -0.1645210 -2.0251066 0.0403913
v -0.1661839 -2.0264452 0.0403833
v -0.1681560 -2.0272616 0.0403443
v -0.1702774 -2.0274897 0.0402774
v -0.1479440 -1.4728384 0.0208566
v -0.1463319 -1.4737467 0.0219211
v -0.1450170 -1.4751615 0.0228301
v -0.1441058 -1.4769684 0.0235097
v -0.1436721 -1.4790209 0.0239051
v -0.1637511 -2.0211527 0.0439840
v -0.1643363 -2.0231911 0.0437402
v -0.1653803 -2.0249710 0.0431934
v -0.1667986 -2.0263482 0.0423879
v -0.1684763 -2.0272111 0.0413889
v -0.1487439 -1.4727812 0.0216003
v -0.1478670 -1.4736369 0.0233484
v -0.1471629 -1.4750082 0.0248252
v -0.1466886 -1.4767838 0.0259111
v -0.1464826 -1.4788200 0.0265181
v -0.1665615 -2.0209518 0.0465970
v -0.1669191 -2.0230065 0.0461415
v -0.1675262 -2.0248176 0.0451885
v -0.1683337 -2.0262385 0.0438151
v -0.1692762 -2.0271539 0.0421326
v -0.1498091 -1.4727327 0.0218439
v -0.1499111 -1.4735439 0.0238159
v -0.1500202 -1.4748781 0.0254787
v -0.1501278 -1.4766273 0.0266977
v -0.1502249 -1.4786497 0.0273740
v -0.1703039 -2.0207815 0.0474530
v -0.1703582 -2.0228500 0.0469281
v -0.1703835 -2.0246876 0.0458420
v -0.1703778 -2.0261454 0.0442826
v -0.1703414 -2.0271054 0.0423763
v -0.1508541 -1.4727059 0.0215222
v -0.1519164 -1.4734925 0.0231984
v -0.1528235 -1.4748063 0.0246155
v -0.1535018 -1.4765408 0.0256587
v -0.1538964 -1.4785556 0.0262435
v -0.1739754 -2.0206874 0.0463225
v -0.1737323 -2.0227635 0.0458892
v -0.1731868 -2.0246158 0.0449789
v -0.1723832 -2.0260940 0.0436651
v -0.1713864 -2.0270786 0.0420545
v -0.1515990 -1.4727080 0.0207212
v -0.1533458 -1.4734965 0.0216614
v -0.1548215 -1.4748119 0.0224670
v -0.1559067 -1.4765475 0.0230727
v -0.1565133 -1.4785629 0.0234295
v -0.1765923 -2.0206947 0.0435084
v -0.1761372 -2.0227702 0.0433032
v -0.1751849 -2.0246213 0.0428303
v -0.1738125 -2.0260980 0.0421281
v -0.1721313 -2.0270807 0.0412535
v -0.1518440 -1.4727384 0.0196557
v -0.1538161 -1.4735548 0.0196167
v -0.1554790 -1.4748934 0.0196087
v -0.1566980 -1.4766457 0.0196324
v -0.1573744 -1.4786697 0.0196859
v -0.1774533 -2.0208015 0.0397649
v -0.1769285 -2.0228684 0.0398629
v -0.1758423 -2.0247028 0.0399720
v -0.1742828 -2.0261563 0.0400834
v -0.1723764 -2.0271111 0.0401880
v -0.1515237 -1.4727889 0.0186111
v -0.1532014 -1.4736518 0.0176121
v -0.1546197 -1.4750290 0.0168066
v -0.1556637 -1.4768089 0.0162598
v -0.1562489 -1.4788473 0.0160160
v -0.1763279 -2.0209791 0.0360949
v -0.1758942 -2.0230316 0.0364903
v -0.1749830 -2.0248385 0.0371699
v -0.1736681 -2.0262533 0.0380789
v -0.1720560 -2.0271616 0.0391434
v -0.1507238 -1.4728461 0.0178674
v -0.1516663 -1.4737615 0.0161849
v -0.1524738 -1.4751824 0.0148115
v -0.1530809 -1.4769935 0.0138585
v -0.1534385 -1.4790482 0.0134030
v -0.1735174 -2.0211800 0.0334819
v -0.1733114 -2.0232162 0.0340889
v -0.1728371 -2.0249918 0.0351748
v -0.1721330 -2.0263631 0.0366516
v -0.1712561 -2.0272188 0.0383997
v -0.1496586 -1.4728946 0.0176237
v -0.1496222 -1.4738546 0.0157174
v -0.1496165 -1.4753124 0.0141580
v -0.1496418 -1.4771500 0.0130719
v -0.1496961 -1.4792185 0.0125470
v -0.1697751 -2.0213503 0.0326260
v -0.1698722 -2.0233727 0.0333023
v -0.1699798 -2.0251219 0.0345213
v -0.1700889 -2.0264561 0.0361841
v -0.1701909 -2.0272673 0.0381561
v -0.1486136 -1.4729214 0.0179455
v -0.1476168 -1.4739060 0.0163349
v -0.1468132 -1.4753842 0.0150211
v -0.1462677 -1.4772365 0.0141108
v -0.1460246 -1.4793126 0.0136775
v -0.1661036 -2.0214444 0.0337565
v -0.1664982 -2.0234592 0.0343413
v -0.1671765 -2.0251937 0.0353845
v -0.1680836 -2.0265075 0.0368016
v -0.1691459 -2.0272941 0.0384778
v -0.1478687 -1.4729193 0.0187465
v -0.1461875 -1.4739020 0.0178719
v -0.1448151 -1.4753787 0.0171697
v -0.1438628 -1.4772298 0.0166968
v -0.1434077 -1.4793053 0.0164916
v -0.1634867 -2.0214371 0.0365705
v -0.1640933 -2.0234525 0.0369273
v -0.1651785 -2.0251881 0.0375330
v -0.1666542 -2.0265035 0.0383386
v -0.1684010 -2.0272920 0.0392788
vn 0.0369863 0.9986311 -0.0369863
vn 0.3380975 0.9408043 -0.0240284
vn 0.5869346 0.8095711 -0.0101193
vn 0.7882964 0.6152791 0.0045154
vn 0.9273625 0.3736944 0.0187422
vn 0.9941148 0.1036565 0.0314812
vn 0.9838238 -0.1742004 0.0417722
vn 0.8972712 -0.4387706 0.0488335
vn 0.7407005 -0.6698113 0.0521113
vn 0.5254969 -0.8492464 0.0513184
vn 0.2676082 -0.9624070 0.0464609
vn -0.0369863 -0.9986311 0.0369863
vn 0.2921222 0.9480595 0.1258878
vn 0.5024970 0.8228960 0.2652149
vn 0.6722400 0.6335937 0.3829523
vn 0.7888662 0.3955502 0.4703512
vn 0.8439821 0.1273486 0.5210342
vn 0.8336911 -0.1505084 0.5313252
vn 0.7587749 -0.4169149 0.5004425
vn 0.6246441 -0.6514968 0.4305482
vn 0.4410593 -0.8359215 0.3266526
vn 0.2216329 -0.9551518 0.1963771
vn 0.1773168 0.9562650 0.2326286
vn 0.2916468 0.8379660 0.4612539
vn 0.3824340 0.6543068 0.6524008
vn 0.4430252 0.4202683 0.7918985
vn 0.4690838 0.1541435 0.8695977
vn 0.4587928 -0.1237135 0.8798887
vn 0.4129339 -0.3921968 0.8219898
vn 0.3348381 -0.6307836 0.6999968
vn 0.2302091 -0.8208515 0.5226916
vn 0.1068275 -0.9469463 0.3031180
vn 0.0244433 0.9632219 0.2675931
vn 0.0108812 0.8507430 0.5254692
vn -0.0034681 0.6718684 0.7406624
vn -0.0174925 0.4412255 0.8972258
vn -0.0301265 0.1768615 0.9837746
vn -0.0404174 -0.1009955 0.9940656
vn -0.0475838 -0.3712396 0.9273171
vn -0.0510641 -0.6132220 0.7882584
vn -0.0505565 -0.8080745 0.5869069
vn -0.0460460 -0.9399894 0.3380824
vn -0.1255360 0.9670663 0.2214124
vn -0.2645689 0.8578036 0.4406544
vn -0.3820644 0.6815729 0.6240875
vn -0.4692916 0.4528064 0.7581107
vn -0.5198856 0.1894154 0.8329711
vn -0.5301766 -0.0884415 0.8432621
vn -0.4993829 -0.3596587 0.7882020
vn -0.4296603 -0.6035175 0.6716834
vn -0.3260066 -0.8010139 0.5020920
vn -0.1960253 -0.9361450 0.2919017
vn -0.2324343 0.9667680 0.1064607
vn -0.4608969 0.8572558 0.2295354
vn -0.6519102 0.6808200 0.3339121
vn -0.7913130 0.4519078 0.4118289
vn -0.8689630 0.1884414 0.4575949
vn -0.8792540 -0.0894156 0.4678859
vn -0.8214043 -0.3605572 0.4419202
vn -0.6995061 -0.6042705 0.3815081
vn -0.5223346 -0.8015617 0.2909731
vn -0.3029236 -0.9364433 0.1769500
vn -0.2676082 0.9624070 -0.0464609
vn -0.5254969 0.8492464 -0.0513184
vn -0.7407005 0.6698113 -0.0521113
vn -0.8972712 0.4387706 -0.0488335
vn -0.9838238 0.1742004 -0.0417722
vn -0.9941148 -0.1036565 -0.0314812
vn -0.9273625 -0.3736944 -0.0187422
vn -0.7882964 -0.6152791 -0.0045154
vn -0.5869346 -0.8095711 0.0101193
vn -0.3380975 -0.9408043 0.0240284
vn -0.2216329 0.9551518 -0.1963771
vn -0.4410593 0.8359215 -0.3266526
vn -0.6246441 0.6514968 -0.4305482
vn -0.7587749 0.4169149 -0.5004425
vn -0.8336911 0.1505084 -0.5313252
vn -0.8439821 -0.1273486 -0.5210342
vn -0.7888662 -0.3955502 -0.4703512
vn -0.6722400 -0.6335937 -0.3829523
vn -0.5024970 -0.8228960 -0.2652149
vn -0.2921222 -0.9480595 -0.1258878
vn -0.1068275 0.9469463 -0.3031180
vn -0.2302091 0.8208515 -0.5226916
vn -0.3348381 0.6307836 -0.6999968
vn -0.4129339 0.3921968 -0.8219898
vn -0.4587928 0.1237135 -0.8798887
vn -0.4690838 -0.1541435 -0.8695977
vn -0.4430252 -0.4202683 -0.7918985
vn -0.3824340 -0.6543068 -0.6524008
vn -0.2916468 -0.8379660 -0.4612539
vn -0.1773168 -0.9562650 -0.2326286
vn 0.0460460 0.9399894 -0.3380824
vn 0.0505565 0.8080745 -0.5869069
vn 0.0510641 0.6132220 -0.7882584
vn 0.0475838 0.3712396 -0.9273171
vn 0.0404174 0.1009955 -0.9940656
vn 0.0301265 -0.1768615 -0.9837746
vn 0.0174925 -0.4412255 -0.8972258
vn 0.0034681 -0.6718684 -0.7406624
vn -0.0108812 -0.8507430 -0.5254692
vn -0.0244433 -0.9632219 -0.2675931
vn 0.1960253 0.9361450 -0.2919017
vn 0.3260066 0.8010139 -0.5020920
vn 0.4296603 0.6035175 -0.6716834
vn 0.4993829 0.3596587 -0.7882020
vn 0.5301766 0.0884415 -0.8432621
vn 0.5198856 -0.1894154 -0.8329711
vn 0.4692916 -0.4528064 -0.7581107
vn 0.3820644 -0.6815729 -0.6240875
vn 0.2645689 -0.8578036 -0.4406544
vn 0.1255360 -0.9670663 -0.2214124
vn 0.3029236 0.9364433 -0.1769500
vn 0.5223346 0.8015617 -0.2909731
vn 0.6995061 0.6042705 -0.3815081
vn 0.8214043 0.3605572 -0.4419202
vn 0.8792540 0.0894156 -0.4678859
vn 0.8689630 -0.1884414 -0.4575949
vn 0.7913130 -0.4519078 -0.4118289
vn 0.6519102 -0.6808200 -0.3339121
vn 0.4608969 -0.8572558 -0.2295354
vn 0.2324343 -0.9667680 -0.1064607
f 2//2 1//1 13//13
f 2//2 13//13 3//3
f 3//3 13//13 14//14
f 3//3 14//14 4//4
f 4//4 14//14 15//15
f 4//4 15//15 5//5
f 5//5 15//15 16//16
f 5//5 16//16 6//6
f 6//6 16//16 17//17
f 6//6 17//17 7//7
f 7//7 17//17 18//18
f 7//7 18//18 8//8
f 8//8 18//18 19//19
f 8//8 19//19 9//9
f 9//9 19//19 20//20
f 9//9 20//20 10//10
f 10//10 20//20 21//21
f 10//10 21//21 11//11
f 11//11 21//21 22//22
f 11//11 22//22 12//12
f 13//13 1//1 23//23
f 13//13 23//23 14//14
f 14//14 23//23 24//24
f 14//14 24//24 15//15
f 15//15 24//24 25//25
f 15//15 25//25 16//16
f 16//16 25//25 26//26
f 16//16 26//26 17//17
f 17//17 26//26 27//27
f 17//17 27//27 18//18
f 18//18 27//27 28//28
f 18//18 28//28 19//19
f 19//19 28//28 29//29
f 19//19 29//29 20//20
f 20//20 29//29 30//30
f 20//20 30//30 21//21
f 21//21 30//30 31//31
f 21//21 31//31 22//22
f 22//22 31//31 32//32
f 22//22 32//32 12//12
f 23//23 1//1 33//33
f 23//23 33//33 24//24
f 24//24 33//33 34//34
f 24//24 34//34 25//25
f 25//25 34//34 35//35
f 25//25 35//35 26//26
f 26//26 35//35 36//36
f 26//26 36//36 27//27
f 27//27 36//36 37//37
f 27//27 37//37 28//28
f 28//28 37//37 38//38
f 28//28 38//38 29//29
f 29//29 38//38 39//39
f 29//29 39//39 30//30
f 30//30 39//39 40//40
f 30//30 40//40 31//31
f 31//31 40//40 41//41
f 31//31 41//41 32//32
f 32//32 41//41 42//42
f 32//32 42//42 12//12
f 33//33 1//1 43//43
f 33//33 43//43 34//34
f 34//34 43//43 44//44
f 34//34 44//44 35//35
f 35//35 44//44 45//45
f 35//35 45//45 36//36
f 36//36 45//45 46//46
f 36//36 46//46 37//37
f 37//37 46//46 47//47
f 37//37 47//47 38//38
f 38//38 47//47 48//48
f 38//38 48//48 39//39
f 39//39 48//48 49//49
f 39//39 49//49 40//40
f 40//40 49//49 50//50
f 40//40 50//50 41//41
f 41//41 50//50 51//51
f 41//41 51//51 42//42
f 42//42 51//51 52//52
f 42//42 52//52 12//12
f 43//43 1//1 53//53
f 43//43 53//53 44//44
f 44//44 53//53 54//54
f 44//44 54//54 45//45
f 45//45 54//54 55//55
f 45//45 55//55 46//46
f 46//46 55//55 56//56
f 46//46 56//56 47//47
f 47//47 56//56 57//57
f 47//47 57//57 48//48
f 48//48 57//57 58//58
f 48//48 58//58 49//49
f 49//49 58//58 59//59
f 49//49 59//59 50//50
f 50//50 59//59 60//60
f 50//50 60//60 51//51
f 51//51 60//60 61//61
f 51//51 61//61 52//52
f 52//52 61//61 62//62
f 52//52 62//62 12//12
f 53//53 1//1 63//63
f 53//53 63//63 54//54
f 54//54 63//63 64//64
f 54//54 64//64 55//55
f 55//55 64//64 65//65
f 55//55 65//65 56//56
f 56//56 65//65 66//66
f 56//56 66//66 57//57
f 57//57 66//66 67//67
f 57//57 67//67 58//58
f 58//58 67//67 68//68
f 58//58 68//68 59//59
f 59//59 68//68 69//69
f 59//59 69//69 60//60
f 60//60 69//69 70//70
f 60//60 70//70 61//61
f 61//61 70//70 71//71
f 61//61 71//71 62//62
f 62//62 71//71 72//72
f 62//62 72//72 12//12
f 63//63 1//1 73//73
f 63//63 73//73 64//64
f 64//64 73//73 74//74
f 64//64 74//74 65//65
f 65//65 74//74 75//75
f 65//65 75//75 66//66
f 66//66 75//75 76//76
f 66//66 76//76 67//67
f 67//67 76//76 77//77
f 67//67 77//77 68//68
f 68//68 77//77 78//78
f 68//68 78//78 69//69
f 69//69 78//78 79//79
f 69//69 79//79 70//70
f 70//70 79//79 80//80
f 70//70 80//80 71//71
f 71//71 80//80 81//81
f 71//71 81//81 72//72
f 72//72 81//81 82//82
f 72//72 82//82 12//12
f 73//73 1//1 83//83
f 73//73 83//83 74//74
f 74//74 83//83 84//84
f 74//74 84//84 75//75
f 75//75 84//84 85//85
f 75//75 85//85 76//76
f 76//76 85//85 86//86
f 76//76 86//86 77//77
f 77//77 86//86 87//87
f 77//77 87//87 78//78
f 78//78 87//87 88//88
f 78//78 88//88 79//79
f 79//79 88//88 89//89
f 79//79 89//89 80//80
f 80//80 89//89 90//90
f 80//80 90//90 81//81
f 81//81 90//90 91//91
f 81//81 91//91 82//82
f 82//82 91//91 92//92
f 82//82 92//92 12//12
f 83//83 1//1 93//93
f 83//83 93//93 84//84
f 84//84 93//93 94//94
f 84//84 94//94 85//85
f 85//85 94//94 95//95
f 85//85 95//95 86//86
f 86//86 95//95 96//96
f 86//86 96//96 87//87
f 87//87 96//96 97//97
f 87//87 97//97 88//88
f 88//88 97//97 98//98
f 88//88 98//98 89//89
f 89//89 98//98 99//99
f 89//89 99//99 90//90
f 90//90 99//99 100//100
f 90//90 100//100 91//91
f 91//91 100//100 101//101
f 91//91 101//101 92//92
f 92//92 101//101 102//102
f 92//92 102//102 12//12
f 93//93 1//1 103//103
f 93//93 103//103 94//94
f 94//94 103//103 104//104
f 94//94 104//104 95//95
f 95//95 104//104 105//105
f 95//95 105//105 96//96
f 96//96 105//105 106//106
f 96//96 106//106 97//97
f 97//97 106//106 107//107
f 97//97 107//107 98//98
f 98//98 107//107 108//108
f 98//98 108//108 99//99
f 99//99 108//108 109//109
f 99//99 109//109 100//100
f 100//100 109//109 110//110
f 100//100 110//110 101//101
f 101//101 110//110 111//111
f 101//101 111//111 102//102
f 102//102 111//111 112//112
f 102//102 112//112 12//12
f 103//103 1//1 113//113
f 103//103 113//113 104//104
f 104//104 113//113 114//114
f 104//104 114//114 105//105
f 105//105 114//114 115//115
f 105//105 115//115 106//106
f 106//106 115//115 116//116
f 106//106 116//116 107//107
f 107//107 116//116 117//117
f 107//107 117//117 108//108
f 108//108 117//117 118//118
f 108//108 118//118 109//109
f 109//109 118//118 119//119
f 109//109 119//119 110//110
f 110//110 119//119 120//120
f 110//110 120//120 111//111
f 111//111 120//120 121//121
f 111//111 121//121 112//112
f 112//112 121//121 122//122
f 112//112 122//122 12//12
f 113//113 1//1 2//2
f 113//113 2//2 114//114
f 114//114 2//2 3//3
f 114//114 3//3 115//115
f 115//115 3//3 4//4
f 115//115 4//4 116//116
f 116//116 4//4 5//5
f 116//116 5//5 117//117
f 117//117 5//5 6//6
f 117//117 6//6 118//118
f 118//118 6//6 7//7
f 118//118 7//7 119//119
f 119//119 7//7 8//8
f 119//119 8//8 120//120
f 120//120 8//8 9//9
f 120//120 9//9 121//121
f 121//121 9//9 10//10
f 121//121 10//10 122//122
f 122//122 10//10 11//11
f 122//122 11//11 12//12

