# https://github.com/mikedh/trimesh
v -0.0527464 1.4866196 0.0735915
v -0.0517159 1.4872799 0.0744472
v -0.0510815 1.4882683 0.0753696
v -0.0509198 1.4894655 0.0762474
v -0.0512502 1.4907273 0.0769748
v -0.0920328 1.5519013 0.1024640
v -0.0931734 1.5528460 0.1026559
v -0.0945343 1.5534474 0.1025276
v -0.0959513 1.5536330 0.1020944
v -0.0972536 1.5533804 0.1014085
v -0.0516704 1.4876547 0.0736204
v -0.0509960 1.4889727 0.0738158
v -0.0508045 1.4904147 0.0741539
v -0.0511191 1.4918066 0.0745942
v -0.0919018 1.5529806 0.1000833
v -0.0930581 1.5537951 0.1005624
v -0.0944487 1.5541519 0.1009737
v -0.0959058 1.5540078 0.1012676
v -0.0520878 1.4877120 0.0728150
v -0.0517804 1.4890805 0.0723021
v -0.0518614 1.4905598 0.0721146
v -0.0523209 1.4919716 0.0722751
v -0.0931036 1.5531456 0.0977643
v -0.0941150 1.5539402 0.0985231
v -0.0952331 1.5542596 0.0994601
v -0.0963232 1.5540652 0.1004622
v -0.0528086 1.4874299 0.0723387
v -0.0531352 1.4885503 0.0714068
v -0.0536867 1.4898455 0.0709084
v -0.0543966 1.4911594 0.0709035
v -0.0951792 1.5523334 0.0963926
v -0.0959403 1.5532260 0.0973169
v -0.0965879 1.5537294 0.0985648
v -0.0970440 1.5537831 0.0999858
v -0.0535576 1.4869162 0.0723733
v -0.0545429 1.4875848 0.0714719
v -0.0555832 1.4885446 0.0709960
v -0.0565532 1.4896801 0.0710031
v -0.0973359 1.5508541 0.0964923
v -0.0978368 1.5519251 0.0974045
v -0.0979956 1.5527639 0.0986298
v -0.0977931 1.5532693 0.1000204
v -0.0540487 1.4863670 0.0729056
v -0.0554657 1.4865526 0.0724724
v -0.0568266 1.4871540 0.0723441
v -0.0579672 1.4880987 0.0725360
v -0.0987498 1.5492727 0.0980252
v -0.0990802 1.5505345 0.0987526
v -0.0989185 1.5517317 0.0996304
v -0.0982841 1.5527201 0.1005528
v -0.0540942 1.4859922 0.0737324
v -0.0555513 1.4858481 0.0740263
v -0.0569419 1.4862049 0.0744376
v -0.0580982 1.4870194 0.0749167
v -0.0988809 1.5481934 0.1004058
v -0.0991955 1.5495853 0.1008461
v -0.0990040 1.5510273 0.1011842
v -0.0983296 1.5523453 0.1013796
v -0.0536768 1.4859348 0.0745378
v -0.0547669 1.4857404 0.0755399
v -0.0558850 1.4860598 0.0764769
v -0.0568964 1.4868544 0.0772357
v -0.0976791 1.5480284 0.1027249
v -0.0981386 1.5494402 0.1028854
v -0.0982196 1.5509195 0.1026979
v -0.0979122 1.5522880 0.1021850
v -0.0529560 1.4862169 0.0750142
v -0.0534121 1.4862706 0.0764352
v -0.0540597 1.4867740 0.0776831
v -0.0548208 1.4876666 0.0786074
v -0.0956034 1.5488406 0.1040965
v -0.0963133 1.5501545 0.1040916
v -0.0968648 1.5514497 0.1035932
v -0.0971914 1.5525701 0.1026613
v -0.0522069 1.4867307 0.0749796
v -0.0520044 1.4872361 0.0763702
v -0.0521632 1.4880749 0.0775955
v -0.0526641 1.4891459 0.0785077
v -0.0934468 1.5503199 0.1039969
v -0.0944168 1.5514554 0.1040040
v -0.0954571 1.5524152 0.1035281
v -0.0964424 1.5530838 0.1026267
vn 0.5240974 -0.7861461 -0.3275609
vn 0.7814520 -0.6143426 -0.1091604
vn 0.9178952 -0.3836025 0.1015747
vn 0.9478199 -0.1105469 0.2990266
vn 0.8699012 0.1738094 0.4615867
vn 0.6937252 0.4380734 0.5716967
vn 0.4387047 0.6531258 0.6172235
vn 0.1324176 0.7946140 0.5924982
vn -0.1915629 0.8451797 0.4989739
vn -0.5240974 0.7861461 0.3275609
vn 0.7929639 -0.5195560 -0.3182292
vn 0.9383925 -0.2148325 -0.2706778
vn 0.9748785 0.1122475 -0.1923863
vn 0.9004160 0.4250615 -0.0925946
vn 0.7242400 0.6893255 0.0175154
vn 0.4657633 0.8759202 0.1258107
vn 0.1529149 0.9633841 0.2202458
vn -0.1800510 0.9399663 0.2899051
vn 0.6874199 -0.5050606 -0.5218886
vn 0.7504687 -0.1890231 -0.6332986
vn 0.7267990 0.1463187 -0.6710843
vn 0.6206491 0.4634846 -0.6324371
vn 0.4444731 0.7277486 -0.5223271
vn 0.2176838 0.9099914 -0.3528873
vn -0.0350090 0.9891935 -0.1423750
vn -0.2855950 0.9544617 0.0862457
vn 0.5051341 -0.5763932 -0.6423476
vn 0.4259042 -0.3160326 -0.8477789
vn 0.2983393 -0.0213474 -0.9542211
vn 0.1374620 0.2744024 -0.9517392
vn -0.0387140 0.5386664 -0.8416292
vn -0.2107758 0.7423253 -0.6360242
vn -0.3595735 0.8621839 -0.3568553
vn -0.4678807 0.8831291 -0.0342133
vn 0.3157336 -0.7063071 -0.6335949
vn 0.0886716 -0.5473477 -0.8321946
vn -0.1468435 -0.3267080 -0.9336481
vn -0.3645843 -0.0699621 -0.9285384
vn -0.5407603 0.1943019 -0.8184284
vn -0.6559586 0.4369647 -0.6154512
vn -0.6968061 0.6308688 -0.3412710
vn -0.6572812 0.7532152 -0.0254606
vn 0.1915629 -0.8451797 -0.4989739
vn -0.1324176 -0.7946140 -0.5924982
vn -0.4387047 -0.6531258 -0.6172235
vn -0.6937252 -0.4380734 -0.5716967
vn -0.8699012 -0.1738094 -0.4615867
vn -0.9478199 0.1105469 -0.2990266
vn -0.9178952 0.3836025 -0.1015747
vn -0.7814520 0.6143426 0.1091604
vn 0.1800510 -0.9399663 -0.2899051
vn -0.1529149 -0.9633841 -0.2202458
vn -0.4657633 -0.8759202 -0.1258107
vn -0.7242400 -0.6893255 -0.0175154
vn -0.9004160 -0.4250615 0.0925946
vn -0.9748785 -0.1122475 0.1923863
vn -0.9383925 0.2148325 0.2706778
vn -0.7929639 0.5195560 0.3182292
vn 0.2855950 -0.9544617 -0.0862457
vn 0.0350090 -0.9891935 0.1423750
vn -0.2176838 -0.9099914 0.3528873
vn -0.4444731 -0.7277486 0.5223271
vn -0.6206491 -0.4634846 0.6324371
vn -0.7267990 -0.1463187 0.6710843
vn -0.7504687 0.1890231 0.6332986
vn -0.6874199 0.5050606 0.5218886
vn 0.4678807 -0.8831291 0.0342133
vn 0.3595735 -0.8621839 0.3568553
vn 0.2107758 -0.7423253 0.6360242
vn 0.0387140 -0.5386664 0.8416292
vn -0.1374620 -0.2744024 0.9517392
vn -0.2983393 0.0213474 0.9542211
vn -0.4259042 0.3160326 0.8477789
vn -0.5051341 0.5763932 0.6423476
vn 0.6572812 -0.7532152 0.0254606
vn 0.6968061 -0.6308688 0.3412710
vn 0.6559586 -0.4369647 0.6154512
vn 0.5407603 -0.1943019 0.8184284
vn 0.3645843 0.0699621 0.9285384
vn 0.1468435 0.3267080 0.9336481
vn -0.0886716 0.5473477 0.8321946
vn -0.3157336 0.7063071 0.6335949
f 2//2 1//1 11//11
f 2//2 11//11 3//3
f 3//3 11//11 12//12
f 3//3 12//12 4//4
f 4//4 12//12 13//13
f 4//4 13//13 5//5
f 5//5 13//13 14//14
f 5//5 14//14 6//6
f 6//6 14//14 15//15
f 6//6 15//15 7//7
f 7//7 15//15 16//16
f 7//7 16//16 8//8
f 8//8 16//16 17//17
f 8//8 17//17 9//9
f 9//9 17//17 18//18
f 9//9 18//18 10//10
f 11//11 1//1 19//19
f 11//11 19//19 12//12
f 12//12 19//19 20//20
f 12//12 20//20 13//13
f 13//13 20//20 21//21
f 13//13 21//21 14//14
f 14//14 21//21 22//22
f 14//14 22//22 15//15
f 15//15 22//22 23//23
f 15//15 23//23 16//16
f 16//16 23//23 24//24
f 16//16 24//24 17//17
f 17//17 24//24 25//25
f 17//17 25//25 18//18
f 18//18 25//25 26//26
f 18//18 26//26 10//10
f 19//19 1//1 27//27
f 19//19 27//27 20//20
f 20//20 27//27 28//28
f 20//20 28//28 21//21
f 21//21 28//28 29//29
f 21//21 29//29 22//22
f 22//22 29//29 30//30
f 22//22 30//30 23//23
f 23//23 30//30 31//31
f 23//23 31//31 24//24
f 24//24 31//31 32//32
f 24//24 32//32 25//25
f 25//25 32//32 33//33
f 25//25 33//33 26//26
f 26//26 33//33 34//34
f 26//26 34//34 10//10
f 27//27 1//1 35//35
f 27//27 35//35 28//28
f 28//28 35//35 36//36
f 28//28 36//36 29//29
f 29//29 36//36 37//37
f 29//29 37//37 30//30
f 30//30 37//37 38//38
f 30//30 38//38 31//31
f 31//31 38//38 39//39
f 31//31 39//39 32//32
f 32//32 39//39 40//40
f 32//32 40//40 33//33
f 33//33 40//40 41//41
f 33//33 41//41 34//34
f 34//34 41//41 42//42
f 34//34 42//42 10//10
f 35//35 1//1 43//43
f 35//35 43//43 36//36
f 36//36 43//43 44//44
f 36//36 44//44 37//37
f 37//37 44//44 45//45
f 37//37 45//45 38//38
f 38//38 45//45 46//46
f 38//38 46//46 39//39
f 39//39 46//46 47//47
f 39//39 47//47 40//40
f 40//40 47//47 48//48
f 40//40 48//48 41//41
f 41//41 48//48 49//49
f 41//41 49//49 42//42
f 42//42 49//49 50//50
f 42//42 50//50 10//10
f 43//43 1//1 51//51
f 43//43 51//51 44//44
f 44//44 51//51 52//52
f 44//44 52//52 45//45
f 45//45 52//52 53//53
f 45//45 53//53 46//46
f 46//46 53//53 54//54
f 46//46 54//54 47//47
f 47//47 54//54 55//55
f 47//47 55//55 48//48
f 48//48 55//55 56//56
f 48//48 56//56 49//49
f 49//49 56//56 57//57
f 49//49 57//57 50//50
f 50//50 57//57 58//58
f 50//50 58//58 10//10
f 51//51 1//1 59//59
f 51//51 59//59 52//52
f 52//52 59//59 60//60
f 52//52 60//60 53//53
f 53//53 60//60 61//61
f 53//53 61//61 54//54
f 54//54 61//61 62//62
f 54//54 62//62 55//55
f 55//55 62//62 63//63
f 55//55 63//63 56//56
f 56//56 63//63 64//64
f 56//56 64//64 57//57
f 57//57 64//64 65//65
f 57//57 65//65 58//58
f 58//58 65//65 66//66
f 58//58 66//66 10//10
f 59//59 1//1 67//67
f 59//59 67//67 60//60
f 60//60 67//67 68//68
f 60//60 68//68 61//61
f 61//61 68//68 69//69
f 61//61 69//69 62//62
f 62//62 69//69 70//70
f 62//62 70//70 63//63
f 63//63 70//70 71//71
f 63//63 71//71 64//64
f 64//64 71//71 72//72
f 64//64 72//72 65//65
f 65//65 72//72 73//73
f 65//65 73//73 66//66
f 66//66 73//73 74//74
f 66//66 74//74 10//10
f 67//67 1//1 75//75
f 67//67 75//75 68//68
f 68//68 75//75 76//76
f 68//68 76//76 69//69
f 69//69 76//76 77//77
f 69//69 77//77 70//70
f 70//70 77//77 78//78
f 70//70 78//78 71//71
f 71//71 78//78 79//79
f 71//71 79//79 72//72
f 72//72 79//79 80//80
f 72//72 80//80 73//73
f 73//73 80//80 81//81
f 73//73 81//81 74//74
f 74//74 81//81 82//82
f 74//74 82//82 10//10
f 75//75 1//1 2//2
f 75//75 2//2 76//76
f 76//76 2//2 3//3
f 76//76 3//3 77//77
f 77//77 3//3 4//4
f 77//77 4//4 78//78
f 78//78 4//4 5//5
f 78//78 5//5 79//79
f 79//79 5//5 6//6
f 79//79 6//6 80//80
f 80//80 6//6 7//7
f 80//80 7//7 81//81
f 81//81 7//7 8//8
f 81//81 8//8 82//82
f 82//82 8//8 9//9
f 82//82 9//9 10//10

