# https://github.com/mikedh/trimesh
v -0.0691176 1.5108761 0.1341239
v -0.0685190 1.5110616 0.1327684
v -0.0674958 1.5111191 0.1316821
v -0.0661717 1.5110416 0.1309960
v -0.0647062 1.5108385 0.1307928
v -0.0162762 1.5005342 0.1410971
v -0.0150540 1.5001655 0.1418721
v -0.0141873 1.4997769 0.1430244
v -0.0137803 1.4994151 0.1444149
v -0.0138824 1.4991239 0.1458761
v -0.0684458 1.5118507 0.1332135
v -0.0673583 1.5126022 0.1325186
v -0.0659863 1.5130397 0.1321230
v -0.0644954 1.5131106 0.1320744
v -0.0160654 1.5028064 0.1423786
v -0.0148687 1.5021636 0.1429991
v -0.0140497 1.5012599 0.1438609
v -0.0137071 1.5002042 0.1448600
v -0.0685343 1.5122474 0.1340265
v -0.0675248 1.5133476 0.1340466
v -0.0662106 1.5140441 0.1341816
v -0.0647505 1.5142528 0.1344153
v -0.0163205 1.5039485 0.1447196
v -0.0150930 1.5031680 0.1450577
v -0.0142162 1.5020054 0.1453888
v -0.0137957 1.5006009 0.1456730
v -0.0687509 1.5121001 0.1348969
v -0.0679317 1.5130707 0.1356823
v -0.0667589 1.5136710 0.1363855
v -0.0653740 1.5138286 0.1369215
v -0.0169440 1.5035243 0.1472258
v -0.0156413 1.5027950 0.1472616
v -0.0146231 1.5017285 0.1470246
v -0.0140123 1.5004536 0.1465434
v -0.0690126 1.5114651 0.1354922
v -0.0684237 1.5118773 0.1368012
v -0.0674218 1.5120631 0.1378929
v -0.0661277 1.5120001 0.1386356
v -0.0176977 1.5016958 0.1489399
v -0.0163041 1.5011870 0.1487689
v -0.0151151 1.5005351 0.1481434
v -0.0142740 1.4998185 0.1471387
v -0.0692197 1.5105849 0.1355851
v -0.0688127 1.5102231 0.1369756
v -0.0679460 1.5098345 0.1381279
v -0.0667238 1.5094658 0.1389029
v -0.0182938 1.4991615 0.1492072
v -0.0168283 1.4989584 0.1490040
v -0.0155042 1.4988809 0.1483179
v -0.0144810 1.4989384 0.1472316
v -0.0692929 1.5097958 0.1351400
v -0.0689503 1.5087401 0.1361391
v -0.0681313 1.5078364 0.1370009
v -0.0669346 1.5071936 0.1376214
v -0.0185046 1.4968894 0.1479256
v -0.0170137 1.4969603 0.1478770
v -0.0156417 1.4973978 0.1474814
v -0.0145542 1.4981493 0.1467865
v -0.0692043 1.5093991 0.1343270
v -0.0687838 1.5079946 0.1346112
v -0.0679070 1.5068320 0.1349423
v -0.0666795 1.5060515 0.1352804
v -0.0182495 1.4957472 0.1455847
v -0.0167894 1.4959559 0.1458184
v -0.0154752 1.4966524 0.1459534
v -0.0144657 1.4977526 0.1459735
v -0.0689877 1.5095464 0.1334566
v -0.0683769 1.5082715 0.1329754
v -0.0673587 1.5072050 0.1327384
v -0.0660560 1.5064757 0.1327742
v -0.0176260 1.4961714 0.1430785
v -0.0162411 1.4963290 0.1436145
v -0.0150683 1.4969293 0.1443177
v -0.0142491 1.4978999 0.1451031
v -0.0687260 1.5101815 0.1328613
v -0.0678849 1.5094649 0.1318566
v -0.0666959 1.5088130 0.1312311
v -0.0653023 1.5083042 0.1310601
v -0.0168723 1.4979999 0.1413644
v -0.0155782 1.4979369 0.1421071
v -0.0145763 1.4981227 0.1431988
v -0.0139874 1.4985349 0.1445078
vn -0.9575897 0.2037425 -0.2037425
vn -0.8003138 0.2494051 -0.5452476
vn -0.5598369 0.2599994 -0.7867547
vn -0.2568678 0.2406361 -0.9360092
vn 0.0738910 0.1940177 -0.9782113
vn 0.3957859 0.1255294 -0.9097230
vn 0.6733474 0.0427180 -0.7380911
vn 0.8753263 -0.0453545 -0.4814009
vn 0.9775027 -0.1288537 -0.1669888
vn 0.9575897 -0.2037425 0.2037425
vn -0.7818046 0.4489469 -0.4326987
vn -0.5268809 0.6152888 -0.5863584
vn -0.2133624 0.7096559 -0.6714648
vn 0.1229533 0.7229457 -0.6798764
vn 0.4448483 0.6544575 -0.6113881
vn 0.7168528 0.5117378 -0.4735466
vn 0.9082823 0.3099349 -0.2810046
vn 0.9960118 0.0706881 -0.0544399
vn -0.8042054 0.5492473 -0.2271146
vn -0.5667661 0.7938762 -0.2203106
vn -0.2660151 0.9454103 -0.1882426
vn 0.0635753 0.9888132 -0.1349320
vn 0.3854702 0.9203249 -0.0664437
vn 0.6642001 0.7474922 0.0096755
vn 0.8683971 0.4885224 0.0850433
vn 0.9736110 0.1709885 0.1511442
vn -0.8589598 0.5119949 -0.0070214
vn -0.6642577 0.7275473 0.1715711
vn -0.3947144 0.8578491 0.3290828
vn -0.0815629 0.8900677 0.4484718
vn 0.2403321 0.8215794 0.5169601
vn 0.5355008 0.6599310 0.5270009
vn 0.7709055 0.4221935 0.4769249
vn 0.9188566 0.1337361 0.3712374
vn -0.9251535 0.3514188 0.1435127
vn -0.7821172 0.4416375 0.4396010
vn -0.5503015 0.4804177 0.6829108
vn -0.2570232 0.4644267 0.8474945
vn 0.0648717 0.3959384 0.9159828
vn 0.3799137 0.2824995 0.8808289
vn 0.6530460 0.1362836 0.7449549
vn 0.8526630 -0.0268400 0.5217715
vn -0.9775027 0.1288537 0.1669888
vn -0.8753263 0.0453545 0.4814009
vn -0.6733474 -0.0427180 0.7380911
vn -0.3957859 -0.1255294 0.9097230
vn -0.0738910 -0.1940177 0.9782113
vn 0.2568678 -0.2406361 0.9360092
vn 0.5598369 -0.2599994 0.7867547
vn 0.8003138 -0.2494051 0.5452476
vn -0.9960118 -0.0706881 0.0544399
vn -0.9082823 -0.3099349 0.2810046
vn -0.7168528 -0.5117378 0.4735466
vn -0.4448483 -0.6544575 0.6113881
vn -0.1229533 -0.7229457 0.6798764
vn 0.2133624 -0.7096559 0.6714648
vn 0.5268809 -0.6152888 0.5863584
vn 0.7818046 -0.4489469 0.4326987
vn -0.9736110 -0.1709885 -0.1511442
vn -0.8683971 -0.4885224 -0.0850433
vn -0.6642001 -0.7474922 -0.0096755
vn -0.3854702 -0.9203249 0.0664437
vn -0.0635753 -0.9888132 0.1349320
vn 0.2660151 -0.9454103 0.1882426
vn 0.5667661 -0.7938762 0.2203106
vn 0.8042054 -0.5492473 0.2271146
vn -0.9188566 -0.1337361 -0.3712374
vn -0.7709055 -0.4221935 -0.4769249
vn -0.5355008 -0.6599310 -0.5270009
vn -0.2403321 -0.8215794 -0.5169601
vn 0.0815629 -0.8900677 -0.4484718
vn 0.3947144 -0.8578491 -0.3290828
vn 0.6642577 -0.7275473 -0.1715711
vn 0.8589598 -0.5119949 0.0070214
vn -0.8526630 0.0268400 -0.5217715
vn -0.6530460 -0.1362836 -0.7449549
vn -0.3799137 -0.2824995 -0.8808289
vn -0.0648717 -0.3959384 -0.9159828
vn 0.2570232 -0.4644267 -0.8474945
vn 0.5503015 -0.4804177 -0.6829108
vn 0.7821172 -0.4416375 -0.4396010
vn 0.9251535 -0.3514188 -0.1435127
f 2//2 1//1 11//11
f 2//2 11//11 3//3
f 3//3 11//11 12//12
f 3//3 12//12 4//4
f 4//4 12//12 13//13
f 4//4 13//13 5//5
f 5//5 13//13 14//14
f 5//5 14//14 6//6
f 6//6 14//14 15//15
f 6//6 15//15 7//7
f 7//7 15//15 16//16
f 7//7 16//16 8//8
f 8//8 16//16 17//17
f 8//8 17//17 9//9
f 9//9 17//17 18//18
f 9//9 18//18 10//10
f 11//11 1//1 19//19
f 11//11 19//19 12//12
f 12//12 19//19 20//20
f 12//12 20//20 13//13
f 13//13 20//20 21//21
f 13//13 21//21 14//14
f 14//14 21//21 22//22
f 14//14 22//22 15//15
f 15//15 22//22 23//23
f 15//15 23//23 16//16
f 16//16 23//23 24//24
f 16//16 24//24 17//17
f 17//17 24//24 25//25
f 17//17 25//25 18//18
f 18//18 25//25 26//26
f 18//18 26//26 10//10
f 19//19 1//1 27//27
f 19//19 27//27 20//20
f 20//20 27//27 28//28
f 20//20 28//28 21//21
f 21//21 28//28 29//29
f 21//21 29//29 22//22
f 22//22 29//29 30//30
f 22//22 30//30 23//23
f 23//23 30//30 31//31
f 23//23 31//31 24//24
f 24//24 31//31 32//32
f 24//24 32//32 25//25
f 25//25 32//32 33//33
f 25//25 33//33 26//26
f 26//26 33//33 34//34
f 26//26 34//34 10//10
f 27//27 1//1 35//35
f 27//27 35//35 28//28
f 28//28 35//35 36//36
f 28//28 36//36 29//29
f 29//29 36//36 37//37
f 29//29 37//37 30//30
f 30//30 37//37 38//38
f 30//30 38//38 31//31
f 31//31 38//38 39//39
f 31//31 39//39 32//32
f 32//32 39//39 40//40
f 32//32 40//40 33//33
f 33//33 40//40 41//41
f 33//33 41//41 34//34
f 34//34 41//41 42//42
f 34//34 42//42 10//10
f 35//35 1//1 43//43
f 35//35 43//43 36//36
f 36//36 43//43 44//44
f 36//36 44//44 37//37
f 37//37 44//44 45//45
f 37//37 45//45 38//38
f 38//38 45//45 46//46
f 38//38 46//46 39//39
f 39//39 46//46 47//47
f 39//39 47//47 40//40
f 40//40 47//47 48//48
f 40//40 48//48 41//41
f 41//41 48//48 49//49
f 41//41 49//49 42//42
f 42//42 49//49 50//50
f 42//42 50//50 10//10
f 43//43 1//1 51//51
f 43//43 51//51 44//44
f 44//44 51//51 52//52
f 44//44 52//52 45//45
f 45//45 52//52 53//53
f 45//45 53//53 46//46
f 46//46 53//53 54//54
f 46//46 54//54 47//47
f 47//47 54//54 55//55
f 47//47 55//55 48//48
f 48//48 55//55 56//56
f 48//48 56//56 49//49
f 49//49 56//56 57//57
f 49//49 57//57 50//50
f 50//50 57//57 58//58
f 50//50 58//58 10//10
f 51//51 1//1 59//59
f 51//51 59//59 52//52
f 52//52 59//59 60//60
f 52//52 60//60 53//53
f 53//53 60//60 61//61
f 53//53 61//61 54//54
f 54//54 61//61 62//62
f 54//54 62//62 55//55
f 55//55 62//62 63//63
f 55//55 63//63 56//56
f 56//56 63//63 64//64
f 56//56 64//64 57//57
f 57//57 64//64 65//65
f 57//57 65//65 58//58
f 58//58 65//65 66//66
f 58//58 66//66 10//10
f 59//59 1//1 67//67
f 59//59 67//67 60//60
f 60//60 67//67 68//68
f 60//60 68//68 61//61
f 61//61 68//68 69//69
f 61//61 69//69 62//62
f 62//62 69//69 70//70
f 62//62 70//70 63//63
f 63//63 70//70 71//71
f 63//63 71//71 64//64
f 64//64 71//71 72//72
f 64//64 72//72 65//65
f 65//65 72//72 73//73
f 65//65 73//73 66//66
f 66//66 73//73 74//74
f 66//66 74//74 10//10
f 67//67 1//1 75//75
f 67//67 75//75 68//68
f 68//68 75//75 76//76
f 68//68 76//76 69//69
f 69//69 76//76 77//77
f 69//69 77//77 70//70
f 70//70 77//77 78//78
f 70//70 78//78 71//71
f 71//71 78//78 79//79
f 71//71 79//79 72//72
f 72//72 79//79 80//80
f 72//72 80//80 73//73
f 73//73 80//80 81//81
f 73//73 81//81 74//74
f 74//74 81//81 82//82
f 74//74 82//82 10//10
f 75//75 1//1 2//2
f 75//75 2//2 76//76
f 76//76 2//2 3//3
f 76//76 3//3 77//77
f 77//77 3//3 4//4
f 77//77 4//4 78//78
f 78//78 4//4 5//5
f 78//78 5//5 79//79
f 79//79 5//5 6//6
f 79//79 6//6 80//80
f 80//80 6//6 7//7
f 80//80 7//7 81//81
f 81//81 7//7 8//8
f 81//81 8//8 82//82
f 82//82 8//8 9//9
f 82//82 9//9 10//10

