# https://github.com/mikedh/trimesh
v -0.1197387 -0.5420044 0.0599477
v -0.1174978 -0.5424014 0.0600235
v -0.1154596 -0.5434140 0.0600973
v -0.1137893 -0.5449601 0.0601632
v -0.1126221 -0.5469145 0.0602160
v -0.1120526 -0.5491189 0.0602512
v -0.1621270 -2.0813947 0.0702661
v -0.1628392 -2.0835575 0.0702594
v -0.1641315 -2.0854321 0.0702317
v -0.1658993 -2.0868666 0.0701852
v -0.1679992 -2.0877448 0.0701238
v -0.1702613 -2.0879956 0.0700523
v -0.1178360 -0.5423831 0.0611399
v -0.1161086 -0.5433788 0.0622397
v -0.1146965 -0.5449109 0.0631581
v -0.1137140 -0.5468553 0.0638206
v -0.1132408 -0.5490545 0.0641736
v -0.1633152 -2.0813302 0.0741885
v -0.1639311 -2.0834982 0.0738641
v -0.1650387 -2.0853828 0.0732266
v -0.1665482 -2.0868314 0.0723277
v -0.1683374 -2.0877264 0.0712402
v -0.1186869 -0.5423500 0.0619375
v -0.1177414 -0.5433154 0.0637703
v -0.1169789 -0.5448223 0.0652976
v -0.1164612 -0.5467487 0.0663957
v -0.1162301 -0.5489385 0.0669758
v -0.1663045 -2.0812142 0.0769906
v -0.1666783 -2.0833916 0.0764392
v -0.1673211 -2.0852943 0.0753660
v -0.1681810 -2.0867680 0.0738582
v -0.1691883 -2.0876934 0.0720378
v -0.1198224 -0.5423112 0.0622025
v -0.1199205 -0.5432409 0.0642788
v -0.1200250 -0.5447181 0.0660084
v -0.1201275 -0.5466233 0.0672513
v -0.1202196 -0.5488020 0.0679067
v -0.1702940 -2.0810778 0.0779216
v -0.1703446 -2.0832662 0.0772947
v -0.1703672 -2.0851901 0.0760769
v -0.1703601 -2.0866935 0.0743667
v -0.1703238 -2.0876546 0.0723028
v -0.1209383 -0.5422769 0.0618639
v -0.1220619 -0.5431751 0.0636290
v -0.1230185 -0.5446262 0.0651001
v -0.1237305 -0.5465127 0.0661581
v -0.1241403 -0.5486816 0.0667171
v -0.1742147 -2.0809574 0.0767320
v -0.1739476 -2.0831556 0.0762015
v -0.1733607 -2.0850982 0.0751686
v -0.1725016 -2.0866277 0.0737169
v -0.1714397 -2.0876203 0.0719642
v -0.1217357 -0.5422565 0.0610124
v -0.1235920 -0.5431358 0.0619951
v -0.1251574 -0.5445713 0.0628161
v -0.1263049 -0.5464465 0.0634090
v -0.1269416 -0.5486096 0.0637257
v -0.1770160 -2.0808854 0.0737405
v -0.1765220 -2.0830895 0.0734524
v -0.1754996 -2.0850432 0.0728845
v -0.1740316 -2.0865884 0.0720830
v -0.1722371 -2.0875998 0.0711127
v -0.1220008 -0.5422552 0.0598762
v -0.1241007 -0.5431334 0.0598148
v -0.1258685 -0.5445679 0.0597683
v -0.1271608 -0.5464425 0.0597406
v -0.1278730 -0.5486053 0.0597339
v -0.1779474 -2.0808811 0.0697488
v -0.1773779 -2.0830855 0.0697840
v -0.1762107 -2.0850399 0.0698368
v -0.1745404 -2.0865860 0.0699027
v -0.1725022 -2.0875986 0.0699765
v -0.1216626 -0.5422736 0.0587598
v -0.1234518 -0.5431686 0.0576723
v -0.1249613 -0.5446172 0.0567734
v -0.1260689 -0.5465018 0.0561359
v -0.1266848 -0.5486698 0.0558115
v -0.1767592 -2.0809455 0.0658264
v -0.1762860 -2.0831447 0.0661794
v -0.1753035 -2.0850891 0.0668419
v -0.1738914 -2.0866212 0.0677603
v -0.1721640 -2.0876169 0.0688601
v -0.1208117 -0.5423066 0.0579622
v -0.1218190 -0.5432320 0.0561418
v -0.1226789 -0.5447057 0.0546340
v -0.1233217 -0.5466084 0.0535608
v -0.1236955 -0.5487858 0.0530094
v -0.1737699 -2.0810615 0.0630242
v -0.1735388 -2.0832513 0.0636043
v -0.1730211 -2.0851777 0.0647024
v -0.1722586 -2.0866846 0.0662297
v -0.1713131 -2.0876500 0.0680625
v -0.1196762 -0.5423454 0.0576972
v -0.1196399 -0.5433065 0.0556333
v -0.1196328 -0.5448099 0.0539231
v -0.1196554 -0.5467338 0.0527053
v -0.1197060 -0.5489222 0.0520784
v -0.1697804 -2.0811980 0.0620933
v -0.1698725 -2.0833767 0.0627487
v -0.1699750 -2.0852819 0.0639916
v -0.1700795 -2.0867591 0.0657212
v -0.1701776 -2.0876888 0.0677975
v -0.1185603 -0.5423797 0.0580358
v -0.1174984 -0.5433723 0.0562831
v -0.1166393 -0.5449018 0.0548314
v -0.1160524 -0.5468444 0.0537985
v -0.1157853 -0.5490426 0.0532680
v -0.1658597 -2.0813184 0.0632829
v -0.1662695 -2.0834873 0.0638419
v -0.1669815 -2.0853738 0.0648999
v -0.1679381 -2.0868249 0.0663710
v -0.1690617 -2.0877231 0.0681361
v -0.1177629 -0.5424002 0.0588873
v -0.1159684 -0.5434116 0.0579170
v -0.1145004 -0.5449568 0.0571155
v -0.1134780 -0.5469105 0.0565476
v -0.1129840 -0.5491146 0.0562595
v -0.1630584 -2.0813904 0.0662743
v -0.1636951 -2.0835535 0.0665910
v -0.1648426 -2.0854287 0.0671839
v -0.1664080 -2.0868642 0.0680049
v -0.1682643 -2.0877435 0.0689876
vn 0.0326616 0.9994451 -0.0065323
vn 0.3340551 0.9425464 0.0036800
vn 0.5834871 0.8120220 0.0127655
vn 0.7857123 0.6182423 0.0207997
vn 0.9258402 0.3769367 0.0271798
vn 0.9937700 0.1069255 0.0314352
vn 0.9846823 -0.1711580 0.0332528
vn 0.8992674 -0.4361907 0.0324944
vn 0.7436817 -0.6678957 0.0292058
vn 0.5292332 -0.8481477 0.0236163
vn 0.2718079 -0.9622163 0.0161294
vn -0.0326616 -0.9994451 0.0065323
vn 0.2885524 0.9450152 0.1538953
vn 0.4999176 0.8165562 0.2886491
vn 0.6708490 0.6244744 0.3999917
vn 0.7887676 0.3843738 0.4796899
vn 0.8451807 0.1149874 0.5219650
vn 0.8360930 -0.1630961 0.5237826
vn 0.7621948 -0.4287536 0.4850045
vn 0.6288183 -0.6616636 0.4083978
vn 0.4456637 -0.8436135 0.2994999
vn 0.2263053 -0.9597475 0.1663448
vn 0.1740720 0.9494578 0.2612066
vn 0.2896642 0.8247154 0.4857357
vn 0.3818633 0.6356889 0.6708801
vn 0.4439055 0.3977566 0.8029555
vn 0.4713434 0.1294947 0.8723913
vn 0.4622557 -0.1485888 0.8742088
vn 0.4173327 -0.4153708 0.8082701
vn 0.3398326 -0.6504491 0.6792862
vn 0.2354103 -0.8354543 0.4965865
vn 0.1118248 -0.9553050 0.2736561
vn 0.0212886 0.9546837 0.2968599
vn 0.0090641 0.8343133 0.5512160
vn -0.0038114 0.6488809 0.7608805
vn -0.0163406 0.4134993 0.9103578
vn -0.0275724 0.1465601 0.9888174
vn -0.0366601 -0.1315234 0.9906350
vn -0.0429134 -0.3996281 0.9156724
vn -0.0458420 -0.6372571 0.7692866
vn -0.0451898 -0.8258564 0.5620668
vn -0.0409586 -0.9500790 0.3093093
vn -0.1288595 0.9592927 0.2513019
vn -0.2666960 0.8427782 0.4675448
vn -0.3828337 0.6605156 0.6458774
vn -0.4686482 0.4273836 0.7731184
vn -0.5178827 0.1616109 0.8400473
vn -0.5269704 -0.1164725 0.8418648
vn -0.4952210 -0.3857438 0.7784330
vn -0.4248644 -0.6256224 0.6542835
vn -0.3209499 -0.8173915 0.4783956
vn -0.1911067 -0.9454700 0.2637513
vn -0.2361403 0.9620499 0.1367399
vn -0.4637265 0.8478419 0.2571415
vn -0.6536450 0.6674755 0.3566857
vn -0.7918218 0.4356892 0.4280106
vn -0.8682092 0.1706144 0.4659436
vn -0.8772969 -0.1074691 0.4677611
vn -0.8183946 -0.3774381 0.4333251
vn -0.6956757 -0.6186625 0.3650918
vn -0.5179804 -0.8123278 0.2679923
vn -0.2983874 -0.9427128 0.1491893
vn -0.2718079 0.9622163 -0.0161294
vn -0.5292332 0.8481477 -0.0236163
vn -0.7436817 0.6678957 -0.0292058
vn -0.8992674 0.4361907 -0.0324944
vn -0.9846823 0.1711580 -0.0332528
vn -0.9937700 -0.1069255 -0.0314352
vn -0.9258402 -0.3769367 -0.0271798
vn -0.7857123 -0.6182423 -0.0207997
vn -0.5834871 -0.8120220 -0.0127655
vn -0.3340551 -0.9425464 -0.0036800
vn -0.2263053 0.9597475 -0.1663448
vn -0.4456637 0.8436135 -0.2994999
vn -0.6288183 0.6616636 -0.4083978
vn -0.7621948 0.4287536 -0.4850045
vn -0.8360930 0.1630961 -0.5237826
vn -0.8451807 -0.1149874 -0.5219650
vn -0.7887676 -0.3843738 -0.4796899
vn -0.6708490 -0.6244744 -0.3999917
vn -0.4999176 -0.8165562 -0.2886491
vn -0.2885524 -0.9450152 -0.1538953
vn -0.1118248 0.9553050 -0.2736561
vn -0.2354103 0.8354543 -0.4965865
vn -0.3398326 0.6504491 -0.6792862
vn -0.4173327 0.4153708 -0.8082701
vn -0.4622557 0.1485888 -0.8742088
vn -0.4713434 -0.1294947 -0.8723913
vn -0.4439055 -0.3977566 -0.8029555
vn -0.3818633 -0.6356889 -0.6708801
vn -0.2896642 -0.8247154 -0.4857357
vn -0.1740720 -0.9494578 -0.2612066
vn 0.0409586 0.9500790 -0.3093093
vn 0.0451898 0.8258564 -0.5620668
vn 0.0458420 0.6372571 -0.7692866
vn 0.0429134 0.3996281 -0.9156724
vn 0.0366601 0.1315234 -0.9906350
vn 0.0275724 -0.1465601 -0.9888174
vn 0.0163406 -0.4134993 -0.9103578
vn 0.0038114 -0.6488809 -0.7608805
vn -0.0090641 -0.8343133 -0.5512160
vn -0.0212886 -0.9546837 -0.2968599
vn 0.1911067 0.9454700 -0.2637513
vn 0.3209499 0.8173915 -0.4783956
vn 0.4248644 0.6256224 -0.6542835
vn 0.4952210 0.3857438 -0.7784330
vn 0.5269704 0.1164725 -0.8418648
vn 0.5178827 -0.1616109 -0.8400473
vn 0.4686482 -0.4273836 -0.7731184
vn 0.3828337 -0.6605156 -0.6458774
vn 0.2666960 -0.8427782 -0.4675448
vn 0.1288595 -0.9592927 -0.2513019
vn 0.2983874 0.9427128 -0.1491893
vn 0.5179804 0.8123278 -0.2679923
vn 0.6956757 0.6186625 -0.3650918
vn 0.8183946 0.3774381 -0.4333251
vn 0.8772969 0.1074691 -0.4677611
vn 0.8682092 -0.1706144 -0.4659436
vn 0.7918218 -0.4356892 -0.4280106
vn 0.6536450 -0.6674755 -0.3566857
vn 0.4637265 -0.8478419 -0.2571415
vn 0.2361403 -0.9620499 -0.1367399
f 2//2 1//1 13//13
f 2//2 13//13 3//3
f 3//3 13//13 14//14
f 3//3 14//14 4//4
f 4//4 14//14 15//15
f 4//4 15//15 5//5
f 5//5 15//15 16//16
f 5//5 16//16 6//6
f 6//6 16//16 17//17
f 6//6 17//17 7//7
f 7//7 17//17 18//18
f 7//7 18//18 8//8
f 8//8 18//18 19//19
f 8//8 19//19 9//9
f 9//9 19//19 20//20
f 9//9 20//20 10//10
f 10//10 20//20 21//21
f 10//10 21//21 11//11
f 11//11 21//21 22//22
f 11//11 22//22 12//12
f 13//13 1//1 23//23
f 13//13 23//23 14//14
f 14//14 23//23 24//24
f 14//14 24//24 15//15
f 15//15 24//24 25//25
f 15//15 25//25 16//16
f 16//16 25//25 26//26
f 16//16 26//26 17//17
f 17//17 26//26 27//27
f 17//17 27//27 18//18
f 18//18 27//27 28//28
f 18//18 28//28 19//19
f 19//19 28//28 29//29
f 19//19 29//29 20//20
f 20//20 29//29 30//30
f 20//20 30//30 21//21
f 21//21 30//30 31//31
f 21//21 31//31 22//22
f 22//22 31//31 32//32
f 22//22 32//32 12//12
f 23//23 1//1 33//33
f 23//23 33//33 24//24
f 24//24 33//33 34//34
f 24//24 34//34 25//25
f 25//25 34//34 35//35
f 25//25 35//35 26//26
f 26//26 35//35 36//36
f 26//26 36//36 27//27
f 27//27 36//36 37//37
f 27//27 37//37 28//28
f 28//28 37//37 38//38
f 28//28 38//38 29//29
f 29//29 38//38 39//39
f 29//29 39//39 30//30
f 30//30 39//39 40//40
f 30//30 40//40 31//31
f 31//31 40//40 41//41
f 31//31 41//41 32//32
f 32//32 41//41 42//42
f 32//32 42//42 12//12
f 33//33 1//1 43//43
f 33//33 43//43 34//34
f 34//34 43//43 44//44
f 34//34 44//44 35//35
f 35//35 44//44 45//45
f 35//35 45//45 36//36
f 36//36 45//45 46//46
f 36//36 46//46 37//37
f 37//37 46//46 47//47
f 37//37 47//47 38//38
f 38//38 47//47 48//48
f 38//38 48//48 39//39
f 39//39 48//48 49//49
f 39//39 49//49 40//40
f 40//40 49//49 50//50
f 40//40 50//50 41//41
f 41//41 50//50 51//51
f 41//41 51//51 42//42
f 42//42 51//51 52//52
f 42//42 52//52 12//12
f 43//43 1//1 53//53
f 43//43 53//53 44//44
f 44//44 53//53 54//54
f 44//44 54//54 45//45
f 45//45 54//54 55//55
f 45//45 55//55 46//46
f 46//46 55//55 56//56
f 46//46 56//56 47//47
f 47//47 56//56 57//57
f 47//47 57//57 48//48
f 48//48 57//57 58//58
f 48//48 58//58 49//49
f 49//49 58//58 59//59
f 49//49 59//59 50//50
f 50//50 59//59 60//60
f 50//50 60//60 51//51
f 51//51 60//60 61//61
f 51//51 61//61 52//52
f 52//52 61//61 62//62
f 52//52 62//62 12//12
f 53//53 1//1 63//63
f 53//53 63//63 54//54
f 54//54 63//63 64//64
f 54//54 64//64 55//55
f 55//55 64//64 65//65
f 55//55 65//65 56//56
f 56//56 65//65 66//66
f 56//56 66//66 57//57
f 57//57 66//66 67//67
f 57//57 67//67 58//58
f 58//58 67//67 68//68
f 58//58 68//68 59//59
f 59//59 68//68 69//69
f 59//59 69//69 60//60
f 60//60 69//69 70//70
f 60//60 70//70 61//61
f 61//61 70//70 71//71
f 61//61 71//71 62//62
f 62//62 71//71 72//72
f 62//62 72//72 12//12
f 63//63 1//1 73//73
f 63//63 73//73 64//64
f 64//64 73//73 74//74
f 64//64 74//74 65//65
f 65//65 74//74 75//75
f 65//65 75//75 66//66
f 66//66 75//75 76//76
f 66//66 76//76 67//67
f 67//67 76//76 77//77
f 67//67 77//77 68//68
f 68//68 77//77 78//78
f 68//68 78//78 69//69
f 69//69 78//78 79//79
f 69//69 79//79 70//70
f 70//70 79//79 80//80
f 70//70 80//80 71//71
f 71//71 80//80 81//81
f 71//71 81//81 72//72
f 72//72 81//81 82//82
f 72//72 82//82 12//12
f 73//73 1//1 83//83
f 73//73 83//83 74//74
f 74//74 83//83 84//84
f 74//74 84//84 75//75
f 75//75 84//84 85//85
f 75//75 85//85 76//76
f 76//76 85//85 86//86
f 76//76 86//86 77//77
f 77//77 86//86 87//87
f 77//77 87//87 78//78
f 78//78 87//87 88//88
f 78//78 88//88 79//79
f 79//79 88//88 89//89
f 79//79 89//89 80//80
f 80//80 89//89 90//90
f 80//80 90//90 81//81
f 81//81 90//90 91//91
f 81//81 91//91 82//82
f 82//82 91//91 92//92
f 82//82 92//92 12//12
f 83//83 1//1 93//93
f 83//83 93//93 84//84
f 84//84 93//93 94//94
f 84//84 94//94 85//85
f 85//85 94//94 95//95
f 85//85 95//95 86//86
f 86//86 95//95 96//96
f 86//86 96//96 87//87
f 87//87 96//96 97//97
f 87//87 97//97 88//88
f 88//88 97//97 98//98
f 88//88 98//98 89//89
f 89//89 98//98 99//99
f 89//89 99//99 90//90
f 90//90 99//99 100//100
f 90//90 100//100 91//91
f 91//91 100//100 101//101
f 91//91 101//101 92//92
f 92//92 101//101 102//102
f 92//92 102//102 12//12
f 93//93 1//1 103//103
f 93//93 103//103 94//94
f 94//94 103//103 104//104
f 94//94 104//104 95//95
f 95//95 104//104 105//105
f 95//95 105//105 96//96
f 96//96 105//105 106//106
f 96//96 106//106 97//97
f 97//97 106//106 107//107
f 97//97 107//107 98//98
f 98//98 107//107 108//108
f 98//98 108//108 99//99
f 99//99 108//108 109//109
f 99//99 109//109 100//100
f 100//100 109//109 110//110
f 100//100 110//110 101//101
f 101//101 110//110 111//111
f 101//101 111//111 102//102
f 102//102 111//111 112//112
f 102//102 112//112 12//12
f 103//103 1//1 113//113
f 103//103 113//113 104//104
f 104//104 113//113 114//114
f 104//104 114//114 105//105
f 105//105 114//114 115//115
f 105//105 115//115 106//106
f 106//106 115//115 116//116
f 106//106 116//116 107//107
f 107//107 116//116 117//117
f 107//107 117//117 108//108
f 108//108 117//117 118//118
f 108//108 118//118 109//109
f 109//109 118//118 119//119
f 109//109 119//119 110//110
f 110//110 119//119 120//120
f 110//110 120//120 111//111
f 111//111 120//120 121//121
f 111//111 121//121 112//112
f 112//112 121//121 122//122
f 112//112 122//122 12//12
f 113//113 1//1 2//2
f 113//113 2//2 114//114
f 114//114 2//2 3//3
f 114//114 3//3 115//115
f 115//115 3//3 4//4
f 115//115 4//4 116//116
f 116//116 4//4 5//5
f 116//116 5//5 117//117
f 117//117 5//5 6//6
f 117//117 6//6 118//118
f 118//118 6//6 7//7
f 118//118 7//7 119//119
f 119//119 7//7 8//8
f 119//119 8//8 120//120
f 120//120 8//8 9//9
f 120//120 9//9 121//121
f 121//121 9//9 10//10
f 121//121 10//10 122//122
f 122//122 10//10 11//11
f 122//122 11//11 12//12

