# https://github.com/mikedh/trimesh
v -0.0840889 1.2260297 -0.0200000
v -0.0801982 1.2268517 -0.0197433
v -0.0766966 1.2287390 -0.0195074
v -0.0738677 1.2315385 -0.0193114
v -0.0719406 1.2350235 -0.0191712
v -0.0710715 1.2389117 -0.0190982
v -0.0863309 1.4728881 -0.0190982
v -0.0876976 1.4766305 -0.0191712
v -0.0900610 1.4798357 -0.0193114
v -0.0932296 1.4822441 -0.0195074
v -0.0969467 1.4836606 -0.0197433
v -0.1009111 1.4839703 -0.0200000
v -0.0805964 1.2268258 -0.0217456
v -0.0774606 1.2286891 -0.0233499
v -0.0749356 1.2314688 -0.0246827
v -0.0732260 1.2349397 -0.0256362
v -0.0724703 1.2388205 -0.0261331
v -0.0877296 1.4727969 -0.0261331
v -0.0889830 1.4765467 -0.0256362
v -0.0911289 1.4797661 -0.0246827
v -0.0939935 1.4821943 -0.0233499
v -0.0973448 1.4836346 -0.0217456
v -0.0819402 1.2267381 -0.0232802
v -0.0800394 1.2285209 -0.0262947
v -0.0785405 1.2312337 -0.0287993
v -0.0775648 1.2346567 -0.0305909
v -0.0771916 1.2385126 -0.0315246
v -0.0924509 1.4724890 -0.0315246
v -0.0933218 1.4762637 -0.0305909
v -0.0947338 1.4795310 -0.0287993
v -0.0965723 1.4820261 -0.0262947
v -0.0986886 1.4835470 -0.0232802
v -0.0838697 1.2266123 -0.0239359
v -0.0837420 1.2282795 -0.0275529
v -0.0837162 1.2308962 -0.0305581
v -0.0837945 1.2342505 -0.0327079
v -0.0839704 1.2380705 -0.0338281
v -0.0992297 1.4720469 -0.0338281
v -0.0995515 1.4758574 -0.0327079
v -0.0999095 1.4791934 -0.0305581
v -0.1002749 1.4817846 -0.0275529
v -0.1006181 1.4834211 -0.0239359
v -0.0858677 1.2264820 -0.0235369
v -0.0875763 1.2280294 -0.0267873
v -0.0890761 1.2305466 -0.0294878
v -0.0902458 1.2338297 -0.0314197
v -0.0909904 1.2376127 -0.0324264
v -0.1062497 1.4715891 -0.0324264
v -0.1060027 1.4754367 -0.0314197
v -0.1052694 1.4788439 -0.0294878
v -0.1041092 1.4815346 -0.0267873
v -0.1026161 1.4832908 -0.0235369
v -0.0873991 1.2263821 -0.0221902
v -0.0905149 1.2278378 -0.0242031
v -0.0931840 1.2302787 -0.0258754
v -0.0951900 1.2335073 -0.0270717
v -0.0963705 1.2372618 -0.0276951
v -0.1116298 1.4712382 -0.0276951
v -0.1109470 1.4751142 -0.0270717
v -0.1093773 1.4785760 -0.0258754
v -0.1070479 1.4813429 -0.0242031
v -0.1041475 1.4831910 -0.0221902
v -0.0880533 1.2263394 -0.0202567
v -0.0917704 1.2277559 -0.0204926
v -0.0949390 1.2301643 -0.0206886
v -0.0973024 1.2333695 -0.0208288
v -0.0986691 1.2371119 -0.0209018
v -0.1139285 1.4710883 -0.0209018
v -0.1130594 1.4749765 -0.0208288
v -0.1111323 1.4784615 -0.0206886
v -0.1083034 1.4812610 -0.0204926
v -0.1048018 1.4831483 -0.0202567
v -0.0876552 1.2263654 -0.0182544
v -0.0910065 1.2278057 -0.0166501
v -0.0938711 1.2302339 -0.0153173
v -0.0960170 1.2334533 -0.0143638
v -0.0972704 1.2372031 -0.0138669
v -0.1125297 1.4711795 -0.0138669
v -0.1117740 1.4750603 -0.0143638
v -0.1100644 1.4785312 -0.0153173
v -0.1075394 1.4813109 -0.0166501
v -0.1044036 1.4831742 -0.0182544
v -0.0863114 1.2264530 -0.0167198
v -0.0884277 1.2279739 -0.0137053
v -0.0902662 1.2304690 -0.0112007
v -0.0916782 1.2337363 -0.0094091
v -0.0925491 1.2375110 -0.0084754
v -0.1078084 1.4714874 -0.0084754
v -0.1074352 1.4753433 -0.0094091
v -0.1064595 1.4787663 -0.0112007
v -0.1049606 1.4814791 -0.0137053
v -0.1030598 1.4832619 -0.0167198
v -0.0843819 1.2265789 -0.0160641
v -0.0847251 1.2282154 -0.0124471
v -0.0850905 1.2308066 -0.0094419
v -0.0854485 1.2341426 -0.0072921
v -0.0857703 1.2379531 -0.0061719
v -0.1010296 1.4719295 -0.0061719
v -0.1012055 1.4757495 -0.0072921
v -0.1012838 1.4791038 -0.0094419
v -0.1012580 1.4817205 -0.0124471
v -0.1011303 1.4833877 -0.0160641
v -0.0823839 1.2267092 -0.0164631
v -0.0808908 1.2284654 -0.0132127
v -0.0797306 1.2311561 -0.0105122
v -0.0789973 1.2345633 -0.0085803
v -0.0787503 1.2384109 -0.0075736
v -0.0940096 1.4723873 -0.0075736
v -0.0947542 1.4761703 -0.0085803
v -0.0959239 1.4794534 -0.0105122
v -0.0974237 1.4819706 -0.0132127
v -0.0991323 1.4835180 -0.0164631
v -0.0808525 1.2268090 -0.0178098
v -0.0779521 1.2286571 -0.0157969
v -0.0756227 1.2314240 -0.0141246
v -0.0740530 1.2348858 -0.0129283
v -0.0733702 1.2387618 -0.0123049
v -0.0886295 1.4727382 -0.0123049
v -0.0898100 1.4764927 -0.0129283
v -0.0918160 1.4797213 -0.0141246
v -0.0944851 1.4821622 -0.0157969
v -0.0976009 1.4836179 -0.0178098
vn 0.0650791 -0.9978801 0.0000000
vn 0.3639831 -0.9311964 0.0197354
vn 0.6086428 -0.7926160 0.0362459
vn 0.8041398 -0.5923490 0.0498186
vn 0.9361264 -0.3466019 0.0594512
vn 0.9951353 -0.0745143 0.0644463
vn 0.9770278 0.2031337 0.0644463
vn 0.8831794 0.4652522 0.0594512
vn 0.7203925 0.6917750 0.0498186
vn 0.5005404 0.8649541 0.0362459
vn 0.2399540 0.9705836 0.0197354
vn -0.0650791 0.9978801 -0.0000000
vn 0.3333738 -0.9331927 -0.1342136
vn 0.5524261 -0.7962823 -0.2464951
vn 0.7268720 -0.5973882 -0.3387986
vn 0.8439186 -0.3526154 -0.4043064
vn 0.8951803 -0.0810332 -0.4382761
vn 0.8770728 0.1966149 -0.4382761
vn 0.7909716 0.4592387 -0.4043064
vn 0.6431248 0.6867358 -0.3387986
vn 0.4443237 0.8612877 -0.2464951
vn 0.2093446 0.9685874 -0.1342136
vn 0.2300540 -0.9399310 -0.2522003
vn 0.3626703 -0.8086577 -0.4631878
vn 0.4660594 -0.6143977 -0.6366350
vn 0.5326771 -0.3729138 -0.7597305
vn 0.5577883 -0.1030370 -0.8235627
vn 0.5396809 0.1746111 -0.8235627
vn 0.4797301 0.4389403 -0.7597305
vn 0.3823122 0.6697263 -0.6366350
vn 0.2545679 0.8489124 -0.4631878
vn 0.1060249 0.9618491 -0.2522003
vn 0.0817082 -0.9496057 -0.3026100
vn 0.0902202 -0.8264262 -0.5557698
vn 0.0915866 -0.6388199 -0.7638855
vn 0.0857987 -0.4020580 -0.9115854
vn 0.0733634 -0.1346299 -0.9881764
vn 0.0552559 0.1430181 -0.9881764
vn 0.0328517 0.4097961 -0.9115854
vn 0.0078394 0.6453042 -0.7638855
vn -0.0178822 0.8311439 -0.5557698
vn -0.0423210 0.9521744 -0.3026100
vn -0.0719145 -0.9596246 -0.2719357
vn -0.1919213 -0.8448267 -0.4994337
vn -0.2962067 -0.6641107 -0.6864536
vn -0.3769758 -0.4322390 -0.8191817
vn -0.4282932 -0.1673466 -0.8880090
vn -0.4464007 0.1103014 -0.8880090
vn -0.4299228 0.3796151 -0.8191817
vn -0.3799540 0.6200133 -0.6864536
vn -0.3000237 0.8127433 -0.4994337
vn -0.1959437 0.9421555 -0.2719357
vn -0.1896510 -0.9673030 -0.1683964
vn -0.4081547 -0.8589289 -0.3092747
vn -0.5934117 -0.6834937 -0.4250869
vn -0.7316464 -0.4553697 -0.5072790
vn -0.8127631 -0.1924208 -0.5499003
vn -0.8308706 0.0852273 -0.5499003
vn -0.7845935 0.3564844 -0.5072790
vn -0.6771590 0.6006304 -0.4250869
vn -0.5162571 0.7986412 -0.3092747
vn -0.3136802 0.9344771 -0.1683964
vn -0.2399540 -0.9705836 -0.0197354
vn -0.5005404 -0.8649541 -0.0362459
vn -0.7203925 -0.6917750 -0.0498186
vn -0.8831794 -0.4652522 -0.0594512
vn -0.9770278 -0.2031337 -0.0644463
vn -0.9951353 0.0745143 -0.0644463
vn -0.9361264 0.3466019 -0.0594512
vn -0.8041398 0.5923490 -0.0498186
vn -0.6086428 0.7926160 -0.0362459
vn -0.3639831 0.9311964 -0.0197354
vn -0.2093446 -0.9685874 0.1342136
vn -0.4443237 -0.8612877 0.2464951
vn -0.6431248 -0.6867358 0.3387986
vn -0.7909716 -0.4592387 0.4043064
vn -0.8770728 -0.1966149 0.4382761
vn -0.8951803 0.0810332 0.4382761
vn -0.8439186 0.3526154 0.4043064
vn -0.7268720 0.5973882 0.3387986
vn -0.5524261 0.7962823 0.2464951
vn -0.3333738 0.9331927 0.1342136
vn -0.1060249 -0.9618491 0.2522003
vn -0.2545679 -0.8489124 0.4631878
vn -0.3823122 -0.6697263 0.6366350
vn -0.4797301 -0.4389403 0.7597305
vn -0.5396809 -0.1746111 0.8235627
vn -0.5577883 0.1030370 0.8235627
vn -0.5326771 0.3729138 0.7597305
vn -0.4660594 0.6143977 0.6366350
vn -0.3626703 0.8086577 0.4631878
vn -0.2300540 0.9399310 0.2522003
vn 0.0423210 -0.9521744 0.3026100
vn 0.0178822 -0.8311439 0.5557698
vn -0.0078394 -0.6453042 0.7638855
vn -0.0328517 -0.4097961 0.9115854
vn -0.0552559 -0.1430181 0.9881764
vn -0.0733634 0.1346299 0.9881764
vn -0.0857987 0.4020580 0.9115854
vn -0.0915866 0.6388199 0.7638855
vn -0.0902202 0.8264262 0.5557698
vn -0.0817082 0.9496057 0.3026100
vn 0.1959437 -0.9421555 0.2719357
vn 0.3000237 -0.8127433 0.4994337
vn 0.3799540 -0.6200133 0.6864536
vn 0.4299228 -0.3796151 0.8191817
vn 0.4464007 -0.1103014 0.8880090
vn 0.4282932 0.1673466 0.8880090
vn 0.3769758 0.4322390 0.8191817
vn 0.2962067 0.6641107 0.6864536
vn 0.1919213 0.8448267 0.4994337
vn 0.0719145 0.9596246 0.2719357
vn 0.3136802 -0.9344771 0.1683964
vn 0.5162571 -0.7986412 0.3092747
vn 0.6771590 -0.6006304 0.4250869
vn 0.7845935 -0.3564844 0.5072790
vn 0.8308706 -0.0852273 0.5499003
vn 0.8127631 0.1924208 0.5499003
vn 0.7316464 0.4553697 0.5072790
vn 0.5934117 0.6834937 0.4250869
vn 0.4081547 0.8589289 0.3092747
vn 0.1896510 0.9673030 0.1683964
f 2//2 1//1 13//13
f 2//2 13//13 3//3
f 3//3 13//13 14//14
f 3//3 14//14 4//4
f 4//4 14//14 15//15
f 4//4 15//15 5//5
f 5//5 15//15 16//16
f 5//5 16//16 6//6
f 6//6 16//16 17//17
f 6//6 17//17 7//7
f 7//7 17//17 18//18
f 7//7 18//18 8//8
f 8//8 18//18 19//19
f 8//8 19//19 9//9
f 9//9 19//19 20//20
f 9//9 20//20 10//10
f 10//10 20//20 21//21
f 10//10 21//21 11//11
f 11//11 21//21 22//22
f 11//11 22//22 12//12
f 13//13 1//1 23//23
f 13//13 23//23 14//14
f 14//14 23//23 24//24
f 14//14 24//24 15//15
f 15//15 24//24 25//25
f 15//15 25//25 16//16
f 16//16 25//25 26//26
f 16//16 26//26 17//17
f 17//17 26//26 27//27
f 17//17 27//27 18//18
f 18//18 27//27 28//28
f 18//18 28//28 19//19
f 19//19 28//28 29//29
f 19//19 29//29 20//20
f 20//20 29//29 30//30
f 20//20 30//30 21//21
f 21//21 30//30 31//31
f 21//21 31//31 22//22
f 22//22 31//31 32//32
f 22//22 32//32 12//12
f 23//23 1//1 33//33
f 23//23 33//33 24//24
f 24//24 33//33 34//34
f 24//24 34//34 25//25
f 25//25 34//34 35//35
f 25//25 35//35 26//26
f 26//26 35//35 36//36
f 26//26 36//36 27//27
f 27//27 36//36 37//37
f 27//27 37//37 28//28
f 28//28 37//37 38//38
f 28//28 38//38 29//29
f 29//29 38//38 39//39
f 29//29 39//39 30//30
f 30//30 39//39 40//40
f 30//30 40//40 31//31
f 31//31 40//40 41//41
f 31//31 41//41 32//32
f 32//32 41//41 42//42
f 32//32 42//42 12//12
f 33//33 1//1 43//43
f 33//33 43//43 34//34
f 34//34 43//43 44//44
f 34//34 44//44 35//35
f 35//35 44//44 45//45
f 35//35 45//45 36//36
f 36//36 45//45 46//46
f 36//36 46//46 37//37
f 37//37 46//46 47//47
f 37//37 47//47 38//38
f 38//38 47//47 48//48
f 38//38 48//48 39//39
f 39//39 48//48 49//49
f 39//39 49//49 40//40
f 40//40 49//49 50//50
f 40//40 50//50 41//41
f 41//41 50//50 51//51
f 41//41 51//51 42//42
f 42//42 51//51 52//52
f 42//42 52//52 12//12
f 43//43 1//1 53//53
f 43//43 53//53 44//44
f 44//44 53//53 54//54
f 44//44 54//54 45//45
f 45//45 54//54 55//55
f 45//45 55//55 46//46
f 46//46 55//55 56//56
f 46//46 56//56 47//47
f 47//47 56//56 57//57
f 47//47 57//57 48//48
f 48//48 57//57 58//58
f 48//48 58//58 49//49
f 49//49 58//58 59//59
f 49//49 59//59 50//50
f 50//50 59//59 60//60
f 50//50 60//60 51//51
f 51//51 60//60 61//61
f 51//51 61//61 52//52
f 52//52 61//61 62//62
f 52//52 62//62 12//12
f 53//53 1//1 63//63
f 53//53 63//63 54//54
f 54//54 63//63 64//64
f 54//54 64//64 55//55
f 55//55 64//64 65//65
f 55//55 65//65 56//56
f 56//56 65//65 66//66
f 56//56 66//66 57//57
f 57//57 66//66 67//67
f 57//57 67//67 58//58
f 58//58 67//67 68//68
f 58//58 68//68 59//59
f 59//59 68//68 69//69
f 59//59 69//69 60//60
f 60//60 69//69 70//70
f 60//60 70//70 61//61
f 61//61 70//70 71//71
f 61//61 71//71 62//62
f 62//62 71//71 72//72
f 62//62 72//72 12//12
f 63//63 1//1 73//73
f 63//63 73//73 64//64
f 64//64 73//73 74//74
f 64//64 74//74 65//65
f 65//65 74//74 75//75
f 65//65 75//75 66//66
f 66//66 75//75 76//76
f 66//66 76//76 67//67
f 67//67 76//76 77//77
f 67//67 77//77 68//68
f 68//68 77//77 78//78
f 68//68 78//78 69//69
f 69//69 78//78 79//79
f 69//69 79//79 70//70
f 70//70 79//79 80//80
f 70//70 80//80 71//71
f 71//71 80//80 81//81
f 71//71 81//81 72//72
f 72//72 81//81 82//82
f 72//72 82//82 12//12
f 73//73 1//1 83//83
f 73//73 83//83 74//74
f 74//74 83//83 84//84
f 74//74 84//84 75//75
f 75//75 84//84 85//85
f 75//75 85//85 76//76
f 76//76 85//85 86//86
f 76//76 86//86 77//77
f 77//77 86//86 87//87
f 77//77 87//87 78//78
f 78//78 87//87 88//88
f 78//78 88//88 79//79
f 79//79 88//88 89//89
f 79//79 89//89 80//80
f 80//80 89//89 90//90
f 80//80 90//90 81//81
f 81//81 90//90 91//91
f 81//81 91//91 82//82
f 82//82 91//91 92//92
f 82//82 92//92 12//12
f 83//83 1//1 93//93
f 83//83 93//93 84//84
f 84//84 93//93 94//94
f 84//84 94//94 85//85
f 85//85 94//94 95//95
f 85//85 95//95 86//86
f 86//86 95//95 96//96
f 86//86 96//96 87//87
f 87//87 96//96 97//97
f 87//87 97//97 88//88
f 88//88 97//97 98//98
f 88//88 98//98 89//89
f 89//89 98//98 99//99
f 89//89 99//99 90//90
f 90//90 99//99 100//100
f 90//90 100//100 91//91
f 91//91 100//100 101//101
f 91//91 101//101 92//92
f 92//92 101//101 102//102
f 92//92 102//102 12//12
f 93//93 1//1 103//103
f 93//93 103//103 94//94
f 94//94 103//103 104//104
f 94//94 104//104 95//95
f 95//95 104//104 105//105
f 95//95 105//105 96//96
f 96//96 105//105 106//106
f 96//96 106//106 97//97
f 97//97 106//106 107//107
f 97//97 107//107 98//98
f 98//98 107//107 108//108
f 98//98 108//108 99//99
f 99//99 108//108 109//109
f 99//99 109//109 100//100
f 100//100 109//109 110//110
f 100//100 110//110 101//101
f 101//101 110//110 111//111
f 101//101 111//111 102//102
f 102//102 111//111 112//112
f 102//102 112//112 12//12
f 103//103 1//1 113//113
f 103//103 113//113 104//104
f 104//104 113//113 114//114
f 104//104 114//114 105//105
f 105//105 114//114 115//115
f 105//105 115//115 106//106
f 106//106 115//115 116//116
f 106//106 116//116 107//107
f 107//107 116//116 117//117
f 107//107 117//117 108//108
f 108//108 117//117 118//118
f 108//108 118//118 109//109
f 109//109 118//118 119//119
f 109//109 119//119 110//110
f 110//110 119//119 120//120
f 110//110 120//120 111//111
f 111//111 120//120 121//121
f 111//111 121//121 112//112
f 112//112 121//121 122//122
f 112//112 122//122 12//12
f 113//113 1//1 2//2
f 113//113 2//2 114//114
f 114//114 2//2 3//3
f 114//114 3//3 115//115
f 115//115 3//3 4//4
f 115//115 4//4 116//116
f 116//116 4//4 5//5
f 116//116 5//5 117//117
f 117//117 5//5 6//6
f 117//117 6//6 118//118
f 118//118 6//6 7//7
f 118//118 7//7 119//119
f 119//119 7//7 8//8
f 119//119 8//8 120//120
f 120//120 8//8 9//9
f 120//120 9//9 121//121
f 121//121 9//9 10//10
f 121//121 10//10 122//122
f 122//122 10//10 11//11
f 122//122 11//11 12//12

