# https://github.com/mikedh/trimesh
v 0.0592941 1.3560001 0.0685883
v 0.0607776 1.3560723 0.0684320
v 0.0621672 1.3566182 0.0684648
v 0.0632954 1.3575720 0.0686829
v 0.0640262 1.3588186 0.0690597
v 0.0942713 1.5302078 0.1295500
v 0.0940013 1.5315718 0.1300946
v 0.0932486 1.5327463 0.1306277
v 0.0921041 1.5335896 0.1310852
v 0.0907059 1.5339999 0.1314117
v 0.0604030 1.3564059 0.0676740
v 0.0614633 1.3572452 0.0670403
v 0.0623470 1.3584168 0.0667635
v 0.0629477 1.3597793 0.0668771
v 0.0931929 1.5311684 0.1273674
v 0.0930529 1.5324166 0.1281752
v 0.0925447 1.5333733 0.1292031
v 0.0917296 1.5339232 0.1303272
v 0.0596212 1.3566767 0.0672977
v 0.0599939 1.3577541 0.0663331
v 0.0603674 1.3591024 0.0658108
v 0.0606965 1.3605589 0.0657938
v 0.0909416 1.5319481 0.1262840
v 0.0910732 1.5331022 0.1272225
v 0.0910753 1.5338822 0.1284960
v 0.0909477 1.5341940 0.1299509
v 0.0587307 1.3567812 0.0674470
v 0.0583203 1.3579505 0.0666136
v 0.0581125 1.3593669 0.0661886
v 0.0581324 1.3608598 0.0662234
v 0.0883776 1.5322489 0.1267137
v 0.0888184 1.5333668 0.1276003
v 0.0894017 1.5340786 0.1287764
v 0.0900573 1.5342985 0.1301001
v 0.0580717 1.3566795 0.0680646
v 0.0570818 1.3577593 0.0677744
v 0.0564439 1.3591094 0.0677526
v 0.0562349 1.3605669 0.0680019
v 0.0864800 1.5319561 0.1284922
v 0.0871497 1.5331093 0.1291643
v 0.0881632 1.5338874 0.1299373
v 0.0893982 1.5341967 0.1307178
v 0.0578959 1.3564104 0.0689148
v 0.0567514 1.3572537 0.0693723
v 0.0559987 1.3584282 0.0699054
v 0.0557287 1.3597922 0.0704500
v 0.0859738 1.5311814 0.1309403
v 0.0867046 1.5324280 0.1313171
v 0.0878328 1.5333818 0.1315352
v 0.0892224 1.5339277 0.1315680
v 0.0582704 1.3560768 0.0696728
v 0.0574553 1.3566267 0.0707969
v 0.0569471 1.3575834 0.0718248
v 0.0568071 1.3588316 0.0726326
v 0.0870523 1.5302207 0.1331229
v 0.0876530 1.5315832 0.1332365
v 0.0885367 1.5327548 0.1329597
v 0.0895970 1.5335941 0.1323260
v 0.0590523 1.3558060 0.0700491
v 0.0589247 1.3561178 0.0715040
v 0.0589268 1.3568978 0.0727775
v 0.0590584 1.3580519 0.0737160
v 0.0893035 1.5294411 0.1342062
v 0.0896326 1.5308976 0.1341892
v 0.0900061 1.5322459 0.1336669
v 0.0903788 1.5333233 0.1327023
v 0.0599427 1.3557015 0.0698999
v 0.0605983 1.3559214 0.0712236
v 0.0611816 1.3566332 0.0723997
v 0.0616224 1.3577511 0.0732863
v 0.0918676 1.5291402 0.1337766
v 0.0918875 1.5306331 0.1338114
v 0.0916797 1.5320495 0.1333864
v 0.0912693 1.5332188 0.1325530
v 0.0606018 1.3558033 0.0692822
v 0.0618368 1.3561126 0.0700627
v 0.0628503 1.3568907 0.0708357
v 0.0635200 1.3580439 0.0715078
v 0.0937651 1.5294331 0.1319981
v 0.0935561 1.5308906 0.1322474
v 0.0929182 1.5322407 0.1322256
v 0.0919283 1.5333205 0.1319354
vn -0.1641527 -0.9301986 -0.3283054
vn 0.2119669 -0.9062322 -0.3658050
vn 0.5257178 -0.7731740 -0.3547151
vn 0.7766594 -0.5522878 -0.3029496
vn 0.9381865 -0.2696628 -0.2169976
vn 0.9933667 0.0430246 -0.1066373
vn 0.9361194 0.3513194 0.0159706
vn 0.7717374 0.6209375 0.1373243
vn 0.5167251 0.8207313 0.2437115
vn 0.1641527 0.9301986 0.3283054
vn 0.1172549 -0.8218684 -0.5574797
vn 0.3570806 -0.6229621 -0.6959969
vn 0.5540404 -0.3539921 -0.7534778
vn 0.6871323 -0.0460387 -0.7250721
vn 0.7423125 0.2666487 -0.6147119
vn 0.7135005 0.5496151 -0.4345576
vn 0.6031003 0.7711494 -0.2039575
vn 0.4220132 0.9050951 0.0520368
vn -0.0804481 -0.7533995 -0.6526234
vn 0.0050652 -0.5010515 -0.8654027
vn 0.0893427 -0.1930571 -0.9771115
vn 0.1630784 0.1354526 -0.9772707
vn 0.2182586 0.4481400 -0.8669104
vn 0.2488028 0.7105501 -0.6581913
vn 0.2510849 0.8930600 -0.3733633
vn 0.2243102 0.9735639 -0.0431069
vn -0.3056263 -0.7269783 -0.6148944
vn -0.3958705 -0.4540078 -0.7982252
vn -0.4399351 -0.1309545 -0.8884301
vn -0.4338043 0.2054877 -0.8772620
vn -0.3786242 0.5181751 -0.7669017
vn -0.2804750 0.7726527 -0.5695099
vn -0.1498508 0.9401037 -0.3061859
vn -0.0008681 0.9999852 -0.0053779
vn -0.4722693 -0.7526967 -0.4587040
vn -0.6925827 -0.4998002 -0.5201240
vn -0.8316268 -0.1914053 -0.5213070
vn -0.8755271 0.1373155 -0.4632460
vn -0.8203469 0.4500029 -0.3528857
vn -0.6721667 0.7122019 -0.2023868
vn -0.4465630 0.8943113 -0.0280847
vn -0.1675111 0.9742667 0.1508126
vn -0.5167251 -0.8207313 -0.2437115
vn -0.7717374 -0.6209375 -0.1373243
vn -0.9361194 -0.3513194 -0.0159706
vn -0.9933667 -0.0430246 0.1066373
vn -0.9381865 0.2696628 0.2169976
vn -0.7766594 0.5522878 0.3029496
vn -0.5257178 0.7731740 0.3547151
vn -0.2119669 0.9062322 0.3658050
vn -0.4220132 -0.9050951 -0.0520368
vn -0.6031003 -0.7711494 0.2039575
vn -0.7135005 -0.5496151 0.4345576
vn -0.7423125 -0.2666487 0.6147119
vn -0.6871323 0.0460387 0.7250721
vn -0.5540404 0.3539921 0.7534778
vn -0.3570806 0.6229621 0.6959969
vn -0.1172549 0.8218684 0.5574797
vn -0.2243102 -0.9735639 0.0431069
vn -0.2510849 -0.8930600 0.3733633
vn -0.2488028 -0.7105501 0.6581913
vn -0.2182586 -0.4481400 0.8669104
vn -0.1630784 -0.1354526 0.9772707
vn -0.0893427 0.1930571 0.9771115
vn -0.0050652 0.5010515 0.8654027
vn 0.0804481 0.7533995 0.6526234
vn 0.0008681 -0.9999852 0.0053779
vn 0.1498508 -0.9401037 0.3061859
vn 0.2804750 -0.7726527 0.5695099
vn 0.3786242 -0.5181751 0.7669017
vn 0.4338043 -0.2054877 0.8772620
vn 0.4399351 0.1309545 0.8884301
vn 0.3958705 0.4540078 0.7982252
vn 0.3056263 0.7269783 0.6148944
vn 0.1675111 -0.9742667 -0.1508126
vn 0.4465630 -0.8943113 0.0280847
vn 0.6721667 -0.7122019 0.2023868
vn 0.8203469 -0.4500029 0.3528857
vn 0.8755271 -0.1373155 0.4632460
vn 0.8316268 0.1914053 0.5213070
vn 0.6925827 0.4998002 0.5201240
vn 0.4722693 0.7526967 0.4587040
f 2//2 1//1 11//11
f 2//2 11//11 3//3
f 3//3 11//11 12//12
f 3//3 12//12 4//4
f 4//4 12//12 13//13
f 4//4 13//13 5//5
f 5//5 13//13 14//14
f 5//5 14//14 6//6
f 6//6 14//14 15//15
f 6//6 15//15 7//7
f 7//7 15//15 16//16
f 7//7 16//16 8//8
f 8//8 16//16 17//17
f 8//8 17//17 9//9
f 9//9 17//17 18//18
f 9//9 18//18 10//10
f 11//11 1//1 19//19
f 11//11 19//19 12//12
f 12//12 19//19 20//20
f 12//12 20//20 13//13
f 13//13 20//20 21//21
f 13//13 21//21 14//14
f 14//14 21//21 22//22
f 14//14 22//22 15//15
f 15//15 22//22 23//23
f 15//15 23//23 16//16
f 16//16 23//23 24//24
f 16//16 24//24 17//17
f 17//17 24//24 25//25
f 17//17 25//25 18//18
f 18//18 25//25 26//26
f 18//18 26//26 10//10
f 19//19 1//1 27//27
f 19//19 27//27 20//20
f 20//20 27//27 28//28
f 20//20 28//28 21//21
f 21//21 28//28 29//29
f 21//21 29//29 22//22
f 22//22 29//29 30//30
f 22//22 30//30 23//23
f 23//23 30//30 31//31
f 23//23 31//31 24//24
f 24//24 31//31 32//32
f 24//24 32//32 25//25
f 25//25 32//32 33//33
f 25//25 33//33 26//26
f 26//26 33//33 34//34
f 26//26 34//34 10//10
f 27//27 1//1 35//35
f 27//27 35//35 28//28
f 28//28 35//35 36//36
f 28//28 36//36 29//29
f 29//29 36//36 37//37
f 29//29 37//37 30//30
f 30//30 37//37 38//38
f 30//30 38//38 31//31
f 31//31 38//38 39//39
f 31//31 39//39 32//32
f 32//32 39//39 40//40
f 32//32 40//40 33//33
f 33//33 40//40 41//41
f 33//33 41//41 34//34
f 34//34 41//41 42//42
f 34//34 42//42 10//10
f 35//35 1//1 43//43
f 35//35 43//43 36//36
f 36//36 43//43 44//44
f 36//36 44//44 37//37
f 37//37 44//44 45//45
f 37//37 45//45 38//38
f 38//38 45//45 46//46
f 38//38 46//46 39//39
f 39//39 46//46 47//47
f 39//39 47//47 40//40
f 40//40 47//47 48//48
f 40//40 48//48 41//41
f 41//41 48//48 49//49
f 41//41 49//49 42//42
f 42//42 49//49 50//50
f 42//42 50//50 10//10
f 43//43 1//1 51//51
f 43//43 51//51 44//44
f 44//44 51//51 52//52
f 44//44 52//52 45//45
f 45//45 52//52 53//53
f 45//45 53//53 46//46
f 46//46 53//53 54//54
f 46//46 54//54 47//47
f 47//47 54//54 55//55
f 47//47 55//55 48//48
f 48//48 55//55 56//56
f 48//48 56//56 49//49
f 49//49 56//56 57//57
f 49//49 57//57 50//50
f 50//50 57//57 58//58
f 50//50 58//58 10//10
f 51//51 1//1 59//59
f 51//51 59//59 52//52
f 52//52 59//59 60//60
f 52//52 60//60 53//53
f 53//53 60//60 61//61
f 53//53 61//61 54//54
f 54//54 61//61 62//62
f 54//54 62//62 55//55
f 55//55 62//62 63//63
f 55//55 63//63 56//56
f 56//56 63//63 64//64
f 56//56 64//64 57//57
f 57//57 64//64 65//65
f 57//57 65//65 58//58
f 58//58 65//65 66//66
f 58//58 66//66 10//10
f 59//59 1//1 67//67
f 59//59 67//67 60//60
f 60//60 67//67 68//68
f 60//60 68//68 61//61
f 61//61 68//68 69//69
f 61//61 69//69 62//62
f 62//62 69//69 70//70
f 62//62 70//70 63//63
f 63//63 70//70 71//71
f 63//63 71//71 64//64
f 64//64 71//71 72//72
f 64//64 72//72 65//65
f 65//65 72//72 73//73
f 65//65 73//73 66//66
f 66//66 73//73 74//74
f 66//66 74//74 10//10
f 67//67 1//1 75//75
f 67//67 75//75 68//68
f 68//68 75//75 76//76
f 68//68 76//76 69//69
f 69//69 76//76 77//77
f 69//69 77//77 70//70
f 70//70 77//77 78//78
f 70//70 78//78 71//71
f 71//71 78//78 79//79
f 71//71 79//79 72//72
f 72//72 79//79 80//80
f 72//72 80//80 73//73
f 73//73 80//80 81//81
f 73//73 81//81 74//74
f 74//74 81//81 82//82
f 74//74 82//82 10//10
f 75//75 1//1 2//2
f 75//75 2//2 76//76
f 76//76 2//2 3//3
f 76//76 3//3 77//77
f 77//77 3//3 4//4
f 77//77 4//4 78//78
f 78//78 4//4 5//5
f 78//78 5//5 79//79
f 79//79 5//5 6//6
f 79//79 6//6 80//80
f 80//80 6//6 7//7
f 80//80 7//7 81//81
f 81//81 7//7 8//8
f 81//81 8//8 82//82
f 82//82 8//8 9//9
f 82//82 9//9 10//10

