# https://github.com/mikedh/trimesh
v -0.1087169 -0.4790939 0.0093585
v -0.1057097 -0.4798744 0.0097459
v -0.1030500 -0.4814751 0.0101540
v -0.1009534 -0.4837665 0.0105496
v -0.0995897 -0.4865628 0.0109006
v -0.0990693 -0.4896377 0.0111787
v -0.1194345 -0.6627419 0.0213613
v -0.1206557 -0.6656239 0.0214336
v -0.1226339 -0.6680504 0.0213898
v -0.1252088 -0.6698246 0.0212334
v -0.1281719 -0.6708029 0.0209770
v -0.1312831 -0.6709061 0.0206415
v -0.1062889 -0.4797187 0.0112338
v -0.1041615 -0.4811764 0.0130092
v -0.1025071 -0.4833489 0.0145408
v -0.1014597 -0.4860603 0.0157045
v -0.1011042 -0.4890908 0.0164061
v -0.1214694 -0.6621950 0.0265887
v -0.1225257 -0.6651213 0.0262375
v -0.1241875 -0.6676328 0.0253810
v -0.1263202 -0.6695259 0.0240886
v -0.1287511 -0.6706473 0.0224649
v -0.1075326 -0.4795140 0.0122261
v -0.1065481 -0.4807836 0.0149135
v -0.1058433 -0.4827998 0.0172027
v -0.1054752 -0.4853994 0.0189085
v -0.1054737 -0.4883716 0.0198925
v -0.1258389 -0.6614758 0.0300751
v -0.1265412 -0.6644605 0.0294415
v -0.1275238 -0.6670837 0.0280430
v -0.1287069 -0.6691331 0.0259928
v -0.1299948 -0.6704426 0.0234572
v -0.1091076 -0.4793151 0.0124570
v -0.1095705 -0.4804019 0.0153566
v -0.1100682 -0.4822663 0.0178221
v -0.1105604 -0.4847573 0.0196540
v -0.1110072 -0.4876729 0.0207038
v -0.1313724 -0.6607771 0.0308864
v -0.1316264 -0.6638183 0.0301870
v -0.1317486 -0.6665502 0.0286624
v -0.1317292 -0.6687515 0.0264360
v -0.1315697 -0.6702437 0.0236881
v -0.1105918 -0.4791754 0.0118647
v -0.1124187 -0.4801337 0.0142198
v -0.1140497 -0.4818914 0.0162330
v -0.1153526 -0.4843060 0.0177413
v -0.1162218 -0.4871819 0.0186225
v -0.1365870 -0.6602861 0.0288051
v -0.1364186 -0.6633671 0.0282744
v -0.1357301 -0.6661753 0.0270733
v -0.1345775 -0.6684833 0.0252992
v -0.1330540 -0.6701039 0.0230957
v -0.1115876 -0.4791321 0.0106077
v -0.1143296 -0.4800508 0.0118077
v -0.1167209 -0.4817755 0.0128612
v -0.1185677 -0.4841665 0.0136830
v -0.1197204 -0.4870300 0.0142064
v -0.1400856 -0.6601342 0.0243890
v -0.1396337 -0.6632275 0.0242160
v -0.1384014 -0.6660594 0.0237015
v -0.1364884 -0.6684003 0.0228871
v -0.1340498 -0.6700607 0.0218388
v -0.1118281 -0.4791971 0.0090230
v -0.1147912 -0.4801754 0.0087666
v -0.1173661 -0.4819496 0.0086102
v -0.1193443 -0.4843761 0.0085664
v -0.1205655 -0.4872581 0.0086387
v -0.1409307 -0.6603623 0.0188213
v -0.1404103 -0.6634372 0.0190994
v -0.1390466 -0.6662335 0.0194504
v -0.1369500 -0.6685249 0.0198460
v -0.1342903 -0.6701256 0.0202541
v -0.1112489 -0.4793527 0.0075351
v -0.1136798 -0.4804741 0.0059114
v -0.1158125 -0.4823672 0.0046190
v -0.1174743 -0.4848787 0.0037625
v -0.1185306 -0.4878050 0.0034113
v -0.1388958 -0.6609092 0.0135939
v -0.1385403 -0.6639397 0.0142955
v -0.1374929 -0.6666511 0.0154592
v -0.1358385 -0.6688236 0.0169908
v -0.1337111 -0.6702813 0.0187662
v -0.1100052 -0.4795574 0.0065428
v -0.1112931 -0.4808669 0.0040072
v -0.1124762 -0.4829163 0.0019570
v -0.1134588 -0.4855395 0.0005585
v -0.1141611 -0.4885242 -0.0000751
v -0.1345263 -0.6616284 0.0101075
v -0.1345248 -0.6646006 0.0110915
v -0.1341567 -0.6672002 0.0127973
v -0.1334519 -0.6692164 0.0150865
v -0.1324674 -0.6704860 0.0177739
v -0.1084303 -0.4797563 0.0063119
v -0.1082708 -0.4812485 0.0035640
v -0.1082514 -0.4834498 0.0013376
v -0.1083736 -0.4861817 -0.0001870
v -0.1086276 -0.4892229 -0.0008864
v -0.1289928 -0.6623271 0.0092962
v -0.1294396 -0.6652427 0.0103460
v -0.1299318 -0.6677337 0.0121779
v -0.1304295 -0.6695981 0.0146434
v -0.1308924 -0.6706849 0.0175430
v -0.1069460 -0.4798961 0.0069043
v -0.1054225 -0.4815167 0.0047008
v -0.1042699 -0.4838247 0.0029267
v -0.1035814 -0.4866329 0.0017256
v -0.1034130 -0.4897139 0.0011949
v -0.1237782 -0.6628181 0.0113775
v -0.1246474 -0.6656940 0.0122587
v -0.1259503 -0.6681086 0.0137670
v -0.1275813 -0.6698663 0.0157802
v -0.1294082 -0.6708246 0.0181353
v -0.1059502 -0.4799393 0.0081612
v -0.1035116 -0.4815997 0.0071129
v -0.1015986 -0.4839406 0.0062985
v -0.1003663 -0.4867725 0.0057840
v -0.0999144 -0.4898658 0.0056110
v -0.1202796 -0.6629700 0.0157936
v -0.1214323 -0.6658335 0.0163170
v -0.1232791 -0.6682245 0.0171388
v -0.1256704 -0.6699492 0.0181923
v -0.1284124 -0.6708679 0.0193923
vn 0.1166424 0.9914601 -0.0583212
vn 0.4105041 0.9116349 -0.0202027
vn 0.6466673 0.7625931 0.0165256
vn 0.8307179 0.5542816 0.0517653
vn 0.9492269 0.3034919 0.0828309
vn 0.9937722 0.0297202 0.1073945
vn 0.9613178 -0.2461416 0.1236217
vn 0.8543291 -0.5031390 0.1302798
vn 0.6806164 -0.7215809 0.1268161
vn 0.4529137 -0.8843128 0.1134024
vn 0.1882047 -0.9779098 0.0909470
vn -0.1166424 -0.9914601 0.0583212
vn 0.3538295 0.9268668 0.1253899
vn 0.5425794 0.7905678 0.2839192
vn 0.6876529 0.5927318 0.4192881
vn 0.7784998 0.3493765 0.5214155
vn 0.8087006 0.0794600 0.5828288
vn 0.7762463 -0.1964017 0.5990560
vn 0.6836020 -0.4572544 0.5688644
vn 0.5375514 -0.6831307 0.4943389
vn 0.3488258 -0.8563381 0.3807960
vn 0.1315301 -0.9626780 0.2365396
vn 0.2321290 0.9468965 0.2224931
vn 0.3190659 0.8273540 0.4622578
vn 0.3804416 0.6432931 0.6644081
vn 0.4118881 0.4097141 0.8139303
vn 0.4112865 0.1448671 0.8999205
vn 0.3788321 -0.1309947 0.9161477
vn 0.3169904 -0.3969169 0.8613792
vn 0.2303402 -0.6325694 0.7394589
vn 0.1253123 -0.8195519 0.5591346
vn 0.0098296 -0.9426483 0.3336428
vn 0.0780122 0.9663570 0.2450883
vn 0.0360170 0.8630949 0.5037558
vn -0.0085989 0.6924177 0.7214456
vn -0.0523747 0.4683371 0.8819962
vn -0.0919835 0.2084156 0.9737053
vn -0.1244379 -0.0674462 0.9899324
vn -0.1472724 -0.3382938 0.9294451
vn -0.1587004 -0.5834448 0.7964963
vn -0.1577366 -0.7838110 0.6006326
vn -0.1442871 -0.9231878 0.3562380
vn -0.0672254 0.9800339 0.1871210
vn -0.2307246 0.8882138 0.3972938
vn -0.3752256 0.7269427 0.5751174
vn -0.4898899 0.5095376 0.7073749
vn -0.5662586 0.2530778 0.7844124
vn -0.5987129 -0.0227840 0.8006396
vn -0.5847876 -0.2970933 0.7548238
vn -0.5253270 -0.5489197 0.6501682
vn -0.4244782 -0.7586921 0.4941706
vn -0.2895247 -0.9095109 0.2982707
vn -0.1646675 0.9842626 0.0641236
vn -0.4096856 0.8959801 0.1713982
vn -0.6212011 0.7376172 0.2646321
vn -0.7834256 0.5222760 0.3368562
vn -0.8844570 0.2668865 0.3827629
vn -0.9169113 -0.0089753 0.3989901
vn -0.8783233 -0.2843549 0.3843051
vn -0.7713025 -0.5382453 0.3396828
vn -0.6034393 -0.7509258 0.2682750
vn -0.3869669 -0.9052822 0.1752733
vn -0.1882047 0.9779098 -0.0909470
vn -0.4529137 0.8843128 -0.1134024
vn -0.6806164 0.7215809 -0.1268161
vn -0.8543291 0.5031390 -0.1302798
vn -0.9613178 0.2461416 -0.1236217
vn -0.9937722 -0.0297202 -0.1073945
vn -0.9492269 -0.3034919 -0.0828309
vn -0.8307179 -0.5542816 -0.0517653
vn -0.6466673 -0.7625931 -0.0165256
vn -0.4105041 -0.9116349 0.0202027
vn -0.1315301 0.9626780 -0.2365396
vn -0.3488258 0.8563381 -0.3807960
vn -0.5375514 0.6831307 -0.4943389
vn -0.6836020 0.4572544 -0.5688644
vn -0.7762463 0.1964017 -0.5990560
vn -0.8087006 -0.0794600 -0.5828288
vn -0.7784998 -0.3493765 -0.5214155
vn -0.6876529 -0.5927318 -0.4192881
vn -0.5425794 -0.7905678 -0.2839192
vn -0.3538295 -0.9268668 -0.1253899
vn -0.0098296 0.9426483 -0.3336428
vn -0.1253123 0.8195519 -0.5591346
vn -0.2303402 0.6325694 -0.7394589
vn -0.3169904 0.3969169 -0.8613792
vn -0.3788321 0.1309947 -0.9161477
vn -0.4112865 -0.1448671 -0.8999205
vn -0.4118881 -0.4097141 -0.8139303
vn -0.3804416 -0.6432931 -0.6644081
vn -0.3190659 -0.8273540 -0.4622578
vn -0.2321290 -0.9468965 -0.2224931
vn 0.1442871 0.9231878 -0.3562380
vn 0.1577366 0.7838110 -0.6006326
vn 0.1587004 0.5834448 -0.7964963
vn 0.1472724 0.3382938 -0.9294451
vn 0.1244379 0.0674462 -0.9899324
vn 0.0919835 -0.2084156 -0.9737053
vn 0.0523747 -0.4683371 -0.8819962
vn 0.0085989 -0.6924177 -0.7214456
vn -0.0360170 -0.8630949 -0.5037558
vn -0.0780122 -0.9663570 -0.2450883
vn 0.2895247 0.9095109 -0.2982707
vn 0.4244782 0.7586921 -0.4941706
vn 0.5253270 0.5489197 -0.6501682
vn 0.5847876 0.2970933 -0.7548238
vn 0.5987129 0.0227840 -0.8006396
vn 0.5662586 -0.2530778 -0.7844124
vn 0.4898899 -0.5095376 -0.7073749
vn 0.3752256 -0.7269427 -0.5751174
vn 0.2307246 -0.8882138 -0.3972938
vn 0.0672254 -0.9800339 -0.1871210
vn 0.3869669 0.9052822 -0.1752733
vn 0.6034393 0.7509258 -0.2682750
vn 0.7713025 0.5382453 -0.3396828
vn 0.8783233 0.2843549 -0.3843051
vn 0.9169113 0.0089753 -0.3989901
vn 0.8844570 -0.2668865 -0.3827629
vn 0.7834256 -0.5222760 -0.3368562
vn 0.6212011 -0.7376172 -0.2646321
vn 0.4096856 -0.8959801 -0.1713982
vn 0.1646675 -0.9842626 -0.0641236
f 2//2 1//1 13//13
f 2//2 13//13 3//3
f 3//3 13//13 14//14
f 3//3 14//14 4//4
f 4//4 14//14 15//15
f 4//4 15//15 5//5
f 5//5 15//15 16//16
f 5//5 16//16 6//6
f 6//6 16//16 17//17
f 6//6 17//17 7//7
f 7//7 17//17 18//18
f 7//7 18//18 8//8
f 8//8 18//18 19//19
f 8//8 19//19 9//9
f 9//9 19//19 20//20
f 9//9 20//20 10//10
f 10//10 20//20 21//21
f 10//10 21//21 11//11
f 11//11 21//21 22//22
f 11//11 22//22 12//12
f 13//13 1//1 23//23
f 13//13 23//23 14//14
f 14//14 23//23 24//24
f 14//14 24//24 15//15
f 15//15 24//24 25//25
f 15//15 25//25 16//16
f 16//16 25//25 26//26
f 16//16 26//26 17//17
f 17//17 26//26 27//27
f 17//17 27//27 18//18
f 18//18 27//27 28//28
f 18//18 28//28 19//19
f 19//19 28//28 29//29
f 19//19 29//29 20//20
f 20//20 29//29 30//30
f 20//20 30//30 21//21
f 21//21 30//30 31//31
f 21//21 31//31 22//22
f 22//22 31//31 32//32
f 22//22 32//32 12//12
f 23//23 1//1 33//33
f 23//23 33//33 24//24
f 24//24 33//33 34//34
f 24//24 34//34 25//25
f 25//25 34//34 35//35
f 25//25 35//35 26//26
f 26//26 35//35 36//36
f 26//26 36//36 27//27
f 27//27 36//36 37//37
f 27//27 37//37 28//28
f 28//28 37//37 38//38
f 28//28 38//38 29//29
f 29//29 38//38 39//39
f 29//29 39//39 30//30
f 30//30 39//39 40//40
f 30//30 40//40 31//31
f 31//31 40//40 41//41
f 31//31 41//41 32//32
f 32//32 41//41 42//42
f 32//32 42//42 12//12
f 33//33 1//1 43//43
f 33//33 43//43 34//34
f 34//34 43//43 44//44
f 34//34 44//44 35//35
f 35//35 44//44 45//45
f 35//35 45//45 36//36
f 36//36 45//45 46//46
f 36//36 46//46 37//37
f 37//37 46//46 47//47
f 37//37 47//47 38//38
f 38//38 47//47 48//48
f 38//38 48//48 39//39
f 39//39 48//48 49//49
f 39//39 49//49 40//40
f 40//40 49//49 50//50
f 40//40 50//50 41//41
f 41//41 50//50 51//51
f 41//41 51//51 42//42
f 42//42 51//51 52//52
f 42//42 52//52 12//12
f 43//43 1//1 53//53
f 43//43 53//53 44//44
f 44//44 53//53 54//54
f 44//44 54//54 45//45
f 45//45 54//54 55//55
f 45//45 55//55 46//46
f 46//46 55//55 56//56
f 46//46 56//56 47//47
f 47//47 56//56 57//57
f 47//47 57//57 48//48
f 48//48 57//57 58//58
f 48//48 58//58 49//49
f 49//49 58//58 59//59
f 49//49 59//59 50//50
f 50//50 59//59 60//60
f 50//50 60//60 51//51
f 51//51 60//60 61//61
f 51//51 61//61 52//52
f 52//52 61//61 62//62
f 52//52 62//62 12//12
f 53//53 1//1 63//63
f 53//53 63//63 54//54
f 54//54 63//63 64//64
f 54//54 64//64 55//55
f 55//55 64//64 65//65
f 55//55 65//65 56//56
f 56//56 65//65 66//66
f 56//56 66//66 57//57
f 57//57 66//66 67//67
f 57//57 67//67 58//58
f 58//58 67//67 68//68
f 58//58 68//68 59//59
f 59//59 68//68 69//69
f 59//59 69//69 60//60
f 60//60 69//69 70//70
f 60//60 70//70 61//61
f 61//61 70//70 71//71
f 61//61 71//71 62//62
f 62//62 71//71 72//72
f 62//62 72//72 12//12
f 63//63 1//1 73//73
f 63//63 73//73 64//64
f 64//64 73//73 74//74
f 64//64 74//74 65//65
f 65//65 74//74 75//75
f 65//65 75//75 66//66
f 66//66 75//75 76//76
f 66//66 76//76 67//67
f 67//67 76//76 77//77
f 67//67 77//77 68//68
f 68//68 77//77 78//78
f 68//68 78//78 69//69
f 69//69 78//78 79//79
f 69//69 79//79 70//70
f 70//70 79//79 80//80
f 70//70 80//80 71//71
f 71//71 80//80 81//81
f 71//71 81//81 72//72
f 72//72 81//81 82//82
f 72//72 82//82 12//12
f 73//73 1//1 83//83
f 73//73 83//83 74//74
f 74//74 83//83 84//84
f 74//74 84//84 75//75
f 75//75 84//84 85//85
f 75//75 85//85 76//76
f 76//76 85//85 86//86
f 76//76 86//86 77//77
f 77//77 86//86 87//87
f 77//77 87//87 78//78
f 78//78 87//87 88//88
f 78//78 88//88 79//79
f 79//79 88//88 89//89
f 79//79 89//89 80//80
f 80//80 89//89 90//90
f 80//80 90//90 81//81
f 81//81 90//90 91//91
f 81//81 91//91 82//82
f 82//82 91//91 92//92
f 82//82 92//92 12//12
f 83//83 1//1 93//93
f 83//83 93//93 84//84
f 84//84 93//93 94//94
f 84//84 94//94 85//85
f 85//85 94//94 95//95
f 85//85 95//95 86//86
f 86//86 95//95 96//96
f 86//86 96//96 87//87
f 87//87 96//96 97//97
f 87//87 97//97 88//88
f 88//88 97//97 98//98
f 88//88 98//98 89//89
f 89//89 98//98 99//99
f 89//89 99//99 90//90
f 90//90 99//99 100//100
f 90//90 100//100 91//91
f 91//91 100//100 101//101
f 91//91 101//101 92//92
f 92//92 101//101 102//102
f 92//92 102//102 12//12
f 93//93 1//1 103//103
f 93//93 103//103 94//94
f 94//94 103//103 104//104
f 94//94 104//104 95//95
f 95//95 104//104 105//105
f 95//95 105//105 96//96
f 96//96 105//105 106//106
f 96//96 106//106 97//97
f 97//97 106//106 107//107
f 97//97 107//107 98//98
f 98//98 107//107 108//108
f 98//98 108//108 99//99
f 99//99 108//108 109//109
f 99//99 109//109 100//100
f 100//100 109//109 110//110
f 100//100 110//110 101//101
f 101//101 110//110 111//111
f 101//101 111//111 102//102
f 102//102 111//111 112//112
f 102//102 112//112 12//12
f 103//103 1//1 113//113
f 103//103 113//113 104//104
f 104//104 113//113 114//114
f 104//104 114//114 105//105
f 105//105 114//114 115//115
f 105//105 115//115 106//106
f 106//106 115//115 116//116
f 106//106 116//116 107//107
f 107//107 116//116 117//117
f 107//107 117//117 108//108
f 108//108 117//117 118//118
f 108//108 118//118 109//109
f 109//109 118//118 119//119
f 109//109 119//119 110//110
f 110//110 119//119 120//120
f 110//110 120//120 111//111
f 111//111 120//120 121//121
f 111//111 121//121 112//112
f 112//112 121//121 122//122
f 112//112 122//122 12//12
f 113//113 1//1 2//2
f 113//113 2//2 114//114
f 114//114 2//2 3//3
f 114//114 3//3 115//115
f 115//115 3//3 4//4
f 115//115 4//4 116//116
f 116//116 4//4 5//5
f 116//116 5//5 117//117
f 117//117 5//5 6//6
f 117//117 6//6 118//118
f 118//118 6//6 7//7
f 118//118 7//7 119//119
f 119//119 7//7 8//8
f 119//119 8//8 120//120
f 120//120 8//8 9//9
f 120//120 9//9 121//121
f 121//121 9//9 10//10
f 121//121 10//10 122//122
f 122//122 10//10 11//11
f 122//122 11//11 12//12

