# https://github.com/mikedh/trimesh
v -0.3364563 1.1314648 0.0300000
v -0.3335139 1.1300466 0.0309984
v -0.3310969 1.1278144 0.0319159
v -0.3294013 1.1249492 0.0326781
v -0.3285642 1.1216830 0.0332234
v -0.3286536 1.1182804 0.0335076
v -0.4996623 0.5650172 0.0335076
v -0.5015084 0.5621577 0.0332234
v -0.5040425 0.5599334 0.0326781
v -0.5070592 0.5585248 0.0319159
v -0.5103142 0.5580457 0.0309984
v -0.5135437 0.5585352 0.0300000
v -0.3344043 1.1303218 0.0324796
v -0.3328055 1.1283425 0.0347584
v -0.3317897 1.1256874 0.0366516
v -0.3314389 1.1225715 0.0380060
v -0.3317818 1.1192473 0.0387117
v -0.5027904 0.5659841 0.0387117
v -0.5043831 0.5630462 0.0380060
v -0.5064309 0.5606717 0.0366516
v -0.5087678 0.5590529 0.0347584
v -0.5112045 0.5583209 0.0324796
v -0.3358829 1.1307788 0.0332965
v -0.3356431 1.1292196 0.0363259
v -0.3357562 1.1269134 0.0388428
v -0.3362131 1.1240472 0.0406433
v -0.3369769 1.1208531 0.0415816
v -0.5079855 0.5675898 0.0415816
v -0.5091573 0.5645219 0.0406433
v -0.5103974 0.5618977 0.0388428
v -0.5116054 0.5599299 0.0363259
v -0.5126832 0.5587780 0.0332965
v -0.3375537 1.1312952 0.0332300
v -0.3388493 1.1302106 0.0361984
v -0.3402381 1.1282987 0.0386645
v -0.3416076 1.1257146 0.0404288
v -0.3428469 1.1226674 0.0413481
v -0.5138555 0.5694042 0.0413481
v -0.5145518 0.5661892 0.0404288
v -0.5148793 0.5632830 0.0386645
v -0.5148115 0.5609209 0.0361984
v -0.5143540 0.5592944 0.0332300
v -0.3389689 1.1317327 0.0322981
v -0.3415650 1.1310500 0.0344100
v -0.3440343 1.1294721 0.0361646
v -0.3461768 1.1271269 0.0374199
v -0.3478189 1.1242042 0.0380740
v -0.5188275 0.5709410 0.0380740
v -0.5191210 0.5676015 0.0374199
v -0.5186756 0.5644564 0.0361646
v -0.5175273 0.5617603 0.0344100
v -0.5157692 0.5597318 0.0322981
v -0.3397493 1.1319739 0.0307504
v -0.3430626 1.1315129 0.0314400
v -0.3461278 1.1301192 0.0320129
v -0.3486965 1.1279057 0.0324228
v -0.3505608 1.1250517 0.0326364
v -0.5215694 0.5717885 0.0326364
v -0.5216407 0.5683804 0.0324228
v -0.5207690 0.5651035 0.0320129
v -0.5190249 0.5622232 0.0314400
v -0.5165496 0.5599730 0.0307504
v -0.3396858 1.1319543 0.0290016
v -0.3429408 1.1314752 0.0280841
v -0.3459575 1.1300666 0.0273219
v -0.3484916 1.1278423 0.0267766
v -0.3503377 1.1249828 0.0264924
v -0.5213464 0.5717196 0.0264924
v -0.5214358 0.5683170 0.0267766
v -0.5205987 0.5650508 0.0273219
v -0.5189031 0.5621856 0.0280841
v -0.5164861 0.5599534 0.0290016
v -0.3387955 1.1316791 0.0275204
v -0.3412322 1.1309471 0.0252416
v -0.3435691 1.1293283 0.0233484
v -0.3456169 1.1269538 0.0219940
v -0.3472096 1.1240159 0.0212883
v -0.5182182 0.5707527 0.0212883
v -0.5185611 0.5674285 0.0219940
v -0.5182103 0.5643126 0.0233484
v -0.5171945 0.5616575 0.0252416
v -0.5155957 0.5596782 0.0275204
v -0.3373168 1.1312220 0.0267035
v -0.3383946 1.1300701 0.0236741
v -0.3396026 1.1281023 0.0211572
v -0.3408427 1.1254781 0.0193567
v -0.3420145 1.1224102 0.0184184
v -0.5130231 0.5691469 0.0184184
v -0.5137869 0.5659528 0.0193567
v -0.5142438 0.5630866 0.0211572
v -0.5143569 0.5607804 0.0236741
v -0.5141171 0.5592212 0.0267035
v -0.3356460 1.1307056 0.0267700
v -0.3351885 1.1290791 0.0238016
v -0.3351207 1.1267170 0.0213355
v -0.3354482 1.1238108 0.0195712
v -0.3361445 1.1205958 0.0186519
v -0.5071531 0.5673326 0.0186519
v -0.5083924 0.5642854 0.0195712
v -0.5097619 0.5617013 0.0213355
v -0.5111507 0.5597894 0.0238016
v -0.5124463 0.5587048 0.0267700
v -0.3342308 1.1302682 0.0277019
v -0.3324727 1.1282397 0.0255900
v -0.3313244 1.1255436 0.0238354
v -0.3308790 1.1223985 0.0225801
v -0.3311725 1.1190590 0.0219260
v -0.5021811 0.5657958 0.0219260
v -0.5038232 0.5628731 0.0225801
v -0.5059657 0.5605279 0.0238354
v -0.5084350 0.5589500 0.0255900
v -0.5110311 0.5582673 0.0277019
v -0.3334504 1.1300270 0.0292496
v -0.3309751 1.1277768 0.0285600
v -0.3292310 1.1248965 0.0279871
v -0.3283593 1.1216196 0.0275772
v -0.3284306 1.1182115 0.0273636
v -0.4994392 0.5649483 0.0273636
v -0.5013035 0.5620943 0.0275772
v -0.5038722 0.5598808 0.0279871
v -0.5069374 0.5584871 0.0285600
v -0.5102507 0.5580261 0.0292496
vn 0.2953063 0.9554026 0.0000000
vn 0.5582078 0.8248542 0.0895525
vn 0.7536465 0.6363696 0.1644710
vn 0.8887593 0.3987532 0.2260594
vn 0.9539850 0.1309099 0.2697688
vn 0.9450006 -0.1464782 0.2924346
vn 0.8628352 -0.4123074 0.2924346
vn 0.7137301 -0.6463855 0.2697688
vn 0.5087438 -0.8307087 0.2260594
vn 0.2631158 -0.9506416 0.1644710
vn -0.0045929 -0.9959715 0.0895525
vn -0.2953063 -0.9554026 -0.0000000
vn 0.4783433 0.8495396 0.2224190
vn 0.6069684 0.6817064 0.4084920
vn 0.6871555 0.4610671 0.5614575
vn 0.7134004 0.2052724 0.6700173
vn 0.6842022 -0.0658678 0.7263118
vn 0.6020368 -0.3316970 0.7263118
vn 0.4731455 -0.5720229 0.6700173
vn 0.3071400 -0.7683947 0.5614575
vn 0.1164377 -0.9053047 0.4084920
vn -0.0844574 -0.9712861 0.2224190
vn 0.3457081 0.8905359 0.2956886
vn 0.3633722 0.7569998 0.5430580
vn 0.3523413 0.5645551 0.7464135
vn 0.3138488 0.3287702 0.8907352
vn 0.2510804 0.0680062 0.9655743
vn 0.1689150 -0.1978230 0.9655743
vn 0.0735938 -0.4485252 0.8907352
vn -0.0276742 -0.6649067 0.7464135
vn -0.1271585 -0.8300113 0.5430580
vn -0.2170926 -0.9302898 0.2956886
vn 0.1958417 0.9368582 0.2897286
vn 0.0881294 0.8420749 0.5321120
vn -0.0259700 0.6814877 0.7313687
vn -0.1376103 0.4683121 0.8727813
vn -0.2383101 0.2192724 0.9461120
vn -0.3204755 -0.0465568 0.9461120
vn -0.3778653 -0.3089833 0.8727813
vn -0.4059855 -0.5479741 0.7313687
vn -0.4024014 -0.7449363 0.5321120
vn -0.3669590 -0.8839674 0.2897286
vn 0.0689006 0.9760946 0.2061361
vn -0.1450090 0.9141358 0.3785870
vn -0.3464103 0.7805328 0.5203541
vn -0.5200088 0.5865080 0.6209664
vn -0.6528375 0.3473990 0.6731397
vn -0.7350029 0.0815698 0.6731397
vn -0.7602637 -0.1907874 0.6209664
vn -0.7264257 -0.4489290 0.5203541
vn -0.6355397 -0.6728753 0.3785870
vn -0.4939001 -0.8447311 0.2061361
vn -0.0011013 0.9977315 0.0673096
vn -0.2735736 0.9538740 0.1236199
vn -0.5231177 0.8351515 0.1699111
vn -0.7308833 0.6516873 0.2027640
vn -0.8814296 0.4180548 0.2198002
vn -0.9635950 0.1522256 0.2198002
vn -0.9711382 -0.1256080 0.2027640
vn -0.9031332 -0.3943103 0.1699111
vn -0.7641044 -0.6331371 0.1236199
vn -0.5639020 -0.8230941 0.0673096
vn 0.0045929 0.9959715 -0.0895525
vn -0.2631158 0.9506416 -0.1644710
vn -0.5087438 0.8307087 -0.2260594
vn -0.7137301 0.6463855 -0.2697688
vn -0.8628352 0.4123074 -0.2924346
vn -0.9450006 0.1464782 -0.2924346
vn -0.9539850 -0.1309099 -0.2697688
vn -0.8887593 -0.3987532 -0.2260594
vn -0.7536465 -0.6363696 -0.1644710
vn -0.5582078 -0.8248542 -0.0895525
vn 0.0844574 0.9712861 -0.2224190
vn -0.1164377 0.9053047 -0.4084920
vn -0.3071400 0.7683947 -0.5614575
vn -0.4731455 0.5720229 -0.6700173
vn -0.6020368 0.3316970 -0.7263118
vn -0.6842022 0.0658678 -0.7263118
vn -0.7134004 -0.2052724 -0.6700173
vn -0.6871555 -0.4610671 -0.5614575
vn -0.6069684 -0.6817064 -0.4084920
vn -0.4783433 -0.8495396 -0.2224190
vn 0.2170926 0.9302898 -0.2956886
vn 0.1271585 0.8300113 -0.5430580
vn 0.0276742 0.6649067 -0.7464135
vn -0.0735938 0.4485252 -0.8907352
vn -0.1689150 0.1978230 -0.9655743
vn -0.2510804 -0.0680062 -0.9655743
vn -0.3138488 -0.3287702 -0.8907352
vn -0.3523413 -0.5645551 -0.7464135
vn -0.3633722 -0.7569998 -0.5430580
vn -0.3457081 -0.8905359 -0.2956886
vn 0.3669590 0.8839674 -0.2897286
vn 0.4024014 0.7449363 -0.5321120
vn 0.4059855 0.5479741 -0.7313687
vn 0.3778653 0.3089833 -0.8727813
vn 0.3204755 0.0465568 -0.9461120
vn 0.2383101 -0.2192724 -0.9461120
vn 0.1376103 -0.4683121 -0.8727813
vn 0.0259700 -0.6814877 -0.7313687
vn -0.0881294 -0.8420749 -0.5321120
vn -0.1958417 -0.9368582 -0.2897286
vn 0.4939001 0.8447311 -0.2061361
vn 0.6355397 0.6728753 -0.3785870
vn 0.7264257 0.4489290 -0.5203541
vn 0.7602637 0.1907874 -0.6209664
vn 0.7350029 -0.0815698 -0.6731397
vn 0.6528375 -0.3473990 -0.6731397
vn 0.5200088 -0.5865080 -0.6209664
vn 0.3464103 -0.7805328 -0.5203541
vn 0.1450090 -0.9141358 -0.3785870
vn -0.0689006 -0.9760946 -0.2061361
vn 0.5639020 0.8230941 -0.0673096
vn 0.7641044 0.6331371 -0.1236199
vn 0.9031332 0.3943103 -0.1699111
vn 0.9711382 0.1256080 -0.2027640
vn 0.9635950 -0.1522256 -0.2198002
vn 0.8814296 -0.4180548 -0.2198002
vn 0.7308833 -0.6516873 -0.2027640
vn 0.5231177 -0.8351515 -0.1699111
vn 0.2735736 -0.9538740 -0.1236199
vn 0.0011013 -0.9977315 -0.0673096
f 2//2 1//1 13//13
f 2//2 13//13 3//3
f 3//3 13//13 14//14
f 3//3 14//14 4//4
f 4//4 14//14 15//15
f 4//4 15//15 5//5
f 5//5 15//15 16//16
f 5//5 16//16 6//6
f 6//6 16//16 17//17
f 6//6 17//17 7//7
f 7//7 17//17 18//18
f 7//7 18//18 8//8
f 8//8 18//18 19//19
f 8//8 19//19 9//9
f 9//9 19//19 20//20
f 9//9 20//20 10//10
f 10//10 20//20 21//21
f 10//10 21//21 11//11
f 11//11 21//21 22//22
f 11//11 22//22 12//12
f 13//13 1//1 23//23
f 13//13 23//23 14//14
f 14//14 23//23 24//24
f 14//14 24//24 15//15
f 15//15 24//24 25//25
f 15//15 25//25 16//16
f 16//16 25//25 26//26
f 16//16 26//26 17//17
f 17//17 26//26 27//27
f 17//17 27//27 18//18
f 18//18 27//27 28//28
f 18//18 28//28 19//19
f 19//19 28//28 29//29
f 19//19 29//29 20//20
f 20//20 29//29 30//30
f 20//20 30//30 21//21
f 21//21 30//30 31//31
f 21//21 31//31 22//22
f 22//22 31//31 32//32
f 22//22 32//32 12//12
f 23//23 1//1 33//33
f 23//23 33//33 24//24
f 24//24 33//33 34//34
f 24//24 34//34 25//25
f 25//25 34//34 35//35
f 25//25 35//35 26//26
f 26//26 35//35 36//36
f 26//26 36//36 27//27
f 27//27 36//36 37//37
f 27//27 37//37 28//28
f 28//28 37//37 38//38
f 28//28 38//38 29//29
f 29//29 38//38 39//39
f 29//29 39//39 30//30
f 30//30 39//39 40//40
f 30//30 40//40 31//31
f 31//31 40//40 41//41
f 31//31 41//41 32//32
f 32//32 41//41 42//42
f 32//32 42//42 12//12
f 33//33 1//1 43//43
f 33//33 43//43 34//34
f 34//34 43//43 44//44
f 34//34 44//44 35//35
f 35//35 44//44 45//45
f 35//35 45//45 36//36
f 36//36 45//45 46//46
f 36//36 46//46 37//37
f 37//37 46//46 47//47
f 37//37 47//47 38//38
f 38//38 47//47 48//48
f 38//38 48//48 39//39
f 39//39 48//48 49//49
f 39//39 49//49 40//40
f 40//40 49//49 50//50
f 40//40 50//50 41//41
f 41//41 50//50 51//51
f 41//41 51//51 42//42
f 42//42 51//51 52//52
f 42//42 52//52 12//12
f 43//43 1//1 53//53
f 43//43 53//53 44//44
f 44//44 53//53 54//54
f 44//44 54//54 45//45
f 45//45 54//54 55//55
f 45//45 55//55 46//46
f 46//46 55//55 56//56
f 46//46 56//56 47//47
f 47//47 56//56 57//57
f 47//47 57//57 48//48
f 48//48 57//57 58//58
f 48//48 58//58 49//49
f 49//49 58//58 59//59
f 49//49 59//59 50//50
f 50//50 59//59 60//60
f 50//50 60//60 51//51
f 51//51 60//60 61//61
f 51//51 61//61 52//52
f 52//52 61//61 62//62
f 52//52 62//62 12//12
f 53//53 1//1 63//63
f 53//53 63//63 54//54
f 54//54 63//63 64//64
f 54//54 64//64 55//55
f 55//55 64//64 65//65
f 55//55 65//65 56//56
f 56//56 65//65 66//66
f 56//56 66//66 57//57
f 57//57 66//66 67//67
f 57//57 67//67 58//58
f 58//58 67//67 68//68
f 58//58 68//68 59//59
f 59//59 68//68 69//69
f 59//59 69//69 60//60
f 60//60 69//69 70//70
f 60//60 70//70 61//61
f 61//61 70//70 71//71
f 61//61 71//71 62//62
f 62//62 71//71 72//72
f 62//62 72//72 12//12
f 63//63 1//1 73//73
f 63//63 73//73 64//64
f 64//64 73//73 74//74
f 64//64 74//74 65//65
f 65//65 74//74 75//75
f 65//65 75//75 66//66
f 66//66 75//75 76//76
f 66//66 76//76 67//67
f 67//67 76//76 77//77
f 67//67 77//77 68//68
f 68//68 77//77 78//78
f 68//68 78//78 69//69
f 69//69 78//78 79//79
f 69//69 79//79 70//70
f 70//70 79//79 80//80
f 70//70 80//80 71//71
f 71//71 80//80 81//81
f 71//71 81//81 72//72
f 72//72 81//81 82//82
f 72//72 82//82 12//12
f 73//73 1//1 83//83
f 73//73 83//83 74//74
f 74//74 83//83 84//84
f 74//74 84//84 75//75
f 75//75 84//84 85//85
f 75//75 85//85 76//76
f 76//76 85//85 86//86
f 76//76 86//86 77//77
f 77//77 86//86 87//87
f 77//77 87//87 78//78
f 78//78 87//87 88//88
f 78//78 88//88 79//79
f 79//79 88//88 89//89
f 79//79 89//89 80//80
f 80//80 89//89 90//90
f 80//80 90//90 81//81
f 81//81 90//90 91//91
f 81//81 91//91 82//82
f 82//82 91//91 92//92
f 82//82 92//92 12//12
f 83//83 1//1 93//93
f 83//83 93//93 84//84
f 84//84 93//93 94//94
f 84//84 94//94 85//85
f 85//85 94//94 95//95
f 85//85 95//95 86//86
f 86//86 95//95 96//96
f 86//86 96//96 87//87
f 87//87 96//96 97//97
f 87//87 97//97 88//88
f 88//88 97//97 98//98
f 88//88 98//98 89//89
f 89//89 98//98 99//99
f 89//89 99//99 90//90
f 90//90 99//99 100//100
f 90//90 100//100 91//91
f 91//91 100//100 101//101
f 91//91 101//101 92//92
f 92//92 101//101 102//102
f 92//92 102//102 12//12
f 93//93 1//1 103//103
f 93//93 103//103 94//94
f 94//94 103//103 104//104
f 94//94 104//104 95//95
f 95//95 104//104 105//105
f 95//95 105//105 96//96
f 96//96 105//105 106//106
f 96//96 106//106 97//97
f 97//97 106//106 107//107
f 97//97 107//107 98//98
f 98//98 107//107 108//108
f 98//98 108//108 99//99
f 99//99 108//108 109//109
f 99//99 109//109 100//100
f 100//100 109//109 110//110
f 100//100 110//110 101//101
f 101//101 110//110 111//111
f 101//101 111//111 102//102
f 102//102 111//111 112//112
f 102//102 112//112 12//12
f 103//103 1//1 113//113
f 103//103 113//113 104//104
f 104//104 113//113 114//114
f 104//104 114//114 105//105
f 105//105 114//114 115//115
f 105//105 115//115 106//106
f 106//106 115//115 116//116
f 106//106 116//116 107//107
f 107//107 116//116 117//117
f 107//107 117//117 108//108
f 108//108 117//117 118//118
f 108//108 118//118 109//109
f 109//109 118//118 119//119
f 109//109 119//119 110//110
f 110//110 119//119 120//120
f 110//110 120//120 111//111
f 111//111 120//120 121//121
f 111//111 121//121 112//112
f 112//112 121//121 122//122
f 112//112 122//122 12//12
f 113//113 1//1 2//2
f 113//113 2//2 114//114
f 114//114 2//2 3//3
f 114//114 3//3 115//115
f 115//115 3//3 4//4
f 115//115 4//4 116//116
f 116//116 4//4 5//5
f 116//116 5//5 117//117
f 117//117 5//5 6//6
f 117//117 6//6 118//118
f 118//118 6//6 7//7
f 118//118 7//7 119//119
f 119//119 7//7 8//8
f 119//119 8//8 120//120
f 120//120 8//8 9//9
f 120//120 9//9 121//121
f 121//121 9//9 10//10
f 121//121 10//10 122//122
f 122//122 10//10 11//11
f 122//122 11//11 12//12

