# https://github.com/mikedh/trimesh
v -0.0190838 -0.3295597 -0.0000000
v -0.0167644 -0.3314328 0.0016668
v -0.0151122 -0.3339999 0.0031985
v -0.0142611 -0.3370531 0.0044711
v -0.0142799 -0.3403450 0.0053815
v -0.0151672 -0.3436090 0.0058559
v -0.1018511 -0.4965806 0.0058559
v -0.1041952 -0.4990191 0.0053815
v -0.1070096 -0.5007269 0.0044711
v -0.1100662 -0.5015657 0.0031985
v -0.1131175 -0.5014675 0.0016668
v -0.1159162 -0.5004403 0.0000000
v -0.0178324 -0.3308276 0.0029141
v -0.0171615 -0.3328386 0.0055922
v -0.0171258 -0.3354297 0.0078172
v -0.0177279 -0.3383911 0.0094089
v -0.0189192 -0.3414829 0.0102384
v -0.1056031 -0.4944545 0.0102384
v -0.1076432 -0.4970652 0.0094089
v -0.1098743 -0.4991036 0.0078172
v -0.1121155 -0.5004044 0.0055922
v -0.1141854 -0.5008623 0.0029141
v -0.0192998 -0.3299961 0.0033807
v -0.0199776 -0.3312428 0.0064875
v -0.0210622 -0.3331991 0.0090687
v -0.0224659 -0.3357063 0.0109152
v -0.0240749 -0.3385613 0.0118775
v -0.1107588 -0.4915329 0.0118775
v -0.1123812 -0.4943804 0.0109152
v -0.1138107 -0.4968729 0.0090687
v -0.1149315 -0.4988087 0.0064875
v -0.1156528 -0.5000308 0.0033807
v -0.0207736 -0.3291609 0.0029414
v -0.0228058 -0.3296402 0.0056444
v -0.0250157 -0.3309588 0.0078902
v -0.0272244 -0.3330098 0.0094968
v -0.0292528 -0.3356271 0.0103340
v -0.1159367 -0.4885988 0.0103340
v -0.1171397 -0.4916839 0.0094968
v -0.1177642 -0.4946326 0.0078902
v -0.1177598 -0.4972060 0.0056444
v -0.1171266 -0.4991956 0.0029414
v -0.0218589 -0.3285459 0.0017139
v -0.0248884 -0.3284601 0.0032890
v -0.0279269 -0.3293091 0.0045976
v -0.0307283 -0.3310242 0.0055337
v -0.0330657 -0.3334665 0.0060215
v -0.1197496 -0.4864382 0.0060215
v -0.1206436 -0.4896983 0.0055337
v -0.1206754 -0.4929829 0.0045976
v -0.1198423 -0.4960259 0.0032890
v -0.1182119 -0.4985807 0.0017139
v -0.0222648 -0.3283159 0.0000272
v -0.0256673 -0.3280187 0.0000522
v -0.0290157 -0.3286921 0.0000730
v -0.0320388 -0.3302816 0.0000879
v -0.0344917 -0.3326585 0.0000956
v -0.1211756 -0.4856301 0.0000956
v -0.1219542 -0.4889557 0.0000879
v -0.1217642 -0.4923659 0.0000730
v -0.1206212 -0.4955845 0.0000522
v -0.1186178 -0.4983506 0.0000272
v -0.0218825 -0.3285325 -0.0016668
v -0.0249338 -0.3284343 -0.0031985
v -0.0279904 -0.3292731 -0.0044711
v -0.0308048 -0.3309809 -0.0053815
v -0.0331489 -0.3334194 -0.0058559
v -0.1198328 -0.4863910 -0.0058559
v -0.1207201 -0.4896550 -0.0053815
v -0.1207389 -0.4929469 -0.0044711
v -0.1198878 -0.4960001 -0.0031985
v -0.1182356 -0.4985672 -0.0016668
v -0.0208146 -0.3291377 -0.0029141
v -0.0228845 -0.3295956 -0.0055922
v -0.0251257 -0.3308964 -0.0078172
v -0.0273568 -0.3329348 -0.0094089
v -0.0293969 -0.3355455 -0.0102384
v -0.1160808 -0.4885171 -0.0102384
v -0.1172721 -0.4916089 -0.0094089
v -0.1178742 -0.4945703 -0.0078172
v -0.1178385 -0.4971614 -0.0055922
v -0.1171676 -0.4991724 -0.0029141
v -0.0193472 -0.3299692 -0.0033807
v -0.0200685 -0.3311913 -0.0064875
v -0.0211893 -0.3331271 -0.0090687
v -0.0226188 -0.3356196 -0.0109152
v -0.0242412 -0.3384671 -0.0118775
v -0.1109251 -0.4914387 -0.0118775
v -0.1125341 -0.4942937 -0.0109152
v -0.1139378 -0.4968009 -0.0090687
v -0.1150224 -0.4987572 -0.0064875
v -0.1157002 -0.5000039 -0.0033807
v -0.0178734 -0.3308044 -0.0029414
v -0.0172402 -0.3327940 -0.0056444
v -0.0172358 -0.3353674 -0.0078902
v -0.0178603 -0.3383161 -0.0094968
v -0.0190633 -0.3414012 -0.0103340
v -0.1057472 -0.4943729 -0.0103340
v -0.1077756 -0.4969902 -0.0094968
v -0.1099843 -0.4990412 -0.0078902
v -0.1121942 -0.5003598 -0.0056444
v -0.1142264 -0.5008391 -0.0029414
v -0.0167881 -0.3314193 -0.0017139
v -0.0151577 -0.3339741 -0.0032890
v -0.0143246 -0.3370171 -0.0045976
v -0.0143564 -0.3403017 -0.0055337
v -0.0152504 -0.3435618 -0.0060215
v -0.1019343 -0.4965335 -0.0060215
v -0.1042717 -0.4989758 -0.0055337
v -0.1070731 -0.5006909 -0.0045976
v -0.1101116 -0.5015399 -0.0032890
v -0.1131411 -0.5014541 -0.0017139
v -0.0163822 -0.3316494 -0.0000272
v -0.0143788 -0.3344155 -0.0000522
v -0.0132358 -0.3376341 -0.0000730
v -0.0130458 -0.3410443 -0.0000879
v -0.0138244 -0.3443699 -0.0000956
v -0.1005083 -0.4973415 -0.0000956
v -0.1029612 -0.4997184 -0.0000879
v -0.1059843 -0.5013079 -0.0000730
v -0.1093327 -0.5019813 -0.0000522
v -0.1127352 -0.5016841 -0.0000272
vn 0.4930126 0.8700222 0.0000000
vn 0.6993405 0.6989781 0.1495075
vn 0.8310468 0.4836994 0.2745836
vn 0.8966599 0.2314440 0.3774052
vn 0.8920323 -0.0379229 0.4503778
vn 0.8181653 -0.3037242 0.4882184
vn 0.6809905 -0.5457974 0.4882184
vn 0.4909278 -0.7457545 0.4503778
vn 0.2622257 -0.8881458 0.3774052
vn 0.0121078 -0.9614870 0.2745836
vn -0.2402528 -0.9591278 0.1495075
vn -0.4930126 -0.8700222 0.0000000
vn 0.6035500 0.7532594 0.2613957
vn 0.6551192 0.5833917 0.4800760
vn 0.6548538 0.3684674 0.6598471
vn 0.6034722 0.1255945 0.7874308
vn 0.5053605 -0.1264682 0.8535904
vn 0.3681857 -0.3685413 0.8535904
vn 0.2023676 -0.5822371 0.7874308
vn 0.0204196 -0.7511224 0.6598471
vn -0.1638197 -0.8617947 0.4800760
vn -0.3360433 -0.9048465 0.2613957
vn 0.4719205 0.8278495 0.3032431
vn 0.4133700 0.7203829 0.5569324
vn 0.3225783 0.5567569 0.7654835
vn 0.2069500 0.3502904 0.9134924
vn 0.0755227 0.1171066 0.9902436
vn -0.0616521 -0.1249666 0.9902436
vn -0.1941545 -0.3575412 0.9134924
vn -0.3118559 -0.5628329 0.7654835
vn -0.4055689 -0.7248035 0.5569324
vn -0.4676729 -0.8302564 0.3032431
vn 0.3397218 0.9027620 0.2638367
vn 0.1705757 0.8579663 0.4845593
vn -0.0111338 0.7458604 0.6660092
vn -0.1912864 0.5759577 0.7947844
vn -0.3561734 0.3617343 0.8615618
vn -0.4933482 0.1196612 0.8615618
vn -0.5923910 -0.1318739 0.7947844
vn -0.6455680 -0.3737294 0.6660092
vn -0.6483633 -0.5872200 0.4845593
vn -0.5998715 -0.7553439 0.2638367
vn 0.2423766 0.9579243 0.1537356
vn -0.0082073 0.9592767 0.2823488
vn -0.2568645 0.8851078 0.3880783
vn -0.4845300 0.7421291 0.4631146
vn -0.6740552 0.5418674 0.5020252
vn -0.8112300 0.2997942 0.5020252
vn -0.8856346 0.0342975 0.4631146
vn -0.8912987 -0.2344820 0.3880783
vn -0.8271462 -0.4859097 0.2823488
vn -0.6972167 -0.7001816 0.1537356
vn 0.2059685 0.9785556 0.0024411
vn -0.0750741 0.9971679 0.0044833
vn -0.3487705 0.9371879 0.0061621
vn -0.5942063 0.8042790 0.0073536
vn -0.7929465 0.6092391 0.0079714
vn -0.9301213 0.3671660 0.0079714
vn -0.9953109 0.0964474 0.0073536
vn -0.9832047 -0.1824019 0.0061621
vn -0.8940130 -0.4480185 0.0044833
vn -0.7336249 -0.6795503 0.0024411
vn 0.2402528 0.9591278 -0.1495075
vn -0.0121078 0.9614870 -0.2745836
vn -0.2622257 0.8881458 -0.3774052
vn -0.4909278 0.7457545 -0.4503778
vn -0.6809905 0.5457974 -0.4882184
vn -0.8181653 0.3037242 -0.4882184
vn -0.8920323 0.0379229 -0.4503778
vn -0.8966599 -0.2314440 -0.3774052
vn -0.8310468 -0.4836994 -0.2745836
vn -0.6993405 -0.6989781 -0.1495075
vn 0.3360433 0.9048465 -0.2613957
vn 0.1638197 0.8617947 -0.4800760
vn -0.0204196 0.7511224 -0.6598471
vn -0.2023676 0.5822371 -0.7874308
vn -0.3681857 0.3685413 -0.8535904
vn -0.5053605 0.1264682 -0.8535904
vn -0.6034722 -0.1255945 -0.7874308
vn -0.6548538 -0.3684674 -0.6598471
vn -0.6551192 -0.5833917 -0.4800760
vn -0.6035500 -0.7532594 -0.2613957
vn 0.4676729 0.8302564 -0.3032431
vn 0.4055689 0.7248035 -0.5569324
vn 0.3118559 0.5628329 -0.7654835
vn 0.1941545 0.3575412 -0.9134924
vn 0.0616521 0.1249666 -0.9902436
vn -0.0755227 -0.1171066 -0.9902436
vn -0.2069500 -0.3502904 -0.9134924
vn -0.3225783 -0.5567569 -0.7654835
vn -0.4133700 -0.7203829 -0.5569324
vn -0.4719205 -0.8278495 -0.3032431
vn 0.5998715 0.7553439 -0.2638367
vn 0.6483633 0.5872200 -0.4845593
vn 0.6455680 0.3737294 -0.6660092
vn 0.5923910 0.1318739 -0.7947844
vn 0.4933482 -0.1196612 -0.8615618
vn 0.3561734 -0.3617343 -0.8615618
vn 0.1912864 -0.5759577 -0.7947844
vn 0.0111338 -0.7458604 -0.6660092
vn -0.1705757 -0.8579663 -0.4845593
vn -0.3397218 -0.9027620 -0.2638367
vn 0.6972167 0.7001816 -0.1537356
vn 0.8271462 0.4859097 -0.2823488
vn 0.8912987 0.2344820 -0.3880783
vn 0.8856346 -0.0342975 -0.4631146
vn 0.8112300 -0.2997942 -0.5020252
vn 0.6740552 -0.5418674 -0.5020252
vn 0.4845300 -0.7421291 -0.4631146
vn 0.2568645 -0.8851078 -0.3880783
vn 0.0082073 -0.9592767 -0.2823488
vn -0.2423766 -0.9579243 -0.1537356
vn 0.7336249 0.6795503 -0.0024411
vn 0.8940130 0.4480185 -0.0044833
vn 0.9832047 0.1824019 -0.0061621
vn 0.9953109 -0.0964474 -0.0073536
vn 0.9301213 -0.3671660 -0.0079714
vn 0.7929465 -0.6092391 -0.0079714
vn 0.5942063 -0.8042790 -0.0073536
vn 0.3487705 -0.9371879 -0.0061621
vn 0.0750741 -0.9971679 -0.0044833
vn -0.2059685 -0.9785556 -0.0024411
f 2//2 1//1 13//13
f 2//2 13//13 3//3
f 3//3 13//13 14//14
f 3//3 14//14 4//4
f 4//4 14//14 15//15
f 4//4 15//15 5//5
f 5//5 15//15 16//16
f 5//5 16//16 6//6
f 6//6 16//16 17//17
f 6//6 17//17 7//7
f 7//7 17//17 18//18
f 7//7 18//18 8//8
f 8//8 18//18 19//19
f 8//8 19//19 9//9
f 9//9 19//19 20//20
f 9//9 20//20 10//10
f 10//10 20//20 21//21
f 10//10 21//21 11//11
f 11//11 21//21 22//22
f 11//11 22//22 12//12
f 13//13 1//1 23//23
f 13//13 23//23 14//14
f 14//14 23//23 24//24
f 14//14 24//24 15//15
f 15//15 24//24 25//25
f 15//15 25//25 16//16
f 16//16 25//25 26//26
f 16//16 26//26 17//17
f 17//17 26//26 27//27
f 17//17 27//27 18//18
f 18//18 27//27 28//28
f 18//18 28//28 19//19
f 19//19 28//28 29//29
f 19//19 29//29 20//20
f 20//20 29//29 30//30
f 20//20 30//30 21//21
f 21//21 30//30 31//31
f 21//21 31//31 22//22
f 22//22 31//31 32//32
f 22//22 32//32 12//12
f 23//23 1//1 33//33
f 23//23 33//33 24//24
f 24//24 33//33 34//34
f 24//24 34//34 25//25
f 25//25 34//34 35//35
f 25//25 35//35 26//26
f 26//26 35//35 36//36
f 26//26 36//36 27//27
f 27//27 36//36 37//37
f 27//27 37//37 28//28
f 28//28 37//37 38//38
f 28//28 38//38 29//29
f 29//29 38//38 39//39
f 29//29 39//39 30//30
f 30//30 39//39 40//40
f 30//30 40//40 31//31
f 31//31 40//40 41//41
f 31//31 41//41 32//32
f 32//32 41//41 42//42
f 32//32 42//42 12//12
f 33//33 1//1 43//43
f 33//33 43//43 34//34
f 34//34 43//43 44//44
f 34//34 44//44 35//35
f 35//35 44//44 45//45
f 35//35 45//45 36//36
f 36//36 45//45 46//46
f 36//36 46//46 37//37
f 37//37 46//46 47//47
f 37//37 47//47 38//38
f 38//38 47//47 48//48
f 38//38 48//48 39//39
f 39//39 48//48 49//49
f 39//39 49//49 40//40
f 40//40 49//49 50//50
f 40//40 50//50 41//41
f 41//41 50//50 51//51
f 41//41 51//51 42//42
f 42//42 51//51 52//52
f 42//42 52//52 12//12
f 43//43 1//1 53//53
f 43//43 53//53 44//44
f 44//44 53//53 54//54
f 44//44 54//54 45//45
f 45//45 54//54 55//55
f 45//45 55//55 46//46
f 46//46 55//55 56//56
f 46//46 56//56 47//47
f 47//47 56//56 57//57
f 47//47 57//57 48//48
f 48//48 57//57 58//58
f 48//48 58//58 49//49
f 49//49 58//58 59//59
f 49//49 59//59 50//50
f 50//50 59//59 60//60
f 50//50 60//60 51//51
f 51//51 60//60 61//61
f 51//51 61//61 52//52
f 52//52 61//61 62//62
f 52//52 62//62 12//12
f 53//53 1//1 63//63
f 53//53 63//63 54//54
f 54//54 63//63 64//64
f 54//54 64//64 55//55
f 55//55 64//64 65//65
f 55//55 65//65 56//56
f 56//56 65//65 66//66
f 56//56 66//66 57//57
f 57//57 66//66 67//67
f 57//57 67//67 58//58
f 58//58 67//67 68//68
f 58//58 68//68 59//59
f 59//59 68//68 69//69
f 59//59 69//69 60//60
f 60//60 69//69 70//70
f 60//60 70//70 61//61
f 61//61 70//70 71//71
f 61//61 71//71 62//62
f 62//62 71//71 72//72
f 62//62 72//72 12//12
f 63//63 1//1 73//73
f 63//63 73//73 64//64
f 64//64 73//73 74//74
f 64//64 74//74 65//65
f 65//65 74//74 75//75
f 65//65 75//75 66//66
f 66//66 75//75 76//76
f 66//66 76//76 67//67
f 67//67 76//76 77//77
f 67//67 77//77 68//68
f 68//68 77//77 78//78
f 68//68 78//78 69//69
f 69//69 78//78 79//79
f 69//69 79//79 70//70
f 70//70 79//79 80//80
f 70//70 80//80 71//71
f 71//71 80//80 81//81
f 71//71 81//81 72//72
f 72//72 81//81 82//82
f 72//72 82//82 12//12
f 73//73 1//1 83//83
f 73//73 83//83 74//74
f 74//74 83//83 84//84
f 74//74 84//84 75//75
f 75//75 84//84 85//85
f 75//75 85//85 76//76
f 76//76 85//85 86//86
f 76//76 86//86 77//77
f 77//77 86//86 87//87
f 77//77 87//87 78//78
f 78//78 87//87 88//88
f 78//78 88//88 79//79
f 79//79 88//88 89//89
f 79//79 89//89 80//80
f 80//80 89//89 90//90
f 80//80 90//90 81//81
f 81//81 90//90 91//91
f 81//81 91//91 82//82
f 82//82 91//91 92//92
f 82//82 92//92 12//12
f 83//83 1//1 93//93
f 83//83 93//93 84//84
f 84//84 93//93 94//94
f 84//84 94//94 85//85
f 85//85 94//94 95//95
f 85//85 95//95 86//86
f 86//86 95//95 96//96
f 86//86 96//96 87//87
f 87//87 96//96 97//97
f 87//87 97//97 88//88
f 88//88 97//97 98//98
f 88//88 98//98 89//89
f 89//89 98//98 99//99
f 89//89 99//99 90//90
f 90//90 99//99 100//100
f 90//90 100//100 91//91
f 91//91 100//100 101//101
f 91//91 101//101 92//92
f 92//92 101//101 102//102
f 92//92 102//102 12//12
f 93//93 1//1 103//103
f 93//93 103//103 94//94
f 94//94 103//103 104//104
f 94//94 104//104 95//95
f 95//95 104//104 105//105
f 95//95 105//105 96//96
f 96//96 105//105 106//106
f 96//96 106//106 97//97
f 97//97 106//106 107//107
f 97//97 107//107 98//98
f 98//98 107//107 108//108
f 98//98 108//108 99//99
f 99//99 108//108 109//109
f 99//99 109//109 100//100
f 100//100 109//109 110//110
f 100//100 110//110 101//101
f 101//101 110//110 111//111
f 101//101 111//111 102//102
f 102//102 111//111 112//112
f 102//102 112//112 12//12
f 103//103 1//1 113//113
f 103//103 113//113 104//104
f 104//104 113//113 114//114
f 104//104 114//114 105//105
f 105//105 114//114 115//115
f 105//105 115//115 106//106
f 106//106 115//115 116//116
f 106//106 116//116 107//107
f 107//107 116//116 117//117
f 107//107 117//117 108//108
f 108//108 117//117 118//118
f 108//108 118//118 109//109
f 109//109 118//118 119//119
f 109//109 119//119 110//110
f 110//110 119//119 120//120
f 110//110 120//120 111//111
f 111//111 120//120 121//121
f 111//111 121//121 112//112
f 112//112 121//121 122//122
f 112//112 122//122 12//12
f 113//113 1//1 2//2
f 113//113 2//2 114//114
f 114//114 2//2 3//3
f 114//114 3//3 115//115
f 115//115 3//3 4//4
f 115//115 4//4 116//116
f 116//116 4//4 5//5
f 116//116 5//5 117//117
f 117//117 5//5 6//6
f 117//117 6//6 118//118
f 118//118 6//6 7//7
f 118//118 7//7 119//119
f 119//119 7//7 8//8
f 119//119 8//8 120//120
f 120//120 8//8 9//9
f 120//120 9//9 121//121
f 121//121 9//9 10//10
f 121//121 10//10 122//122
f 122//122 10//10 11//11
f 122//122 11//11 12//12

