# https://github.com/mikedh/trimesh
v 0.0297189 1.3563457 0.0677512
v 0.0312024 1.3565124 0.0677907
v 0.0325409 1.3570998 0.0680966
v 0.0335729 1.3580370 0.0686322
v 0.0341740 1.3592110 0.0693327
v 0.0442716 1.4904801 0.1501137
v 0.0438540 1.4916913 0.1508810
v 0.0429716 1.4926985 0.1515420
v 0.0417307 1.4933803 0.1520170
v 0.0402811 1.4936543 0.1522488
v 0.0308908 1.3569772 0.0670744
v 0.0319552 1.3579733 0.0667505
v 0.0327839 1.3592138 0.0668185
v 0.0332767 1.3605492 0.0672702
v 0.0433743 1.4918183 0.1480512
v 0.0430650 1.4928681 0.1490673
v 0.0423859 1.4935720 0.1501958
v 0.0414191 1.4938450 0.1513008
v 0.0301380 1.3572849 0.0666684
v 0.0305405 1.3585516 0.0659875
v 0.0308778 1.3599930 0.0657906
v 0.0311092 1.3614352 0.0661013
v 0.0412068 1.4927044 0.1468823
v 0.0411589 1.4936473 0.1480394
v 0.0409712 1.4941503 0.1494329
v 0.0406663 1.4941528 0.1508948
v 0.0292316 1.3573181 0.0667279
v 0.0288371 1.3586139 0.0660992
v 0.0285827 1.3600770 0.0659410
v 0.0284994 1.3615307 0.0662724
v 0.0385970 1.4927998 0.1470534
v 0.0388638 1.4937313 0.1481898
v 0.0392677 1.4942126 0.1495445
v 0.0397599 1.4941859 0.1509542
v 0.0285178 1.3570640 0.0672300
v 0.0274956 1.3581364 0.0670428
v 0.0267754 1.3594336 0.0672124
v 0.0264441 1.3607991 0.0677181
v 0.0365417 1.4920682 0.1484991
v 0.0370565 1.4930879 0.1494612
v 0.0379262 1.4937351 0.1504882
v 0.0390461 1.4939318 0.1514563
v 0.0282693 1.3566197 0.0679830
v 0.0270284 1.3573015 0.0684580
v 0.0261460 1.3583087 0.0691190
v 0.0257284 1.3595199 0.0698863
v 0.0358260 1.4907890 0.1506673
v 0.0364271 1.4919630 0.1513678
v 0.0374591 1.4929002 0.1519034
v 0.0387976 1.4934876 0.1522093
v 0.0285809 1.3561550 0.0686992
v 0.0276141 1.3564280 0.0698042
v 0.0269350 1.3571319 0.0709327
v 0.0266257 1.3581817 0.0719488
v 0.0367233 1.4894508 0.1527298
v 0.0372161 1.4907862 0.1531815
v 0.0380448 1.4920267 0.1532495
v 0.0391092 1.4930228 0.1529256
v 0.0293337 1.3558472 0.0691052
v 0.0290288 1.3558497 0.0705671
v 0.0288411 1.3563527 0.0719606
v 0.0287932 1.3572956 0.0731177
v 0.0388908 1.4885648 0.1538987
v 0.0391222 1.4900070 0.1542094
v 0.0394595 1.4914484 0.1540125
v 0.0398620 1.4927151 0.1533316
v 0.0302401 1.3558141 0.0690458
v 0.0307323 1.3557874 0.0704555
v 0.0311362 1.3562687 0.0718102
v 0.0314030 1.3572002 0.0729466
v 0.0415006 1.4884693 0.1537276
v 0.0414173 1.4899230 0.1540590
v 0.0411629 1.4913861 0.1539008
v 0.0407684 1.4926819 0.1532721
v 0.0309539 1.3560682 0.0685437
v 0.0320738 1.3562649 0.0695118
v 0.0329435 1.3569121 0.0705388
v 0.0334583 1.3579318 0.0715009
v 0.0435559 1.4892009 0.1522819
v 0.0432246 1.4905664 0.1527876
v 0.0425044 1.4918636 0.1529572
v 0.0414822 1.4929360 0.1527700
vn -0.0653720 -0.8498366 -0.5229764
vn 0.3101633 -0.8024494 -0.5097780
vn 0.6113149 -0.6609899 -0.4351855
vn 0.8399175 -0.4446577 -0.3111562
vn 0.9720206 -0.1787961 -0.1523416
vn 0.9939954 0.1068775 0.0234575
vn 0.9034207 0.3808848 0.1968699
vn 0.7092895 0.6126810 0.3486120
vn 0.4315300 0.7753176 0.4611556
vn 0.0653720 0.8498366 0.5229764
vn 0.2313641 -0.6849270 -0.6909021
vn 0.4710107 -0.4517381 -0.7576817
vn 0.6547011 -0.1684231 -0.7368854
vn 0.7631464 0.1327221 -0.6324496
vn 0.7851213 0.4183957 -0.4566504
vn 0.7182044 0.6571194 -0.2288593
vn 0.5689854 0.8219328 0.0261158
vn 0.3527308 0.8928401 0.2800315
vn 0.0410126 -0.6071124 -0.7935569
vn 0.1320850 -0.3131872 -0.9404612
vn 0.2072831 0.0144789 -0.9781738
vn 0.2585794 0.3389863 -0.9045579
vn 0.2805543 0.6246599 -0.7287588
vn 0.2707864 0.8400213 -0.4701477
vn 0.2300597 0.9604837 -0.1566637
vn 0.1623793 0.9706547 0.1773767
vn -0.1881832 -0.5987282 -0.7785317
vn -0.2760042 -0.2982589 -0.9137085
vn -0.3314380 0.0341858 -0.9428574
vn -0.3489530 0.3612104 -0.8647305
vn -0.3269781 0.6468840 -0.6889314
vn -0.2679348 0.8597283 -0.4348313
vn -0.1780295 0.9754120 -0.1299110
vn -0.0668165 0.9790389 0.1924018
vn -0.3686785 -0.6629769 -0.6515657
vn -0.5973807 -0.4126554 -0.6876422
vn -0.7556891 -0.1168297 -0.6444259
vn -0.8273940 0.1909056 -0.5281801
vn -0.8054191 0.4765792 -0.3523810
vn -0.6921859 0.7087128 -0.1363998
vn -0.4994060 0.8610156 0.0961553
vn -0.2473118 0.9147902 0.3193679
vn -0.4315300 -0.7753176 -0.4611556
vn -0.7092895 -0.6126810 -0.3486120
vn -0.9034207 -0.3808848 -0.1968699
vn -0.9939954 -0.1068775 -0.0234575
vn -0.9720206 0.1787961 0.1523416
vn -0.8399175 0.4446577 0.3111562
vn -0.6113149 0.6609899 0.4351855
vn -0.3101633 0.8024494 0.5097780
vn -0.3527308 -0.8928401 -0.2800315
vn -0.5689854 -0.8219328 -0.0261158
vn -0.7182044 -0.6571194 0.2288593
vn -0.7851213 -0.4183957 0.4566504
vn -0.7631464 -0.1327221 0.6324496
vn -0.6547011 0.1684231 0.7368854
vn -0.4710107 0.4517381 0.7576817
vn -0.2313641 0.6849270 0.6909021
vn -0.1623793 -0.9706547 -0.1773767
vn -0.2300597 -0.9604837 0.1566637
vn -0.2707864 -0.8400213 0.4701477
vn -0.2805543 -0.6246599 0.7287588
vn -0.2585794 -0.3389863 0.9045579
vn -0.2072831 -0.0144789 0.9781738
vn -0.1320850 0.3131872 0.9404612
vn -0.0410126 0.6071124 0.7935569
vn 0.0668165 -0.9790389 -0.1924018
vn 0.1780295 -0.9754120 0.1299110
vn 0.2679348 -0.8597283 0.4348313
vn 0.3269781 -0.6468840 0.6889314
vn 0.3489530 -0.3612104 0.8647305
vn 0.3314380 -0.0341858 0.9428574
vn 0.2760042 0.2982589 0.9137085
vn 0.1881832 0.5987282 0.7785317
vn 0.2473118 -0.9147902 -0.3193679
vn 0.4994060 -0.8610156 -0.0961553
vn 0.6921859 -0.7087128 0.1363998
vn 0.8054191 -0.4765792 0.3523810
vn 0.8273940 -0.1909056 0.5281801
vn 0.7556891 0.1168297 0.6444259
vn 0.5973807 0.4126554 0.6876422
vn 0.3686785 0.6629769 0.6515657
f 2//2 1//1 11//11
f 2//2 11//11 3//3
f 3//3 11//11 12//12
f 3//3 12//12 4//4
f 4//4 12//12 13//13
f 4//4 13//13 5//5
f 5//5 13//13 14//14
f 5//5 14//14 6//6
f 6//6 14//14 15//15
f 6//6 15//15 7//7
f 7//7 15//15 16//16
f 7//7 16//16 8//8
f 8//8 16//16 17//17
f 8//8 17//17 9//9
f 9//9 17//17 18//18
f 9//9 18//18 10//10
f 11//11 1//1 19//19
f 11//11 19//19 12//12
f 12//12 19//19 20//20
f 12//12 20//20 13//13
f 13//13 20//20 21//21
f 13//13 21//21 14//14
f 14//14 21//21 22//22
f 14//14 22//22 15//15
f 15//15 22//22 23//23
f 15//15 23//23 16//16
f 16//16 23//23 24//24
f 16//16 24//24 17//17
f 17//17 24//24 25//25
f 17//17 25//25 18//18
f 18//18 25//25 26//26
f 18//18 26//26 10//10
f 19//19 1//1 27//27
f 19//19 27//27 20//20
f 20//20 27//27 28//28
f 20//20 28//28 21//21
f 21//21 28//28 29//29
f 21//21 29//29 22//22
f 22//22 29//29 30//30
f 22//22 30//30 23//23
f 23//23 30//30 31//31
f 23//23 31//31 24//24
f 24//24 31//31 32//32
f 24//24 32//32 25//25
f 25//25 32//32 33//33
f 25//25 33//33 26//26
f 26//26 33//33 34//34
f 26//26 34//34 10//10
f 27//27 1//1 35//35
f 27//27 35//35 28//28
f 28//28 35//35 36//36
f 28//28 36//36 29//29
f 29//29 36//36 37//37
f 29//29 37//37 30//30
f 30//30 37//37 38//38
f 30//30 38//38 31//31
f 31//31 38//38 39//39
f 31//31 39//39 32//32
f 32//32 39//39 40//40
f 32//32 40//40 33//33
f 33//33 40//40 41//41
f 33//33 41//41 34//34
f 34//34 41//41 42//42
f 34//34 42//42 10//10
f 35//35 1//1 43//43
f 35//35 43//43 36//36
f 36//36 43//43 44//44
f 36//36 44//44 37//37
f 37//37 44//44 45//45
f 37//37 45//45 38//38
f 38//38 45//45 46//46
f 38//38 46//46 39//39
f 39//39 46//46 47//47
f 39//39 47//47 40//40
f 40//40 47//47 48//48
f 40//40 48//48 41//41
f 41//41 48//48 49//49
f 41//41 49//49 42//42
f 42//42 49//49 50//50
f 42//42 50//50 10//10
f 43//43 1//1 51//51
f 43//43 51//51 44//44
f 44//44 51//51 52//52
f 44//44 52//52 45//45
f 45//45 52//52 53//53
f 45//45 53//53 46//46
f 46//46 53//53 54//54
f 46//46 54//54 47//47
f 47//47 54//54 55//55
f 47//47 55//55 48//48
f 48//48 55//55 56//56
f 48//48 56//56 49//49
f 49//49 56//56 57//57
f 49//49 57//57 50//50
f 50//50 57//57 58//58
f 50//50 58//58 10//10
f 51//51 1//1 59//59
f 51//51 59//59 52//52
f 52//52 59//59 60//60
f 52//52 60//60 53//53
f 53//53 60//60 61//61
f 53//53 61//61 54//54
f 54//54 61//61 62//62
f 54//54 62//62 55//55
f 55//55 62//62 63//63
f 55//55 63//63 56//56
f 56//56 63//63 64//64
f 56//56 64//64 57//57
f 57//57 64//64 65//65
f 57//57 65//65 58//58
f 58//58 65//65 66//66
f 58//58 66//66 10//10
f 59//59 1//1 67//67
f 59//59 67//67 60//60
f 60//60 67//67 68//68
f 60//60 68//68 61//61
f 61//61 68//68 69//69
f 61//61 69//69 62//62
f 62//62 69//69 70//70
f 62//62 70//70 63//63
f 63//63 70//70 71//71
f 63//63 71//71 64//64
f 64//64 71//71 72//72
f 64//64 72//72 65//65
f 65//65 72//72 73//73
f 65//65 73//73 66//66
f 66//66 73//73 74//74
f 66//66 74//74 10//10
f 67//67 1//1 75//75
f 67//67 75//75 68//68
f 68//68 75//75 76//76
f 68//68 76//76 69//69
f 69//69 76//76 77//77
f 69//69 77//77 70//70
f 70//70 77//77 78//78
f 70//70 78//78 71//71
f 71//71 78//78 79//79
f 71//71 79//79 72//72
f 72//72 79//79 80//80
f 72//72 80//80 73//73
f 73//73 80//80 81//81
f 73//73 81//81 74//74
f 74//74 81//81 82//82
f 74//74 82//82 10//10
f 75//75 1//1 2//2
f 75//75 2//2 76//76
f 76//76 2//2 3//3
f 76//76 3//3 77//77
f 77//77 3//3 4//4
f 77//77 4//4 78//78
f 78//78 4//4 5//5
f 78//78 5//5 79//79
f 79//79 5//5 6//6
f 79//79 6//6 80//80
f 80//80 6//6 7//7
f 80//80 7//7 81//81
f 81//81 7//7 8//8
f 81//81 8//8 82//82
f 82//82 8//8 9//9
f 82//82 9//9 10//10

