# https://github.com/mikedh/trimesh
v -0.2880397 0.9677560 0.0399574
v -0.2859999 0.9669092 0.0405114
v -0.2842841 0.9655027 0.0410240
v -0.2830314 0.9636504 0.0414536
v -0.2823432 0.9615023 0.0417655
v -0.2822754 0.9592326 0.0419343
v -0.5128334 0.0470250 0.0469464
v -0.5139719 0.0450584 0.0468009
v -0.5155988 0.0434922 0.0465094
v -0.5175823 0.0424532 0.0460957
v -0.5197617 0.0420256 0.0455932
v -0.5219603 0.0422440 0.0450426
v -0.2865501 0.9670539 0.0415300
v -0.2853400 0.9657803 0.0429786
v -0.2845074 0.9640385 0.0441859
v -0.2841197 0.9619694 0.0450541
v -0.2842085 0.9597408 0.0455129
v -0.5147665 0.0475333 0.0505250
v -0.5157484 0.0455255 0.0500895
v -0.5170748 0.0438803 0.0492417
v -0.5186382 0.0427308 0.0480503
v -0.5203119 0.0421702 0.0466117
v -0.2875207 0.9673025 0.0421276
v -0.2872026 0.9662574 0.0441255
v -0.2871111 0.9647054 0.0457891
v -0.2872537 0.9627721 0.0469838
v -0.2876187 0.9606143 0.0476126
v -0.5181767 0.0484067 0.0526248
v -0.5188823 0.0463282 0.0520192
v -0.5196786 0.0445472 0.0508449
v -0.5205008 0.0432079 0.0491972
v -0.5212825 0.0424189 0.0472094
v -0.2886517 0.9675884 0.0421442
v -0.2893729 0.9668061 0.0441574
v -0.2901450 0.9654724 0.0458337
v -0.2909053 0.9636953 0.0470374
v -0.2915922 0.9616189 0.0476710
v -0.5221502 0.0494113 0.0526831
v -0.5225339 0.0472514 0.0520728
v -0.5227124 0.0453142 0.0508895
v -0.5226712 0.0437566 0.0492291
v -0.5224135 0.0427048 0.0472260
v -0.2896400 0.9678351 0.0415753
v -0.2912694 0.9672794 0.0430657
v -0.2927960 0.9661341 0.0443076
v -0.2940961 0.9644917 0.0452006
v -0.2950643 0.9624855 0.0456723
v -0.5256223 0.0502779 0.0506844
v -0.5257248 0.0480478 0.0502360
v -0.5253635 0.0459759 0.0493634
v -0.5245676 0.0442299 0.0481374
v -0.5234018 0.0429515 0.0466571
v -0.2902207 0.9679764 0.0405734
v -0.2923839 0.9675506 0.0411429
v -0.2943539 0.9665130 0.0416199
v -0.2959712 0.9649479 0.0419656
v -0.2971047 0.9629819 0.0421521
v -0.5276627 0.0507743 0.0471642
v -0.5275999 0.0485040 0.0470010
v -0.5269213 0.0463549 0.0466757
v -0.5256821 0.0445010 0.0462146
v -0.5239825 0.0430927 0.0456552
v -0.2902383 0.9679744 0.0394068
v -0.2924177 0.9675468 0.0389043
v -0.2944012 0.9665078 0.0384906
v -0.2960281 0.9649416 0.0381991
v -0.2971666 0.9629750 0.0380536
v -0.5277246 0.0507674 0.0430657
v -0.5276568 0.0484977 0.0432345
v -0.5269686 0.0463496 0.0435464
v -0.5257159 0.0444973 0.0439760
v -0.5240001 0.0430908 0.0444886
v -0.2896881 0.9678298 0.0383883
v -0.2913618 0.9672692 0.0369497
v -0.2929252 0.9661197 0.0357583
v -0.2942516 0.9644745 0.0349105
v -0.2952335 0.9624667 0.0344750
v -0.5257915 0.0502592 0.0394871
v -0.5258803 0.0480306 0.0399459
v -0.5254926 0.0459615 0.0408141
v -0.5246600 0.0442197 0.0420214
v -0.5234499 0.0429461 0.0434700
v -0.2887175 0.9675811 0.0377906
v -0.2894992 0.9667921 0.0358028
v -0.2903214 0.9654528 0.0341551
v -0.2911177 0.9636718 0.0329808
v -0.2918233 0.9615933 0.0323752
v -0.5223813 0.0493857 0.0373874
v -0.5227463 0.0472279 0.0380162
v -0.5228889 0.0452946 0.0392109
v -0.5227974 0.0437426 0.0408745
v -0.5224793 0.0426975 0.0428724
v -0.2875865 0.9672952 0.0377740
v -0.2873288 0.9662434 0.0357709
v -0.2872876 0.9646858 0.0341105
v -0.2874661 0.9627486 0.0329272
v -0.2878498 0.9605887 0.0323169
v -0.5184078 0.0483811 0.0373290
v -0.5190947 0.0463047 0.0379626
v -0.5198550 0.0445276 0.0391663
v -0.5206271 0.0431939 0.0408426
v -0.5213483 0.0424116 0.0428558
v -0.2865982 0.9670485 0.0383429
v -0.2854324 0.9657701 0.0368626
v -0.2846365 0.9640241 0.0356366
v -0.2842752 0.9619522 0.0347640
v -0.2843777 0.9597221 0.0343156
v -0.5149357 0.0475145 0.0393277
v -0.5159039 0.0455083 0.0397994
v -0.5172040 0.0438659 0.0406924
v -0.5187306 0.0427206 0.0419343
v -0.5203600 0.0421649 0.0434247
v -0.2860175 0.9669073 0.0393448
v -0.2843179 0.9654990 0.0387854
v -0.2830787 0.9636451 0.0383243
v -0.2824001 0.9614960 0.0379990
v -0.2823373 0.9592257 0.0378358
v -0.5128953 0.0470181 0.0428479
v -0.5140288 0.0450521 0.0430344
v -0.5156461 0.0434870 0.0433801
v -0.5176161 0.0424494 0.0438571
v -0.5197793 0.0420236 0.0444266
vn 0.2450382 0.9694988 -0.0053269
vn 0.5186403 0.8521849 0.0692325
vn 0.7272017 0.6736026 0.1320499
vn 0.8774518 0.4429070 0.1841513
vn 0.9586403 0.1785116 0.2216808
vn 0.9652204 -0.0991319 0.2419143
vn 0.8970415 -0.3688832 0.2433964
vn 0.7592824 -0.6102520 0.2260147
vn 0.5621240 -0.8046945 0.1910062
vn 0.3201709 -0.9368235 0.1408984
vn 0.0516416 -0.9955055 0.0793846
vn -0.2450382 -0.9694988 0.0053269
vn 0.4446085 0.8716492 0.2062787
vn 0.5912358 0.7093506 0.3837472
vn 0.6905717 0.4920412 0.5301002
vn 0.7356262 0.2371462 0.6345201
vn 0.7234687 -0.0355709 0.6894401
vn 0.6552898 -0.3053222 0.6909223
vn 0.5362683 -0.5516175 0.6388540
vn 0.3752438 -0.7555602 0.5369551
vn 0.1842050 -0.9010755 0.3925957
vn -0.0223902 -0.9760412 0.2164308
vn 0.3140102 0.9050994 0.2866925
vn 0.3513806 0.7707848 0.5314343
vn 0.3608993 0.5764804 0.7330908
vn 0.3422105 0.3379119 0.8767597
vn 0.2969985 0.0736611 0.9520325
vn 0.2288196 -0.1960901 0.9535147
vn 0.1428527 -0.4508518 0.8810935
vn 0.0455714 -0.6711211 0.7399457
vn -0.0556502 -0.8396413 0.5402828
vn -0.1529885 -0.9425910 0.2968447
vn 0.1618390 0.9435726 0.2889272
vn 0.0719050 0.8414441 0.5355386
vn -0.0232298 0.6735989 0.7387319
vn -0.1161913 0.4538087 0.8834915
vn -0.1999181 0.1992955 0.9593300
vn -0.2680970 -0.0704558 0.9608122
vn -0.3155491 -0.3349550 0.8878254
vn -0.3385577 -0.5740025 0.7455869
vn -0.3351258 -0.7689821 0.5443871
vn -0.3051596 -0.9041179 0.2990794
vn 0.0288692 0.9767597 0.2123840
vn -0.1723057 0.9023952 0.3949602
vn -0.3588886 0.7573741 0.5455120
vn -0.5167508 0.5537821 0.6529119
vn -0.6341325 0.3076686 0.7093772
vn -0.7023114 0.0379174 0.7108594
vn -0.7161087 -0.2349816 0.6572458
vn -0.6742165 -0.4902274 0.5523670
vn -0.5793365 -0.7080309 0.4038087
vn -0.4381295 -0.8709307 0.2225361
vn -0.0492701 0.9957685 0.0775725
vn -0.3158155 0.9373065 0.1473671
vn -0.5561376 0.8053584 0.2052043
vn -0.7521385 0.6110443 0.2468045
vn -0.8892973 0.3697420 0.2691488
vn -0.9574762 0.0999907 0.2706309
vn -0.9514964 -0.1777193 0.2511383
vn -0.8714654 -0.4422430 0.2120592
vn -0.7228462 -0.6731196 0.1562156
vn -0.5162688 -0.8519219 0.0877247
vn -0.0516416 0.9955055 -0.0793846
vn -0.3201709 0.9368235 -0.1408984
vn -0.5621240 0.8046945 -0.1910062
vn -0.7592824 0.6102520 -0.2260147
vn -0.8970415 0.3688832 -0.2433964
vn -0.9652204 0.0991319 -0.2419143
vn -0.9586403 -0.1785116 -0.2216808
vn -0.8774518 -0.4429070 -0.1841513
vn -0.7272017 -0.6736026 -0.1320499
vn -0.5186403 -0.8521849 -0.0692325
vn 0.0223902 0.9760412 -0.2164308
vn -0.1842050 0.9010755 -0.3925957
vn -0.3752438 0.7555602 -0.5369551
vn -0.5362683 0.5516175 -0.6388540
vn -0.6552898 0.3053222 -0.6909223
vn -0.7234687 0.0355709 -0.6894401
vn -0.7356262 -0.2371462 -0.6345201
vn -0.6905717 -0.4920412 -0.5301002
vn -0.5912358 -0.7093506 -0.3837472
vn -0.4446085 -0.8716492 -0.2062787
vn 0.1529885 0.9425910 -0.2968447
vn 0.0556502 0.8396413 -0.5402828
vn -0.0455714 0.6711211 -0.7399457
vn -0.1428527 0.4508518 -0.8810935
vn -0.2288196 0.1960901 -0.9535147
vn -0.2969985 -0.0736611 -0.9520325
vn -0.3422105 -0.3379119 -0.8767597
vn -0.3608993 -0.5764804 -0.7330908
vn -0.3513806 -0.7707848 -0.5314343
vn -0.3140102 -0.9050994 -0.2866925
vn 0.3051596 0.9041179 -0.2990794
vn 0.3351258 0.7689821 -0.5443871
vn 0.3385577 0.5740025 -0.7455869
vn 0.3155491 0.3349550 -0.8878254
vn 0.2680970 0.0704558 -0.9608122
vn 0.1999181 -0.1992955 -0.9593300
vn 0.1161913 -0.4538087 -0.8834915
vn 0.0232298 -0.6735989 -0.7387319
vn -0.0719050 -0.8414441 -0.5355386
vn -0.1618390 -0.9435726 -0.2889272
vn 0.4381295 0.8709307 -0.2225361
vn 0.5793365 0.7080309 -0.4038087
vn 0.6742165 0.4902274 -0.5523670
vn 0.7161087 0.2349816 -0.6572458
vn 0.7023114 -0.0379174 -0.7108594
vn 0.6341325 -0.3076686 -0.7093772
vn 0.5167508 -0.5537821 -0.6529119
vn 0.3588886 -0.7573741 -0.5455120
vn 0.1723057 -0.9023952 -0.3949602
vn -0.0288692 -0.9767597 -0.2123840
vn 0.5162688 0.8519219 -0.0877247
vn 0.7228462 0.6731196 -0.1562156
vn 0.8714654 0.4422430 -0.2120592
vn 0.9514964 0.1777193 -0.2511383
vn 0.9574762 -0.0999907 -0.2706309
vn 0.8892973 -0.3697420 -0.2691488
vn 0.7521385 -0.6110443 -0.2468045
vn 0.5561376 -0.8053584 -0.2052043
vn 0.3158155 -0.9373065 -0.1473671
vn 0.0492701 -0.9957685 -0.0775725
f 2//2 1//1 13//13
f 2//2 13//13 3//3
f 3//3 13//13 14//14
f 3//3 14//14 4//4
f 4//4 14//14 15//15
f 4//4 15//15 5//5
f 5//5 15//15 16//16
f 5//5 16//16 6//6
f 6//6 16//16 17//17
f 6//6 17//17 7//7
f 7//7 17//17 18//18
f 7//7 18//18 8//8
f 8//8 18//18 19//19
f 8//8 19//19 9//9
f 9//9 19//19 20//20
f 9//9 20//20 10//10
f 10//10 20//20 21//21
f 10//10 21//21 11//11
f 11//11 21//21 22//22
f 11//11 22//22 12//12
f 13//13 1//1 23//23
f 13//13 23//23 14//14
f 14//14 23//23 24//24
f 14//14 24//24 15//15
f 15//15 24//24 25//25
f 15//15 25//25 16//16
f 16//16 25//25 26//26
f 16//16 26//26 17//17
f 17//17 26//26 27//27
f 17//17 27//27 18//18
f 18//18 27//27 28//28
f 18//18 28//28 19//19
f 19//19 28//28 29//29
f 19//19 29//29 20//20
f 20//20 29//29 30//30
f 20//20 30//30 21//21
f 21//21 30//30 31//31
f 21//21 31//31 22//22
f 22//22 31//31 32//32
f 22//22 32//32 12//12
f 23//23 1//1 33//33
f 23//23 33//33 24//24
f 24//24 33//33 34//34
f 24//24 34//34 25//25
f 25//25 34//34 35//35
f 25//25 35//35 26//26
f 26//26 35//35 36//36
f 26//26 36//36 27//27
f 27//27 36//36 37//37
f 27//27 37//37 28//28
f 28//28 37//37 38//38
f 28//28 38//38 29//29
f 29//29 38//38 39//39
f 29//29 39//39 30//30
f 30//30 39//39 40//40
f 30//30 40//40 31//31
f 31//31 40//40 41//41
f 31//31 41//41 32//32
f 32//32 41//41 42//42
f 32//32 42//42 12//12
f 33//33 1//1 43//43
f 33//33 43//43 34//34
f 34//34 43//43 44//44
f 34//34 44//44 35//35
f 35//35 44//44 45//45
f 35//35 45//45 36//36
f 36//36 45//45 46//46
f 36//36 46//46 37//37
f 37//37 46//46 47//47
f 37//37 47//47 38//38
f 38//38 47//47 48//48
f 38//38 48//48 39//39
f 39//39 48//48 49//49
f 39//39 49//49 40//40
f 40//40 49//49 50//50
f 40//40 50//50 41//41
f 41//41 50//50 51//51
f 41//41 51//51 42//42
f 42//42 51//51 52//52
f 42//42 52//52 12//12
f 43//43 1//1 53//53
f 43//43 53//53 44//44
f 44//44 53//53 54//54
f 44//44 54//54 45//45
f 45//45 54//54 55//55
f 45//45 55//55 46//46
f 46//46 55//55 56//56
f 46//46 56//56 47//47
f 47//47 56//56 57//57
f 47//47 57//57 48//48
f 48//48 57//57 58//58
f 48//48 58//58 49//49
f 49//49 58//58 59//59
f 49//49 59//59 50//50
f 50//50 59//59 60//60
f 50//50 60//60 51//51
f 51//51 60//60 61//61
f 51//51 61//61 52//52
f 52//52 61//61 62//62
f 52//52 62//62 12//12
f 53//53 1//1 63//63
f 53//53 63//63 54//54
f 54//54 63//63 64//64
f 54//54 64//64 55//55
f 55//55 64//64 65//65
f 55//55 65//65 56//56
f 56//56 65//65 66//66
f 56//56 66//66 57//57
f 57//57 66//66 67//67
f 57//57 67//67 58//58
f 58//58 67//67 68//68
f 58//58 68//68 59//59
f 59//59 68//68 69//69
f 59//59 69//69 60//60
f 60//60 69//69 70//70
f 60//60 70//70 61//61
f 61//61 70//70 71//71
f 61//61 71//71 62//62
f 62//62 71//71 72//72
f 62//62 72//72 12//12
f 63//63 1//1 73//73
f 63//63 73//73 64//64
f 64//64 73//73 74//74
f 64//64 74//74 65//65
f 65//65 74//74 75//75
f 65//65 75//75 66//66
f 66//66 75//75 76//76
f 66//66 76//76 67//67
f 67//67 76//76 77//77
f 67//67 77//77 68//68
f 68//68 77//77 78//78
f 68//68 78//78 69//69
f 69//69 78//78 79//79
f 69//69 79//79 70//70
f 70//70 79//79 80//80
f 70//70 80//80 71//71
f 71//71 80//80 81//81
f 71//71 81//81 72//72
f 72//72 81//81 82//82
f 72//72 82//82 12//12
f 73//73 1//1 83//83
f 73//73 83//83 74//74
f 74//74 83//83 84//84
f 74//74 84//84 75//75
f 75//75 84//84 85//85
f 75//75 85//85 76//76
f 76//76 85//85 86//86
f 76//76 86//86 77//77
f 77//77 86//86 87//87
f 77//77 87//87 78//78
f 78//78 87//87 88//88
f 78//78 88//88 79//79
f 79//79 88//88 89//89
f 79//79 89//89 80//80
f 80//80 89//89 90//90
f 80//80 90//90 81//81
f 81//81 90//90 91//91
f 81//81 91//91 82//82
f 82//82 91//91 92//92
f 82//82 92//92 12//12
f 83//83 1//1 93//93
f 83//83 93//93 84//84
f 84//84 93//93 94//94
f 84//84 94//94 85//85
f 85//85 94//94 95//95
f 85//85 95//95 86//86
f 86//86 95//95 96//96
f 86//86 96//96 87//87
f 87//87 96//96 97//97
f 87//87 97//97 88//88
f 88//88 97//97 98//98
f 88//88 98//98 89//89
f 89//89 98//98 99//99
f 89//89 99//99 90//90
f 90//90 99//99 100//100
f 90//90 100//100 91//91
f 91//91 100//100 101//101
f 91//91 101//101 92//92
f 92//92 101//101 102//102
f 92//92 102//102 12//12
f 93//93 1//1 103//103
f 93//93 103//103 94//94
f 94//94 103//103 104//104
f 94//94 104//104 95//95
f 95//95 104//104 105//105
f 95//95 105//105 96//96
f 96//96 105//105 106//106
f 96//96 106//106 97//97
f 97//97 106//106 107//107
f 97//97 107//107 98//98
f 98//98 107//107 108//108
f 98//98 108//108 99//99
f 99//99 108//108 109//109
f 99//99 109//109 100//100
f 100//100 109//109 110//110
f 100//100 110//110 101//101
f 101//101 110//110 111//111
f 101//101 111//111 102//102
f 102//102 111//111 112//112
f 102//102 112//112 12//12
f 103//103 1//1 113//113
f 103//103 113//113 104//104
f 104//104 113//113 114//114
f 104//104 114//114 105//105
f 105//105 114//114 115//115
f 105//105 115//115 106//106
f 106//106 115//115 116//116
f 106//106 116//116 107//107
f 107//107 116//116 117//117
f 107//107 117//117 108//108
f 108//108 117//117 118//118
f 108//108 118//118 109//109
f 109//109 118//118 119//119
f 109//109 119//119 110//110
f 110//110 119//119 120//120
f 110//110 120//120 111//111
f 111//111 120//120 121//121
f 111//111 121//121 112//112
f 112//112 121//121 122//122
f 112//112 122//122 12//12
f 113//113 1//1 2//2
f 113//113 2//2 114//114
f 114//114 2//2 3//3
f 114//114 3//3 115//115
f 115//115 3//3 4//4
f 115//115 4//4 116//116
f 116//116 4//4 5//5
f 116//116 5//5 117//117
f 117//117 5//5 6//6
f 117//117 6//6 118//118
f 118//118 6//6 7//7
f 118//118 7//7 119//119
f 119//119 7//7 8//8
f 119//119 8//8 120//120
f 120//120 8//8 9//9
f 120//120 9//9 121//121
f 121//121 9//9 10//10
f 121//121 10//10 122//122
f 122//122 10//10 11//11
f 122//122 11//11 12//12

