# https://github.com/mikedh/trimesh
v -0.0236318 0.6747762 0.0407960
v -0.0232219 0.6733932 0.0425579
v -0.0233611 0.6717353 0.0441126
v -0.0240382 0.6699369 0.0453341
v -0.0251982 0.6681435 0.0461234
v -0.0267473 0.6665006 0.0464167
v -0.1085599 0.6051412 0.0361901
v -0.1104891 0.6041754 0.0354621
v -0.1123788 0.6036814 0.0342915
v -0.1140757 0.6036994 0.0327733
v -0.1154424 0.6042278 0.0310304
v -0.1163682 0.6052238 0.0292040
v -0.0239061 0.6742334 0.0429904
v -0.0246741 0.6733477 0.0449424
v -0.0258736 0.6721908 0.0464941
v -0.0274074 0.6708564 0.0475196
v -0.0291512 0.6694526 0.0479360
v -0.1109638 0.6080932 0.0377094
v -0.1126983 0.6068882 0.0368583
v -0.1142142 0.6059353 0.0354515
v -0.1153887 0.6053118 0.0336031
v -0.1161266 0.6050680 0.0314628
v -0.0245859 0.6751673 0.0428262
v -0.0259787 0.6751397 0.0446274
v -0.0276973 0.6746958 0.0460537
v -0.0296024 0.6738714 0.0469896
v -0.0315397 0.6727334 0.0473592
v -0.1133523 0.6113740 0.0371326
v -0.1148933 0.6099032 0.0363282
v -0.1160379 0.6084403 0.0350111
v -0.1166933 0.6071038 0.0332881
v -0.1168065 0.6060018 0.0312986
v -0.0250792 0.6759444 0.0421094
v -0.0269253 0.6766311 0.0432519
v -0.0290205 0.6767806 0.0441309
v -0.0311951 0.6763807 0.0446752
v -0.0332728 0.6754640 0.0448409
v -0.1150854 0.6141045 0.0346143
v -0.1164860 0.6124125 0.0340139
v -0.1173612 0.6105251 0.0330883
v -0.1176399 0.6085952 0.0319125
v -0.1172998 0.6067790 0.0305818
v -0.0252538 0.6763568 0.0410320
v -0.0272603 0.6774223 0.0411844
v -0.0294888 0.6778866 0.0412409
v -0.0317587 0.6777120 0.0411968
v -0.0338861 0.6769125 0.0410558
v -0.1156987 0.6155531 0.0308292
v -0.1170496 0.6137438 0.0305354
v -0.1178294 0.6116312 0.0301983
v -0.1179749 0.6093864 0.0298451
v -0.1174743 0.6071913 0.0295045
v -0.0250629 0.6762937 0.0398828
v -0.0268939 0.6773014 0.0389791
v -0.0289766 0.6777175 0.0381581
v -0.0311422 0.6775084 0.0374863
v -0.0332153 0.6766911 0.0370181
v -0.1150279 0.6153316 0.0267916
v -0.1164332 0.6135402 0.0268249
v -0.1173172 0.6114621 0.0271155
v -0.1176085 0.6092654 0.0276398
v -0.1172834 0.6071283 0.0283552
v -0.0245576 0.6757722 0.0389696
v -0.0259243 0.6763006 0.0372267
v -0.0276212 0.6763186 0.0357085
v -0.0295109 0.6758246 0.0345379
v -0.0314401 0.6748588 0.0338099
v -0.1132527 0.6134994 0.0235833
v -0.1148018 0.6118565 0.0238766
v -0.1159618 0.6100631 0.0246659
v -0.1166389 0.6082647 0.0258874
v -0.1167781 0.6066068 0.0274421
v -0.0238734 0.6749320 0.0385372
v -0.0246113 0.6746882 0.0363969
v -0.0257858 0.6740647 0.0345485
v -0.0273017 0.6731118 0.0331417
v -0.0290362 0.6719068 0.0322906
v -0.1108488 0.6105474 0.0220640
v -0.1125926 0.6091436 0.0224804
v -0.1141264 0.6078092 0.0235059
v -0.1153259 0.6066523 0.0250576
v -0.1160939 0.6057666 0.0270096
v -0.0231935 0.6739982 0.0387014
v -0.0233067 0.6728962 0.0367119
v -0.0239621 0.6715597 0.0349889
v -0.0251067 0.6700968 0.0336718
v -0.0266477 0.6686260 0.0328674
v -0.1084603 0.6072666 0.0226408
v -0.1103976 0.6061286 0.0230104
v -0.1123027 0.6053042 0.0239463
v -0.1140213 0.6048603 0.0253726
v -0.1154141 0.6048327 0.0271738
v -0.0227002 0.6732210 0.0394182
v -0.0223601 0.6714048 0.0380875
v -0.0226388 0.6694749 0.0369117
v -0.0235140 0.6675875 0.0359861
v -0.0249146 0.6658955 0.0353857
v -0.1067272 0.6045360 0.0251591
v -0.1088049 0.6036193 0.0253248
v -0.1109795 0.6032194 0.0258691
v -0.1130747 0.6033689 0.0267481
v -0.1149208 0.6040556 0.0278906
v -0.0225257 0.6728087 0.0404955
v -0.0220251 0.6706136 0.0401549
v -0.0221706 0.6683688 0.0398017
v -0.0229504 0.6662562 0.0394646
v -0.0243013 0.6644469 0.0391708
v -0.1061139 0.6030875 0.0289442
v -0.1082413 0.6022880 0.0288032
v -0.1105112 0.6021134 0.0287591
v -0.1127397 0.6025777 0.0288156
v -0.1147462 0.6036432 0.0289680
v -0.0227166 0.6728717 0.0416448
v -0.0223915 0.6707346 0.0423602
v -0.0226828 0.6685379 0.0428845
v -0.0235668 0.6664598 0.0431751
v -0.0249721 0.6646684 0.0432084
v -0.1067847 0.6033089 0.0329819
v -0.1088578 0.6024916 0.0325137
v -0.1110234 0.6022825 0.0318419
v -0.1131061 0.6026986 0.0310209
v -0.1149371 0.6037063 0.0301172
vn 0.7960298 0.5970223 0.0995037
vn 0.8484040 0.4088633 0.3362164
vn 0.8261733 0.2019171 0.5259915
vn 0.7390198 -0.0198663 0.6733907
vn 0.5945091 -0.2392596 0.7676677
vn 0.4041789 -0.4395726 0.8021318
vn 0.1826933 -0.6056868 0.7744461
vn -0.0531238 -0.7249843 0.6867136
vn -0.2853526 -0.7881457 0.5453441
vn -0.4961049 -0.7897915 0.3607068
vn -0.6686856 -0.7289539 0.1465802
vn -0.7960298 -0.5970223 -0.0995037
vn 0.7563425 0.5219148 0.3943995
vn 0.6570943 0.4095461 0.6328499
vn 0.5066269 0.2655121 0.8202637
vn 0.3171822 0.1012977 0.9429391
vn 0.1035511 -0.0704017 0.9921294
vn -0.1179345 -0.2365160 0.9644437
vn -0.3304507 -0.3844270 0.8619850
vn -0.5177456 -0.5027673 0.6922171
vn -0.6651838 -0.5821626 0.4675652
vn -0.7607471 -0.6159024 0.2047633
vn 0.6648711 0.6475582 0.3723101
vn 0.4890991 0.6403012 0.5922807
vn 0.2757236 0.5826767 0.7645027
vn 0.0416329 0.4797872 0.8763966
vn -0.1951497 0.3398883 0.9199960
vn -0.4166353 0.1737740 0.8923103
vn -0.6060000 -0.0059375 0.7954425
vn -0.7486489 -0.1856027 0.6364561
vn -0.8331790 -0.3514074 0.4269959
vn -0.8522185 -0.4902590 0.1826739
vn 0.5984995 0.7521275 0.2758668
vn 0.3672019 0.8323519 0.4151542
vn 0.1081802 0.8466435 0.5210488
vn -0.1583055 0.7947928 0.5858701
vn -0.4118869 0.6813605 0.6050595
vn -0.6333725 0.5152463 0.5773738
vn -0.8059384 0.3090681 0.5049159
vn -0.9161923 0.0783641 0.3930023
vn -0.9550763 -0.1593567 0.2498695
vn -0.9185901 -0.3856897 0.0862306
vn 0.5750119 0.8076035 0.1309117
vn 0.3240649 0.9342384 0.1489315
vn 0.0488900 0.9866827 0.1551353
vn -0.2290597 0.9619092 0.1492059
vn -0.4885858 0.8625179 0.1317071
vn -0.7100714 0.6964037 0.1040214
vn -0.8766927 0.4761845 0.0682518
vn -0.9754825 0.2184034 0.0270888
vn -0.9982133 -0.0574703 -0.0163532
vn -0.9420777 -0.3302137 -0.0587245
vn 0.6007018 0.7991213 -0.0237146
vn 0.3712467 0.9186602 -0.1350533
vn 0.1137396 0.9652711 -0.2351916
vn -0.1516712 0.9363575 -0.3165920
vn -0.4046952 0.8348194 -0.3732270
vn -0.6261808 0.6687052 -0.4009127
vn -0.7993042 0.4506328 -0.3975461
vn -0.9106329 0.1969917 -0.3632381
vn -0.9510315 -0.0730485 -0.3003381
vn -0.9163878 -0.3386959 -0.2133508
vn 0.6686856 0.7289539 -0.1465802
vn 0.4961049 0.7897915 -0.3607068
vn 0.2853526 0.7881457 -0.5453441
vn 0.0531238 0.7249843 -0.6867136
vn -0.1826933 0.6056868 -0.7744461
vn -0.4041789 0.4395726 -0.8021318
vn -0.5945091 0.2392596 -0.7676677
vn -0.7390198 0.0198663 -0.6733907
vn -0.8261733 -0.2019171 -0.5259915
vn -0.8484040 -0.4088633 -0.3362164
vn 0.7607471 0.6159024 -0.2047633
vn 0.6651838 0.5821626 -0.4675652
vn 0.5177456 0.5027673 -0.6922171
vn 0.3304507 0.3844270 -0.8619850
vn 0.1179345 0.2365160 -0.9644437
vn -0.1035511 0.0704017 -0.9921294
vn -0.3171822 -0.1012977 -0.9429391
vn -0.5066269 -0.2655121 -0.8202637
vn -0.6570943 -0.4095461 -0.6328499
vn -0.7563425 -0.5219148 -0.3943995
vn 0.8522185 0.4902590 -0.1826739
vn 0.8331790 0.3514074 -0.4269959
vn 0.7486489 0.1856027 -0.6364561
vn 0.6060000 0.0059375 -0.7954425
vn 0.4166353 -0.1737740 -0.8923103
vn 0.1951497 -0.3398883 -0.9199960
vn -0.0416329 -0.4797872 -0.8763966
vn -0.2757236 -0.5826767 -0.7645027
vn -0.4890991 -0.6403012 -0.5922807
vn -0.6648711 -0.6475582 -0.3723101
vn 0.9185901 0.3856897 -0.0862306
vn 0.9550763 0.1593567 -0.2498695
vn 0.9161923 -0.0783641 -0.3930023
vn 0.8059384 -0.3090681 -0.5049159
vn 0.6333725 -0.5152463 -0.5773738
vn 0.4118869 -0.6813605 -0.6050595
vn 0.1583055 -0.7947928 -0.5858701
vn -0.1081802 -0.8466435 -0.5210488
vn -0.3672019 -0.8323519 -0.4151542
vn -0.5984995 -0.7521275 -0.2758668
vn 0.9420777 0.3302137 0.0587245
vn 0.9982133 0.0574703 0.0163532
vn 0.9754825 -0.2184034 -0.0270888
vn 0.8766927 -0.4761845 -0.0682518
vn 0.7100714 -0.6964037 -0.1040214
vn 0.4885858 -0.8625179 -0.1317071
vn 0.2290597 -0.9619092 -0.1492059
vn -0.0488900 -0.9866827 -0.1551353
vn -0.3240649 -0.9342384 -0.1489315
vn -0.5750119 -0.8076035 -0.1309117
vn 0.9163878 0.3386959 0.2133508
vn 0.9510315 0.0730485 0.3003381
vn 0.9106329 -0.1969917 0.3632381
vn 0.7993042 -0.4506328 0.3975461
vn 0.6261808 -0.6687052 0.4009127
vn 0.4046952 -0.8348194 0.3732270
vn 0.1516712 -0.9363575 0.3165920
vn -0.1137396 -0.9652711 0.2351916
vn -0.3712467 -0.9186602 0.1350533
vn -0.6007018 -0.7991213 0.0237146
f 2//2 1//1 13//13
f 2//2 13//13 3//3
f 3//3 13//13 14//14
f 3//3 14//14 4//4
f 4//4 14//14 15//15
f 4//4 15//15 5//5
f 5//5 15//15 16//16
f 5//5 16//16 6//6
f 6//6 16//16 17//17
f 6//6 17//17 7//7
f 7//7 17//17 18//18
f 7//7 18//18 8//8
f 8//8 18//18 19//19
f 8//8 19//19 9//9
f 9//9 19//19 20//20
f 9//9 20//20 10//10
f 10//10 20//20 21//21
f 10//10 21//21 11//11
f 11//11 21//21 22//22
f 11//11 22//22 12//12
f 13//13 1//1 23//23
f 13//13 23//23 14//14
f 14//14 23//23 24//24
f 14//14 24//24 15//15
f 15//15 24//24 25//25
f 15//15 25//25 16//16
f 16//16 25//25 26//26
f 16//16 26//26 17//17
f 17//17 26//26 27//27
f 17//17 27//27 18//18
f 18//18 27//27 28//28
f 18//18 28//28 19//19
f 19//19 28//28 29//29
f 19//19 29//29 20//20
f 20//20 29//29 30//30
f 20//20 30//30 21//21
f 21//21 30//30 31//31
f 21//21 31//31 22//22
f 22//22 31//31 32//32
f 22//22 32//32 12//12
f 23//23 1//1 33//33
f 23//23 33//33 24//24
f 24//24 33//33 34//34
f 24//24 34//34 25//25
f 25//25 34//34 35//35
f 25//25 35//35 26//26
f 26//26 35//35 36//36
f 26//26 36//36 27//27
f 27//27 36//36 37//37
f 27//27 37//37 28//28
f 28//28 37//37 38//38
f 28//28 38//38 29//29
f 29//29 38//38 39//39
f 29//29 39//39 30//30
f 30//30 39//39 40//40
f 30//30 40//40 31//31
f 31//31 40//40 41//41
f 31//31 41//41 32//32
f 32//32 41//41 42//42
f 32//32 42//42 12//12
f 33//33 1//1 43//43
f 33//33 43//43 34//34
f 34//34 43//43 44//44
f 34//34 44//44 35//35
f 35//35 44//44 45//45
f 35//35 45//45 36//36
f 36//36 45//45 46//46
f 36//36 46//46 37//37
f 37//37 46//46 47//47
f 37//37 47//47 38//38
f 38//38 47//47 48//48
f 38//38 48//48 39//39
f 39//39 48//48 49//49
f 39//39 49//49 40//40
f 40//40 49//49 50//50
f 40//40 50//50 41//41
f 41//41 50//50 51//51
f 41//41 51//51 42//42
f 42//42 51//51 52//52
f 42//42 52//52 12//12
f 43//43 1//1 53//53
f 43//43 53//53 44//44
f 44//44 53//53 54//54
f 44//44 54//54 45//45
f 45//45 54//54 55//55
f 45//45 55//55 46//46
f 46//46 55//55 56//56
f 46//46 56//56 47//47
f 47//47 56//56 57//57
f 47//47 57//57 48//48
f 48//48 57//57 58//58
f 48//48 58//58 49//49
f 49//49 58//58 59//59
f 49//49 59//59 50//50
f 50//50 59//59 60//60
f 50//50 60//60 51//51
f 51//51 60//60 61//61
f 51//51 61//61 52//52
f 52//52 61//61 62//62
f 52//52 62//62 12//12
f 53//53 1//1 63//63
f 53//53 63//63 54//54
f 54//54 63//63 64//64
f 54//54 64//64 55//55
f 55//55 64//64 65//65
f 55//55 65//65 56//56
f 56//56 65//65 66//66
f 56//56 66//66 57//57
f 57//57 66//66 67//67
f 57//57 67//67 58//58
f 58//58 67//67 68//68
f 58//58 68//68 59//59
f 59//59 68//68 69//69
f 59//59 69//69 60//60
f 60//60 69//69 70//70
f 60//60 70//70 61//61
f 61//61 70//70 71//71
f 61//61 71//71 62//62
f 62//62 71//71 72//72
f 62//62 72//72 12//12
f 63//63 1//1 73//73
f 63//63 73//73 64//64
f 64//64 73//73 74//74
f 64//64 74//74 65//65
f 65//65 74//74 75//75
f 65//65 75//75 66//66
f 66//66 75//75 76//76
f 66//66 76//76 67//67
f 67//67 76//76 77//77
f 67//67 77//77 68//68
f 68//68 77//77 78//78
f 68//68 78//78 69//69
f 69//69 78//78 79//79
f 69//69 79//79 70//70
f 70//70 79//79 80//80
f 70//70 80//80 71//71
f 71//71 80//80 81//81
f 71//71 81//81 72//72
f 72//72 81//81 82//82
f 72//72 82//82 12//12
f 73//73 1//1 83//83
f 73//73 83//83 74//74
f 74//74 83//83 84//84
f 74//74 84//84 75//75
f 75//75 84//84 85//85
f 75//75 85//85 76//76
f 76//76 85//85 86//86
f 76//76 86//86 77//77
f 77//77 86//86 87//87
f 77//77 87//87 78//78
f 78//78 87//87 88//88
f 78//78 88//88 79//79
f 79//79 88//88 89//89
f 79//79 89//89 80//80
f 80//80 89//89 90//90
f 80//80 90//90 81//81
f 81//81 90//90 91//91
f 81//81 91//91 82//82
f 82//82 91//91 92//92
f 82//82 92//92 12//12
f 83//83 1//1 93//93
f 83//83 93//93 84//84
f 84//84 93//93 94//94
f 84//84 94//94 85//85
f 85//85 94//94 95//95
f 85//85 95//95 86//86
f 86//86 95//95 96//96
f 86//86 96//96 87//87
f 87//87 96//96 97//97
f 87//87 97//97 88//88
f 88//88 97//97 98//98
f 88//88 98//98 89//89
f 89//89 98//98 99//99
f 89//89 99//99 90//90
f 90//90 99//99 100//100
f 90//90 100//100 91//91
f 91//91 100//100 101//101
f 91//91 101//101 92//92
f 92//92 101//101 102//102
f 92//92 102//102 12//12
f 93//93 1//1 103//103
f 93//93 103//103 94//94
f 94//94 103//103 104//104
f 94//94 104//104 95//95
f 95//95 104//104 105//105
f 95//95 105//105 96//96
f 96//96 105//105 106//106
f 96//96 106//106 97//97
f 97//97 106//106 107//107
f 97//97 107//107 98//98
f 98//98 107//107 108//108
f 98//98 108//108 99//99
f 99//99 108//108 109//109
f 99//99 109//109 100//100
f 100//100 109//109 110//110
f 100//100 110//110 101//101
f 101//101 110//110 111//111
f 101//101 111//111 102//102
f 102//102 111//111 112//112
f 102//102 112//112 12//12
f 103//103 1//1 113//113
f 103//103 113//113 104//104
f 104//104 113//113 114//114
f 104//104 114//114 105//105
f 105//105 114//114 115//115
f 105//105 115//115 106//106
f 106//106 115//115 116//116
f 106//106 116//116 107//107
f 107//107 116//116 117//117
f 107//107 117//117 108//108
f 108//108 117//117 118//118
f 108//108 118//118 109//109
f 109//109 118//118 119//119
f 109//109 119//119 110//110
f 110//110 119//119 120//120
f 110//110 120//120 111//111
f 111//111 120//120 121//121
f 111//111 121//121 112//112
f 112//112 121//121 122//122
f 112//112 122//122 12//12
f 113//113 1//1 2//2
f 113//113 2//2 114//114
f 114//114 2//2 3//3
f 114//114 3//3 115//115
f 115//115 3//3 4//4
f 115//115 4//4 116//116
f 116//116 4//4 5//5
f 116//116 5//5 117//117
f 117//117 5//5 6//6
f 117//117 6//6 118//118
f 118//118 6//6 7//7
f 118//118 7//7 119//119
f 119//119 7//7 8//8
f 119//119 8//8 120//120
f 120//120 8//8 9//9
f 120//120 9//9 121//121
f 121//121 9//9 10//10
f 121//121 10//10 122//122
f 122//122 10//10 11//11
f 122//122 11//11 12//12

