# https://github.com/mikedh/trimesh
v 0.1915383 0.7732967 -0.0200000
v 0.1913261 0.7722701 -0.0167493
v 0.1901963 0.7710596 -0.0137619
v 0.1882404 0.7697633 -0.0112799
v 0.1856170 0.7684861 -0.0095044
v 0.1825385 0.7673316 -0.0085792
v 0.0392544 0.7263933 -0.0085792
v 0.0360306 0.7257472 -0.0095044
v 0.0331285 0.7254456 -0.0112799
v 0.0307830 0.7255129 -0.0137619
v 0.0291842 0.7259438 -0.0167493
v 0.0284617 0.7267033 -0.0200000
v 0.1908454 0.7739525 -0.0167204
v 0.1892738 0.7742882 -0.0137065
v 0.1869509 0.7742765 -0.0112025
v 0.1840649 0.7739183 -0.0094112
v 0.1808496 0.7732427 -0.0084777
v 0.0375655 0.7323043 -0.0084777
v 0.0344786 0.7311793 -0.0094112
v 0.0318390 0.7299588 -0.0112025
v 0.0298605 0.7287416 -0.0137065
v 0.0287035 0.7276263 -0.0167204
v 0.1904251 0.7754235 -0.0175703
v 0.1884673 0.7771109 -0.0153374
v 0.1858236 0.7782223 -0.0134823
v 0.1827080 0.7786675 -0.0121552
v 0.1793731 0.7784106 -0.0114637
v 0.0360890 0.7374722 -0.0114637
v 0.0331217 0.7359286 -0.0121552
v 0.0307116 0.7339046 -0.0134823
v 0.0290541 0.7315643 -0.0153374
v 0.0282833 0.7290972 -0.0175703
v 0.1901779 0.7762888 -0.0190712
v 0.1879929 0.7787714 -0.0182177
v 0.1851604 0.7805434 -0.0175086
v 0.1819098 0.7814612 -0.0170013
v 0.1785045 0.7814506 -0.0167369
v 0.0352204 0.7405123 -0.0167369
v 0.0323235 0.7387223 -0.0170013
v 0.0300484 0.7362257 -0.0175086
v 0.0285796 0.7332247 -0.0182177
v 0.0280361 0.7299625 -0.0190712
v 0.1901699 0.7763165 -0.0208210
v 0.1879777 0.7788247 -0.0215755
v 0.1851391 0.7806179 -0.0222024
v 0.1818842 0.7815509 -0.0226508
v 0.1784767 0.7815481 -0.0228845
v 0.0351925 0.7406098 -0.0228845
v 0.0322978 0.7388119 -0.0226508
v 0.0300272 0.7363002 -0.0222024
v 0.0285644 0.7332780 -0.0215755
v 0.0280281 0.7299903 -0.0208210
v 0.1904034 0.7754993 -0.0223508
v 0.1884257 0.7772565 -0.0245112
v 0.1857654 0.7784258 -0.0263061
v 0.1826380 0.7789124 -0.0275901
v 0.1792970 0.7786771 -0.0282592
v 0.0360128 0.7377387 -0.0282592
v 0.0330517 0.7361735 -0.0275901
v 0.0306535 0.7341081 -0.0263061
v 0.0290125 0.7317098 -0.0245112
v 0.0282616 0.7291731 -0.0223508
v 0.1908158 0.7740562 -0.0232507
v 0.1892170 0.7744871 -0.0262381
v 0.1868715 0.7745544 -0.0287201
v 0.1839694 0.7742528 -0.0304956
v 0.1807456 0.7736067 -0.0314208
v 0.0374615 0.7326684 -0.0314208
v 0.0343830 0.7315139 -0.0304956
v 0.0317596 0.7302367 -0.0287201
v 0.0298037 0.7289404 -0.0262381
v 0.0286739 0.7277299 -0.0232507
v 0.1912965 0.7723737 -0.0232796
v 0.1901395 0.7712584 -0.0262935
v 0.1881610 0.7700412 -0.0287975
v 0.1855214 0.7688207 -0.0305888
v 0.1824345 0.7676957 -0.0315223
v 0.0391504 0.7267573 -0.0315223
v 0.0359351 0.7260817 -0.0305888
v 0.0330491 0.7257235 -0.0287975
v 0.0307262 0.7257118 -0.0262935
v 0.0291546 0.7260475 -0.0232796
v 0.1917167 0.7709028 -0.0224297
v 0.1909459 0.7684357 -0.0246626
v 0.1892884 0.7660954 -0.0265177
v 0.1868783 0.7640714 -0.0278448
v 0.1839110 0.7625278 -0.0285363
v 0.0406269 0.7215894 -0.0285363
v 0.0372920 0.7213325 -0.0278448
v 0.0341764 0.7217777 -0.0265177
v 0.0315327 0.7228891 -0.0246626
v 0.0295749 0.7245765 -0.0224297
v 0.1919639 0.7700375 -0.0209288
v 0.1914204 0.7667753 -0.0217823
v 0.1899516 0.7637743 -0.0224914
v 0.1876765 0.7612777 -0.0229987
v 0.1847796 0.7594877 -0.0232631
v 0.0414955 0.7185494 -0.0232631
v 0.0380902 0.7185388 -0.0229987
v 0.0348396 0.7194566 -0.0224914
v 0.0320071 0.7212286 -0.0217823
v 0.0298221 0.7237112 -0.0209288
v 0.1919719 0.7700097 -0.0191790
v 0.1914356 0.7667220 -0.0184245
v 0.1899728 0.7636998 -0.0177976
v 0.1877022 0.7611881 -0.0173492
v 0.1848075 0.7593902 -0.0171155
v 0.0415233 0.7184519 -0.0171155
v 0.0381158 0.7184491 -0.0173492
v 0.0348609 0.7193821 -0.0177976
v 0.0320223 0.7211753 -0.0184245
v 0.0298301 0.7236835 -0.0191790
v 0.1917384 0.7708269 -0.0176492
v 0.1909875 0.7682902 -0.0154888
v 0.1893465 0.7658919 -0.0136939
v 0.1869483 0.7638265 -0.0124099
v 0.1839872 0.7622613 -0.0117408
v 0.0407030 0.7213229 -0.0117408
v 0.0373620 0.7210876 -0.0124099
v 0.0342346 0.7215742 -0.0136939
v 0.0315743 0.7227435 -0.0154888
v 0.0295966 0.7245007 -0.0176492
vn 0.9615239 0.2747211 -0.0000000
vn 0.9391329 0.1816800 0.2915849
vn 0.8406236 0.0810495 0.5355212
vn 0.6764437 -0.0254470 0.7360546
vn 0.4600828 -0.1295540 0.8783732
vn 0.2085040 -0.2233633 0.9521738
vn -0.0590284 -0.2998012 0.9521738
vn -0.3221927 -0.3530613 0.8783732
vn -0.5608953 -0.3789725 0.7360546
vn -0.7565556 -0.3752874 0.5355212
vn -0.8933589 -0.3418891 0.2915849
vn -0.9615239 -0.2747211 0.0000000
vn 0.8960144 0.3325949 0.2941749
vn 0.7614326 0.3582179 0.5402780
vn 0.5675986 0.3555110 0.7425926
vn 0.3301921 0.3250635 0.8861754
vn 0.0676999 0.2694510 0.9606315
vn -0.1998325 0.1930132 0.9606315
vn -0.4520834 0.1015562 0.8861754
vn -0.6697404 0.0019856 0.7425926
vn -0.8357466 -0.0981190 0.5402780
vn -0.9364774 -0.1909742 0.2941749
vn 0.8583168 0.4645362 0.2179410
vn 0.6921978 0.6005397 0.4002677
vn 0.4724378 0.6885736 0.5501536
vn 0.2166317 0.7225249 0.6565276
vn -0.0554018 0.7003069 0.7116888
vn -0.3229342 0.6238690 0.7116888
vn -0.5656438 0.4990176 0.6565276
vn -0.7649012 0.3350481 0.5501536
vn -0.9049814 0.1442028 0.4002677
vn -0.9741750 -0.0590328 0.2179410
vn 0.8361414 0.5421504 0.0833100
vn 0.6514706 0.7430849 0.1530061
vn 0.4164598 0.8844968 0.2103013
vn 0.1498301 0.9563306 0.2509638
vn -0.1278161 0.9537568 0.2720497
vn -0.3953484 0.8773190 0.2720497
vn -0.6324454 0.7328233 0.2509638
vn -0.8208793 0.5309714 0.2103013
vn -0.9457086 0.2867480 0.1530061
vn -0.9963504 0.0185813 0.0833100
vn 0.8354298 0.5446408 -0.0736439
vn 0.6501638 0.7476587 -0.1352535
vn 0.4146636 0.8907833 -0.1859010
vn 0.1476866 0.9638325 -0.2218456
vn -0.1301396 0.9618891 -0.2404850
vn -0.3976720 0.8854513 -0.2404850
vn -0.6345889 0.7403253 -0.2218456
vn -0.8226754 0.5372579 -0.1859010
vn -0.9470154 0.2913218 -0.1352535
vn -0.9970620 0.0210717 -0.0736439
vn 0.8563729 0.4713400 -0.2108650
vn 0.6886276 0.6130355 -0.3872719
vn 0.4675307 0.7057485 -0.5322913
vn 0.2107757 0.7430207 -0.6352117
vn -0.0617498 0.7225247 -0.6885819
vn -0.3292821 0.6460869 -0.6885819
vn -0.5714998 0.5195134 -0.6352117
vn -0.7698083 0.3522231 -0.5322913
vn -0.9085516 0.1566986 -0.3872719
vn -0.9761189 -0.0522290 -0.2108650
vn 0.8933589 0.3418891 -0.2915849
vn 0.7565556 0.3752874 -0.5355212
vn 0.5608953 0.3789725 -0.7360546
vn 0.3221927 0.3530613 -0.8783732
vn 0.0590284 0.2998012 -0.9521738
vn -0.2085040 0.2233633 -0.9521738
vn -0.4600828 0.1295540 -0.8783732
vn -0.6764437 0.0254470 -0.7360546
vn -0.8406236 -0.0810495 -0.5355212
vn -0.9391329 -0.1816800 -0.2915849
vn 0.9364774 0.1909742 -0.2941749
vn 0.8357466 0.0981190 -0.5402780
vn 0.6697404 -0.0019856 -0.7425926
vn 0.4520834 -0.1015562 -0.8861754
vn 0.1998325 -0.1930132 -0.9606315
vn -0.0676999 -0.2694510 -0.9606315
vn -0.3301921 -0.3250635 -0.8861754
vn -0.5675986 -0.3555110 -0.7425926
vn -0.7614326 -0.3582179 -0.5402780
vn -0.8960144 -0.3325949 -0.2941749
vn 0.9741750 0.0590328 -0.2179410
vn 0.9049814 -0.1442028 -0.4002677
vn 0.7649012 -0.3350481 -0.5501536
vn 0.5656438 -0.4990176 -0.6565276
vn 0.3229342 -0.6238690 -0.7116888
vn 0.0554018 -0.7003069 -0.7116888
vn -0.2166317 -0.7225249 -0.6565276
vn -0.4724378 -0.6885736 -0.5501536
vn -0.6921978 -0.6005397 -0.4002677
vn -0.8583168 -0.4645362 -0.2179410
vn 0.9963504 -0.0185813 -0.0833100
vn 0.9457086 -0.2867480 -0.1530061
vn 0.8208793 -0.5309714 -0.2103013
vn 0.6324454 -0.7328233 -0.2509638
vn 0.3953484 -0.8773190 -0.2720497
vn 0.1278161 -0.9537568 -0.2720497
vn -0.1498301 -0.9563306 -0.2509638
vn -0.4164598 -0.8844968 -0.2103013
vn -0.6514706 -0.7430849 -0.1530061
vn -0.8361414 -0.5421504 -0.0833100
vn 0.9970620 -0.0210717 0.0736439
vn 0.9470154 -0.2913218 0.1352535
vn 0.8226754 -0.5372579 0.1859010
vn 0.6345889 -0.7403253 0.2218456
vn 0.3976720 -0.8854513 0.2404850
vn 0.1301396 -0.9618891 0.2404850
vn -0.1476866 -0.9638325 0.2218456
vn -0.4146636 -0.8907833 0.1859010
vn -0.6501638 -0.7476587 0.1352535
vn -0.8354298 -0.5446408 0.0736439
vn 0.9761189 0.0522290 0.2108650
vn 0.9085516 -0.1566986 0.3872719
vn 0.7698083 -0.3522231 0.5322913
vn 0.5714998 -0.5195134 0.6352117
vn 0.3292821 -0.6460869 0.6885819
vn 0.0617498 -0.7225247 0.6885819
vn -0.2107757 -0.7430207 0.6352117
vn -0.4675307 -0.7057485 0.5322913
vn -0.6886276 -0.6130355 0.3872719
vn -0.8563729 -0.4713400 0.2108650
f 2//2 1//1 13//13
f 2//2 13//13 3//3
f 3//3 13//13 14//14
f 3//3 14//14 4//4
f 4//4 14//14 15//15
f 4//4 15//15 5//5
f 5//5 15//15 16//16
f 5//5 16//16 6//6
f 6//6 16//16 17//17
f 6//6 17//17 7//7
f 7//7 17//17 18//18
f 7//7 18//18 8//8
f 8//8 18//18 19//19
f 8//8 19//19 9//9
f 9//9 19//19 20//20
f 9//9 20//20 10//10
f 10//10 20//20 21//21
f 10//10 21//21 11//11
f 11//11 21//21 22//22
f 11//11 22//22 12//12
f 13//13 1//1 23//23
f 13//13 23//23 14//14
f 14//14 23//23 24//24
f 14//14 24//24 15//15
f 15//15 24//24 25//25
f 15//15 25//25 16//16
f 16//16 25//25 26//26
f 16//16 26//26 17//17
f 17//17 26//26 27//27
f 17//17 27//27 18//18
f 18//18 27//27 28//28
f 18//18 28//28 19//19
f 19//19 28//28 29//29
f 19//19 29//29 20//20
f 20//20 29//29 30//30
f 20//20 30//30 21//21
f 21//21 30//30 31//31
f 21//21 31//31 22//22
f 22//22 31//31 32//32
f 22//22 32//32 12//12
f 23//23 1//1 33//33
f 23//23 33//33 24//24
f 24//24 33//33 34//34
f 24//24 34//34 25//25
f 25//25 34//34 35//35
f 25//25 35//35 26//26
f 26//26 35//35 36//36
f 26//26 36//36 27//27
f 27//27 36//36 37//37
f 27//27 37//37 28//28
f 28//28 37//37 38//38
f 28//28 38//38 29//29
f 29//29 38//38 39//39
f 29//29 39//39 30//30
f 30//30 39//39 40//40
f 30//30 40//40 31//31
f 31//31 40//40 41//41
f 31//31 41//41 32//32
f 32//32 41//41 42//42
f 32//32 42//42 12//12
f 33//33 1//1 43//43
f 33//33 43//43 34//34
f 34//34 43//43 44//44
f 34//34 44//44 35//35
f 35//35 44//44 45//45
f 35//35 45//45 36//36
f 36//36 45//45 46//46
f 36//36 46//46 37//37
f 37//37 46//46 47//47
f 37//37 47//47 38//38
f 38//38 47//47 48//48
f 38//38 48//48 39//39
f 39//39 48//48 49//49
f 39//39 49//49 40//40
f 40//40 49//49 50//50
f 40//40 50//50 41//41
f 41//41 50//50 51//51
f 41//41 51//51 42//42
f 42//42 51//51 52//52
f 42//42 52//52 12//12
f 43//43 1//1 53//53
f 43//43 53//53 44//44
f 44//44 53//53 54//54
f 44//44 54//54 45//45
f 45//45 54//54 55//55
f 45//45 55//55 46//46
f 46//46 55//55 56//56
f 46//46 56//56 47//47
f 47//47 56//56 57//57
f 47//47 57//57 48//48
f 48//48 57//57 58//58
f 48//48 58//58 49//49
f 49//49 58//58 59//59
f 49//49 59//59 50//50
f 50//50 59//59 60//60
f 50//50 60//60 51//51
f 51//51 60//60 61//61
f 51//51 61//61 52//52
f 52//52 61//61 62//62
f 52//52 62//62 12//12
f 53//53 1//1 63//63
f 53//53 63//63 54//54
f 54//54 63//63 64//64
f 54//54 64//64 55//55
f 55//55 64//64 65//65
f 55//55 65//65 56//56
f 56//56 65//65 66//66
f 56//56 66//66 57//57
f 57//57 66//66 67//67
f 57//57 67//67 58//58
f 58//58 67//67 68//68
f 58//58 68//68 59//59
f 59//59 68//68 69//69
f 59//59 69//69 60//60
f 60//60 69//69 70//70
f 60//60 70//70 61//61
f 61//61 70//70 71//71
f 61//61 71//71 62//62
f 62//62 71//71 72//72
f 62//62 72//72 12//12
f 63//63 1//1 73//73
f 63//63 73//73 64//64
f 64//64 73//73 74//74
f 64//64 74//74 65//65
f 65//65 74//74 75//75
f 65//65 75//75 66//66
f 66//66 75//75 76//76
f 66//66 76//76 67//67
f 67//67 76//76 77//77
f 67//67 77//77 68//68
f 68//68 77//77 78//78
f 68//68 78//78 69//69
f 69//69 78//78 79//79
f 69//69 79//79 70//70
f 70//70 79//79 80//80
f 70//70 80//80 71//71
f 71//71 80//80 81//81
f 71//71 81//81 72//72
f 72//72 81//81 82//82
f 72//72 82//82 12//12
f 73//73 1//1 83//83
f 73//73 83//83 74//74
f 74//74 83//83 84//84
f 74//74 84//84 75//75
f 75//75 84//84 85//85
f 75//75 85//85 76//76
f 76//76 85//85 86//86
f 76//76 86//86 77//77
f 77//77 86//86 87//87
f 77//77 87//87 78//78
f 78//78 87//87 88//88
f 78//78 88//88 79//79
f 79//79 88//88 89//89
f 79//79 89//89 80//80
f 80//80 89//89 90//90
f 80//80 90//90 81//81
f 81//81 90//90 91//91
f 81//81 91//91 82//82
f 82//82 91//91 92//92
f 82//82 92//92 12//12
f 83//83 1//1 93//93
f 83//83 93//93 84//84
f 84//84 93//93 94//94
f 84//84 94//94 85//85
f 85//85 94//94 95//95
f 85//85 95//95 86//86
f 86//86 95//95 96//96
f 86//86 96//96 87//87
f 87//87 96//96 97//97
f 87//87 97//97 88//88
f 88//88 97//97 98//98
f 88//88 98//98 89//89
f 89//89 98//98 99//99
f 89//89 99//99 90//90
f 90//90 99//99 100//100
f 90//90 100//100 91//91
f 91//91 100//100 101//101
f 91//91 101//101 92//92
f 92//92 101//101 102//102
f 92//92 102//102 12//12
f 93//93 1//1 103//103
f 93//93 103//103 94//94
f 94//94 103//103 104//104
f 94//94 104//104 95//95
f 95//95 104//104 105//105
f 95//95 105//105 96//96
f 96//96 105//105 106//106
f 96//96 106//106 97//97
f 97//97 106//106 107//107
f 97//97 107//107 98//98
f 98//98 107//107 108//108
f 98//98 108//108 99//99
f 99//99 108//108 109//109
f 99//99 109//109 100//100
f 100//100 109//109 110//110
f 100//100 110//110 101//101
f 101//101 110//110 111//111
f 101//101 111//111 102//102
f 102//102 111//111 112//112
f 102//102 112//112 12//12
f 103//103 1//1 113//113
f 103//103 113//113 104//104
f 104//104 113//113 114//114
f 104//104 114//114 105//105
f 105//105 114//114 115//115
f 105//105 115//115 106//106
f 106//106 115//115 116//116
f 106//106 116//116 107//107
f 107//107 116//116 117//117
f 107//107 117//117 108//108
f 108//108 117//117 118//118
f 108//108 118//118 109//109
f 109//109 118//118 119//119
f 109//109 119//119 110//110
f 110//110 119//119 120//120
f 110//110 120//120 111//111
f 111//111 120//120 121//121
f 111//111 121//121 112//112
f 112//112 121//121 122//122
f 112//112 122//122 12//12
f 113//113 1//1 2//2
f 113//113 2//2 114//114
f 114//114 2//2 3//3
f 114//114 3//3 115//115
f 115//115 3//3 4//4
f 115//115 4//4 116//116
f 116//116 4//4 5//5
f 116//116 5//5 117//117
f 117//117 5//5 6//6
f 117//117 6//6 118//118
f 118//118 6//6 7//7
f 118//118 7//7 119//119
f 119//119 7//7 8//8
f 119//119 8//8 120//120
f 120//120 8//8 9//9
f 120//120 9//9 121//121
f 121//121 9//9 10//10
f 121//121 10//10 122//122
f 122//122 10//10 11//11
f 122//122 11//11 12//12

