# https://github.com/mikedh/trimesh
v -0.4881374 0.5488051 -0.0000000
v -0.4857858 0.5479351 0.0005248
v -0.4837757 0.5464222 0.0010070
v -0.4822698 0.5443889 0.0014077
v -0.4813902 0.5420002 0.0016943
v -0.4812081 0.5394494 0.0018437
v -0.5917382 0.0169431 0.0018437
v -0.5929377 0.0146846 0.0016943
v -0.5947093 0.0128567 0.0014077
v -0.5969096 0.0116074 0.0010070
v -0.5993602 0.0110381 0.0005248
v -0.6018626 0.0111949 0.0000000
v -0.4863677 0.5480582 0.0016948
v -0.4848923 0.5466583 0.0032523
v -0.4838307 0.5447191 0.0045463
v -0.4832688 0.5423976 0.0054720
v -0.4832523 0.5398818 0.0059544
v -0.5937825 0.0173756 0.0059544
v -0.5948164 0.0150820 0.0054720
v -0.5962702 0.0131868 0.0045463
v -0.5980262 0.0118436 0.0032523
v -0.5999420 0.0111612 0.0016948
v -0.4874439 0.5482858 0.0024107
v -0.4869576 0.5470952 0.0046262
v -0.4867177 0.5453298 0.0064668
v -0.4867438 0.5431327 0.0077835
v -0.4870336 0.5406817 0.0084697
v -0.5975638 0.0181755 0.0084697
v -0.5982913 0.0158171 0.0077835
v -0.5991572 0.0137976 0.0064668
v -0.6000915 0.0122805 0.0046262
v -0.6010183 0.0113889 0.0024107
v -0.4887262 0.5485571 0.0024807
v -0.4894183 0.5476158 0.0047604
v -0.4901574 0.5460575 0.0066545
v -0.4908839 0.5440084 0.0080094
v -0.4915387 0.5416347 0.0087155
v -0.6020688 0.0191285 0.0087155
v -0.6024314 0.0166929 0.0080094
v -0.6025970 0.0145252 0.0066545
v -0.6025522 0.0128010 0.0047604
v -0.6023006 0.0116601 0.0024807
v -0.4898709 0.5487992 0.0018860
v -0.4916150 0.5480805 0.0036191
v -0.4932281 0.5467070 0.0050591
v -0.4945798 0.5447903 0.0060892
v -0.4955604 0.5424854 0.0066260
v -0.6060906 0.0199792 0.0066260
v -0.6061273 0.0174747 0.0060892
v -0.6056677 0.0151748 0.0050591
v -0.6047488 0.0132657 0.0036191
v -0.6034453 0.0119023 0.0018860
v -0.4905714 0.5489474 0.0007859
v -0.4929591 0.5483648 0.0015081
v -0.4951070 0.5471045 0.0021082
v -0.4968413 0.5452687 0.0025374
v -0.4980212 0.5430060 0.0027611
v -0.6085514 0.0204998 0.0027611
v -0.6083888 0.0179531 0.0025374
v -0.6075465 0.0155722 0.0021082
v -0.6060929 0.0135501 0.0015081
v -0.6041457 0.0120504 0.0007859
v -0.4906398 0.5489619 -0.0005248
v -0.4930904 0.5483926 -0.0010070
v -0.4952907 0.5471433 -0.0014077
v -0.4970623 0.5453154 -0.0016943
v -0.4982618 0.5430569 -0.0018437
v -0.6087919 0.0205506 -0.0018437
v -0.6086098 0.0179998 -0.0016943
v -0.6077302 0.0156111 -0.0014077
v -0.6062243 0.0135778 -0.0010070
v -0.6042142 0.0120649 -0.0005248
v -0.4900580 0.5488388 -0.0016948
v -0.4919738 0.5481564 -0.0032523
v -0.4937298 0.5468132 -0.0045463
v -0.4951836 0.5449180 -0.0054720
v -0.4962175 0.5426244 -0.0059544
v -0.6067477 0.0201182 -0.0059544
v -0.6067312 0.0176024 -0.0054720
v -0.6061693 0.0152809 -0.0045463
v -0.6051077 0.0133417 -0.0032523
v -0.6036323 0.0119418 -0.0016948
v -0.4889817 0.5486111 -0.0024107
v -0.4899085 0.5477195 -0.0046262
v -0.4908428 0.5462024 -0.0064668
v -0.4917087 0.5441829 -0.0077835
v -0.4924362 0.5418245 -0.0084697
v -0.6029664 0.0193183 -0.0084697
v -0.6032562 0.0168673 -0.0077835
v -0.6032823 0.0146702 -0.0064668
v -0.6030424 0.0129048 -0.0046262
v -0.6025561 0.0117142 -0.0024107
v -0.4876994 0.5483399 -0.0024807
v -0.4874478 0.5471990 -0.0047604
v -0.4874030 0.5454748 -0.0066545
v -0.4875686 0.5433071 -0.0080094
v -0.4879312 0.5408715 -0.0087155
v -0.5984613 0.0183653 -0.0087155
v -0.5991161 0.0159916 -0.0080094
v -0.5998426 0.0139425 -0.0066545
v -0.6005817 0.0123842 -0.0047604
v -0.6012738 0.0114429 -0.0024807
v -0.4865547 0.5480977 -0.0018860
v -0.4852512 0.5467343 -0.0036191
v -0.4843323 0.5448252 -0.0050591
v -0.4838727 0.5425253 -0.0060892
v -0.4839094 0.5400208 -0.0066260
v -0.5944396 0.0175146 -0.0066260
v -0.5954202 0.0152097 -0.0060892
v -0.5967719 0.0132930 -0.0050591
v -0.5983850 0.0119195 -0.0036191
v -0.6001291 0.0112008 -0.0018860
v -0.4858543 0.5479496 -0.0007859
v -0.4839071 0.5464499 -0.0015081
v -0.4824535 0.5444278 -0.0021082
v -0.4816112 0.5420469 -0.0025374
v -0.4814486 0.5395002 -0.0027611
v -0.5919788 0.0169940 -0.0027611
v -0.5931587 0.0147313 -0.0025374
v -0.5948930 0.0128955 -0.0021082
v -0.5970409 0.0116352 -0.0015081
v -0.5994286 0.0110526 -0.0007859
vn 0.2069586 0.9783497 0.0000000
vn 0.4874769 0.8708773 0.0627608
vn 0.7049838 0.6997940 0.1152657
vn 0.8658827 0.4744971 0.1584285
vn 0.9585827 0.2130143 0.1890612
vn 0.9766522 -0.0644019 0.2049461
vn 0.9190685 -0.3366159 0.2049461
vn 0.7902056 -0.5829503 0.1890612
vn 0.5995576 -0.7844941 0.1584285
vn 0.3612067 -0.9253343 0.1152657
vn 0.0930511 -0.9936813 0.0627608
vn -0.2069586 -0.9783497 -0.0000000
vn 0.4178879 0.8855981 0.2026961
vn 0.5771775 0.7268299 0.3722692
vn 0.6902176 0.5116571 0.5116705
vn 0.7489521 0.2573592 0.6106038
vn 0.7494085 -0.0163312 0.6619065
vn 0.6918248 -0.2885451 0.6619065
vn 0.5805750 -0.5386053 0.6106038
vn 0.4238925 -0.7473342 0.5116705
vn 0.2334004 -0.8982983 0.3722692
vn 0.0234621 -0.9789606 0.2026961
vn 0.2891692 0.9128270 0.2883192
vn 0.3407744 0.7768383 0.5295234
vn 0.3652900 0.5803918 0.7278108
vn 0.3611986 0.3393840 0.8685356
vn 0.3290762 0.0725853 0.9415095
vn 0.2714925 -0.1996287 0.9415095
vn 0.1928215 -0.4565806 0.8685356
vn 0.0989649 -0.6785995 0.7278108
vn -0.0030028 -0.8482900 0.5295234
vn -0.1052566 -0.9517316 0.2883192
vn 0.1358109 0.9452682 0.2966874
vn 0.0591184 0.8364194 0.5448923
vn -0.0218360 0.6622838 0.7489348
vn -0.1007794 0.4371101 0.8937439
vn -0.1717171 0.1785223 0.9688359
vn -0.2293008 -0.0936916 0.9688359
vn -0.2691565 -0.3588544 0.8937439
vn -0.2881610 -0.5967075 0.7489348
vn -0.2846587 -0.7887089 0.5448923
vn -0.2586149 -0.9192904 0.2966874
vn -0.0010948 0.9742290 0.2255584
vn -0.1923209 0.8896084 0.4142578
vn -0.3674302 0.7353903 0.5693823
vn -0.5131955 0.5243520 0.6794744
vn -0.6187841 0.2730942 0.7365635
vn -0.6763678 0.0008803 0.7365635
vn -0.6815726 -0.2716126 0.6794744
vn -0.6337553 -0.5236010 0.5693823
vn -0.5360980 -0.7355198 0.4142578
vn -0.3955206 -0.8903296 0.2255584
vn -0.0848641 0.9919495 0.0939912
vn -0.3461705 0.9221536 0.1726232
vn -0.5788910 0.7801224 0.2372643
vn -0.7655430 0.5777332 0.2831402
vn -0.8923337 0.3309605 0.3069295
vn -0.9499174 0.0587465 0.3069295
vn -0.9339201 -0.2182314 0.2831402
vn -0.8452161 -0.4788689 0.2372643
vn -0.6899477 -0.7029747 0.1726232
vn -0.4792899 -0.8726092 0.0939912
vn -0.0930511 0.9936813 -0.0627608
vn -0.3612067 0.9253343 -0.1152657
vn -0.5995576 0.7844941 -0.1584285
vn -0.7902056 0.5829503 -0.1890612
vn -0.9190685 0.3366159 -0.2049461
vn -0.9766522 0.0644019 -0.2049461
vn -0.9585827 -0.2130143 -0.1890612
vn -0.8658827 -0.4744971 -0.1584285
vn -0.7049838 -0.6997940 -0.1152657
vn -0.4874769 -0.8708773 -0.0627608
vn -0.0234621 0.9789606 -0.2026961
vn -0.2334004 0.8982983 -0.3722692
vn -0.4238925 0.7473342 -0.5116705
vn -0.5805750 0.5386053 -0.6106038
vn -0.6918248 0.2885451 -0.6619065
vn -0.7494085 0.0163312 -0.6619065
vn -0.7489521 -0.2573592 -0.6106038
vn -0.6902176 -0.5116571 -0.5116705
vn -0.5771775 -0.7268299 -0.3722692
vn -0.4178879 -0.8855981 -0.2026961
vn 0.1052566 0.9517316 -0.2883192
vn 0.0030028 0.8482900 -0.5295234
vn -0.0989649 0.6785995 -0.7278108
vn -0.1928215 0.4565806 -0.8685356
vn -0.2714925 0.1996287 -0.9415095
vn -0.3290762 -0.0725853 -0.9415095
vn -0.3611986 -0.3393840 -0.8685356
vn -0.3652900 -0.5803918 -0.7278108
vn -0.3407744 -0.7768383 -0.5295234
vn -0.2891692 -0.9128270 -0.2883192
vn 0.2586149 0.9192904 -0.2966874
vn 0.2846587 0.7887089 -0.5448923
vn 0.2881610 0.5967075 -0.7489348
vn 0.2691565 0.3588544 -0.8937439
vn 0.2293008 0.0936916 -0.9688359
vn 0.1717171 -0.1785223 -0.9688359
vn 0.1007794 -0.4371101 -0.8937439
vn 0.0218360 -0.6622838 -0.7489348
vn -0.0591184 -0.8364194 -0.5448923
vn -0.1358109 -0.9452682 -0.2966874
vn 0.3955206 0.8903296 -0.2255584
vn 0.5360980 0.7355198 -0.4142578
vn 0.6337553 0.5236010 -0.5693823
vn 0.6815726 0.2716126 -0.6794744
vn 0.6763678 -0.0008803 -0.7365635
vn 0.6187841 -0.2730942 -0.7365635
vn 0.5131955 -0.5243520 -0.6794744
vn 0.3674302 -0.7353903 -0.5693823
vn 0.1923209 -0.8896084 -0.4142578
vn 0.0010948 -0.9742290 -0.2255584
vn 0.4792899 0.8726092 -0.0939912
vn 0.6899477 0.7029747 -0.1726232
vn 0.8452161 0.4788689 -0.2372643
vn 0.9339201 0.2182314 -0.2831402
vn 0.9499174 -0.0587465 -0.3069295
vn 0.8923337 -0.3309605 -0.3069295
vn 0.7655430 -0.5777332 -0.2831402
vn 0.5788910 -0.7801224 -0.2372643
vn 0.3461705 -0.9221536 -0.1726232
vn 0.0848641 -0.9919495 -0.0939912
f 2//2 1//1 13//13
f 2//2 13//13 3//3
f 3//3 13//13 14//14
f 3//3 14//14 4//4
f 4//4 14//14 15//15
f 4//4 15//15 5//5
f 5//5 15//15 16//16
f 5//5 16//16 6//6
f 6//6 16//16 17//17
f 6//6 17//17 7//7
f 7//7 17//17 18//18
f 7//7 18//18 8//8
f 8//8 18//18 19//19
f 8//8 19//19 9//9
f 9//9 19//19 20//20
f 9//9 20//20 10//10
f 10//10 20//20 21//21
f 10//10 21//21 11//11
f 11//11 21//21 22//22
f 11//11 22//22 12//12
f 13//13 1//1 23//23
f 13//13 23//23 14//14
f 14//14 23//23 24//24
f 14//14 24//24 15//15
f 15//15 24//24 25//25
f 15//15 25//25 16//16
f 16//16 25//25 26//26
f 16//16 26//26 17//17
f 17//17 26//26 27//27
f 17//17 27//27 18//18
f 18//18 27//27 28//28
f 18//18 28//28 19//19
f 19//19 28//28 29//29
f 19//19 29//29 20//20
f 20//20 29//29 30//30
f 20//20 30//30 21//21
f 21//21 30//30 31//31
f 21//21 31//31 22//22
f 22//22 31//31 32//32
f 22//22 32//32 12//12
f 23//23 1//1 33//33
f 23//23 33//33 24//24
f 24//24 33//33 34//34
f 24//24 34//34 25//25
f 25//25 34//34 35//35
f 25//25 35//35 26//26
f 26//26 35//35 36//36
f 26//26 36//36 27//27
f 27//27 36//36 37//37
f 27//27 37//37 28//28
f 28//28 37//37 38//38
f 28//28 38//38 29//29
f 29//29 38//38 39//39
f 29//29 39//39 30//30
f 30//30 39//39 40//40
f 30//30 40//40 31//31
f 31//31 40//40 41//41
f 31//31 41//41 32//32
f 32//32 41//41 42//42
f 32//32 42//42 12//12
f 33//33 1//1 43//43
f 33//33 43//43 34//34
f 34//34 43//43 44//44
f 34//34 44//44 35//35
f 35//35 44//44 45//45
f 35//35 45//45 36//36
f 36//36 45//45 46//46
f 36//36 46//46 37//37
f 37//37 46//46 47//47
f 37//37 47//47 38//38
f 38//38 47//47 48//48
f 38//38 48//48 39//39
f 39//39 48//48 49//49
f 39//39 49//49 40//40
f 40//40 49//49 50//50
f 40//40 50//50 41//41
f 41//41 50//50 51//51
f 41//41 51//51 42//42
f 42//42 51//51 52//52
f 42//42 52//52 12//12
f 43//43 1//1 53//53
f 43//43 53//53 44//44
f 44//44 53//53 54//54
f 44//44 54//54 45//45
f 45//45 54//54 55//55
f 45//45 55//55 46//46
f 46//46 55//55 56//56
f 46//46 56//56 47//47
f 47//47 56//56 57//57
f 47//47 57//57 48//48
f 48//48 57//57 58//58
f 48//48 58//58 49//49
f 49//49 58//58 59//59
f 49//49 59//59 50//50
f 50//50 59//59 60//60
f 50//50 60//60 51//51
f 51//51 60//60 61//61
f 51//51 61//61 52//52
f 52//52 61//61 62//62
f 52//52 62//62 12//12
f 53//53 1//1 63//63
f 53//53 63//63 54//54
f 54//54 63//63 64//64
f 54//54 64//64 55//55
f 55//55 64//64 65//65
f 55//55 65//65 56//56
f 56//56 65//65 66//66
f 56//56 66//66 57//57
f 57//57 66//66 67//67
f 57//57 67//67 58//58
f 58//58 67//67 68//68
f 58//58 68//68 59//59
f 59//59 68//68 69//69
f 59//59 69//69 60//60
f 60//60 69//69 70//70
f 60//60 70//70 61//61
f 61//61 70//70 71//71
f 61//61 71//71 62//62
f 62//62 71//71 72//72
f 62//62 72//72 12//12
f 63//63 1//1 73//73
f 63//63 73//73 64//64
f 64//64 73//73 74//74
f 64//64 74//74 65//65
f 65//65 74//74 75//75
f 65//65 75//75 66//66
f 66//66 75//75 76//76
f 66//66 76//76 67//67
f 67//67 76//76 77//77
f 67//67 77//77 68//68
f 68//68 77//77 78//78
f 68//68 78//78 69//69
f 69//69 78//78 79//79
f 69//69 79//79 70//70
f 70//70 79//79 80//80
f 70//70 80//80 71//71
f 71//71 80//80 81//81
f 71//71 81//81 72//72
f 72//72 81//81 82//82
f 72//72 82//82 12//12
f 73//73 1//1 83//83
f 73//73 83//83 74//74
f 74//74 83//83 84//84
f 74//74 84//84 75//75
f 75//75 84//84 85//85
f 75//75 85//85 76//76
f 76//76 85//85 86//86
f 76//76 86//86 77//77
f 77//77 86//86 87//87
f 77//77 87//87 78//78
f 78//78 87//87 88//88
f 78//78 88//88 79//79
f 79//79 88//88 89//89
f 79//79 89//89 80//80
f 80//80 89//89 90//90
f 80//80 90//90 81//81
f 81//81 90//90 91//91
f 81//81 91//91 82//82
f 82//82 91//91 92//92
f 82//82 92//92 12//12
f 83//83 1//1 93//93
f 83//83 93//93 84//84
f 84//84 93//93 94//94
f 84//84 94//94 85//85
f 85//85 94//94 95//95
f 85//85 95//95 86//86
f 86//86 95//95 96//96
f 86//86 96//96 87//87
f 87//87 96//96 97//97
f 87//87 97//97 88//88
f 88//88 97//97 98//98
f 88//88 98//98 89//89
f 89//89 98//98 99//99
f 89//89 99//99 90//90
f 90//90 99//99 100//100
f 90//90 100//100 91//91
f 91//91 100//100 101//101
f 91//91 101//101 92//92
f 92//92 101//101 102//102
f 92//92 102//102 12//12
f 93//93 1//1 103//103
f 93//93 103//103 94//94
f 94//94 103//103 104//104
f 94//94 104//104 95//95
f 95//95 104//104 105//105
f 95//95 105//105 96//96
f 96//96 105//105 106//106
f 96//96 106//106 97//97
f 97//97 106//106 107//107
f 97//97 107//107 98//98
f 98//98 107//107 108//108
f 98//98 108//108 99//99
f 99//99 108//108 109//109
f 99//99 109//109 100//100
f 100//100 109//109 110//110
f 100//100 110//110 101//101
f 101//101 110//110 111//111
f 101//101 111//111 102//102
f 102//102 111//111 112//112
f 102//102 112//112 12//12
f 103//103 1//1 113//113
f 103//103 113//113 104//104
f 104//104 113//113 114//114
f 104//104 114//114 105//105
f 105//105 114//114 115//115
f 105//105 115//115 106//106
f 106//106 115//115 116//116
f 106//106 116//116 107//107
f 107//107 116//116 117//117
f 107//107 117//117 108//108
f 108//108 117//117 118//118
f 108//108 118//118 109//109
f 109//109 118//118 119//119
f 109//109 119//119 110//110
f 110//110 119//119 120//120
f 110//110 120//120 111//111
f 111//111 120//120 121//121
f 111//111 121//121 112//112
f 112//112 121//121 122//122
f 112//112 122//122 12//12
f 113//113 1//1 2//2
f 113//113 2//2 114//114
f 114//114 2//2 3//3
f 114//114 3//3 115//115
f 115//115 3//3 4//4
f 115//115 4//4 116//116
f 116//116 4//4 5//5
f 116//116 5//5 117//117
f 117//117 5//5 6//6
f 117//117 6//6 118//118
f 118//118 6//6 7//7
f 118//118 7//7 119//119
f 119//119 7//7 8//8
f 119//119 8//8 120//120
f 120//120 8//8 9//9
f 120//120 9//9 121//121
f 121//121 9//9 10//10
f 121//121 10//10 122//122
f 122//122 10//10 11//11
f 122//122 11//11 12//12

