# https://github.com/mikedh/trimesh
v 0.0091279 0.0816726 -0.0000000
v 0.0096400 0.0820706 -0.0030630
v 0.0109913 0.0823009 -0.0058779
v 0.0130725 0.0823447 -0.0082166
v 0.0157149 0.0821986 -0.0098896
v 0.0187045 0.0818744 -0.0107614
v 0.1517990 0.0613983 -0.0107614
v 0.1547478 0.0608089 -0.0098896
v 0.1573119 0.0601541 -0.0082166
v 0.1592837 0.0594867 -0.0058779
v 0.1605033 0.0588609 -0.0030630
v 0.1608721 0.0583274 0.0000000
v 0.0098632 0.0835219 -0.0024170
v 0.0114198 0.0850859 -0.0046383
v 0.0136715 0.0862379 -0.0064837
v 0.0164358 0.0868845 -0.0078039
v 0.0194889 0.0869733 -0.0084919
v 0.1525835 0.0664972 -0.0084919
v 0.1554687 0.0654948 -0.0078039
v 0.1579109 0.0640472 -0.0064837
v 0.1597122 0.0622717 -0.0046383
v 0.1607266 0.0603122 -0.0024170
v 0.0100075 0.0844596 -0.0011234
v 0.0116966 0.0868852 -0.0021558
v 0.0140584 0.0887531 -0.0030136
v 0.0169016 0.0899118 -0.0036272
v 0.0199957 0.0902675 -0.0039469
v 0.1530903 0.0697914 -0.0039469
v 0.1559344 0.0685221 -0.0036272
v 0.1582978 0.0665624 -0.0030136
v 0.1599890 0.0640710 -0.0021558
v 0.1608709 0.0612498 -0.0011234
v 0.0100341 0.0846323 0.0004712
v 0.0117476 0.0872167 0.0009043
v 0.0141297 0.0892164 0.0012641
v 0.0169874 0.0904694 0.0015215
v 0.0200891 0.0908743 0.0016556
v 0.1531836 0.0703982 0.0016556
v 0.1560202 0.0690798 0.0015215
v 0.1583691 0.0670257 0.0012641
v 0.1600400 0.0644024 0.0009043
v 0.1608974 0.0614225 0.0004712
v 0.0099358 0.0839938 0.0019396
v 0.0115591 0.0859914 0.0037221
v 0.0138662 0.0875037 0.0052030
v 0.0166702 0.0884080 0.0062624
v 0.0197440 0.0886312 0.0068145
v 0.1528385 0.0681551 0.0068145
v 0.1557031 0.0670183 0.0062624
v 0.1581056 0.0653130 0.0052030
v 0.1598515 0.0631772 0.0037221
v 0.1607992 0.0607841 0.0019396
v 0.0097391 0.0827152 0.0028883
v 0.0111816 0.0835378 0.0055426
v 0.0133385 0.0840739 0.0077478
v 0.0160351 0.0842798 0.0093254
v 0.0190529 0.0841391 0.0101475
v 0.1521474 0.0636630 0.0101475
v 0.1550680 0.0628901 0.0093254
v 0.1575779 0.0618832 0.0077478
v 0.1594740 0.0607236 0.0055426
v 0.1606025 0.0595055 0.0028883
v 0.0094967 0.0811391 0.0030630
v 0.0107163 0.0805133 0.0058779
v 0.0126881 0.0798459 0.0082166
v 0.0152522 0.0791911 0.0098896
v 0.0182010 0.0786017 0.0107614
v 0.1512955 0.0581256 0.0107614
v 0.1542851 0.0578014 0.0098896
v 0.1569275 0.0576553 0.0082166
v 0.1590087 0.0576991 0.0058779
v 0.1603600 0.0579294 0.0030630
v 0.0092734 0.0796878 0.0024170
v 0.0102878 0.0777283 0.0046383
v 0.0120891 0.0759528 0.0064837
v 0.0145313 0.0745052 0.0078039
v 0.0174165 0.0735028 0.0084919
v 0.1505111 0.0530267 0.0084919
v 0.1535642 0.0531155 0.0078039
v 0.1563285 0.0537621 0.0064837
v 0.1585802 0.0549141 0.0046383
v 0.1601368 0.0564781 0.0024170
v 0.0091291 0.0787502 0.0011234
v 0.0100110 0.0759290 0.0021558
v 0.0117022 0.0734376 0.0030136
v 0.0140656 0.0714779 0.0036272
v 0.0169097 0.0702086 0.0039469
v 0.1500043 0.0497325 0.0039469
v 0.1530984 0.0500882 0.0036272
v 0.1559416 0.0512469 0.0030136
v 0.1583034 0.0531148 0.0021558
v 0.1599925 0.0555404 0.0011234
v 0.0091026 0.0785775 -0.0004712
v 0.0099600 0.0755976 -0.0009043
v 0.0116309 0.0729743 -0.0012641
v 0.0139798 0.0709202 -0.0015215
v 0.0168164 0.0696018 -0.0016556
v 0.1499109 0.0491257 -0.0016556
v 0.1530126 0.0495306 -0.0015215
v 0.1558703 0.0507836 -0.0012641
v 0.1582524 0.0527833 -0.0009043
v 0.1599659 0.0553677 -0.0004712
v 0.0092008 0.0792159 -0.0019396
v 0.0101485 0.0768228 -0.0037221
v 0.0118944 0.0746870 -0.0052030
v 0.0142969 0.0729817 -0.0062624
v 0.0171615 0.0718449 -0.0068145
v 0.1502560 0.0513688 -0.0068145
v 0.1533298 0.0515920 -0.0062624
v 0.1561338 0.0524963 -0.0052030
v 0.1584409 0.0540086 -0.0037221
v 0.1600642 0.0560062 -0.0019396
v 0.0093975 0.0804945 -0.0028883
v 0.0105260 0.0792764 -0.0055426
v 0.0124221 0.0781168 -0.0077478
v 0.0149320 0.0771099 -0.0093254
v 0.0178526 0.0763370 -0.0101475
v 0.1509471 0.0558609 -0.0101475
v 0.1539649 0.0557202 -0.0093254
v 0.1566615 0.0559261 -0.0077478
v 0.1588184 0.0564622 -0.0055426
v 0.1602609 0.0572848 -0.0028883
vn -0.9883717 0.1520572 -0.0000000
vn -0.9348178 0.1904724 -0.2997266
vn -0.8080104 0.2099940 -0.5504741
vn -0.6182444 0.2128850 -0.7566067
vn -0.3809372 0.1991476 -0.9028993
vn -0.1146047 0.1699816 -0.9787605
vn 0.1603978 0.1276735 -0.9787605
vn 0.4231810 0.0754371 -0.9028993
vn 0.6536437 0.0172099 -0.7566067
vn 0.8337653 -0.0425869 -0.5504741
vn 0.9488410 -0.0993213 -0.2997266
vn 0.9883717 -0.1520572 -0.0000000
vn -0.9129694 0.3324871 -0.2365149
vn -0.7678839 0.4708163 -0.4343804
vn -0.5630920 0.5713759 -0.5970401
vn -0.3151209 0.6269539 -0.7124799
vn -0.0432584 0.6337320 -0.7723422
vn 0.2317440 0.5914240 -0.7723422
vn 0.4889974 0.5032434 -0.7124799
vn 0.7087961 0.3757009 -0.5970401
vn 0.8738919 0.2182355 -0.4343804
vn 0.9706894 0.0426934 -0.2365149
vn -0.8988540 0.4242371 -0.1099293
vn -0.7419597 0.6393233 -0.2018948
vn -0.5274602 0.8029826 -0.2774971
vn -0.2725995 0.9033425 -0.3311521
vn 0.0028355 0.9333427 -0.3589754
vn 0.2778379 0.8910347 -0.3589754
vn 0.5315187 0.7796320 -0.3311521
vn 0.7444279 0.6073075 -0.2774971
vn 0.8998160 0.3867424 -0.2018948
vn 0.9848048 0.1344434 -0.1099293
vn -0.8962538 0.4411381 0.0461118
vn -0.7371843 0.6703634 0.0846883
vn -0.5208966 0.8456462 0.1164010
vn -0.2647668 0.9542553 0.1389076
vn 0.0113263 0.9885332 0.1505785
vn 0.2863288 0.9462251 0.1505785
vn 0.5393514 0.8305448 0.1389076
vn 0.7509915 0.6499711 0.1164010
vn 0.9045914 0.4177826 0.0846883
vn 0.9874050 0.1513444 0.0461118
vn -0.9058656 0.3786615 0.1897973
vn -0.7548372 0.5556197 0.3485793
vn -0.5451598 0.6879351 0.4791096
vn -0.2937214 0.7660502 0.5717471
vn -0.0200610 0.7845152 0.6197851
vn 0.2549414 0.7422071 0.6197851
vn 0.5103968 0.6423397 0.5717471
vn 0.7267283 0.4922600 0.4791096
vn 0.8869385 0.3030388 0.3485793
vn 0.9777932 0.0888678 0.1897973
vn -0.9251138 0.2535479 0.2826267
vn -0.7901883 0.3258376 0.5190687
vn -0.5937486 0.3721078 0.7134412
vn -0.3517051 0.3891567 0.8513875
vn -0.0829164 0.3759552 0.9229207
vn 0.1920860 0.3336471 0.9229207
vn 0.4524132 0.2654461 0.8513875
vn 0.6781395 0.1764328 0.7134412
vn 0.8515874 0.0732567 0.5190687
vn 0.9585449 -0.0362458 0.2826267
vn -0.9488410 0.0993213 0.2997266
vn -0.8337653 0.0425869 0.5504741
vn -0.6536437 -0.0172099 0.7566067
vn -0.4231810 -0.0754371 0.9028993
vn -0.1603978 -0.1276735 0.9787605
vn 0.1146047 -0.1699816 0.9787605
vn 0.3809372 -0.1991476 0.9028993
vn 0.6182444 -0.2128850 0.7566067
vn 0.8080104 -0.2099940 0.5504741
vn 0.9348178 -0.1904724 0.2997266
vn -0.9706894 -0.0426934 0.2365149
vn -0.8738919 -0.2182355 0.4343804
vn -0.7087961 -0.3757009 0.5970401
vn -0.4889974 -0.5032434 0.7124799
vn -0.2317440 -0.5914240 0.7723422
vn 0.0432584 -0.6337320 0.7723422
vn 0.3151209 -0.6269539 0.7124799
vn 0.5630920 -0.5713759 0.5970401
vn 0.7678839 -0.4708163 0.4343804
vn 0.9129694 -0.3324871 0.2365149
vn -0.9848048 -0.1344434 0.1099293
vn -0.8998160 -0.3867424 0.2018948
vn -0.7444279 -0.6073075 0.2774971
vn -0.5315187 -0.7796320 0.3311521
vn -0.2778379 -0.8910347 0.3589754
vn -0.0028355 -0.9333427 0.3589754
vn 0.2725995 -0.9033425 0.3311521
vn 0.5274602 -0.8029826 0.2774971
vn 0.7419597 -0.6393233 0.2018948
vn 0.8988540 -0.4242371 0.1099293
vn -0.9874050 -0.1513444 -0.0461118
vn -0.9045914 -0.4177826 -0.0846883
vn -0.7509915 -0.6499711 -0.1164010
vn -0.5393514 -0.8305448 -0.1389076
vn -0.2863288 -0.9462251 -0.1505785
vn -0.0113263 -0.9885332 -0.1505785
vn 0.2647668 -0.9542553 -0.1389076
vn 0.5208966 -0.8456462 -0.1164010
vn 0.7371843 -0.6703634 -0.0846883
vn 0.8962538 -0.4411381 -0.0461118
vn -0.9777932 -0.0888678 -0.1897973
vn -0.8869385 -0.3030388 -0.3485793
vn -0.7267283 -0.4922600 -0.4791096
vn -0.5103968 -0.6423397 -0.5717471
vn -0.2549414 -0.7422071 -0.6197851
vn 0.0200610 -0.7845152 -0.6197851
vn 0.2937214 -0.7660502 -0.5717471
vn 0.5451598 -0.6879351 -0.4791096
vn 0.7548372 -0.5556197 -0.3485793
vn 0.9058656 -0.3786615 -0.1897973
vn -0.9585449 0.0362458 -0.2826267
vn -0.8515874 -0.0732567 -0.5190687
vn -0.6781395 -0.1764328 -0.7134412
vn -0.4524132 -0.2654461 -0.8513875
vn -0.1920860 -0.3336471 -0.9229207
vn 0.0829164 -0.3759552 -0.9229207
vn 0.3517051 -0.3891567 -0.8513875
vn 0.5937486 -0.3721078 -0.7134412
vn 0.7901883 -0.3258376 -0.5190687
vn 0.9251138 -0.2535479 -0.2826267
f 2//2 1//1 13//13
f 2//2 13//13 3//3
f 3//3 13//13 14//14
f 3//3 14//14 4//4
f 4//4 14//14 15//15
f 4//4 15//15 5//5
f 5//5 15//15 16//16
f 5//5 16//16 6//6
f 6//6 16//16 17//17
f 6//6 17//17 7//7
f 7//7 17//17 18//18
f 7//7 18//18 8//8
f 8//8 18//18 19//19
f 8//8 19//19 9//9
f 9//9 19//19 20//20
f 9//9 20//20 10//10
f 10//10 20//20 21//21
f 10//10 21//21 11//11
f 11//11 21//21 22//22
f 11//11 22//22 12//12
f 13//13 1//1 23//23
f 13//13 23//23 14//14
f 14//14 23//23 24//24
f 14//14 24//24 15//15
f 15//15 24//24 25//25
f 15//15 25//25 16//16
f 16//16 25//25 26//26
f 16//16 26//26 17//17
f 17//17 26//26 27//27
f 17//17 27//27 18//18
f 18//18 27//27 28//28
f 18//18 28//28 19//19
f 19//19 28//28 29//29
f 19//19 29//29 20//20
f 20//20 29//29 30//30
f 20//20 30//30 21//21
f 21//21 30//30 31//31
f 21//21 31//31 22//22
f 22//22 31//31 32//32
f 22//22 32//32 12//12
f 23//23 1//1 33//33
f 23//23 33//33 24//24
f 24//24 33//33 34//34
f 24//24 34//34 25//25
f 25//25 34//34 35//35
f 25//25 35//35 26//26
f 26//26 35//35 36//36
f 26//26 36//36 27//27
f 27//27 36//36 37//37
f 27//27 37//37 28//28
f 28//28 37//37 38//38
f 28//28 38//38 29//29
f 29//29 38//38 39//39
f 29//29 39//39 30//30
f 30//30 39//39 40//40
f 30//30 40//40 31//31
f 31//31 40//40 41//41
f 31//31 41//41 32//32
f 32//32 41//41 42//42
f 32//32 42//42 12//12
f 33//33 1//1 43//43
f 33//33 43//43 34//34
f 34//34 43//43 44//44
f 34//34 44//44 35//35
f 35//35 44//44 45//45
f 35//35 45//45 36//36
f 36//36 45//45 46//46
f 36//36 46//46 37//37
f 37//37 46//46 47//47
f 37//37 47//47 38//38
f 38//38 47//47 48//48
f 38//38 48//48 39//39
f 39//39 48//48 49//49
f 39//39 49//49 40//40
f 40//40 49//49 50//50
f 40//40 50//50 41//41
f 41//41 50//50 51//51
f 41//41 51//51 42//42
f 42//42 51//51 52//52
f 42//42 52//52 12//12
f 43//43 1//1 53//53
f 43//43 53//53 44//44
f 44//44 53//53 54//54
f 44//44 54//54 45//45
f 45//45 54//54 55//55
f 45//45 55//55 46//46
f 46//46 55//55 56//56
f 46//46 56//56 47//47
f 47//47 56//56 57//57
f 47//47 57//57 48//48
f 48//48 57//57 58//58
f 48//48 58//58 49//49
f 49//49 58//58 59//59
f 49//49 59//59 50//50
f 50//50 59//59 60//60
f 50//50 60//60 51//51
f 51//51 60//60 61//61
f 51//51 61//61 52//52
f 52//52 61//61 62//62
f 52//52 62//62 12//12
f 53//53 1//1 63//63
f 53//53 63//63 54//54
f 54//54 63//63 64//64
f 54//54 64//64 55//55
f 55//55 64//64 65//65
f 55//55 65//65 56//56
f 56//56 65//65 66//66
f 56//56 66//66 57//57
f 57//57 66//66 67//67
f 57//57 67//67 58//58
f 58//58 67//67 68//68
f 58//58 68//68 59//59
f 59//59 68//68 69//69
f 59//59 69//69 60//60
f 60//60 69//69 70//70
f 60//60 70//70 61//61
f 61//61 70//70 71//71
f 61//61 71//71 62//62
f 62//62 71//71 72//72
f 62//62 72//72 12//12
f 63//63 1//1 73//73
f 63//63 73//73 64//64
f 64//64 73//73 74//74
f 64//64 74//74 65//65
f 65//65 74//74 75//75
f 65//65 75//75 66//66
f 66//66 75//75 76//76
f 66//66 76//76 67//67
f 67//67 76//76 77//77
f 67//67 77//77 68//68
f 68//68 77//77 78//78
f 68//68 78//78 69//69
f 69//69 78//78 79//79
f 69//69 79//79 70//70
f 70//70 79//79 80//80
f 70//70 80//80 71//71
f 71//71 80//80 81//81
f 71//71 81//81 72//72
f 72//72 81//81 82//82
f 72//72 82//82 12//12
f 73//73 1//1 83//83
f 73//73 83//83 74//74
f 74//74 83//83 84//84
f 74//74 84//84 75//75
f 75//75 84//84 85//85
f 75//75 85//85 76//76
f 76//76 85//85 86//86
f 76//76 86//86 77//77
f 77//77 86//86 87//87
f 77//77 87//87 78//78
f 78//78 87//87 88//88
f 78//78 88//88 79//79
f 79//79 88//88 89//89
f 79//79 89//89 80//80
f 80//80 89//89 90//90
f 80//80 90//90 81//81
f 81//81 90//90 91//91
f 81//81 91//91 82//82
f 82//82 91//91 92//92
f 82//82 92//92 12//12
f 83//83 1//1 93//93
f 83//83 93//93 84//84
f 84//84 93//93 94//94
f 84//84 94//94 85//85
f 85//85 94//94 95//95
f 85//85 95//95 86//86
f 86//86 95//95 96//96
f 86//86 96//96 87//87
f 87//87 96//96 97//97
f 87//87 97//97 88//88
f 88//88 97//97 98//98
f 88//88 98//98 89//89
f 89//89 98//98 99//99
f 89//89 99//99 90//90
f 90//90 99//99 100//100
f 90//90 100//100 91//91
f 91//91 100//100 101//101
f 91//91 101//101 92//92
f 92//92 101//101 102//102
f 92//92 102//102 12//12
f 93//93 1//1 103//103
f 93//93 103//103 94//94
f 94//94 103//103 104//104
f 94//94 104//104 95//95
f 95//95 104//104 105//105
f 95//95 105//105 96//96
f 96//96 105//105 106//106
f 96//96 106//106 97//97
f 97//97 106//106 107//107
f 97//97 107//107 98//98
f 98//98 107//107 108//108
f 98//98 108//108 99//99
f 99//99 108//108 109//109
f 99//99 109//109 100//100
f 100//100 109//109 110//110
f 100//100 110//110 101//101
f 101//101 110//110 111//111
f 101//101 111//111 102//102
f 102//102 111//111 112//112
f 102//102 112//112 12//12
f 103//103 1//1 113//113
f 103//103 113//113 104//104
f 104//104 113//113 114//114
f 104//104 114//114 105//105
f 105//105 114//114 115//115
f 105//105 115//115 106//106
f 106//106 115//115 116//116
f 106//106 116//116 107//107
f 107//107 116//116 117//117
f 107//107 117//117 108//108
f 108//108 117//117 118//118
f 108//108 118//118 109//109
f 109//109 118//118 119//119
f 109//109 119//119 110//110
f 110//110 119//119 120//120
f 110//110 120//120 111//111
f 111//111 120//120 121//121
f 111//111 121//121 112//112
f 112//112 121//121 122//122
f 112//112 122//122 12//12
f 113//113 1//1 2//2
f 113//113 2//2 114//114
f 114//114 2//2 3//3
f 114//114 3//3 115//115
f 115//115 3//3 4//4
f 115//115 4//4 116//116
f 116//116 4//4 5//5
f 116//116 5//5 117//117
f 117//117 5//5 6//6
f 117//117 6//6 118//118
f 118//118 6//6 7//7
f 118//118 7//7 119//119
f 119//119 7//7 8//8
f 119//119 8//8 120//120
f 120//120 8//8 9//9
f 120//120 9//9 121//121
f 121//121 9//9 10//10
f 121//121 10//10 122//122
f 122//122 10//10 11//11
f 122//122 11//11 12//12

