# https://github.com/mikedh/trimesh
v 0.0352755 1.1920095 -0.0397245
v 0.0375155 1.1924135 -0.0396580
v 0.0395516 1.1934321 -0.0396192
v 0.0412190 1.1949827 -0.0396113
v 0.0423826 1.1969399 -0.0396349
v 0.0429481 1.1991450 -0.0396881
v 0.0328696 1.4914193 -0.0497665
v 0.0321537 1.4935786 -0.0498638
v 0.0308581 1.4954481 -0.0499722
v 0.0290880 1.4968761 -0.0500828
v 0.0269867 1.4977471 -0.0501867
v 0.0247245 1.4979905 -0.0502755
v 0.0372540 1.1923653 -0.0407940
v 0.0390499 1.1933396 -0.0417992
v 0.0405177 1.1948535 -0.0426586
v 0.0415385 1.1967843 -0.0433027
v 0.0420295 1.1989757 -0.0436792
v 0.0319511 1.4912500 -0.0537576
v 0.0313095 1.4934231 -0.0535316
v 0.0301568 1.4953188 -0.0530195
v 0.0285863 1.4967837 -0.0522628
v 0.0267253 1.4976989 -0.0513227
v 0.0364595 1.1923085 -0.0416464
v 0.0375252 1.1932306 -0.0434349
v 0.0383863 1.1947011 -0.0449452
v 0.0389731 1.1966009 -0.0460549
v 0.0392380 1.1987761 -0.0466740
v 0.0291595 1.4910505 -0.0567524
v 0.0287441 1.4932397 -0.0562838
v 0.0280254 1.4951665 -0.0553061
v 0.0270616 1.4966747 -0.0538985
v 0.0259307 1.4976422 -0.0521751
v 0.0353447 1.1922583 -0.0419868
v 0.0353859 1.1931343 -0.0440882
v 0.0353958 1.1945665 -0.0458584
v 0.0353737 1.1964389 -0.0471540
v 0.0353213 1.1985998 -0.0478700
v 0.0252429 1.4908742 -0.0579484
v 0.0251448 1.4930777 -0.0573829
v 0.0250350 1.4950319 -0.0562193
v 0.0249223 1.4965784 -0.0545518
v 0.0248159 1.4975920 -0.0525156
v 0.0342084 1.1922282 -0.0417240
v 0.0332053 1.1930765 -0.0435839
v 0.0323477 1.1944857 -0.0451535
v 0.0317049 1.1963417 -0.0463055
v 0.0313291 1.1984940 -0.0469467
v 0.0212507 1.4907683 -0.0570251
v 0.0214760 1.4929804 -0.0565344
v 0.0219868 1.4949511 -0.0555143
v 0.0227417 1.4965206 -0.0540475
v 0.0236796 1.4975619 -0.0522528
v 0.0333550 1.1922262 -0.0409284
v 0.0315678 1.1930727 -0.0420572
v 0.0300586 1.1944804 -0.0430193
v 0.0289497 1.1963352 -0.0437368
v 0.0283310 1.1984870 -0.0441516
v 0.0182526 1.4907613 -0.0542300
v 0.0187208 1.4929740 -0.0539657
v 0.0196977 1.4949457 -0.0533802
v 0.0211042 1.4965168 -0.0525208
v 0.0228263 1.4975599 -0.0514572
v 0.0330133 1.1922529 -0.0398133
v 0.0309120 1.1931239 -0.0399172
v 0.0291419 1.1945519 -0.0400278
v 0.0278463 1.1964214 -0.0401362
v 0.0271304 1.1985807 -0.0402335
v 0.0170519 1.4908550 -0.0503119
v 0.0176174 1.4930601 -0.0503651
v 0.0187810 1.4950173 -0.0503887
v 0.0204484 1.4965679 -0.0503808
v 0.0224845 1.4975865 -0.0503420
v 0.0332747 1.1923011 -0.0386773
v 0.0314137 1.1932163 -0.0377372
v 0.0298432 1.1946812 -0.0369805
v 0.0286905 1.1965769 -0.0364684
v 0.0280489 1.1987500 -0.0362424
v 0.0179705 1.4910243 -0.0463208
v 0.0184615 1.4932157 -0.0466973
v 0.0194823 1.4951465 -0.0473414
v 0.0209501 1.4966604 -0.0482008
v 0.0227460 1.4976347 -0.0492060
v 0.0340693 1.1923578 -0.0378249
v 0.0329384 1.1933253 -0.0361015
v 0.0319746 1.1948335 -0.0346939
v 0.0312559 1.1967603 -0.0337162
v 0.0308405 1.1989495 -0.0332476
v 0.0207620 1.4912239 -0.0433260
v 0.0210269 1.4933991 -0.0439451
v 0.0216137 1.4952989 -0.0450548
v 0.0224748 1.4967694 -0.0465651
v 0.0235405 1.4976915 -0.0483536
v 0.0351841 1.1924080 -0.0374844
v 0.0350777 1.1934216 -0.0354482
v 0.0349650 1.1949681 -0.0337807
v 0.0348552 1.1969223 -0.0326171
v 0.0347571 1.1991258 -0.0320516
v 0.0246787 1.4914002 -0.0421300
v 0.0246263 1.4935611 -0.0428460
v 0.0246042 1.4954335 -0.0441416
v 0.0246141 1.4968657 -0.0459118
v 0.0246553 1.4977417 -0.0480132
v 0.0363204 1.1924381 -0.0377472
v 0.0372583 1.1934794 -0.0359525
v 0.0380132 1.1950489 -0.0344857
v 0.0385240 1.1970196 -0.0334656
v 0.0387493 1.1992317 -0.0329749
v 0.0286709 1.4915060 -0.0430533
v 0.0282951 1.4936583 -0.0436945
v 0.0276523 1.4955143 -0.0448465
v 0.0267947 1.4969235 -0.0464161
v 0.0257916 1.4977718 -0.0482760
v 0.0371737 1.1924401 -0.0385428
v 0.0388958 1.1934832 -0.0374792
v 0.0403023 1.1950543 -0.0366198
v 0.0412792 1.1970260 -0.0360343
v 0.0417474 1.1992387 -0.0357700
v 0.0316690 1.4915130 -0.0458484
v 0.0310503 1.4936648 -0.0462632
v 0.0299414 1.4955196 -0.0469807
v 0.0284322 1.4969273 -0.0479428
v 0.0266450 1.4977738 -0.0490716
vn 0.0344418 -0.9988131 0.0344418
vn 0.3357003 -0.9409748 0.0432646
vn 0.5848717 -0.8097168 0.0477879
vn 0.7867286 -0.6153887 0.0485263
vn 0.9264102 -0.3737596 0.0454739
vn 0.9938506 -0.1036722 0.0388984
vn 0.9842676 0.1742354 0.0293154
vn 0.8983891 0.4388536 0.0174528
vn 0.7424071 0.6699359 0.0042047
vn 0.5276607 0.8494029 -0.0094231
vn 0.2700604 0.9625834 -0.0223754
vn -0.0344418 0.9988131 -0.0344418
vn 0.3005242 -0.9474583 -0.1095812
vn 0.5202677 -0.8216244 -0.2329267
vn 0.6979327 -0.6317552 -0.3373059
vn 0.8204454 -0.3932906 -0.4149602
vn 0.8789826 -0.1248442 -0.4602212
vn 0.8693996 0.1530634 -0.4698042
vn 0.7924242 0.4193226 -0.4429813
vn 0.6536112 0.6535694 -0.3816274
vn 0.4630567 0.8374954 -0.2901378
vn 0.2348842 0.9560999 -0.1752212
vn 0.1936169 -0.9550995 -0.2242707
vn 0.3239232 -0.8356582 -0.4435640
vn 0.4280643 -0.6510442 -0.6268192
vn 0.4983969 -0.4163092 -0.7604519
vn 0.5298758 -0.1497968 -0.8347410
vn 0.5202928 0.1281108 -0.8443240
vn 0.4703758 0.3963039 -0.7884731
vn 0.3837428 0.6342803 -0.6711408
vn 0.2667122 0.8234616 -0.5007751
vn 0.1279770 0.9484586 -0.2899107
vn 0.0436243 -0.9618511 -0.2700730
vn 0.0484486 -0.8480580 -0.5276839
vn 0.0494343 -0.6680873 -0.7424389
vn 0.0465576 -0.4366476 -0.8984271
vn 0.0400731 -0.1718441 -0.9843088
vn 0.0304901 0.1060635 -0.9938918
vn 0.0185364 0.3759655 -0.9264482
vn 0.0051128 0.6172373 -0.7867605
vn -0.0087625 0.8110617 -0.5848949
vn -0.0220157 0.9417070 -0.3357129
vn -0.1092634 -0.9659038 -0.2347153
vn -0.2323430 -0.8555013 -0.4627464
vn -0.3365036 -0.6783178 -0.6531847
vn -0.4140027 -0.4488562 -0.7919153
vn -0.4591833 -0.1850784 -0.8688479
vn -0.4687663 0.0928292 -0.8784309
vn -0.4420239 0.3637569 -0.8199365
vn -0.3808251 0.6070068 -0.6975063
vn -0.2895540 0.8036185 -0.5199575
vn -0.1749033 0.9376543 -0.3003552
vn -0.2240799 -0.9661719 -0.1276718
vn -0.4432136 -0.8559936 -0.2661516
vn -0.6263376 -0.6789944 -0.3829723
vn -0.7598772 -0.4496636 -0.4694563
vn -0.8341180 -0.1859537 -0.5192961
vn -0.8437010 0.0919539 -0.5288791
vn -0.7878984 0.3629495 -0.4974775
vn -0.6706592 0.6063302 -0.4272938
vn -0.5004247 0.8031262 -0.3233627
vn -0.2897199 0.9373862 -0.1933117
vn -0.2700604 -0.9625834 0.0223754
vn -0.5276607 -0.8494029 0.0094231
vn -0.7424071 -0.6699359 -0.0042047
vn -0.8983891 -0.4388536 -0.0174528
vn -0.9842676 -0.1742354 -0.0293154
vn -0.9938506 0.1036722 -0.0388984
vn -0.9264102 0.3737596 -0.0454739
vn -0.7867286 0.6153887 -0.0485263
vn -0.5848717 0.8097168 -0.0477879
vn -0.3357003 0.9409748 -0.0432646
vn -0.2348842 -0.9560999 0.1752212
vn -0.4630567 -0.8374954 0.2901378
vn -0.6536112 -0.6535694 0.3816274
vn -0.7924242 -0.4193226 0.4429813
vn -0.8693996 -0.1530634 0.4698042
vn -0.8789826 0.1248442 0.4602212
vn -0.8204454 0.3932906 0.4149602
vn -0.6979327 0.6317552 0.3373059
vn -0.5202677 0.8216244 0.2329267
vn -0.3005242 0.9474583 0.1095812
vn -0.1279770 -0.9484586 0.2899107
vn -0.2667122 -0.8234616 0.5007751
vn -0.3837428 -0.6342803 0.6711408
vn -0.4703758 -0.3963039 0.7884731
vn -0.5202928 -0.1281108 0.8443240
vn -0.5298758 0.1497968 0.8347410
vn -0.4983969 0.4163092 0.7604519
vn -0.4280643 0.6510442 0.6268192
vn -0.3239232 0.8356582 0.4435640
vn -0.1936169 0.9550995 0.2242707
vn 0.0220157 -0.9417070 0.3357129
vn 0.0087625 -0.8110617 0.5848949
vn -0.0051128 -0.6172373 0.7867605
vn -0.0185364 -0.3759655 0.9264482
vn -0.0304901 -0.1060635 0.9938918
vn -0.0400731 0.1718441 0.9843088
vn -0.0465576 0.4366476 0.8984271
vn -0.0494343 0.6680873 0.7424389
vn -0.0484486 0.8480580 0.5276839
vn -0.0436243 0.9618511 0.2700730
vn 0.1749033 -0.9376543 0.3003552
vn 0.2895540 -0.8036185 0.5199575
vn 0.3808251 -0.6070068 0.6975063
vn 0.4420239 -0.3637569 0.8199365
vn 0.4687663 -0.0928292 0.8784309
vn 0.4591833 0.1850784 0.8688479
vn 0.4140027 0.4488562 0.7919153
vn 0.3365036 0.6783178 0.6531847
vn 0.2323430 0.8555013 0.4627464
vn 0.1092634 0.9659038 0.2347153
vn 0.2897199 -0.9373862 0.1933117
vn 0.5004247 -0.8031262 0.3233627
vn 0.6706592 -0.6063302 0.4272938
vn 0.7878984 -0.3629495 0.4974775
vn 0.8437010 -0.0919539 0.5288791
vn 0.8341180 0.1859537 0.5192961
vn 0.7598772 0.4496636 0.4694563
vn 0.6263376 0.6789944 0.3829723
vn 0.4432136 0.8559936 0.2661516
vn 0.2240799 0.9661719 0.1276718
f 2//2 1//1 13//13
f 2//2 13//13 3//3
f 3//3 13//13 14//14
f 3//3 14//14 4//4
f 4//4 14//14 15//15
f 4//4 15//15 5//5
f 5//5 15//15 16//16
f 5//5 16//16 6//6
f 6//6 16//16 17//17
f 6//6 17//17 7//7
f 7//7 17//17 18//18
f 7//7 18//18 8//8
f 8//8 18//18 19//19
f 8//8 19//19 9//9
f 9//9 19//19 20//20
f 9//9 20//20 10//10
f 10//10 20//20 21//21
f 10//10 21//21 11//11
f 11//11 21//21 22//22
f 11//11 22//22 12//12
f 13//13 1//1 23//23
f 13//13 23//23 14//14
f 14//14 23//23 24//24
f 14//14 24//24 15//15
f 15//15 24//24 25//25
f 15//15 25//25 16//16
f 16//16 25//25 26//26
f 16//16 26//26 17//17
f 17//17 26//26 27//27
f 17//17 27//27 18//18
f 18//18 27//27 28//28
f 18//18 28//28 19//19
f 19//19 28//28 29//29
f 19//19 29//29 20//20
f 20//20 29//29 30//30
f 20//20 30//30 21//21
f 21//21 30//30 31//31
f 21//21 31//31 22//22
f 22//22 31//31 32//32
f 22//22 32//32 12//12
f 23//23 1//1 33//33
f 23//23 33//33 24//24
f 24//24 33//33 34//34
f 24//24 34//34 25//25
f 25//25 34//34 35//35
f 25//25 35//35 26//26
f 26//26 35//35 36//36
f 26//26 36//36 27//27
f 27//27 36//36 37//37
f 27//27 37//37 28//28
f 28//28 37//37 38//38
f 28//28 38//38 29//29
f 29//29 38//38 39//39
f 29//29 39//39 30//30
f 30//30 39//39 40//40
f 30//30 40//40 31//31
f 31//31 40//40 41//41
f 31//31 41//41 32//32
f 32//32 41//41 42//42
f 32//32 42//42 12//12
f 33//33 1//1 43//43
f 33//33 43//43 34//34
f 34//34 43//43 44//44
f 34//34 44//44 35//35
f 35//35 44//44 45//45
f 35//35 45//45 36//36
f 36//36 45//45 46//46
f 36//36 46//46 37//37
f 37//37 46//46 47//47
f 37//37 47//47 38//38
f 38//38 47//47 48//48
f 38//38 48//48 39//39
f 39//39 48//48 49//49
f 39//39 49//49 40//40
f 40//40 49//49 50//50
f 40//40 50//50 41//41
f 41//41 50//50 51//51
f 41//41 51//51 42//42
f 42//42 51//51 52//52
f 42//42 52//52 12//12
f 43//43 1//1 53//53
f 43//43 53//53 44//44
f 44//44 53//53 54//54
f 44//44 54//54 45//45
f 45//45 54//54 55//55
f 45//45 55//55 46//46
f 46//46 55//55 56//56
f 46//46 56//56 47//47
f 47//47 56//56 57//57
f 47//47 57//57 48//48
f 48//48 57//57 58//58
f 48//48 58//58 49//49
f 49//49 58//58 59//59
f 49//49 59//59 50//50
f 50//50 59//59 60//60
f 50//50 60//60 51//51
f 51//51 60//60 61//61
f 51//51 61//61 52//52
f 52//52 61//61 62//62
f 52//52 62//62 12//12
f 53//53 1//1 63//63
f 53//53 63//63 54//54
f 54//54 63//63 64//64
f 54//54 64//64 55//55
f 55//55 64//64 65//65
f 55//55 65//65 56//56
f 56//56 65//65 66//66
f 56//56 66//66 57//57
f 57//57 66//66 67//67
f 57//57 67//67 58//58
f 58//58 67//67 68//68
f 58//58 68//68 59//59
f 59//59 68//68 69//69
f 59//59 69//69 60//60
f 60//60 69//69 70//70
f 60//60 70//70 61//61
f 61//61 70//70 71//71
f 61//61 71//71 62//62
f 62//62 71//71 72//72
f 62//62 72//72 12//12
f 63//63 1//1 73//73
f 63//63 73//73 64//64
f 64//64 73//73 74//74
f 64//64 74//74 65//65
f 65//65 74//74 75//75
f 65//65 75//75 66//66
f 66//66 75//75 76//76
f 66//66 76//76 67//67
f 67//67 76//76 77//77
f 67//67 77//77 68//68
f 68//68 77//77 78//78
f 68//68 78//78 69//69
f 69//69 78//78 79//79
f 69//69 79//79 70//70
f 70//70 79//79 80//80
f 70//70 80//80 71//71
f 71//71 80//80 81//81
f 71//71 81//81 72//72
f 72//72 81//81 82//82
f 72//72 82//82 12//12
f 73//73 1//1 83//83
f 73//73 83//83 74//74
f 74//74 83//83 84//84
f 74//74 84//84 75//75
f 75//75 84//84 85//85
f 75//75 85//85 76//76
f 76//76 85//85 86//86
f 76//76 86//86 77//77
f 77//77 86//86 87//87
f 77//77 87//87 78//78
f 78//78 87//87 88//88
f 78//78 88//88 79//79
f 79//79 88//88 89//89
f 79//79 89//89 80//80
f 80//80 89//89 90//90
f 80//80 90//90 81//81
f 81//81 90//90 91//91
f 81//81 91//91 82//82
f 82//82 91//91 92//92
f 82//82 92//92 12//12
f 83//83 1//1 93//93
f 83//83 93//93 84//84
f 84//84 93//93 94//94
f 84//84 94//94 85//85
f 85//85 94//94 95//95
f 85//85 95//95 86//86
f 86//86 95//95 96//96
f 86//86 96//96 87//87
f 87//87 96//96 97//97
f 87//87 97//97 88//88
f 88//88 97//97 98//98
f 88//88 98//98 89//89
f 89//89 98//98 99//99
f 89//89 99//99 90//90
f 90//90 99//99 100//100
f 90//90 100//100 91//91
f 91//91 100//100 101//101
f 91//91 101//101 92//92
f 92//92 101//101 102//102
f 92//92 102//102 12//12
f 93//93 1//1 103//103
f 93//93 103//103 94//94
f 94//94 103//103 104//104
f 94//94 104//104 95//95
f 95//95 104//104 105//105
f 95//95 105//105 96//96
f 96//96 105//105 106//106
f 96//96 106//106 97//97
f 97//97 106//106 107//107
f 97//97 107//107 98//98
f 98//98 107//107 108//108
f 98//98 108//108 99//99
f 99//99 108//108 109//109
f 99//99 109//109 100//100
f 100//100 109//109 110//110
f 100//100 110//110 101//101
f 101//101 110//110 111//111
f 101//101 111//111 102//102
f 102//102 111//111 112//112
f 102//102 112//112 12//12
f 103//103 1//1 113//113
f 103//103 113//113 104//104
f 104//104 113//113 114//114
f 104//104 114//114 105//105
f 105//105 114//114 115//115
f 105//105 115//115 106//106
f 106//106 115//115 116//116
f 106//106 116//116 107//107
f 107//107 116//116 117//117
f 107//107 117//117 108//108
f 108//108 117//117 118//118
f 108//108 118//118 109//109
f 109//109 118//118 119//119
f 109//109 119//119 110//110
f 110//110 119//119 120//120
f 110//110 120//120 111//111
f 111//111 120//120 121//121
f 111//111 121//121 112//112
f 112//112 121//121 122//122
f 112//112 122//122 12//12
f 113//113 1//1 2//2
f 113//113 2//2 114//114
f 114//114 2//2 3//3
f 114//114 3//3 115//115
f 115//115 3//3 4//4
f 115//115 4//4 116//116
f 116//116 4//4 5//5
f 116//116 5//5 117//117
f 117//117 5//5 6//6
f 117//117 6//6 118//118
f 118//118 6//6 7//7
f 118//118 7//7 119//119
f 119//119 7//7 8//8
f 119//119 8//8 120//120
f 120//120 8//8 9//9
f 120//120 9//9 121//121
f 121//121 9//9 10//10
f 121//121 10//10 122//122
f 122//122 10//10 11//11
f 122//122 11//11 12//12

