# https://github.com/mikedh/trimesh
v 0.0641553 1.4690106 0.1395053
v 0.0641437 1.4693636 0.1409563
v 0.0636323 1.4697933 0.1422920
v 0.0626828 1.4702479 0.1433513
v 0.0614098 1.4706726 0.1440063
v 0.0179667 1.4810162 0.1491781
v 0.0165276 1.4812372 0.1488459
v 0.0152661 1.4813090 0.1480499
v 0.0143343 1.4812229 0.1468860
v 0.0138447 1.4809894 0.1454947
v 0.0642704 1.4701310 0.1404860
v 0.0638705 1.4712355 0.1414081
v 0.0630037 1.4721910 0.1421604
v 0.0617747 1.4728822 0.1426520
v 0.0183315 1.4832258 0.1478238
v 0.0168484 1.4831804 0.1476550
v 0.0155042 1.4827513 0.1471660
v 0.0144610 1.4819903 0.1464157
v 0.0642575 1.4704932 0.1396525
v 0.0638461 1.4719163 0.1398416
v 0.0629709 1.4731083 0.1400498
v 0.0617373 1.4739253 0.1402520
v 0.0182942 1.4842689 0.1454238
v 0.0168156 1.4840976 0.1455445
v 0.0154798 1.4834321 0.1455995
v 0.0144481 1.4823526 0.1455822
v 0.0641097 1.4703120 0.1387742
v 0.0635685 1.4715757 0.1381909
v 0.0625968 1.4726494 0.1378258
v 0.0613120 1.4734035 0.1377229
v 0.0178688 1.4837471 0.1428947
v 0.0164415 1.4836387 0.1433204
v 0.0152022 1.4830915 0.1439487
v 0.0143003 1.4821714 0.1447039
v 0.0638837 1.4696565 0.1381865
v 0.0631437 1.4703437 0.1370864
v 0.0620245 1.4709895 0.1363377
v 0.0606611 1.4715160 0.1360308
v 0.0172180 1.4818596 0.1412026
v 0.0158692 1.4819789 0.1418324
v 0.0147774 1.4818595 0.1428443
v 0.0140743 1.4815158 0.1441162
v 0.0636657 1.4687771 0.1381140
v 0.0627339 1.4686910 0.1369501
v 0.0614724 1.4687628 0.1361541
v 0.0600333 1.4689838 0.1358219
v 0.0165902 1.4793274 0.1409937
v 0.0153172 1.4797521 0.1416487
v 0.0143677 1.4802067 0.1427080
v 0.0138563 1.4806364 0.1440437
v 0.0635390 1.4680097 0.1385843
v 0.0624958 1.4672487 0.1378340
v 0.0611516 1.4668196 0.1373450
v 0.0596685 1.4667742 0.1371762
v 0.0162253 1.4771178 0.1423480
v 0.0149963 1.4778090 0.1428396
v 0.0141295 1.4787645 0.1435919
v 0.0137296 1.4798690 0.1445140
v 0.0635519 1.4676474 0.1394178
v 0.0625202 1.4665679 0.1394005
v 0.0611844 1.4659024 0.1394555
v 0.0597058 1.4657311 0.1395762
v 0.0162627 1.4760747 0.1447480
v 0.0150291 1.4768917 0.1449502
v 0.0141539 1.4780837 0.1451584
v 0.0137425 1.4795068 0.1453475
v 0.0636997 1.4678286 0.1402961
v 0.0627978 1.4669085 0.1410513
v 0.0615585 1.4663613 0.1416796
v 0.0601312 1.4662529 0.1421053
v 0.0166880 1.4765965 0.1472771
v 0.0154032 1.4773506 0.1471742
v 0.0144315 1.4784243 0.1468091
v 0.0138903 1.4796880 0.1462258
v 0.0639257 1.4684842 0.1408838
v 0.0632226 1.4681405 0.1421557
v 0.0621308 1.4680211 0.1431676
v 0.0607820 1.4681404 0.1437974
v 0.0173389 1.4784840 0.1489692
v 0.0159755 1.4790105 0.1486623
v 0.0148563 1.4796563 0.1479136
v 0.0141163 1.4803435 0.1468135
vn 0.9663475 -0.2300827 -0.1150414
vn 0.9574766 -0.1394253 0.2525849
vn 0.8317571 -0.0403802 0.5536692
vn 0.6114216 0.0625477 0.7888291
vn 0.3226252 0.1578926 0.9332647
vn -0.0022137 0.2352352 0.9719360
vn -0.3273011 0.2860531 0.9005818
vn -0.6165316 0.3044504 0.7260845
vn -0.8365991 0.2877356 0.4661654
vn -0.9663475 0.2300827 0.1150414
vn 0.9895211 0.0546260 0.1336562
vn 0.8888132 0.3051332 0.3419136
vn 0.6867417 0.5186621 0.5092892
vn 0.4075660 0.6722668 0.6180189
vn 0.0827271 0.7496094 0.6566901
vn -0.2519810 0.7421675 0.6210419
vn -0.5594755 0.6499638 0.5143289
vn -0.8045546 0.4817868 0.3472367
vn 0.9862402 0.1462315 -0.0771148
vn 0.8829714 0.4682393 -0.0333698
vn 0.6790299 0.7339795 0.0138752
vn 0.3988691 0.9150868 0.0593253
vn 0.0740302 0.9924294 0.0979966
vn -0.2596928 0.9574849 0.1256279
vn -0.5653173 0.8130699 0.1390455
vn -0.8078356 0.5733924 0.1364656
vn 0.9488870 0.1004011 -0.2992209
vn 0.8164630 0.3866371 -0.4288355
vn 0.5912318 0.6262559 -0.5081815
vn 0.2998565 0.7936037 -0.5294141
vn -0.0249824 0.8709463 -0.4907428
vn -0.3474908 0.8497613 -0.3964288
vn -0.6318257 0.7314677 -0.2564202
vn -0.8451887 0.5275620 -0.0856405
vn 0.8917292 -0.0653595 -0.4478250
vn 0.7146921 0.0914959 -0.6934290
vn 0.4568834 0.2366381 -0.8574730
vn 0.1483476 0.3542198 -0.9233208
vn -0.1764912 0.4315623 -0.8846495
vn -0.4818393 0.4601435 -0.7457203
vn -0.7335966 0.4363265 -0.5210136
vn -0.9023465 0.3618014 -0.2342445
vn 0.8365991 -0.2877356 -0.4661654
vn 0.6165316 -0.3044504 -0.7260845
vn 0.3273011 -0.2860531 -0.9005818
vn 0.0022137 -0.2352352 -0.9719360
vn -0.3226252 -0.1578926 -0.9332647
vn -0.6114216 -0.0625477 -0.7888291
vn -0.8317571 0.0403802 -0.5536692
vn -0.9574766 0.1394253 -0.2525849
vn 0.8045546 -0.4817868 -0.3472367
vn 0.5594755 -0.6499638 -0.5143289
vn 0.2519810 -0.7421675 -0.6210419
vn -0.0827271 -0.7496094 -0.6566901
vn -0.4075660 -0.6722668 -0.6180189
vn -0.6867417 -0.5186621 -0.5092892
vn -0.8888132 -0.3051332 -0.3419136
vn -0.9895211 -0.0546260 -0.1336562
vn 0.8078356 -0.5733924 -0.1364656
vn 0.5653173 -0.8130699 -0.1390455
vn 0.2596928 -0.9574849 -0.1256279
vn -0.0740302 -0.9924294 -0.0979966
vn -0.3988691 -0.9150868 -0.0593253
vn -0.6790299 -0.7339795 -0.0138752
vn -0.8829714 -0.4682393 0.0333698
vn -0.9862402 -0.1462315 0.0771148
vn 0.8451887 -0.5275620 0.0856405
vn 0.6318257 -0.7314677 0.2564202
vn 0.3474908 -0.8497613 0.3964288
vn 0.0249824 -0.8709463 0.4907428
vn -0.2998565 -0.7936037 0.5294141
vn -0.5912318 -0.6262559 0.5081815
vn -0.8164630 -0.3866371 0.4288355
vn -0.9488870 -0.1004011 0.2992209
vn 0.9023465 -0.3618014 0.2342445
vn 0.7335966 -0.4363265 0.5210136
vn 0.4818393 -0.4601435 0.7457203
vn 0.1764912 -0.4315623 0.8846495
vn -0.1483476 -0.3542198 0.9233208
vn -0.4568834 -0.2366381 0.8574730
vn -0.7146921 -0.0914959 0.6934290
vn -0.8917292 0.0653595 0.4478250
f 2//2 1//1 11//11
f 2//2 11//11 3//3
f 3//3 11//11 12//12
f 3//3 12//12 4//4
f 4//4 12//12 13//13
f 4//4 13//13 5//5
f 5//5 13//13 14//14
f 5//5 14//14 6//6
f 6//6 14//14 15//15
f 6//6 15//15 7//7
f 7//7 15//15 16//16
f 7//7 16//16 8//8
f 8//8 16//16 17//17
f 8//8 17//17 9//9
f 9//9 17//17 18//18
f 9//9 18//18 10//10
f 11//11 1//1 19//19
f 11//11 19//19 12//12
f 12//12 19//19 20//20
f 12//12 20//20 13//13
f 13//13 20//20 21//21
f 13//13 21//21 14//14
f 14//14 21//21 22//22
f 14//14 22//22 15//15
f 15//15 22//22 23//23
f 15//15 23//23 16//16
f 16//16 23//23 24//24
f 16//16 24//24 17//17
f 17//17 24//24 25//25
f 17//17 25//25 18//18
f 18//18 25//25 26//26
f 18//18 26//26 10//10
f 19//19 1//1 27//27
f 19//19 27//27 20//20
f 20//20 27//27 28//28
f 20//20 28//28 21//21
f 21//21 28//28 29//29
f 21//21 29//29 22//22
f 22//22 29//29 30//30
f 22//22 30//30 23//23
f 23//23 30//30 31//31
f 23//23 31//31 24//24
f 24//24 31//31 32//32
f 24//24 32//32 25//25
f 25//25 32//32 33//33
f 25//25 33//33 26//26
f 26//26 33//33 34//34
f 26//26 34//34 10//10
f 27//27 1//1 35//35
f 27//27 35//35 28//28
f 28//28 35//35 36//36
f 28//28 36//36 29//29
f 29//29 36//36 37//37
f 29//29 37//37 30//30
f 30//30 37//37 38//38
f 30//30 38//38 31//31
f 31//31 38//38 39//39
f 31//31 39//39 32//32
f 32//32 39//39 40//40
f 32//32 40//40 33//33
f 33//33 40//40 41//41
f 33//33 41//41 34//34
f 34//34 41//41 42//42
f 34//34 42//42 10//10
f 35//35 1//1 43//43
f 35//35 43//43 36//36
f 36//36 43//43 44//44
f 36//36 44//44 37//37
f 37//37 44//44 45//45
f 37//37 45//45 38//38
f 38//38 45//45 46//46
f 38//38 46//46 39//39
f 39//39 46//46 47//47
f 39//39 47//47 40//40
f 40//40 47//47 48//48
f 40//40 48//48 41//41
f 41//41 48//48 49//49
f 41//41 49//49 42//42
f 42//42 49//49 50//50
f 42//42 50//50 10//10
f 43//43 1//1 51//51
f 43//43 51//51 44//44
f 44//44 51//51 52//52
f 44//44 52//52 45//45
f 45//45 52//52 53//53
f 45//45 53//53 46//46
f 46//46 53//53 54//54
f 46//46 54//54 47//47
f 47//47 54//54 55//55
f 47//47 55//55 48//48
f 48//48 55//55 56//56
f 48//48 56//56 49//49
f 49//49 56//56 57//57
f 49//49 57//57 50//50
f 50//50 57//57 58//58
f 50//50 58//58 10//10
f 51//51 1//1 59//59
f 51//51 59//59 52//52
f 52//52 59//59 60//60
f 52//52 60//60 53//53
f 53//53 60//60 61//61
f 53//53 61//61 54//54
f 54//54 61//61 62//62
f 54//54 62//62 55//55
f 55//55 62//62 63//63
f 55//55 63//63 56//56
f 56//56 63//63 64//64
f 56//56 64//64 57//57
f 57//57 64//64 65//65
f 57//57 65//65 58//58
f 58//58 65//65 66//66
f 58//58 66//66 10//10
f 59//59 1//1 67//67
f 59//59 67//67 60//60
f 60//60 67//67 68//68
f 60//60 68//68 61//61
f 61//61 68//68 69//69
f 61//61 69//69 62//62
f 62//62 69//69 70//70
f 62//62 70//70 63//63
f 63//63 70//70 71//71
f 63//63 71//71 64//64
f 64//64 71//71 72//72
f 64//64 72//72 65//65
f 65//65 72//72 73//73
f 65//65 73//73 66//66
f 66//66 73//73 74//74
f 66//66 74//74 10//10
f 67//67 1//1 75//75
f 67//67 75//75 68//68
f 68//68 75//75 76//76
f 68//68 76//76 69//69
f 69//69 76//76 77//77
f 69//69 77//77 70//70
f 70//70 77//77 78//78
f 70//70 78//78 71//71
f 71//71 78//78 79//79
f 71//71 79//79 72//72
f 72//72 79//79 80//80
f 72//72 80//80 73//73
f 73//73 80//80 81//81
f 73//73 81//81 74//74
f 74//74 81//81 82//82
f 74//74 82//82 10//10
f 75//75 1//1 2//2
f 75//75 2//2 76//76
f 76//76 2//2 3//3
f 76//76 3//3 77//77
f 77//77 3//3 4//4
f 77//77 4//4 78//78
f 78//78 4//4 5//5
f 78//78 5//5 79//79
f 79//79 5//5 6//6
f 79//79 6//6 80//80
f 80//80 6//6 7//7
f 80//80 7//7 81//81
f 81//81 7//7 8//8
f 81//81 8//8 82//82
f 82//82 8//8 9//9
f 82//82 9//9 10//10

