# https://github.com/mikedh/trimesh
v 0.0771458 1.5032187 0.0881224
v 0.0782322 1.5026422 0.0889696
v 0.0789287 1.5017470 0.0899410
v 0.0791513 1.5006411 0.0909195
v 0.0788733 1.4994579 0.0917872
v 0.0381280 1.4383400 0.1274393
v 0.0370055 1.4374224 0.1277971
v 0.0356411 1.4368157 0.1278176
v 0.0341994 1.4365930 0.1274983
v 0.0328542 1.4367813 0.1268776
v 0.0777752 1.5032425 0.0894765
v 0.0780699 1.5028753 0.0908937
v 0.0779943 1.5021612 0.0922031
v 0.0775575 1.5011865 0.0932468
v 0.0368123 1.4400686 0.1288988
v 0.0358485 1.4389425 0.1290807
v 0.0347823 1.4379439 0.1287703
v 0.0337424 1.4371933 0.1280052
v 0.0770284 1.5037596 0.0895094
v 0.0766664 1.5038471 0.0909556
v 0.0761033 1.5034705 0.0922865
v 0.0754072 1.5026754 0.0933417
v 0.0346620 1.4415575 0.1289937
v 0.0339575 1.4402518 0.1291641
v 0.0333788 1.4389157 0.1288322
v 0.0329956 1.4377104 0.1280381
v 0.0762770 1.5039960 0.0890558
v 0.0752542 1.5042912 0.0901031
v 0.0742008 1.5040689 0.0911380
v 0.0732437 1.5033558 0.0920356
v 0.0324985 1.4422380 0.1276877
v 0.0320550 1.4408502 0.1280156
v 0.0319667 1.4393599 0.1279798
v 0.0322442 1.4379468 0.1275845
v 0.0758081 1.5038613 0.0882890
v 0.0743729 1.5040381 0.0886619
v 0.0730133 1.5037279 0.0891962
v 0.0718934 1.5029680 0.0898275
v 0.0311481 1.4418502 0.1254796
v 0.0308675 1.4405091 0.1260738
v 0.0310853 1.4391067 0.1265385
v 0.0317753 1.4378121 0.1268177
v 0.0758006 1.5034070 0.0875017
v 0.0743589 1.5031843 0.0871824
v 0.0729945 1.5025776 0.0872029
v 0.0718720 1.5016600 0.0875607
v 0.0311267 1.4405421 0.1232128
v 0.0308487 1.4393589 0.1240805
v 0.0310713 1.4382530 0.1250590
v 0.0317678 1.4373578 0.1260304
v 0.0762576 1.5028067 0.0869948
v 0.0752177 1.5020561 0.0862297
v 0.0741515 1.5010575 0.0859193
v 0.0731877 1.4999314 0.0861012
v 0.0324425 1.4388135 0.1217532
v 0.0320057 1.4378388 0.1227969
v 0.0319301 1.4371247 0.1241063
v 0.0322248 1.4367575 0.1255235
v 0.0770044 1.5022896 0.0869619
v 0.0766212 1.5010843 0.0861678
v 0.0760425 1.4997482 0.0858359
v 0.0753380 1.4984425 0.0860063
v 0.0345928 1.4373246 0.1216583
v 0.0338967 1.4365295 0.1227135
v 0.0333336 1.4361529 0.1240444
v 0.0329716 1.4362404 0.1254906
v 0.0777558 1.5020532 0.0874155
v 0.0780333 1.5006401 0.0870202
v 0.0779450 1.4991498 0.0869844
v 0.0775015 1.4977620 0.0873123
v 0.0367563 1.4366442 0.1229644
v 0.0357992 1.4359311 0.1238620
v 0.0347458 1.4357088 0.1248969
v 0.0337230 1.4360040 0.1259442
v 0.0782247 1.5021879 0.0881823
v 0.0789147 1.5008933 0.0884615
v 0.0791325 1.4994909 0.0889262
v 0.0788519 1.4981498 0.0895204
v 0.0381066 1.4370320 0.1251725
v 0.0369867 1.4362721 0.1258038
v 0.0356271 1.4359619 0.1263381
v 0.0341919 1.4361387 0.1267110
vn 0.4990263 0.7485394 -0.4366480
vn 0.7706616 0.5981571 -0.2197472
vn 0.9213335 0.3887599 0.0032278
vn 0.9649828 0.1362913 0.2241270
vn 0.8987751 -0.1304985 0.4185373
vn 0.7310268 -0.3821210 0.5653171
vn 0.4802221 -0.5908498 0.6482926
vn 0.1734305 -0.7330946 0.6576429
vn -0.1558074 -0.7915464 0.5909132
vn -0.4990263 -0.7485394 0.4366480
vn 0.6551125 0.7499621 -0.0915660
vn 0.7155954 0.6590528 0.2314578
vn 0.6933866 0.4931067 0.5254149
vn 0.5924878 0.2718931 0.7583089
vn 0.4247395 0.0202707 0.9050887
vn 0.2086259 -0.2340344 0.9495805
vn -0.0323076 -0.4628017 0.8858729
vn -0.2713564 -0.6397413 0.7190944
vn 0.4662726 0.8807169 -0.0832320
vn 0.3793609 0.8918650 0.2462967
vn 0.2495214 0.8004436 0.5450037
vn 0.0919273 0.6184864 0.7803998
vn -0.0758210 0.3668640 0.9271796
vn -0.2352393 0.0733026 0.9691693
vn -0.3685420 -0.2299894 0.9007117
vn -0.4601964 -0.5089865 0.7274283
vn 0.2762722 0.9404775 -0.1979286
vn 0.0410602 0.9982703 0.0420764
vn -0.1970715 0.9409099 0.2754112
vn -0.4117092 0.7768946 0.4763721
vn -0.5794575 0.5252721 0.6231519
vn -0.6818322 0.2137689 0.6995768
vn -0.7068427 -0.1235841 0.6964915
vn -0.6501968 -0.4492260 0.6127317
vn 0.1576850 0.9064174 -0.3918456
vn -0.1700873 0.9376254 -0.3031978
vn -0.4758087 0.8608522 -0.1803874
vn -0.7260497 0.6866110 -0.0376460
vn -0.8937980 0.4349886 0.1091337
vn -0.9605694 0.1337111 0.2437782
vn -0.9179902 -0.1842290 0.3512173
vn -0.7687839 -0.4832861 0.4188148
vn 0.1558074 0.7915464 -0.5909132
vn -0.1734305 0.7330946 -0.6576429
vn -0.4802221 0.5908498 -0.6482926
vn -0.7310268 0.3821210 -0.5653171
vn -0.8987751 0.1304985 -0.4185373
vn -0.9649828 -0.1362913 -0.2241270
vn -0.9213335 -0.3887599 -0.0032278
vn -0.7706616 -0.5981571 0.2197472
vn 0.2713564 0.6397413 -0.7190944
vn 0.0323076 0.4628017 -0.8858729
vn -0.2086259 0.2340344 -0.9495805
vn -0.4247395 -0.0202707 -0.9050887
vn -0.5924878 -0.2718931 -0.7583089
vn -0.6933866 -0.4931067 -0.5254149
vn -0.7155954 -0.6590528 -0.2314578
vn -0.6551125 -0.7499621 0.0915660
vn 0.4601964 0.5089865 -0.7274283
vn 0.3685420 0.2299894 -0.9007117
vn 0.2352393 -0.0733026 -0.9691693
vn 0.0758210 -0.3668640 -0.9271796
vn -0.0919273 -0.6184864 -0.7803998
vn -0.2495214 -0.8004436 -0.5450037
vn -0.3793609 -0.8918650 -0.2462967
vn -0.4662726 -0.8807169 0.0832320
vn 0.6501968 0.4492260 -0.6127317
vn 0.7068427 0.1235841 -0.6964915
vn 0.6818322 -0.2137689 -0.6995768
vn 0.5794575 -0.5252721 -0.6231519
vn 0.4117092 -0.7768946 -0.4763721
vn 0.1970715 -0.9409099 -0.2754112
vn -0.0410602 -0.9982703 -0.0420764
vn -0.2762722 -0.9404775 0.1979286
vn 0.7687839 0.4832861 -0.4188148
vn 0.9179902 0.1842290 -0.3512173
vn 0.9605694 -0.1337111 -0.2437782
vn 0.8937980 -0.4349886 -0.1091337
vn 0.7260497 -0.6866110 0.0376460
vn 0.4758087 -0.8608522 0.1803874
vn 0.1700873 -0.9376254 0.3031978
vn -0.1576850 -0.9064174 0.3918456
f 2//2 1//1 11//11
f 2//2 11//11 3//3
f 3//3 11//11 12//12
f 3//3 12//12 4//4
f 4//4 12//12 13//13
f 4//4 13//13 5//5
f 5//5 13//13 14//14
f 5//5 14//14 6//6
f 6//6 14//14 15//15
f 6//6 15//15 7//7
f 7//7 15//15 16//16
f 7//7 16//16 8//8
f 8//8 16//16 17//17
f 8//8 17//17 9//9
f 9//9 17//17 18//18
f 9//9 18//18 10//10
f 11//11 1//1 19//19
f 11//11 19//19 12//12
f 12//12 19//19 20//20
f 12//12 20//20 13//13
f 13//13 20//20 21//21
f 13//13 21//21 14//14
f 14//14 21//21 22//22
f 14//14 22//22 15//15
f 15//15 22//22 23//23
f 15//15 23//23 16//16
f 16//16 23//23 24//24
f 16//16 24//24 17//17
f 17//17 24//24 25//25
f 17//17 25//25 18//18
f 18//18 25//25 26//26
f 18//18 26//26 10//10
f 19//19 1//1 27//27
f 19//19 27//27 20//20
f 20//20 27//27 28//28
f 20//20 28//28 21//21
f 21//21 28//28 29//29
f 21//21 29//29 22//22
f 22//22 29//29 30//30
f 22//22 30//30 23//23
f 23//23 30//30 31//31
f 23//23 31//31 24//24
f 24//24 31//31 32//32
f 24//24 32//32 25//25
f 25//25 32//32 33//33
f 25//25 33//33 26//26
f 26//26 33//33 34//34
f 26//26 34//34 10//10
f 27//27 1//1 35//35
f 27//27 35//35 28//28
f 28//28 35//35 36//36
f 28//28 36//36 29//29
f 29//29 36//36 37//37
f 29//29 37//37 30//30
f 30//30 37//37 38//38
f 30//30 38//38 31//31
f 31//31 38//38 39//39
f 31//31 39//39 32//32
f 32//32 39//39 40//40
f 32//32 40//40 33//33
f 33//33 40//40 41//41
f 33//33 41//41 34//34
f 34//34 41//41 42//42
f 34//34 42//42 10//10
f 35//35 1//1 43//43
f 35//35 43//43 36//36
f 36//36 43//43 44//44
f 36//36 44//44 37//37
f 37//37 44//44 45//45
f 37//37 45//45 38//38
f 38//38 45//45 46//46
f 38//38 46//46 39//39
f 39//39 46//46 47//47
f 39//39 47//47 40//40
f 40//40 47//47 48//48
f 40//40 48//48 41//41
f 41//41 48//48 49//49
f 41//41 49//49 42//42
f 42//42 49//49 50//50
f 42//42 50//50 10//10
f 43//43 1//1 51//51
f 43//43 51//51 44//44
f 44//44 51//51 52//52
f 44//44 52//52 45//45
f 45//45 52//52 53//53
f 45//45 53//53 46//46
f 46//46 53//53 54//54
f 46//46 54//54 47//47
f 47//47 54//54 55//55
f 47//47 55//55 48//48
f 48//48 55//55 56//56
f 48//48 56//56 49//49
f 49//49 56//56 57//57
f 49//49 57//57 50//50
f 50//50 57//57 58//58
f 50//50 58//58 10//10
f 51//51 1//1 59//59
f 51//51 59//59 52//52
f 52//52 59//59 60//60
f 52//52 60//60 53//53
f 53//53 60//60 61//61
f 53//53 61//61 54//54
f 54//54 61//61 62//62
f 54//54 62//62 55//55
f 55//55 62//62 63//63
f 55//55 63//63 56//56
f 56//56 63//63 64//64
f 56//56 64//64 57//57
f 57//57 64//64 65//65
f 57//57 65//65 58//58
f 58//58 65//65 66//66
f 58//58 66//66 10//10
f 59//59 1//1 67//67
f 59//59 67//67 60//60
f 60//60 67//67 68//68
f 60//60 68//68 61//61
f 61//61 68//68 69//69
f 61//61 69//69 62//62
f 62//62 69//69 70//70
f 62//62 70//70 63//63
f 63//63 70//70 71//71
f 63//63 71//71 64//64
f 64//64 71//71 72//72
f 64//64 72//72 65//65
f 65//65 72//72 73//73
f 65//65 73//73 66//66
f 66//66 73//73 74//74
f 66//66 74//74 10//10
f 67//67 1//1 75//75
f 67//67 75//75 68//68
f 68//68 75//75 76//76
f 68//68 76//76 69//69
f 69//69 76//76 77//77
f 69//69 77//77 70//70
f 70//70 77//77 78//78
f 70//70 78//78 71//71
f 71//71 78//78 79//79
f 71//71 79//79 72//72
f 72//72 79//79 80//80
f 72//72 80//80 73//73
f 73//73 80//80 81//81
f 73//73 81//81 74//74
f 74//74 81//81 82//82
f 74//74 82//82 10//10
f 75//75 1//1 2//2
f 75//75 2//2 76//76
f 76//76 2//2 3//3
f 76//76 3//3 77//77
f 77//77 3//3 4//4
f 77//77 4//4 78//78
f 78//78 4//4 5//5
f 78//78 5//5 79//79
f 79//79 5//5 6//6
f 79//79 6//6 80//80
f 80//80 6//6 7//7
f 80//80 7//7 81//81
f 81//81 7//7 8//8
f 81//81 8//8 82//82
f 82//82 8//8 9//9
f 82//82 9//9 10//10

