# https://github.com/mikedh/trimesh
v 0.1086406 -0.4660662 0.0350000
v 0.1126027 -0.4662494 0.0346170
v 0.1163540 -0.4675466 0.0342651
v 0.1195905 -0.4698528 0.0339726
v 0.1220501 -0.4729810 0.0337634
v 0.1235334 -0.4766778 0.0336544
v 0.2039203 -1.3006438 0.0336544
v 0.2031795 -1.3045576 0.0337634
v 0.2013710 -1.3081022 0.0339726
v 0.1986412 -1.3109904 0.0342651
v 0.1952114 -1.3129882 0.0346170
v 0.1913594 -1.3139338 0.0350000
v 0.1122699 -0.4662819 0.0366311
v 0.1157153 -0.4676089 0.0381301
v 0.1186976 -0.4699399 0.0393755
v 0.1209754 -0.4730858 0.0402664
v 0.1223639 -0.4767919 0.0407307
v 0.2027509 -1.3007579 0.0407307
v 0.2021048 -1.3046625 0.0402664
v 0.2004781 -1.3081893 0.0393755
v 0.1980025 -1.3110527 0.0381301
v 0.1948785 -1.3130207 0.0366311
v 0.1109793 -0.4664078 0.0382082
v 0.1132387 -0.4678506 0.0411565
v 0.1152357 -0.4702776 0.0436060
v 0.1168085 -0.4734923 0.0453583
v 0.1178297 -0.4772343 0.0462715
v 0.1982167 -1.3012002 0.0462715
v 0.1979379 -1.3050690 0.0453583
v 0.1970161 -1.3085271 0.0436060
v 0.1955259 -1.3112944 0.0411565
v 0.1935880 -1.3131466 0.0382082
v 0.1090768 -0.4665934 0.0389256
v 0.1095879 -0.4682067 0.0425332
v 0.1101323 -0.4707755 0.0455305
v 0.1106660 -0.4740916 0.0476747
v 0.1111457 -0.4778864 0.0487920
v 0.1915327 -1.3018523 0.0487920
v 0.1917954 -1.3056683 0.0476747
v 0.1919127 -1.3090250 0.0455305
v 0.1918751 -1.3116505 0.0425332
v 0.1916855 -1.3133322 0.0389256
v 0.1070722 -0.4667890 0.0385912
v 0.1057411 -0.4685820 0.0418914
v 0.1047549 -0.4713001 0.0446334
v 0.1041937 -0.4747230 0.0465949
v 0.1041029 -0.4785735 0.0476170
v 0.1844898 -1.3025394 0.0476170
v 0.1853232 -1.3062997 0.0465949
v 0.1865354 -1.3095496 0.0446334
v 0.1880283 -1.3120258 0.0418914
v 0.1896809 -1.3135278 0.0385912
v 0.1055026 -0.4669421 0.0372945
v 0.1027290 -0.4688759 0.0394031
v 0.1005445 -0.4717109 0.0411550
v 0.0991259 -0.4752175 0.0424082
v 0.0985883 -0.4791115 0.0430613
v 0.1789753 -1.3030775 0.0430613
v 0.1802554 -1.3067941 0.0424082
v 0.1823249 -1.3099604 0.0411550
v 0.1850162 -1.3123197 0.0394031
v 0.1881113 -1.3136809 0.0372945
v 0.1047886 -0.4670118 0.0353830
v 0.1013588 -0.4690096 0.0357349
v 0.0986290 -0.4718978 0.0360274
v 0.0968205 -0.4754424 0.0362366
v 0.0960797 -0.4793562 0.0363456
v 0.1764666 -1.3033222 0.0363456
v 0.1779499 -1.3070190 0.0362366
v 0.1804095 -1.3101472 0.0360274
v 0.1836460 -1.3124534 0.0357349
v 0.1873973 -1.3137506 0.0353830
v 0.1051215 -0.4669793 0.0333689
v 0.1019975 -0.4689473 0.0318699
v 0.0995219 -0.4718107 0.0306245
v 0.0978952 -0.4753375 0.0297336
v 0.0972491 -0.4792421 0.0292693
v 0.1776361 -1.3032081 0.0292693
v 0.1790246 -1.3069142 0.0297336
v 0.1813024 -1.3100601 0.0306245
v 0.1842847 -1.3123911 0.0318699
v 0.1877301 -1.3137181 0.0333689
v 0.1064120 -0.4668534 0.0317918
v 0.1044741 -0.4687056 0.0288435
v 0.1029839 -0.4714729 0.0263940
v 0.1020621 -0.4749310 0.0246417
v 0.1017833 -0.4787998 0.0237285
v 0.1821703 -1.3027657 0.0237285
v 0.1831915 -1.3065077 0.0246417
v 0.1847643 -1.3097224 0.0263940
v 0.1867613 -1.3121494 0.0288435
v 0.1890207 -1.3135922 0.0317918
v 0.1083145 -0.4666678 0.0310744
v 0.1081249 -0.4683495 0.0274668
v 0.1080873 -0.4709750 0.0244695
v 0.1082046 -0.4743317 0.0223253
v 0.1084673 -0.4781477 0.0212080
v 0.1888543 -1.3021136 0.0212080
v 0.1893340 -1.3059084 0.0223253
v 0.1898677 -1.3092245 0.0244695
v 0.1904121 -1.3117933 0.0274668
v 0.1909232 -1.3134066 0.0310744
v 0.1103191 -0.4664722 0.0314088
v 0.1119717 -0.4679742 0.0281086
v 0.1134646 -0.4704504 0.0253666
v 0.1146768 -0.4737003 0.0234051
v 0.1155102 -0.4774606 0.0223830
v 0.1958971 -1.3014265 0.0223830
v 0.1958063 -1.3052770 0.0234051
v 0.1952451 -1.3086999 0.0253666
v 0.1942589 -1.3114180 0.0281086
v 0.1929278 -1.3132110 0.0314088
v 0.1118887 -0.4663191 0.0327055
v 0.1149838 -0.4676803 0.0305969
v 0.1176751 -0.4700396 0.0288450
v 0.1197446 -0.4732059 0.0275918
v 0.1210247 -0.4769225 0.0269387
v 0.2014117 -1.3008885 0.0269387
v 0.2008741 -1.3047825 0.0275918
v 0.1994555 -1.3082891 0.0288450
v 0.1972710 -1.3111241 0.0305969
v 0.1944974 -1.3130579 0.0327055
vn -0.0971000 0.9952746 0.0000000
vn 0.2078662 0.9777140 -0.0294458
vn 0.4710534 0.8804454 -0.0540799
vn 0.6958141 0.7143652 -0.0743308
vn 0.8654097 0.4931510 -0.0887030
vn 0.9674305 0.2341629 -0.0961557
vn 0.9944474 -0.0427602 -0.0961557
vn 0.9444081 -0.3165834 -0.0887030
vn 0.8207674 -0.5664060 -0.0743308
vn 0.6323453 -0.7727967 -0.0540799
vn 0.3929212 -0.9191006 -0.0294458
vn 0.0971000 -0.9952746 -0.0000000
vn 0.1822744 0.9752172 0.1254091
vn 0.4240518 0.8758599 0.2303248
vn 0.6312122 0.7080625 0.3165731
vn 0.7883168 0.4856297 0.3777836
vn 0.8838603 0.2260097 0.4095248
vn 0.9108772 -0.0509134 0.4095248
vn 0.8673152 -0.3241046 0.3777836
vn 0.7561655 -0.5727086 0.3165731
vn 0.5853437 -0.7773823 0.2303248
vn 0.3673295 -0.9215973 0.1254091
vn 0.0830497 0.9655367 0.2466608
vn 0.2418169 0.8580809 0.4530141
vn 0.3807370 0.6836259 0.6226515
vn 0.4894112 0.4564682 0.7430434
vn 0.5598408 0.1943981 0.8054735
vn 0.5868577 -0.0825250 0.8054735
vn 0.5684097 -0.3532661 0.7430434
vn 0.5056902 -0.5971452 0.6226515
vn 0.4031089 -0.7951613 0.4530141
vn 0.2681047 -0.9312778 0.2466608
vn -0.0632208 0.9512665 0.3018199
vn -0.0268216 0.8318722 0.5543187
vn 0.0115029 0.6476031 0.7618910
vn 0.0487846 0.4134802 0.9092052
vn 0.0821929 0.1477983 0.9855963
vn 0.1092098 -0.1291248 0.9855963
vn 0.1277830 -0.3962541 0.9092052
vn 0.1364562 -0.6331681 0.7618910
vn 0.1344703 -0.8213699 0.5543187
vn 0.1218342 -0.9455481 0.3018199
vn -0.2173440 0.9362300 0.2761066
vn -0.3098824 0.8042565 0.5070940
vn -0.3775538 0.6096463 0.6969824
vn -0.4154977 0.3681844 0.8317463
vn -0.4210981 0.0986967 0.9016293
vn -0.3940812 -0.1782264 0.9016293
vn -0.3364992 -0.4415499 0.8317463
vn -0.2526005 -0.6711248 0.6969824
vn -0.1485905 -0.8489856 0.5070940
vn -0.0322890 -0.9605845 0.2761066
vn -0.3380228 0.9244565 0.1764108
vn -0.5315194 0.7826334 0.3239939
vn -0.6821859 0.5799261 0.4453179
vn -0.7790314 0.3327177 0.5314216
vn -0.8151758 0.0602501 0.5760714
vn -0.7881589 -0.2166730 0.5760714
vn -0.7000330 -0.4770167 0.5314216
vn -0.5572327 -0.7008450 0.4453179
vn -0.3702275 -0.8706087 0.3239939
vn -0.1529677 -0.9723580 0.1764108
vn -0.3929212 0.9191006 0.0294458
vn -0.6323453 0.7727967 0.0540799
vn -0.8207674 0.5664060 0.0743308
vn -0.9444081 0.3165834 0.0887030
vn -0.9944474 0.0427602 0.0961557
vn -0.9674305 -0.2341629 0.0961557
vn -0.8654097 -0.4931510 0.0887030
vn -0.6958141 -0.7143652 0.0743308
vn -0.4710534 -0.8804454 0.0540799
vn -0.2078662 -0.9777140 0.0294458
vn -0.3673295 0.9215973 -0.1254091
vn -0.5853437 0.7773823 -0.2303248
vn -0.7561655 0.5727086 -0.3165731
vn -0.8673152 0.3241046 -0.3777836
vn -0.9108772 0.0509134 -0.4095248
vn -0.8838603 -0.2260097 -0.4095248
vn -0.7883168 -0.4856297 -0.3777836
vn -0.6312122 -0.7080625 -0.3165731
vn -0.4240518 -0.8758599 -0.2303248
vn -0.1822744 -0.9752172 -0.1254091
vn -0.2681047 0.9312778 -0.2466608
vn -0.4031089 0.7951613 -0.4530141
vn -0.5056902 0.5971452 -0.6226515
vn -0.5684097 0.3532661 -0.7430434
vn -0.5868577 0.0825250 -0.8054735
vn -0.5598408 -0.1943981 -0.8054735
vn -0.4894112 -0.4564682 -0.7430434
vn -0.3807370 -0.6836259 -0.6226515
vn -0.2418169 -0.8580809 -0.4530141
vn -0.0830497 -0.9655367 -0.2466608
vn -0.1218342 0.9455481 -0.3018199
vn -0.1344703 0.8213699 -0.5543187
vn -0.1364562 0.6331681 -0.7618910
vn -0.1277830 0.3962541 -0.9092052
vn -0.1092098 0.1291248 -0.9855963
vn -0.0821929 -0.1477983 -0.9855963
vn -0.0487846 -0.4134802 -0.9092052
vn -0.0115029 -0.6476031 -0.7618910
vn 0.0268216 -0.8318722 -0.5543187
vn 0.0632208 -0.9512665 -0.3018199
vn 0.0322890 0.9605845 -0.2761066
vn 0.1485905 0.8489856 -0.5070940
vn 0.2526005 0.6711248 -0.6969824
vn 0.3364992 0.4415499 -0.8317463
vn 0.3940812 0.1782264 -0.9016293
vn 0.4210981 -0.0986967 -0.9016293
vn 0.4154977 -0.3681844 -0.8317463
vn 0.3775538 -0.6096463 -0.6969824
vn 0.3098824 -0.8042565 -0.5070940
vn 0.2173440 -0.9362300 -0.2761066
vn 0.1529677 0.9723580 -0.1764108
vn 0.3702275 0.8706087 -0.3239939
vn 0.5572327 0.7008450 -0.4453179
vn 0.7000330 0.4770167 -0.5314216
vn 0.7881589 0.2166730 -0.5760714
vn 0.8151758 -0.0602501 -0.5760714
vn 0.7790314 -0.3327177 -0.5314216
vn 0.6821859 -0.5799261 -0.4453179
vn 0.5315194 -0.7826334 -0.3239939
vn 0.3380228 -0.9244565 -0.1764108
f 2//2 1//1 13//13
f 2//2 13//13 3//3
f 3//3 13//13 14//14
f 3//3 14//14 4//4
f 4//4 14//14 15//15
f 4//4 15//15 5//5
f 5//5 15//15 16//16
f 5//5 16//16 6//6
f 6//6 16//16 17//17
f 6//6 17//17 7//7
f 7//7 17//17 18//18
f 7//7 18//18 8//8
f 8//8 18//18 19//19
f 8//8 19//19 9//9
f 9//9 19//19 20//20
f 9//9 20//20 10//10
f 10//10 20//20 21//21
f 10//10 21//21 11//11
f 11//11 21//21 22//22
f 11//11 22//22 12//12
f 13//13 1//1 23//23
f 13//13 23//23 14//14
f 14//14 23//23 24//24
f 14//14 24//24 15//15
f 15//15 24//24 25//25
f 15//15 25//25 16//16
f 16//16 25//25 26//26
f 16//16 26//26 17//17
f 17//17 26//26 27//27
f 17//17 27//27 18//18
f 18//18 27//27 28//28
f 18//18 28//28 19//19
f 19//19 28//28 29//29
f 19//19 29//29 20//20
f 20//20 29//29 30//30
f 20//20 30//30 21//21
f 21//21 30//30 31//31
f 21//21 31//31 22//22
f 22//22 31//31 32//32
f 22//22 32//32 12//12
f 23//23 1//1 33//33
f 23//23 33//33 24//24
f 24//24 33//33 34//34
f 24//24 34//34 25//25
f 25//25 34//34 35//35
f 25//25 35//35 26//26
f 26//26 35//35 36//36
f 26//26 36//36 27//27
f 27//27 36//36 37//37
f 27//27 37//37 28//28
f 28//28 37//37 38//38
f 28//28 38//38 29//29
f 29//29 38//38 39//39
f 29//29 39//39 30//30
f 30//30 39//39 40//40
f 30//30 40//40 31//31
f 31//31 40//40 41//41
f 31//31 41//41 32//32
f 32//32 41//41 42//42
f 32//32 42//42 12//12
f 33//33 1//1 43//43
f 33//33 43//43 34//34
f 34//34 43//43 44//44
f 34//34 44//44 35//35
f 35//35 44//44 45//45
f 35//35 45//45 36//36
f 36//36 45//45 46//46
f 36//36 46//46 37//37
f 37//37 46//46 47//47
f 37//37 47//47 38//38
f 38//38 47//47 48//48
f 38//38 48//48 39//39
f 39//39 48//48 49//49
f 39//39 49//49 40//40
f 40//40 49//49 50//50
f 40//40 50//50 41//41
f 41//41 50//50 51//51
f 41//41 51//51 42//42
f 42//42 51//51 52//52
f 42//42 52//52 12//12
f 43//43 1//1 53//53
f 43//43 53//53 44//44
f 44//44 53//53 54//54
f 44//44 54//54 45//45
f 45//45 54//54 55//55
f 45//45 55//55 46//46
f 46//46 55//55 56//56
f 46//46 56//56 47//47
f 47//47 56//56 57//57
f 47//47 57//57 48//48
f 48//48 57//57 58//58
f 48//48 58//58 49//49
f 49//49 58//58 59//59
f 49//49 59//59 50//50
f 50//50 59//59 60//60
f 50//50 60//60 51//51
f 51//51 60//60 61//61
f 51//51 61//61 52//52
f 52//52 61//61 62//62
f 52//52 62//62 12//12
f 53//53 1//1 63//63
f 53//53 63//63 54//54
f 54//54 63//63 64//64
f 54//54 64//64 55//55
f 55//55 64//64 65//65
f 55//55 65//65 56//56
f 56//56 65//65 66//66
f 56//56 66//66 57//57
f 57//57 66//66 67//67
f 57//57 67//67 58//58
f 58//58 67//67 68//68
f 58//58 68//68 59//59
f 59//59 68//68 69//69
f 59//59 69//69 60//60
f 60//60 69//69 70//70
f 60//60 70//70 61//61
f 61//61 70//70 71//71
f 61//61 71//71 62//62
f 62//62 71//71 72//72
f 62//62 72//72 12//12
f 63//63 1//1 73//73
f 63//63 73//73 64//64
f 64//64 73//73 74//74
f 64//64 74//74 65//65
f 65//65 74//74 75//75
f 65//65 75//75 66//66
f 66//66 75//75 76//76
f 66//66 76//76 67//67
f 67//67 76//76 77//77
f 67//67 77//77 68//68
f 68//68 77//77 78//78
f 68//68 78//78 69//69
f 69//69 78//78 79//79
f 69//69 79//79 70//70
f 70//70 79//79 80//80
f 70//70 80//80 71//71
f 71//71 80//80 81//81
f 71//71 81//81 72//72
f 72//72 81//81 82//82
f 72//72 82//82 12//12
f 73//73 1//1 83//83
f 73//73 83//83 74//74
f 74//74 83//83 84//84
f 74//74 84//84 75//75
f 75//75 84//84 85//85
f 75//75 85//85 76//76
f 76//76 85//85 86//86
f 76//76 86//86 77//77
f 77//77 86//86 87//87
f 77//77 87//87 78//78
f 78//78 87//87 88//88
f 78//78 88//88 79//79
f 79//79 88//88 89//89
f 79//79 89//89 80//80
f 80//80 89//89 90//90
f 80//80 90//90 81//81
f 81//81 90//90 91//91
f 81//81 91//91 82//82
f 82//82 91//91 92//92
f 82//82 92//92 12//12
f 83//83 1//1 93//93
f 83//83 93//93 84//84
f 84//84 93//93 94//94
f 84//84 94//94 85//85
f 85//85 94//94 95//95
f 85//85 95//95 86//86
f 86//86 95//95 96//96
f 86//86 96//96 87//87
f 87//87 96//96 97//97
f 87//87 97//97 88//88
f 88//88 97//97 98//98
f 88//88 98//98 89//89
f 89//89 98//98 99//99
f 89//89 99//99 90//90
f 90//90 99//99 100//100
f 90//90 100//100 91//91
f 91//91 100//100 101//101
f 91//91 101//101 92//92
f 92//92 101//101 102//102
f 92//92 102//102 12//12
f 93//93 1//1 103//103
f 93//93 103//103 94//94
f 94//94 103//103 104//104
f 94//94 104//104 95//95
f 95//95 104//104 105//105
f 95//95 105//105 96//96
f 96//96 105//105 106//106
f 96//96 106//106 97//97
f 97//97 106//106 107//107
f 97//97 107//107 98//98
f 98//98 107//107 108//108
f 98//98 108//108 99//99
f 99//99 108//108 109//109
f 99//99 109//109 100//100
f 100//100 109//109 110//110
f 100//100 110//110 101//101
f 101//101 110//110 111//111
f 101//101 111//111 102//102
f 102//102 111//111 112//112
f 102//102 112//112 12//12
f 103//103 1//1 113//113
f 103//103 113//113 104//104
f 104//104 113//113 114//114
f 104//104 114//114 105//105
f 105//105 114//114 115//115
f 105//105 115//115 106//106
f 106//106 115//115 116//116
f 106//106 116//116 107//107
f 107//107 116//116 117//117
f 107//107 117//117 108//108
f 108//108 117//117 118//118
f 108//108 118//118 109//109
f 109//109 118//118 119//119
f 109//109 119//119 110//110
f 110//110 119//119 120//120
f 110//110 120//120 111//111
f 111//111 120//120 121//121
f 111//111 121//121 112//112
f 112//112 121//121 122//122
f 112//112 122//122 12//12
f 113//113 1//1 2//2
f 113//113 2//2 114//114
f 114//114 2//2 3//3
f 114//114 3//3 115//115
f 115//115 3//3 4//4
f 115//115 4//4 116//116
f 116//116 4//4 5//5
f 116//116 5//5 117//117
f 117//117 5//5 6//6
f 117//117 6//6 118//118
f 118//118 6//6 7//7
f 118//118 7//7 119//119
f 119//119 7//7 8//8
f 119//119 8//8 120//120
f 120//120 8//8 9//9
f 120//120 9//9 121//121
f 121//121 9//9 10//10
f 121//121 10//10 122//122
f 122//122 10//10 11//11
f 122//122 11//11 12//12

