# https://github.com/mikedh/trimesh
v 0.0470104 1.1905196 -0.0000000
v 0.0475424 1.1906448 -0.0036596
v 0.0490837 1.1907178 -0.0070227
v 0.0515093 1.1907326 -0.0098169
v 0.0546228 1.1906881 -0.0118158
v 0.0581719 1.1905878 -0.0128574
v 0.3118692 1.1804399 -0.0128574
v 0.3154150 1.1802564 -0.0118158
v 0.3185221 1.1800521 -0.0098169
v 0.3209388 1.1798436 -0.0070227
v 0.3224693 1.1796477 -0.0036596
v 0.3229896 1.1794804 0.0000000
v 0.0476148 1.1924535 -0.0030961
v 0.0492225 1.1941887 -0.0059414
v 0.0517034 1.1955846 -0.0083053
v 0.0548564 1.1965280 -0.0099964
v 0.0584261 1.1969425 -0.0108777
v 0.3121234 1.1867947 -0.0108777
v 0.3156486 1.1860963 -0.0099964
v 0.3187162 1.1849041 -0.0083053
v 0.3210776 1.1833145 -0.0059414
v 0.3225416 1.1814565 -0.0030961
v 0.0476662 1.1937384 -0.0017030
v 0.0493211 1.1966544 -0.0032681
v 0.0518413 1.1990313 -0.0045684
v 0.0550223 1.2006765 -0.0054986
v 0.0586067 1.2014568 -0.0059833
v 0.3123039 1.1913089 -0.0059833
v 0.3158145 1.1902449 -0.0054986
v 0.3188540 1.1883508 -0.0045684
v 0.3211763 1.1857802 -0.0032681
v 0.3225930 1.1827414 -0.0017030
v 0.0476828 1.1941552 0.0001464
v 0.0493531 1.1974542 0.0002809
v 0.0518860 1.2001493 0.0003927
v 0.0550762 1.2020222 0.0004726
v 0.0586653 1.2029211 0.0005143
v 0.3123625 1.1927732 0.0005143
v 0.3158683 1.1915905 0.0004726
v 0.3188987 1.1894688 0.0003927
v 0.3212082 1.1865800 0.0002809
v 0.3226097 1.1831581 0.0001464
v 0.0476603 1.1935922 0.0019566
v 0.0493099 1.1963737 0.0037546
v 0.0518256 1.1986390 0.0052485
v 0.0550035 1.2002043 0.0063172
v 0.0585861 1.2009429 0.0068741
v 0.3122834 1.1907950 0.0068741
v 0.3157956 1.1897726 0.0063172
v 0.3188383 1.1879584 0.0052485
v 0.3211650 1.1854995 0.0037546
v 0.3225872 1.1825951 0.0019566
v 0.0476046 1.1922002 0.0032425
v 0.0492031 1.1937026 0.0062223
v 0.0516762 1.1949050 0.0086980
v 0.0548237 1.1957100 0.0104691
v 0.0583905 1.1960525 0.0113920
v 0.3120878 1.1859046 0.0113920
v 0.3156158 1.1852783 0.0104691
v 0.3186890 1.1842245 0.0086980
v 0.3210582 1.1828284 0.0062223
v 0.3225315 1.1812031 0.0032425
v 0.0475307 1.1903523 0.0036596
v 0.0490612 1.1901564 0.0070227
v 0.0514779 1.1899479 0.0098169
v 0.0545850 1.1897436 0.0118158
v 0.0581308 1.1895601 0.0128574
v 0.3118281 1.1794122 0.0128574
v 0.3153772 1.1793119 0.0118158
v 0.3184907 1.1792674 0.0098169
v 0.3209163 1.1792822 0.0070227
v 0.3224576 1.1793552 0.0036596
v 0.0474584 1.1885435 0.0030961
v 0.0489224 1.1866855 0.0059414
v 0.0512838 1.1850959 0.0083053
v 0.0543514 1.1839037 0.0099964
v 0.0578766 1.1832053 0.0108777
v 0.3115739 1.1730575 0.0108777
v 0.3151436 1.1734720 0.0099964
v 0.3182966 1.1744154 0.0083053
v 0.3207775 1.1758113 0.0059414
v 0.3223852 1.1775465 0.0030961
v 0.0474070 1.1872586 0.0017030
v 0.0488237 1.1842198 0.0032681
v 0.0511460 1.1816492 0.0045684
v 0.0541855 1.1797551 0.0054986
v 0.0576961 1.1786911 0.0059833
v 0.3113933 1.1685432 0.0059833
v 0.3149777 1.1693235 0.0054986
v 0.3181587 1.1709687 0.0045684
v 0.3206789 1.1733456 0.0032681
v 0.3223338 1.1762616 0.0017030
v 0.0473903 1.1868419 -0.0001464
v 0.0487918 1.1834200 -0.0002809
v 0.0511013 1.1805312 -0.0003927
v 0.0541317 1.1784095 -0.0004726
v 0.0576375 1.1772268 -0.0005143
v 0.3113347 1.1670789 -0.0005143
v 0.3149238 1.1679778 -0.0004726
v 0.3181140 1.1698507 -0.0003927
v 0.3206469 1.1725458 -0.0002809
v 0.3223172 1.1758448 -0.0001464
v 0.0474128 1.1874049 -0.0019566
v 0.0488350 1.1845005 -0.0037546
v 0.0511617 1.1820416 -0.0052485
v 0.0542044 1.1802274 -0.0063172
v 0.0577166 1.1792050 -0.0068741
v 0.3114139 1.1690571 -0.0068741
v 0.3149965 1.1697957 -0.0063172
v 0.3181744 1.1713610 -0.0052485
v 0.3206901 1.1736263 -0.0037546
v 0.3223397 1.1764078 -0.0019566
v 0.0474685 1.1887969 -0.0032425
v 0.0489418 1.1871716 -0.0062223
v 0.0513110 1.1857755 -0.0086980
v 0.0543842 1.1847217 -0.0104691
v 0.0579122 1.1840954 -0.0113920
v 0.3116095 1.1739475 -0.0113920
v 0.3151763 1.1742900 -0.0104691
v 0.3183238 1.1750950 -0.0086980
v 0.3207969 1.1762974 -0.0062223
v 0.3223954 1.1777998 -0.0032425
vn -0.9992010 0.0399680 0.0000000
vn -0.9516643 0.0501967 -0.3030106
vn -0.8289924 0.0554377 -0.5565054
vn -0.6416890 0.0562879 -0.7648966
vn -0.4050051 0.0527411 -0.9127920
vn -0.1374259 0.0451081 -0.9894844
vn 0.1405897 0.0339874 -0.9894844
vn 0.4079237 0.0202239 -0.9127920
vn 0.6441347 0.0048549 -0.7648966
vn 0.8307718 -0.0109529 -0.5565054
vn 0.9526331 -0.0259752 -0.3030106
vn 0.9992010 -0.0399680 0.0000000
vn -0.9456738 0.1999584 -0.2563546
vn -0.8179903 0.3304882 -0.4708177
vn -0.6265671 0.4343348 -0.6471220
vn -0.3869593 0.5038847 -0.7722452
vn -0.1178639 0.5341566 -0.8371289
vn 0.1601516 0.5230359 -0.8371289
vn 0.4259694 0.4713675 -0.7722452
vn 0.6592566 0.3829019 -0.6471220
vn 0.8417738 0.2640976 -0.4708177
vn 0.9586236 0.1237865 -0.2563546
vn -0.9414183 0.3063465 -0.1410087
vn -0.8101747 0.5258793 -0.2589748
vn -0.6158248 0.7028928 -0.3559515
vn -0.3741399 0.8243693 -0.4247760
vn -0.1039675 0.8815681 -0.4604655
vn 0.1740481 0.8704475 -0.4604655
vn 0.4387888 0.7918521 -0.4247760
vn 0.6699989 0.6514599 -0.3559515
vn 0.8495894 0.4594887 -0.2589748
vn 0.9628791 0.2301746 -0.1410087
vn -0.9400380 0.3408544 0.0121204
vn -0.8076396 0.5892561 0.0222602
vn -0.6123405 0.7900019 0.0305959
vn -0.3699819 0.9283212 0.0365117
vn -0.0994600 0.9942541 0.0395794
vn 0.1785555 0.9831335 0.0395794
vn 0.4429469 0.8958041 0.0365117
vn 0.6734833 0.7385690 0.0305959
vn 0.8521245 0.5228655 0.0222602
vn 0.9642594 0.2646825 0.0121204
vn -0.9419027 0.2942358 0.1620019
vn -0.8110644 0.5036368 0.2975306
vn -0.6170477 0.6723214 0.4089451
vn -0.3755992 0.7878868 0.4880161
vn -0.1055494 0.8420204 0.5290189
vn 0.1724662 0.8308997 0.5290189
vn 0.4373295 0.7553696 0.4880161
vn 0.6687761 0.6208884 0.4089451
vn 0.8486997 0.4372463 0.2975306
vn 0.9623947 0.2180639 0.1620019
vn -0.9465129 0.1789820 0.2684751
vn -0.8195313 0.2919632 0.4930780
vn -0.6286852 0.3813836 0.6777179
vn -0.3894869 0.4406951 0.8087569
vn -0.1206039 0.4656578 0.8767083
vn 0.1574117 0.4545372 0.8767083
vn 0.4234418 0.4081780 0.8087569
vn 0.6571386 0.3299506 0.6777179
vn 0.8402328 0.2255726 0.4930780
vn 0.9577845 0.1028101 0.2684751
vn -0.9526331 0.0259752 0.3030106
vn -0.8307718 0.0109529 0.5565054
vn -0.6441347 -0.0048549 0.7648966
vn -0.4079237 -0.0202239 0.9127920
vn -0.1405897 -0.0339874 0.9894844
vn 0.1374259 -0.0451081 0.9894844
vn 0.4050051 -0.0527411 0.9127920
vn 0.6416890 -0.0562879 0.7648966
vn 0.8289924 -0.0554377 0.5565054
vn 0.9516643 -0.0501967 0.3030106
vn -0.9586236 -0.1237865 0.2563546
vn -0.8417738 -0.2640976 0.4708177
vn -0.6592566 -0.3829019 0.6471220
vn -0.4259694 -0.4713675 0.7722452
vn -0.1601516 -0.5230359 0.8371289
vn 0.1178639 -0.5341566 0.8371289
vn 0.3869593 -0.5038847 0.7722452
vn 0.6265671 -0.4343348 0.6471220
vn 0.8179903 -0.3304882 0.4708177
vn 0.9456738 -0.1999584 0.2563546
vn -0.9628791 -0.2301746 0.1410087
vn -0.8495894 -0.4594887 0.2589748
vn -0.6699989 -0.6514599 0.3559515
vn -0.4387888 -0.7918521 0.4247760
vn -0.1740481 -0.8704475 0.4604655
vn 0.1039675 -0.8815681 0.4604655
vn 0.3741399 -0.8243693 0.4247760
vn 0.6158248 -0.7028928 0.3559515
vn 0.8101747 -0.5258793 0.2589748
vn 0.9414183 -0.3063465 0.1410087
vn -0.9642594 -0.2646825 -0.0121204
vn -0.8521245 -0.5228655 -0.0222602
vn -0.6734833 -0.7385690 -0.0305959
vn -0.4429469 -0.8958041 -0.0365117
vn -0.1785555 -0.9831335 -0.0395794
vn 0.0994600 -0.9942541 -0.0395794
vn 0.3699819 -0.9283212 -0.0365117
vn 0.6123405 -0.7900019 -0.0305959
vn 0.8076396 -0.5892561 -0.0222602
vn 0.9400380 -0.3408544 -0.0121204
vn -0.9623947 -0.2180639 -0.1620019
vn -0.8486997 -0.4372463 -0.2975306
vn -0.6687761 -0.6208884 -0.4089451
vn -0.4373295 -0.7553696 -0.4880161
vn -0.1724662 -0.8308997 -0.5290189
vn 0.1055494 -0.8420204 -0.5290189
vn 0.3755992 -0.7878868 -0.4880161
vn 0.6170477 -0.6723214 -0.4089451
vn 0.8110644 -0.5036368 -0.2975306
vn 0.9419027 -0.2942358 -0.1620019
vn -0.9577845 -0.1028101 -0.2684751
vn -0.8402328 -0.2255726 -0.4930780
vn -0.6571386 -0.3299506 -0.6777179
vn -0.4234418 -0.4081780 -0.8087569
vn -0.1574117 -0.4545372 -0.8767083
vn 0.1206039 -0.4656578 -0.8767083
vn 0.3894869 -0.4406951 -0.8087569
vn 0.6286852 -0.3813836 -0.6777179
vn 0.8195313 -0.2919632 -0.4930780
vn 0.9465129 -0.1789820 -0.2684751
f 2//2 1//1 13//13
f 2//2 13//13 3//3
f 3//3 13//13 14//14
f 3//3 14//14 4//4
f 4//4 14//14 15//15
f 4//4 15//15 5//5
f 5//5 15//15 16//16
f 5//5 16//16 6//6
f 6//6 16//16 17//17
f 6//6 17//17 7//7
f 7//7 17//17 18//18
f 7//7 18//18 8//8
f 8//8 18//18 19//19
f 8//8 19//19 9//9
f 9//9 19//19 20//20
f 9//9 20//20 10//10
f 10//10 20//20 21//21
f 10//10 21//21 11//11
f 11//11 21//21 22//22
f 11//11 22//22 12//12
f 13//13 1//1 23//23
f 13//13 23//23 14//14
f 14//14 23//23 24//24
f 14//14 24//24 15//15
f 15//15 24//24 25//25
f 15//15 25//25 16//16
f 16//16 25//25 26//26
f 16//16 26//26 17//17
f 17//17 26//26 27//27
f 17//17 27//27 18//18
f 18//18 27//27 28//28
f 18//18 28//28 19//19
f 19//19 28//28 29//29
f 19//19 29//29 20//20
f 20//20 29//29 30//30
f 20//20 30//30 21//21
f 21//21 30//30 31//31
f 21//21 31//31 22//22
f 22//22 31//31 32//32
f 22//22 32//32 12//12
f 23//23 1//1 33//33
f 23//23 33//33 24//24
f 24//24 33//33 34//34
f 24//24 34//34 25//25
f 25//25 34//34 35//35
f 25//25 35//35 26//26
f 26//26 35//35 36//36
f 26//26 36//36 27//27
f 27//27 36//36 37//37
f 27//27 37//37 28//28
f 28//28 37//37 38//38
f 28//28 38//38 29//29
f 29//29 38//38 39//39
f 29//29 39//39 30//30
f 30//30 39//39 40//40
f 30//30 40//40 31//31
f 31//31 40//40 41//41
f 31//31 41//41 32//32
f 32//32 41//41 42//42
f 32//32 42//42 12//12
f 33//33 1//1 43//43
f 33//33 43//43 34//34
f 34//34 43//43 44//44
f 34//34 44//44 35//35
f 35//35 44//44 45//45
f 35//35 45//45 36//36
f 36//36 45//45 46//46
f 36//36 46//46 37//37
f 37//37 46//46 47//47
f 37//37 47//47 38//38
f 38//38 47//47 48//48
f 38//38 48//48 39//39
f 39//39 48//48 49//49
f 39//39 49//49 40//40
f 40//40 49//49 50//50
f 40//40 50//50 41//41
f 41//41 50//50 51//51
f 41//41 51//51 42//42
f 42//42 51//51 52//52
f 42//42 52//52 12//12
f 43//43 1//1 53//53
f 43//43 53//53 44//44
f 44//44 53//53 54//54
f 44//44 54//54 45//45
f 45//45 54//54 55//55
f 45//45 55//55 46//46
f 46//46 55//55 56//56
f 46//46 56//56 47//47
f 47//47 56//56 57//57
f 47//47 57//57 48//48
f 48//48 57//57 58//58
f 48//48 58//58 49//49
f 49//49 58//58 59//59
f 49//49 59//59 50//50
f 50//50 59//59 60//60
f 50//50 60//60 51//51
f 51//51 60//60 61//61
f 51//51 61//61 52//52
f 52//52 61//61 62//62
f 52//52 62//62 12//12
f 53//53 1//1 63//63
f 53//53 63//63 54//54
f 54//54 63//63 64//64
f 54//54 64//64 55//55
f 55//55 64//64 65//65
f 55//55 65//65 56//56
f 56//56 65//65 66//66
f 56//56 66//66 57//57
f 57//57 66//66 67//67
f 57//57 67//67 58//58
f 58//58 67//67 68//68
f 58//58 68//68 59//59
f 59//59 68//68 69//69
f 59//59 69//69 60//60
f 60//60 69//69 70//70
f 60//60 70//70 61//61
f 61//61 70//70 71//71
f 61//61 71//71 62//62
f 62//62 71//71 72//72
f 62//62 72//72 12//12
f 63//63 1//1 73//73
f 63//63 73//73 64//64
f 64//64 73//73 74//74
f 64//64 74//74 65//65
f 65//65 74//74 75//75
f 65//65 75//75 66//66
f 66//66 75//75 76//76
f 66//66 76//76 67//67
f 67//67 76//76 77//77
f 67//67 77//77 68//68
f 68//68 77//77 78//78
f 68//68 78//78 69//69
f 69//69 78//78 79//79
f 69//69 79//79 70//70
f 70//70 79//79 80//80
f 70//70 80//80 71//71
f 71//71 80//80 81//81
f 71//71 81//81 72//72
f 72//72 81//81 82//82
f 72//72 82//82 12//12
f 73//73 1//1 83//83
f 73//73 83//83 74//74
f 74//74 83//83 84//84
f 74//74 84//84 75//75
f 75//75 84//84 85//85
f 75//75 85//85 76//76
f 76//76 85//85 86//86
f 76//76 86//86 77//77
f 77//77 86//86 87//87
f 77//77 87//87 78//78
f 78//78 87//87 88//88
f 78//78 88//88 79//79
f 79//79 88//88 89//89
f 79//79 89//89 80//80
f 80//80 89//89 90//90
f 80//80 90//90 81//81
f 81//81 90//90 91//91
f 81//81 91//91 82//82
f 82//82 91//91 92//92
f 82//82 92//92 12//12
f 83//83 1//1 93//93
f 83//83 93//93 84//84
f 84//84 93//93 94//94
f 84//84 94//94 85//85
f 85//85 94//94 95//95
f 85//85 95//95 86//86
f 86//86 95//95 96//96
f 86//86 96//96 87//87
f 87//87 96//96 97//97
f 87//87 97//97 88//88
f 88//88 97//97 98//98
f 88//88 98//98 89//89
f 89//89 98//98 99//99
f 89//89 99//99 90//90
f 90//90 99//99 100//100
f 90//90 100//100 91//91
f 91//91 100//100 101//101
f 91//91 101//101 92//92
f 92//92 101//101 102//102
f 92//92 102//102 12//12
f 93//93 1//1 103//103
f 93//93 103//103 94//94
f 94//94 103//103 104//104
f 94//94 104//104 95//95
f 95//95 104//104 105//105
f 95//95 105//105 96//96
f 96//96 105//105 106//106
f 96//96 106//106 97//97
f 97//97 106//106 107//107
f 97//97 107//107 98//98
f 98//98 107//107 108//108
f 98//98 108//108 99//99
f 99//99 108//108 109//109
f 99//99 109//109 100//100
f 100//100 109//109 110//110
f 100//100 110//110 101//101
f 101//101 110//110 111//111
f 101//101 111//111 102//102
f 102//102 111//111 112//112
f 102//102 112//112 12//12
f 103//103 1//1 113//113
f 103//103 113//113 104//104
f 104//104 113//113 114//114
f 104//104 114//114 105//105
f 105//105 114//114 115//115
f 105//105 115//115 106//106
f 106//106 115//115 116//116
f 106//106 116//116 107//107
f 107//107 116//116 117//117
f 107//107 117//117 108//108
f 108//108 117//117 118//118
f 108//108 118//118 109//109
f 109//109 118//118 119//119
f 109//109 119//119 110//110
f 110//110 119//119 120//120
f 110//110 120//120 111//111
f 111//111 120//120 121//121
f 111//111 121//121 112//112
f 112//112 121//121 122//122
f 112//112 122//122 12//12
f 113//113 1//1 2//2
f 113//113 2//2 114//114
f 114//114 2//2 3//3
f 114//114 3//3 115//115
f 115//115 3//3 4//4
f 115//115 4//4 116//116
f 116//116 4//4 5//5
f 116//116 5//5 117//117
f 117//117 5//5 6//6
f 117//117 6//6 118//118
f 118//118 6//6 7//7
f 118//118 7//7 119//119
f 119//119 7//7 8//8
f 119//119 8//8 120//120
f 120//120 8//8 9//9
f 120//120 9//9 121//121
f 121//121 9//9 10//10
f 121//121 10//10 122//122
f 122//122 10//10 11//11
f 122//122 11//11 12//12

