# https://github.com/mikedh/trimesh
v 0.0000000 0.2280022 0.0197693
v 0.0033808 0.2284882 0.0197786
v 0.0064877 0.2299068 0.0198059
v 0.0090690 0.2321431 0.0198489
v 0.0109156 0.2350159 0.0199042
v 0.0118779 0.2382925 0.0199672
v 0.0118779 0.5017075 0.0250328
v 0.0109156 0.5049841 0.0250958
v 0.0090690 0.5078569 0.0251511
v 0.0064877 0.5100932 0.0251941
v 0.0033808 0.5115118 0.0252214
v 0.0000000 0.5119978 0.0252307
v 0.0029279 0.2285207 0.0180885
v 0.0056185 0.2299692 0.0165627
v 0.0078540 0.2322303 0.0153152
v 0.0094532 0.2351209 0.0144474
v 0.0102865 0.2384067 0.0140293
v 0.0102865 0.5018217 0.0190950
v 0.0094532 0.5050890 0.0196391
v 0.0078540 0.5079441 0.0206174
v 0.0056185 0.5101555 0.0219509
v 0.0029279 0.5115443 0.0235313
v 0.0016904 0.2285445 0.0168513
v 0.0032438 0.2300149 0.0141884
v 0.0045345 0.2322941 0.0119964
v 0.0054578 0.2351977 0.0104527
v 0.0059389 0.2384903 0.0096825
v 0.0059389 0.5019052 0.0147482
v 0.0054578 0.5051658 0.0156444
v 0.0045345 0.5080079 0.0172986
v 0.0032438 0.5102012 0.0195766
v 0.0016904 0.5115681 0.0222941
v 0.0000000 0.2285532 0.0163985
v 0.0000000 0.2300316 0.0133194
v 0.0000000 0.2323175 0.0107816
v 0.0000000 0.2352258 0.0089906
v 0.0000000 0.2385209 0.0080915
v 0.0000000 0.5019358 0.0131572
v 0.0000000 0.5051939 0.0141823
v 0.0000000 0.5080312 0.0160838
v 0.0000000 0.5102179 0.0187076
v 0.0000000 0.5115768 0.0218412
v -0.0016904 0.2285445 0.0168513
v -0.0032438 0.2300149 0.0141884
v -0.0045345 0.2322941 0.0119964
v -0.0054578 0.2351977 0.0104527
v -0.0059389 0.2384903 0.0096825
v -0.0059389 0.5019052 0.0147482
v -0.0054578 0.5051658 0.0156444
v -0.0045345 0.5080079 0.0172986
v -0.0032438 0.5102012 0.0195766
v -0.0016904 0.5115681 0.0222941
v -0.0029279 0.2285207 0.0180885
v -0.0056185 0.2299692 0.0165627
v -0.0078540 0.2322303 0.0153152
v -0.0094532 0.2351209 0.0144474
v -0.0102865 0.2384067 0.0140293
v -0.0102865 0.5018217 0.0190950
v -0.0094532 0.5050890 0.0196391
v -0.0078540 0.5079441 0.0206174
v -0.0056185 0.5101555 0.0219509
v -0.0029279 0.5115443 0.0235313
v -0.0033808 0.2284882 0.0197786
v -0.0064877 0.2299068 0.0198059
v -0.0090690 0.2321431 0.0198489
v -0.0109156 0.2350159 0.0199042
v -0.0118779 0.2382925 0.0199672
v -0.0118779 0.5017075 0.0250328
v -0.0109156 0.5049841 0.0250958
v -0.0090690 0.5078569 0.0251511
v -0.0064877 0.5100932 0.0251941
v -0.0033808 0.5115118 0.0252214
v -0.0029279 0.2284557 0.0214687
v -0.0056185 0.2298445 0.0230491
v -0.0078540 0.2320559 0.0243826
v -0.0094532 0.2349110 0.0253609
v -0.0102865 0.2381783 0.0259050
v -0.0102865 0.5015933 0.0309707
v -0.0094532 0.5048791 0.0305526
v -0.0078540 0.5077697 0.0296848
v -0.0056185 0.5100308 0.0284373
v -0.0029279 0.5114793 0.0269115
v -0.0016904 0.2284319 0.0227059
v -0.0032438 0.2297988 0.0254234
v -0.0045345 0.2319921 0.0277014
v -0.0054578 0.2348342 0.0293556
v -0.0059389 0.2380948 0.0302518
v -0.0059389 0.5015097 0.0353175
v -0.0054578 0.5048023 0.0345473
v -0.0045345 0.5077059 0.0330036
v -0.0032438 0.5099851 0.0308116
v -0.0016904 0.5114555 0.0281487
v -0.0000000 0.2284232 0.0231588
v -0.0000000 0.2297821 0.0262924
v -0.0000000 0.2319688 0.0289162
v -0.0000000 0.2348061 0.0308177
v -0.0000000 0.2380642 0.0318428
v -0.0000000 0.5014791 0.0369085
v -0.0000000 0.5047742 0.0360094
v -0.0000000 0.5076825 0.0342184
v -0.0000000 0.5099684 0.0316806
v -0.0000000 0.5114468 0.0286015
v 0.0016904 0.2284319 0.0227059
v 0.0032438 0.2297988 0.0254234
v 0.0045345 0.2319921 0.0277014
v 0.0054578 0.2348342 0.0293556
v 0.0059389 0.2380948 0.0302518
v 0.0059389 0.5015097 0.0353175
v 0.0054578 0.5048023 0.0345473
v 0.0045345 0.5077059 0.0330036
v 0.0032438 0.5099851 0.0308116
v 0.0016904 0.5114555 0.0281487
v 0.0029279 0.2284557 0.0214687
v 0.0056185 0.2298445 0.0230491
v 0.0078540 0.2320559 0.0243826
v 0.0094532 0.2349110 0.0253609
v 0.0102865 0.2381783 0.0259050
v 0.0102865 0.5015933 0.0309707
v 0.0094532 0.5048791 0.0305526
v 0.0078540 0.5077697 0.0296848
v 0.0056185 0.5100308 0.0284373
v 0.0029279 0.5114793 0.0269115
vn 0.0000000 -0.9998151 -0.0192272
vn 0.3032529 -0.9527340 -0.0183218
vn 0.5569505 -0.8303922 -0.0159691
vn 0.7655083 -0.6433071 -0.0123713
vn 0.9135220 -0.4067142 -0.0078214
vn 0.9902757 -0.1390932 -0.0026749
vn 0.9902757 0.1390932 0.0026749
vn 0.9135220 0.4067142 0.0078214
vn 0.7655083 0.6433071 0.0123713
vn 0.5569505 0.8303922 0.0159691
vn 0.3032529 0.9527340 0.0183218
vn 0.0000000 0.9998151 0.0192272
vn 0.2626247 -0.9498186 -0.1699202
vn 0.4823333 -0.8250379 -0.2943928
vn 0.6629496 -0.6359478 -0.3950547
vn 0.7911332 -0.3979320 -0.4644980
vn 0.8576039 -0.1295731 -0.4977212
vn 0.8576039 0.1486133 -0.4923714
vn 0.7911332 0.4154964 -0.4488551
vn 0.6629496 0.6506664 -0.3703121
vn 0.4823333 0.8357465 -0.2624547
vn 0.2626247 0.9556493 -0.1332766
vn 0.1516264 -0.9476844 -0.2808980
vn 0.2784752 -0.8211182 -0.4982132
vn 0.3827542 -0.6305604 -0.6751984
vn 0.4567610 -0.3915029 -0.7988084
vn 0.4951378 -0.1226039 -0.8601202
vn 0.4951378 0.1555825 -0.8547705
vn 0.4567610 0.4219255 -0.7831656
vn 0.3827542 0.6560537 -0.6504558
vn 0.2784752 0.8396661 -0.4662750
vn 0.1516264 0.9577835 -0.2442543
vn -0.0000000 -0.9469033 -0.3215186
vn 0.0000000 -0.8196836 -0.5728166
vn 0.0000000 -0.6285885 -0.7777381
vn -0.0000000 -0.3891497 -0.9211745
vn 0.0000000 -0.1200530 -0.9927675
vn -0.0000000 0.1581335 -0.9874177
vn -0.0000000 0.4242787 -0.9055317
vn 0.0000000 0.6580257 -0.7529955
vn 0.0000000 0.8411008 -0.5408784
vn 0.0000000 0.9585647 -0.2848750
vn -0.1516264 -0.9476844 -0.2808980
vn -0.2784752 -0.8211182 -0.4982132
vn -0.3827542 -0.6305604 -0.6751984
vn -0.4567610 -0.3915029 -0.7988084
vn -0.4951378 -0.1226039 -0.8601202
vn -0.4951378 0.1555825 -0.8547705
vn -0.4567610 0.4219255 -0.7831656
vn -0.3827542 0.6560537 -0.6504558
vn -0.2784752 0.8396661 -0.4662750
vn -0.1516264 0.9577835 -0.2442543
vn -0.2626247 -0.9498186 -0.1699202
vn -0.4823333 -0.8250379 -0.2943928
vn -0.6629496 -0.6359478 -0.3950547
vn -0.7911332 -0.3979320 -0.4644980
vn -0.8576039 -0.1295731 -0.4977212
vn -0.8576039 0.1486133 -0.4923714
vn -0.7911332 0.4154964 -0.4488551
vn -0.6629496 0.6506664 -0.3703121
vn -0.4823333 0.8357465 -0.2624547
vn -0.2626247 0.9556493 -0.1332766
vn -0.3032529 -0.9527340 -0.0183218
vn -0.5569505 -0.8303922 -0.0159691
vn -0.7655083 -0.6433071 -0.0123713
vn -0.9135220 -0.4067142 -0.0078214
vn -0.9902757 -0.1390932 -0.0026749
vn -0.9902757 0.1390932 0.0026749
vn -0.9135220 0.4067142 0.0078214
vn -0.7655083 0.6433071 0.0123713
vn -0.5569505 0.8303922 0.0159691
vn -0.3032529 0.9527340 0.0183218
vn -0.2626247 -0.9556493 0.1332766
vn -0.4823333 -0.8357465 0.2624547
vn -0.6629496 -0.6506664 0.3703121
vn -0.7911332 -0.4154964 0.4488551
vn -0.8576039 -0.1486133 0.4923714
vn -0.8576039 0.1295731 0.4977212
vn -0.7911332 0.3979320 0.4644980
vn -0.6629496 0.6359478 0.3950547
vn -0.4823333 0.8250379 0.2943928
vn -0.2626247 0.9498186 0.1699202
vn -0.1516264 -0.9577835 0.2442543
vn -0.2784752 -0.8396661 0.4662750
vn -0.3827542 -0.6560537 0.6504558
vn -0.4567610 -0.4219255 0.7831656
vn -0.4951378 -0.1555825 0.8547705
vn -0.4951378 0.1226039 0.8601202
vn -0.4567610 0.3915029 0.7988084
vn -0.3827542 0.6305604 0.6751984
vn -0.2784752 0.8211182 0.4982132
vn -0.1516264 0.9476844 0.2808980
vn 0.0000000 -0.9585647 0.2848750
vn -0.0000000 -0.8411008 0.5408784
vn -0.0000000 -0.6580257 0.7529955
vn -0.0000000 -0.4242787 0.9055317
vn -0.0000000 -0.1581335 0.9874177
vn -0.0000000 0.1200530 0.9927675
vn -0.0000000 0.3891497 0.9211745
vn -0.0000000 0.6285885 0.7777381
vn 0.0000000 0.8196836 0.5728166
vn 0.0000000 0.9469033 0.3215186
vn 0.1516264 -0.9577835 0.2442543
vn 0.2784752 -0.8396661 0.4662750
vn 0.3827542 -0.6560537 0.6504558
vn 0.4567610 -0.4219255 0.7831656
vn 0.4951378 -0.1555825 0.8547705
vn 0.4951378 0.1226039 0.8601202
vn 0.4567610 0.3915029 0.7988084
vn 0.3827542 0.6305604 0.6751984
vn 0.2784752 0.8211182 0.4982132
vn 0.1516264 0.9476844 0.2808980
vn 0.2626247 -0.9556493 0.1332766
vn 0.4823333 -0.8357465 0.2624547
vn 0.6629496 -0.6506664 0.3703121
vn 0.7911332 -0.4154964 0.4488551
vn 0.8576039 -0.1486133 0.4923714
vn 0.8576039 0.1295731 0.4977212
vn 0.7911332 0.3979320 0.4644980
vn 0.6629496 0.6359478 0.3950547
vn 0.4823333 0.8250379 0.2943928
vn 0.2626247 0.9498186 0.1699202
f 2//2 1//1 13//13
f 2//2 13//13 3//3
f 3//3 13//13 14//14
f 3//3 14//14 4//4
f 4//4 14//14 15//15
f 4//4 15//15 5//5
f 5//5 15//15 16//16
f 5//5 16//16 6//6
f 6//6 16//16 17//17
f 6//6 17//17 7//7
f 7//7 17//17 18//18
f 7//7 18//18 8//8
f 8//8 18//18 19//19
f 8//8 19//19 9//9
f 9//9 19//19 20//20
f 9//9 20//20 10//10
f 10//10 20//20 21//21
f 10//10 21//21 11//11
f 11//11 21//21 22//22
f 11//11 22//22 12//12
f 13//13 1//1 23//23
f 13//13 23//23 14//14
f 14//14 23//23 24//24
f 14//14 24//24 15//15
f 15//15 24//24 25//25
f 15//15 25//25 16//16
f 16//16 25//25 26//26
f 16//16 26//26 17//17
f 17//17 26//26 27//27
f 17//17 27//27 18//18
f 18//18 27//27 28//28
f 18//18 28//28 19//19
f 19//19 28//28 29//29
f 19//19 29//29 20//20
f 20//20 29//29 30//30
f 20//20 30//30 21//21
f 21//21 30//30 31//31
f 21//21 31//31 22//22
f 22//22 31//31 32//32
f 22//22 32//32 12//12
f 23//23 1//1 33//33
f 23//23 33//33 24//24
f 24//24 33//33 34//34
f 24//24 34//34 25//25
f 25//25 34//34 35//35
f 25//25 35//35 26//26
f 26//26 35//35 36//36
f 26//26 36//36 27//27
f 27//27 36//36 37//37
f 27//27 37//37 28//28
f 28//28 37//37 38//38
f 28//28 38//38 29//29
f 29//29 38//38 39//39
f 29//29 39//39 30//30
f 30//30 39//39 40//40
f 30//30 40//40 31//31
f 31//31 40//40 41//41
f 31//31 41//41 32//32
f 32//32 41//41 42//42
f 32//32 42//42 12//12
f 33//33 1//1 43//43
f 33//33 43//43 34//34
f 34//34 43//43 44//44
f 34//34 44//44 35//35
f 35//35 44//44 45//45
f 35//35 45//45 36//36
f 36//36 45//45 46//46
f 36//36 46//46 37//37
f 37//37 46//46 47//47
f 37//37 47//47 38//38
f 38//38 47//47 48//48
f 38//38 48//48 39//39
f 39//39 48//48 49//49
f 39//39 49//49 40//40
f 40//40 49//49 50//50
f 40//40 50//50 41//41
f 41//41 50//50 51//51
f 41//41 51//51 42//42
f 42//42 51//51 52//52
f 42//42 52//52 12//12
f 43//43 1//1 53//53
f 43//43 53//53 44//44
f 44//44 53//53 54//54
f 44//44 54//54 45//45
f 45//45 54//54 55//55
f 45//45 55//55 46//46
f 46//46 55//55 56//56
f 46//46 56//56 47//47
f 47//47 56//56 57//57
f 47//47 57//57 48//48
f 48//48 57//57 58//58
f 48//48 58//58 49//49
f 49//49 58//58 59//59
f 49//49 59//59 50//50
f 50//50 59//59 60//60
f 50//50 60//60 51//51
f 51//51 60//60 61//61
f 51//51 61//61 52//52
f 52//52 61//61 62//62
f 52//52 62//62 12//12
f 53//53 1//1 63//63
f 53//53 63//63 54//54
f 54//54 63//63 64//64
f 54//54 64//64 55//55
f 55//55 64//64 65//65
f 55//55 65//65 56//56
f 56//56 65//65 66//66
f 56//56 66//66 57//57
f 57//57 66//66 67//67
f 57//57 67//67 58//58
f 58//58 67//67 68//68
f 58//58 68//68 59//59
f 59//59 68//68 69//69
f 59//59 69//69 60//60
f 60//60 69//69 70//70
f 60//60 70//70 61//61
f 61//61 70//70 71//71
f 61//61 71//71 62//62
f 62//62 71//71 72//72
f 62//62 72//72 12//12
f 63//63 1//1 73//73
f 63//63 73//73 64//64
f 64//64 73//73 74//74
f 64//64 74//74 65//65
f 65//65 74//74 75//75
f 65//65 75//75 66//66
f 66//66 75//75 76//76
f 66//66 76//76 67//67
f 67//67 76//76 77//77
f 67//67 77//77 68//68
f 68//68 77//77 78//78
f 68//68 78//78 69//69
f 69//69 78//78 79//79
f 69//69 79//79 70//70
f 70//70 79//79 80//80
f 70//70 80//80 71//71
f 71//71 80//80 81//81
f 71//71 81//81 72//72
f 72//72 81//81 82//82
f 72//72 82//82 12//12
f 73//73 1//1 83//83
f 73//73 83//83 74//74
f 74//74 83//83 84//84
f 74//74 84//84 75//75
f 75//75 84//84 85//85
f 75//75 85//85 76//76
f 76//76 85//85 86//86
f 76//76 86//86 77//77
f 77//77 86//86 87//87
f 77//77 87//87 78//78
f 78//78 87//87 88//88
f 78//78 88//88 79//79
f 79//79 88//88 89//89
f 79//79 89//89 80//80
f 80//80 89//89 90//90
f 80//80 90//90 81//81
f 81//81 90//90 91//91
f 81//81 91//91 82//82
f 82//82 91//91 92//92
f 82//82 92//92 12//12
f 83//83 1//1 93//93
f 83//83 93//93 84//84
f 84//84 93//93 94//94
f 84//84 94//94 85//85
f 85//85 94//94 95//95
f 85//85 95//95 86//86
f 86//86 95//95 96//96
f 86//86 96//96 87//87
f 87//87 96//96 97//97
f 87//87 97//97 88//88
f 88//88 97//97 98//98
f 88//88 98//98 89//89
f 89//89 98//98 99//99
f 89//89 99//99 90//90
f 90//90 99//99 100//100
f 90//90 100//100 91//91
f 91//91 100//100 101//101
f 91//91 101//101 92//92
f 92//92 101//101 102//102
f 92//92 102//102 12//12
f 93//93 1//1 103//103
f 93//93 103//103 94//94
f 94//94 103//103 104//104
f 94//94 104//104 95//95
f 95//95 104//104 105//105
f 95//95 105//105 96//96
f 96//96 105//105 106//106
f 96//96 106//106 97//97
f 97//97 106//106 107//107
f 97//97 107//107 98//98
f 98//98 107//107 108//108
f 98//98 108//108 99//99
f 99//99 108//108 109//109
f 99//99 109//109 100//100
f 100//100 109//109 110//110
f 100//100 110//110 101//101
f 101//101 110//110 111//111
f 101//101 111//111 102//102
f 102//102 111//111 112//112
f 102//102 112//112 12//12
f 103//103 1//1 113//113
f 103//103 113//113 104//104
f 104//104 113//113 114//114
f 104//104 114//114 105//105
f 105//105 114//114 115//115
f 105//105 115//115 106//106
f 106//106 115//115 116//116
f 106//106 116//116 107//107
f 107//107 116//116 117//117
f 107//107 117//117 108//108
f 108//108 117//117 118//118
f 108//108 118//118 109//109
f 109//109 118//118 119//119
f 109//109 119//119 110//110
f 110//110 119//119 120//120
f 110//110 120//120 111//111
f 111//111 120//120 121//121
f 111//111 121//121 112//112
f 112//112 121//121 122//122
f 112//112 122//122 12//12
f 113//113 1//1 2//2
f 113//113 2//2 114//114
f 114//114 2//2 3//3
f 114//114 3//3 115//115
f 115//115 3//3 4//4
f 115//115 4//4 116//116
f 116//116 4//4 5//5
f 116//116 5//5 117//117
f 117//117 5//5 6//6
f 117//117 6//6 118//118
f 118//118 6//6 7//7
f 118//118 7//7 119//119
f 119//119 7//7 8//8
f 119//119 8//8 120//120
f 120//120 8//8 9//9
f 120//120 9//9 121//121
f 121//121 9//9 10//10
f 121//121 10//10 122//122
f 122//122 10//10 11//11
f 122//122 11//11 12//12

