# https://github.com/mikedh/trimesh
v -0.3482069 1.0277961 0.0599220
v -0.3461378 1.0269927 0.0604304
v -0.3443816 1.0256229 0.0609038
v -0.3430806 1.0237975 0.0613041
v -0.3423401 1.0216645 0.0615987
v -0.3422202 1.0193966 0.0617638
v -0.5727306 0.0171776 0.0717859
v -0.5738299 0.0151873 0.0716634
v -0.5754290 0.0135868 0.0714062
v -0.5773985 0.0125059 0.0710350
v -0.5795787 0.0120322 0.0705800
v -0.5817931 0.0122039 0.0700780
v -0.3466685 1.0271251 0.0614609
v -0.3454000 1.0258769 0.0628814
v -0.3445042 1.0241526 0.0640685
v -0.3440536 1.0220918 0.0649259
v -0.3440848 1.0198616 0.0653843
v -0.5745951 0.0176426 0.0754065
v -0.5755434 0.0156146 0.0749907
v -0.5768527 0.0139419 0.0741706
v -0.5784169 0.0127599 0.0730126
v -0.5801094 0.0121645 0.0716105
v -0.3476309 1.0273526 0.0620799
v -0.3472468 1.0263135 0.0640693
v -0.3470858 1.0247629 0.0657290
v -0.3471609 1.0228265 0.0669246
v -0.3474659 1.0206611 0.0675592
v -0.5779763 0.0184421 0.0775814
v -0.5786506 0.0163493 0.0769894
v -0.5794343 0.0145523 0.0758311
v -0.5802637 0.0131966 0.0742005
v -0.5810718 0.0123921 0.0722295
v -0.3487671 1.0276144 0.0621216
v -0.3494271 1.0268158 0.0641493
v -0.3501336 1.0254651 0.0658408
v -0.3508293 1.0236716 0.0670592
v -0.3514577 1.0215806 0.0677056
v -0.5819681 0.0193616 0.0777278
v -0.5823190 0.0171944 0.0771239
v -0.5824821 0.0152544 0.0759429
v -0.5824440 0.0136989 0.0742805
v -0.5822080 0.0126538 0.0722712
v -0.3497726 1.0278402 0.0615748
v -0.3513568 1.0272491 0.0630999
v -0.3528310 1.0260708 0.0643739
v -0.3540759 1.0244006 0.0652936
v -0.3549905 1.0223740 0.0657844
v -0.5855009 0.0201550 0.0758065
v -0.5855656 0.0179234 0.0753583
v -0.5851795 0.0158601 0.0744760
v -0.5843737 0.0141322 0.0732311
v -0.5832136 0.0128796 0.0717244
v -0.3503781 1.0279696 0.0605859
v -0.3525187 1.0274974 0.0612023
v -0.3544552 1.0264178 0.0617213
v -0.3560308 1.0248183 0.0621009
v -0.3571178 1.0228285 0.0623102
v -0.5876281 0.0206095 0.0723324
v -0.5875205 0.0183411 0.0721656
v -0.5868036 0.0162071 0.0718234
v -0.5855356 0.0143804 0.0713335
v -0.5838190 0.0130090 0.0707355
v -0.3504213 1.0279678 0.0594200
v -0.3526015 1.0274941 0.0589650
v -0.3545710 1.0264132 0.0585938
v -0.3561701 1.0248127 0.0583366
v -0.3572694 1.0228224 0.0582141
v -0.5877798 0.0206034 0.0682362
v -0.5876599 0.0183355 0.0684013
v -0.5869194 0.0162025 0.0686959
v -0.5856184 0.0143771 0.0690962
v -0.5838622 0.0130073 0.0695696
v -0.3498906 1.0278355 0.0583895
v -0.3515831 1.0272401 0.0569874
v -0.3531473 1.0260581 0.0558294
v -0.3544566 1.0243854 0.0550093
v -0.3554049 1.0223574 0.0545935
v -0.5859152 0.0201384 0.0646157
v -0.5859464 0.0179082 0.0650741
v -0.5854958 0.0158474 0.0659315
v -0.5846000 0.0141231 0.0671186
v -0.5833315 0.0128749 0.0685391
v -0.3489282 1.0276079 0.0577705
v -0.3497363 1.0268034 0.0557995
v -0.3505657 1.0254477 0.0541689
v -0.3513494 1.0236507 0.0530106
v -0.3520237 1.0215579 0.0524186
v -0.5825341 0.0193389 0.0624408
v -0.5828391 0.0171735 0.0630754
v -0.5829142 0.0152371 0.0642710
v -0.5827532 0.0136865 0.0659307
v -0.5823691 0.0126474 0.0679201
v -0.3477920 1.0273462 0.0577288
v -0.3475560 1.0263011 0.0557195
v -0.3475179 1.0247456 0.0540571
v -0.3476810 1.0228056 0.0528761
v -0.3480319 1.0206384 0.0522722
v -0.5785423 0.0184194 0.0622944
v -0.5791707 0.0163284 0.0629408
v -0.5798664 0.0145349 0.0641592
v -0.5805729 0.0131842 0.0658507
v -0.5812329 0.0123856 0.0678784
v -0.3467864 1.0271204 0.0582756
v -0.3456263 1.0258678 0.0567689
v -0.3448205 1.0241399 0.0555240
v -0.3444344 1.0220766 0.0546417
v -0.3444991 1.0198450 0.0541935
v -0.5750095 0.0176260 0.0642156
v -0.5759241 0.0155994 0.0647064
v -0.5771690 0.0139292 0.0656261
v -0.5786432 0.0127509 0.0669001
v -0.5802274 0.0121598 0.0684252
v -0.3461810 1.0269910 0.0592645
v -0.3444644 1.0256196 0.0586665
v -0.3431964 1.0237929 0.0581766
v -0.3424795 1.0216589 0.0578344
v -0.3423719 1.0193905 0.0576676
v -0.5728822 0.0171715 0.0676898
v -0.5739692 0.0151817 0.0678991
v -0.5755448 0.0135822 0.0682787
v -0.5774813 0.0125026 0.0687977
v -0.5796219 0.0120304 0.0694141
vn 0.2241370 0.9745089 -0.0097451
vn 0.5017477 0.8630211 0.0586840
vn 0.7153968 0.6888971 0.1167395
vn 0.8716379 0.4614330 0.1653085
vn 0.9592485 0.1988109 0.2007899
vn 0.9721886 -0.0786394 0.2206017
vn 0.9098252 -0.3497847 0.2233132
vn 0.7768953 -0.5940289 0.2087183
vn 0.5832067 -0.7926157 0.1778490
vn 0.3430847 -0.9298512 0.1329270
vn 0.0745828 -0.9942177 0.0772564
vn -0.2241370 -0.9745089 0.0097451
vn 0.4303418 0.8808310 0.1973391
vn 0.5842535 0.7216066 0.3713916
vn 0.6913861 0.5063910 0.5153187
vn 0.7441444 0.2524617 0.6184757
vn 0.7390116 -0.0204809 0.6733813
vn 0.6766482 -0.2916261 0.6760928
vn 0.5617912 -0.5403781 0.6264041
vn 0.4029549 -0.7476577 0.5278592
vn 0.2119414 -0.8971417 0.3875791
vn 0.0031768 -0.9764078 0.2159114
vn 0.3008553 0.9114458 0.2806290
vn 0.3464403 0.7778334 0.5243609
vn 0.3645204 0.5836727 0.7255695
vn 0.3540781 0.3446860 0.8693792
vn 0.3161721 0.0794921 0.9453656
vn 0.2538087 -0.1916532 0.9480771
vn 0.1717250 -0.4481538 0.8773076
vn 0.0760892 -0.6703761 0.7381100
vn -0.0258719 -0.8409150 0.5405484
vn -0.1263096 -0.9457930 0.2992014
vn 0.1479841 0.9466622 0.2862364
vn 0.0656790 0.8425114 0.5346595
vn -0.0213757 0.6725703 0.7397244
vn -0.1064324 0.4507723 0.8862711
vn -0.1830303 0.1944917 0.9636767
vn -0.2453937 -0.0766536 0.9663882
vn -0.2887856 -0.3420675 0.8941995
vn -0.3098069 -0.5814784 0.7522649
vn -0.3066331 -0.7762369 0.5508469
vn -0.2791808 -0.9105766 0.3048088
vn 0.0126900 0.9770441 0.2126588
vn -0.1828005 0.8983104 0.3995277
vn -0.3629019 0.7492640 0.5539907
vn -0.5139938 0.5422950 0.6646251
vn -0.6248348 0.2937041 0.7234082
vn -0.6871982 0.0225588 0.7261196
vn -0.6963469 -0.2505448 0.6725535
vn -0.6513331 -0.5047848 0.5665312
vn -0.5551126 -0.7204380 0.4157152
vn -0.4144749 -0.8801947 0.2312312
vn -0.0687751 0.9944506 0.0796112
vn -0.3324184 0.9302790 0.1551741
vn -0.5685463 0.7932037 0.2181355
vn -0.7594002 0.5947305 0.2638312
vn -0.8908602 0.3505452 0.2889397
vn -0.9532236 0.0794000 0.2916512
vn -0.9417534 -0.1981093 0.2717596
vn -0.8569775 -0.4608451 0.2306760
vn -0.7047305 -0.6884694 0.1713616
vn -0.4959401 -0.8627882 0.0981836
vn -0.0745828 0.9942177 -0.0772564
vn -0.3430847 0.9298512 -0.1329270
vn -0.5832067 0.7926157 -0.1778490
vn -0.7768953 0.5940289 -0.2087183
vn -0.9098252 0.3497847 -0.2233132
vn -0.9721886 0.0786394 -0.2206017
vn -0.9592485 -0.1988109 -0.2007899
vn -0.8716379 -0.4614330 -0.1653085
vn -0.7153968 -0.6888971 -0.1167395
vn -0.5017477 -0.8630211 -0.0586840
vn -0.0031768 0.9764078 -0.2159114
vn -0.2119414 0.8971417 -0.3875791
vn -0.4029549 0.7476577 -0.5278592
vn -0.5617912 0.5403781 -0.6264041
vn -0.6766482 0.2916261 -0.6760928
vn -0.7390116 0.0204809 -0.6733813
vn -0.7441444 -0.2524617 -0.6184757
vn -0.6913861 -0.5063910 -0.5153187
vn -0.5842535 -0.7216066 -0.3713916
vn -0.4303418 -0.8808310 -0.1973391
vn 0.1263096 0.9457930 -0.2992014
vn 0.0258719 0.8409150 -0.5405484
vn -0.0760892 0.6703761 -0.7381100
vn -0.1717250 0.4481538 -0.8773076
vn -0.2538087 0.1916532 -0.9480771
vn -0.3161721 -0.0794921 -0.9453656
vn -0.3540781 -0.3446860 -0.8693792
vn -0.3645204 -0.5836727 -0.7255695
vn -0.3464403 -0.7778334 -0.5243609
vn -0.3008553 -0.9114458 -0.2806290
vn 0.2791808 0.9105766 -0.3048088
vn 0.3066331 0.7762369 -0.5508469
vn 0.3098069 0.5814784 -0.7522649
vn 0.2887856 0.3420675 -0.8941995
vn 0.2453937 0.0766536 -0.9663882
vn 0.1830303 -0.1944917 -0.9636767
vn 0.1064324 -0.4507723 -0.8862711
vn 0.0213757 -0.6725703 -0.7397244
vn -0.0656790 -0.8425114 -0.5346595
vn -0.1479841 -0.9466622 -0.2862364
vn 0.4144749 0.8801947 -0.2312312
vn 0.5551126 0.7204380 -0.4157152
vn 0.6513331 0.5047848 -0.5665312
vn 0.6963469 0.2505448 -0.6725535
vn 0.6871982 -0.0225588 -0.7261196
vn 0.6248348 -0.2937041 -0.7234082
vn 0.5139938 -0.5422950 -0.6646251
vn 0.3629019 -0.7492640 -0.5539907
vn 0.1828005 -0.8983104 -0.3995277
vn -0.0126900 -0.9770441 -0.2126588
vn 0.4959401 0.8627882 -0.0981836
vn 0.7047305 0.6884694 -0.1713616
vn 0.8569775 0.4608451 -0.2306760
vn 0.9417534 0.1981093 -0.2717596
vn 0.9532236 -0.0794000 -0.2916512
vn 0.8908602 -0.3505452 -0.2889397
vn 0.7594002 -0.5947305 -0.2638312
vn 0.5685463 -0.7932037 -0.2181355
vn 0.3324184 -0.9302790 -0.1551741
vn 0.0687751 -0.9944506 -0.0796112
f 2//2 1//1 13//13
f 2//2 13//13 3//3
f 3//3 13//13 14//14
f 3//3 14//14 4//4
f 4//4 14//14 15//15
f 4//4 15//15 5//5
f 5//5 15//15 16//16
f 5//5 16//16 6//6
f 6//6 16//16 17//17
f 6//6 17//17 7//7
f 7//7 17//17 18//18
f 7//7 18//18 8//8
f 8//8 18//18 19//19
f 8//8 19//19 9//9
f 9//9 19//19 20//20
f 9//9 20//20 10//10
f 10//10 20//20 21//21
f 10//10 21//21 11//11
f 11//11 21//21 22//22
f 11//11 22//22 12//12
f 13//13 1//1 23//23
f 13//13 23//23 14//14
f 14//14 23//23 24//24
f 14//14 24//24 15//15
f 15//15 24//24 25//25
f 15//15 25//25 16//16
f 16//16 25//25 26//26
f 16//16 26//26 17//17
f 17//17 26//26 27//27
f 17//17 27//27 18//18
f 18//18 27//27 28//28
f 18//18 28//28 19//19
f 19//19 28//28 29//29
f 19//19 29//29 20//20
f 20//20 29//29 30//30
f 20//20 30//30 21//21
f 21//21 30//30 31//31
f 21//21 31//31 22//22
f 22//22 31//31 32//32
f 22//22 32//32 12//12
f 23//23 1//1 33//33
f 23//23 33//33 24//24
f 24//24 33//33 34//34
f 24//24 34//34 25//25
f 25//25 34//34 35//35
f 25//25 35//35 26//26
f 26//26 35//35 36//36
f 26//26 36//36 27//27
f 27//27 36//36 37//37
f 27//27 37//37 28//28
f 28//28 37//37 38//38
f 28//28 38//38 29//29
f 29//29 38//38 39//39
f 29//29 39//39 30//30
f 30//30 39//39 40//40
f 30//30 40//40 31//31
f 31//31 40//40 41//41
f 31//31 41//41 32//32
f 32//32 41//41 42//42
f 32//32 42//42 12//12
f 33//33 1//1 43//43
f 33//33 43//43 34//34
f 34//34 43//43 44//44
f 34//34 44//44 35//35
f 35//35 44//44 45//45
f 35//35 45//45 36//36
f 36//36 45//45 46//46
f 36//36 46//46 37//37
f 37//37 46//46 47//47
f 37//37 47//47 38//38
f 38//38 47//47 48//48
f 38//38 48//48 39//39
f 39//39 48//48 49//49
f 39//39 49//49 40//40
f 40//40 49//49 50//50
f 40//40 50//50 41//41
f 41//41 50//50 51//51
f 41//41 51//51 42//42
f 42//42 51//51 52//52
f 42//42 52//52 12//12
f 43//43 1//1 53//53
f 43//43 53//53 44//44
f 44//44 53//53 54//54
f 44//44 54//54 45//45
f 45//45 54//54 55//55
f 45//45 55//55 46//46
f 46//46 55//55 56//56
f 46//46 56//56 47//47
f 47//47 56//56 57//57
f 47//47 57//57 48//48
f 48//48 57//57 58//58
f 48//48 58//58 49//49
f 49//49 58//58 59//59
f 49//49 59//59 50//50
f 50//50 59//59 60//60
f 50//50 60//60 51//51
f 51//51 60//60 61//61
f 51//51 61//61 52//52
f 52//52 61//61 62//62
f 52//52 62//62 12//12
f 53//53 1//1 63//63
f 53//53 63//63 54//54
f 54//54 63//63 64//64
f 54//54 64//64 55//55
f 55//55 64//64 65//65
f 55//55 65//65 56//56
f 56//56 65//65 66//66
f 56//56 66//66 57//57
f 57//57 66//66 67//67
f 57//57 67//67 58//58
f 58//58 67//67 68//68
f 58//58 68//68 59//59
f 59//59 68//68 69//69
f 59//59 69//69 60//60
f 60//60 69//69 70//70
f 60//60 70//70 61//61
f 61//61 70//70 71//71
f 61//61 71//71 62//62
f 62//62 71//71 72//72
f 62//62 72//72 12//12
f 63//63 1//1 73//73
f 63//63 73//73 64//64
f 64//64 73//73 74//74
f 64//64 74//74 65//65
f 65//65 74//74 75//75
f 65//65 75//75 66//66
f 66//66 75//75 76//76
f 66//66 76//76 67//67
f 67//67 76//76 77//77
f 67//67 77//77 68//68
f 68//68 77//77 78//78
f 68//68 78//78 69//69
f 69//69 78//78 79//79
f 69//69 79//79 70//70
f 70//70 79//79 80//80
f 70//70 80//80 71//71
f 71//71 80//80 81//81
f 71//71 81//81 72//72
f 72//72 81//81 82//82
f 72//72 82//82 12//12
f 73//73 1//1 83//83
f 73//73 83//83 74//74
f 74//74 83//83 84//84
f 74//74 84//84 75//75
f 75//75 84//84 85//85
f 75//75 85//85 76//76
f 76//76 85//85 86//86
f 76//76 86//86 77//77
f 77//77 86//86 87//87
f 77//77 87//87 78//78
f 78//78 87//87 88//88
f 78//78 88//88 79//79
f 79//79 88//88 89//89
f 79//79 89//89 80//80
f 80//80 89//89 90//90
f 80//80 90//90 81//81
f 81//81 90//90 91//91
f 81//81 91//91 82//82
f 82//82 91//91 92//92
f 82//82 92//92 12//12
f 83//83 1//1 93//93
f 83//83 93//93 84//84
f 84//84 93//93 94//94
f 84//84 94//94 85//85
f 85//85 94//94 95//95
f 85//85 95//95 86//86
f 86//86 95//95 96//96
f 86//86 96//96 87//87
f 87//87 96//96 97//97
f 87//87 97//97 88//88
f 88//88 97//97 98//98
f 88//88 98//98 89//89
f 89//89 98//98 99//99
f 89//89 99//99 90//90
f 90//90 99//99 100//100
f 90//90 100//100 91//91
f 91//91 100//100 101//101
f 91//91 101//101 92//92
f 92//92 101//101 102//102
f 92//92 102//102 12//12
f 93//93 1//1 103//103
f 93//93 103//103 94//94
f 94//94 103//103 104//104
f 94//94 104//104 95//95
f 95//95 104//104 105//105
f 95//95 105//105 96//96
f 96//96 105//105 106//106
f 96//96 106//106 97//97
f 97//97 106//106 107//107
f 97//97 107//107 98//98
f 98//98 107//107 108//108
f 98//98 108//108 99//99
f 99//99 108//108 109//109
f 99//99 109//109 100//100
f 100//100 109//109 110//110
f 100//100 110//110 101//101
f 101//101 110//110 111//111
f 101//101 111//111 102//102
f 102//102 111//111 112//112
f 102//102 112//112 12//12
f 103//103 1//1 113//113
f 103//103 113//113 104//104
f 104//104 113//113 114//114
f 104//104 114//114 105//105
f 105//105 114//114 115//115
f 105//105 115//115 106//106
f 106//106 115//115 116//116
f 106//106 116//116 107//107
f 107//107 116//116 117//117
f 107//107 117//117 108//108
f 108//108 117//117 118//118
f 108//108 118//118 109//109
f 109//109 118//118 119//119
f 109//109 119//119 110//110
f 110//110 119//119 120//120
f 110//110 120//120 111//111
f 111//111 120//120 121//121
f 111//111 121//121 112//112
f 112//112 121//121 122//122
f 112//112 122//122 12//12
f 113//113 1//1 2//2
f 113//113 2//2 114//114
f 114//114 2//2 3//3
f 114//114 3//3 115//115
f 115//115 3//3 4//4
f 115//115 4//4 116//116
f 116//116 4//4 5//5
f 116//116 5//5 117//117
f 117//117 5//5 6//6
f 117//117 6//6 118//118
f 118//118 6//6 7//7
f 118//118 7//7 119//119
f 119//119 7//7 8//8
f 119//119 8//8 120//120
f 120//120 8//8 9//9
f 120//120 9//9 121//121
f 121//121 9//9 10//10
f 121//121 10//10 122//122
f 122//122 10//10 11//11
f 122//122 11//11 12//12

