# https://github.com/mikedh/trimesh
v -0.0062138 0.8617233 0.0417233
v -0.0071895 0.8611083 0.0455375
v -0.0092032 0.8604035 0.0489031
v -0.0120915 0.8596660 0.0515475
v -0.0156205 0.8589556 0.0532563
v -0.0195043 0.8583298 0.0538912
v -0.1834283 0.8378393 0.0334007
v -0.1870745 0.8375238 0.0318245
v -0.1901476 0.8374090 0.0292904
v -0.1923986 0.8375041 0.0260037
v -0.1936452 0.8378013 0.0222306
v -0.1937862 0.8382767 0.0182767
v -0.0074062 0.8631194 0.0452599
v -0.0096190 0.8642627 0.0483704
v -0.0126727 0.8650608 0.0508028
v -0.0163201 0.8654488 0.0523600
v -0.0202656 0.8653954 0.0529158
v -0.1841896 0.8449049 0.0324253
v -0.1877741 0.8440171 0.0309282
v -0.1907289 0.8428038 0.0285458
v -0.1928144 0.8413633 0.0254710
v -0.1938618 0.8398124 0.0219529
v -0.0074530 0.8647377 0.0440160
v -0.0097088 0.8673683 0.0459833
v -0.0127983 0.8694019 0.0474659
v -0.0164712 0.8706739 0.0483436
v -0.0204300 0.8710811 0.0485454
v -0.1843540 0.8505906 0.0280549
v -0.1879252 0.8492421 0.0269119
v -0.1908544 0.8471449 0.0252089
v -0.1929042 0.8444688 0.0230838
v -0.1939086 0.8414307 0.0207090
v -0.0073174 0.8655296 0.0421390
v -0.0094485 0.8688879 0.0423814
v -0.0124344 0.8715262 0.0424309
v -0.0160333 0.8732307 0.0422834
v -0.0199535 0.8738633 0.0419510
v -0.1838775 0.8533728 0.0214605
v -0.1874873 0.8517989 0.0208517
v -0.1904906 0.8492692 0.0201739
v -0.1926440 0.8459885 0.0194820
v -0.1937730 0.8422226 0.0188320
v -0.0070357 0.8652829 0.0401319
v -0.0089079 0.8684145 0.0385299
v -0.0116787 0.8708644 0.0370469
v -0.0151237 0.8724342 0.0358032
v -0.0189637 0.8729966 0.0348995
v -0.1828877 0.8525061 0.0144090
v -0.1865777 0.8510024 0.0143715
v -0.1897349 0.8486074 0.0147899
v -0.1921033 0.8455151 0.0156304
v -0.1934913 0.8419759 0.0168250
v -0.0066834 0.8640637 0.0385326
v -0.0082318 0.8660749 0.0354607
v -0.0107336 0.8675939 0.0327566
v -0.0139862 0.8684977 0.0306393
v -0.0177259 0.8687131 0.0292804
v -0.1816499 0.8482226 0.0087899
v -0.1854402 0.8470660 0.0092076
v -0.1887898 0.8453369 0.0104996
v -0.1914272 0.8431754 0.0125613
v -0.1931390 0.8407567 0.0152256
v -0.0063548 0.8621987 0.0377694
v -0.0076014 0.8624959 0.0339963
v -0.0098524 0.8625910 0.0307096
v -0.0129255 0.8624762 0.0281755
v -0.0165717 0.8621607 0.0265993
v -0.1804957 0.8416702 0.0061088
v -0.1843795 0.8410444 0.0067437
v -0.1879085 0.8403340 0.0084525
v -0.1907968 0.8395965 0.0110969
v -0.1928105 0.8388917 0.0144625
v -0.0061382 0.8601876 0.0380471
v -0.0071856 0.8586367 0.0345290
v -0.0092711 0.8571962 0.0314542
v -0.0122259 0.8559829 0.0290718
v -0.0158104 0.8550951 0.0275747
v -0.1797344 0.8346046 0.0070842
v -0.1836799 0.8345512 0.0076400
v -0.1873273 0.8349392 0.0091972
v -0.1903810 0.8357373 0.0116296
v -0.1925938 0.8368806 0.0147401
v -0.0060914 0.8585693 0.0392910
v -0.0070958 0.8555312 0.0369162
v -0.0091456 0.8528551 0.0347911
v -0.0120748 0.8507579 0.0330881
v -0.0156460 0.8494094 0.0319451
v -0.1795700 0.8289189 0.0114546
v -0.1835288 0.8293261 0.0116564
v -0.1872017 0.8305981 0.0125341
v -0.1902912 0.8326317 0.0140167
v -0.1925470 0.8352623 0.0159840
v -0.0062270 0.8577774 0.0411680
v -0.0073560 0.8540115 0.0405180
v -0.0095094 0.8507308 0.0398261
v -0.0125127 0.8482011 0.0391483
v -0.0161225 0.8466272 0.0385395
v -0.1800465 0.8261367 0.0180490
v -0.1839667 0.8267693 0.0177166
v -0.1875656 0.8284738 0.0175691
v -0.1905515 0.8311121 0.0176186
v -0.1926826 0.8344704 0.0178610
v -0.0065087 0.8580241 0.0431750
v -0.0078967 0.8544849 0.0443696
v -0.0102651 0.8513926 0.0452101
v -0.0134223 0.8489976 0.0456285
v -0.0171123 0.8474939 0.0455910
v -0.1810363 0.8270034 0.0251005
v -0.1848763 0.8275658 0.0241968
v -0.1883213 0.8291356 0.0229531
v -0.1910921 0.8315855 0.0214701
v -0.1929643 0.8347171 0.0198681
v -0.0068610 0.8592433 0.0447744
v -0.0085728 0.8568246 0.0474387
v -0.0112102 0.8546631 0.0495004
v -0.0145598 0.8529340 0.0507924
v -0.0183501 0.8517774 0.0512101
v -0.1822741 0.8312869 0.0307196
v -0.1860138 0.8315023 0.0293607
v -0.1892664 0.8324061 0.0272434
v -0.1917682 0.8339251 0.0245393
v -0.1933166 0.8359363 0.0214674
vn 0.9847319 0.1230915 0.1230915
vn 0.9062729 0.0753775 0.4159179
vn 0.7589322 0.0252477 0.6506800
vn 0.5526013 -0.0266134 0.8330207
vn 0.3039159 -0.0762008 0.9496466
vn 0.0322107 -0.1197581 0.9922804
vn -0.2417791 -0.1540068 0.9580317
vn -0.4972412 -0.1763454 0.8495019
vn -0.7146030 -0.1850139 0.6746202
vn -0.8767976 -0.1792185 0.4462138
vn -0.9704492 -0.1592128 0.1813277
vn -0.9847319 -0.1230915 -0.1230915
vn 0.8896130 0.2300000 0.3945740
vn 0.7283350 0.3092255 0.6114800
vn 0.5105465 0.3637038 0.7791417
vn 0.2537297 0.3895855 0.8853499
vn -0.0221922 0.3851633 0.9225815
vn -0.2961819 0.3509146 0.8883328
vn -0.5474274 0.2894409 0.7852052
vn -0.7566578 0.2053032 0.6207412
vn -0.9073948 0.1047592 0.4070138
vn -0.9871090 -0.0045903 0.1599837
vn 0.8860152 0.3544233 0.2989334
vn 0.7217272 0.5377398 0.4358277
vn 0.5014644 0.6777884 0.5377140
vn 0.2428915 0.7643995 0.5972412
vn -0.0339410 0.7914690 0.6102661
vn -0.3079307 0.7572203 0.5760174
vn -0.5582655 0.6642549 0.4970966
vn -0.7657399 0.5193879 0.3793134
vn -0.9140025 0.3332735 0.2313615
vn -0.9907068 0.1198330 0.0643431
vn 0.8964434 0.4153083 0.1546230
vn 0.7408795 0.6495604 0.1707890
vn 0.5277885 0.8314819 0.1734278
vn 0.2743054 0.9478101 0.1625191
vn 0.0001124 0.9902897 0.1390189
vn -0.2738773 0.9560410 0.1047702
vn -0.5268516 0.8476655 0.0623745
vn -0.7394158 0.6730813 0.0150273
vn -0.8948503 0.4450942 -0.0336772
vn -0.9802786 0.1807181 -0.0799673
vn 0.9181034 0.3963409 0.0003106
vn 0.7806599 0.6147252 -0.1126192
vn 0.5824653 0.7836021 -0.2161065
vn 0.3395541 0.8906726 -0.3023330
vn 0.0708432 0.9283515 -0.3648899
vn -0.2031465 0.8941028 -0.3991387
vn -0.4616029 0.7905280 -0.4024777
vn -0.6847390 0.6252015 -0.3745070
vn -0.8550698 0.4102589 -0.3170854
vn -0.9586187 0.1617507 -0.2342797
vn 0.9451913 0.3026035 -0.1226559
vn 0.8304094 0.4425681 -0.3384579
vn 0.6508441 0.5469784 -0.5265136
vn 0.4211543 0.6082969 -0.6727584
vn 0.1592994 0.6222508 -0.7664383
vn -0.1146903 0.5880020 -0.8006870
vn -0.3800027 0.5081523 -0.7729031
vn -0.6163602 0.3885778 -0.6849142
vn -0.8053204 0.2381018 -0.5429241
vn -0.9315307 0.0680132 -0.3572461
vn 0.9704492 0.1592128 -0.1813277
vn 0.8767976 0.1792185 -0.4462138
vn 0.7146030 0.1850139 -0.6746202
vn 0.4972412 0.1763454 -0.8495019
vn 0.2417791 0.1540068 -0.9580317
vn -0.0322107 0.1197581 -0.9922804
vn -0.3039159 0.0762008 -0.9496466
vn -0.5526013 0.0266134 -0.8330207
vn -0.7589322 -0.0252477 -0.6506800
vn -0.9062729 -0.0753775 -0.4159179
vn 0.9871090 0.0045903 -0.1599837
vn 0.9073948 -0.1047592 -0.4070138
vn 0.7566578 -0.2053032 -0.6207412
vn 0.5474274 -0.2894409 -0.7852052
vn 0.2961819 -0.3509146 -0.8883328
vn 0.0221922 -0.3851633 -0.9225815
vn -0.2537297 -0.3895855 -0.8853499
vn -0.5105465 -0.3637038 -0.7791417
vn -0.7283350 -0.3092255 -0.6114800
vn -0.8896130 -0.2300000 -0.3945740
vn 0.9907068 -0.1198330 -0.0643431
vn 0.9140025 -0.3332735 -0.2313615
vn 0.7657399 -0.5193879 -0.3793134
vn 0.5582655 -0.6642549 -0.4970966
vn 0.3079307 -0.7572203 -0.5760174
vn 0.0339410 -0.7914690 -0.6102661
vn -0.2428915 -0.7643995 -0.5972412
vn -0.5014644 -0.6777884 -0.5377140
vn -0.7217272 -0.5377398 -0.4358277
vn -0.8860152 -0.3544233 -0.2989334
vn 0.9802786 -0.1807181 0.0799673
vn 0.8948503 -0.4450942 0.0336772
vn 0.7394158 -0.6730813 -0.0150273
vn 0.5268516 -0.8476655 -0.0623745
vn 0.2738773 -0.9560410 -0.1047702
vn -0.0001124 -0.9902897 -0.1390189
vn -0.2743054 -0.9478101 -0.1625191
vn -0.5277885 -0.8314819 -0.1734278
vn -0.7408795 -0.6495604 -0.1707890
vn -0.8964434 -0.4153083 -0.1546230
vn 0.9586187 -0.1617507 0.2342797
vn 0.8550698 -0.4102589 0.3170854
vn 0.6847390 -0.6252015 0.3745070
vn 0.4616029 -0.7905280 0.4024777
vn 0.2031465 -0.8941028 0.3991387
vn -0.0708432 -0.9283515 0.3648899
vn -0.3395541 -0.8906726 0.3023330
vn -0.5824653 -0.7836021 0.2161065
vn -0.7806599 -0.6147252 0.1126192
vn -0.9181034 -0.3963409 -0.0003106
vn 0.9315307 -0.0680132 0.3572461
vn 0.8053204 -0.2381018 0.5429241
vn 0.6163602 -0.3885778 0.6849142
vn 0.3800027 -0.5081523 0.7729031
vn 0.1146903 -0.5880020 0.8006870
vn -0.1592994 -0.6222508 0.7664383
vn -0.4211543 -0.6082969 0.6727584
vn -0.6508441 -0.5469784 0.5265136
vn -0.8304094 -0.4425681 0.3384579
vn -0.9451913 -0.3026035 0.1226559
f 2//2 1//1 13//13
f 2//2 13//13 3//3
f 3//3 13//13 14//14
f 3//3 14//14 4//4
f 4//4 14//14 15//15
f 4//4 15//15 5//5
f 5//5 15//15 16//16
f 5//5 16//16 6//6
f 6//6 16//16 17//17
f 6//6 17//17 7//7
f 7//7 17//17 18//18
f 7//7 18//18 8//8
f 8//8 18//18 19//19
f 8//8 19//19 9//9
f 9//9 19//19 20//20
f 9//9 20//20 10//10
f 10//10 20//20 21//21
f 10//10 21//21 11//11
f 11//11 21//21 22//22
f 11//11 22//22 12//12
f 13//13 1//1 23//23
f 13//13 23//23 14//14
f 14//14 23//23 24//24
f 14//14 24//24 15//15
f 15//15 24//24 25//25
f 15//15 25//25 16//16
f 16//16 25//25 26//26
f 16//16 26//26 17//17
f 17//17 26//26 27//27
f 17//17 27//27 18//18
f 18//18 27//27 28//28
f 18//18 28//28 19//19
f 19//19 28//28 29//29
f 19//19 29//29 20//20
f 20//20 29//29 30//30
f 20//20 30//30 21//21
f 21//21 30//30 31//31
f 21//21 31//31 22//22
f 22//22 31//31 32//32
f 22//22 32//32 12//12
f 23//23 1//1 33//33
f 23//23 33//33 24//24
f 24//24 33//33 34//34
f 24//24 34//34 25//25
f 25//25 34//34 35//35
f 25//25 35//35 26//26
f 26//26 35//35 36//36
f 26//26 36//36 27//27
f 27//27 36//36 37//37
f 27//27 37//37 28//28
f 28//28 37//37 38//38
f 28//28 38//38 29//29
f 29//29 38//38 39//39
f 29//29 39//39 30//30
f 30//30 39//39 40//40
f 30//30 40//40 31//31
f 31//31 40//40 41//41
f 31//31 41//41 32//32
f 32//32 41//41 42//42
f 32//32 42//42 12//12
f 33//33 1//1 43//43
f 33//33 43//43 34//34
f 34//34 43//43 44//44
f 34//34 44//44 35//35
f 35//35 44//44 45//45
f 35//35 45//45 36//36
f 36//36 45//45 46//46
f 36//36 46//46 37//37
f 37//37 46//46 47//47
f 37//37 47//47 38//38
f 38//38 47//47 48//48
f 38//38 48//48 39//39
f 39//39 48//48 49//49
f 39//39 49//49 40//40
f 40//40 49//49 50//50
f 40//40 50//50 41//41
f 41//41 50//50 51//51
f 41//41 51//51 42//42
f 42//42 51//51 52//52
f 42//42 52//52 12//12
f 43//43 1//1 53//53
f 43//43 53//53 44//44
f 44//44 53//53 54//54
f 44//44 54//54 45//45
f 45//45 54//54 55//55
f 45//45 55//55 46//46
f 46//46 55//55 56//56
f 46//46 56//56 47//47
f 47//47 56//56 57//57
f 47//47 57//57 48//48
f 48//48 57//57 58//58
f 48//48 58//58 49//49
f 49//49 58//58 59//59
f 49//49 59//59 50//50
f 50//50 59//59 60//60
f 50//50 60//60 51//51
f 51//51 60//60 61//61
f 51//51 61//61 52//52
f 52//52 61//61 62//62
f 52//52 62//62 12//12
f 53//53 1//1 63//63
f 53//53 63//63 54//54
f 54//54 63//63 64//64
f 54//54 64//64 55//55
f 55//55 64//64 65//65
f 55//55 65//65 56//56
f 56//56 65//65 66//66
f 56//56 66//66 57//57
f 57//57 66//66 67//67
f 57//57 67//67 58//58
f 58//58 67//67 68//68
f 58//58 68//68 59//59
f 59//59 68//68 69//69
f 59//59 69//69 60//60
f 60//60 69//69 70//70
f 60//60 70//70 61//61
f 61//61 70//70 71//71
f 61//61 71//71 62//62
f 62//62 71//71 72//72
f 62//62 72//72 12//12
f 63//63 1//1 73//73
f 63//63 73//73 64//64
f 64//64 73//73 74//74
f 64//64 74//74 65//65
f 65//65 74//74 75//75
f 65//65 75//75 66//66
f 66//66 75//75 76//76
f 66//66 76//76 67//67
f 67//67 76//76 77//77
f 67//67 77//77 68//68
f 68//68 77//77 78//78
f 68//68 78//78 69//69
f 69//69 78//78 79//79
f 69//69 79//79 70//70
f 70//70 79//79 80//80
f 70//70 80//80 71//71
f 71//71 80//80 81//81
f 71//71 81//81 72//72
f 72//72 81//81 82//82
f 72//72 82//82 12//12
f 73//73 1//1 83//83
f 73//73 83//83 74//74
f 74//74 83//83 84//84
f 74//74 84//84 75//75
f 75//75 84//84 85//85
f 75//75 85//85 76//76
f 76//76 85//85 86//86
f 76//76 86//86 77//77
f 77//77 86//86 87//87
f 77//77 87//87 78//78
f 78//78 87//87 88//88
f 78//78 88//88 79//79
f 79//79 88//88 89//89
f 79//79 89//89 80//80
f 80//80 89//89 90//90
f 80//80 90//90 81//81
f 81//81 90//90 91//91
f 81//81 91//91 82//82
f 82//82 91//91 92//92
f 82//82 92//92 12//12
f 83//83 1//1 93//93
f 83//83 93//93 84//84
f 84//84 93//93 94//94
f 84//84 94//94 85//85
f 85//85 94//94 95//95
f 85//85 95//95 86//86
f 86//86 95//95 96//96
f 86//86 96//96 87//87
f 87//87 96//96 97//97
f 87//87 97//97 88//88
f 88//88 97//97 98//98
f 88//88 98//98 89//89
f 89//89 98//98 99//99
f 89//89 99//99 90//90
f 90//90 99//99 100//100
f 90//90 100//100 91//91
f 91//91 100//100 101//101
f 91//91 101//101 92//92
f 92//92 101//101 102//102
f 92//92 102//102 12//12
f 93//93 1//1 103//103
f 93//93 103//103 94//94
f 94//94 103//103 104//104
f 94//94 104//104 95//95
f 95//95 104//104 105//105
f 95//95 105//105 96//96
f 96//96 105//105 106//106
f 96//96 106//106 97//97
f 97//97 106//106 107//107
f 97//97 107//107 98//98
f 98//98 107//107 108//108
f 98//98 108//108 99//99
f 99//99 108//108 109//109
f 99//99 109//109 100//100
f 100//100 109//109 110//110
f 100//100 110//110 101//101
f 101//101 110//110 111//111
f 101//101 111//111 102//102
f 102//102 111//111 112//112
f 102//102 112//112 12//12
f 103//103 1//1 113//113
f 103//103 113//113 104//104
f 104//104 113//113 114//114
f 104//104 114//114 105//105
f 105//105 114//114 115//115
f 105//105 115//115 106//106
f 106//106 115//115 116//116
f 106//106 116//116 107//107
f 107//107 116//116 117//117
f 107//107 117//117 108//108
f 108//108 117//117 118//118
f 108//108 118//118 109//109
f 109//109 118//118 119//119
f 109//109 119//119 110//110
f 110//110 119//119 120//120
f 110//110 120//120 111//111
f 111//111 120//120 121//121
f 111//111 121//121 112//112
f 112//112 121//121 122//122
f 112//112 122//122 12//12
f 113//113 1//1 2//2
f 113//113 2//2 114//114
f 114//114 2//2 3//3
f 114//114 3//3 115//115
f 115//115 3//3 4//4
f 115//115 4//4 116//116
f 116//116 4//4 5//5
f 116//116 5//5 117//117
f 117//117 5//5 6//6
f 117//117 6//6 118//118
f 118//118 6//6 7//7
f 118//118 7//7 119//119
f 119//119 7//7 8//8
f 119//119 8//8 120//120
f 120//120 8//8 9//9
f 120//120 9//9 121//121
f 121//121 9//9 10//10
f 121//121 10//10 122//122
f 122//122 10//10 11//11
f 122//122 11//11 12//12

