# https://github.com/mikedh/trimesh
v 0.0434872 1.2360820 -0.0000000
v 0.0474467 1.2362220 -0.0004262
v 0.0512079 1.2374783 -0.0008179
v 0.0544663 1.2397490 -0.0011433
v 0.0569577 1.2428502 -0.0013761
v 0.0584804 1.2465306 -0.0014974
v 0.0839110 1.4804921 -0.0014974
v 0.0832146 1.4844137 -0.0013761
v 0.0814476 1.4879777 -0.0011433
v 0.0787533 1.4908955 -0.0008179
v 0.0753497 1.4929305 -0.0004262
v 0.0715128 1.4939180 0.0000000
v 0.0467125 1.2363018 -0.0023297
v 0.0497992 1.2376314 -0.0044706
v 0.0524970 1.2399631 -0.0062494
v 0.0545874 1.2431078 -0.0075219
v 0.0559012 1.2468109 -0.0081850
v 0.0813318 1.4807724 -0.0081850
v 0.0808443 1.4846713 -0.0075219
v 0.0794784 1.4881918 -0.0062494
v 0.0773445 1.4910486 -0.0044706
v 0.0746156 1.4930103 -0.0023297
v 0.0451306 1.2364738 -0.0036089
v 0.0467635 1.2379614 -0.0069255
v 0.0482534 1.2404243 -0.0096810
v 0.0494798 1.2436630 -0.0116522
v 0.0503433 1.2474151 -0.0126794
v 0.0757739 1.4813765 -0.0126794
v 0.0757368 1.4852265 -0.0116522
v 0.0752348 1.4886530 -0.0096810
v 0.0743088 1.4913786 -0.0069255
v 0.0730337 1.4931823 -0.0036089
v 0.0431247 1.2366918 -0.0039212
v 0.0429142 1.2383798 -0.0075247
v 0.0428727 1.2410092 -0.0105185
v 0.0430035 1.2443669 -0.0126603
v 0.0432960 1.2481811 -0.0137764
v 0.0687266 1.4821426 -0.0137764
v 0.0692604 1.4859305 -0.0126603
v 0.0698541 1.4892379 -0.0105185
v 0.0704596 1.4917970 -0.0075247
v 0.0710278 1.4934003 -0.0039212
v 0.0412324 1.2368975 -0.0031827
v 0.0392829 1.2387745 -0.0061076
v 0.0377965 1.2415609 -0.0085377
v 0.0368937 1.2450311 -0.0102761
v 0.0366476 1.2489037 -0.0111820
v 0.0620782 1.4828652 -0.0111820
v 0.0631506 1.4865946 -0.0102761
v 0.0647779 1.4897897 -0.0085377
v 0.0668282 1.4921917 -0.0061076
v 0.0691355 1.4936060 -0.0031827
v 0.0399607 1.2370357 -0.0015915
v 0.0368424 1.2390398 -0.0030540
v 0.0343850 1.2419318 -0.0042691
v 0.0327876 1.2454774 -0.0051384
v 0.0321796 1.2493894 -0.0055914
v 0.0576102 1.4833509 -0.0055914
v 0.0590445 1.4870409 -0.0051384
v 0.0613664 1.4901605 -0.0042691
v 0.0643877 1.4924569 -0.0030540
v 0.0678637 1.4937442 -0.0015915
v 0.0396503 1.2370695 0.0004262
v 0.0362467 1.2391045 0.0008179
v 0.0335524 1.2420223 0.0011433
v 0.0317854 1.2455863 0.0013761
v 0.0310890 1.2495079 0.0014974
v 0.0565196 1.4834694 0.0014974
v 0.0580423 1.4871498 0.0013761
v 0.0605337 1.4902510 0.0011433
v 0.0637921 1.4925217 0.0008179
v 0.0675533 1.4937780 0.0004262
v 0.0403844 1.2369897 0.0023297
v 0.0376555 1.2389514 0.0044706
v 0.0355216 1.2418082 0.0062494
v 0.0341557 1.2453287 0.0075219
v 0.0336682 1.2492276 0.0081850
v 0.0590988 1.4831891 0.0081850
v 0.0604126 1.4868922 0.0075219
v 0.0625030 1.4900369 0.0062494
v 0.0652008 1.4923686 0.0044706
v 0.0682875 1.4936982 0.0023297
v 0.0419663 1.2368177 0.0036089
v 0.0406912 1.2386214 0.0069255
v 0.0397652 1.2413470 0.0096810
v 0.0392632 1.2447735 0.0116522
v 0.0392261 1.2486235 0.0126794
v 0.0646567 1.4825849 0.0126794
v 0.0655202 1.4863370 0.0116522
v 0.0667466 1.4895757 0.0096810
v 0.0682365 1.4920386 0.0069255
v 0.0698694 1.4935262 0.0036089
v 0.0439722 1.2365997 0.0039212
v 0.0445404 1.2382030 0.0075247
v 0.0451459 1.2407621 0.0105185
v 0.0457396 1.2440695 0.0126603
v 0.0462734 1.2478574 0.0137764
v 0.0717040 1.4818189 0.0137764
v 0.0719965 1.4856331 0.0126603
v 0.0721273 1.4889908 0.0105185
v 0.0720858 1.4916202 0.0075247
v 0.0718753 1.4933082 0.0039212
v 0.0458645 1.2363940 0.0031827
v 0.0481718 1.2378083 0.0061076
v 0.0502221 1.2402103 0.0085377
v 0.0518494 1.2434054 0.0102761
v 0.0529218 1.2471348 0.0111820
v 0.0783524 1.4810963 0.0111820
v 0.0781063 1.4849689 0.0102761
v 0.0772035 1.4884391 0.0085377
v 0.0757171 1.4912255 0.0061076
v 0.0737676 1.4931025 0.0031827
v 0.0471363 1.2362558 0.0015915
v 0.0506123 1.2375431 0.0030540
v 0.0536336 1.2398395 0.0042691
v 0.0559555 1.2429591 0.0051384
v 0.0573898 1.2466491 0.0055914
v 0.0828204 1.4806106 0.0055914
v 0.0822124 1.4845226 0.0051384
v 0.0806150 1.4880682 0.0042691
v 0.0781576 1.4909602 0.0030540
v 0.0750393 1.4929643 0.0015915
vn -0.1080592 -0.9941445 -0.0000000
vn 0.1967412 -0.9799077 -0.0327693
vn 0.4606990 -0.8855136 -0.0601836
vn 0.6870415 -0.7218942 -0.0827202
vn 0.8588976 -0.5025438 -0.0987144
vn 0.9636794 -0.2446861 -0.1070084
vn 0.9937455 0.0319225 -0.1070084
vn 0.9468123 0.3062710 -0.0987144
vn 0.8260977 0.5574226 -0.0827202
vn 0.6401952 0.7658512 -0.0601836
vn 0.4026826 0.9147529 -0.0327693
vn 0.1080592 0.9941445 0.0000000
vn 0.1402987 -0.9737726 -0.1791176
vn 0.3570375 -0.8742461 -0.3289652
vn 0.5445625 -0.7064074 -0.4521507
vn 0.6888698 -0.4840626 -0.5395756
vn 0.7793659 -0.2246520 -0.5849105
vn 0.8094320 0.0519566 -0.5849105
vn 0.7767845 0.3247523 -0.5395756
vn 0.6836187 0.5729094 -0.4521507
vn 0.5365336 0.7771188 -0.3289652
vn 0.3462401 0.9208880 -0.1791176
vn 0.0186724 -0.9605524 -0.2774715
vn 0.1336601 -0.8499659 -0.5096007
vn 0.2375384 -0.6730352 -0.7004278
vn 0.3224815 -0.4442377 -0.8358579
vn 0.3821938 -0.1814812 -0.9060864
vn 0.4122600 0.0951275 -0.9060864
vn 0.4103962 0.3645771 -0.8358579
vn 0.3765946 0.6062816 -0.7004278
vn 0.3131563 0.8013989 -0.5096007
vn 0.2246138 0.9341082 -0.2774715
vn -0.1355481 -0.9437893 -0.3014772
vn -0.1495793 -0.8191790 -0.5536892
vn -0.1517639 -0.6307197 -0.7610258
vn -0.1420937 -0.3937404 -0.9081728
vn -0.1214149 -0.1267411 -0.9844771
vn -0.0913487 0.1498676 -0.9844771
vn -0.0541791 0.4150744 -0.9081728
vn -0.0127077 0.6485971 -0.7610258
vn 0.0299169 0.8321858 -0.5536892
vn 0.0703933 0.9508713 -0.3014772
vn -0.2810395 -0.9279750 -0.2447023
vn -0.4167870 -0.7901347 -0.4494171
vn -0.5190312 -0.5907994 -0.6177076
vn -0.5803734 -0.3461013 -0.7371435
vn -0.5965186 -0.0750994 -0.7990780
vn -0.5664525 0.2015093 -0.7990780
vn -0.4924588 0.4627135 -0.7371435
vn -0.3799750 0.6885174 -0.6177076
vn -0.2372908 0.8612301 -0.4494171
vn -0.0750981 0.9666856 -0.2447023
vn -0.3788175 -0.9173470 -0.1223596
vn -0.5963648 -0.7706154 -0.2247241
vn -0.7658545 -0.5639707 -0.3088751
vn -0.8749209 -0.3140853 -0.3685972
vn -0.9158138 -0.0403934 -0.3995666
vn -0.8857477 0.2362153 -0.3995666
vn -0.7870062 0.4947296 -0.3685972
vn -0.6267984 0.7153461 -0.3088751
vn -0.4168687 0.8807495 -0.2247241
vn -0.1728761 0.9773137 -0.1223596
vn -0.4026826 -0.9147529 0.0327693
vn -0.6401952 -0.7658512 0.0601836
vn -0.8260977 -0.5574226 0.0827202
vn -0.9468123 -0.3062710 0.0987144
vn -0.9937455 -0.0319225 0.1070084
vn -0.9636794 0.2446861 0.1070084
vn -0.8588976 0.5025438 0.0987144
vn -0.6870415 0.7218942 0.0827202
vn -0.4606990 0.8855136 0.0601836
vn -0.1967412 0.9799077 0.0327693
vn -0.3462401 -0.9208880 0.1791176
vn -0.5365336 -0.7771188 0.3289652
vn -0.6836187 -0.5729094 0.4521507
vn -0.7767845 -0.3247523 0.5395756
vn -0.8094320 -0.0519566 0.5849105
vn -0.7793659 0.2246520 0.5849105
vn -0.6888698 0.4840626 0.5395756
vn -0.5445625 0.7064074 0.4521507
vn -0.3570375 0.8742461 0.3289652
vn -0.1402987 0.9737726 0.1791176
vn -0.2246138 -0.9341082 0.2774715
vn -0.3131563 -0.8013989 0.5096007
vn -0.3765946 -0.6062816 0.7004278
vn -0.4103962 -0.3645771 0.8358579
vn -0.4122600 -0.0951275 0.9060864
vn -0.3821938 0.1814812 0.9060864
vn -0.3224815 0.4442377 0.8358579
vn -0.2375384 0.6730352 0.7004278
vn -0.1336601 0.8499659 0.5096007
vn -0.0186724 0.9605524 0.2774715
vn -0.0703933 -0.9508713 0.3014772
vn -0.0299169 -0.8321858 0.5536892
vn 0.0127077 -0.6485971 0.7610258
vn 0.0541791 -0.4150744 0.9081728
vn 0.0913487 -0.1498676 0.9844771
vn 0.1214149 0.1267411 0.9844771
vn 0.1420937 0.3937404 0.9081728
vn 0.1517639 0.6307197 0.7610258
vn 0.1495793 0.8191790 0.5536892
vn 0.1355481 0.9437893 0.3014772
vn 0.0750981 -0.9666856 0.2447023
vn 0.2372908 -0.8612301 0.4494171
vn 0.3799750 -0.6885174 0.6177076
vn 0.4924588 -0.4627135 0.7371435
vn 0.5664525 -0.2015093 0.7990780
vn 0.5965186 0.0750994 0.7990780
vn 0.5803734 0.3461013 0.7371435
vn 0.5190312 0.5907994 0.6177076
vn 0.4167870 0.7901347 0.4494171
vn 0.2810395 0.9279750 0.2447023
vn 0.1728761 -0.9773137 0.1223596
vn 0.4168687 -0.8807495 0.2247241
vn 0.6267984 -0.7153461 0.3088751
vn 0.7870062 -0.4947296 0.3685972
vn 0.8857477 -0.2362153 0.3995666
vn 0.9158138 0.0403934 0.3995666
vn 0.8749209 0.3140853 0.3685972
vn 0.7658545 0.5639707 0.3088751
vn 0.5963648 0.7706154 0.2247241
vn 0.3788175 0.9173470 0.1223596
f 2//2 1//1 13//13
f 2//2 13//13 3//3
f 3//3 13//13 14//14
f 3//3 14//14 4//4
f 4//4 14//14 15//15
f 4//4 15//15 5//5
f 5//5 15//15 16//16
f 5//5 16//16 6//6
f 6//6 16//16 17//17
f 6//6 17//17 7//7
f 7//7 17//17 18//18
f 7//7 18//18 8//8
f 8//8 18//18 19//19
f 8//8 19//19 9//9
f 9//9 19//19 20//20
f 9//9 20//20 10//10
f 10//10 20//20 21//21
f 10//10 21//21 11//11
f 11//11 21//21 22//22
f 11//11 22//22 12//12
f 13//13 1//1 23//23
f 13//13 23//23 14//14
f 14//14 23//23 24//24
f 14//14 24//24 15//15
f 15//15 24//24 25//25
f 15//15 25//25 16//16
f 16//16 25//25 26//26
f 16//16 26//26 17//17
f 17//17 26//26 27//27
f 17//17 27//27 18//18
f 18//18 27//27 28//28
f 18//18 28//28 19//19
f 19//19 28//28 29//29
f 19//19 29//29 20//20
f 20//20 29//29 30//30
f 20//20 30//30 21//21
f 21//21 30//30 31//31
f 21//21 31//31 22//22
f 22//22 31//31 32//32
f 22//22 32//32 12//12
f 23//23 1//1 33//33
f 23//23 33//33 24//24
f 24//24 33//33 34//34
f 24//24 34//34 25//25
f 25//25 34//34 35//35
f 25//25 35//35 26//26
f 26//26 35//35 36//36
f 26//26 36//36 27//27
f 27//27 36//36 37//37
f 27//27 37//37 28//28
f 28//28 37//37 38//38
f 28//28 38//38 29//29
f 29//29 38//38 39//39
f 29//29 39//39 30//30
f 30//30 39//39 40//40
f 30//30 40//40 31//31
f 31//31 40//40 41//41
f 31//31 41//41 32//32
f 32//32 41//41 42//42
f 32//32 42//42 12//12
f 33//33 1//1 43//43
f 33//33 43//43 34//34
f 34//34 43//43 44//44
f 34//34 44//44 35//35
f 35//35 44//44 45//45
f 35//35 45//45 36//36
f 36//36 45//45 46//46
f 36//36 46//46 37//37
f 37//37 46//46 47//47
f 37//37 47//47 38//38
f 38//38 47//47 48//48
f 38//38 48//48 39//39
f 39//39 48//48 49//49
f 39//39 49//49 40//40
f 40//40 49//49 50//50
f 40//40 50//50 41//41
f 41//41 50//50 51//51
f 41//41 51//51 42//42
f 42//42 51//51 52//52
f 42//42 52//52 12//12
f 43//43 1//1 53//53
f 43//43 53//53 44//44
f 44//44 53//53 54//54
f 44//44 54//54 45//45
f 45//45 54//54 55//55
f 45//45 55//55 46//46
f 46//46 55//55 56//56
f 46//46 56//56 47//47
f 47//47 56//56 57//57
f 47//47 57//57 48//48
f 48//48 57//57 58//58
f 48//48 58//58 49//49
f 49//49 58//58 59//59
f 49//49 59//59 50//50
f 50//50 59//59 60//60
f 50//50 60//60 51//51
f 51//51 60//60 61//61
f 51//51 61//61 52//52
f 52//52 61//61 62//62
f 52//52 62//62 12//12
f 53//53 1//1 63//63
f 53//53 63//63 54//54
f 54//54 63//63 64//64
f 54//54 64//64 55//55
f 55//55 64//64 65//65
f 55//55 65//65 56//56
f 56//56 65//65 66//66
f 56//56 66//66 57//57
f 57//57 66//66 67//67
f 57//57 67//67 58//58
f 58//58 67//67 68//68
f 58//58 68//68 59//59
f 59//59 68//68 69//69
f 59//59 69//69 60//60
f 60//60 69//69 70//70
f 60//60 70//70 61//61
f 61//61 70//70 71//71
f 61//61 71//71 62//62
f 62//62 71//71 72//72
f 62//62 72//72 12//12
f 63//63 1//1 73//73
f 63//63 73//73 64//64
f 64//64 73//73 74//74
f 64//64 74//74 65//65
f 65//65 74//74 75//75
f 65//65 75//75 66//66
f 66//66 75//75 76//76
f 66//66 76//76 67//67
f 67//67 76//76 77//77
f 67//67 77//77 68//68
f 68//68 77//77 78//78
f 68//68 78//78 69//69
f 69//69 78//78 79//79
f 69//69 79//79 70//70
f 70//70 79//79 80//80
f 70//70 80//80 71//71
f 71//71 80//80 81//81
f 71//71 81//81 72//72
f 72//72 81//81 82//82
f 72//72 82//82 12//12
f 73//73 1//1 83//83
f 73//73 83//83 74//74
f 74//74 83//83 84//84
f 74//74 84//84 75//75
f 75//75 84//84 85//85
f 75//75 85//85 76//76
f 76//76 85//85 86//86
f 76//76 86//86 77//77
f 77//77 86//86 87//87
f 77//77 87//87 78//78
f 78//78 87//87 88//88
f 78//78 88//88 79//79
f 79//79 88//88 89//89
f 79//79 89//89 80//80
f 80//80 89//89 90//90
f 80//80 90//90 81//81
f 81//81 90//90 91//91
f 81//81 91//91 82//82
f 82//82 91//91 92//92
f 82//82 92//92 12//12
f 83//83 1//1 93//93
f 83//83 93//93 84//84
f 84//84 93//93 94//94
f 84//84 94//94 85//85
f 85//85 94//94 95//95
f 85//85 95//95 86//86
f 86//86 95//95 96//96
f 86//86 96//96 87//87
f 87//87 96//96 97//97
f 87//87 97//97 88//88
f 88//88 97//97 98//98
f 88//88 98//98 89//89
f 89//89 98//98 99//99
f 89//89 99//99 90//90
f 90//90 99//99 100//100
f 90//90 100//100 91//91
f 91//91 100//100 101//101
f 91//91 101//101 92//92
f 92//92 101//101 102//102
f 92//92 102//102 12//12
f 93//93 1//1 103//103
f 93//93 103//103 94//94
f 94//94 103//103 104//104
f 94//94 104//104 95//95
f 95//95 104//104 105//105
f 95//95 105//105 96//96
f 96//96 105//105 106//106
f 96//96 106//106 97//97
f 97//97 106//106 107//107
f 97//97 107//107 98//98
f 98//98 107//107 108//108
f 98//98 108//108 99//99
f 99//99 108//108 109//109
f 99//99 109//109 100//100
f 100//100 109//109 110//110
f 100//100 110//110 101//101
f 101//101 110//110 111//111
f 101//101 111//111 102//102
f 102//102 111//111 112//112
f 102//102 112//112 12//12
f 103//103 1//1 113//113
f 103//103 113//113 104//104
f 104//104 113//113 114//114
f 104//104 114//114 105//105
f 105//105 114//114 115//115
f 105//105 115//115 106//106
f 106//106 115//115 116//116
f 106//106 116//116 107//107
f 107//107 116//116 117//117
f 107//107 117//117 108//108
f 108//108 117//117 118//118
f 108//108 118//118 109//109
f 109//109 118//118 119//119
f 109//109 119//119 110//110
f 110//110 119//119 120//120
f 110//110 120//120 111//111
f 111//111 120//120 121//121
f 111//111 121//121 112//112
f 112//112 121//121 122//122
f 112//112 122//122 12//12
f 113//113 1//1 2//2
f 113//113 2//2 114//114
f 114//114 2//2 3//3
f 114//114 3//3 115//115
f 115//115 3//3 4//4
f 115//115 4//4 116//116
f 116//116 4//4 5//5
f 116//116 5//5 117//117
f 117//117 5//5 6//6
f 117//117 6//6 118//118
f 118//118 6//6 7//7
f 118//118 7//7 119//119
f 119//119 7//7 8//8
f 119//119 8//8 120//120
f 120//120 8//8 9//9
f 120//120 9//9 121//121
f 121//121 9//9 10//10
f 121//121 10//10 122//122
f 122//122 10//10 11//11
f 122//122 11//11 12//12

